<svg width="633" height="395" viewBox="0 0 633 395" fill="none" xmlns="http://www.w3.org/2000/svg">
<path d="M3.71398 4.44444C3.37569 4.44444 3.11259 4.74514 3.11259 5.04583V8.65417C3.11259 8.99245 3.37569 9.25556 3.71398 9.25556H7.32231C7.623 9.25556 7.9237 8.99245 7.9237 8.65417V5.04583C7.9237 4.74514 7.623 4.44444 7.32231 4.44444H3.71398ZM1.90981 5.04583C1.90981 4.06858 2.69913 3.24167 3.71398 3.24167H7.32231C8.29957 3.24167 9.12648 4.06858 9.12648 5.04583V8.65417C9.12648 9.66901 8.29957 10.4583 7.32231 10.4583H3.71398C2.69913 10.4583 1.90981 9.66901 1.90981 8.65417V5.04583ZM3.71398 14.0667C3.37569 14.0667 3.11259 14.3674 3.11259 14.6681V18.2764C3.11259 18.6147 3.37569 18.8778 3.71398 18.8778H7.32231C7.623 18.8778 7.9237 18.6147 7.9237 18.2764V14.6681C7.9237 14.3674 7.623 14.0667 7.32231 14.0667H3.71398ZM1.90981 14.6681C1.90981 13.6908 2.69913 12.8639 3.71398 12.8639H7.32231C8.29957 12.8639 9.12648 13.6908 9.12648 14.6681V18.2764C9.12648 19.2912 8.29957 20.0806 7.32231 20.0806H3.71398C2.69913 20.0806 1.90981 19.2912 1.90981 18.2764V14.6681ZM16.9445 4.44444H13.3362C12.9979 4.44444 12.7348 4.74514 12.7348 5.04583V8.65417C12.7348 8.99245 12.9979 9.25556 13.3362 9.25556H16.9445C17.2452 9.25556 17.5459 8.99245 17.5459 8.65417V5.04583C17.5459 4.74514 17.2452 4.44444 16.9445 4.44444ZM13.3362 3.24167H16.9445C17.9218 3.24167 18.7487 4.06858 18.7487 5.04583V8.65417C18.7487 9.66901 17.9218 10.4583 16.9445 10.4583H13.3362C12.3214 10.4583 11.532 9.66901 11.532 8.65417V5.04583C11.532 4.06858 12.3214 3.24167 13.3362 3.24167ZM13.3362 14.0667C12.9979 14.0667 12.7348 14.3674 12.7348 14.6681V18.2764C12.7348 18.6147 12.9979 18.8778 13.3362 18.8778H16.9445C17.2452 18.8778 17.5459 18.6147 17.5459 18.2764V14.6681C17.5459 14.3674 17.2452 14.0667 16.9445 14.0667H13.3362ZM11.532 14.6681C11.532 13.6908 12.3214 12.8639 13.3362 12.8639H16.9445C17.9218 12.8639 18.7487 13.6908 18.7487 14.6681V18.2764C18.7487 19.2912 17.9218 20.0806 16.9445 20.0806H13.3362C12.3214 20.0806 11.532 19.2912 11.532 18.2764V14.6681Z" fill="#202020"/>
<path d="M39.1202 7.18293C38.8844 6.80125 38.5701 6.52621 38.1772 6.35782C37.7843 6.17821 37.3745 6.0884 36.9479 6.0884C36.6336 6.0884 36.3249 6.12769 36.0218 6.20627C35.7187 6.28485 35.4437 6.40273 35.1967 6.55989C34.961 6.71705 34.7701 6.92473 34.6242 7.18293C34.4782 7.44112 34.4053 7.74422 34.4053 8.09223C34.4053 8.36165 34.4446 8.60301 34.5231 8.8163C34.6129 9.01837 34.7533 9.20359 34.9441 9.37198C35.135 9.54037 35.3932 9.69754 35.7187 9.84347C36.0443 9.98941 36.4428 10.1353 36.9143 10.2813C37.3745 10.4272 37.818 10.5844 38.2445 10.7528C38.6823 10.9212 39.064 11.1345 39.3896 11.3927C39.7264 11.6508 39.9902 11.9764 40.181 12.3693C40.3831 12.751 40.4841 13.2337 40.4841 13.8174C40.4841 14.4124 40.3662 14.9288 40.1305 15.3666C39.8947 15.8044 39.5804 16.1693 39.1875 16.4612C38.8058 16.7418 38.3624 16.9495 37.8572 17.0842C37.3521 17.2301 36.8301 17.3031 36.2912 17.3031C35.9432 17.3031 35.5952 17.2694 35.2472 17.2021C34.8992 17.1459 34.5624 17.0561 34.2369 16.9326C33.9226 16.7979 33.6251 16.6295 33.3444 16.4275C33.0638 16.2142 32.8224 15.956 32.6203 15.6529L33.8327 14.6594C34.0909 15.0972 34.4502 15.4284 34.9104 15.6529C35.3707 15.8774 35.859 15.9897 36.3754 15.9897C36.6785 15.9897 36.9816 15.9448 37.2847 15.855C37.599 15.7651 37.8797 15.636 38.1267 15.4677C38.3736 15.288 38.5757 15.0691 38.7329 14.8109C38.89 14.5527 38.9686 14.2553 38.9686 13.9185C38.9686 13.548 38.9069 13.2505 38.7834 13.026C38.6599 12.7903 38.4691 12.5882 38.2109 12.4198C37.9527 12.2514 37.6271 12.0999 37.2342 11.9652C36.8413 11.8305 36.381 11.6733 35.8534 11.4937C35.4268 11.359 35.0339 11.2074 34.6747 11.039C34.3155 10.8594 34.0011 10.6461 33.7317 10.3992C33.4735 10.141 33.2658 9.83786 33.1087 9.48986C32.9627 9.13063 32.8898 8.70404 32.8898 8.2101C32.8898 7.63758 33.002 7.13802 33.2265 6.71144C33.4511 6.28485 33.7542 5.93124 34.1358 5.65059C34.5175 5.35871 34.9497 5.13981 35.4324 4.99387C35.9152 4.84794 36.4203 4.77497 36.9479 4.77497C37.6215 4.77497 38.2333 4.88161 38.7834 5.09491C39.3447 5.29697 39.8442 5.6562 40.282 6.17259L39.1202 7.18293ZM49.622 15.5687C49.1505 16.1749 48.6341 16.6015 48.0728 16.8484C47.5115 17.0842 46.8604 17.2021 46.1195 17.2021C45.5021 17.2021 44.9464 17.0954 44.4524 16.8821C43.9585 16.6576 43.5375 16.3601 43.1895 15.9897C42.8527 15.6192 42.5889 15.1814 42.3981 14.6762C42.2185 14.1711 42.1287 13.6322 42.1287 13.0597C42.1287 12.4535 42.2297 11.8978 42.4318 11.3927C42.6338 10.8763 42.9145 10.4384 43.2737 10.0792C43.6329 9.70876 44.0595 9.4225 44.5535 9.22043C45.0474 9.01837 45.5862 8.91733 46.17 8.91733C46.7201 8.91733 47.2252 9.01275 47.6855 9.20359C48.1458 9.38321 48.5387 9.65263 48.8642 10.0119C49.201 10.3599 49.4592 10.7921 49.6388 11.3085C49.8184 11.8136 49.9082 12.3918 49.9082 13.0429V13.4638H43.5431C43.5656 13.8006 43.6442 14.1262 43.7789 14.4405C43.9248 14.7436 44.11 15.013 44.3346 15.2488C44.5591 15.4733 44.8229 15.6529 45.126 15.7876C45.4291 15.9223 45.7602 15.9897 46.1195 15.9897C46.692 15.9897 47.1747 15.8886 47.5676 15.6866C47.9605 15.4845 48.3141 15.187 48.6285 14.7941L49.622 15.5687ZM48.4938 12.3525C48.4713 11.6789 48.2524 11.1401 47.837 10.7359C47.4217 10.3318 46.8492 10.1297 46.1195 10.1297C45.3898 10.1297 44.8004 10.3318 44.3514 10.7359C43.9024 11.1401 43.6329 11.6789 43.5431 12.3525H48.4938ZM52.0579 4.2698H53.3714V17H52.0579V4.2698ZM63.024 15.5687C62.5525 16.1749 62.0361 16.6015 61.4748 16.8484C60.9135 17.0842 60.2624 17.2021 59.5215 17.2021C58.9041 17.2021 58.3484 17.0954 57.8545 16.8821C57.3605 16.6576 56.9396 16.3601 56.5916 15.9897C56.2548 15.6192 55.991 15.1814 55.8001 14.6762C55.6205 14.1711 55.5307 13.6322 55.5307 13.0597C55.5307 12.4535 55.6317 11.8978 55.8338 11.3927C56.0359 10.8763 56.3165 10.4384 56.6758 10.0792C57.035 9.70876 57.4616 9.4225 57.9555 9.22043C58.4494 9.01837 58.9883 8.91733 59.572 8.91733C60.1221 8.91733 60.6273 9.01275 61.0875 9.20359C61.5478 9.38321 61.9407 9.65263 62.2663 10.0119C62.603 10.3599 62.8612 10.7921 63.0409 11.3085C63.2205 11.8136 63.3103 12.3918 63.3103 13.0429V13.4638H56.9452C56.9676 13.8006 57.0462 14.1262 57.1809 14.4405C57.3269 14.7436 57.5121 15.013 57.7366 15.2488C57.9611 15.4733 58.2249 15.6529 58.528 15.7876C58.8311 15.9223 59.1623 15.9897 59.5215 15.9897C60.094 15.9897 60.5768 15.8886 60.9697 15.6866C61.3626 15.4845 61.7162 15.187 62.0305 14.7941L63.024 15.5687ZM61.8958 12.3525C61.8734 11.6789 61.6544 11.1401 61.2391 10.7359C60.8237 10.3318 60.2512 10.1297 59.5215 10.1297C58.7918 10.1297 58.2025 10.3318 57.7534 10.7359C57.3044 11.1401 57.035 11.6789 56.9452 12.3525H61.8958ZM70.9495 11.0896C70.6688 10.7528 70.3657 10.5114 70.0402 10.3655C69.7146 10.2083 69.3554 10.1297 68.9625 10.1297C68.5247 10.1297 68.1374 10.2083 67.8006 10.3655C67.4638 10.5114 67.1832 10.7191 66.9587 10.9885C66.7454 11.2579 66.5826 11.5723 66.4703 11.9315C66.3581 12.2795 66.3019 12.6556 66.3019 13.0597C66.3019 13.4638 66.3637 13.8455 66.4872 14.2047C66.6219 14.5527 66.8015 14.8615 67.026 15.1309C67.2618 15.4003 67.5424 15.6136 67.868 15.7708C68.1935 15.9167 68.5583 15.9897 68.9625 15.9897C69.8269 15.9897 70.4948 15.6641 70.9663 15.013L71.943 15.9392C71.5613 16.377 71.1122 16.6969 70.5959 16.899C70.0795 17.101 69.535 17.2021 68.9625 17.2021C68.3563 17.2021 67.8006 17.101 67.2954 16.899C66.7903 16.6969 66.3581 16.4106 65.9988 16.0402C65.6508 15.6697 65.3758 15.2319 65.1737 14.7268C64.9829 14.2216 64.8875 13.6659 64.8875 13.0597C64.8875 12.4647 64.9829 11.9147 65.1737 11.4095C65.3758 10.9043 65.6564 10.4665 66.0157 10.0961C66.3749 9.7256 66.8015 9.43934 67.2954 9.23727C67.8006 9.02398 68.3563 8.91733 68.9625 8.91733C69.5462 8.91733 70.0963 9.01837 70.6127 9.22043C71.1403 9.4225 71.6006 9.73683 71.9935 10.1634L70.9495 11.0896ZM77.7763 10.2308H75.4526V14.1711C75.4526 14.4293 75.4582 14.6706 75.4694 14.8951C75.4806 15.1084 75.5255 15.2993 75.6041 15.4677C75.6827 15.6248 75.8006 15.7539 75.9577 15.855C76.1149 15.9448 76.3394 15.9897 76.6313 15.9897C76.8221 15.9897 77.0186 15.9672 77.2206 15.9223C77.4227 15.8774 77.6135 15.8101 77.7932 15.7202L77.8437 16.9158C77.6192 17.0168 77.3666 17.0898 77.0859 17.1347C76.8165 17.1796 76.5583 17.2021 76.3113 17.2021C75.8399 17.2021 75.4638 17.1403 75.1831 17.0168C74.9025 16.8934 74.6836 16.7194 74.5264 16.4948C74.3693 16.2703 74.2626 15.9953 74.2065 15.6697C74.1616 15.3329 74.1391 14.9625 74.1391 14.5584V10.2308H72.4216V9.1194H74.1391V6.87983H75.4526V9.1194H77.7763V10.2308ZM86.9684 18.8018C86.8337 19.1385 86.6934 19.4416 86.5474 19.7111C86.4127 19.9917 86.2443 20.2275 86.0422 20.4183C85.8514 20.6204 85.6157 20.7719 85.335 20.8729C85.0656 20.9852 84.7344 21.0413 84.3415 21.0413C84.1507 21.0413 83.9486 21.0301 83.7353 21.0077C83.5333 20.9852 83.3424 20.9291 83.1628 20.8393L83.3312 19.6942C83.4659 19.7504 83.6062 19.784 83.7522 19.7953C83.8981 19.8177 84.0665 19.8289 84.2573 19.8289C84.6839 19.8289 84.9982 19.7111 85.2003 19.4753C85.4024 19.2396 85.5764 18.9252 85.7223 18.5323L86.2612 17.0505L82.9944 9.1194H84.5267L86.9684 15.2993H87.0021L89.3427 9.1194H90.774L86.9684 18.8018ZM91.7409 13.0597C91.7409 12.4423 91.8475 11.881 92.0608 11.3758C92.2741 10.8706 92.566 10.4384 92.9365 10.0792C93.3069 9.70876 93.7503 9.4225 94.2667 9.22043C94.7831 9.01837 95.3444 8.91733 95.9506 8.91733C96.5568 8.91733 97.1181 9.01837 97.6345 9.22043C98.1509 9.4225 98.5943 9.70876 98.9648 10.0792C99.3352 10.4384 99.6271 10.8706 99.8404 11.3758C100.054 11.881 100.16 12.4423 100.16 13.0597C100.16 13.6771 100.054 14.2384 99.8404 14.7436C99.6271 15.2488 99.3352 15.6866 98.9648 16.057C98.5943 16.4163 98.1509 16.6969 97.6345 16.899C97.1181 17.101 96.5568 17.2021 95.9506 17.2021C95.3444 17.2021 94.7831 17.101 94.2667 16.899C93.7503 16.6969 93.3069 16.4163 92.9365 16.057C92.566 15.6866 92.2741 15.2488 92.0608 14.7436C91.8475 14.2384 91.7409 13.6771 91.7409 13.0597ZM93.1554 13.0597C93.1554 13.4751 93.2171 13.8624 93.3406 14.2216C93.4753 14.5696 93.6661 14.8783 93.9131 15.1477C94.1601 15.4059 94.452 15.6136 94.7887 15.7708C95.1367 15.9167 95.524 15.9897 95.9506 15.9897C96.3772 15.9897 96.7589 15.9167 97.0957 15.7708C97.4437 15.6136 97.7412 15.4059 97.9881 15.1477C98.2351 14.8783 98.4203 14.5696 98.5438 14.2216C98.6785 13.8624 98.7459 13.4751 98.7459 13.0597C98.7459 12.6443 98.6785 12.2627 98.5438 11.9147C98.4203 11.5554 98.2351 11.2467 97.9881 10.9885C97.7412 10.7191 97.4437 10.5114 97.0957 10.3655C96.7589 10.2083 96.3772 10.1297 95.9506 10.1297C95.524 10.1297 95.1367 10.2083 94.7887 10.3655C94.452 10.5114 94.1601 10.7191 93.9131 10.9885C93.6661 11.2467 93.4753 11.5554 93.3406 11.9147C93.2171 12.2627 93.1554 12.6443 93.1554 13.0597ZM109.064 15.1309C109.064 15.4901 109.075 15.8269 109.098 16.1412C109.12 16.4555 109.131 16.7418 109.131 17H107.885C107.885 16.7867 107.88 16.5734 107.868 16.3601C107.857 16.1468 107.852 15.9279 107.852 15.7034H107.818C107.728 15.8942 107.599 16.0795 107.431 16.2591C107.273 16.4387 107.083 16.6015 106.858 16.7474C106.633 16.8821 106.381 16.9888 106.1 17.0674C105.82 17.1572 105.517 17.2021 105.191 17.2021C104.675 17.2021 104.226 17.1235 103.844 16.9663C103.473 16.8092 103.165 16.5903 102.918 16.3096C102.671 16.029 102.486 15.6922 102.362 15.2993C102.25 14.8951 102.194 14.4573 102.194 13.9858V9.1194H103.507V13.8511C103.507 14.5135 103.653 15.0355 103.945 15.4171C104.237 15.7988 104.691 15.9897 105.309 15.9897C105.735 15.9897 106.1 15.9167 106.403 15.7708C106.718 15.6248 106.97 15.4171 107.161 15.1477C107.363 14.8783 107.509 14.5584 107.599 14.1879C107.7 13.8175 107.75 13.4077 107.75 12.9587V9.1194H109.064V15.1309ZM111.55 10.9885C111.55 10.6293 111.539 10.2925 111.517 9.97818C111.494 9.66386 111.483 9.3776 111.483 9.1194H112.729C112.729 9.33269 112.735 9.54599 112.746 9.75928C112.757 9.97257 112.763 10.1915 112.763 10.416H112.796C112.886 10.2252 113.01 10.0399 113.167 9.86031C113.335 9.6807 113.532 9.52353 113.756 9.38882C113.981 9.24289 114.233 9.13063 114.514 9.05204C114.795 8.96224 115.098 8.91733 115.423 8.91733C115.513 8.91733 115.603 8.92295 115.693 8.93417C115.783 8.9454 115.872 8.96785 115.962 9.00153L115.878 10.3318C115.653 10.2644 115.418 10.2308 115.171 10.2308C114.362 10.2308 113.773 10.4946 113.403 11.0222C113.043 11.5386 112.864 12.2514 112.864 13.1607V17H111.55V10.9885ZM122.83 10.2308H121.113V9.1194H122.83V7.35132C122.83 6.8686 122.875 6.43079 122.965 6.03788C123.055 5.63375 123.207 5.28575 123.42 4.99387C123.644 4.702 123.936 4.47748 124.295 4.32032C124.655 4.15193 125.098 4.06773 125.626 4.06773C125.794 4.06773 125.974 4.08457 126.165 4.11825C126.355 4.15193 126.513 4.20244 126.636 4.2698L126.451 5.44852C126.137 5.33626 125.839 5.28013 125.558 5.28013C125.222 5.28013 124.958 5.34188 124.767 5.46536C124.576 5.57762 124.43 5.7404 124.329 5.95369C124.239 6.15576 124.183 6.40273 124.161 6.6946C124.15 6.98647 124.144 7.3008 124.144 7.63758V9.1194H126.064V10.2308H124.144V17H122.83V10.2308ZM127.367 10.1297C127.772 9.71437 128.249 9.41127 128.799 9.22043C129.36 9.01837 129.927 8.91733 130.499 8.91733C131.667 8.91733 132.509 9.19237 133.025 9.74244C133.542 10.2925 133.8 11.1288 133.8 12.2514V15.6361C133.8 15.8606 133.811 16.0963 133.834 16.3433C133.856 16.579 133.884 16.7979 133.918 17H132.655C132.61 16.8204 132.582 16.6239 132.571 16.4106C132.571 16.1861 132.571 15.9897 132.571 15.8213H132.537C132.279 16.2254 131.931 16.5566 131.493 16.8148C131.066 17.073 130.55 17.2021 129.944 17.2021C129.54 17.2021 129.158 17.1515 128.799 17.0505C128.451 16.9495 128.142 16.8035 127.873 16.6127C127.614 16.4106 127.407 16.1637 127.25 15.8718C127.092 15.5799 127.014 15.2431 127.014 14.8615C127.014 14.2104 127.182 13.6996 127.519 13.3291C127.856 12.9587 128.271 12.6836 128.765 12.504C129.27 12.3244 129.809 12.2121 130.382 12.1672C130.965 12.1223 131.499 12.0999 131.981 12.0999H132.486V11.8641C132.486 11.2916 132.312 10.8594 131.964 10.5675C131.628 10.2757 131.151 10.1297 130.533 10.1297C130.106 10.1297 129.686 10.2027 129.27 10.3486C128.866 10.4834 128.507 10.6966 128.192 10.9885L127.367 10.1297ZM131.173 13.2113C130.331 13.2113 129.663 13.3291 129.169 13.5649C128.675 13.8006 128.428 14.1879 128.428 14.7268C128.428 15.2207 128.591 15.5743 128.917 15.7876C129.253 15.9897 129.669 16.0907 130.163 16.0907C130.544 16.0907 130.875 16.029 131.156 15.9055C131.448 15.7708 131.689 15.5968 131.88 15.3835C132.071 15.1702 132.217 14.9232 132.318 14.6426C132.419 14.3507 132.475 14.042 132.486 13.7164V13.2113H131.173ZM139.787 17H138.339L135.123 9.1194H136.655L139.113 15.2993H139.147L141.488 9.1194H142.902L139.787 17ZM143.869 13.0597C143.869 12.4423 143.976 11.881 144.189 11.3758C144.402 10.8706 144.694 10.4384 145.065 10.0792C145.435 9.70876 145.879 9.4225 146.395 9.22043C146.911 9.01837 147.473 8.91733 148.079 8.91733C148.685 8.91733 149.246 9.01837 149.763 9.22043C150.279 9.4225 150.723 9.70876 151.093 10.0792C151.463 10.4384 151.755 10.8706 151.969 11.3758C152.182 11.881 152.289 12.4423 152.289 13.0597C152.289 13.6771 152.182 14.2384 151.969 14.7436C151.755 15.2488 151.463 15.6866 151.093 16.057C150.723 16.4163 150.279 16.6969 149.763 16.899C149.246 17.101 148.685 17.2021 148.079 17.2021C147.473 17.2021 146.911 17.101 146.395 16.899C145.879 16.6969 145.435 16.4163 145.065 16.057C144.694 15.6866 144.402 15.2488 144.189 14.7436C143.976 14.2384 143.869 13.6771 143.869 13.0597ZM145.284 13.0597C145.284 13.4751 145.345 13.8624 145.469 14.2216C145.604 14.5696 145.794 14.8783 146.041 15.1477C146.288 15.4059 146.58 15.6136 146.917 15.7708C147.265 15.9167 147.652 15.9897 148.079 15.9897C148.505 15.9897 148.887 15.9167 149.224 15.7708C149.572 15.6136 149.869 15.4059 150.116 15.1477C150.363 14.8783 150.549 14.5696 150.672 14.2216C150.807 13.8624 150.874 13.4751 150.874 13.0597C150.874 12.6443 150.807 12.2627 150.672 11.9147C150.549 11.5554 150.363 11.2467 150.116 10.9885C149.869 10.7191 149.572 10.5114 149.224 10.3655C148.887 10.2083 148.505 10.1297 148.079 10.1297C147.652 10.1297 147.265 10.2083 146.917 10.3655C146.58 10.5114 146.288 10.7191 146.041 10.9885C145.794 11.2467 145.604 11.5554 145.469 11.9147C145.345 12.2627 145.284 12.6443 145.284 13.0597ZM154.322 10.9885C154.322 10.6293 154.311 10.2925 154.288 9.97818C154.266 9.66386 154.254 9.3776 154.254 9.1194H155.501C155.501 9.33269 155.506 9.54599 155.517 9.75928C155.529 9.97257 155.534 10.1915 155.534 10.416H155.568C155.658 10.2252 155.781 10.0399 155.938 9.86031C156.107 9.6807 156.303 9.52353 156.528 9.38882C156.752 9.24289 157.005 9.13063 157.285 9.05204C157.566 8.96224 157.869 8.91733 158.195 8.91733C158.285 8.91733 158.374 8.92295 158.464 8.93417C158.554 8.9454 158.644 8.96785 158.734 9.00153L158.649 10.3318C158.425 10.2644 158.189 10.2308 157.942 10.2308C157.134 10.2308 156.545 10.4946 156.174 11.0222C155.815 11.5386 155.635 12.2514 155.635 13.1607V17H154.322V10.9885ZM160.36 9.1194H161.673V17H160.36V9.1194ZM160.057 6.03788C160.057 5.77969 160.146 5.55517 160.326 5.36433C160.517 5.17349 160.747 5.07807 161.016 5.07807C161.286 5.07807 161.51 5.17349 161.69 5.36433C161.881 5.55517 161.976 5.77969 161.976 6.03788C161.976 6.31853 161.886 6.54866 161.707 6.72828C161.527 6.90789 161.297 6.9977 161.016 6.9977C160.736 6.9977 160.506 6.90789 160.326 6.72828C160.146 6.54866 160.057 6.31853 160.057 6.03788ZM168.598 10.2308H166.274V14.1711C166.274 14.4293 166.28 14.6706 166.291 14.8951C166.302 15.1084 166.347 15.2993 166.426 15.4677C166.504 15.6248 166.622 15.7539 166.779 15.855C166.936 15.9448 167.161 15.9897 167.453 15.9897C167.644 15.9897 167.84 15.9672 168.042 15.9223C168.244 15.8774 168.435 15.8101 168.615 15.7202L168.665 16.9158C168.441 17.0168 168.188 17.0898 167.907 17.1347C167.638 17.1796 167.38 17.2021 167.133 17.2021C166.661 17.2021 166.285 17.1403 166.005 17.0168C165.724 16.8934 165.505 16.7194 165.348 16.4948C165.191 16.2703 165.084 15.9953 165.028 15.6697C164.983 15.3329 164.961 14.9625 164.961 14.5584V10.2308H163.243V9.1194H164.961V6.87983H166.274V9.1194H168.598V10.2308ZM177.246 15.5687C176.774 16.1749 176.258 16.6015 175.696 16.8484C175.135 17.0842 174.484 17.2021 173.743 17.2021C173.126 17.2021 172.57 17.0954 172.076 16.8821C171.582 16.6576 171.161 16.3601 170.813 15.9897C170.476 15.6192 170.213 15.1814 170.022 14.6762C169.842 14.1711 169.752 13.6322 169.752 13.0597C169.752 12.4535 169.853 11.8978 170.055 11.3927C170.257 10.8763 170.538 10.4384 170.897 10.0792C171.257 9.70876 171.683 9.4225 172.177 9.22043C172.671 9.01837 173.21 8.91733 173.794 8.91733C174.344 8.91733 174.849 9.01275 175.309 9.20359C175.769 9.38321 176.162 9.65263 176.488 10.0119C176.825 10.3599 177.083 10.7921 177.262 11.3085C177.442 11.8136 177.532 12.3918 177.532 13.0429V13.4638H171.167C171.189 13.8006 171.268 14.1262 171.403 14.4405C171.548 14.7436 171.734 15.013 171.958 15.2488C172.183 15.4733 172.447 15.6529 172.75 15.7876C173.053 15.9223 173.384 15.9897 173.743 15.9897C174.316 15.9897 174.798 15.8886 175.191 15.6866C175.584 15.4845 175.938 15.187 176.252 14.7941L177.246 15.5687ZM176.117 12.3525C176.095 11.6789 175.876 11.1401 175.461 10.7359C175.045 10.3318 174.473 10.1297 173.743 10.1297C173.013 10.1297 172.424 10.3318 171.975 10.7359C171.526 11.1401 171.257 11.6789 171.167 12.3525H176.117ZM184.149 10.1297C184.553 9.71437 185.031 9.41127 185.581 9.22043C186.142 9.01837 186.709 8.91733 187.281 8.91733C188.449 8.91733 189.291 9.19237 189.807 9.74244C190.324 10.2925 190.582 11.1288 190.582 12.2514V15.6361C190.582 15.8606 190.593 16.0963 190.615 16.3433C190.638 16.579 190.666 16.7979 190.7 17H189.437C189.392 16.8204 189.364 16.6239 189.353 16.4106C189.353 16.1861 189.353 15.9897 189.353 15.8213H189.319C189.061 16.2254 188.713 16.5566 188.275 16.8148C187.848 17.073 187.332 17.2021 186.726 17.2021C186.322 17.2021 185.94 17.1515 185.581 17.0505C185.233 16.9495 184.924 16.8035 184.654 16.6127C184.396 16.4106 184.189 16.1637 184.031 15.8718C183.874 15.5799 183.796 15.2431 183.796 14.8615C183.796 14.2104 183.964 13.6996 184.301 13.3291C184.638 12.9587 185.053 12.6836 185.547 12.504C186.052 12.3244 186.591 12.2121 187.163 12.1672C187.747 12.1223 188.28 12.0999 188.763 12.0999H189.268V11.8641C189.268 11.2916 189.094 10.8594 188.746 10.5675C188.41 10.2757 187.932 10.1297 187.315 10.1297C186.888 10.1297 186.467 10.2027 186.052 10.3486C185.648 10.4834 185.289 10.6966 184.974 10.9885L184.149 10.1297ZM187.955 13.2113C187.113 13.2113 186.445 13.3291 185.951 13.5649C185.457 13.8006 185.21 14.1879 185.21 14.7268C185.21 15.2207 185.373 15.5743 185.698 15.7876C186.035 15.9897 186.451 16.0907 186.945 16.0907C187.326 16.0907 187.657 16.029 187.938 15.9055C188.23 15.7708 188.471 15.5968 188.662 15.3835C188.853 15.1702 188.999 14.9232 189.1 14.6426C189.201 14.3507 189.257 14.042 189.268 13.7164V13.2113H187.955ZM192.915 9.1194H194.228V10.2644H194.262C194.621 9.83786 195.037 9.50669 195.508 9.27095C195.991 9.03521 196.518 8.91733 197.091 8.91733C197.708 8.91733 198.27 9.02398 198.775 9.23727C199.291 9.43934 199.729 9.7256 200.088 10.0961C200.447 10.4665 200.728 10.9043 200.93 11.4095C201.132 11.9147 201.233 12.4647 201.233 13.0597C201.233 13.6547 201.132 14.2047 200.93 14.7099C200.728 15.2151 200.447 15.6529 200.088 16.0233C199.74 16.3938 199.325 16.6857 198.842 16.899C198.359 17.101 197.843 17.2021 197.293 17.2021C196.586 17.2021 195.963 17.0505 195.424 16.7474C194.896 16.4331 194.509 16.0514 194.262 15.6024H194.228V20.8393H192.915V9.1194ZM194.228 13.0597C194.228 13.4751 194.29 13.8624 194.414 14.2216C194.548 14.5696 194.739 14.8783 194.986 15.1477C195.233 15.4059 195.525 15.6136 195.862 15.7708C196.21 15.9167 196.597 15.9897 197.024 15.9897C197.45 15.9897 197.832 15.9167 198.169 15.7708C198.517 15.6136 198.814 15.4059 199.061 15.1477C199.308 14.8783 199.493 14.5696 199.617 14.2216C199.751 13.8624 199.819 13.4751 199.819 13.0597C199.819 12.6443 199.751 12.2627 199.617 11.9147C199.493 11.5554 199.308 11.2467 199.061 10.9885C198.814 10.7191 198.517 10.5114 198.169 10.3655C197.832 10.2083 197.45 10.1297 197.024 10.1297C196.597 10.1297 196.21 10.2083 195.862 10.3655C195.525 10.5114 195.233 10.7191 194.986 10.9885C194.739 11.2467 194.548 11.5554 194.414 11.9147C194.29 12.2627 194.228 12.6443 194.228 13.0597ZM203.209 9.1194H204.522V10.2644H204.556C204.915 9.83786 205.331 9.50669 205.802 9.27095C206.285 9.03521 206.812 8.91733 207.385 8.91733C208.002 8.91733 208.564 9.02398 209.069 9.23727C209.585 9.43934 210.023 9.7256 210.382 10.0961C210.742 10.4665 211.022 10.9043 211.224 11.4095C211.426 11.9147 211.527 12.4647 211.527 13.0597C211.527 13.6547 211.426 14.2047 211.224 14.7099C211.022 15.2151 210.742 15.6529 210.382 16.0233C210.034 16.3938 209.619 16.6857 209.136 16.899C208.654 17.101 208.137 17.2021 207.587 17.2021C206.88 17.2021 206.257 17.0505 205.718 16.7474C205.19 16.4331 204.803 16.0514 204.556 15.6024H204.522V20.8393H203.209V9.1194ZM204.522 13.0597C204.522 13.4751 204.584 13.8624 204.708 14.2216C204.842 14.5696 205.033 14.8783 205.28 15.1477C205.527 15.4059 205.819 15.6136 206.156 15.7708C206.504 15.9167 206.891 15.9897 207.318 15.9897C207.744 15.9897 208.126 15.9167 208.463 15.7708C208.811 15.6136 209.108 15.4059 209.355 15.1477C209.602 14.8783 209.787 14.5696 209.911 14.2216C210.046 13.8624 210.113 13.4751 210.113 13.0597C210.113 12.6443 210.046 12.2627 209.911 11.9147C209.787 11.5554 209.602 11.2467 209.355 10.9885C209.108 10.7191 208.811 10.5114 208.463 10.3655C208.126 10.2083 207.744 10.1297 207.318 10.1297C206.891 10.1297 206.504 10.2083 206.156 10.3655C205.819 10.5114 205.527 10.7191 205.28 10.9885C205.033 11.2467 204.842 11.5554 204.708 11.9147C204.584 12.2627 204.522 12.6443 204.522 13.0597Z" fill="black"/>
<path d="M4.70703 39.6014H628.165C630.042 39.6014 631.564 41.123 631.564 43V79.0278C631.564 80.9048 630.042 82.4264 628.165 82.4264H4.70703C2.83003 82.4264 1.30842 80.9048 1.30842 79.0278V43C1.30842 41.123 2.83003 39.6014 4.70703 39.6014Z" stroke="#D0D4E4" stroke-width="1.20278"/>
<path d="M27.081 60.2344C27.081 58.6275 26.2071 57.1617 24.8258 56.3441C23.4163 55.5266 21.6967 55.5266 20.3154 56.3441C18.9059 57.1617 18.0602 58.6275 18.0602 60.2344C18.0602 61.8694 18.9059 63.3353 20.3154 64.1528C21.6967 64.9703 23.4163 64.9703 24.8258 64.1528C26.2071 63.3353 27.081 61.8694 27.081 60.2344ZM26.2071 64.8576C25.1923 65.6469 23.9237 66.0979 22.5706 66.0979C19.3287 66.0979 16.707 63.4762 16.707 60.2344C16.707 57.0207 19.3287 54.3708 22.5706 54.3708C25.7842 54.3708 28.4341 57.0207 28.4341 60.2344C28.4341 61.6157 27.9549 62.8842 27.1656 63.8991L30.943 67.6484C31.1967 67.9303 31.1967 68.3531 30.943 68.6068C30.6611 68.8887 30.2383 68.8887 29.9846 68.6068L26.2071 64.8576Z" fill="#D0D4E4"/>
<path d="M49.2877 57.5993C49.0856 57.2721 48.8162 57.0364 48.4794 56.892C48.1427 56.7381 47.7914 56.6611 47.4258 56.6611C47.1564 56.6611 46.8918 56.6948 46.632 56.7621C46.3722 56.8295 46.1364 56.9305 45.9247 57.0652C45.7227 57.1999 45.5591 57.3779 45.434 57.5993C45.3089 57.8206 45.2464 58.0804 45.2464 58.3787C45.2464 58.6096 45.28 58.8165 45.3474 58.9993C45.4244 59.1725 45.5447 59.3313 45.7082 59.4756C45.8718 59.6199 46.0931 59.7546 46.3722 59.8797C46.6512 60.0048 46.9928 60.1299 47.3969 60.255C47.7914 60.3801 48.1715 60.5148 48.5372 60.6591C48.9124 60.8035 49.2396 60.9863 49.5186 61.2076C49.8073 61.4289 50.0334 61.7079 50.197 62.0447C50.3702 62.3719 50.4568 62.7856 50.4568 63.286C50.4568 63.796 50.3558 64.2386 50.1537 64.6139C49.9516 64.9891 49.6822 65.3018 49.3454 65.552C49.0183 65.7926 48.6382 65.9706 48.2052 66.0861C47.7722 66.2111 47.3248 66.2737 46.8629 66.2737C46.5646 66.2737 46.2663 66.2448 45.968 66.1871C45.6697 66.139 45.3811 66.062 45.102 65.9562C44.8326 65.8407 44.5776 65.6964 44.3371 65.5232C44.0965 65.3403 43.8896 65.119 43.7164 64.8592L44.7556 64.0077C44.9769 64.3829 45.2849 64.6668 45.6794 64.8592C46.0739 65.0517 46.4924 65.1479 46.9351 65.1479C47.1949 65.1479 47.4547 65.1094 47.7145 65.0324C47.9839 64.9554 48.2244 64.8448 48.4361 64.7005C48.6478 64.5465 48.821 64.3589 48.9557 64.1376C49.0904 63.9162 49.1578 63.6613 49.1578 63.3726C49.1578 63.0551 49.1049 62.8001 48.999 62.6076C48.8932 62.4056 48.7296 62.2324 48.5083 62.088C48.287 61.9437 48.0079 61.8138 47.6712 61.6983C47.3344 61.5829 46.9399 61.4481 46.4876 61.2942C46.122 61.1787 45.7852 61.0488 45.4773 60.9045C45.1694 60.7505 44.9 60.5677 44.669 60.356C44.4477 60.1347 44.2697 59.8749 44.135 59.5766C44.0099 59.2687 43.9474 58.9031 43.9474 58.4797C43.9474 57.989 44.0436 57.5608 44.236 57.1951C44.4285 56.8295 44.6883 56.5264 45.0154 56.2858C45.3426 56.0356 45.713 55.848 46.1268 55.7229C46.5406 55.5978 46.9736 55.5353 47.4258 55.5353C48.0031 55.5353 48.5275 55.6267 48.999 55.8095C49.4801 55.9827 49.9083 56.2906 50.2836 56.7333L49.2877 57.5993ZM58.2893 64.7871C57.8851 65.3067 57.4425 65.6723 56.9614 65.884C56.4803 66.0861 55.9222 66.1871 55.2871 66.1871C54.7579 66.1871 54.2816 66.0957 53.8582 65.9129C53.4348 65.7204 53.074 65.4654 52.7757 65.1479C52.4871 64.8304 52.2609 64.4551 52.0974 64.0221C51.9434 63.5891 51.8664 63.1272 51.8664 62.6365C51.8664 62.1169 51.953 61.6406 52.1262 61.2076C52.2994 60.765 52.54 60.3897 52.8479 60.0818C53.1558 59.7643 53.5214 59.5189 53.9448 59.3457C54.3682 59.1725 54.8301 59.0859 55.3304 59.0859C55.8019 59.0859 56.2349 59.1677 56.6294 59.3313C57.0239 59.4852 57.3607 59.7161 57.6398 60.0241C57.9284 60.3223 58.1497 60.6928 58.3037 61.1354C58.4576 61.5684 58.5346 62.064 58.5346 62.6221V62.9829H53.0788C53.0981 63.2716 53.1654 63.5506 53.2809 63.82C53.406 64.0798 53.5647 64.3108 53.7572 64.5128C53.9496 64.7053 54.1758 64.8592 54.4356 64.9747C54.6954 65.0902 54.9792 65.1479 55.2871 65.1479C55.7779 65.1479 56.1916 65.0613 56.5284 64.8881C56.8652 64.7149 57.1683 64.4599 57.4377 64.1231L58.2893 64.7871ZM57.3222 62.0303C57.303 61.453 57.1153 60.9911 56.7593 60.6447C56.4033 60.2983 55.9126 60.1251 55.2871 60.1251C54.6617 60.1251 54.1565 60.2983 53.7716 60.6447C53.3867 60.9911 53.1558 61.453 53.0788 62.0303H57.3222ZM60.1896 60.1251C60.536 59.7691 60.9449 59.5093 61.4164 59.3457C61.8975 59.1725 62.3835 59.0859 62.8742 59.0859C63.8749 59.0859 64.5966 59.3216 65.0392 59.7931C65.4818 60.2646 65.7031 60.9815 65.7031 61.9437V64.8448C65.7031 65.0372 65.7128 65.2393 65.732 65.451C65.7512 65.6531 65.7753 65.8407 65.8042 66.0139H64.7217C64.6832 65.8599 64.6591 65.6915 64.6495 65.5087C64.6495 65.3163 64.6495 65.1479 64.6495 65.0036H64.6206C64.3993 65.35 64.101 65.6338 63.7258 65.8551C63.3601 66.0764 62.9175 66.1871 62.3979 66.1871C62.0515 66.1871 61.7243 66.1438 61.4164 66.0572C61.1181 65.9706 60.8535 65.8455 60.6226 65.6819C60.4013 65.5087 60.2233 65.297 60.0886 65.0469C59.9539 64.7967 59.8865 64.508 59.8865 64.1809C59.8865 63.6228 60.0308 63.185 60.3195 62.8674C60.6082 62.5499 60.9642 62.3141 61.3876 62.1602C61.8206 62.0062 62.2824 61.91 62.7732 61.8715C63.2735 61.833 63.7306 61.8138 64.1443 61.8138H64.5773V61.6117C64.5773 61.121 64.4282 60.7505 64.1299 60.5004C63.8412 60.2502 63.4323 60.1251 62.9031 60.1251C62.5374 60.1251 62.1766 60.1876 61.8206 60.3127C61.4742 60.4282 61.1663 60.611 60.8968 60.8612L60.1896 60.1251ZM63.4515 62.7664C62.7299 62.7664 62.1573 62.8674 61.734 63.0695C61.3106 63.2716 61.0989 63.6035 61.0989 64.0654C61.0989 64.4888 61.2384 64.7919 61.5175 64.9747C61.8061 65.1479 62.1622 65.2345 62.5855 65.2345C62.9127 65.2345 63.1965 65.1816 63.4371 65.0757C63.6873 64.9603 63.8942 64.8111 64.0577 64.6283C64.2213 64.4455 64.3464 64.2338 64.433 63.9932C64.5196 63.743 64.5677 63.4784 64.5773 63.1994V62.7664H63.4515ZM67.7607 60.8612C67.7607 60.5533 67.7511 60.2646 67.7318 59.9952C67.7126 59.7258 67.7029 59.4804 67.7029 59.2591H68.771C68.771 59.4419 68.7758 59.6247 68.7854 59.8076C68.7951 59.9904 68.7999 60.178 68.7999 60.3705H68.8287C68.9057 60.2069 69.0116 60.0481 69.1463 59.8942C69.2906 59.7402 69.459 59.6055 69.6514 59.49C69.8439 59.3649 70.0604 59.2687 70.3009 59.2014C70.5415 59.1244 70.8013 59.0859 71.0803 59.0859C71.1573 59.0859 71.2343 59.0907 71.3113 59.1003C71.3883 59.1099 71.4652 59.1292 71.5422 59.1581L71.47 60.2983C71.2776 60.2406 71.0755 60.2117 70.8638 60.2117C70.171 60.2117 69.6659 60.4378 69.3483 60.8901C69.0404 61.3327 68.8865 61.9437 68.8865 62.7231V66.0139H67.7607V60.8612ZM77.3875 60.9478C77.1469 60.6591 76.8871 60.4522 76.6081 60.3272C76.329 60.1924 76.0211 60.1251 75.6843 60.1251C75.3091 60.1251 74.9771 60.1924 74.6885 60.3272C74.3998 60.4522 74.1592 60.6303 73.9668 60.8612C73.784 61.0921 73.6444 61.3615 73.5482 61.6695C73.452 61.9677 73.4039 62.2901 73.4039 62.6365C73.4039 62.9829 73.4568 63.31 73.5627 63.618C73.6781 63.9162 73.8321 64.1809 74.0245 64.4118C74.2266 64.6427 74.4671 64.8255 74.7462 64.9603C75.0252 65.0853 75.338 65.1479 75.6843 65.1479C76.4253 65.1479 76.9978 64.8688 77.4019 64.3108L78.2391 65.1046C77.9119 65.4799 77.527 65.7541 77.0844 65.9273C76.6418 66.1005 76.1751 66.1871 75.6843 66.1871C75.1648 66.1871 74.6885 66.1005 74.2555 65.9273C73.8225 65.7541 73.452 65.5087 73.1441 65.1912C72.8458 64.8737 72.6101 64.4984 72.4369 64.0654C72.2733 63.6324 72.1915 63.1561 72.1915 62.6365C72.1915 62.1265 72.2733 61.655 72.4369 61.222C72.6101 60.789 72.8506 60.4138 73.1585 60.0962C73.4664 59.7787 73.8321 59.5333 74.2555 59.3601C74.6885 59.1773 75.1648 59.0859 75.6843 59.0859C76.1847 59.0859 76.6562 59.1725 77.0988 59.3457C77.5511 59.5189 77.9456 59.7883 78.2823 60.154L77.3875 60.9478ZM79.5441 55.1023H80.6699V60.1973H80.6988C80.7758 60.0625 80.8816 59.9326 81.0163 59.8076C81.1511 59.6728 81.3098 59.5526 81.4926 59.4467C81.6851 59.3409 81.8968 59.2543 82.1277 59.1869C82.3586 59.1196 82.604 59.0859 82.8638 59.0859C83.3064 59.0859 83.6865 59.1532 84.004 59.288C84.3312 59.4227 84.6006 59.6103 84.8123 59.8509C85.024 60.0914 85.178 60.3849 85.2742 60.7313C85.38 61.0681 85.4329 61.4385 85.4329 61.8427V66.0139H84.3071V61.9581C84.3071 61.3904 84.1821 60.943 83.9319 60.6158C83.6817 60.2887 83.292 60.1251 82.7628 60.1251C82.3971 60.1251 82.0796 60.1876 81.8102 60.3127C81.5504 60.4378 81.3339 60.6158 81.1607 60.8468C80.9971 61.0777 80.872 61.3519 80.7854 61.6695C80.7084 61.987 80.6699 62.3382 80.6699 62.7231V66.0139H79.5441V55.1023ZM92.1586 60.2117H90.6864V59.2591H92.1586V57.7436C92.1586 57.3298 92.1971 56.9546 92.2741 56.6178C92.3511 56.2714 92.481 55.9731 92.6638 55.7229C92.8563 55.4727 93.1064 55.2803 93.4143 55.1456C93.7223 55.0013 94.1023 54.9291 94.5546 54.9291C94.6989 54.9291 94.8529 54.9435 95.0164 54.9724C95.18 55.0013 95.3147 55.0446 95.4206 55.1023L95.2618 56.1126C94.9924 56.0164 94.7374 55.9683 94.4968 55.9683C94.2082 55.9683 93.9821 56.0212 93.8185 56.1271C93.6549 56.2233 93.5298 56.3628 93.4432 56.5456C93.3662 56.7188 93.3181 56.9305 93.2989 57.1807C93.2893 57.4309 93.2844 57.7003 93.2844 57.989V59.2591H94.9298V60.2117H93.2844V66.0139H92.1586V60.2117ZM95.7443 62.6365C95.7443 62.1073 95.8357 61.6262 96.0185 61.1932C96.2014 60.7602 96.4515 60.3897 96.7691 60.0818C97.0866 59.7643 97.4667 59.5189 97.9093 59.3457C98.3519 59.1725 98.833 59.0859 99.3526 59.0859C99.8722 59.0859 100.353 59.1725 100.796 59.3457C101.239 59.5189 101.619 59.7643 101.936 60.0818C102.254 60.3897 102.504 60.7602 102.687 61.1932C102.87 61.6262 102.961 62.1073 102.961 62.6365C102.961 63.1657 102.87 63.6468 102.687 64.0798C102.504 64.5128 102.254 64.8881 101.936 65.2056C101.619 65.5135 101.239 65.7541 100.796 65.9273C100.353 66.1005 99.8722 66.1871 99.3526 66.1871C98.833 66.1871 98.3519 66.1005 97.9093 65.9273C97.4667 65.7541 97.0866 65.5135 96.7691 65.2056C96.4515 64.8881 96.2014 64.5128 96.0185 64.0798C95.8357 63.6468 95.7443 63.1657 95.7443 62.6365ZM96.9567 62.6365C96.9567 62.9925 97.0096 63.3245 97.1155 63.6324C97.2309 63.9307 97.3945 64.1953 97.6062 64.4262C97.8179 64.6475 98.0681 64.8255 98.3567 64.9603C98.655 65.0853 98.987 65.1479 99.3526 65.1479C99.7183 65.1479 100.045 65.0853 100.334 64.9603C100.632 64.8255 100.887 64.6475 101.099 64.4262C101.311 64.1953 101.47 63.9307 101.575 63.6324C101.691 63.3245 101.749 62.9925 101.749 62.6365C101.749 62.2805 101.691 61.9533 101.575 61.655C101.47 61.3471 101.311 61.0825 101.099 60.8612C100.887 60.6303 100.632 60.4522 100.334 60.3272C100.045 60.1924 99.7183 60.1251 99.3526 60.1251C98.987 60.1251 98.655 60.1924 98.3567 60.3272C98.0681 60.4522 97.8179 60.6303 97.6062 60.8612C97.3945 61.0825 97.2309 61.3471 97.1155 61.655C97.0096 61.9533 96.9567 62.2805 96.9567 62.6365ZM104.704 60.8612C104.704 60.5533 104.694 60.2646 104.675 59.9952C104.656 59.7258 104.646 59.4804 104.646 59.2591H105.714C105.714 59.4419 105.719 59.6247 105.729 59.8076C105.738 59.9904 105.743 60.178 105.743 60.3705H105.772C105.849 60.2069 105.955 60.0481 106.089 59.8942C106.234 59.7402 106.402 59.6055 106.595 59.49C106.787 59.3649 107.004 59.2687 107.244 59.2014C107.485 59.1244 107.744 59.0859 108.023 59.0859C108.1 59.0859 108.177 59.0907 108.254 59.1003C108.331 59.1099 108.408 59.1292 108.485 59.1581L108.413 60.2983C108.221 60.2406 108.019 60.2117 107.807 60.2117C107.114 60.2117 106.609 60.4378 106.291 60.8901C105.984 61.3327 105.83 61.9437 105.83 62.7231V66.0139H104.704V60.8612ZM113.709 60.1251C114.055 59.7691 114.464 59.5093 114.935 59.3457C115.416 59.1725 115.902 59.0859 116.393 59.0859C117.394 59.0859 118.115 59.3216 118.558 59.7931C119.001 60.2646 119.222 60.9815 119.222 61.9437V64.8448C119.222 65.0372 119.232 65.2393 119.251 65.451C119.27 65.6531 119.294 65.8407 119.323 66.0139H118.241C118.202 65.8599 118.178 65.6915 118.168 65.5087C118.168 65.3163 118.168 65.1479 118.168 65.0036H118.14C117.918 65.35 117.62 65.6338 117.245 65.8551C116.879 66.0764 116.436 66.1871 115.917 66.1871C115.57 66.1871 115.243 66.1438 114.935 66.0572C114.637 65.9706 114.372 65.8455 114.142 65.6819C113.92 65.5087 113.742 65.297 113.607 65.0469C113.473 64.7967 113.405 64.508 113.405 64.1809C113.405 63.6228 113.55 63.185 113.838 62.8674C114.127 62.5499 114.483 62.3141 114.906 62.1602C115.339 62.0062 115.801 61.91 116.292 61.8715C116.792 61.833 117.249 61.8138 117.663 61.8138H118.096V61.6117C118.096 61.121 117.947 60.7505 117.649 60.5004C117.36 60.2502 116.951 60.1251 116.422 60.1251C116.056 60.1251 115.695 60.1876 115.339 60.3127C114.993 60.4282 114.685 60.611 114.416 60.8612L113.709 60.1251ZM116.97 62.7664C116.249 62.7664 115.676 62.8674 115.253 63.0695C114.829 63.2716 114.618 63.6035 114.618 64.0654C114.618 64.4888 114.757 64.7919 115.036 64.9747C115.325 65.1479 115.681 65.2345 116.104 65.2345C116.432 65.2345 116.715 65.1816 116.956 65.0757C117.206 64.9603 117.413 64.8111 117.577 64.6283C117.74 64.4455 117.865 64.2338 117.952 63.9932C118.039 63.743 118.087 63.4784 118.096 63.1994V62.7664H116.97ZM121.222 59.2591H122.348V60.2406H122.377C122.684 59.8749 123.04 59.5911 123.445 59.389C123.858 59.1869 124.311 59.0859 124.801 59.0859C125.331 59.0859 125.812 59.1773 126.245 59.3601C126.687 59.5333 127.063 59.7787 127.37 60.0962C127.678 60.4138 127.919 60.789 128.092 61.222C128.265 61.655 128.352 62.1265 128.352 62.6365C128.352 63.1465 128.265 63.618 128.092 64.051C127.919 64.484 127.678 64.8592 127.37 65.1768C127.072 65.4943 126.716 65.7445 126.302 65.9273C125.889 66.1005 125.446 66.1871 124.975 66.1871C124.368 66.1871 123.834 66.0572 123.372 65.7974C122.92 65.528 122.588 65.2008 122.377 64.8159H122.348V69.3047H121.222V59.2591ZM122.348 62.6365C122.348 62.9925 122.401 63.3245 122.506 63.6324C122.622 63.9307 122.785 64.1953 122.997 64.4262C123.209 64.6475 123.459 64.8255 123.748 64.9603C124.046 65.0853 124.378 65.1479 124.744 65.1479C125.109 65.1479 125.436 65.0853 125.725 64.9603C126.023 64.8255 126.278 64.6475 126.49 64.4262C126.702 64.1953 126.86 63.9307 126.966 63.6324C127.082 63.3245 127.14 62.9925 127.14 62.6365C127.14 62.2805 127.082 61.9533 126.966 61.655C126.86 61.3471 126.702 61.0825 126.49 60.8612C126.278 60.6303 126.023 60.4522 125.725 60.3272C125.436 60.1924 125.109 60.1251 124.744 60.1251C124.378 60.1251 124.046 60.1924 123.748 60.3272C123.459 60.4522 123.209 60.6303 122.997 60.8612C122.785 61.0825 122.622 61.3471 122.506 61.655C122.401 61.9533 122.348 62.2805 122.348 62.6365ZM130.045 59.2591H131.171V60.2406H131.2C131.508 59.8749 131.864 59.5911 132.268 59.389C132.682 59.1869 133.134 59.0859 133.625 59.0859C134.154 59.0859 134.635 59.1773 135.068 59.3601C135.511 59.5333 135.886 59.7787 136.194 60.0962C136.502 60.4138 136.742 60.789 136.916 61.222C137.089 61.655 137.175 62.1265 137.175 62.6365C137.175 63.1465 137.089 63.618 136.916 64.051C136.742 64.484 136.502 64.8592 136.194 65.1768C135.896 65.4943 135.54 65.7445 135.126 65.9273C134.712 66.1005 134.27 66.1871 133.798 66.1871C133.192 66.1871 132.658 66.0572 132.196 65.7974C131.744 65.528 131.412 65.2008 131.2 64.8159H131.171V69.3047H130.045V59.2591ZM131.171 62.6365C131.171 62.9925 131.224 63.3245 131.33 63.6324C131.445 63.9307 131.609 64.1953 131.821 64.4262C132.032 64.6475 132.283 64.8255 132.571 64.9603C132.869 65.0853 133.201 65.1479 133.567 65.1479C133.933 65.1479 134.26 65.0853 134.549 64.9603C134.847 64.8255 135.102 64.6475 135.314 64.4262C135.525 64.1953 135.684 63.9307 135.79 63.6324C135.905 63.3245 135.963 62.9925 135.963 62.6365C135.963 62.2805 135.905 61.9533 135.79 61.655C135.684 61.3471 135.525 61.0825 135.314 60.8612C135.102 60.6303 134.847 60.4522 134.549 60.3272C134.26 60.1924 133.933 60.1251 133.567 60.1251C133.201 60.1251 132.869 60.1924 132.571 60.3272C132.283 60.4522 132.032 60.6303 131.821 60.8612C131.609 61.0825 131.445 61.3471 131.33 61.655C131.224 61.9533 131.171 62.2805 131.171 62.6365Z" fill="#D0D4E4"/>
<path d="M4.70703 128.191H628.165C629.99 128.191 631.469 129.67 631.469 131.494V390.511C631.469 392.336 629.99 393.815 628.165 393.815H4.70703C2.88259 393.815 1.40359 392.336 1.40359 390.511V131.494C1.40359 129.67 2.88259 128.191 4.70703 128.191Z" stroke="#D0D4E4" stroke-width="1.39312"/>
<mask id="path-8-inside-1_5191_11345" fill="white">
<path d="M2.11719 133.508C2.11719 130.851 4.2712 128.697 6.9283 128.697H625.945C628.602 128.697 630.756 130.851 630.756 133.508V179.872H2.11719V133.508Z"/>
</mask>
<path d="M2.11719 133.508C2.11719 130.851 4.2712 128.697 6.9283 128.697H625.945C628.602 128.697 630.756 130.851 630.756 133.508V179.872H2.11719V133.508Z" fill="#EDF0F2"/>
<path d="M2.11719 128.697H630.756H2.11719ZM630.756 181.075H2.11719V178.669H630.756V181.075ZM2.11719 179.872V128.697V179.872ZM630.756 128.697V179.872V128.697Z" fill="#D0D4E4" mask="url(#path-8-inside-1_5191_11345)"/>
<path d="M18.1172 146.736C18.1172 143.401 20.8209 140.697 24.156 140.697H39.2531C42.5883 140.697 45.292 143.401 45.292 146.736V161.833C45.292 165.168 42.5883 167.872 39.2531 167.872H24.156C20.8209 167.872 18.1172 165.168 18.1172 161.833V146.736Z" fill="#0091EA"/>
<path d="M31.227 150.569C28.9349 150.569 27.0753 152.428 27.0753 154.72C27.0753 157.012 28.9349 158.872 31.227 158.872C31.5946 158.872 31.919 159.196 31.919 159.564C31.919 159.953 31.5946 160.256 31.227 160.256C28.1565 160.256 25.6914 157.791 25.6914 154.72C25.6914 151.672 28.1565 149.185 31.227 149.185C34.2759 149.185 36.7626 151.672 36.7626 154.72V155.412C36.7626 156.558 35.8328 157.488 34.6868 157.488C34.0381 157.488 33.4758 157.207 33.0866 156.775C32.6109 157.229 31.9406 157.488 31.227 157.488C29.6917 157.488 28.4592 156.256 28.4592 154.72C28.4592 153.207 29.6917 151.953 31.227 151.953C31.8108 151.953 32.3731 152.147 32.8271 152.493C32.9569 152.385 33.1082 152.299 33.3029 152.299C33.6705 152.299 33.9948 152.623 33.9948 152.991V154.72V155.412C33.9948 155.802 34.2975 156.104 34.6868 156.104C35.0544 156.104 35.3787 155.802 35.3787 155.412V154.72C35.3787 152.428 33.5191 150.569 31.227 150.569ZM32.6109 154.72C32.6109 154.245 32.3298 153.791 31.919 153.531C31.4865 153.293 30.9459 153.293 30.5351 153.531C30.1026 153.791 29.8431 154.245 29.8431 154.72C29.8431 155.218 30.1026 155.672 30.5351 155.931C30.9459 156.169 31.4865 156.169 31.919 155.931C32.3298 155.672 32.6109 155.218 32.6109 154.72Z" fill="white"/>
<path d="M58.7748 148.363H66.2681V149.676H60.1893V153.414H65.864V154.728H60.1893V158.971H66.5712V160.285H58.7748V148.363ZM68.5207 154.273C68.5207 153.914 68.5095 153.577 68.487 153.263C68.4646 152.948 68.4533 152.662 68.4533 152.404H69.6994C69.6994 152.617 69.705 152.831 69.7163 153.044C69.7275 153.257 69.7331 153.476 69.7331 153.701H69.7668C69.8566 153.51 69.9801 153.325 70.1372 153.145C70.3056 152.965 70.5021 152.808 70.7266 152.673C70.9511 152.527 71.2037 152.415 71.4843 152.337C71.765 152.247 72.0681 152.202 72.3936 152.202C72.8202 152.202 73.1738 152.258 73.4545 152.37C73.7464 152.471 73.9877 152.6 74.1786 152.758C74.3694 152.904 74.5153 153.066 74.6164 153.246C74.7286 153.414 74.8184 153.566 74.8858 153.701C75.1777 153.229 75.5144 152.864 75.8961 152.606C76.2778 152.337 76.7717 152.202 77.3779 152.202C77.9392 152.202 78.4107 152.281 78.7924 152.438C79.1741 152.584 79.4828 152.803 79.7186 153.094C79.9543 153.375 80.1227 153.723 80.2237 154.138C80.3248 154.543 80.3753 154.997 80.3753 155.502V160.285H79.0618V155.57C79.0618 155.3 79.0338 155.036 78.9776 154.778C78.9215 154.52 78.8205 154.29 78.6745 154.088C78.5286 153.886 78.3322 153.723 78.0852 153.6C77.8382 153.476 77.5239 153.414 77.1422 153.414C76.8616 153.414 76.5977 153.47 76.3508 153.583C76.1038 153.695 75.8849 153.852 75.6941 154.054C75.5144 154.256 75.3685 154.503 75.2562 154.795C75.1552 155.076 75.1047 155.39 75.1047 155.738V160.285H73.7913V155.822C73.7913 154.947 73.6734 154.329 73.4376 153.97C73.2019 153.6 72.8146 153.414 72.2758 153.414C71.8492 153.414 71.4787 153.487 71.1644 153.633C70.8613 153.779 70.6087 153.987 70.4066 154.256C70.2158 154.526 70.0699 154.846 69.9688 155.216C69.879 155.587 69.8341 155.996 69.8341 156.445V160.285H68.5207V154.273ZM82.759 153.414C83.1632 152.999 83.6403 152.696 84.1903 152.505C84.7516 152.303 85.3185 152.202 85.8911 152.202C87.0586 152.202 87.9005 152.477 88.4169 153.027C88.9333 153.577 89.1915 154.413 89.1915 155.536V158.921C89.1915 159.145 89.2027 159.381 89.2252 159.628C89.2476 159.864 89.2757 160.083 89.3094 160.285H88.0464C88.0015 160.105 87.9735 159.909 87.9622 159.695C87.9622 159.471 87.9622 159.274 87.9622 159.106H87.9286C87.6704 159.51 87.3224 159.841 86.8846 160.099C86.458 160.358 85.9416 160.487 85.3354 160.487C84.9312 160.487 84.5496 160.436 84.1903 160.335C83.8423 160.234 83.5336 160.088 83.2642 159.897C83.006 159.695 82.7983 159.448 82.6412 159.156C82.484 158.865 82.4054 158.528 82.4054 158.146C82.4054 157.495 82.5738 156.984 82.9106 156.614C83.2474 156.243 83.6627 155.968 84.1567 155.789C84.6618 155.609 85.2007 155.497 85.7732 155.452C86.3569 155.407 86.8902 155.384 87.3729 155.384H87.878V155.149C87.878 154.576 87.704 154.144 87.356 153.852C87.0193 153.56 86.5422 153.414 85.9247 153.414C85.4981 153.414 85.0772 153.487 84.6618 153.633C84.2577 153.768 83.8985 153.981 83.5841 154.273L82.759 153.414ZM86.5646 156.496C85.7227 156.496 85.0547 156.614 84.5608 156.849C84.0668 157.085 83.8199 157.473 83.8199 158.011C83.8199 158.505 83.9826 158.859 84.3082 159.072C84.645 159.274 85.0603 159.375 85.5543 159.375C85.936 159.375 86.2671 159.314 86.5478 159.19C86.8396 159.055 87.081 158.881 87.2718 158.668C87.4627 158.455 87.6086 158.208 87.7097 157.927C87.8107 157.635 87.8668 157.327 87.878 157.001V156.496H86.5646ZM91.7098 152.404H93.0232V160.285H91.7098V152.404ZM91.4067 149.322C91.4067 149.064 91.4965 148.84 91.6761 148.649C91.867 148.458 92.0971 148.363 92.3665 148.363C92.636 148.363 92.8605 148.458 93.0401 148.649C93.2309 148.84 93.3263 149.064 93.3263 149.322C93.3263 149.603 93.2365 149.833 93.0569 150.013C92.8773 150.193 92.6472 150.282 92.3665 150.282C92.0859 150.282 91.8558 150.193 91.6761 150.013C91.4965 149.833 91.4067 149.603 91.4067 149.322ZM95.7551 147.554H97.0685V160.285H95.7551V147.554Z" fill="#202020"/>
<path d="M599.784 155.246C599.784 154.985 600.012 154.724 600.306 154.724H615.979C616.24 154.724 616.501 154.985 616.501 155.246C616.501 155.54 616.24 155.769 615.979 155.769H600.306C600.012 155.769 599.784 155.54 599.784 155.246Z" fill="#777FA1"/>
<mask id="path-14-inside-2_5191_11345" fill="white">
<path d="M2.11719 181.075H630.756V232.25H2.11719V181.075Z"/>
</mask>
<path d="M630.756 231.047H2.11719V233.452H630.756V231.047Z" fill="#D0D4E4" mask="url(#path-14-inside-2_5191_11345)"/>
<path d="M18.1172 199.114C18.1172 195.778 20.8209 193.075 24.156 193.075H39.2531C42.5883 193.075 45.292 195.778 45.292 199.114V214.211C45.292 217.546 42.5883 220.25 39.2531 220.25H24.156C20.8209 220.25 18.1172 217.546 18.1172 214.211V199.114Z" fill="#27BD50"/>
<path d="M36.9758 206.579L34.4439 209.111C33.1779 210.4 31.0981 210.4 29.8322 209.111C28.7019 207.981 28.5436 206.217 29.4705 204.906L29.4931 204.884C29.7418 204.545 30.1939 204.477 30.5104 204.703C30.8269 204.929 30.9173 205.381 30.6686 205.72L30.646 205.743C30.1261 206.466 30.2165 207.461 30.8495 208.094C31.5503 208.817 32.7032 208.817 33.4266 208.094L35.9585 205.562C36.6819 204.838 36.6819 203.686 35.9585 202.985C35.3255 202.352 34.3308 202.261 33.6074 202.781L33.5848 202.804C33.2457 203.053 32.7936 202.962 32.5676 202.646C32.3415 202.329 32.4093 201.877 32.7258 201.628L32.771 201.606C34.0822 200.679 35.8455 200.837 36.9758 201.967C38.2643 203.233 38.2643 205.313 36.9758 206.579ZM25.2431 206.059L27.775 203.505C29.0636 202.239 31.1207 202.239 32.4093 203.505C33.5396 204.635 33.6753 206.421 32.7484 207.732L32.7258 207.755C32.4997 208.094 32.025 208.162 31.7085 207.936C31.392 207.709 31.3016 207.257 31.5503 206.918L31.5729 206.896C32.0928 206.15 32.0024 205.178 31.3694 204.545C30.6686 203.821 29.5157 203.821 28.7923 204.545L26.2604 207.076C25.5596 207.777 25.5596 208.93 26.2604 209.654C26.8934 210.287 27.888 210.377 28.6114 209.857L28.634 209.834C28.9731 209.586 29.4253 209.676 29.6513 209.993C29.8774 210.309 29.8096 210.761 29.4931 211.01L29.4479 211.033C28.1593 211.959 26.3734 211.801 25.2431 210.671C23.9545 209.405 23.9545 207.325 25.2431 206.059Z" fill="white"/>
<path d="M58.7748 200.74H60.1893V211.349H65.6451V212.662H58.7748V200.74ZM67.0764 204.782H68.3898V212.662H67.0764V204.782ZM66.7733 201.7C66.7733 201.442 66.8631 201.217 67.0427 201.027C67.2335 200.836 67.4637 200.74 67.7331 200.74C68.0025 200.74 68.227 200.836 68.4066 201.027C68.5975 201.217 68.6929 201.442 68.6929 201.7C68.6929 201.981 68.6031 202.211 68.4235 202.39C68.2439 202.57 68.0137 202.66 67.7331 202.66C67.4524 202.66 67.2223 202.57 67.0427 202.39C66.8631 202.211 66.7733 201.981 66.7733 201.7ZM71.0038 206.651C71.0038 206.291 70.9925 205.955 70.9701 205.64C70.9476 205.326 70.9364 205.04 70.9364 204.782H72.1825C72.1825 204.995 72.1881 205.208 72.1993 205.421C72.2106 205.635 72.2162 205.854 72.2162 206.078H72.2498C72.3397 205.887 72.4631 205.702 72.6203 205.522C72.7887 205.343 72.9851 205.186 73.2097 205.051C73.4342 204.905 73.6868 204.793 73.9674 204.714C74.2481 204.624 74.5512 204.58 74.8767 204.58C75.3931 204.58 75.8365 204.658 76.207 204.815C76.5887 204.972 76.903 205.191 77.15 205.472C77.3969 205.753 77.5765 206.095 77.6888 206.499C77.8123 206.892 77.874 207.324 77.874 207.796V212.662H76.5606V207.93C76.5606 207.268 76.4147 206.746 76.1228 206.364C75.8309 205.983 75.3763 205.792 74.7588 205.792C74.3323 205.792 73.9618 205.865 73.6475 206.011C73.3444 206.157 73.0918 206.364 72.8897 206.634C72.6989 206.903 72.5529 207.223 72.4519 207.594C72.3621 207.964 72.3172 208.374 72.3172 208.823V212.662H71.0038V206.651ZM80.3605 199.932H81.674V208.25L85.2607 204.782H87.1298L83.3242 208.368L87.5171 212.662H85.5806L81.674 208.52V212.662H80.3605V199.932ZM88.9484 210.591C89.2066 210.917 89.4872 211.175 89.7903 211.366C90.1046 211.556 90.4975 211.652 90.969 211.652C91.1711 211.652 91.3732 211.629 91.5752 211.584C91.7885 211.54 91.9794 211.467 92.1478 211.366C92.3161 211.265 92.4509 211.141 92.5519 210.995C92.6529 210.838 92.7034 210.653 92.7034 210.439C92.7034 210.226 92.6529 210.052 92.5519 209.917C92.4621 209.783 92.3386 209.67 92.1814 209.581C92.0243 209.48 91.8447 209.401 91.6426 209.345C91.4405 209.289 91.2328 209.238 91.0196 209.193C90.6491 209.115 90.2955 209.025 89.9587 208.924C89.6219 208.823 89.3244 208.694 89.0662 208.537C88.8193 208.368 88.6172 208.155 88.46 207.897C88.3141 207.639 88.2411 207.307 88.2411 206.903C88.2411 206.522 88.3253 206.185 88.4937 205.893C88.6621 205.601 88.8866 205.36 89.1673 205.169C89.4479 204.978 89.7622 204.832 90.1103 204.731C90.4583 204.63 90.8175 204.58 91.1879 204.58C91.7492 204.58 92.2656 204.692 92.7371 204.916C93.2198 205.141 93.5959 205.506 93.8653 206.011L92.7708 206.735C92.6024 206.454 92.3779 206.23 92.0972 206.061C91.8278 205.882 91.4967 205.792 91.1037 205.792C90.9241 205.792 90.7389 205.814 90.5481 205.859C90.3684 205.904 90.2057 205.972 90.0597 206.061C89.9138 206.151 89.7903 206.269 89.6893 206.415C89.5995 206.55 89.5546 206.707 89.5546 206.886C89.5546 207.055 89.6051 207.201 89.7061 207.324C89.8184 207.437 89.9643 207.538 90.1439 207.627C90.3348 207.717 90.5481 207.796 90.7838 207.863C91.0308 207.93 91.2834 207.987 91.5416 208.031C91.8896 208.099 92.2207 208.189 92.5351 208.301C92.8494 208.402 93.1244 208.542 93.3602 208.722C93.5959 208.901 93.7811 209.126 93.9158 209.395C94.0506 209.665 94.1179 209.996 94.1179 210.389C94.1179 210.838 94.0281 211.22 93.8485 211.534C93.6689 211.848 93.4275 212.106 93.1244 212.309C92.8325 212.499 92.4958 212.64 92.1141 212.73C91.7436 212.819 91.3619 212.864 90.969 212.864C90.2955 212.864 89.7117 212.763 89.2178 212.561C88.7351 212.348 88.2973 211.961 87.9044 211.399L88.9484 210.591Z" fill="#777FA1"/>
<path d="M608.665 201.355V207.101H614.412C614.673 207.101 614.934 207.362 614.934 207.624C614.934 207.918 614.673 208.146 614.412 208.146H608.665V213.893C608.665 214.187 608.404 214.415 608.143 214.415C607.849 214.415 607.62 214.187 607.62 213.893V208.146H601.874C601.58 208.146 601.351 207.918 601.351 207.624C601.351 207.362 601.58 207.101 601.874 207.101H607.62V201.355C607.62 201.093 607.849 200.832 608.143 200.832C608.404 200.832 608.665 201.093 608.665 201.355Z" fill="#777FA1"/>
<mask id="path-20-inside-3_5191_11345" fill="white">
<path d="M2.11719 233.452H630.756V284.627H2.11719V233.452Z"/>
</mask>
<path d="M2.11719 233.452H630.756V284.627H2.11719V233.452Z" fill="white"/>
<path d="M630.756 283.424H2.11719V285.83H630.756V283.424Z" fill="#D0D4E4" mask="url(#path-20-inside-3_5191_11345)"/>
<path d="M18.1172 251.491C18.1172 248.156 20.8209 245.452 24.156 245.452H39.2531C42.5883 245.452 45.292 248.156 45.292 251.491V266.588C45.292 269.923 42.5883 272.627 39.2531 272.627H24.156C20.8209 272.627 18.1172 269.923 18.1172 266.588V251.491Z" fill="#52B7CA"/>
<path d="M36.161 262.243H28.5496C27.7712 262.243 27.1657 261.638 27.1657 260.859V256.016C27.1657 255.259 27.7712 254.632 28.5496 254.632H31.0795C31.4471 254.632 31.7931 254.783 32.0526 255.043L32.6364 255.627C32.8959 255.886 33.2419 256.016 33.6095 256.016H36.161C36.9179 256.016 37.545 256.643 37.545 257.4V260.859C37.545 261.638 36.9179 262.243 36.161 262.243ZM26.1278 256.535V261.378C26.1278 262.438 26.9711 263.281 28.0306 263.281H34.9501C35.2312 263.281 35.4691 263.519 35.4691 263.8C35.4691 264.103 35.2312 264.319 34.9501 264.319H28.0306C26.3873 264.319 25.0898 263.022 25.0898 261.378V256.535C25.0898 256.254 25.3061 256.016 25.6088 256.016C25.8899 256.016 26.1278 256.254 26.1278 256.535Z" fill="white"/>
<path d="M58.7748 253.118H66.1671V254.431H60.1893V258.372H65.7461V259.685H60.1893V265.04H58.7748V253.118ZM68.0137 257.159H69.3271V265.04H68.0137V257.159ZM67.7106 254.078C67.7106 253.819 67.8004 253.595 67.98 253.404C68.1708 253.213 68.401 253.118 68.6704 253.118C68.9398 253.118 69.1643 253.213 69.344 253.404C69.5348 253.595 69.6302 253.819 69.6302 254.078C69.6302 254.358 69.5404 254.588 69.3608 254.768C69.1812 254.948 68.951 255.037 68.6704 255.037C68.3898 255.037 68.1596 254.948 67.98 254.768C67.8004 254.588 67.7106 254.358 67.7106 254.078ZM72.059 252.31H73.3724V265.04H72.059V252.31ZM83.025 263.608C82.5535 264.215 82.0371 264.641 81.4758 264.888C80.9146 265.124 80.2634 265.242 79.5225 265.242C78.9051 265.242 78.3494 265.135 77.8555 264.922C77.3615 264.697 76.9406 264.4 76.5926 264.029C76.2558 263.659 75.992 263.221 75.8011 262.716C75.6215 262.211 75.5317 261.672 75.5317 261.099C75.5317 260.493 75.6328 259.938 75.8348 259.432C76.0369 258.916 76.3175 258.478 76.6768 258.119C77.036 257.748 77.4626 257.462 77.9565 257.26C78.4505 257.058 78.9893 256.957 79.5731 256.957C80.1231 256.957 80.6283 257.052 81.0886 257.243C81.5488 257.423 81.9417 257.692 82.2673 258.052C82.6041 258.4 82.8623 258.832 83.0419 259.348C83.2215 259.853 83.3113 260.431 83.3113 261.083V261.504H76.9462C76.9686 261.84 77.0472 262.166 77.1819 262.48C77.3279 262.783 77.5131 263.053 77.7376 263.288C77.9621 263.513 78.2259 263.693 78.529 263.827C78.8321 263.962 79.1633 264.029 79.5225 264.029C80.0951 264.029 80.5778 263.928 80.9707 263.726C81.3636 263.524 81.7172 263.227 82.0315 262.834L83.025 263.608ZM81.8968 260.392C81.8744 259.719 81.6555 259.18 81.2401 258.776C80.8247 258.372 80.2522 258.169 79.5225 258.169C78.7929 258.169 78.2035 258.372 77.7545 258.776C77.3054 259.18 77.036 259.719 76.9462 260.392H81.8968ZM85.5115 262.969C85.7697 263.294 86.0504 263.552 86.3535 263.743C86.6678 263.934 87.0607 264.029 87.5322 264.029C87.7343 264.029 87.9363 264.007 88.1384 263.962C88.3517 263.917 88.5425 263.844 88.7109 263.743C88.8793 263.642 89.014 263.519 89.115 263.373C89.2161 263.216 89.2666 263.03 89.2666 262.817C89.2666 262.604 89.2161 262.43 89.115 262.295C89.0252 262.16 88.9018 262.048 88.7446 261.958C88.5874 261.857 88.4078 261.779 88.2057 261.722C88.0037 261.666 87.796 261.616 87.5827 261.571C87.2123 261.492 86.8586 261.403 86.5219 261.302C86.1851 261.2 85.8876 261.071 85.6294 260.914C85.3824 260.746 85.1804 260.533 85.0232 260.274C84.8773 260.016 84.8043 259.685 84.8043 259.281C84.8043 258.899 84.8885 258.562 85.0569 258.271C85.2253 257.979 85.4498 257.737 85.7304 257.546C86.0111 257.356 86.3254 257.21 86.6734 257.109C87.0214 257.008 87.3806 256.957 87.7511 256.957C88.3124 256.957 88.8288 257.069 89.3003 257.294C89.783 257.518 90.1591 257.883 90.4285 258.388L89.334 259.112C89.1656 258.832 88.941 258.607 88.6604 258.439C88.391 258.259 88.0598 258.169 87.6669 258.169C87.4873 258.169 87.3021 258.192 87.1112 258.237C86.9316 258.282 86.7688 258.349 86.6229 258.439C86.477 258.529 86.3535 258.647 86.2524 258.793C86.1626 258.927 86.1177 259.084 86.1177 259.264C86.1177 259.432 86.1682 259.578 86.2693 259.702C86.3815 259.814 86.5275 259.915 86.7071 260.005C86.8979 260.095 87.1112 260.173 87.347 260.241C87.5939 260.308 87.8465 260.364 88.1047 260.409C88.4527 260.476 88.7839 260.566 89.0982 260.678C89.4125 260.779 89.6876 260.92 89.9233 261.099C90.1591 261.279 90.3443 261.504 90.479 261.773C90.6137 262.042 90.6811 262.374 90.6811 262.766C90.6811 263.216 90.5913 263.597 90.4116 263.912C90.232 264.226 89.9907 264.484 89.6876 264.686C89.3957 264.877 89.0589 265.017 88.6772 265.107C88.3068 265.197 87.9251 265.242 87.5322 265.242C86.8586 265.242 86.2749 265.141 85.7809 264.939C85.2982 264.725 84.8604 264.338 84.4675 263.777L85.5115 262.969Z" fill="#777FA1"/>
<path d="M599.784 260.001C599.784 259.74 600.012 259.479 600.306 259.479H615.979C616.24 259.479 616.501 259.74 616.501 260.001C616.501 260.295 616.24 260.524 615.979 260.524H600.306C600.012 260.524 599.784 260.295 599.784 260.001Z" fill="#777FA1"/>
<mask id="path-26-inside-4_5191_11345" fill="white">
<path d="M2.11719 285.83H630.756V336.758H2.11719V285.83Z"/>
</mask>
<path d="M630.756 335.556H2.11719V337.961H630.756V335.556Z" fill="#D0D4E4" mask="url(#path-26-inside-4_5191_11345)"/>
<path d="M18.1172 303.869C18.1172 300.534 20.8209 297.83 24.156 297.83H39.2531C42.5883 297.83 45.292 300.534 45.292 303.869V318.72C45.292 322.055 42.5883 324.758 39.2531 324.758H24.156C20.8209 324.758 18.1172 322.055 18.1172 318.72V303.869Z" fill="#6E38CE"/>
<path d="M28.64 308.962V309.654C28.64 310.043 28.3156 310.346 27.948 310.346C27.5588 310.346 27.2561 310.043 27.2561 309.654V308.962C27.2561 307.816 28.1859 306.886 29.3319 306.886C30.478 306.886 31.4078 307.816 31.4078 308.962V309.135C31.4078 309.589 31.3645 310.043 31.3213 310.497L33.9594 309.697C34.2188 309.611 34.4783 309.697 34.6729 309.87C34.8459 310.065 34.9108 310.324 34.8243 310.584L34.4351 311.73H36.2514C36.619 311.73 36.9434 312.054 36.9434 312.422C36.9434 312.811 36.619 313.114 36.2514 313.114H33.4836C33.2458 313.114 33.0512 313.006 32.9214 312.833C32.7917 312.66 32.7484 312.422 32.8133 312.206L33.0944 311.406L31.0402 312.011C30.7807 313.157 30.3699 314.26 29.786 315.276L29.4833 315.795C29.2022 316.293 28.6832 316.574 28.121 316.574C27.2561 316.574 26.5641 315.882 26.5641 315.017V313.46C26.5641 312.552 27.148 311.73 28.0345 311.47L29.8509 310.93C29.959 310.346 30.0239 309.741 30.0239 309.135V308.962C30.0239 308.595 29.6995 308.27 29.3319 308.27C28.9427 308.27 28.64 308.595 28.64 308.962ZM28.4237 312.79C28.1426 312.876 27.9264 313.157 27.9264 313.46V315.017C27.9264 315.125 28.0129 315.211 28.121 315.211C28.1859 315.211 28.2508 315.168 28.2724 315.103L28.5751 314.584C28.9643 313.914 29.2671 313.222 29.4833 312.487L28.4237 312.79ZM25.0072 314.152H25.8722V315.017C25.8722 315.082 25.8722 315.146 25.8722 315.19H25.0072C24.7045 315.19 24.4883 314.973 24.4883 314.671C24.4883 314.39 24.7045 314.152 25.0072 314.152ZM37.8083 315.19H30.6077C30.7807 314.865 30.9537 314.519 31.0834 314.152H37.8083C38.0894 314.152 38.3273 314.39 38.3273 314.671C38.3273 314.973 38.0894 315.19 37.8083 315.19Z" fill="white"/>
<path d="M64.4327 307.477C64.1969 307.095 63.8826 306.82 63.4897 306.652C63.0968 306.472 62.687 306.383 62.2604 306.383C61.9461 306.383 61.6374 306.422 61.3343 306.5C61.0312 306.579 60.7562 306.697 60.5092 306.854C60.2735 307.011 60.0826 307.219 59.9367 307.477C59.7907 307.735 59.7178 308.038 59.7178 308.386C59.7178 308.656 59.7571 308.897 59.8356 309.11C59.9254 309.313 60.0658 309.498 60.2566 309.666C60.4475 309.835 60.7057 309.992 61.0312 310.138C61.3568 310.284 61.7553 310.43 62.2268 310.575C62.687 310.721 63.1305 310.879 63.557 311.047C63.9948 311.215 64.3765 311.429 64.7021 311.687C65.0389 311.945 65.3027 312.271 65.4935 312.663C65.6956 313.045 65.7966 313.528 65.7966 314.112C65.7966 314.707 65.6787 315.223 65.443 315.661C65.2072 316.099 64.8929 316.463 64.5 316.755C64.1183 317.036 63.6749 317.244 63.1697 317.378C62.6646 317.524 62.1426 317.597 61.6037 317.597C61.2557 317.597 60.9077 317.564 60.5597 317.496C60.2117 317.44 59.8749 317.35 59.5494 317.227C59.2351 317.092 58.9376 316.924 58.6569 316.722C58.3763 316.508 58.1349 316.25 57.9328 315.947L59.1452 314.954C59.4034 315.391 59.7627 315.723 60.2229 315.947C60.6832 316.172 61.1715 316.284 61.6879 316.284C61.991 316.284 62.2941 316.239 62.5972 316.149C62.9115 316.059 63.1922 315.93 63.4392 315.762C63.6861 315.582 63.8882 315.363 64.0454 315.105C64.2025 314.847 64.2811 314.549 64.2811 314.213C64.2811 313.842 64.2194 313.545 64.0959 313.32C63.9724 313.084 63.7816 312.882 63.5234 312.714C63.2652 312.546 62.9396 312.394 62.5467 312.259C62.1538 312.125 61.6935 311.967 61.1659 311.788C60.7393 311.653 60.3464 311.502 59.9872 311.333C59.628 311.154 59.3136 310.94 59.0442 310.693C58.786 310.435 58.5783 310.132 58.4212 309.784C58.2752 309.425 58.2023 308.998 58.2023 308.504C58.2023 307.932 58.3145 307.432 58.539 307.006C58.7636 306.579 59.0667 306.225 59.4483 305.945C59.83 305.653 60.2622 305.434 60.7449 305.288C61.2277 305.142 61.7328 305.069 62.2604 305.069C62.934 305.069 63.5458 305.176 64.0959 305.389C64.6572 305.591 65.1567 305.95 65.5945 306.467L64.4327 307.477ZM68.0137 309.414H69.3271V317.294H68.0137V309.414ZM67.7106 306.332C67.7106 306.074 67.8004 305.849 67.98 305.659C68.1708 305.468 68.401 305.372 68.6704 305.372C68.9398 305.372 69.1643 305.468 69.344 305.659C69.5348 305.849 69.6302 306.074 69.6302 306.332C69.6302 306.613 69.5404 306.843 69.3608 307.022C69.1812 307.202 68.951 307.292 68.6704 307.292C68.3898 307.292 68.1596 307.202 67.98 307.022C67.8004 306.843 67.7106 306.613 67.7106 306.332ZM79.8049 316.941C79.8049 318.377 79.4344 319.466 78.6935 320.207C77.9638 320.959 76.903 321.336 75.5109 321.336C74.7363 321.336 74.0347 321.223 73.4061 320.999C72.7886 320.774 72.1993 320.387 71.638 319.837L72.581 318.759C72.9963 319.208 73.4341 319.545 73.8944 319.769C74.3659 320.005 74.9047 320.123 75.5109 320.123C76.0947 320.123 76.5774 320.033 76.9591 319.854C77.352 319.685 77.6607 319.45 77.8852 319.146C78.1097 318.855 78.2669 318.518 78.3567 318.136C78.4465 317.754 78.4914 317.356 78.4914 316.941V315.93H78.4577C78.1434 316.435 77.7337 316.806 77.2285 317.042C76.7233 317.277 76.2069 317.395 75.6793 317.395C75.0619 317.395 74.495 317.294 73.9786 317.092C73.4622 316.89 73.0188 316.609 72.6483 316.25C72.2779 315.891 71.9916 315.464 71.7895 314.97C71.5875 314.476 71.4864 313.938 71.4864 313.354C71.4864 312.714 71.5875 312.136 71.7895 311.619C71.9916 311.103 72.2723 310.671 72.6315 310.323C73.0019 309.964 73.4454 309.689 73.9618 309.498C74.4782 309.307 75.0507 309.212 75.6793 309.212C75.9487 309.212 76.2182 309.245 76.4876 309.313C76.757 309.369 77.0152 309.464 77.2622 309.599C77.5204 309.722 77.7505 309.885 77.9526 310.087C78.1546 310.278 78.323 310.502 78.4577 310.761H78.4914V309.414H79.8049V316.941ZM72.9009 313.354C72.9009 313.758 72.9739 314.134 73.1198 314.482C73.2658 314.819 73.4622 315.116 73.7092 315.375C73.9674 315.622 74.2649 315.818 74.6016 315.964C74.9384 316.11 75.2976 316.183 75.6793 316.183C76.1284 316.183 76.5269 316.104 76.8749 315.947C77.2229 315.79 77.5148 315.582 77.7505 315.324C77.9975 315.055 78.1827 314.752 78.3062 314.415C78.4297 314.067 78.4914 313.702 78.4914 313.32C78.4914 312.894 78.4241 312.506 78.2894 312.158C78.1546 311.799 77.9638 311.49 77.7168 311.232C77.4699 310.974 77.1724 310.778 76.8244 310.643C76.4764 310.497 76.0947 310.424 75.6793 310.424C75.264 310.424 74.8823 310.502 74.5343 310.66C74.1975 310.806 73.9056 311.013 73.6587 311.283C73.4229 311.541 73.2377 311.85 73.103 312.209C72.9683 312.557 72.9009 312.939 72.9009 313.354ZM82.2352 311.283C82.2352 310.923 82.224 310.587 82.2015 310.272C82.179 309.958 82.1678 309.672 82.1678 309.414H83.4139C83.4139 309.627 83.4195 309.84 83.4307 310.053C83.442 310.267 83.4476 310.486 83.4476 310.71H83.4813C83.5711 310.519 83.6945 310.334 83.8517 310.154C84.0201 309.975 84.2166 309.818 84.4411 309.683C84.6656 309.537 84.9182 309.425 85.1988 309.346C85.4795 309.256 85.7826 309.212 86.1081 309.212C86.6245 309.212 87.0679 309.29 87.4384 309.447C87.8201 309.604 88.1344 309.823 88.3814 310.104C88.6283 310.385 88.808 310.727 88.9202 311.131C89.0437 311.524 89.1054 311.956 89.1054 312.428V317.294H87.792V312.562C87.792 311.9 87.6461 311.378 87.3542 310.996C87.0623 310.615 86.6077 310.424 85.9902 310.424C85.5637 310.424 85.1932 310.497 84.8789 310.643C84.5758 310.789 84.3232 310.996 84.1211 311.266C83.9303 311.535 83.7844 311.855 83.6833 312.226C83.5935 312.596 83.5486 313.006 83.5486 313.455V317.294H82.2352V311.283Z" fill="#777FA1"/>
<path d="M599.784 312.256C599.784 311.994 600.012 311.733 600.306 311.733H615.979C616.24 311.733 616.501 311.994 616.501 312.256C616.501 312.55 616.24 312.778 615.979 312.778H600.306C600.012 312.778 599.784 312.55 599.784 312.256Z" fill="#777FA1"/>
<rect x="1.91016" y="184.025" width="4.81111" height="62.5444" fill="#D0D4E4"/>
<path d="M2.11719 356.022H630.756V389.7C630.756 391.693 629.141 393.308 627.148 393.308H5.72553C3.7327 393.308 2.11719 391.693 2.11719 389.7V356.022Z" fill="#EDF0F2"/>
<path d="M28.5674 371.363H25.19V380.456H23.9776V371.363H20.6002V370.237H28.5674V371.363ZM27.8008 377.078C27.8008 376.549 27.8922 376.068 28.0751 375.635C28.2579 375.202 28.5081 374.831 28.8256 374.523C29.1431 374.206 29.5232 373.961 29.9658 373.787C30.4084 373.614 30.8896 373.528 31.4092 373.528C31.9288 373.528 32.4099 373.614 32.8525 373.787C33.2951 373.961 33.6752 374.206 33.9927 374.523C34.3103 374.831 34.5604 375.202 34.7433 375.635C34.9261 376.068 35.0175 376.549 35.0175 377.078C35.0175 377.607 34.9261 378.088 34.7433 378.521C34.5604 378.954 34.3103 379.33 33.9927 379.647C33.6752 379.955 33.2951 380.196 32.8525 380.369C32.4099 380.542 31.9288 380.629 31.4092 380.629C30.8896 380.629 30.4084 380.542 29.9658 380.369C29.5232 380.196 29.1431 379.955 28.8256 379.647C28.5081 379.33 28.2579 378.954 28.0751 378.521C27.8922 378.088 27.8008 377.607 27.8008 377.078ZM29.0132 377.078C29.0132 377.434 29.0661 377.766 29.172 378.074C29.2875 378.372 29.451 378.637 29.6627 378.868C29.8744 379.089 30.1246 379.267 30.4133 379.402C30.7115 379.527 31.0435 379.59 31.4092 379.59C31.7748 379.59 32.102 379.527 32.3906 379.402C32.6889 379.267 32.9439 379.089 33.1556 378.868C33.3673 378.637 33.526 378.372 33.6319 378.074C33.7474 377.766 33.8051 377.434 33.8051 377.078C33.8051 376.722 33.7474 376.395 33.6319 376.097C33.526 375.789 33.3673 375.524 33.1556 375.303C32.9439 375.072 32.6889 374.894 32.3906 374.769C32.102 374.634 31.7748 374.567 31.4092 374.567C31.0435 374.567 30.7115 374.634 30.4133 374.769C30.1246 374.894 29.8744 375.072 29.6627 375.303C29.451 375.524 29.2875 375.789 29.172 376.097C29.0661 376.395 29.0132 376.722 29.0132 377.078ZM40.4553 374.653H38.4635V378.031C38.4635 378.252 38.4683 378.459 38.4779 378.651C38.4875 378.834 38.526 378.998 38.5934 379.142C38.6607 379.277 38.7617 379.387 38.8965 379.474C39.0312 379.551 39.2236 379.59 39.4738 379.59C39.6374 379.59 39.8058 379.57 39.979 379.532C40.1522 379.493 40.3157 379.436 40.4697 379.359L40.513 380.383C40.3205 380.47 40.104 380.533 39.8635 380.571C39.6326 380.61 39.4112 380.629 39.1996 380.629C38.7954 380.629 38.4731 380.576 38.2325 380.47C37.992 380.364 37.8043 380.215 37.6696 380.023C37.5349 379.83 37.4435 379.594 37.3954 379.315C37.3569 379.027 37.3377 378.709 37.3377 378.363V374.653H35.8655V373.701H37.3377V371.781H38.4635V373.701H40.4553V374.653ZM41.7479 374.567C42.0943 374.211 42.5033 373.951 42.9748 373.787C43.4559 373.614 43.9418 373.528 44.4325 373.528C45.4332 373.528 46.1549 373.763 46.5975 374.235C47.0402 374.706 47.2615 375.423 47.2615 376.385V379.286C47.2615 379.479 47.2711 379.681 47.2903 379.893C47.3096 380.095 47.3336 380.282 47.3625 380.456H46.28C46.2415 380.302 46.2175 380.133 46.2078 379.95C46.2078 379.758 46.2078 379.59 46.2078 379.445H46.179C45.9577 379.792 45.6594 380.075 45.2841 380.297C44.9185 380.518 44.4758 380.629 43.9562 380.629C43.6098 380.629 43.2827 380.585 42.9748 380.499C42.6765 380.412 42.4119 380.287 42.1809 380.124C41.9596 379.95 41.7816 379.739 41.6469 379.489C41.5122 379.238 41.4448 378.95 41.4448 378.623C41.4448 378.064 41.5892 377.627 41.8778 377.309C42.1665 376.992 42.5225 376.756 42.9459 376.602C43.3789 376.448 43.8408 376.352 44.3315 376.313C44.8319 376.275 45.2889 376.255 45.7027 376.255H46.1357V376.053C46.1357 375.563 45.9865 375.192 45.6882 374.942C45.3996 374.692 44.9906 374.567 44.4614 374.567C44.0958 374.567 43.7349 374.629 43.3789 374.754C43.0325 374.87 42.7246 375.053 42.4552 375.303L41.7479 374.567ZM45.0099 377.208C44.2882 377.208 43.7157 377.309 43.2923 377.511C42.8689 377.713 42.6572 378.045 42.6572 378.507C42.6572 378.93 42.7968 379.234 43.0758 379.416C43.3645 379.59 43.7205 379.676 44.1439 379.676C44.471 379.676 44.7549 379.623 44.9954 379.517C45.2456 379.402 45.4525 379.253 45.6161 379.07C45.7796 378.887 45.9047 378.675 45.9913 378.435C46.0779 378.185 46.126 377.92 46.1357 377.641V377.208H45.0099ZM49.42 369.544H50.5458V380.456H49.42V369.544ZM56.4571 379.07L60.3108 375.317C60.5513 375.086 60.763 374.875 60.9458 374.682C61.1287 374.48 61.2778 374.288 61.3933 374.105C61.5184 373.912 61.6098 373.715 61.6675 373.513C61.7252 373.311 61.7541 373.085 61.7541 372.835C61.7541 372.565 61.706 372.325 61.6098 372.113C61.5136 371.901 61.3788 371.723 61.2056 371.579C61.0421 371.425 60.8448 371.31 60.6139 371.233C60.3926 371.146 60.152 371.103 59.8922 371.103C59.3726 371.103 58.9444 371.252 58.6076 371.55C58.2709 371.848 58.0544 372.243 57.9581 372.734L56.6447 372.618C56.7121 372.204 56.8372 371.839 57.02 371.521C57.2124 371.194 57.4482 370.925 57.7272 370.713C58.0159 370.501 58.3382 370.343 58.6942 370.237C59.0503 370.121 59.4352 370.064 59.8489 370.064C60.2723 370.064 60.6716 370.126 61.0469 370.251C61.4221 370.367 61.7493 370.54 62.0283 370.771C62.317 371.002 62.5431 371.29 62.7067 371.637C62.8799 371.983 62.9665 372.383 62.9665 372.835C62.9665 373.239 62.9088 373.605 62.7933 373.932C62.6875 374.259 62.5383 374.562 62.3459 374.841C62.1631 375.11 61.9514 375.37 61.7108 375.62C61.4799 375.861 61.2345 376.101 60.9747 376.342L57.8282 379.301V379.33H63.0387V380.456H56.4571V379.07ZM66.6999 374.495L66.7288 374.523C66.9212 374.418 67.1425 374.341 67.3927 374.293C67.6525 374.244 67.8882 374.22 68.0999 374.22C68.5426 374.22 68.9515 374.297 69.3268 374.451C69.7117 374.605 70.0388 374.827 70.3082 375.115C70.5873 375.394 70.8038 375.731 70.9577 376.126C71.1117 376.52 71.1887 376.953 71.1887 377.425C71.1887 377.925 71.1021 378.372 70.9289 378.767C70.7557 379.161 70.5151 379.498 70.2072 379.777C69.8993 380.047 69.5336 380.258 69.1103 380.412C68.6965 380.557 68.2491 380.629 67.768 380.629C67.2869 380.629 66.8346 380.557 66.4112 380.412C65.9975 380.258 65.6366 380.047 65.3287 379.777C65.0208 379.498 64.7803 379.161 64.6071 378.767C64.4339 378.372 64.3473 377.925 64.3473 377.425C64.3473 376.838 64.4387 376.323 64.6215 375.88C64.8043 375.438 65.0353 374.995 65.3143 374.552L68.0278 370.237H69.4422L66.6999 374.495ZM67.768 375.26C67.4601 375.26 67.1714 375.312 66.902 375.418C66.6325 375.515 66.3968 375.659 66.1947 375.851C66.0023 376.034 65.8483 376.26 65.7329 376.53C65.6174 376.799 65.5597 377.097 65.5597 377.425C65.5597 377.761 65.6174 378.064 65.7329 378.334C65.8483 378.594 66.0023 378.82 66.1947 379.012C66.3968 379.195 66.6325 379.339 66.902 379.445C67.1714 379.541 67.4601 379.59 67.768 379.59C68.0759 379.59 68.3645 379.541 68.634 379.445C68.9034 379.339 69.1343 379.195 69.3268 379.012C69.5288 378.82 69.6876 378.594 69.8031 378.334C69.9185 378.064 69.9763 377.761 69.9763 377.425C69.9763 377.097 69.9185 376.799 69.8031 376.53C69.6876 376.26 69.5288 376.034 69.3268 375.851C69.1343 375.659 68.9034 375.515 68.634 375.418C68.3645 375.312 68.0759 375.26 67.768 375.26ZM80.3825 370.237H81.5227L85.8671 380.456H84.4527L83.4135 377.944H78.3041L77.2504 380.456H75.8793L80.3825 370.237ZM80.9309 371.796H80.9021L78.7804 376.818H82.9516L80.9309 371.796ZM86.9655 373.701H88.0913V374.682H88.1202C88.4281 374.317 88.7841 374.033 89.1883 373.831C89.602 373.629 90.0543 373.528 90.545 373.528C91.0742 373.528 91.5553 373.619 91.9883 373.802C92.431 373.975 92.8062 374.22 93.1141 374.538C93.422 374.855 93.6626 375.231 93.8358 375.664C94.009 376.097 94.0956 376.568 94.0956 377.078C94.0956 377.588 94.009 378.06 93.8358 378.493C93.6626 378.926 93.422 379.301 93.1141 379.618C92.8158 379.936 92.4598 380.186 92.0461 380.369C91.6323 380.542 91.1897 380.629 90.7182 380.629C90.112 380.629 89.578 380.499 89.1161 380.239C88.6639 379.97 88.3319 379.642 88.1202 379.258H88.0913V383.746H86.9655V373.701ZM88.0913 377.078C88.0913 377.434 88.1443 377.766 88.2501 378.074C88.3656 378.372 88.5291 378.637 88.7408 378.868C88.9525 379.089 89.2027 379.267 89.4914 379.402C89.7897 379.527 90.1216 379.59 90.4873 379.59C90.8529 379.59 91.1801 379.527 91.4687 379.402C91.767 379.267 92.022 379.089 92.2337 378.868C92.4454 378.637 92.6042 378.372 92.71 378.074C92.8255 377.766 92.8832 377.434 92.8832 377.078C92.8832 376.722 92.8255 376.395 92.71 376.097C92.6042 375.789 92.4454 375.524 92.2337 375.303C92.022 375.072 91.767 374.894 91.4687 374.769C91.1801 374.634 90.8529 374.567 90.4873 374.567C90.1216 374.567 89.7897 374.634 89.4914 374.769C89.2027 374.894 88.9525 375.072 88.7408 375.303C88.5291 375.524 88.3656 375.789 88.2501 376.097C88.1443 376.395 88.0913 376.722 88.0913 377.078ZM95.789 373.701H96.9148V374.682H96.9437C97.2516 374.317 97.6076 374.033 98.0118 373.831C98.4255 373.629 98.8778 373.528 99.3685 373.528C99.8977 373.528 100.379 373.619 100.812 373.802C101.254 373.975 101.63 374.22 101.938 374.538C102.246 374.855 102.486 375.231 102.659 375.664C102.833 376.097 102.919 376.568 102.919 377.078C102.919 377.588 102.833 378.06 102.659 378.493C102.486 378.926 102.246 379.301 101.938 379.618C101.639 379.936 101.283 380.186 100.87 380.369C100.456 380.542 100.013 380.629 99.5417 380.629C98.9355 380.629 98.4015 380.499 97.9396 380.239C97.4874 379.97 97.1554 379.642 96.9437 379.258H96.9148V383.746H95.789V373.701ZM96.9148 377.078C96.9148 377.434 96.9678 377.766 97.0736 378.074C97.1891 378.372 97.3526 378.637 97.5643 378.868C97.776 379.089 98.0262 379.267 98.3149 379.402C98.6132 379.527 98.9451 379.59 99.3108 379.59C99.6764 379.59 100.004 379.527 100.292 379.402C100.591 379.267 100.846 379.089 101.057 378.868C101.269 378.637 101.428 378.372 101.534 378.074C101.649 377.766 101.707 377.434 101.707 377.078C101.707 376.722 101.649 376.395 101.534 376.097C101.428 375.789 101.269 375.524 101.057 375.303C100.846 375.072 100.591 374.894 100.292 374.769C100.004 374.634 99.6764 374.567 99.3108 374.567C98.9451 374.567 98.6132 374.634 98.3149 374.769C98.0262 374.894 97.776 375.072 97.5643 375.303C97.3526 375.524 97.1891 375.789 97.0736 376.097C96.9678 376.395 96.9148 376.722 96.9148 377.078ZM104.815 378.68C105.036 378.959 105.276 379.181 105.536 379.344C105.806 379.508 106.142 379.59 106.547 379.59C106.72 379.59 106.893 379.57 107.066 379.532C107.249 379.493 107.413 379.431 107.557 379.344C107.701 379.258 107.817 379.152 107.903 379.027C107.99 378.892 108.033 378.733 108.033 378.55C108.033 378.368 107.99 378.218 107.903 378.103C107.826 377.987 107.721 377.891 107.586 377.814C107.451 377.728 107.297 377.66 107.124 377.612C106.951 377.564 106.773 377.521 106.59 377.482C106.272 377.415 105.969 377.338 105.681 377.251C105.392 377.165 105.137 377.054 104.916 376.919C104.704 376.775 104.531 376.592 104.396 376.371C104.271 376.15 104.208 375.866 104.208 375.519C104.208 375.192 104.281 374.904 104.425 374.653C104.569 374.403 104.762 374.196 105.002 374.033C105.243 373.869 105.512 373.744 105.811 373.657C106.109 373.571 106.417 373.528 106.734 373.528C107.215 373.528 107.658 373.624 108.062 373.816C108.476 374.009 108.798 374.321 109.029 374.754L108.091 375.375C107.947 375.134 107.754 374.942 107.514 374.798C107.283 374.644 106.999 374.567 106.662 374.567C106.508 374.567 106.349 374.586 106.186 374.624C106.032 374.663 105.892 374.721 105.767 374.798C105.642 374.875 105.536 374.976 105.45 375.101C105.373 375.216 105.334 375.351 105.334 375.505C105.334 375.649 105.378 375.774 105.464 375.88C105.56 375.976 105.685 376.063 105.839 376.14C106.003 376.217 106.186 376.284 106.388 376.342C106.6 376.4 106.816 376.448 107.037 376.486C107.336 376.544 107.619 376.621 107.889 376.717C108.158 376.804 108.394 376.924 108.596 377.078C108.798 377.232 108.957 377.425 109.072 377.655C109.188 377.886 109.246 378.17 109.246 378.507C109.246 378.892 109.169 379.219 109.015 379.489C108.861 379.758 108.654 379.979 108.394 380.152C108.144 380.316 107.855 380.436 107.528 380.513C107.211 380.59 106.883 380.629 106.547 380.629C105.969 380.629 105.469 380.542 105.046 380.369C104.632 380.186 104.257 379.854 103.92 379.373L104.815 378.68Z" fill="#777FA1"/>
</svg>
