<svg width="66" height="66" viewBox="0 0 66 66" fill="none" xmlns="http://www.w3.org/2000/svg">
<path d="M0.402344 14.7694C0.402344 6.79809 6.86437 0.33606 14.8357 0.33606H50.919C58.8903 0.33606 65.3523 6.79808 65.3523 14.7694V50.8527C65.3523 58.824 58.8903 65.2861 50.919 65.2861H14.8357C6.86437 65.2861 0.402344 58.824 0.402344 50.8527V14.7694Z" fill="#3D33EE"/>
<path d="M45.9587 21.0808C46.8373 21.0808 47.6125 21.856 47.6125 22.7346V42.5804C47.6125 43.5107 46.8373 44.2343 45.9587 44.2343C45.0284 44.2343 44.3049 43.5107 44.3049 42.5804V22.7346C44.3049 21.856 45.0284 21.0808 45.9587 21.0808ZM21.1514 29.2982L42.651 22.7346V42.5804L35.829 40.5649C35.3122 42.6838 33.3483 44.2343 31.0743 44.2343C28.3352 44.2343 26.1128 42.0119 26.1128 39.2728C26.1128 38.7043 26.1645 38.1875 26.3713 37.6707L21.1514 36.0685C21.0997 36.9471 20.3762 37.619 19.4976 37.619C18.5673 37.619 17.8438 36.8954 17.8438 35.9652V29.3499C17.8438 28.4713 18.5673 27.6961 19.4976 27.6961C20.3762 27.6961 21.0997 28.4196 21.1514 29.2982ZM33.5034 39.8413L28.7486 38.3942C28.6453 38.6526 28.5936 38.9627 28.5936 39.2728C28.5936 40.6682 29.6789 41.7535 31.0743 41.7535C32.263 41.7535 33.2449 40.9266 33.5034 39.8413Z" fill="white"/>
</svg>
