<svg width="65" height="66" viewBox="0 0 65 66" fill="none" xmlns="http://www.w3.org/2000/svg">
<path d="M-0.0078125 14.7694C-0.0078125 6.79809 6.45421 0.33606 14.4255 0.33606H50.5088C58.4802 0.33606 64.9422 6.79808 64.9422 14.7694V50.8527C64.9422 58.824 58.4802 65.2861 50.5089 65.2861H14.4255C6.45422 65.2861 -0.0078125 58.824 -0.0078125 50.8527V14.7694Z" fill="#6D3625"/>
<path d="M25.25 21.561C25.8086 21.561 26.2812 22.0337 26.2812 22.5923C26.2812 23.3228 26.582 23.6235 27.2695 24.2251L27.3125 24.2681C28 24.8696 29.0312 25.772 29.0312 27.4048C29.0312 28.0063 28.5586 28.436 28 28.436C27.3984 28.436 26.9688 28.0063 26.9688 27.4048C26.9688 26.7173 26.625 26.4165 25.9375 25.8149L25.8945 25.772C25.207 25.1704 24.2188 24.2681 24.2188 22.5923C24.2188 22.0337 24.6484 21.561 25.25 21.561ZM22.8438 29.811H36.5938H38.6562C41.2773 29.811 43.4688 32.0024 43.4688 34.6235C43.4688 37.2876 41.2773 39.436 38.6562 39.436H37.9688C37.9688 41.7134 36.1211 43.561 33.8438 43.561H25.5938C23.3164 43.561 21.4688 41.7134 21.4688 39.436V31.186C21.4688 30.4556 22.0703 29.811 22.8438 29.811ZM37.9688 32.561V36.686H38.6562C39.7734 36.686 40.7188 35.7837 40.7188 34.6235C40.7188 33.5063 39.7734 32.561 38.6562 32.561H37.9688ZM31.0938 22.5923C31.0938 23.3228 31.3945 23.6235 32.082 24.2251L32.125 24.2681C32.8125 24.8696 33.8438 25.772 33.8438 27.4048C33.8438 28.0063 33.3711 28.436 32.8125 28.436C32.2109 28.436 31.7812 28.0063 31.7812 27.4048C31.7812 26.7173 31.4375 26.4165 30.75 25.8149L30.707 25.772C30.0195 25.1704 29.0312 24.2681 29.0312 22.5923C29.0312 22.0337 29.4609 21.561 30.0625 21.561C30.6211 21.561 31.0938 22.0337 31.0938 22.5923Z" fill="white"/>
</svg>
