<svg width="66" height="66" viewBox="0 0 66 66" fill="none" xmlns="http://www.w3.org/2000/svg">
<path d="M0.402344 14.5277C0.402344 6.55639 6.86437 0.0943604 14.8357 0.0943604H50.919C58.8903 0.0943604 65.3523 6.55638 65.3523 14.5277V50.611C65.3523 58.5823 58.8903 65.0444 50.919 65.0444H14.8357C6.86437 65.0444 0.402344 58.5823 0.402344 50.611V14.5277Z" fill="#252C3E"/>
<path d="M17.8438 30.0887C17.8438 26.3075 20.8945 23.2137 24.7188 23.2137H27.4688C28.1992 23.2137 28.8438 23.8583 28.8438 24.5887C28.8438 25.3622 28.1992 25.9637 27.4688 25.9637H24.7188C22.4414 25.9637 20.5938 27.8114 20.5938 30.0887C20.5938 32.3661 22.4414 34.2137 24.7188 34.2137H27.4688C28.1992 34.2137 28.8438 34.8583 28.8438 35.5887C28.8438 36.3622 28.1992 36.9637 27.4688 36.9637H24.7188C20.8945 36.9637 17.8438 33.913 17.8438 30.0887ZM42.5938 30.0887C42.5938 33.913 39.5 36.9637 35.7188 36.9637H32.9688C32.1953 36.9637 31.5938 36.3622 31.5938 35.5887C31.5938 34.8583 32.1953 34.2137 32.9688 34.2137H35.7188C37.9961 34.2137 39.8438 32.3661 39.8438 30.0887C39.8438 27.8114 37.9961 25.9637 35.7188 25.9637H32.9688C32.1953 25.9637 31.5938 25.3622 31.5938 24.5887C31.5938 23.8583 32.1953 23.2137 32.9688 23.2137H35.7188C39.5 23.2137 42.5938 26.3075 42.5938 30.0887ZM26.0938 28.7137H34.3438C35.0742 28.7137 35.7188 29.3583 35.7188 30.0887C35.7188 30.8622 35.0742 31.4637 34.3438 31.4637H26.0938C25.3203 31.4637 24.7188 30.8622 24.7188 30.0887C24.7188 29.3583 25.3203 28.7137 26.0938 28.7137Z" fill="white"/>
</svg>
