<svg width="43" height="28" viewBox="0 0 43 28" fill="none" xmlns="http://www.w3.org/2000/svg">
<path d="M0 14C0 6.26801 6.26801 0 14 0H29C36.732 0 43 6.26801 43 14C43 21.732 36.732 28 29 28H14C6.26801 28 0 21.732 0 14Z" fill="#D0D4E4" fill-opacity="0.5"/>
<path d="M16.1875 14.5C16.1875 14.0312 16.4219 13.6094 16.8438 13.375C17.2422 13.1406 17.7344 13.1406 18.1562 13.375C18.5547 13.6094 18.8125 14.0312 18.8125 14.5C18.8125 14.9922 18.5547 15.4141 18.1562 15.6484C17.7344 15.8828 17.2422 15.8828 16.8438 15.6484C16.4219 15.4141 16.1875 14.9922 16.1875 14.5ZM19.9375 14.5C19.9375 14.0312 20.1719 13.6094 20.5938 13.375C20.9922 13.1406 21.4844 13.1406 21.9062 13.375C22.3047 13.6094 22.5625 14.0312 22.5625 14.5C22.5625 14.9922 22.3047 15.4141 21.9062 15.6484C21.4844 15.8828 20.9922 15.8828 20.5938 15.6484C20.1719 15.4141 19.9375 14.9922 19.9375 14.5ZM25 13.1875C25.4688 13.1875 25.8906 13.4453 26.125 13.8438C26.3594 14.2656 26.3594 14.7578 26.125 15.1562C25.8906 15.5781 25.4688 15.8125 25 15.8125C24.5078 15.8125 24.0859 15.5781 23.8516 15.1562C23.6172 14.7578 23.6172 14.2656 23.8516 13.8438C24.0859 13.4453 24.5078 13.1875 25 13.1875Z" fill="#777FA1"/>
</svg>
