<svg width="66" height="66" viewBox="0 0 66 66" fill="none" xmlns="http://www.w3.org/2000/svg">
<path d="M0.695312 14.5277C0.695312 6.55639 7.15733 0.0943604 15.1286 0.0943604H51.212C59.1833 0.0943604 65.6453 6.55638 65.6453 14.5277V50.611C65.6453 58.5823 59.1833 65.0444 51.212 65.0444H15.1287C7.15734 65.0444 0.695312 58.5823 0.695312 50.611V14.5277Z" fill="#52B7CA"/>
<path d="M40.1367 35.5887H25.0117C23.4648 35.5887 22.2617 34.3856 22.2617 32.8387V23.2137C22.2617 21.7098 23.4648 20.4637 25.0117 20.4637H30.0391C30.7695 20.4637 31.457 20.7645 31.9727 21.2802L33.1328 22.4403C33.6484 22.9559 34.3359 23.2137 35.0664 23.2137H40.1367C41.6406 23.2137 42.8867 24.4598 42.8867 25.9637V32.8387C42.8867 34.3856 41.6406 35.5887 40.1367 35.5887ZM20.1992 24.245V33.87C20.1992 35.9755 21.875 37.6512 23.9805 37.6512H37.7305C38.2891 37.6512 38.7617 38.1239 38.7617 38.6825C38.7617 39.2841 38.2891 39.7137 37.7305 39.7137H23.9805C20.7148 39.7137 18.1367 37.1356 18.1367 33.87V24.245C18.1367 23.6864 18.5664 23.2137 19.168 23.2137C19.7266 23.2137 20.1992 23.6864 20.1992 24.245Z" fill="white"/>
</svg>
