<svg width="66" height="66" viewBox="0 0 66 66" fill="none" xmlns="http://www.w3.org/2000/svg">
<path d="M0.285156 14.5277C0.285156 6.55639 6.74718 0.0943604 14.7185 0.0943604H50.8018C58.7731 0.0943604 65.2352 6.55638 65.2352 14.5277V50.611C65.2352 58.5823 58.7731 65.0444 50.8018 65.0444H14.7185C6.74719 65.0444 0.285156 58.5823 0.285156 50.611V14.5277Z" fill="#5B9C2F"/>
<path d="M32.5117 22.6943C32.8555 22.6943 33.1992 22.7803 33.5 22.9092L45.5742 27.249C45.9609 27.3779 46.2617 27.7646 46.2617 28.1943C46.2617 28.667 45.9609 29.0537 45.5742 29.1826L33.5 33.5225C33.1992 33.6514 32.8555 33.6943 32.4688 33.6943C32.125 33.6943 31.7812 33.6514 31.4805 33.5225L24.6055 31.0303C24.9922 30.6436 25.4648 30.3428 25.9805 30.1279L32.7266 27.4639C33.1133 27.335 33.2852 26.9482 33.1133 26.5615C32.9844 26.2178 32.5977 26.0459 32.2539 26.1748L25.5078 28.8389C24.6484 29.1826 23.918 29.6982 23.3594 30.3857C22.6289 31.374 22.1992 32.5771 22.1992 33.8662V34.9404C22.457 35.499 22.6289 36.1436 22.7578 36.7451C23.0156 37.9053 23.2305 39.5811 22.8438 41.4287C22.8008 41.6006 22.7148 41.7725 22.543 41.8584C22.3711 41.9443 22.1992 41.9873 22.0273 41.9443L19.2773 41.2568C19.0195 41.2139 18.8477 41.042 18.7617 40.8271C18.7188 40.6123 18.7617 40.3545 18.8906 40.1826C19.2344 39.667 19.5781 39.1084 19.8359 38.5498C20.3516 37.5615 20.8242 36.3154 20.8242 35.0693V33.8662C20.8242 32.4912 21.2109 31.2021 21.8984 30.085L19.4062 29.1826C19.0195 29.0537 18.7617 28.667 18.7617 28.1943C18.7617 27.7646 19.0195 27.3779 19.4062 27.249L31.4805 22.9092C31.7812 22.7803 32.125 22.6943 32.5117 22.6943ZM24.2617 38.8506L24.9062 32.6201L31.0078 34.8115C31.4805 34.9834 31.9961 35.0693 32.5117 35.0693C32.9844 35.0693 33.5 34.9834 33.9727 34.8115L40.0742 32.6201L40.7617 38.8506C40.7617 40.3975 37.0664 41.9443 32.5117 41.9443C27.957 41.9443 24.2617 40.3975 24.2617 38.8506Z" fill="white"/>
</svg>
