<svg width="66" height="66" viewBox="0 0 66 66" fill="none" xmlns="http://www.w3.org/2000/svg">
<path d="M0.695312 14.7694C0.695312 6.79809 7.15733 0.33606 15.1286 0.33606H51.212C59.1833 0.33606 65.6453 6.79808 65.6453 14.7694V50.8527C65.6453 58.824 59.1833 65.2861 51.212 65.2861H15.1287C7.15734 65.2861 0.695312 58.824 0.695312 50.8527V14.7694Z" fill="#27BD50"/>
<path d="M44.6816 33.2251L39.6504 38.2563C37.1348 40.8169 33.002 40.8169 30.4863 38.2563C28.2402 36.0103 27.9258 32.5063 29.7676 29.9009L29.8125 29.856C30.3066 29.1821 31.2051 29.0474 31.834 29.4966C32.4629 29.9458 32.6426 30.8442 32.1484 31.5181L32.1035 31.563C31.0703 33.0005 31.25 34.9771 32.5078 36.2349C33.9004 37.6724 36.1914 37.6724 37.6289 36.2349L42.6602 31.2036C44.0977 29.7661 44.0977 27.4751 42.6602 26.0825C41.4023 24.8247 39.4258 24.645 37.9883 25.6782L37.9434 25.7231C37.2695 26.2173 36.3711 26.0376 35.9219 25.4087C35.4727 24.7798 35.6074 23.8813 36.2363 23.3872L36.3262 23.3423C38.9316 21.5005 42.4355 21.8149 44.6816 24.061C47.2422 26.5767 47.2422 30.7095 44.6816 33.2251ZM21.3672 32.1919L26.3984 27.1157C28.959 24.6001 33.0469 24.6001 35.6074 27.1157C37.8535 29.3618 38.123 32.9106 36.2812 35.5161L36.2363 35.561C35.7871 36.2349 34.8438 36.3696 34.2148 35.9204C33.5859 35.4712 33.4062 34.5728 33.9004 33.8989L33.9453 33.854C34.9785 32.3716 34.7988 30.4399 33.541 29.1821C32.1484 27.7446 29.8574 27.7446 28.4199 29.1821L23.3887 34.2134C21.9961 35.606 21.9961 37.897 23.3887 39.3345C24.6465 40.5923 26.623 40.772 28.0605 39.7388L28.1055 39.6938C28.7793 39.1997 29.6777 39.3794 30.127 40.0083C30.5762 40.6372 30.4414 41.5356 29.8125 42.0298L29.7227 42.0747C27.1621 43.9165 23.6133 43.6021 21.3672 41.356C18.8066 38.8403 18.8066 34.7075 21.3672 32.1919Z" fill="white"/>
</svg>
