<svg width="65" height="66" viewBox="0 0 65 66" fill="none" xmlns="http://www.w3.org/2000/svg">
<path d="M-0.0078125 14.5277C-0.0078125 6.55639 6.45421 0.0943604 14.4255 0.0943604H50.5088C58.4802 0.0943604 64.9422 6.55638 64.9422 14.5277V50.611C64.9422 58.5823 58.4802 65.0444 50.5089 65.0444H14.4255C6.45422 65.0444 -0.0078125 58.5823 -0.0078125 50.611V14.5277Z" fill="#0091EA"/>
<path d="M32.4688 24.0693C27.9141 24.0693 24.2188 27.7646 24.2188 32.3193C24.2188 36.874 27.9141 40.5693 32.4688 40.5693C33.1992 40.5693 33.8438 41.2139 33.8438 41.9443C33.8438 42.7178 33.1992 43.3193 32.4688 43.3193C26.3672 43.3193 21.4688 38.4209 21.4688 32.3193C21.4688 26.2607 26.3672 21.3193 32.4688 21.3193C38.5273 21.3193 43.4688 26.2607 43.4688 32.3193V33.6943C43.4688 35.9717 41.6211 37.8193 39.3438 37.8193C38.0547 37.8193 36.9375 37.2607 36.1641 36.4014C35.2188 37.3037 33.8867 37.8193 32.4688 37.8193C29.418 37.8193 26.9688 35.3701 26.9688 32.3193C26.9688 29.3115 29.418 26.8193 32.4688 26.8193C33.6289 26.8193 34.7461 27.2061 35.6484 27.8936C35.9062 27.6787 36.207 27.5068 36.5938 27.5068C37.3242 27.5068 37.9688 28.1514 37.9688 28.8818V32.3193V33.6943C37.9688 34.4678 38.5703 35.0693 39.3438 35.0693C40.0742 35.0693 40.7188 34.4678 40.7188 33.6943V32.3193C40.7188 27.7646 37.0234 24.0693 32.4688 24.0693ZM35.2188 32.3193C35.2188 31.374 34.6602 30.4717 33.8438 29.9561C32.9844 29.4834 31.9102 29.4834 31.0938 29.9561C30.2344 30.4717 29.7188 31.374 29.7188 32.3193C29.7188 33.3076 30.2344 34.21 31.0938 34.7256C31.9102 35.1982 32.9844 35.1982 33.8438 34.7256C34.6602 34.21 35.2188 33.3076 35.2188 32.3193Z" fill="white"/>
</svg>
