<svg width="54" height="54" viewBox="0 0 54 54" fill="none" xmlns="http://www.w3.org/2000/svg">
<path d="M0 12C0 5.37258 5.37258 0 12 0H42C48.6274 0 54 5.37258 54 12V42C54 48.6274 48.6274 54 42 54H12C5.37258 54 0 48.6274 0 42V12Z" fill="#0091EA"/>
<path d="M37.4844 19.5742L30.6094 25.0742C30.0938 25.5039 29.4062 25.5039 28.8906 25.1172L24.25 21.6367L18.2344 26.4492C17.6328 26.9219 16.7734 26.8359 16.3008 26.2344C15.8281 25.6758 15.9141 24.7734 16.5156 24.3008L23.3906 18.8008C23.8633 18.4141 24.5508 18.4141 25.0664 18.8008L29.707 22.2812L35.7656 17.4258C36.3242 16.9531 37.2266 17.082 37.6992 17.6406C38.1719 18.2422 38.043 19.1016 37.4844 19.5742ZM22.875 26.75C22.875 26.0195 23.4766 25.375 24.25 25.375C24.9805 25.375 25.625 26.0195 25.625 26.75V35C25.625 35.7734 24.9805 36.375 24.25 36.375C23.4766 36.375 22.875 35.7734 22.875 35V26.75ZM17.375 30.875C17.375 30.1445 17.9766 29.5 18.75 29.5C19.4805 29.5 20.125 30.1445 20.125 30.875V35C20.125 35.7734 19.4805 36.375 18.75 36.375C17.9766 36.375 17.375 35.7734 17.375 35V30.875ZM29.75 28.125C30.4805 28.125 31.125 28.7695 31.125 29.5V35C31.125 35.7734 30.4805 36.375 29.75 36.375C28.9766 36.375 28.375 35.7734 28.375 35V29.5C28.375 28.7695 28.9766 28.125 29.75 28.125ZM33.875 26.75C33.875 26.0195 34.4766 25.375 35.25 25.375C35.9805 25.375 36.625 26.0195 36.625 26.75V35C36.625 35.7734 35.9805 36.375 35.25 36.375C34.4766 36.375 33.875 35.7734 33.875 35V26.75Z" fill="white"/>
</svg>
