<svg width="54" height="54" viewBox="0 0 54 54" fill="none" xmlns="http://www.w3.org/2000/svg">
<path d="M0 12C0 5.37258 5.37258 0 12 0H42C48.6274 0 54 5.37258 54 12V42C54 48.6274 48.6274 54 42 54H12C5.37258 54 0 48.6274 0 42V12Z" fill="#6C92F4"/>
<path d="M21.125 17.125C21.125 16.3945 21.7266 15.75 22.5 15.75C23.2305 15.75 23.875 16.3945 23.875 17.125V18.5H29.375V17.125C29.375 16.3945 29.9766 15.75 30.75 15.75C31.4805 15.75 32.125 16.3945 32.125 17.125V18.5H34.1875C35.3047 18.5 36.25 19.4453 36.25 20.5625V22.625H17V20.5625C17 19.4453 17.9023 18.5 19.0625 18.5H21.125V17.125ZM36.25 24V35.6875C36.25 36.8477 35.3047 37.75 34.1875 37.75H19.0625C17.9023 37.75 17 36.8477 17 35.6875V24H36.25Z" fill="white"/>
</svg>
