<svg width="54" height="54" viewBox="0 0 54 54" fill="none" xmlns="http://www.w3.org/2000/svg">
<path d="M0 12C0 5.37258 5.37258 0 12 0H42C48.6274 0 54 5.37258 54 12V42C54 48.6274 48.6274 54 42 54H12C5.37258 54 0 48.6274 0 42V12Z" fill="#27BD50"/>
<path d="M18.375 26.875H25.5625V22.5625H18.375V26.875ZM18.375 29.75V34.0625H25.5625V29.75H18.375ZM28.4375 34.0625H35.625V29.75H28.4375V34.0625ZM35.625 26.875V22.5625H28.4375V26.875H35.625ZM18.375 16.8125H35.625C37.1973 16.8125 38.5 18.1152 38.5 19.6875V34.0625C38.5 35.6797 37.1973 36.9375 35.625 36.9375H18.375C16.7578 36.9375 15.5 35.6797 15.5 34.0625V19.6875C15.5 18.1152 16.7578 16.8125 18.375 16.8125Z" fill="white"/>
</svg>
