<svg width="54" height="54" viewBox="0 0 54 54" fill="none" xmlns="http://www.w3.org/2000/svg">
<path d="M0 12C0 5.37258 5.37258 0 12 0H42C48.6274 0 54 5.37258 54 12V42C54 48.6274 48.6274 54 42 54H12C5.37258 54 0 48.6274 0 42V12Z" fill="#0091EA"/>
<path d="M27 18.5C22.4453 18.5 18.75 22.1953 18.75 26.75C18.75 31.3047 22.4453 35 27 35C27.7305 35 28.375 35.6445 28.375 36.375C28.375 37.1484 27.7305 37.75 27 37.75C20.8984 37.75 16 32.8516 16 26.75C16 20.6914 20.8984 15.75 27 15.75C33.0586 15.75 38 20.6914 38 26.75V28.125C38 30.4023 36.1523 32.25 33.875 32.25C32.5859 32.25 31.4688 31.6914 30.6953 30.832C29.75 31.7344 28.418 32.25 27 32.25C23.9492 32.25 21.5 29.8008 21.5 26.75C21.5 23.7422 23.9492 21.25 27 21.25C28.1602 21.25 29.2773 21.6367 30.1797 22.3242C30.4375 22.1094 30.7383 21.9375 31.125 21.9375C31.8555 21.9375 32.5 22.582 32.5 23.3125V26.75V28.125C32.5 28.8984 33.1016 29.5 33.875 29.5C34.6055 29.5 35.25 28.8984 35.25 28.125V26.75C35.25 22.1953 31.5547 18.5 27 18.5ZM29.75 26.75C29.75 25.8047 29.1914 24.9023 28.375 24.3867C27.5156 23.9141 26.4414 23.9141 25.625 24.3867C24.7656 24.9023 24.25 25.8047 24.25 26.75C24.25 27.7383 24.7656 28.6406 25.625 29.1562C26.4414 29.6289 27.5156 29.6289 28.375 29.1562C29.1914 28.6406 29.75 27.7383 29.75 26.75Z" fill="white"/>
</svg>
