<svg width="54" height="54" viewBox="0 0 54 54" fill="none" xmlns="http://www.w3.org/2000/svg">
<path d="M0 12C0 5.37258 5.37258 0 12 0H42C48.6274 0 54 5.37258 54 12V42C54 48.6274 48.6274 54 42 54H12C5.37258 54 0 48.6274 0 42V12Z" fill="#CAC552"/>
<path d="M22.875 17.125H33.875C35.3789 17.125 36.625 18.3711 36.625 19.875V27.6094C36.625 27.7812 36.582 27.9531 36.5391 28.125H32.5C31.7266 28.125 31.125 28.7695 31.125 29.5V33.582C30.9102 33.625 30.7383 33.625 30.5664 33.625H22.875C21.3281 33.625 20.125 32.4219 20.125 30.875V19.875C20.125 18.3711 21.3281 17.125 22.875 17.125ZM32.5 30.875V29.5H33.875H35.8086H36.625L32.5 33.625V32.8516V30.875ZM28.7188 35.6875C29.2773 35.6875 29.75 36.1602 29.75 36.7188C29.75 37.3203 29.2773 37.75 28.7188 37.75H21.8438C18.5781 37.75 16 35.1719 16 31.9062V22.2812C16 21.7227 16.4297 21.25 17.0312 21.25C17.5898 21.25 18.0625 21.7227 18.0625 22.2812V31.9062C18.0625 34.0117 19.7383 35.6875 21.8438 35.6875H28.7188Z" fill="white"/>
</svg>
