<svg width="54" height="54" viewBox="0 0 54 54" fill="none" xmlns="http://www.w3.org/2000/svg">
<path d="M0 12C0 5.37258 5.37258 0 12 0H42C48.6274 0 54 5.37258 54 12V42C54 48.6274 48.6274 54 42 54H12C5.37258 54 0 48.6274 0 42V12Z" fill="#5B9C2F"/>
<path d="M13 30.1875C13 27.5234 14.7188 25.2031 17.125 24.3867C17.125 24.2578 17.125 24.1289 17.125 24C17.125 20.2188 20.1758 17.125 24 17.125C26.5352 17.125 28.7695 18.543 29.9297 20.6055C30.5742 20.1328 31.3906 19.875 32.25 19.875C34.5273 19.875 36.375 21.7227 36.375 24C36.375 24.5586 36.2461 25.0312 36.0742 25.5039C38.6094 26.0195 40.5 28.2539 40.5 30.875C40.5 33.9258 38.0078 36.375 35 36.375H19.1875C15.75 36.375 13 33.625 13 30.1875Z" fill="white"/>
</svg>
