<svg width="54" height="54" viewBox="0 0 54 54" fill="none" xmlns="http://www.w3.org/2000/svg">
<path d="M0 12C0 5.37258 5.37258 0 12 0H42C48.6274 0 54 5.37258 54 12V42C54 48.6274 48.6274 54 42 54H12C5.37258 54 0 48.6274 0 42V12Z" fill="#E45050"/>
<path d="M21.25 15.75H28.125V21.25C28.125 22.0234 28.7266 22.625 29.5 22.625H35V35C35 36.5469 33.7539 37.75 32.25 37.75H21.25C19.7031 37.75 18.5 36.5469 18.5 35V18.5C18.5 16.9961 19.7031 15.75 21.25 15.75ZM29.5 15.75L35 21.25H29.5V15.75ZM24.3438 26.0625C23.7422 26.0625 23.3125 26.5352 23.3125 27.0938V31.5625V33.9688C23.3125 34.5703 23.7422 35 24.3438 35C24.9023 35 25.375 34.5703 25.375 33.9688V32.5938H27.2656C29.0703 32.5938 30.5312 31.1328 30.5312 29.3281C30.5312 27.5234 29.0703 26.0625 27.2656 26.0625H24.3438ZM27.2656 30.5312H25.375V28.125H27.2656C27.9102 28.125 28.4688 28.6836 28.4688 29.3281C28.4688 30.0156 27.9102 30.5312 27.2656 30.5312Z" fill="white"/>
</svg>
