<svg width="54" height="54" viewBox="0 0 54 54" fill="none" xmlns="http://www.w3.org/2000/svg">
<path d="M0 12C0 5.37258 5.37258 0 12 0H42C48.6274 0 54 5.37258 54 12V42C54 48.6274 48.6274 54 42 54H12C5.37258 54 0 48.6274 0 42V12Z" fill="#2C41FF"/>
<path d="M35.25 26.75C35.25 22.1953 31.5547 18.5 27 18.5C25.7539 18.5 24.5508 18.8008 23.4766 19.2734C23.3047 18.3281 22.7461 17.5117 21.9297 16.9961C23.4336 16.2227 25.1523 15.75 27 15.75C33.0586 15.75 38 20.6914 38 26.75C38 29.1992 37.1836 31.4336 35.8945 33.2383C35.8945 33.3672 35.9375 33.4961 35.9375 33.625C35.9375 34.7852 34.9922 35.6875 33.875 35.6875C32.7148 35.6875 31.8125 34.7852 31.8125 33.625C31.8125 32.5508 32.6289 31.6914 33.6602 31.6055C34.6484 30.2305 35.25 28.5547 35.25 26.75ZM27 35C28.2461 35 29.4062 34.7422 30.4805 34.2695C30.6523 35.2148 31.2109 36.0312 31.9844 36.5469C30.4805 37.3203 28.8047 37.75 27 37.75C20.8984 37.75 16 32.8516 16 26.75C16 24.3438 16.7734 22.1094 18.0625 20.3047C18.0625 20.1758 18.0625 20.0469 18.0625 19.875C18.0625 18.7578 18.9648 17.8125 20.125 17.8125C21.2422 17.8125 22.1875 18.7578 22.1875 19.875C22.1875 20.9922 21.3281 21.8516 20.2969 21.9375C19.3086 23.3125 18.75 24.9883 18.75 26.75C18.75 31.3047 22.4453 35 27 35ZM32.7148 23.6133C33.2305 24.5586 33.5312 25.6328 33.5312 26.75C33.5312 30.3594 30.5664 33.2812 27 33.2812C23.3906 33.2812 20.4688 30.3594 20.4688 26.75C20.4688 23.1836 23.3906 20.2188 27 20.2188C28.332 20.2188 29.5781 20.6484 30.6094 21.3359C30.7812 21.293 30.9531 21.25 31.125 21.25C32.0703 21.25 32.8438 22.0234 32.8438 22.9688C32.8438 23.2266 32.8008 23.4414 32.7148 23.6133ZM29.4062 23.0117C28.6758 22.582 27.8594 22.3242 27 22.3242C24.5078 22.3242 22.5312 24.3008 22.5312 26.793C22.5312 29.2422 24.5078 31.2617 27 31.2617C29.4492 31.2617 31.4688 29.2422 31.4688 26.793C31.4688 26.0195 31.2539 25.332 30.9531 24.6875C30.0938 24.6016 29.4062 23.8711 29.4062 23.0117ZM29.75 26.75C29.75 27.7383 29.1914 28.6406 28.375 29.1562C27.5156 29.6289 26.4414 29.6289 25.625 29.1562C24.7656 28.6406 24.25 27.7383 24.25 26.75C24.25 25.8047 24.7656 24.9023 25.625 24.3867C26.4414 23.9141 27.5156 23.9141 28.375 24.3867C29.1914 24.9023 29.75 25.8047 29.75 26.75Z" fill="white"/>
</svg>
