<svg width="54" height="54" viewBox="0 0 54 54" fill="none" xmlns="http://www.w3.org/2000/svg">
<path d="M0 12C0 5.37258 5.37258 0 12 0H42C48.6274 0 54 5.37258 54 12V42C54 48.6274 48.6274 54 42 54H12C5.37258 54 0 48.6274 0 42V12Z" fill="#2C7FBA"/>
<path d="M21.25 15.75H28.125V21.25C28.125 22.0234 28.7266 22.625 29.5 22.625H35V35C35 36.5469 33.7539 37.75 32.25 37.75H21.25C19.7031 37.75 18.5 36.5469 18.5 35V18.5C18.5 16.9961 19.7031 15.75 21.25 15.75ZM29.5 15.75L35 21.25H29.5V15.75ZM23.2695 26.8359C23.0977 26.2773 22.4961 25.9766 21.9805 26.1055C21.4219 26.2773 21.1211 26.8789 21.293 27.3945L23.3555 34.2695C23.4844 34.6992 23.8711 35 24.3008 35C24.7305 35.043 25.1602 34.7422 25.2891 34.3125L26.75 30.2305L28.168 34.3125C28.2969 34.7422 28.7266 35.043 29.1562 35C29.6289 35 30.0156 34.6992 30.1445 34.2695L32.207 27.3945C32.3359 26.8789 32.0352 26.2773 31.4766 26.1055C30.9609 25.9766 30.3594 26.2773 30.2305 26.8359L29.0703 30.6602L27.6953 26.75C27.5664 26.3633 27.1797 26.0625 26.75 26.0625C26.2773 26.0625 25.8906 26.3633 25.7617 26.75L24.3867 30.6602L23.2695 26.8359Z" fill="white"/>
</svg>
