<svg width="66" height="66" viewBox="0 0 66 66" fill="none" xmlns="http://www.w3.org/2000/svg">
<path d="M0.285156 14.7694C0.285156 6.79809 6.74718 0.33606 14.7185 0.33606H50.8018C58.7731 0.33606 65.2352 6.79808 65.2352 14.7694V50.8527C65.2352 58.824 58.7731 65.2861 50.8018 65.2861H14.7185C6.74719 65.2861 0.285156 58.824 0.285156 50.8527V14.7694Z" fill="#6E38CE"/>
<path d="M27.0117 27.061V28.436C27.0117 29.2095 26.3672 29.811 25.6367 29.811C24.8633 29.811 24.2617 29.2095 24.2617 28.436V27.061C24.2617 24.7837 26.1094 22.936 28.3867 22.936C30.6641 22.936 32.5117 24.7837 32.5117 27.061V27.4048C32.5117 28.3071 32.4258 29.2095 32.3398 30.1118L37.582 28.522C38.0977 28.3501 38.6133 28.522 39 28.8657C39.3438 29.2524 39.4727 29.7681 39.3008 30.2837L38.5273 32.561H42.1367C42.8672 32.561 43.5117 33.2056 43.5117 33.936C43.5117 34.7095 42.8672 35.311 42.1367 35.311H36.6367C36.1641 35.311 35.7773 35.0962 35.5195 34.7524C35.2617 34.4087 35.1758 33.936 35.3047 33.5063L35.8633 31.9165L31.7812 33.1196C31.2656 35.397 30.4492 37.5884 29.2891 39.6079L28.6875 40.6392C28.1289 41.6274 27.0977 42.186 25.9805 42.186C24.2617 42.186 22.8867 40.811 22.8867 39.0923V35.9985C22.8867 34.1938 24.0469 32.561 25.8086 32.0454L29.418 30.9712C29.6328 29.811 29.7617 28.6079 29.7617 27.4048V27.061C29.7617 26.3306 29.1172 25.686 28.3867 25.686C27.6133 25.686 27.0117 26.3306 27.0117 27.061ZM26.582 34.6665C26.0234 34.8384 25.5938 35.397 25.5938 35.9985V39.0923C25.5938 39.3071 25.7656 39.479 25.9805 39.479C26.1094 39.479 26.2383 39.3931 26.2812 39.2642L26.8828 38.2329C27.6562 36.9009 28.2578 35.5259 28.6875 34.0649L26.582 34.6665ZM19.793 37.3735H21.5117V39.0923C21.5117 39.2212 21.5117 39.3501 21.5117 39.436H19.793C19.1914 39.436 18.7617 39.0063 18.7617 38.4048C18.7617 37.8462 19.1914 37.3735 19.793 37.3735ZM45.2305 39.436H30.9219C31.2656 38.7915 31.6094 38.104 31.8672 37.3735H45.2305C45.7891 37.3735 46.2617 37.8462 46.2617 38.4048C46.2617 39.0063 45.7891 39.436 45.2305 39.436Z" fill="white"/>
</svg>
