<svg width="22" height="19" viewBox="0 0 22 19" fill="none" xmlns="http://www.w3.org/2000/svg">
<path d="M0 1.55891C0 1.16605 0.34375 0.773193 0.785714 0.773193H21.2143C21.6071 0.773193 22 1.16605 22 1.55891C22 2.00087 21.6071 2.34462 21.2143 2.34462H0.785714C0.34375 2.34462 0 2.00087 0 1.55891ZM3.14286 9.41605C3.14286 9.02319 3.48661 8.63034 3.92857 8.63034H18.0714C18.4643 8.63034 18.8571 9.02319 18.8571 9.41605C18.8571 9.85802 18.4643 10.2018 18.0714 10.2018H3.92857C3.48661 10.2018 3.14286 9.85802 3.14286 9.41605ZM14.1429 17.2732C14.1429 17.7152 13.75 18.0589 13.3571 18.0589H8.64286C8.20089 18.0589 7.85714 17.7152 7.85714 17.2732C7.85714 16.8803 8.20089 16.4875 8.64286 16.4875H13.3571C13.75 16.4875 14.1429 16.8803 14.1429 17.2732Z" fill="black"/>
</svg>
