<svg width="944" height="116" viewBox="0 0 944 116" fill="none" xmlns="http://www.w3.org/2000/svg">
<path d="M0.777344 91.7608C0.777344 105.046 11.5474 115.816 24.8329 115.816H919.7C932.985 115.816 943.755 105.046 943.755 91.7609V14.7831C943.755 6.81178 937.293 0.349739 929.322 0.349739H15.2107C7.23936 0.349739 0.777344 6.81176 0.777344 14.7831V91.7608Z" fill="#F5F5F5"/>
<path d="M0.777344 101.384C0.777344 109.355 7.23937 115.817 15.2107 115.817H929.322C937.293 115.817 943.755 109.355 943.755 101.384V24.4058C943.755 11.1203 932.985 0.350227 919.7 0.350227H24.8329C11.5474 0.350227 0.777344 11.1203 0.777344 24.4058V101.384Z" fill="white"/>
<g filter="url(#filter0_dd_5225_19366)">
<path d="M15.2109 18.3915C15.2109 16.3987 16.8264 14.7832 18.8193 14.7832H925.714C927.706 14.7832 929.322 16.3987 929.322 18.3915V65.2999C929.322 66.6284 928.245 67.7054 926.916 67.7054H17.6165C16.288 67.7054 15.2109 66.6284 15.2109 65.2999V18.3915Z" fill="white"/>
<path d="M48.6048 41.0186H44.5106V53.6968H42.8492V41.0186H38.7648V39.5154H48.6048V41.0186ZM57.5547 43.5701L52.8968 55.3186C52.066 57.4152 50.8991 58.4635 49.3959 58.4635C48.974 58.4635 48.6212 58.4206 48.3378 58.3349V56.8812C48.6872 56.9998 49.0069 57.0592 49.297 57.0592C50.1145 57.0592 50.7277 56.5713 51.1364 55.5955L51.9474 53.677L47.9916 43.5701H49.7915L52.5308 51.3629C52.5638 51.4618 52.633 51.7189 52.7385 52.1343H52.7979C52.8308 51.976 52.8968 51.7255 52.9957 51.3827L55.8735 43.5701H57.5547ZM60.9665 52.2331H60.9269V58.3547H59.3051V43.5701H60.9269V45.3501H60.9665C61.7642 44.0052 62.9312 43.3327 64.4673 43.3327C65.7727 43.3327 66.7913 43.7876 67.5231 44.6974C68.255 45.6007 68.6209 46.8138 68.6209 48.3367C68.6209 50.0311 68.2088 51.3893 67.3847 52.4112C66.5606 53.4265 65.4332 53.9341 64.0025 53.9341C62.6905 53.9341 61.6785 53.3671 60.9665 52.2331ZM60.9269 48.1488V49.563C60.9269 50.4003 61.1972 51.1124 61.7379 51.6991C62.2851 52.2793 62.9773 52.5694 63.8146 52.5694C64.797 52.5694 65.565 52.1936 66.1189 51.442C66.6793 50.6904 66.9594 49.6454 66.9594 48.3071C66.9594 47.1797 66.699 46.2962 66.1782 45.6567C65.6573 45.0172 64.9519 44.6974 64.0619 44.6974C63.1191 44.6974 62.3609 45.0271 61.7873 45.6864C61.2137 46.3391 60.9269 47.1599 60.9269 48.1488ZM79.3508 49.0389H72.2008C72.2272 50.1663 72.5305 51.0365 73.1106 51.6497C73.6908 52.2628 74.4886 52.5694 75.5039 52.5694C76.6444 52.5694 77.6927 52.1936 78.6487 51.442V52.965C77.7586 53.6111 76.5818 53.9341 75.1182 53.9341C73.6875 53.9341 72.5634 53.4759 71.7459 52.5595C70.9284 51.6365 70.5196 50.341 70.5196 48.673C70.5196 47.0973 70.9646 45.8149 71.8547 44.826C72.7513 43.8305 73.8622 43.3327 75.1874 43.3327C76.5126 43.3327 77.5378 43.7613 78.263 44.6183C78.9882 45.4754 79.3508 46.6654 79.3508 48.1884V49.0389ZM77.6894 47.6643C77.6828 46.7281 77.4554 45.9995 77.0071 45.4787C76.5653 44.9579 75.9489 44.6974 75.1577 44.6974C74.393 44.6974 73.7436 44.9711 73.2095 45.5183C72.6755 46.0655 72.3459 46.7808 72.2206 47.6643H77.6894ZM94.62 53.6968H92.9982V52.1145H92.9586C92.2532 53.3276 91.2148 53.9341 89.8435 53.9341C88.8347 53.9341 88.0436 53.6671 87.47 53.1331C86.903 52.5991 86.6195 51.8903 86.6195 51.0069C86.6195 49.1147 87.7337 48.0137 89.9621 47.7038L92.9982 47.2786C92.9982 45.5578 92.3026 44.6974 90.9115 44.6974C89.6918 44.6974 88.5908 45.1128 87.6085 45.9435V44.2821C88.604 43.6492 89.7512 43.3327 91.05 43.3327C93.43 43.3327 94.62 44.592 94.62 47.1105V53.6968ZM92.9982 48.5741L90.5555 48.9103C89.8039 49.0158 89.2369 49.2037 88.8545 49.474C88.4721 49.7377 88.2809 50.2091 88.2809 50.8882C88.2809 51.3827 88.4557 51.7881 88.8051 52.1046C89.1611 52.4145 89.6325 52.5694 90.2193 52.5694C91.0236 52.5694 91.6862 52.2892 92.207 51.7288C92.7345 51.1618 92.9982 50.4465 92.9982 49.5828V48.5741ZM111.64 53.6968H110.018V47.9214C110.018 45.7721 109.233 44.6974 107.664 44.6974C106.853 44.6974 106.181 45.004 105.647 45.6172C105.119 46.2237 104.856 46.9918 104.856 47.9214V53.6968H103.234V43.5701H104.856V45.2513H104.895C105.66 43.9722 106.767 43.3327 108.218 43.3327C109.326 43.3327 110.173 43.692 110.759 44.4107C111.346 45.1227 111.64 46.1545 111.64 47.506V53.6968ZM122.844 49.0389H115.694C115.721 50.1663 116.024 51.0365 116.604 51.6497C117.184 52.2628 117.982 52.5694 118.997 52.5694C120.138 52.5694 121.186 52.1936 122.142 51.442V52.965C121.252 53.6111 120.075 53.9341 118.612 53.9341C117.181 53.9341 116.057 53.4759 115.239 52.5595C114.422 51.6365 114.013 50.341 114.013 48.673C114.013 47.0973 114.458 45.8149 115.348 44.826C116.245 43.8305 117.356 43.3327 118.681 43.3327C120.006 43.3327 121.031 43.7613 121.756 44.6183C122.482 45.4754 122.844 46.6654 122.844 48.1884V49.0389ZM121.183 47.6643C121.176 46.7281 120.949 45.9995 120.501 45.4787C120.059 44.9579 119.442 44.6974 118.651 44.6974C117.886 44.6974 117.237 44.9711 116.703 45.5183C116.169 46.0655 115.839 46.7808 115.714 47.6643H121.183ZM138.064 43.5701L135.028 53.6968H133.347L131.26 46.4479C131.181 46.171 131.128 45.8578 131.102 45.5084H131.062C131.043 45.7457 130.973 46.0523 130.855 46.4281L128.59 53.6968H126.968L123.902 43.5701H125.603L127.7 51.1849C127.766 51.4156 127.812 51.7189 127.838 52.0947H127.918C127.937 51.8046 127.997 51.4947 128.096 51.1651L130.429 43.5701H131.913L134.009 51.2047C134.075 51.4486 134.125 51.7519 134.158 52.1145H134.237C134.25 51.8574 134.306 51.5541 134.405 51.2047L136.462 43.5701H138.064ZM159.88 53.6968H158.258V47.8818C158.258 46.761 158.083 45.9501 157.734 45.449C157.391 44.948 156.811 44.6974 155.993 44.6974C155.301 44.6974 154.711 45.0139 154.223 45.6468C153.742 46.2797 153.501 47.0379 153.501 47.9214V53.6968H151.88V47.684C151.88 45.693 151.111 44.6974 149.575 44.6974C148.863 44.6974 148.276 44.9974 147.815 45.5974C147.353 46.1907 147.123 46.9654 147.123 47.9214V53.6968H145.501V43.5701H147.123V45.1721H147.162C147.881 43.9459 148.929 43.3327 150.307 43.3327C150.999 43.3327 151.603 43.5272 152.117 43.9162C152.631 44.2986 152.984 44.8029 153.175 45.4293C153.927 44.0316 155.047 43.3327 156.537 43.3327C158.766 43.3327 159.88 44.7073 159.88 47.4566V53.6968ZM171.085 49.0389H163.935C163.961 50.1663 164.264 51.0365 164.844 51.6497C165.425 52.2628 166.222 52.5694 167.238 52.5694C168.378 52.5694 169.427 52.1936 170.383 51.442V52.965C169.492 53.6111 168.316 53.9341 166.852 53.9341C165.421 53.9341 164.297 53.4759 163.48 52.5595C162.662 51.6365 162.253 50.341 162.253 48.673C162.253 47.0973 162.698 45.8149 163.589 44.826C164.485 43.8305 165.596 43.3327 166.921 43.3327C168.246 43.3327 169.272 43.7613 169.997 44.6183C170.722 45.4754 171.085 46.6654 171.085 48.1884V49.0389ZM169.423 47.6643C169.417 46.7281 169.189 45.9995 168.741 45.4787C168.299 44.9579 167.683 44.6974 166.892 44.6974C166.127 44.6974 165.477 44.9711 164.943 45.5183C164.409 46.0655 164.08 46.7808 163.954 47.6643H169.423ZM172.934 53.3309V51.5903C173.817 52.243 174.79 52.5694 175.851 52.5694C177.275 52.5694 177.987 52.0947 177.987 51.1453C177.987 50.875 177.925 50.6476 177.8 50.463C177.681 50.2718 177.516 50.1036 177.305 49.9586C177.101 49.8135 176.857 49.685 176.573 49.5729C176.296 49.4542 175.996 49.3323 175.673 49.207C175.225 49.029 174.829 48.851 174.487 48.673C174.15 48.4884 173.867 48.284 173.636 48.0598C173.412 47.8291 173.241 47.5687 173.122 47.2786C173.01 46.9885 172.954 46.6489 172.954 46.26C172.954 45.7853 173.063 45.3666 173.28 45.004C173.498 44.6348 173.788 44.3282 174.15 44.0843C174.513 43.8338 174.925 43.6459 175.387 43.5206C175.855 43.3953 176.336 43.3327 176.83 43.3327C177.707 43.3327 178.492 43.4843 179.184 43.7876V45.4293C178.439 44.9414 177.582 44.6974 176.613 44.6974C176.31 44.6974 176.036 44.7337 175.792 44.8062C175.548 44.8722 175.337 44.9678 175.159 45.093C174.988 45.2183 174.853 45.3699 174.754 45.5479C174.661 45.7193 174.615 45.9105 174.615 46.1215C174.615 46.3852 174.661 46.6061 174.754 46.7841C174.853 46.9621 174.994 47.1203 175.179 47.2588C175.363 47.3972 175.588 47.5225 175.851 47.6346C176.115 47.7467 176.415 47.8686 176.751 48.0005C177.2 48.1719 177.602 48.3499 177.958 48.5345C178.314 48.7125 178.617 48.9169 178.868 49.1477C179.118 49.3718 179.309 49.6322 179.441 49.9289C179.58 50.2256 179.649 50.5783 179.649 50.9871C179.649 51.4882 179.537 51.9233 179.313 52.2925C179.095 52.6617 178.802 52.9683 178.432 53.2122C178.063 53.4561 177.638 53.6374 177.157 53.7561C176.675 53.8748 176.171 53.9341 175.644 53.9341C174.602 53.9341 173.699 53.733 172.934 53.3309ZM181.538 53.3309V51.5903C182.421 52.243 183.394 52.5694 184.455 52.5694C185.879 52.5694 186.591 52.0947 186.591 51.1453C186.591 50.875 186.529 50.6476 186.403 50.463C186.285 50.2718 186.12 50.1036 185.909 49.9586C185.704 49.8135 185.461 49.685 185.177 49.5729C184.9 49.4542 184.6 49.3323 184.277 49.207C183.829 49.029 183.433 48.851 183.09 48.673C182.754 48.4884 182.471 48.284 182.24 48.0598C182.016 47.8291 181.844 47.5687 181.726 47.2786C181.614 46.9885 181.558 46.6489 181.558 46.26C181.558 45.7853 181.666 45.3666 181.884 45.004C182.101 44.6348 182.392 44.3282 182.754 44.0843C183.117 43.8338 183.529 43.6459 183.99 43.5206C184.458 43.3953 184.94 43.3327 185.434 43.3327C186.311 43.3327 187.096 43.4843 187.788 43.7876V45.4293C187.043 44.9414 186.186 44.6974 185.217 44.6974C184.913 44.6974 184.64 44.7337 184.396 44.8062C184.152 44.8722 183.941 44.9678 183.763 45.093C183.591 45.2183 183.456 45.3699 183.357 45.5479C183.265 45.7193 183.219 45.9105 183.219 46.1215C183.219 46.3852 183.265 46.6061 183.357 46.7841C183.456 46.9621 183.598 47.1203 183.783 47.2588C183.967 47.3972 184.191 47.5225 184.455 47.6346C184.719 47.7467 185.019 47.8686 185.355 48.0005C185.803 48.1719 186.206 48.3499 186.562 48.5345C186.918 48.7125 187.221 48.9169 187.471 49.1477C187.722 49.3718 187.913 49.6322 188.045 49.9289C188.183 50.2256 188.253 50.5783 188.253 50.9871C188.253 51.4882 188.141 51.9233 187.916 52.2925C187.699 52.6617 187.405 52.9683 187.036 53.2122C186.667 53.4561 186.242 53.6374 185.761 53.7561C185.279 53.8748 184.775 53.9341 184.247 53.9341C183.206 53.9341 182.303 53.733 181.538 53.3309ZM198.004 53.6968H196.382V52.1145H196.342C195.637 53.3276 194.598 53.9341 193.227 53.9341C192.218 53.9341 191.427 53.6671 190.854 53.1331C190.287 52.5991 190.003 51.8903 190.003 51.0069C190.003 49.1147 191.117 48.0137 193.346 47.7038L196.382 47.2786C196.382 45.5578 195.686 44.6974 194.295 44.6974C193.075 44.6974 191.974 45.1128 190.992 45.9435V44.2821C191.988 43.6492 193.135 43.3327 194.433 43.3327C196.814 43.3327 198.004 44.592 198.004 47.1105V53.6968ZM196.382 48.5741L193.939 48.9103C193.187 49.0158 192.62 49.2037 192.238 49.474C191.856 49.7377 191.664 50.2091 191.664 50.8882C191.664 51.3827 191.839 51.7881 192.189 52.1046C192.545 52.4145 193.016 52.5694 193.603 52.5694C194.407 52.5694 195.07 52.2892 195.591 51.7288C196.118 51.1618 196.382 50.4465 196.382 49.5828V48.5741ZM209.703 52.8858C209.703 56.6043 207.923 58.4635 204.362 58.4635C203.11 58.4635 202.015 58.2261 201.079 57.7514V56.1296C202.22 56.7625 203.308 57.0789 204.343 57.0789C206.835 57.0789 208.081 55.7538 208.081 53.1034V51.9958H208.041C207.27 53.288 206.11 53.9341 204.56 53.9341C203.301 53.9341 202.286 53.4858 201.514 52.5892C200.749 51.6859 200.367 50.4761 200.367 48.9598C200.367 47.239 200.779 45.871 201.603 44.8557C202.434 43.8404 203.568 43.3327 205.005 43.3327C206.37 43.3327 207.382 43.8799 208.041 44.9743H208.081V43.5701H209.703V52.8858ZM208.081 49.118V47.6247C208.081 46.8204 207.807 46.1314 207.26 45.5578C206.719 44.9842 206.044 44.6974 205.233 44.6974C204.231 44.6974 203.446 45.0634 202.879 45.7952C202.312 46.5204 202.029 47.539 202.029 48.851C202.029 49.9784 202.299 50.8816 202.839 51.5607C203.387 52.2331 204.109 52.5694 205.005 52.5694C205.915 52.5694 206.653 52.2463 207.22 51.6002C207.794 50.9541 208.081 50.1267 208.081 49.118ZM221.125 49.0389H213.975C214.001 50.1663 214.305 51.0365 214.885 51.6497C215.465 52.2628 216.263 52.5694 217.278 52.5694C218.419 52.5694 219.467 52.1936 220.423 51.442V52.965C219.533 53.6111 218.356 53.9341 216.892 53.9341C215.462 53.9341 214.338 53.4759 213.52 52.5595C212.702 51.6365 212.294 50.341 212.294 48.673C212.294 47.0973 212.739 45.8149 213.629 44.826C214.525 43.8305 215.636 43.3327 216.961 43.3327C218.287 43.3327 219.312 43.7613 220.037 44.6183C220.762 45.4754 221.125 46.6654 221.125 48.1884V49.0389ZM219.464 47.6643C219.457 46.7281 219.229 45.9995 218.781 45.4787C218.339 44.9579 217.723 44.6974 216.932 44.6974C216.167 44.6974 215.518 44.9711 214.984 45.5183C214.45 46.0655 214.12 46.7808 213.995 47.6643H219.464Z" fill="#424242"/>
</g>
<g clip-path="url(#clip0_5225_19366)">
<path d="M901.207 77.3896L919.675 86.4898C919.973 86.6366 920.096 86.9971 919.949 87.295C919.89 87.4139 919.794 87.5101 919.675 87.5687L901.208 96.6687C900.91 96.8155 900.549 96.6929 900.402 96.395C900.338 96.2647 900.323 96.1156 900.36 95.9752L902.728 87.0342L900.36 78.0828C900.275 77.7618 900.466 77.4326 900.788 77.3476C900.928 77.3105 901.077 77.3254 901.207 77.3896ZM901.861 79.0525L903.796 86.3679L903.871 86.3534L903.948 86.3485H912.368C912.7 86.3485 912.969 86.6177 912.969 86.9499C912.969 87.2451 912.756 87.4906 912.476 87.5416L912.368 87.5512H903.948C903.91 87.5512 903.873 87.5478 903.838 87.5411L901.861 95.0056L918.049 87.0292L901.861 79.0525Z" fill="#242424"/>
</g>
<g clip-path="url(#clip1_5225_19366)">
<path d="M39.3702 82.9843C40.3804 81.9702 41.9914 81.9189 43.0623 82.8326L43.2188 82.9769L43.3709 83.1412C44.242 84.1618 44.242 85.6708 43.3709 86.6914L43.2261 86.8484L34.9555 95.1506C34.769 95.3378 34.5443 95.4812 34.2978 95.5715L34.109 95.6291L30.3977 96.5435C29.9899 96.644 29.6194 96.3089 29.6542 95.9102L29.6715 95.8094L30.6241 92.116C30.6883 91.8671 30.8047 91.6355 30.9648 91.4363L31.0929 91.2932L39.3702 82.9843ZM42.3699 83.829C41.8153 83.2766 40.9408 83.2414 40.3454 83.7222L40.2224 83.8331L31.9451 92.1421C31.8947 92.1927 31.8539 92.2516 31.8244 92.316L31.7888 92.4163L31.0872 95.1346L33.8212 94.4613C33.8687 94.4496 33.9144 94.4322 33.9573 94.4096L34.0195 94.3719L34.1034 94.3018L42.374 85.9995C42.9706 85.4006 42.9706 84.432 42.3699 83.829ZM30.1533 77.6027L30.2037 77.7042L33.7903 86.8803L32.8618 87.8124L32.0535 85.7448H27.246L25.9941 88.968C25.8871 89.2431 25.5998 89.3949 25.3199 89.3407L25.2156 89.3105C24.9405 89.2035 24.7887 88.9163 24.8429 88.6363L24.8731 88.5321L29.0831 77.7052C29.2675 77.2309 29.9037 77.1965 30.1533 77.6027ZM29.6439 79.5779L27.7139 84.5421H31.5844L29.6439 79.5779Z" fill="#242424"/>
<path d="M66.7219 87.5338L73.5259 80.7298C74.935 79.3207 77.2197 79.3207 78.6288 80.7298C80.038 82.139 80.038 84.4237 78.6288 85.8328L70.5492 93.9125C69.8446 94.6171 68.7023 94.6171 67.9977 93.9125C67.2931 93.2079 67.2931 92.0656 67.9977 91.361L75.2269 84.1318C75.4617 83.897 75.4617 83.5162 75.2269 83.2813C74.992 83.0465 74.6112 83.0465 74.3764 83.2813L67.1472 90.5105C65.9729 91.6848 65.9729 93.5887 67.1472 94.763C68.3215 95.9373 70.2254 95.9373 71.3997 94.763L79.4793 86.6833C81.3582 84.8044 81.3582 81.7582 79.4793 79.8794C77.6005 78.0005 74.5542 78.0005 72.6754 79.8794L65.8715 86.6833C65.6366 86.9182 65.6366 87.2989 65.8715 87.5338C66.1063 87.7686 66.4871 87.7686 66.7219 87.5338Z" fill="#242424"/>
<path d="M111.431 77.3276C116.745 77.3276 121.053 81.6357 121.053 86.9499C121.053 92.2641 116.745 96.5721 111.431 96.5721C106.117 96.5721 101.809 92.2641 101.809 86.9499C101.809 81.6357 106.117 77.3276 111.431 77.3276ZM111.431 78.5304C106.781 78.5304 103.011 82.2999 103.011 86.9499C103.011 91.5998 106.781 95.3693 111.431 95.3693C116.081 95.3693 119.85 91.5998 119.85 86.9499C119.85 82.2999 116.081 78.5304 111.431 78.5304ZM108.009 89.8693C109.824 91.6964 112.739 91.7663 114.639 90.0724L114.853 89.8693C115.087 89.6337 115.468 89.6325 115.704 89.8667C115.913 90.0748 115.937 90.3987 115.776 90.6336L115.706 90.7171L115.679 90.7441C113.318 93.0905 109.502 93.0784 107.155 90.7171C106.921 90.4815 106.922 90.1008 107.158 89.8667C107.394 89.6325 107.774 89.6337 108.009 89.8693ZM114.438 83.9429C115.102 83.9429 115.641 84.4814 115.641 85.1457C115.641 85.81 115.102 86.3485 114.438 86.3485C113.773 86.3485 113.235 85.81 113.235 85.1457C113.235 84.4814 113.773 83.9429 114.438 83.9429ZM108.424 83.9429C109.088 83.9429 109.627 84.4814 109.627 85.1457C109.627 85.81 109.088 86.3485 108.424 86.3485C107.76 86.3485 107.221 85.81 107.221 85.1457C107.221 84.4814 107.76 83.9429 108.424 83.9429Z" fill="#242424"/>
<path d="M156.414 78.5308C158.082 78.5308 159.444 79.9583 159.536 81.7571L159.541 81.9512V91.9493C159.541 93.7731 158.236 95.2636 156.592 95.3642L156.414 95.3696H143.424C141.757 95.3696 140.394 93.9421 140.302 92.1433L140.297 91.9493V81.9512C140.297 80.1273 141.602 78.6368 143.247 78.5362L143.424 78.5308H156.414ZM156.234 79.7335H143.605C142.49 79.7335 141.579 80.6873 141.505 81.8944L141.5 82.0532V91.8472C141.5 93.075 142.365 94.0799 143.46 94.1615L143.605 94.1669H156.234C157.348 94.1669 158.26 93.2131 158.334 92.006L158.339 91.8472V82.0532C158.339 80.8255 157.473 79.8205 156.378 79.7389L156.234 79.7335ZM146.132 83.3444C146.878 83.3444 147.512 83.4607 148.033 83.7034C148.354 83.8528 148.483 84.2144 148.322 84.511C148.16 84.8077 147.769 84.9271 147.449 84.7777C147.126 84.6274 146.688 84.5472 146.132 84.5472C144.897 84.5472 144.003 85.5484 144.003 86.9515C144.003 88.2984 144.981 89.3558 146.132 89.3558C146.849 89.3558 147.336 88.9332 147.407 88.5461L147.416 88.4503V87.5529L146.961 87.5516C146.602 87.5516 146.311 87.2823 146.311 86.9502C146.311 86.655 146.541 86.4094 146.844 86.3585L146.961 86.3488L148.066 86.3501C148.385 86.3501 148.651 86.5628 148.706 86.8434L148.716 86.9515V88.4503C148.716 89.5054 147.65 90.5585 146.132 90.5585C144.213 90.5585 142.702 88.9246 142.702 86.9515C142.702 84.9294 144.118 83.3444 146.132 83.3444ZM151.122 83.3419C151.417 83.3419 151.663 83.5546 151.714 83.8352L151.723 83.9433V89.9572C151.723 90.2893 151.454 90.5585 151.122 90.5585C150.827 90.5585 150.581 90.3458 150.53 90.0653L150.52 89.9572V83.9433C150.52 83.6111 150.79 83.3419 151.122 83.3419ZM156.534 83.3419C156.867 83.3419 157.136 83.6111 157.136 83.9433C157.136 84.2385 156.923 84.484 156.642 84.535L156.534 84.5447H154.73V86.9502H156.534C156.867 86.9502 157.136 87.2195 157.136 87.5516C157.136 87.8468 156.923 88.0924 156.642 88.1433L156.534 88.153H154.73V89.9572C154.73 90.2893 154.461 90.5585 154.129 90.5585C153.834 90.5585 153.588 90.3458 153.537 90.0653L153.527 89.9572V83.9433C153.527 83.6111 153.797 83.3419 154.129 83.3419H156.534Z" fill="#242424"/>
<path d="M185.405 85.7474C186.069 85.7474 186.607 85.2089 186.607 84.5447C186.607 83.8804 186.069 83.3419 185.405 83.3419C184.74 83.3419 184.202 83.8804 184.202 84.5447C184.202 85.2089 184.74 85.7474 185.405 85.7474ZM192.621 84.5447C192.621 85.2089 192.083 85.7474 191.419 85.7474C190.754 85.7474 190.216 85.2089 190.216 84.5447C190.216 83.8804 190.754 83.3419 191.419 83.3419C192.083 83.3419 192.621 83.8804 192.621 84.5447ZM179.992 82.1391V91.7613C179.992 93.7541 181.608 95.3696 183.601 95.3696H190.07C190.102 95.3696 190.135 95.369 190.167 95.3677C190.183 95.369 190.199 95.3696 190.216 95.3696C190.266 95.3696 190.315 95.3635 190.361 95.352C190.892 95.2872 191.389 95.047 191.771 94.6651L196.127 90.3094C196.508 89.9275 196.749 89.4304 196.813 88.8998C196.825 88.8532 196.831 88.8045 196.831 88.7544C196.831 88.7379 196.83 88.7216 196.829 88.7055C196.83 88.6732 196.831 88.6409 196.831 88.6085V82.1391C196.831 80.1463 195.216 78.5308 193.223 78.5308H183.601C181.608 78.5308 179.992 80.1463 179.992 82.1391ZM195.628 82.1391V88.153H192.922C191.468 88.153 190.233 89.0916 189.789 90.396C189.389 90.4972 188.933 90.5585 188.414 90.5585C187.314 90.5585 186.503 90.2845 185.975 90.0206C185.709 89.8881 185.514 89.7575 185.39 89.6639C185.327 89.6172 185.283 89.5798 185.256 89.5562C185.242 89.5444 185.233 89.5362 185.229 89.5319L185.226 89.5289C184.99 89.2971 184.612 89.2981 184.378 89.5319C184.143 89.7668 184.143 90.1475 184.378 90.3824L184.379 90.3833L184.38 90.3843L184.382 90.3866L184.388 90.3925L184.406 90.4094C184.42 90.4228 184.44 90.4403 184.464 90.4614C184.512 90.5037 184.58 90.5602 184.668 90.6262C184.844 90.7582 185.1 90.9283 185.437 91.0965C186.112 91.434 187.106 91.7613 188.414 91.7613C188.848 91.7613 189.247 91.7251 189.614 91.6619V94.1669H183.601C182.272 94.1669 181.195 93.0899 181.195 91.7613V82.1391C181.195 80.8105 182.272 79.7335 183.601 79.7335H193.223C194.551 79.7335 195.628 80.8105 195.628 82.1391ZM190.92 93.8146C190.888 93.8474 190.853 93.878 190.817 93.9065V91.4606C190.817 90.2981 191.76 89.3558 192.922 89.3558H195.368C195.339 89.3917 195.309 89.4262 195.276 89.4589L190.92 93.8146Z" fill="#212121"/>
<path d="M232.312 78.5308C233.973 78.5308 235.319 79.877 235.319 81.5377V86.4687C234.938 86.274 234.536 86.115 234.117 85.9964V83.3419H219.683V92.3627C219.683 93.3591 220.491 94.1669 221.487 94.1669H225.946C226.065 94.5862 226.224 94.9886 226.418 95.3696H221.487C219.827 95.3696 218.48 94.0234 218.48 92.3627V81.5377C218.48 79.877 219.827 78.5308 221.487 78.5308H232.312ZM232.312 79.7335H221.487C220.491 79.7335 219.683 80.5413 219.683 81.5377V82.1391H234.117V81.5377C234.117 80.5413 233.309 79.7335 232.312 79.7335ZM237.725 92.3627C237.725 95.3519 235.302 97.7752 232.312 97.7752C229.323 97.7752 226.9 95.3519 226.9 92.3627C226.9 89.3735 229.323 86.9502 232.312 86.9502C235.302 86.9502 237.725 89.3735 237.725 92.3627ZM232.914 89.9572C232.914 89.625 232.645 89.3558 232.312 89.3558C231.98 89.3558 231.711 89.625 231.711 89.9572V91.7613H229.907C229.575 91.7613 229.305 92.0306 229.305 92.3627C229.305 92.6948 229.575 92.9641 229.907 92.9641H231.711V94.7683C231.711 95.1004 231.98 95.3696 232.312 95.3696C232.645 95.3696 232.914 95.1004 232.914 94.7683V92.9641H234.718C235.05 92.9641 235.319 92.6948 235.319 92.3627C235.319 92.0306 235.05 91.7613 234.718 91.7613H232.914V89.9572Z" fill="#242424"/>
</g>
<defs>
<filter id="filter0_dd_5225_19366" x="13.0459" y="13.5804" width="918.439" height="57.2524" filterUnits="userSpaceOnUse" color-interpolation-filters="sRGB">
<feFlood flood-opacity="0" result="BackgroundImageFix"/>
<feColorMatrix in="SourceAlpha" type="matrix" values="0 0 0 0 0 0 0 0 0 0 0 0 0 0 0 0 0 0 127 0" result="hardAlpha"/>
<feOffset dy="0.962222"/>
<feGaussianBlur stdDeviation="1.0825"/>
<feColorMatrix type="matrix" values="0 0 0 0 0 0 0 0 0 0 0 0 0 0 0 0 0 0 0.13 0"/>
<feBlend mode="normal" in2="BackgroundImageFix" result="effect1_dropShadow_5225_19366"/>
<feColorMatrix in="SourceAlpha" type="matrix" values="0 0 0 0 0 0 0 0 0 0 0 0 0 0 0 0 0 0 127 0" result="hardAlpha"/>
<feOffset dy="0.180417"/>
<feGaussianBlur stdDeviation="0.270625"/>
<feColorMatrix type="matrix" values="0 0 0 0 0 0 0 0 0 0 0 0 0 0 0 0 0 0 0.11 0"/>
<feBlend mode="normal" in2="effect1_dropShadow_5225_19366" result="effect2_dropShadow_5225_19366"/>
<feBlend mode="normal" in="SourceGraphic" in2="effect2_dropShadow_5225_19366" result="shape"/>
</filter>
<clipPath id="clip0_5225_19366">
<rect width="38.4889" height="38.4889" fill="white" transform="translate(890.719 67.7056)"/>
</clipPath>
<clipPath id="clip1_5225_19366">
<rect width="230.933" height="38.4889" fill="white" transform="translate(15.2109 67.7056)"/>
</clipPath>
</defs>
</svg>
