<svg width="23" height="24" viewBox="0 0 23 24" fill="none" xmlns="http://www.w3.org/2000/svg">
<path d="M20.5247 2.82618C19.9822 2.23847 19.0328 2.23847 18.4903 2.82618L17.2697 4.0016L19.8918 6.6237L21.0672 5.40307C21.6549 4.86056 21.6549 3.91118 21.0672 3.36868L20.5247 2.82618ZM8.54442 12.7721C8.31838 12.9529 8.18275 13.2242 8.13754 13.4502L7.45941 16.434L10.4432 15.7558C10.6692 15.7106 10.9405 15.575 11.1213 15.349L18.852 7.61829L16.2751 5.0414L8.54442 12.7721ZM17.4505 1.78638C18.5807 0.656167 20.4343 0.656167 21.5645 1.78638L22.107 2.32888C23.2372 3.4591 23.2372 5.31265 22.107 6.44286L12.1611 16.3888C11.7542 16.7956 11.2569 17.0669 10.7596 17.1573L6.64566 18.1067C6.41962 18.1519 6.14837 18.1067 5.96753 17.9258C5.7867 17.745 5.74149 17.4738 5.7867 17.2477L6.73608 13.1337C6.8717 12.6364 7.09775 12.1391 7.50462 11.7323L17.4505 1.78638ZM3.61669 3.63993H9.40338C9.76505 3.63993 10.1267 4.0016 10.1267 4.36327C10.1267 4.77015 9.76505 5.08661 9.40338 5.08661H3.61669C2.39605 5.08661 1.44667 6.0812 1.44667 7.25662V20.2767C1.44667 21.4973 2.39605 22.4467 3.61669 22.4467H16.6368C17.8122 22.4467 18.8068 21.4973 18.8068 20.2767V14.49C18.8068 14.1283 19.1232 13.7667 19.5301 13.7667C19.8918 13.7667 20.2534 14.1283 20.2534 14.49V20.2767C20.2534 22.3111 18.6259 23.8934 16.6368 23.8934H3.61669C1.5823 23.8934 0 22.3111 0 20.2767V7.25662C0 5.26744 1.5823 3.63993 3.61669 3.63993Z" fill="black"/>
</svg>
