<svg width="591" height="51" viewBox="0 0 591 51" fill="none" xmlns="http://www.w3.org/2000/svg">
<path d="M11.6563 17.5196C11.4542 17.8227 11.2016 18.1089 10.8985 18.3783C10.6066 18.6478 10.2699 18.8835 9.88818 19.0856C9.5065 19.2764 9.09114 19.428 8.6421 19.5402C8.20429 19.6525 7.73841 19.7086 7.24447 19.7086C6.35762 19.7086 5.53252 19.5515 4.76916 19.2371C4.01702 18.9228 3.3603 18.4906 2.79901 17.9405C2.24894 17.3792 1.81674 16.7169 1.50241 15.9535C1.18809 15.1902 1.03092 14.3539 1.03092 13.4446C1.03092 12.5353 1.18809 11.6989 1.50241 10.9356C1.81674 10.1722 2.24894 9.51548 2.79901 8.96541C3.3603 8.40411 4.01702 7.9663 4.76916 7.65197C5.53252 7.33765 6.35762 7.18048 7.24447 7.18048C7.98538 7.18048 8.7263 7.32642 9.46721 7.6183C10.2081 7.91017 10.8424 8.39288 11.37 9.06644L10.3092 9.85787C10.1857 9.66703 10.0173 9.47619 9.80398 9.28535C9.59069 9.0945 9.34372 8.92612 9.06307 8.78018C8.79365 8.63424 8.50178 8.51637 8.18745 8.42656C7.87312 8.33675 7.5588 8.29185 7.24447 8.29185C6.48111 8.29185 5.79633 8.43217 5.19013 8.71282C4.58393 8.99347 4.06754 9.36954 3.64095 9.84103C3.22559 10.3125 2.90565 10.8626 2.68113 11.4912C2.45662 12.1087 2.34436 12.7598 2.34436 13.4446C2.34436 14.1293 2.45662 14.786 2.68113 15.4147C2.90565 16.0321 3.22559 16.5766 3.64095 17.0481C4.06754 17.5196 4.58393 17.8956 5.19013 18.1763C5.79633 18.4569 6.48111 18.5973 7.24447 18.5973C7.5588 18.5973 7.86751 18.5692 8.17061 18.5131C8.48494 18.4569 8.78804 18.3615 9.07991 18.2268C9.38301 18.0921 9.66366 17.9125 9.92186 17.688C10.1913 17.4522 10.4382 17.1603 10.6628 16.8123L11.6563 17.5196ZM13.2913 6.67532H14.4027V12.7878H14.4364C14.5599 12.5745 14.717 12.3781 14.9079 12.1985C15.0987 12.0189 15.312 11.8673 15.5478 11.7438C15.7835 11.6091 16.0305 11.5081 16.2887 11.4407C16.5581 11.3621 16.8219 11.3229 17.0801 11.3229C18.0904 11.3229 18.837 11.5923 19.3197 12.1311C19.8024 12.6587 20.0437 13.4165 20.0437 14.4044V19.4055H18.9324V15.0442C18.9324 14.1686 18.7808 13.5007 18.4777 13.0404C18.1746 12.5689 17.6133 12.3332 16.7938 12.3332C16.7377 12.3332 16.5805 12.3556 16.3223 12.4005C16.0641 12.4454 15.7891 12.5689 15.4972 12.771C15.2166 12.9731 14.964 13.2762 14.7395 13.6803C14.515 14.0844 14.4027 14.6457 14.4027 15.3642V19.4055H13.2913V6.67532ZM27.1273 15.4821C26.8466 15.4821 26.493 15.4989 26.0664 15.5326C25.651 15.555 25.2469 15.6224 24.854 15.7346C24.4723 15.8357 24.1412 15.9984 23.8605 16.223C23.5911 16.4475 23.4564 16.7562 23.4564 17.1491C23.4564 17.4073 23.5069 17.6318 23.6079 17.8227C23.7202 18.0023 23.8661 18.1538 24.0457 18.2773C24.2253 18.3896 24.4218 18.4738 24.6351 18.5299C24.8596 18.5748 25.0841 18.5973 25.3087 18.5973C25.7128 18.5973 26.0608 18.5299 26.3527 18.3952C26.6558 18.2605 26.9083 18.0809 27.1104 17.8563C27.3125 17.6206 27.4584 17.3512 27.5482 17.0481C27.6493 16.7337 27.6998 16.4026 27.6998 16.0546V15.4821H27.1273ZM27.6998 14.5728V14.3707C27.6998 13.0124 27.0262 12.3332 25.6791 12.3332C24.7586 12.3332 23.9559 12.6419 23.2711 13.2593L22.5976 12.4679C23.3385 11.7045 24.4499 11.3229 25.9317 11.3229C26.3134 11.3229 26.6782 11.379 27.0262 11.4912C27.3854 11.6035 27.6942 11.7775 27.9524 12.0132C28.2106 12.2378 28.4182 12.524 28.5754 12.872C28.7326 13.22 28.8111 13.6354 28.8111 14.1181V17.6374C28.8111 17.9405 28.8224 18.2605 28.8448 18.5973C28.8785 18.9228 28.9122 19.1922 28.9459 19.4055H27.8682C27.8345 19.2147 27.8064 19.007 27.784 18.7825C27.7727 18.558 27.7671 18.3391 27.7671 18.1258H27.7335C27.4079 18.6534 27.0206 19.0351 26.5716 19.2708C26.1338 19.4953 25.5949 19.6076 24.955 19.6076C24.607 19.6076 24.2703 19.5571 23.9447 19.456C23.6191 19.3662 23.3273 19.2259 23.0691 19.0351C22.8221 18.833 22.62 18.5916 22.4629 18.311C22.3169 18.0191 22.244 17.6823 22.244 17.3007C22.244 16.6608 22.4067 16.1612 22.7323 15.802C23.0691 15.4315 23.4844 15.1565 23.9784 14.9769C24.4835 14.7973 25.0168 14.685 25.5781 14.6401C26.1506 14.5952 26.6726 14.5728 27.1441 14.5728H27.6998ZM35.455 12.5353H33.1818V17.1828C33.1818 17.4747 33.2098 17.716 33.2659 17.9069C33.3221 18.0865 33.4007 18.2268 33.5017 18.3278C33.6027 18.4289 33.7206 18.5018 33.8553 18.5467C34.0012 18.5804 34.1584 18.5973 34.3268 18.5973C34.5176 18.5973 34.7141 18.5692 34.9162 18.5131C35.1182 18.4569 35.3035 18.384 35.4718 18.2942L35.5224 19.3213C35.107 19.5122 34.6074 19.6076 34.0237 19.6076C33.8104 19.6076 33.5859 19.5795 33.3501 19.5234C33.1256 19.4673 32.9179 19.3606 32.7271 19.2035C32.5363 19.0463 32.3791 18.833 32.2556 18.5636C32.1321 18.2942 32.0704 17.9405 32.0704 17.5027V12.5353H30.4033V11.5249H32.0704V9.30218H33.1818V11.5249H35.455V12.5353Z" fill="#5B5FC7"/>
<path d="M0.222656 46.9084C0.222656 45.5798 1.29966 44.5028 2.62821 44.5028H33.8171C35.1457 44.5028 36.2227 45.5798 36.2227 46.9084V46.9084H0.222656V46.9084Z" fill="#5B5FC7"/>
<path d="M58.6513 15.1621H63.8208L61.2445 8.89805L58.6513 15.1621ZM56.8832 19.4055H55.4688L60.6551 7.48358H61.8339L67.0202 19.4055H65.6058L64.2923 16.2735H58.1966L56.8832 19.4055ZM75.4152 15.4652C75.4152 15.0274 75.3422 14.6177 75.1963 14.236C75.0616 13.8543 74.8651 13.5231 74.6069 13.2425C74.3487 12.9618 74.0344 12.7429 73.664 12.5858C73.3047 12.4174 72.895 12.3332 72.4347 12.3332C71.9745 12.3332 71.5535 12.4174 71.1718 12.5858C70.7901 12.7429 70.459 12.9618 70.1783 13.2425C69.8977 13.5231 69.6788 13.8543 69.5216 14.236C69.3644 14.6177 69.2858 15.0274 69.2858 15.4652C69.2858 15.903 69.3644 16.3128 69.5216 16.6945C69.6788 17.0761 69.8977 17.4073 70.1783 17.688C70.459 17.9686 70.7901 18.1931 71.1718 18.3615C71.5535 18.5187 71.9745 18.5973 72.4347 18.5973C72.895 18.5973 73.3047 18.5187 73.664 18.3615C74.0344 18.1931 74.3487 17.9686 74.6069 17.688C74.8651 17.4073 75.0616 17.0761 75.1963 16.6945C75.3422 16.3128 75.4152 15.903 75.4152 15.4652ZM68.225 6.67532H69.3364V12.8384H69.37C69.5497 12.5689 69.7629 12.3388 70.0099 12.148C70.2569 11.9571 70.5151 11.8 70.7845 11.6765C71.0539 11.553 71.329 11.4632 71.6096 11.407C71.9015 11.3509 72.1765 11.3229 72.4347 11.3229C73.0521 11.3229 73.6134 11.4295 74.1186 11.6428C74.635 11.8449 75.0784 12.1311 75.4489 12.5016C75.8193 12.872 76.1056 13.3098 76.3077 13.815C76.521 14.3202 76.6276 14.8702 76.6276 15.4652C76.6276 16.0602 76.521 16.6103 76.3077 17.1154C76.1056 17.6206 75.8193 18.0584 75.4489 18.4289C75.0784 18.7993 74.635 19.0912 74.1186 19.3045C73.6134 19.5066 73.0521 19.6076 72.4347 19.6076C72.1765 19.6076 71.9015 19.5795 71.6096 19.5234C71.329 19.4673 71.0539 19.3775 70.7845 19.254C70.5151 19.1305 70.2569 18.9733 70.0099 18.7825C69.7629 18.5916 69.5497 18.3615 69.37 18.0921H69.3364V19.4055H68.225V6.67532ZM85.2715 15.4652C85.2715 15.0274 85.1985 14.6177 85.0526 14.236C84.9179 13.8543 84.7214 13.5231 84.4632 13.2425C84.205 12.9618 83.8907 12.7429 83.5202 12.5858C83.161 12.4174 82.7513 12.3332 82.291 12.3332C81.8307 12.3332 81.4154 12.4174 81.0449 12.5858C80.6857 12.7429 80.377 12.9618 80.1188 13.2425C79.8718 13.5231 79.6754 13.8543 79.5294 14.236C79.3947 14.6177 79.3273 15.0274 79.3273 15.4652C79.3273 15.903 79.3947 16.3128 79.5294 16.6945C79.6754 17.0761 79.8718 17.4073 80.1188 17.688C80.377 17.9686 80.6857 18.1931 81.0449 18.3615C81.4154 18.5187 81.8307 18.5973 82.291 18.5973C82.7513 18.5973 83.161 18.5187 83.5202 18.3615C83.8907 18.1931 84.205 17.9686 84.4632 17.688C84.7214 17.4073 84.9179 17.0761 85.0526 16.6945C85.1985 16.3128 85.2715 15.903 85.2715 15.4652ZM86.4839 15.4652C86.4839 16.0602 86.3772 16.6103 86.1639 17.1154C85.9619 17.6206 85.6756 18.0584 85.3052 18.4289C84.9347 18.7993 84.4913 19.0912 83.9749 19.3045C83.4697 19.5066 82.9084 19.6076 82.291 19.6076C81.6848 19.6076 81.1235 19.5066 80.6071 19.3045C80.1019 19.0912 79.6641 18.7993 79.2937 18.4289C78.9232 18.0584 78.6313 17.6206 78.418 17.1154C78.216 16.6103 78.1149 16.0602 78.1149 15.4652C78.1149 14.8702 78.216 14.3202 78.418 13.815C78.6313 13.3098 78.9232 12.872 79.2937 12.5016C79.6641 12.1311 80.1019 11.8449 80.6071 11.6428C81.1235 11.4295 81.6848 11.3229 82.291 11.3229C82.9084 11.3229 83.4697 11.4295 83.9749 11.6428C84.4913 11.8449 84.9347 12.1311 85.3052 12.5016C85.6756 12.872 85.9619 13.3098 86.1639 13.815C86.3772 14.3202 86.4839 14.8702 86.4839 15.4652ZM94.1923 19.4055C94.1698 19.1922 94.153 18.9845 94.1418 18.7825C94.1418 18.5692 94.1418 18.3559 94.1418 18.1426H94.1081C93.9846 18.3559 93.8274 18.5523 93.6366 18.732C93.4457 18.9116 93.2325 19.0687 92.9967 19.2035C92.761 19.3269 92.5084 19.4224 92.239 19.4897C91.9808 19.5683 91.7226 19.6076 91.4644 19.6076C90.454 19.6076 89.7075 19.3438 89.2248 18.8162C88.7421 18.2773 88.5007 17.5139 88.5007 16.5261V11.5249H89.6121V15.8862C89.6121 16.324 89.6458 16.7113 89.7131 17.0481C89.7805 17.3849 89.8927 17.6711 90.0499 17.9069C90.2183 18.1314 90.4372 18.3054 90.7066 18.4289C90.9873 18.5411 91.3353 18.5973 91.7506 18.5973C91.8068 18.5973 91.9639 18.5748 92.2221 18.5299C92.4803 18.485 92.7497 18.3615 93.0304 18.1594C93.3223 17.9574 93.5805 17.6543 93.805 17.2501C94.0295 16.846 94.1418 16.2847 94.1418 15.5663V11.5249H95.2531V17.6711C95.2531 17.8844 95.2587 18.1538 95.27 18.4794C95.2924 18.8049 95.3149 19.1136 95.3373 19.4055H94.1923ZM101.933 12.5353H99.6593V17.1828C99.6593 17.4747 99.6873 17.716 99.7434 17.9069C99.7996 18.0865 99.8782 18.2268 99.9792 18.3278C100.08 18.4289 100.198 18.5018 100.333 18.5467C100.479 18.5804 100.636 18.5973 100.804 18.5973C100.995 18.5973 101.192 18.5692 101.394 18.5131C101.596 18.4569 101.781 18.384 101.949 18.2942L102 19.3213C101.584 19.5122 101.085 19.6076 100.501 19.6076C100.288 19.6076 100.063 19.5795 99.8276 19.5234C99.6031 19.4673 99.3954 19.3606 99.2046 19.2035C99.0138 19.0463 98.8566 18.833 98.7331 18.5636C98.6096 18.2942 98.5479 17.9405 98.5479 17.5027V12.5353H96.8808V11.5249H98.5479V9.30218H99.6593V11.5249H101.933V12.5353Z" fill="#616161"/>
<g clip-path="url(#clip0_5231_12183)">
<path d="M371.474 20.4472C371.141 20.4472 370.872 20.7165 370.872 21.0486C370.872 21.3807 371.141 21.65 371.474 21.65H374.814L369.827 26.6372C369.592 26.8721 369.592 27.2529 369.827 27.4877C370.062 27.7226 370.442 27.7226 370.677 27.4877L375.664 22.5005V25.8409C375.664 26.173 375.934 26.4423 376.266 26.4423C376.598 26.4423 376.867 26.173 376.867 25.8409V21.0486C376.867 20.7165 376.598 20.4472 376.266 20.4472H371.474ZM375.383 33.6778C376.884 33.6778 378.128 32.5778 378.353 31.14C379.582 30.7623 380.476 29.6181 380.476 28.2653V19.8458C380.476 18.1851 379.129 16.8389 377.469 16.8389H369.049C367.682 16.8389 366.528 17.7515 366.163 19.0008C364.731 19.231 363.637 20.4725 363.637 21.9695V29.468C363.637 31.793 365.521 33.6778 367.846 33.6778H375.383ZM364.839 21.9695C364.839 21.1839 365.342 20.5156 366.042 20.268V28.2653C366.042 29.9259 367.389 31.2722 369.049 31.2722H377.084C376.836 31.9729 376.168 32.475 375.383 32.475H367.846C366.186 32.475 364.839 31.1287 364.839 29.468V21.9695ZM369.049 18.0416H377.469C378.465 18.0416 379.273 18.8494 379.273 19.8458V28.2653C379.273 29.2617 378.465 30.0694 377.469 30.0694H369.049C368.053 30.0694 367.245 29.2617 367.245 28.2653V19.8458C367.245 18.8494 368.053 18.0416 369.049 18.0416Z" fill="#616161"/>
</g>
<g clip-path="url(#clip1_5231_12183)">
<path d="M411.743 25.2583C411.867 25.2583 411.99 25.2678 412.109 25.286C411.64 25.6216 411.216 26.017 410.849 26.4611H403.324C402.659 26.4611 402.121 26.9996 402.121 27.6639V29.4681C402.121 31.1605 404.019 32.475 407.533 32.475C408.276 32.475 408.946 32.4163 409.542 32.3078C409.642 32.7031 409.778 33.0842 409.947 33.4474C409.222 33.5977 408.414 33.6778 407.533 33.6778C403.429 33.6778 400.918 31.9391 400.918 29.4681V27.6639C400.918 26.3353 401.995 25.2583 403.324 25.2583H411.743ZM418.96 21.0486C418.96 22.7093 417.613 24.0556 415.953 24.0556C414.292 24.0556 412.946 22.7093 412.946 21.0486C412.946 19.3879 414.292 18.0417 415.953 18.0417C417.613 18.0417 418.96 19.3879 418.96 21.0486ZM415.953 19.2444C414.956 19.2444 414.149 20.0522 414.149 21.0486C414.149 22.045 414.956 22.8528 415.953 22.8528C416.949 22.8528 417.757 22.045 417.757 21.0486C417.757 20.0522 416.949 19.2444 415.953 19.2444ZM407.533 15.6361C409.858 15.6361 411.743 17.5209 411.743 19.8458C411.743 22.1708 409.858 24.0556 407.533 24.0556C405.208 24.0556 403.324 22.1708 403.324 19.8458C403.324 17.5209 405.208 15.6361 407.533 15.6361ZM407.533 16.8389C405.873 16.8389 404.526 18.1851 404.526 19.8458C404.526 21.5065 405.873 22.8528 407.533 22.8528C409.194 22.8528 410.54 21.5065 410.54 19.8458C410.54 18.1851 409.194 16.8389 407.533 16.8389ZM421.365 30.6708C421.365 33.6601 418.942 36.0833 415.953 36.0833C412.963 36.0833 410.54 33.6601 410.54 30.6708C410.54 27.6816 412.963 25.2583 415.953 25.2583C418.942 25.2583 421.365 27.6816 421.365 30.6708ZM416.554 28.2653C416.554 27.9331 416.285 27.6639 415.953 27.6639C415.621 27.6639 415.351 27.9331 415.351 28.2653V30.0694H413.547C413.215 30.0694 412.946 30.3387 412.946 30.6708C412.946 31.003 413.215 31.2722 413.547 31.2722H415.351V33.0764C415.351 33.4085 415.621 33.6778 415.953 33.6778C416.285 33.6778 416.554 33.4085 416.554 33.0764V31.2722H418.358C418.69 31.2722 418.96 31.003 418.96 30.6708C418.96 30.3387 418.69 30.0694 418.358 30.0694H416.554V28.2653Z" fill="#616161"/>
</g>
<g clip-path="url(#clip2_5231_12183)">
<g clip-path="url(#clip3_5231_12183)">
<path d="M439.414 10.825C439.414 8.16792 441.568 6.01392 444.225 6.01392H552.475V44.5028H444.225C441.568 44.5028 439.414 42.3488 439.414 39.6917V10.825Z" fill="white"/>
<path d="M460.72 21.9603C460.49 20.4492 461.557 19.0887 463.187 18.5901C463.788 18.4065 464.427 18.7216 464.648 19.3096L465.17 20.7048C465.342 21.164 465.218 21.6816 464.857 22.0131L463.302 23.4391C463.147 23.5819 463.078 23.7969 463.12 24.0038L463.134 24.0667C463.142 24.1042 463.155 24.1573 463.172 24.2236C463.206 24.3563 463.258 24.5428 463.331 24.7649C463.475 25.2066 463.705 25.8008 464.048 26.3945C464.391 26.9883 464.79 27.4849 465.101 27.8309C465.257 28.0048 465.392 28.143 465.49 28.2388C465.539 28.2868 465.579 28.3243 465.607 28.3505L465.655 28.3945C465.813 28.5347 466.033 28.5817 466.235 28.5182L468.247 27.8849C468.715 27.7377 469.225 27.8891 469.537 28.2677L470.489 29.4241C470.885 29.9054 470.838 30.6119 470.382 31.037C469.135 32.2001 467.42 32.4383 466.226 31.479C465.075 30.5542 463.721 29.1799 462.589 27.2347C461.455 25.2851 460.941 23.4217 460.72 21.9603ZM464.38 24.0829L465.67 22.8995C466.393 22.2365 466.641 21.2012 466.297 20.2828L465.774 18.8876C465.331 17.7045 464.044 17.0704 462.835 17.4399C460.812 18.0588 459.187 19.8736 459.531 22.1406C459.771 23.7238 460.326 25.7368 461.549 27.8395C462.768 29.9338 464.228 31.4164 465.473 32.4166C467.262 33.8541 469.651 33.3632 471.203 31.9168C472.123 31.0583 472.217 29.6316 471.417 28.6596L470.465 27.5033C469.842 26.7461 468.821 26.4432 467.886 26.7376L466.216 27.2632C466.152 27.1972 466.077 27.1183 465.996 27.0278C465.722 26.7219 465.379 26.2931 465.09 25.7931C464.801 25.2932 464.602 24.7815 464.474 24.391C464.436 24.2754 464.405 24.1715 464.38 24.0829Z" fill="#212121"/>
<path d="M552.477 6.01392H586.154C588.811 6.01392 590.965 8.16792 590.965 10.825V39.6917C590.965 42.3488 588.811 44.5028 586.154 44.5028H552.477V6.01392Z" fill="white"/>
<mask id="mask0_5231_12183" style="mask-type:luminance" maskUnits="userSpaceOnUse" x="559" y="13" width="25" height="25">
<path d="M578.761 22.4269C578.997 22.6613 578.997 23.0421 578.763 23.2773L572.19 29.874C571.931 30.1334 571.511 30.1334 571.252 29.874L564.679 23.2773C564.445 23.0421 564.446 22.6613 564.681 22.4269C564.916 22.1924 565.297 22.1931 565.531 22.4284L571.721 28.6402L577.911 22.4284C578.145 22.1931 578.526 22.1924 578.761 22.4269Z" fill="white"/>
</mask>
<g mask="url(#mask0_5231_12183)">
<rect x="559.691" y="13.2306" width="24.0556" height="24.0556" fill="#242424"/>
</g>
<rect x="552.477" y="6.01392" width="1.6037" height="38.4889" fill="#D1D1D1"/>
</g>
</g>
<rect x="440.015" y="6.6153" width="150.347" height="37.2861" rx="4.20972" stroke="#D1D1D1" stroke-width="1.20278"/>
<defs>
<clipPath id="clip0_5231_12183">
<rect width="38.4889" height="38.4889" fill="white" transform="translate(352.812 6.01392)"/>
</clipPath>
<clipPath id="clip1_5231_12183">
<rect width="38.4889" height="38.4889" fill="white" transform="translate(391.301 6.01392)"/>
</clipPath>
<clipPath id="clip2_5231_12183">
<rect x="439.414" y="6.01392" width="151.55" height="38.4889" rx="4.81111" fill="white"/>
</clipPath>
<clipPath id="clip3_5231_12183">
<rect width="151.55" height="38.4889" fill="white" transform="translate(439.414 6.01392)"/>
</clipPath>
</defs>
</svg>
