<svg width="69" height="17" viewBox="0 0 69 17" fill="none" xmlns="http://www.w3.org/2000/svg">
<path d="M0.592 9.948C0.592 9.25467 0.741333 8.64133 1.04 8.108C1.33867 7.564 1.76 7.148 2.304 6.86C2.85867 6.56133 3.49867 6.412 4.224 6.412H7.376V10.412C7.376 10.956 7.50933 11.3613 7.776 11.628C8.04267 11.884 8.48 12.012 9.088 12.012H9.344V13.5H8.96C7.86133 13.5 7.024 13.1907 6.448 12.572C6.11733 12.924 5.75467 13.1693 5.36 13.308C4.96533 13.436 4.52267 13.5 4.032 13.5C3.36 13.5 2.76267 13.3507 2.24 13.052C1.71733 12.7533 1.312 12.3373 1.024 11.804C0.736 11.26 0.592 10.6413 0.592 9.948ZM4.08 12.012C4.432 12.012 4.752 11.964 5.04 11.868C5.328 11.772 5.58933 11.5853 5.824 11.308C5.76 11.0307 5.728 10.7267 5.728 10.396V7.9H4.256C3.616 7.9 3.12 8.08133 2.768 8.444C2.42667 8.796 2.256 9.29733 2.256 9.948C2.256 10.5987 2.416 11.1053 2.736 11.468C3.056 11.8307 3.504 12.012 4.08 12.012ZM4.496 3.836C4.496 3.58 4.58667 3.36133 4.768 3.18C4.94933 2.99867 5.168 2.908 5.424 2.908C5.69067 2.908 5.90933 2.99867 6.08 3.18C6.26133 3.36133 6.352 3.58 6.352 3.836C6.352 4.10267 6.26133 4.32667 6.08 4.508C5.90933 4.68933 5.69067 4.78 5.424 4.78C5.168 4.78 4.94933 4.68933 4.768 4.508C4.58667 4.32667 4.496 4.10267 4.496 3.836ZM3.008 2.908C3.264 2.908 3.48267 2.99867 3.664 3.18C3.84533 3.36133 3.936 3.58 3.936 3.836C3.936 4.10267 3.84533 4.32667 3.664 4.508C3.48267 4.68933 3.264 4.78 3.008 4.78C2.74133 4.78 2.51733 4.68933 2.336 4.508C2.16533 4.32667 2.08 4.10267 2.08 3.836C2.08 3.58 2.16533 3.36133 2.336 3.18C2.51733 2.99867 2.74133 2.908 3.008 2.908ZM11.2318 10.604V8.012H12.8958V10.636C12.8958 11.0733 13.0078 11.4147 13.2318 11.66C13.4558 11.8947 13.8291 12.012 14.3518 12.012H14.8478V13.5H14.1918C13.2851 13.5 12.6398 13.2013 12.2558 12.604C11.8078 13.2013 11.0824 13.5 10.0798 13.5H9.32775C9.12508 13.5 8.98642 13.4467 8.91175 13.34C8.82642 13.2227 8.78375 13.0413 8.78375 12.796C8.78375 12.54 8.82642 12.348 8.91175 12.22C8.98642 12.0813 9.13042 12.012 9.34375 12.012H9.80775C10.3198 12.012 10.6824 11.9053 10.8958 11.692C11.1198 11.4787 11.2318 11.116 11.2318 10.604ZM12.3838 15.708C12.3838 15.452 12.4744 15.2333 12.6558 15.052C12.8371 14.8707 13.0558 14.78 13.3118 14.78C13.5784 14.78 13.7971 14.8707 13.9678 15.052C14.1491 15.2333 14.2398 15.452 14.2398 15.708C14.2398 15.9747 14.1491 16.1987 13.9678 16.38C13.7971 16.5613 13.5784 16.652 13.3118 16.652C13.0558 16.652 12.8371 16.5613 12.6558 16.38C12.4744 16.1987 12.3838 15.9747 12.3838 15.708ZM10.8958 14.78C11.1518 14.78 11.3704 14.8707 11.5518 15.052C11.7331 15.2333 11.8238 15.452 11.8238 15.708C11.8238 15.9747 11.7331 16.1987 11.5518 16.38C11.3704 16.5613 11.1518 16.652 10.8958 16.652C10.6291 16.652 10.4051 16.5613 10.2238 16.38C10.0531 16.1987 9.96775 15.9747 9.96775 15.708C9.96775 15.452 10.0531 15.2333 10.2238 15.052C10.4051 14.8707 10.6291 14.78 10.8958 14.78ZM16.5718 12.012V7.052H18.2358V13.5H14.8277C14.6251 13.5 14.4864 13.4467 14.4117 13.34C14.3264 13.2227 14.2837 13.0413 14.2837 12.796C14.2837 12.54 14.3264 12.348 14.4117 12.22C14.4864 12.0813 14.6304 12.012 14.8438 12.012H16.5718ZM16.0278 15.708C16.0278 15.452 16.1184 15.2333 16.2998 15.052C16.4811 14.8707 16.7051 14.78 16.9718 14.78C17.2278 14.78 17.4464 14.8707 17.6278 15.052C17.8091 15.2333 17.8998 15.452 17.8998 15.708C17.8998 15.9747 17.8091 16.1987 17.6278 16.38C17.4464 16.5613 17.2278 16.652 16.9718 16.652C16.7051 16.652 16.4811 16.5613 16.2998 16.38C16.1184 16.1987 16.0278 15.9747 16.0278 15.708ZM21.759 12.988V8.012H23.423V12.012H25.215V13.5H23.407C23.3537 14.5667 23.0337 15.3613 22.447 15.884C21.871 16.4173 21.0603 16.6627 20.015 16.62L19.807 15.084C20.5323 15.116 21.039 14.9773 21.327 14.668C21.615 14.3587 21.759 13.7987 21.759 12.988ZM24.6587 12.796C24.6587 12.54 24.7014 12.348 24.7867 12.22C24.8614 12.0813 25.0054 12.012 25.2188 12.012H28.8988C27.9281 9.87867 27.0481 8.80133 26.2588 8.78L26.5468 7.116C26.7281 7.084 27.0481 7.00933 27.5068 6.892C28.1574 6.732 28.7014 6.61467 29.1388 6.54C29.5868 6.45467 30.0828 6.412 30.6268 6.412C31.6508 6.412 32.4294 6.62533 32.9628 7.052C33.4961 7.468 33.7628 8.04933 33.7628 8.796C33.7628 9.28667 33.6241 9.83067 33.3468 10.428C33.0694 11.0147 32.7068 11.5427 32.2588 12.012H34.8348V13.5H25.2027C25.0001 13.5 24.8614 13.4467 24.7867 13.34C24.7014 13.2227 24.6587 13.0413 24.6587 12.796ZM30.5148 11.98C30.9628 11.5427 31.3361 11.0573 31.6348 10.524C31.9334 9.99067 32.0828 9.532 32.0828 9.148C32.0828 8.74267 31.9281 8.43333 31.6188 8.22C31.3094 8.00667 30.8614 7.9 30.2748 7.9C29.5601 7.9 28.8348 8.012 28.0988 8.236C28.9414 8.99333 29.7468 10.2413 30.5148 11.98ZM34.2681 12.796C34.2681 12.54 34.3108 12.348 34.3961 12.22C34.4708 12.0813 34.6148 12.012 34.8281 12.012H36.5401V2.252H38.1881V13.5H34.8121C34.6095 13.5 34.4708 13.4467 34.3961 13.34C34.3108 13.2227 34.2681 13.0413 34.2681 12.796ZM40.4958 2.252H42.1438V13.5H40.4958V2.252Z" fill="#202020"/>
<path d="M60 15C60.5 15 61.25 14.5625 61.9062 13.2188C62.2188 12.5938 62.5 11.8438 62.6875 11H57.3125C57.4688 11.8438 57.75 12.5938 58.0625 13.2188C58.7188 14.5625 59.4688 15 60 15ZM57.125 10H62.8438C62.9375 9.375 63 8.71875 63 8C63 7.3125 62.9375 6.65625 62.8438 6H57.125C57.0312 6.65625 57 7.3125 57 8C57 8.71875 57.0312 9.375 57.125 10ZM57.3125 5H62.6875C62.5 4.15625 62.2188 3.4375 61.9062 2.8125C61.25 1.46875 60.5 1 60 1C59.4688 1 58.7188 1.46875 58.0625 2.8125C57.75 3.4375 57.4688 4.15625 57.3125 5ZM63.875 6C63.9375 6.65625 64 7.3125 64 8C64 8.71875 63.9375 9.375 63.875 10H66.6875C66.875 9.375 67 8.71875 67 8C67 7.3125 66.875 6.65625 66.6875 6H63.875ZM66.3125 5C65.5 3.3125 64.0312 2 62.2188 1.375C62.875 2.25 63.4062 3.53125 63.6875 5H66.3125ZM56.2812 5C56.5938 3.53125 57.0938 2.25 57.75 1.375C55.9375 2 54.4688 3.3125 53.6562 5H56.2812ZM53.2812 6C53.0938 6.65625 53 7.3125 53 8C53 8.71875 53.0938 9.375 53.2812 10H56.125C56.0312 9.375 56 8.71875 56 8C56 7.3125 56.0312 6.65625 56.125 6H53.2812ZM62.2188 14.6562C64.0312 14.0312 65.5 12.7188 66.3125 11H63.6875C63.4062 12.5 62.875 13.75 62.2188 14.6562ZM57.75 14.6562C57.0938 13.75 56.5938 12.5 56.2812 11H53.6562C54.4688 12.7188 55.9375 14.0312 57.75 14.6562ZM60 16C57.125 16 54.5 14.5 53.0625 12C51.625 9.53125 51.625 6.5 53.0625 4C54.5 1.53125 57.125 0 60 0C62.8438 0 65.4688 1.53125 66.9062 4C68.3438 6.5 68.3438 9.53125 66.9062 12C65.4688 14.5 62.8438 16 60 16Z" fill="#D0D4E4"/>
</svg>
