<svg width="16" height="16" viewBox="0 0 16 16" fill="none" xmlns="http://www.w3.org/2000/svg">
<path d="M11.4688 12.9062L9.65625 11.0938C9.15625 11.375 8.59375 11.5 8 11.5C7.375 11.5 6.8125 11.375 6.3125 11.0938L4.5 12.9062C5.5 13.5938 6.6875 14 8 14C9.28125 14 10.4688 13.5938 11.4688 12.9062ZM14.2812 12.9375H14.3125C14.5938 13.3125 14.5312 13.875 14.1875 14.2188C13.8438 14.5625 13.2812 14.5938 12.9062 14.3125C11.5312 15.375 9.84375 16 8 16C6.125 16 4.4375 15.375 3.0625 14.3125C2.6875 14.5938 2.125 14.5625 1.78125 14.2188C1.4375 13.875 1.40625 13.3125 1.6875 12.9375C0.625 11.5625 0 9.875 0 8C0 6.15625 0.625 4.46875 1.6875 3.09375C1.40625 2.71875 1.4375 2.15625 1.78125 1.8125C2.125 1.46875 2.6875 1.40625 3.0625 1.6875C4.4375 0.65625 6.125 0 8 0C9.84375 0 11.5312 0.65625 12.9062 1.6875C13.2812 1.40625 13.8438 1.46875 14.1875 1.8125C14.5312 2.15625 14.5625 2.71875 14.2812 3.09375C15.3438 4.46875 15.9688 6.15625 15.9688 8C15.9688 9.875 15.3438 11.5625 14.2812 12.9375ZM12.875 11.5C13.5625 10.5 14 9.3125 14 8C14 6.71875 13.5625 5.53125 12.875 4.53125L11.0625 6.34375C11.3438 6.84375 11.4688 7.40625 11.4688 8C11.4688 8.625 11.3438 9.1875 11.0625 9.6875L12.875 11.5ZM11.4688 3.125C10.4688 2.4375 9.28125 2 8 2C6.6875 2 5.5 2.4375 4.5 3.125L6.3125 4.9375C6.8125 4.65625 7.375 4.5 7.96875 4.5C8.59375 4.5 9.15625 4.65625 9.65625 4.9375L11.4688 3.125ZM4.90625 9.6875C4.625 9.1875 4.5 8.625 4.5 8.03125C4.5 7.40625 4.625 6.84375 4.90625 6.34375L3.09375 4.53125C2.40625 5.53125 2 6.71875 2 8C2 9.3125 2.40625 10.5 3.09375 11.5L4.90625 9.6875ZM6.5 8C6.5 8.5625 6.78125 9.03125 7.25 9.3125C7.6875 9.59375 8.28125 9.59375 8.75 9.3125C9.1875 9.03125 9.5 8.5625 9.5 8C9.5 7.46875 9.1875 7 8.75 6.71875C8.28125 6.4375 7.6875 6.4375 7.25 6.71875C6.78125 7 6.5 7.46875 6.5 8Z" fill="#777FA1"/>
</svg>
