<svg width="16" height="16" viewBox="0 0 16 16" fill="none" xmlns="http://www.w3.org/2000/svg">
<path d="M12.5625 13.3125L9.71875 10.4688C9.21875 10.8125 8.625 11 8 11C7.34375 11 6.75 10.8125 6.25 10.4688L3.40625 13.3125C4.625 14.375 6.21875 15 8 15C9.75 15 11.3438 14.375 12.5625 13.3125ZM13.2812 12.5938C14.3438 11.375 15 9.78125 15 8C15 6.25 14.3438 4.65625 13.2812 3.4375L10.4375 6.28125C10.7812 6.78125 11 7.375 11 8C11 8.65625 10.7812 9.25 10.4375 9.75L13.2812 12.5938ZM14 13.3125L14.3438 13.6562C14.5312 13.8438 14.5312 14.1875 14.3438 14.375C14.1562 14.5625 13.8125 14.5625 13.625 14.375L13.2812 14C11.875 15.25 10.0312 16 8 16C5.96875 16 4.09375 15.25 2.6875 14L2.34375 14.375C2.15625 14.5625 1.8125 14.5625 1.625 14.375C1.4375 14.1875 1.4375 13.8438 1.625 13.6562L2 13.3125C0.75 11.9062 0 10.0312 0 8C0 6 0.75 4.125 2 2.71875L1.625 2.375C1.4375 2.1875 1.4375 1.84375 1.625 1.65625C1.8125 1.46875 2.15625 1.46875 2.34375 1.65625L2.6875 2C4.09375 0.78125 5.96875 0 8 0C10 0 11.875 0.78125 13.2812 2L13.625 1.65625C13.8125 1.46875 14.1562 1.46875 14.3438 1.65625C14.5312 1.84375 14.5312 2.1875 14.3438 2.375L14 2.71875C15.2188 4.125 16 5.96875 16 8C16 10.0312 15.2188 11.9062 14 13.3125ZM12.5625 2.71875C11.3438 1.65625 9.75 1 8 1C6.21875 1 4.625 1.65625 3.40625 2.71875L6.25 5.5625C6.75 5.21875 7.34375 5 8 5C8.625 5 9.21875 5.21875 9.71875 5.5625L12.5625 2.71875ZM5.53125 9.75C5.1875 9.25 5 8.65625 5 8C5 7.375 5.1875 6.78125 5.53125 6.28125L2.6875 3.4375C1.625 4.65625 1 6.25 1 8C1 9.78125 1.625 11.375 2.6875 12.5938L5.53125 9.75ZM6 8C6 8.71875 6.375 9.375 7 9.75C7.59375 10.0938 8.375 10.0938 9 9.75C9.59375 9.375 10 8.71875 10 8C10 7.3125 9.59375 6.65625 9 6.28125C8.375 5.9375 7.59375 5.9375 7 6.28125C6.375 6.65625 6 7.3125 6 8Z" fill="#777FA1"/>
</svg>
