<svg width="54" height="54" viewBox="0 0 54 54" fill="none" xmlns="http://www.w3.org/2000/svg">
<path d="M0 12C0 5.37258 5.37258 0 12 0H42C48.6274 0 54 5.37258 54 12V42C54 48.6274 48.6274 54 42 54H12C5.37258 54 0 48.6274 0 42V12Z" fill="#FF942C"/>
<path d="M18.75 15.75H35.25C36.7539 15.75 38 16.9961 38 18.5V30.875C38 32.4219 36.7539 33.625 35.25 33.625H29.2773L23.9492 37.6211C23.7344 37.793 23.4766 37.793 23.2188 37.707C23.0039 37.5781 22.875 37.3633 22.875 37.0625V33.625H18.75C17.2031 33.625 16 32.4219 16 30.875V18.5C16 16.9961 17.2031 15.75 18.75 15.75Z" fill="white"/>
</svg>
