<svg width="16" height="17" viewBox="0 0 16 17" fill="none" xmlns="http://www.w3.org/2000/svg">
<path d="M6 13V14.5L9.0625 12.2188C9.21875 12.0938 9.4375 12 9.65625 12H14C14.5312 12 15 11.5625 15 11V2C15 1.46875 14.5312 1 14 1H2C1.4375 1 1 1.46875 1 2V11C1 11.5625 1.4375 12 2 12H5C5.53125 12 6 12.4688 6 13ZM2 0H14C15.0938 0 16 0.90625 16 2V11C16 12.125 15.0938 13 14 13H9.65625L5.78125 15.9062C5.625 16.0312 5.4375 16.0312 5.25 15.9688C5.09375 15.875 5 15.7188 5 15.5V14V13H4H2C0.875 13 0 12.125 0 11V2C0 0.90625 0.875 0 2 0ZM4 7.25C3.5625 7.25 3.25 6.9375 3.25 6.5C3.25 6.09375 3.5625 5.75 4 5.75C4.40625 5.75 4.75 6.09375 4.75 6.5C4.75 6.9375 4.40625 7.25 4 7.25ZM8 7.25C7.5625 7.25 7.25 6.9375 7.25 6.5C7.25 6.09375 7.5625 5.75 8 5.75C8.40625 5.75 8.75 6.09375 8.75 6.5C8.75 6.9375 8.40625 7.25 8 7.25ZM12.75 6.5C12.75 6.9375 12.4062 7.25 12 7.25C11.5625 7.25 11.25 6.9375 11.25 6.5C11.25 6.09375 11.5625 5.75 12 5.75C12.4062 5.75 12.75 6.09375 12.75 6.5Z" fill="#777FA1"/>
</svg>
