<svg width="16" height="15" viewBox="0 0 16 15" fill="none" xmlns="http://www.w3.org/2000/svg">
<path d="M2 3C2 3.71875 2.375 4.375 3 4.75C3.59375 5.09375 4.375 5.09375 5 4.75C5.59375 4.375 6 3.71875 6 3C6 2.3125 5.59375 1.65625 5 1.28125C4.375 0.9375 3.59375 0.9375 3 1.28125C2.375 1.65625 2 2.3125 2 3ZM4 6C2.90625 6 1.9375 5.4375 1.375 4.5C0.84375 3.59375 0.84375 2.4375 1.375 1.5C1.9375 0.59375 2.90625 0 4 0C5.0625 0 6.03125 0.59375 6.59375 1.5C7.125 2.4375 7.125 3.59375 6.59375 4.5C6.03125 5.4375 5.0625 6 4 6ZM2 11C2 11.7188 2.375 12.375 3 12.75C3.59375 13.0938 4.375 13.0938 5 12.75C5.59375 12.375 6 11.7188 6 11C6 10.3125 5.59375 9.65625 5 9.28125C4.375 8.9375 3.59375 8.9375 3 9.28125C2.375 9.65625 2 10.3125 2 11ZM4 14C2.90625 14 1.9375 13.4375 1.375 12.5C0.84375 11.5938 0.84375 10.4375 1.375 9.5C1.9375 8.59375 2.90625 8 4 8C5.0625 8 6.03125 8.59375 6.59375 9.5C7.125 10.4375 7.125 11.5938 6.59375 12.5C6.03125 13.4375 5.0625 14 4 14ZM12 5C12.6875 5 13.3438 4.625 13.7188 4C14.0625 3.40625 14.0625 2.625 13.7188 2C13.3438 1.40625 12.6875 1 12 1C11.2812 1 10.625 1.40625 10.25 2C9.90625 2.625 9.90625 3.40625 10.25 4C10.625 4.625 11.2812 5 12 5ZM15 3C15 4.09375 14.4062 5.0625 13.5 5.625C12.5625 6.15625 11.4062 6.15625 10.5 5.625C9.5625 5.0625 9 4.09375 9 3C9 1.9375 9.5625 0.96875 10.5 0.40625C11.4062 -0.125 12.5625 -0.125 13.5 0.40625C14.4062 0.96875 15 1.9375 15 3ZM12 7.5C12.25 7.5 12.5 7.75 12.5 8V10.5H15C15.25 10.5 15.5 10.75 15.5 11C15.5 11.2812 15.25 11.5 15 11.5H12.5V14C12.5 14.2812 12.25 14.5 12 14.5C11.7188 14.5 11.5 14.2812 11.5 14V11.5H9C8.71875 11.5 8.5 11.2812 8.5 11C8.5 10.75 8.71875 10.5 9 10.5H11.5V8C11.5 7.75 11.7188 7.5 12 7.5Z" fill="#777FA1"/>
</svg>
