<svg width="16" height="15" viewBox="0 0 16 15" fill="none" xmlns="http://www.w3.org/2000/svg">
<path d="M4 6C2.90625 6 1.9375 5.4375 1.375 4.5C0.84375 3.59375 0.84375 2.4375 1.375 1.5C1.9375 0.59375 2.90625 0 4 0C5.0625 0 6.03125 0.59375 6.59375 1.5C7.125 2.4375 7.125 3.59375 6.59375 4.5C6.03125 5.4375 5.0625 6 4 6ZM4 14C2.90625 14 1.9375 13.4375 1.375 12.5C0.84375 11.5938 0.84375 10.4375 1.375 9.5C1.9375 8.59375 2.90625 8 4 8C5.0625 8 6.03125 8.59375 6.59375 9.5C7.125 10.4375 7.125 11.5938 6.59375 12.5C6.03125 13.4375 5.0625 14 4 14ZM15 3C15 4.09375 14.4062 5.0625 13.5 5.625C12.5625 6.15625 11.4062 6.15625 10.5 5.625C9.5625 5.0625 9 4.09375 9 3C9 1.9375 9.5625 0.96875 10.5 0.40625C11.4062 -0.125 12.5625 -0.125 13.5 0.40625C14.4062 0.96875 15 1.9375 15 3ZM12 7.5C12.4062 7.5 12.75 7.84375 12.75 8.25V10.25H14.75C15.1562 10.25 15.5 10.5938 15.5 11C15.5 11.4375 15.1562 11.75 14.75 11.75H12.75V13.75C12.75 14.1875 12.4062 14.5 12 14.5C11.5625 14.5 11.25 14.1875 11.25 13.75V11.75H9.25C8.8125 11.75 8.5 11.4375 8.5 11C8.5 10.5938 8.8125 10.25 9.25 10.25H11.25V8.25C11.25 7.84375 11.5625 7.5 12 7.5Z" fill="#777FA1"/>
</svg>
