<svg width="16" height="16" viewBox="0 0 16 16" fill="none" xmlns="http://www.w3.org/2000/svg">
<path d="M15 6C15 5.46875 14.5312 5 14 5H2C1.4375 5 1 5.46875 1 6V14C1 14.5625 1.4375 15 2 15H14C14.5312 15 15 14.5625 15 14V6ZM14 4C15.0938 4 16 4.90625 16 6V14C16 15.125 15.0938 16 14 16H2C0.875 16 0 15.125 0 14V6C0 4.90625 0.875 4 2 4H14ZM14 2C14.25 2 14.5 2.25 14.5 2.5C14.5 2.78125 14.25 3 14 3H2C1.71875 3 1.5 2.78125 1.5 2.5C1.5 2.25 1.71875 2 2 2H14ZM12.5 0C12.75 0 13 0.25 13 0.5C13 0.78125 12.75 1 12.5 1H3.5C3.21875 1 3 0.78125 3 0.5C3 0.25 3.21875 0 3.5 0H12.5Z" fill="#777FA1"/>
</svg>
