<svg width="22" height="16" viewBox="0 0 22 16" fill="none" xmlns="http://www.w3.org/2000/svg">
<path d="M7.5 1C4.28125 1 2 3.1875 2 5.5C2 6.6875 2.5625 7.65625 3.40625 8.53125C3.53125 8.6875 3.5625 8.9375 3.46875 9.125C3.125 9.75 2.75 10.375 2.3125 11C3.28125 10.9062 4.28125 10.5625 5.15625 10.1875C5.34375 10.0938 5.53125 10 5.71875 9.90625C5.8125 9.84375 5.9375 9.84375 6.03125 9.84375C6.53125 9.96875 7 10 7.5 10C10.6875 10 13 7.84375 13 5.5C13 3.1875 10.6875 1 7.5 1ZM1 5.5C1 2.46875 3.90625 0 7.5 0C11.0625 0 14 2.46875 14 5.5C14 8.5625 11.0625 11 7.5 11C6.96875 11 6.5 10.9688 6.03125 10.875C5.875 10.9375 5.71875 11 5.5625 11.0938C4.4375 11.5938 3.09375 12 1.75 12C1.4375 12 1.15625 11.8438 1.0625 11.5625C0.9375 11.2812 1 10.9688 1.1875 10.75C1.6875 10.2188 2.0625 9.625 2.4375 8.9375C1.59375 8.03125 1 6.90625 1 5.5ZM14.7812 4.03125C18.25 4.15625 21 6.5625 21 9.5C21 10.9062 20.375 12.0312 19.5625 12.9375C19.9062 13.5938 20.3125 14.2188 20.7812 14.75C21 14.9688 21.0312 15.2812 20.9375 15.5625C20.8125 15.8438 20.5312 16 20.25 16C18.9062 16 17.5312 15.5938 16.4062 15.0938C16.25 15 16.0938 14.9375 15.9688 14.875C15.4688 14.9688 15 15 14.5 15C11.9062 15 9.71875 13.75 8.65625 11.9375C9 11.875 9.375 11.8125 9.71875 11.7188C10.625 13.0625 12.3438 14 14.5 14C14.9688 14 15.4375 13.9688 15.9375 13.8438C16.0312 13.8438 16.1562 13.8438 16.25 13.9062C16.4375 14 16.625 14.0938 16.8125 14.1875C17.6875 14.5625 18.6875 14.9062 19.6875 15C19.2188 14.4062 18.8438 13.75 18.5 13.125C18.4062 12.9375 18.4375 12.6875 18.5625 12.5312C19.4375 11.6562 20 10.6875 20 9.5C20 7.28125 17.9062 5.21875 14.9688 5.03125C14.9375 4.6875 14.875 4.34375 14.7812 4.03125ZM5.59375 3.28125C5.78125 2.78125 6.25 2.46875 6.75 2.46875H8.03125C8.78125 2.46875 9.40625 3.0625 9.40625 3.84375C9.40625 4.3125 9.125 4.78125 8.71875 5L8 5.4375C8 5.71875 7.75 5.9375 7.5 5.9375C7.21875 5.9375 7 5.71875 7 5.4375V5.15625C7 4.96875 7.09375 4.8125 7.25 4.71875L8.21875 4.15625C8.34375 4.09375 8.40625 3.96875 8.40625 3.84375C8.40625 3.625 8.25 3.46875 8.03125 3.46875H6.75C6.65625 3.46875 6.59375 3.53125 6.5625 3.59375L6.53125 3.625C6.4375 3.875 6.15625 4.03125 5.90625 3.9375C5.65625 3.84375 5.5 3.5625 5.59375 3.28125ZM6.78125 7.375C6.75 7.125 6.875 6.875 7.125 6.75C7.34375 6.59375 7.625 6.59375 7.84375 6.75C8.0625 6.875 8.21875 7.125 8.1875 7.375C8.21875 7.65625 8.0625 7.90625 7.84375 8.03125C7.625 8.1875 7.34375 8.1875 7.125 8.03125C6.875 7.90625 6.75 7.65625 6.78125 7.375Z" fill="#777FA1"/>
</svg>
