<svg width="22" height="17" viewBox="0 0 22 17" fill="none" xmlns="http://www.w3.org/2000/svg">
<path d="M14 5.5C14 8.5625 11.0625 11 7.5 11C6.28125 11 5.1875 10.75 4.21875 10.2812C3.96875 10.4062 3.71875 10.5 3.4375 10.625C2.84375 10.8438 2.15625 11 1.5 11C1.28125 11 1.0625 10.875 1 10.6562C0.9375 10.4688 1.03125 10.25 1.1875 10.0938C1.21875 10.0938 1.21875 10.0938 1.21875 10.0625C1.25 10.0625 1.3125 10 1.375 9.96875C1.46875 9.84375 1.625 9.71875 1.78125 9.5C1.96875 9.28125 2.125 9.03125 2.21875 8.75C1.4375 7.84375 1 6.71875 1 5.5C1 2.46875 3.90625 0 7.5 0C11.0625 0 14 2.46875 14 5.5ZM8.21875 11.9688C11.875 11.6562 15 9.03125 15 5.5C15 5.34375 14.9688 5.1875 14.9688 5.03125C18.3438 5.25 21 7.625 21 10.5C21 11.7188 20.5312 12.8438 19.75 13.75C19.8438 14.0312 20.0312 14.3125 20.1875 14.5312C20.3438 14.7188 20.5 14.875 20.5938 14.9688C20.6562 15 20.7188 15.0625 20.75 15.0938H20.7812V15.125C20.9688 15.25 21.0312 15.4688 20.9688 15.6562C20.9062 15.875 20.7188 16.0312 20.5 16.0312C19.8125 16.0312 19.125 15.8438 18.5625 15.625C18.25 15.5312 18 15.4062 17.75 15.2812C16.7812 15.75 15.6875 16 14.5 16C11.5 16 8.96875 14.3125 8.21875 11.9688ZM5.25 3.40625L5.21875 3.4375C5.125 3.75 5.28125 4.125 5.625 4.21875C5.9375 4.34375 6.28125 4.1875 6.40625 3.84375V3.8125C6.4375 3.71875 6.53125 3.6875 6.625 3.6875H8.125C8.34375 3.6875 8.53125 3.84375 8.53125 4.0625C8.53125 4.21875 8.4375 4.34375 8.34375 4.40625L7.1875 5.09375C6.96875 5.1875 6.875 5.40625 6.875 5.625V5.96875C6.875 6.3125 7.15625 6.59375 7.5 6.59375C7.8125 6.59375 8.09375 6.3125 8.125 5.96875L8.9375 5.5C9.46875 5.21875 9.78125 4.65625 9.78125 4.0625C9.78125 3.15625 9.03125 2.4375 8.125 2.4375H6.625C6 2.4375 5.4375 2.8125 5.25 3.40625ZM8.3125 8.25C8.34375 7.96875 8.1875 7.65625 7.90625 7.5C7.65625 7.34375 7.3125 7.34375 7.0625 7.5C6.78125 7.65625 6.625 7.96875 6.65625 8.25C6.625 8.5625 6.78125 8.875 7.0625 9.03125C7.3125 9.1875 7.65625 9.1875 7.90625 9.03125C8.1875 8.875 8.34375 8.5625 8.3125 8.25Z" fill="#777FA1"/>
</svg>
