<svg width="34" height="33" viewBox="0 0 34 33" fill="none" xmlns="http://www.w3.org/2000/svg">
<g clip-path="url(#clip0_612_397)">
<path d="M29.6462 13.1855L26.4745 16.357L29.6462 19.5284L32.8174 16.3575L29.6462 13.1855Z" fill="white"/>
<path d="M23.3034 13.1855L20.1318 16.357L23.3034 19.5284L26.4746 16.3575L23.3034 13.1855Z" fill="white"/>
<path d="M16.9607 13.1855L13.789 16.357L16.9607 19.5284L20.1318 16.3575L16.9607 13.1855Z" fill="white"/>
<path d="M16.9607 19.5283L13.789 22.6997L16.9607 25.8712L20.1318 22.7003L16.9607 19.5283Z" fill="white"/>
<path d="M23.3034 19.5283L20.1318 22.6997L23.3034 25.8712L26.4746 22.7003L23.3034 19.5283Z" fill="white"/>
<path d="M10.6169 19.5283L7.44519 22.6997L10.6169 25.8712L13.7881 22.7003L10.6169 19.5283Z" fill="white"/>
<path d="M10.6179 25.8721L7.44616 29.0435L10.6179 32.2149L13.7891 29.044L10.6179 25.8721Z" fill="white"/>
<path d="M16.9607 25.8721L13.789 29.0435L16.9607 32.2149L20.1318 29.044L16.9607 25.8721Z" fill="white"/>
<path d="M4.27509 25.8721L1.10339 29.0435L4.27509 32.2149L7.44629 29.044L4.27509 25.8721Z" fill="white"/>
<path d="M10.6179 0.5L7.44616 3.67143L10.6179 6.84285L13.7891 3.67194L10.6179 0.5Z" fill="white"/>
<path d="M16.9607 0.5L13.789 3.67143L16.9607 6.84285L20.1318 3.67194L16.9607 0.5Z" fill="white"/>
<path d="M4.27509 0.5L1.10339 3.67143L4.27509 6.84285L7.44629 3.67194L4.27509 0.5Z" fill="white"/>
<path d="M16.9607 6.84277L13.789 10.0142L16.9607 13.1856L20.1318 10.0147L16.9607 6.84277Z" fill="white"/>
<path d="M23.3034 6.84277L20.1318 10.0142L23.3034 13.1856L26.4746 10.0147L23.3034 6.84277Z" fill="white"/>
<path d="M10.6169 6.84277L7.44519 10.0142L10.6169 13.1856L13.7881 10.0147L10.6169 6.84277Z" fill="white"/>
</g>
<defs>
<clipPath id="clip0_612_397">
<rect width="32" height="33" fill="white" transform="translate(33.5 0.5) rotate(90)"/>
</clipPath>
</defs>
</svg>
