<svg width="13" height="13" viewBox="0 0 13 13" fill="none" xmlns="http://www.w3.org/2000/svg">
<path d="M7.26736 1.65046V5.70983H11.3267C11.806 5.70983 12.2288 6.13268 12.2288 6.61191C12.2288 7.11934 11.806 7.514 11.3267 7.514H7.26736V11.5734C7.26736 12.0808 6.84451 12.4755 6.36528 12.4755C5.85786 12.4755 5.46319 12.0808 5.46319 11.5734V7.514H1.40382C0.896398 7.514 0.501736 7.11934 0.501736 6.61191C0.501736 6.13268 0.896398 5.70983 1.40382 5.70983H5.46319V1.65046C5.46319 1.17122 5.85786 0.748373 6.36528 0.748373C6.84451 0.748373 7.26736 1.17122 7.26736 1.65046Z" fill="#777FA1"/>
</svg>
