<svg width="32" height="32" viewBox="0 0 32 32" fill="none" xmlns="http://www.w3.org/2000/svg">
<path d="M0.5 8.95454C0.5 4.28523 4.28523 0.5 8.95454 0.5H23.0455C27.7148 0.5 31.5 4.28523 31.5 8.95454V23.0455C31.5 27.7148 27.7148 31.5 23.0455 31.5H8.95454C4.28523 31.5 0.5 27.7148 0.5 23.0455V8.95454Z" fill="#045257"/>
<path d="M22.1213 13.2443C22.2238 13.4748 22.1469 13.7054 21.9676 13.8847L20.8661 14.8837C20.8918 15.0886 20.8918 15.3192 20.8918 15.5241C20.8918 15.7547 20.8918 15.9852 20.8661 16.1901L21.9676 17.1892C22.1469 17.3428 22.2238 17.599 22.1213 17.8296C22.0189 18.1369 21.8908 18.4187 21.7371 18.7005L21.609 18.9054C21.4297 19.1872 21.2504 19.469 21.0454 19.6995C20.8918 19.9044 20.6356 19.9557 20.405 19.8788L18.9962 19.4434C18.6375 19.6995 18.2533 19.9044 17.8691 20.0838L17.5361 21.5439C17.4848 21.7744 17.3055 21.9537 17.075 22.005C16.7163 22.0562 16.3577 22.0818 15.9735 22.0818C15.6149 22.0818 15.2562 22.0562 14.8976 22.005C14.6671 21.9537 14.4878 21.7744 14.4365 21.5439L14.1035 20.0838C13.6937 19.9044 13.335 19.6995 12.9764 19.4434L11.5675 19.8788C11.337 19.9557 11.0808 19.9044 10.9271 19.7251C10.7222 19.469 10.5429 19.1872 10.3636 18.9054L10.2355 18.7005C10.0818 18.4187 9.95373 18.1369 9.85126 17.8296C9.7488 17.599 9.82565 17.3685 10.005 17.1892L11.1064 16.1901C11.0808 15.9852 11.0808 15.7547 11.0808 15.5241C11.0808 15.3192 11.0808 15.0886 11.1064 14.8837L10.005 13.8847C9.82565 13.7054 9.7488 13.4748 9.85126 13.2443C9.95373 12.9369 10.0818 12.6551 10.2355 12.3733L10.3636 12.1684C10.5429 11.8866 10.7222 11.6049 10.9271 11.3487C11.0808 11.1694 11.337 11.1182 11.5675 11.195L12.9764 11.6305C13.335 11.3743 13.7193 11.1438 14.1035 10.9901L14.4365 9.52997C14.4878 9.29943 14.6671 9.12012 14.8976 9.06888C15.2562 9.01765 15.6149 8.96642 15.9991 8.96642C16.3577 8.96642 16.7163 9.01765 17.075 9.06888C17.3055 9.0945 17.4848 9.29943 17.5361 9.52997L17.8691 10.9901C18.2789 11.1438 18.6375 11.3743 18.9962 11.6305L20.405 11.195C20.6356 11.1182 20.8918 11.1694 21.0454 11.3487C21.2504 11.6049 21.4297 11.8866 21.609 12.1684L21.7371 12.3733C21.8908 12.6551 22.0189 12.9369 22.1469 13.2443H22.1213ZM15.9991 17.5734C16.7163 17.5734 17.3824 17.1892 17.7666 16.5488C18.1252 15.934 18.1252 15.1399 17.7666 14.4995C17.3824 13.8847 16.7163 13.4748 15.9991 13.4748C15.2562 13.4748 14.5902 13.8847 14.206 14.4995C13.8474 15.1399 13.8474 15.934 14.206 16.5488C14.5902 17.1892 15.2562 17.5734 15.9991 17.5734Z" fill="white"/>
</svg>
