<svg width="32" height="32" viewBox="0 0 32 32" fill="none" xmlns="http://www.w3.org/2000/svg">
<path d="M0.0390625 8.63426C0.0390625 3.92394 3.85753 0.105469 8.56785 0.105469H22.7825C27.4928 0.105469 31.3113 3.92394 31.3113 8.63426V22.8489C31.3113 27.5592 27.4928 31.3777 22.7825 31.3777H8.56785C3.85753 31.3777 0.0390625 27.5592 0.0390625 22.8489V8.63426Z" fill="#7ACE38"/>
<path d="M20.9785 12.2889C21.3144 12.599 21.3144 13.1416 20.9785 13.4517L14.3632 20.067C14.0531 20.4029 13.5105 20.4029 13.2004 20.067L9.89272 16.7593C9.55679 16.4493 9.55679 15.9066 9.89272 15.5965C10.2028 15.2606 10.7455 15.2606 11.0556 15.5965L13.7947 18.3098L19.8156 12.2889C20.1257 11.9529 20.6684 11.9529 20.9785 12.2889Z" fill="white"/>
</svg>
