<svg width="26" height="26" viewBox="0 0 26 26" fill="none" xmlns="http://www.w3.org/2000/svg">
<path d="M0 7.09091C0 3.17471 3.17471 0 7.09091 0H18.9091C22.8253 0 26 3.17471 26 7.09091V18.9091C26 22.8253 22.8253 26 18.9091 26H7.09091C3.17471 26 0 22.8253 0 18.9091V7.09091Z" fill="#0091EA"/>
<path d="M13 9.25C10.7227 9.25 8.875 11.0977 8.875 13.375C8.875 15.6523 10.7227 17.5 13 17.5C13.3652 17.5 13.6875 17.8223 13.6875 18.1875C13.6875 18.5742 13.3652 18.875 13 18.875C9.94922 18.875 7.5 16.4258 7.5 13.375C7.5 10.3457 9.94922 7.875 13 7.875C16.0293 7.875 18.5 10.3457 18.5 13.375V14.0625C18.5 15.2012 17.5762 16.125 16.4375 16.125C15.793 16.125 15.2344 15.8457 14.8477 15.416C14.375 15.8672 13.709 16.125 13 16.125C11.4746 16.125 10.25 14.9004 10.25 13.375C10.25 11.8711 11.4746 10.625 13 10.625C13.5801 10.625 14.1387 10.8184 14.5898 11.1621C14.7188 11.0547 14.8691 10.9688 15.0625 10.9688C15.4277 10.9688 15.75 11.291 15.75 11.6562V13.375V14.0625C15.75 14.4492 16.0508 14.75 16.4375 14.75C16.8027 14.75 17.125 14.4492 17.125 14.0625V13.375C17.125 11.0977 15.2773 9.25 13 9.25ZM14.375 13.375C14.375 12.9023 14.0957 12.4512 13.6875 12.1934C13.2578 11.957 12.7207 11.957 12.3125 12.1934C11.8828 12.4512 11.625 12.9023 11.625 13.375C11.625 13.8691 11.8828 14.3203 12.3125 14.5781C12.7207 14.8145 13.2578 14.8145 13.6875 14.5781C14.0957 14.3203 14.375 13.8691 14.375 13.375Z" fill="white"/>
</svg>
