<svg width="206" height="160" viewBox="0 0 206 160" fill="none" xmlns="http://www.w3.org/2000/svg">
<rect x="0.25" y="0.972168" width="204.873" height="158.876" rx="24.0556" fill="white"/>
<path d="M29.4911 25.1059H31.3265L36.4624 37.0278H34.0376L32.9262 34.2999H27.7567L26.679 37.0278H24.3047L29.4911 25.1059ZM32.1853 32.4813L30.3498 27.6317L28.4807 32.4813H32.1853ZM37.602 28.9452H39.5216V30.2418H39.5553C39.7462 29.8376 40.038 29.4896 40.4309 29.1977C40.8239 28.8946 41.3571 28.7431 42.0306 28.7431C42.5695 28.7431 43.0241 28.8329 43.3946 29.0125C43.7763 29.1921 44.085 29.4279 44.3207 29.7198C44.5565 30.0116 44.7249 30.3484 44.8259 30.7301C44.9269 31.1118 44.9774 31.5103 44.9774 31.9256V37.0278H42.9568V32.936C42.9568 32.7115 42.9456 32.4645 42.9231 32.1951C42.9007 31.9144 42.8389 31.6562 42.7379 31.4205C42.6481 31.1735 42.5021 30.9714 42.3001 30.8143C42.098 30.6459 41.823 30.5617 41.475 30.5617C41.1382 30.5617 40.8519 30.6178 40.6162 30.7301C40.3917 30.8423 40.2008 30.9939 40.0437 31.1847C39.8977 31.3756 39.7911 31.5945 39.7237 31.8415C39.6564 32.0884 39.6227 32.3466 39.6227 32.616V37.0278H37.602V28.9452ZM47.2712 28.9452H49.1909V30.2418H49.2245C49.4154 29.8376 49.7072 29.4896 50.1002 29.1977C50.4931 28.8946 51.0263 28.7431 51.6998 28.7431C52.2387 28.7431 52.6933 28.8329 53.0638 29.0125C53.4455 29.1921 53.7542 29.4279 53.9899 29.7198C54.2257 30.0116 54.3941 30.3484 54.4951 30.7301C54.5961 31.1118 54.6467 31.5103 54.6467 31.9256V37.0278H52.626V32.936C52.626 32.7115 52.6148 32.4645 52.5923 32.1951C52.5699 31.9144 52.5081 31.6562 52.4071 31.4205C52.3173 31.1735 52.1713 30.9714 51.9693 30.8143C51.7672 30.6459 51.4922 30.5617 51.1442 30.5617C50.8074 30.5617 50.5211 30.6178 50.2854 30.7301C50.0609 30.8423 49.87 30.9939 49.7129 31.1847C49.5669 31.3756 49.4603 31.5945 49.3929 31.8415C49.3256 32.0884 49.2919 32.3466 49.2919 32.616V37.0278H47.2712V28.9452ZM64.3159 37.0278H62.3962V35.7312H62.3626C62.1717 36.1354 61.8798 36.489 61.4869 36.7921C61.094 37.084 60.5608 37.2299 59.8872 37.2299C59.3484 37.2299 58.8881 37.1457 58.5064 36.9773C58.136 36.7977 57.8329 36.562 57.5971 36.2701C57.3614 35.967 57.193 35.6246 57.092 35.2429C56.9909 34.8612 56.9404 34.4627 56.9404 34.0473V28.9452H58.9611V33.037C58.9611 33.2615 58.9723 33.5141 58.9948 33.7948C59.0172 34.0642 59.0734 34.3224 59.1632 34.5694C59.2642 34.8051 59.4101 35.0072 59.601 35.1756C59.803 35.3327 60.0837 35.4113 60.4429 35.4113C60.7797 35.4113 61.0603 35.3552 61.2849 35.2429C61.5206 35.1307 61.7114 34.9791 61.8574 34.7883C62.0145 34.5974 62.1268 34.3785 62.1942 34.1315C62.2615 33.8846 62.2952 33.6264 62.2952 33.357V28.9452H64.3159V37.0278ZM71.6613 35.9165H71.6108C71.3189 36.3767 70.9485 36.7135 70.4994 36.9268C70.0504 37.1289 69.5564 37.2299 69.0176 37.2299C68.6471 37.2299 68.2823 37.1794 67.9231 37.0783C67.5751 36.9773 67.2607 36.8258 66.9801 36.6237C66.7107 36.4216 66.4918 36.169 66.3234 35.8659C66.155 35.5628 66.0708 35.2092 66.0708 34.8051C66.0708 34.3673 66.1494 33.9968 66.3065 33.6937C66.4637 33.3794 66.6714 33.1212 66.9296 32.9191C67.199 32.7059 67.5077 32.5375 67.8557 32.414C68.2037 32.2905 68.5629 32.2007 68.9334 32.1446C69.3151 32.0772 69.6968 32.0379 70.0784 32.0267C70.4601 32.0042 70.8194 31.993 71.1561 31.993H71.6613V31.7741C71.6613 31.2689 71.4873 30.8929 71.1393 30.6459C70.7913 30.3877 70.3479 30.2586 69.809 30.2586C69.3824 30.2586 68.9839 30.3372 68.6135 30.4943C68.243 30.6403 67.9231 30.8423 67.6536 31.1005L66.5928 30.0397C67.0418 29.5794 67.5638 29.2483 68.1588 29.0462C68.765 28.8441 69.388 28.7431 70.0279 28.7431C70.6004 28.7431 71.0832 28.8105 71.4761 28.9452C71.869 29.0687 72.1945 29.2314 72.4527 29.4335C72.7109 29.6356 72.9074 29.8713 73.0421 30.1407C73.188 30.3989 73.2891 30.6627 73.3452 30.9322C73.4125 31.2016 73.4518 31.4654 73.4631 31.7236C73.4743 31.9706 73.4799 32.1895 73.4799 32.3803V37.0278H71.6613V35.9165ZM71.5434 33.4075H71.1225C70.8418 33.4075 70.5275 33.4187 70.1795 33.4411C69.8315 33.4636 69.5003 33.5197 69.186 33.6095C68.8829 33.6881 68.6247 33.8116 68.4114 33.98C68.1981 34.1372 68.0915 34.3617 68.0915 34.6535C68.0915 34.8444 68.1307 35.0072 68.2093 35.1419C68.2991 35.2654 68.4114 35.372 68.5461 35.4618C68.6808 35.5516 68.8324 35.619 69.0008 35.6639C69.1691 35.6976 69.3375 35.7144 69.5059 35.7144C70.2019 35.7144 70.7127 35.5516 71.0383 35.2261C71.375 34.8893 71.5434 34.4346 71.5434 33.8621V33.4075ZM75.6876 24.2976H77.7083V37.0278H75.6876V24.2976ZM85.1959 25.1059H87.3176V35.1082H92.3862V37.0278H85.1959V25.1059ZM95.3591 33.6937C95.4265 34.2999 95.6622 34.7714 96.0664 35.1082C96.4705 35.445 96.9588 35.6134 97.5314 35.6134C98.0365 35.6134 98.4575 35.5123 98.7943 35.3103C99.1423 35.097 99.4454 34.8332 99.7036 34.5188L101.152 35.6134C100.68 36.1971 100.153 36.6125 99.5689 36.8594C98.9851 37.1064 98.3733 37.2299 97.7334 37.2299C97.1272 37.2299 96.5547 37.1289 96.0159 36.9268C95.477 36.7247 95.0111 36.4385 94.6182 36.068C94.2253 35.6976 93.911 35.2541 93.6753 34.7377C93.4507 34.2101 93.3385 33.6264 93.3385 32.9865C93.3385 32.3466 93.4507 31.7685 93.6753 31.2521C93.911 30.7245 94.2253 30.2754 94.6182 29.905C95.0111 29.5345 95.477 29.2483 96.0159 29.0462C96.5547 28.8441 97.1272 28.7431 97.7334 28.7431C98.2947 28.7431 98.8055 28.8441 99.2658 29.0462C99.7373 29.237 100.136 29.5177 100.461 29.8881C100.798 30.2586 101.056 30.7189 101.236 31.2689C101.427 31.8078 101.522 32.4308 101.522 33.138V33.6937H95.3591ZM99.5015 32.1782C99.4903 31.5833 99.3051 31.1174 98.9458 30.7806C98.5866 30.4326 98.087 30.2586 97.4472 30.2586C96.841 30.2586 96.3582 30.4326 95.999 30.7806C95.651 31.1286 95.4377 31.5945 95.3591 32.1782H99.5015ZM108.463 35.9165H108.413C108.121 36.3767 107.751 36.7135 107.302 36.9268C106.853 37.1289 106.359 37.2299 105.82 37.2299C105.449 37.2299 105.084 37.1794 104.725 37.0783C104.377 36.9773 104.063 36.8258 103.782 36.6237C103.513 36.4216 103.294 36.169 103.126 35.8659C102.957 35.5628 102.873 35.2092 102.873 34.8051C102.873 34.3673 102.952 33.9968 103.109 33.6937C103.266 33.3794 103.474 33.1212 103.732 32.9191C104.001 32.7059 104.31 32.5375 104.658 32.414C105.006 32.2905 105.365 32.2007 105.736 32.1446C106.117 32.0772 106.499 32.0379 106.881 32.0267C107.262 32.0042 107.622 31.993 107.958 31.993H108.463V31.7741C108.463 31.2689 108.289 30.8929 107.941 30.6459C107.593 30.3877 107.15 30.2586 106.611 30.2586C106.185 30.2586 105.786 30.3372 105.416 30.4943C105.045 30.6403 104.725 30.8423 104.456 31.1005L103.395 30.0397C103.844 29.5794 104.366 29.2483 104.961 29.0462C105.567 28.8441 106.19 28.7431 106.83 28.7431C107.403 28.7431 107.885 28.8105 108.278 28.9452C108.671 29.0687 108.997 29.2314 109.255 29.4335C109.513 29.6356 109.71 29.8713 109.844 30.1407C109.99 30.3989 110.091 30.6627 110.147 30.9322C110.215 31.2016 110.254 31.4654 110.265 31.7236C110.276 31.9706 110.282 32.1895 110.282 32.3803V37.0278H108.463V35.9165ZM108.346 33.4075H107.925C107.644 33.4075 107.33 33.4187 106.982 33.4411C106.634 33.4636 106.302 33.5197 105.988 33.6095C105.685 33.6881 105.427 33.8116 105.214 33.98C105 34.1372 104.894 34.3617 104.894 34.6535C104.894 34.8444 104.933 35.0072 105.012 35.1419C105.101 35.2654 105.214 35.372 105.348 35.4618C105.483 35.5516 105.635 35.619 105.803 35.6639C105.971 35.6976 106.14 35.7144 106.308 35.7144C107.004 35.7144 107.515 35.5516 107.84 35.2261C108.177 34.8893 108.346 34.4346 108.346 33.8621V33.4075ZM111.362 28.9452H113.568L115.723 34.603H115.757L117.929 28.9452H120L116.817 37.0278H114.662L111.362 28.9452ZM122.805 33.6937C122.872 34.2999 123.108 34.7714 123.512 35.1082C123.916 35.445 124.404 35.6134 124.977 35.6134C125.482 35.6134 125.903 35.5123 126.24 35.3103C126.588 35.097 126.891 34.8332 127.149 34.5188L128.597 35.6134C128.126 36.1971 127.598 36.6125 127.014 36.8594C126.431 37.1064 125.819 37.2299 125.179 37.2299C124.573 37.2299 124 37.1289 123.461 36.9268C122.922 36.7247 122.457 36.4385 122.064 36.068C121.671 35.6976 121.356 35.2541 121.121 34.7377C120.896 34.2101 120.784 33.6264 120.784 32.9865C120.784 32.3466 120.896 31.7685 121.121 31.2521C121.356 30.7245 121.671 30.2754 122.064 29.905C122.457 29.5345 122.922 29.2483 123.461 29.0462C124 28.8441 124.573 28.7431 125.179 28.7431C125.74 28.7431 126.251 28.8441 126.711 29.0462C127.183 29.237 127.581 29.5177 127.907 29.8881C128.244 30.2586 128.502 30.7189 128.681 31.2689C128.872 31.8078 128.968 32.4308 128.968 33.138V33.6937H122.805ZM126.947 32.1782C126.936 31.5833 126.75 31.1174 126.391 30.7806C126.032 30.4326 125.532 30.2586 124.893 30.2586C124.286 30.2586 123.804 30.4326 123.444 30.7806C123.096 31.1286 122.883 31.5945 122.805 32.1782H126.947ZM135.168 31.1847C134.775 30.6347 134.247 30.3596 133.585 30.3596C133.316 30.3596 133.052 30.427 132.794 30.5617C132.536 30.6964 132.406 30.9153 132.406 31.2184C132.406 31.4654 132.513 31.645 132.726 31.7573C132.94 31.8695 133.209 31.9649 133.535 32.0435C133.86 32.1221 134.208 32.2063 134.579 32.2961C134.96 32.3747 135.314 32.5038 135.639 32.6834C135.965 32.8518 136.234 33.0875 136.448 33.3906C136.661 33.6937 136.768 34.1091 136.768 34.6367C136.768 35.1194 136.661 35.5292 136.448 35.8659C136.246 36.1915 135.976 36.4553 135.639 36.6574C135.314 36.8594 134.943 37.0054 134.528 37.0952C134.113 37.185 133.697 37.2299 133.282 37.2299C132.653 37.2299 132.075 37.1401 131.548 36.9605C131.02 36.7809 130.549 36.4553 130.133 35.9838L131.48 34.7209C131.738 35.0128 132.013 35.2541 132.305 35.445C132.608 35.6246 132.973 35.7144 133.4 35.7144C133.546 35.7144 133.697 35.6976 133.855 35.6639C134.012 35.6302 134.158 35.5741 134.292 35.4955C134.427 35.4169 134.534 35.3215 134.612 35.2092C134.702 35.0857 134.747 34.9454 134.747 34.7883C134.747 34.5076 134.64 34.2999 134.427 34.1652C134.214 34.0305 133.944 33.9239 133.619 33.8453C133.293 33.7555 132.94 33.6769 132.558 33.6095C132.187 33.531 131.839 33.4131 131.514 33.2559C131.188 33.0875 130.919 32.8574 130.706 32.5655C130.492 32.2737 130.386 31.8695 130.386 31.3531C130.386 30.9041 130.476 30.5168 130.655 30.1912C130.846 29.8545 131.093 29.5794 131.396 29.3661C131.699 29.1528 132.047 28.9957 132.44 28.8946C132.833 28.7936 133.232 28.7431 133.636 28.7431C134.174 28.7431 134.708 28.8385 135.235 29.0294C135.763 29.209 136.19 29.5233 136.515 29.9723L135.168 31.1847Z" fill="black"/>
<path d="M34.6197 87.5096L29.5007 92.2437L26.8065 89.0491L35.0431 82.1981H39.2384V109.448H34.6197V87.5096ZM58.475 81.7362C59.6297 81.7362 60.7074 81.903 61.7081 82.2366C62.7344 82.5445 63.6197 83.0064 64.3638 83.6222C65.1336 84.2124 65.7366 84.9565 66.1728 85.8546C66.609 86.727 66.8271 87.7405 66.8271 88.8952C66.8271 90.3578 66.4807 91.6407 65.7879 92.7441C65.1208 93.8474 64.0944 94.6044 62.7088 95.0149V95.0919C63.3503 95.2202 63.9661 95.4896 64.5562 95.9002C65.1721 96.285 65.7109 96.7726 66.1728 97.3627C66.6346 97.9272 66.9939 98.5815 67.2505 99.3257C67.5327 100.07 67.6738 100.865 67.6738 101.712C67.6738 103.072 67.4301 104.265 66.9426 105.291C66.455 106.292 65.8007 107.139 64.9796 107.832C64.1585 108.525 63.1835 109.051 62.0545 109.41C60.9255 109.743 59.7323 109.91 58.475 109.91C57.192 109.91 55.9861 109.743 54.857 109.41C53.7537 109.051 52.7915 108.525 51.9704 107.832C51.1493 107.139 50.495 106.292 50.0074 105.291C49.5199 104.265 49.2762 103.072 49.2762 101.712C49.2762 100.865 49.4045 100.07 49.661 99.3257C49.9433 98.5815 50.3154 97.9272 50.7772 97.3627C51.2391 96.7726 51.7651 96.285 52.3553 95.9002C52.9711 95.4896 53.5997 95.2202 54.2412 95.0919V95.0149C52.8556 94.6044 51.8164 93.8474 51.1236 92.7441C50.4565 91.6407 50.1229 90.3578 50.1229 88.8952C50.1229 87.7405 50.341 86.727 50.7772 85.8546C51.2134 84.9565 51.8036 84.2124 52.5477 83.6222C53.3175 83.0064 54.2027 82.5445 55.2034 82.2366C56.2298 81.903 57.3203 81.7362 58.475 81.7362ZM58.475 85.6621C57.2947 85.6621 56.3709 86.0213 55.7038 86.7398C55.0623 87.4583 54.7416 88.3307 54.7416 89.357C54.7416 90.4347 55.0752 91.3456 55.7423 92.0898C56.4094 92.8082 57.3203 93.1674 58.475 93.1674C58.9882 93.1674 59.4629 93.0776 59.8991 92.898C60.361 92.6927 60.7587 92.4233 61.0922 92.0898C61.4515 91.7305 61.7209 91.32 61.9005 90.8581C62.1058 90.3962 62.2084 89.8959 62.2084 89.357C62.2084 88.3307 61.8492 87.4583 61.1307 86.7398C60.4379 86.0213 59.5527 85.6621 58.475 85.6621ZM58.475 96.8624C57.8592 96.8624 57.269 96.965 56.7045 97.1703C56.14 97.3756 55.6525 97.6706 55.2419 98.0555C54.8314 98.4404 54.4978 98.9023 54.2412 99.4411C54.0103 99.9543 53.8948 100.519 53.8948 101.135C53.8948 102.443 54.3182 103.508 55.165 104.329C56.0374 105.125 57.1407 105.522 58.475 105.522C59.8093 105.522 60.8998 105.125 61.7466 104.329C62.619 103.508 63.0552 102.443 63.0552 101.135C63.0552 100.519 62.9269 99.9543 62.6703 99.4411C62.4394 98.9023 62.1186 98.4404 61.7081 98.0555C61.2975 97.6706 60.81 97.3756 60.2455 97.1703C59.681 96.965 59.0908 96.8624 58.475 96.8624Z" fill="black"/>
<path d="M33.6719 129.795C33.6719 129.257 33.5837 128.746 33.4073 128.261C33.2309 127.767 32.9751 127.335 32.6399 126.964C32.3136 126.594 31.9123 126.298 31.436 126.078C30.9597 125.857 30.4216 125.747 29.8218 125.747C29.222 125.747 28.684 125.857 28.2077 126.078C27.7314 126.298 27.3257 126.594 26.9905 126.964C26.6641 127.335 26.4128 127.767 26.2363 128.261C26.0599 128.746 25.9717 129.257 25.9717 129.795C25.9717 130.333 26.0599 130.849 26.2363 131.343C26.4128 131.828 26.6641 132.256 26.9905 132.627C27.3257 132.997 27.7314 133.293 28.2077 133.513C28.684 133.734 29.222 133.844 29.8218 133.844C30.4216 133.844 30.9597 133.734 31.436 133.513C31.9123 133.293 32.3136 132.997 32.6399 132.627C32.9751 132.256 33.2309 131.828 33.4073 131.343C33.5837 130.849 33.6719 130.333 33.6719 129.795ZM34.7039 129.795C34.7039 130.51 34.5804 131.167 34.3334 131.767C34.0865 132.367 33.7425 132.887 33.3015 133.328C32.8693 133.76 32.3533 134.1 31.7535 134.347C31.1625 134.594 30.5186 134.717 29.8218 134.717C29.125 134.717 28.4767 134.594 27.8769 134.347C27.286 134.1 26.77 133.76 26.329 133.328C25.8968 132.887 25.5572 132.367 25.3102 131.767C25.0632 131.167 24.9398 130.51 24.9398 129.795C24.9398 129.081 25.0632 128.424 25.3102 127.824C25.5572 127.224 25.8968 126.708 26.329 126.276C26.77 125.835 27.286 125.491 27.8769 125.244C28.4767 124.997 29.125 124.874 29.8218 124.874C30.5186 124.874 31.1625 124.997 31.7535 125.244C32.3533 125.491 32.8693 125.835 33.3015 126.276C33.7425 126.708 34.0865 127.224 34.3334 127.824C34.5804 128.424 34.7039 129.081 34.7039 129.795ZM40.7633 134.479C40.7457 134.311 40.7324 134.148 40.7236 133.989C40.7236 133.822 40.7236 133.654 40.7236 133.487H40.6971C40.6001 133.654 40.4766 133.809 40.3267 133.95C40.1767 134.091 40.0092 134.214 39.8239 134.32C39.6387 134.417 39.4402 134.492 39.2285 134.545C39.0257 134.607 38.8228 134.638 38.6199 134.638C37.8261 134.638 37.2396 134.43 36.8603 134.016C36.481 133.593 36.2914 132.993 36.2914 132.217V128.287H37.1646V131.714C37.1646 132.058 37.191 132.362 37.244 132.627C37.2969 132.891 37.3851 133.116 37.5086 133.301C37.6409 133.478 37.8129 133.615 38.0246 133.712C38.2451 133.8 38.5185 133.844 38.8449 133.844C38.889 133.844 39.0124 133.826 39.2153 133.791C39.4182 133.756 39.6299 133.659 39.8504 133.5C40.0797 133.341 40.2826 133.103 40.459 132.785C40.6354 132.468 40.7236 132.027 40.7236 131.462V128.287H41.5968V133.116C41.5968 133.284 41.6012 133.496 41.61 133.751C41.6277 134.007 41.6453 134.25 41.663 134.479H40.7633ZM46.8449 129.081H45.0588V132.733C45.0588 132.962 45.0808 133.152 45.1249 133.301C45.169 133.443 45.2308 133.553 45.3102 133.632C45.3895 133.712 45.4822 133.769 45.588 133.804C45.7027 133.831 45.8261 133.844 45.9585 133.844C46.1084 133.844 46.2628 133.822 46.4215 133.778C46.5803 133.734 46.7258 133.676 46.8581 133.606L46.8978 134.413C46.5715 134.563 46.179 134.638 45.7203 134.638C45.5527 134.638 45.3763 134.616 45.1911 134.572C45.0147 134.528 44.8515 134.444 44.7016 134.32C44.5516 134.197 44.4281 134.029 44.3311 133.817C44.2341 133.606 44.1856 133.328 44.1856 132.984V129.081H42.8757V128.287H44.1856V126.541H45.0588V128.287H46.8449V129.081ZM57.0239 131.383C57.0239 131.039 56.9665 130.717 56.8519 130.417C56.746 130.117 56.5917 129.857 56.3888 129.637C56.1859 129.416 55.9389 129.244 55.6479 129.121C55.3656 128.988 55.0437 128.922 54.682 128.922C54.3204 128.922 53.9941 128.988 53.703 129.121C53.4207 129.244 53.1782 129.416 52.9753 129.637C52.7813 129.857 52.6269 130.117 52.5122 130.417C52.4064 130.717 52.3535 131.039 52.3535 131.383C52.3535 131.727 52.4064 132.049 52.5122 132.349C52.6269 132.649 52.7813 132.909 52.9753 133.129C53.1782 133.35 53.4207 133.526 53.703 133.659C53.9941 133.782 54.3204 133.844 54.682 133.844C55.0437 133.844 55.3656 133.782 55.6479 133.659C55.9389 133.526 56.1859 133.35 56.3888 133.129C56.5917 132.909 56.746 132.649 56.8519 132.349C56.9665 132.049 57.0239 131.727 57.0239 131.383ZM57.9765 131.383C57.9765 131.851 57.8927 132.283 57.7251 132.68C57.5663 133.077 57.3414 133.421 57.0503 133.712C56.7592 134.003 56.4108 134.232 56.0051 134.4C55.6082 134.558 55.1672 134.638 54.682 134.638C54.2057 134.638 53.7647 134.558 53.359 134.4C52.9621 134.232 52.6181 134.003 52.327 133.712C52.0359 133.421 51.8066 133.077 51.639 132.68C51.4802 132.283 51.4009 131.851 51.4009 131.383C51.4009 130.916 51.4802 130.483 51.639 130.086C51.8066 129.69 52.0359 129.346 52.327 129.054C52.6181 128.763 52.9621 128.538 53.359 128.38C53.7647 128.212 54.2057 128.128 54.682 128.128C55.1672 128.128 55.6082 128.212 56.0051 128.38C56.4108 128.538 56.7592 128.763 57.0503 129.054C57.3414 129.346 57.5663 129.69 57.7251 130.086C57.8927 130.483 57.9765 130.916 57.9765 131.383ZM62.4454 129.081H60.9768V134.479H60.1036V129.081H58.7937V128.287H60.1036V126.594C60.1036 125.773 60.2932 125.191 60.6725 124.847C61.0518 124.494 61.5545 124.318 62.1808 124.318C62.3043 124.318 62.4277 124.327 62.5512 124.344C62.6835 124.362 62.8114 124.384 62.9349 124.411L62.7761 125.204C62.6703 125.178 62.56 125.156 62.4454 125.138C62.3307 125.121 62.2161 125.112 62.1014 125.112C61.8632 125.112 61.6692 125.151 61.5192 125.231C61.3693 125.31 61.2546 125.425 61.1752 125.575C61.0959 125.716 61.0429 125.884 61.0165 126.078C60.99 126.272 60.9768 126.479 60.9768 126.699V128.287H62.4454V129.081ZM72.7946 134.479H66.8408V133.381L70.5718 129.584C70.713 129.443 70.8541 129.293 70.9952 129.134C71.1363 128.975 71.2642 128.808 71.3789 128.631C71.4936 128.455 71.5862 128.269 71.6567 128.075C71.7273 127.881 71.7626 127.678 71.7626 127.467C71.7626 127.211 71.7141 126.982 71.6171 126.779C71.5288 126.576 71.401 126.404 71.2334 126.263C71.0658 126.122 70.8717 126.016 70.6512 125.945C70.4307 125.866 70.197 125.826 69.95 125.826C69.4737 125.826 69.068 125.959 68.7328 126.223C68.3976 126.488 68.1815 126.845 68.0845 127.295L67.079 127.189C67.2113 126.492 67.5288 125.945 68.0316 125.548C68.5432 125.151 69.1606 124.953 69.8838 124.953C70.2631 124.953 70.6203 125.006 70.9555 125.112C71.2995 125.209 71.5994 125.359 71.8552 125.562C72.1198 125.764 72.3271 126.02 72.477 126.329C72.6358 126.629 72.7152 126.982 72.7152 127.387C72.7152 127.749 72.6579 128.08 72.5432 128.38C72.4373 128.68 72.2962 128.962 72.1198 129.226C71.9434 129.491 71.7405 129.742 71.5112 129.981C71.2907 130.219 71.0614 130.453 70.8232 130.682L67.8728 133.606H72.7946V134.479ZM80.1463 134.479H74.1926V133.381L77.9236 129.584C78.0647 129.443 78.2058 129.293 78.347 129.134C78.4881 128.975 78.616 128.808 78.7306 128.631C78.8453 128.455 78.9379 128.269 79.0085 128.075C79.0791 127.881 79.1143 127.678 79.1143 127.467C79.1143 127.211 79.0658 126.982 78.9688 126.779C78.8806 126.576 78.7527 126.404 78.5851 126.263C78.4175 126.122 78.2235 126.016 78.003 125.945C77.7825 125.866 77.5487 125.826 77.3017 125.826C76.8254 125.826 76.4197 125.959 76.0845 126.223C75.7494 126.488 75.5333 126.845 75.4362 127.295L74.4307 127.189C74.563 126.492 74.8806 125.945 75.3833 125.548C75.8949 125.151 76.5123 124.953 77.2356 124.953C77.6149 124.953 77.9721 125.006 78.3073 125.112C78.6513 125.209 78.9512 125.359 79.2069 125.562C79.4716 125.764 79.6788 126.02 79.8288 126.329C79.9875 126.629 80.0669 126.982 80.0669 127.387C80.0669 127.749 80.0096 128.08 79.8949 128.38C79.7891 128.68 79.648 128.962 79.4716 129.226C79.2952 129.491 79.0923 129.742 78.863 129.981C78.6424 130.219 78.4131 130.453 78.175 130.682L75.2245 133.606H80.1463V134.479ZM86.0734 131.383C86.0734 131.727 86.1263 132.049 86.2322 132.349C86.3468 132.649 86.5056 132.909 86.7085 133.129C86.9113 133.35 87.1539 133.526 87.4361 133.659C87.7272 133.782 88.0536 133.844 88.4152 133.844C88.768 133.844 89.0944 133.782 89.3943 133.659C89.703 133.526 89.9676 133.35 90.1881 133.129C90.4086 132.909 90.5806 132.649 90.7041 132.349C90.8276 132.049 90.8893 131.727 90.8893 131.383C90.8893 131.039 90.8276 130.717 90.7041 130.417C90.5806 130.117 90.4086 129.857 90.1881 129.637C89.9676 129.416 89.703 129.244 89.3943 129.121C89.0944 128.988 88.768 128.922 88.4152 128.922C88.0536 128.922 87.7272 128.988 87.4361 129.121C87.1539 129.244 86.9113 129.416 86.7085 129.637C86.5056 129.857 86.3468 130.117 86.2322 130.417C86.1263 130.717 86.0734 131.039 86.0734 131.383ZM91.7228 134.479H90.8496V133.447H90.8232C90.682 133.659 90.5145 133.84 90.3204 133.989C90.1264 134.139 89.9235 134.263 89.7118 134.36C89.5001 134.457 89.2796 134.528 89.0503 134.572C88.8298 134.616 88.6181 134.638 88.4152 134.638C87.9301 134.638 87.4847 134.558 87.0789 134.4C86.682 134.232 86.338 134.003 86.0469 133.712C85.7559 133.421 85.5265 133.077 85.3589 132.68C85.2002 132.283 85.1208 131.851 85.1208 131.383C85.1208 130.916 85.2002 130.483 85.3589 130.086C85.5265 129.69 85.7559 129.346 86.0469 129.054C86.338 128.763 86.682 128.538 87.0789 128.38C87.4847 128.212 87.9301 128.128 88.4152 128.128C88.6181 128.128 88.8298 128.15 89.0503 128.194C89.2796 128.239 89.5001 128.309 89.7118 128.406C89.9235 128.503 90.1264 128.627 90.3204 128.777C90.5145 128.927 90.682 129.107 90.8232 129.319H90.8496V124.477H91.7228V134.479ZM97.1517 131.396C96.9312 131.396 96.6534 131.41 96.3182 131.436C95.9918 131.454 95.6743 131.507 95.3656 131.595C95.0657 131.674 94.8055 131.802 94.585 131.978C94.3733 132.155 94.2675 132.397 94.2675 132.706C94.2675 132.909 94.3071 133.085 94.3865 133.235C94.4747 133.376 94.5894 133.496 94.7305 133.593C94.8716 133.681 95.026 133.747 95.1936 133.791C95.37 133.826 95.5464 133.844 95.7228 133.844C96.0403 133.844 96.3138 133.791 96.5431 133.685C96.7813 133.579 96.9797 133.438 97.1385 133.262C97.2973 133.077 97.4119 132.865 97.4825 132.627C97.5619 132.38 97.6016 132.12 97.6016 131.846V131.396H97.1517ZM97.6016 130.682V130.523C97.6016 129.456 97.0723 128.922 96.0139 128.922C95.2906 128.922 94.66 129.165 94.1219 129.65L93.5927 129.028C94.1748 128.428 95.0481 128.128 96.2123 128.128C96.5122 128.128 96.7989 128.172 97.0723 128.261C97.3546 128.349 97.5971 128.486 97.8 128.671C98.0029 128.847 98.1661 129.072 98.2895 129.346C98.413 129.619 98.4748 129.945 98.4748 130.325V133.09C98.4748 133.328 98.4836 133.579 98.5012 133.844C98.5277 134.1 98.5542 134.311 98.5806 134.479H97.7339C97.7074 134.329 97.6853 134.166 97.6677 133.989C97.6589 133.813 97.6545 133.641 97.6545 133.473H97.628C97.3722 133.888 97.0679 134.188 96.7151 134.373C96.3711 134.55 95.9477 134.638 95.445 134.638C95.1715 134.638 94.9069 134.598 94.6511 134.519C94.3953 134.448 94.166 134.338 93.9632 134.188C93.7691 134.029 93.6103 133.84 93.4869 133.619C93.3722 133.39 93.3149 133.125 93.3149 132.825C93.3149 132.322 93.4427 131.93 93.6985 131.648C93.9632 131.357 94.2895 131.14 94.6776 130.999C95.0745 130.858 95.4935 130.77 95.9345 130.735C96.3843 130.699 96.7945 130.682 97.1649 130.682H97.6016ZM102.795 133.407L104.687 128.287H105.746L102.65 136.093C102.465 136.569 102.226 136.949 101.935 137.231C101.653 137.513 101.243 137.654 100.705 137.654C100.573 137.654 100.436 137.65 100.295 137.641C100.162 137.632 100.03 137.606 99.8978 137.562L99.9904 136.715C100.176 136.812 100.396 136.861 100.652 136.861C100.961 136.861 101.203 136.763 101.38 136.569C101.556 136.375 101.71 136.102 101.843 135.749L102.293 134.558L99.7522 128.287H100.85L102.795 133.407ZM110.157 129.756C110.025 129.5 109.848 129.297 109.628 129.147C109.407 128.997 109.138 128.922 108.821 128.922C108.671 128.922 108.516 128.94 108.358 128.975C108.208 129.01 108.071 129.068 107.948 129.147C107.824 129.218 107.723 129.31 107.643 129.425C107.573 129.54 107.537 129.681 107.537 129.848C107.537 130.139 107.639 130.351 107.842 130.483C108.045 130.616 108.349 130.73 108.755 130.827L109.641 131.039C110.073 131.136 110.43 131.335 110.713 131.634C111.004 131.926 111.149 132.292 111.149 132.733C111.149 133.068 111.079 133.359 110.938 133.606C110.805 133.844 110.625 134.042 110.395 134.201C110.175 134.351 109.919 134.461 109.628 134.532C109.337 134.602 109.041 134.638 108.741 134.638C108.265 134.638 107.82 134.55 107.405 134.373C106.999 134.188 106.651 133.875 106.36 133.434L107.114 132.918C107.29 133.2 107.511 133.425 107.776 133.593C108.049 133.76 108.371 133.844 108.741 133.844C108.918 133.844 109.094 133.826 109.271 133.791C109.447 133.747 109.601 133.685 109.734 133.606C109.875 133.518 109.985 133.407 110.064 133.275C110.153 133.143 110.197 132.988 110.197 132.812C110.197 132.503 110.082 132.283 109.853 132.15C109.623 132.009 109.346 131.899 109.019 131.82L108.172 131.621C108.067 131.595 107.921 131.551 107.736 131.489C107.559 131.427 107.383 131.335 107.207 131.211C107.039 131.088 106.894 130.929 106.77 130.735C106.647 130.532 106.585 130.285 106.585 129.994C106.585 129.676 106.647 129.398 106.77 129.16C106.902 128.922 107.074 128.728 107.286 128.578C107.507 128.428 107.753 128.318 108.027 128.247C108.3 128.168 108.583 128.128 108.874 128.128C109.306 128.128 109.707 128.212 110.078 128.38C110.448 128.547 110.735 128.834 110.938 129.24L110.157 129.756Z" fill="#777FA1"/>
<circle cx="159.416" cy="108.463" r="21.65" fill="#F1F2F6"/>
<path d="M153.307 97.0478C153.608 97.0478 153.909 97.3485 153.909 97.6492V99.4534H161.125V97.6492C161.125 97.3485 161.389 97.0478 161.727 97.0478C162.028 97.0478 162.328 97.3485 162.328 97.6492V99.4534H163.531C164.847 99.4534 165.937 100.543 165.937 101.859V103.062V104.264V113.887C165.937 115.24 164.847 116.292 163.531 116.292H151.503C150.15 116.292 149.098 115.24 149.098 113.887V104.264V103.062V101.859C149.098 100.543 150.15 99.4534 151.503 99.4534H152.706V97.6492C152.706 97.3485 152.969 97.0478 153.307 97.0478ZM164.734 104.264H150.3V113.887C150.3 114.563 150.827 115.089 151.503 115.089H163.531C164.17 115.089 164.734 114.563 164.734 113.887V104.264ZM163.531 100.656H151.503C150.827 100.656 150.3 101.22 150.3 101.859V103.062H164.734V101.859C164.734 101.22 164.17 100.656 163.531 100.656Z" fill="#777FA1"/>
</svg>
