<svg width="171" height="133" viewBox="0 0 171 133" fill="none" xmlns="http://www.w3.org/2000/svg">
<rect x="0.333984" width="170.333" height="132.091" rx="20" fill="white"/>
<path d="M24.744 19.836C25.3133 19.836 25.8407 19.9247 26.326 20.102C26.8113 20.2793 27.2313 20.5313 27.586 20.858L26.298 22.216C26.1113 21.9547 25.864 21.7587 25.556 21.628C25.2573 21.4973 24.926 21.432 24.562 21.432C24.0673 21.432 23.6707 21.5487 23.372 21.782C23.0827 22.0153 22.938 22.3233 22.938 22.706C22.938 23.0233 23.064 23.2847 23.316 23.49C23.568 23.6953 23.9553 23.882 24.478 24.05C25.178 24.2647 25.738 24.4747 26.158 24.68C26.578 24.876 26.928 25.17 27.208 25.562C27.4973 25.9447 27.642 26.4533 27.642 27.088C27.642 27.7507 27.4833 28.32 27.166 28.796C26.8487 29.272 26.4193 29.636 25.878 29.888C25.346 30.1307 24.7487 30.252 24.086 30.252C23.3673 30.252 22.728 30.1447 22.168 29.93C21.6173 29.706 21.1507 29.3653 20.768 28.908L22.098 27.62C22.3127 27.9467 22.5927 28.2033 22.938 28.39C23.2833 28.5673 23.6567 28.656 24.058 28.656C24.3753 28.656 24.6647 28.6 24.926 28.488C25.1967 28.3667 25.4067 28.2033 25.556 27.998C25.7147 27.7927 25.794 27.5593 25.794 27.298C25.794 27.046 25.7333 26.8313 25.612 26.654C25.5 26.4767 25.3133 26.318 25.052 26.178C24.8 26.038 24.4547 25.9027 24.016 25.772C23.3533 25.5667 22.812 25.352 22.392 25.128C21.9813 24.904 21.6593 24.61 21.426 24.246C21.202 23.8727 21.09 23.4013 21.09 22.832C21.09 22.244 21.244 21.726 21.552 21.278C21.86 20.8207 22.2893 20.466 22.84 20.214C23.4 19.962 24.0347 19.836 24.744 19.836ZM30.179 19.99C30.3844 19.99 30.5664 20.0367 30.725 20.13C30.893 20.214 31.0237 20.3353 31.117 20.494C31.2197 20.6433 31.271 20.8113 31.271 20.998C31.271 21.194 31.2197 21.3713 31.117 21.53C31.0237 21.6793 30.893 21.796 30.725 21.88C30.557 21.964 30.375 22.006 30.179 22.006C29.983 22.006 29.801 21.9593 29.633 21.866C29.4744 21.7727 29.3484 21.6513 29.255 21.502C29.1617 21.3433 29.115 21.1753 29.115 20.998C29.115 20.8207 29.1617 20.6573 29.255 20.508C29.3484 20.3493 29.4744 20.2233 29.633 20.13C29.801 20.0367 29.983 19.99 30.179 19.99ZM31.033 30H29.353V23.28H31.033V30ZM36.2798 23.112C36.7464 23.112 37.1944 23.2007 37.6238 23.378C38.0531 23.546 38.4171 23.798 38.7158 24.134L37.5538 25.296C37.1244 24.848 36.6998 24.624 36.2798 24.624C35.8878 24.624 35.5424 24.7173 35.2438 24.904C34.9451 25.0813 34.7118 25.324 34.5438 25.632C34.3851 25.94 34.3058 26.276 34.3058 26.64C34.3058 27.0227 34.3898 27.368 34.5578 27.676C34.7351 27.984 34.9731 28.2267 35.2718 28.404C35.5704 28.572 35.9064 28.656 36.2798 28.656C36.5318 28.656 36.7744 28.6 37.0078 28.488C37.2411 28.376 37.4324 28.222 37.5818 28.026L38.7018 29.23C38.4218 29.5007 38.0531 29.7247 37.5958 29.902C37.1478 30.0793 36.7091 30.168 36.2798 30.168C35.5984 30.168 34.9778 30.0187 34.4178 29.72C33.8671 29.4213 33.4284 29.006 33.1018 28.474C32.7844 27.9327 32.6258 27.3213 32.6258 26.64C32.6258 25.9867 32.7798 25.394 33.0878 24.862C33.3958 24.3207 33.8251 23.896 34.3758 23.588C34.9358 23.2707 35.5704 23.112 36.2798 23.112ZM41.3957 26.066L43.9857 23.28H46.1417L43.2577 26.332L46.3237 30H44.0977L41.4237 26.57H41.3957V30H39.7157V19.416H41.3957V26.066ZM53.2958 28.404H57.5098V30H51.5318V20.088H53.2958V28.404ZM61.9555 23.112C62.6462 23.112 63.2249 23.2707 63.6915 23.588C64.1675 23.9053 64.5222 24.3393 64.7555 24.89C64.9889 25.4407 65.1055 26.0613 65.1055 26.752V27.228H59.9815C60.0189 27.5453 60.1169 27.8253 60.2755 28.068C60.4435 28.3107 60.6582 28.4973 60.9195 28.628C61.1809 28.7587 61.4702 28.824 61.7875 28.824C62.1609 28.824 62.4922 28.7493 62.7815 28.6C63.0802 28.4413 63.3509 28.2127 63.5935 27.914L64.7975 28.824C64.4335 29.272 64.0135 29.608 63.5375 29.832C63.0615 30.056 62.5342 30.168 61.9555 30.168C61.2742 30.168 60.6535 30.0187 60.0935 29.72C59.5429 29.4213 59.1042 29.006 58.7775 28.474C58.4602 27.9327 58.3015 27.3213 58.3015 26.64C58.3015 25.9587 58.4602 25.352 58.7775 24.82C59.1042 24.2787 59.5429 23.8587 60.0935 23.56C60.6535 23.2613 61.2742 23.112 61.9555 23.112ZM63.4255 25.968C63.4162 25.4547 63.2529 25.0627 62.9355 24.792C62.6275 24.512 62.2169 24.372 61.7035 24.372C61.2182 24.372 60.8262 24.5167 60.5275 24.806C60.2289 25.0953 60.0469 25.4827 59.9815 25.968H63.4255ZM69.5186 23.112C70.5826 23.112 71.3246 23.3687 71.7446 23.882C72.1739 24.3953 72.3886 25.0953 72.3886 25.982V30H70.8766V29.076H70.8346C70.6013 29.44 70.2979 29.7153 69.9246 29.902C69.5606 30.0793 69.1453 30.168 68.6786 30.168C68.2213 30.168 67.8059 30.084 67.4326 29.916C67.0593 29.748 66.7653 29.5147 66.5506 29.216C66.3359 28.908 66.2286 28.5533 66.2286 28.152C66.2286 27.368 66.5599 26.7847 67.2226 26.402C67.8853 26.01 68.9306 25.814 70.3586 25.814H70.8766V25.618C70.8766 25.226 70.7366 24.9227 70.4566 24.708C70.1766 24.484 69.8033 24.372 69.3366 24.372C69.0006 24.372 68.6786 24.4373 68.3706 24.568C68.0626 24.6893 67.7873 24.8573 67.5446 25.072L66.6626 24.19C66.9893 23.8633 67.3906 23.602 67.8666 23.406C68.3426 23.21 68.8933 23.112 69.5186 23.112ZM67.9086 28.026C67.9086 28.2967 68.0206 28.5113 68.2446 28.67C68.4779 28.8287 68.7626 28.908 69.0986 28.908C69.6493 28.908 70.0646 28.7727 70.3446 28.502C70.6339 28.222 70.7786 27.858 70.7786 27.41V26.99H70.2886C69.5233 26.99 68.9353 27.0787 68.5246 27.256C68.1139 27.424 67.9086 27.6807 67.9086 28.026ZM76.9121 27.984H76.9401L78.7461 23.28H80.4681L77.8221 30H76.0301L73.2861 23.28H75.1201L76.9121 27.984ZM84.7739 23.112C85.4646 23.112 86.0432 23.2707 86.5099 23.588C86.9859 23.9053 87.3406 24.3393 87.5739 24.89C87.8072 25.4407 87.9239 26.0613 87.9239 26.752V27.228H82.7999C82.8372 27.5453 82.9352 27.8253 83.0939 28.068C83.2619 28.3107 83.4766 28.4973 83.7379 28.628C83.9992 28.7587 84.2886 28.824 84.6059 28.824C84.9792 28.824 85.3106 28.7493 85.5999 28.6C85.8986 28.4413 86.1692 28.2127 86.4119 27.914L87.6159 28.824C87.2519 29.272 86.8319 29.608 86.3559 29.832C85.8799 30.056 85.3526 30.168 84.7739 30.168C84.0926 30.168 83.4719 30.0187 82.9119 29.72C82.3612 29.4213 81.9226 29.006 81.5959 28.474C81.2786 27.9327 81.1199 27.3213 81.1199 26.64C81.1199 25.9587 81.2786 25.352 81.5959 24.82C81.9226 24.2787 82.3612 23.8587 82.9119 23.56C83.4719 23.2613 84.0926 23.112 84.7739 23.112ZM86.2439 25.968C86.2346 25.4547 86.0712 25.0627 85.7539 24.792C85.4459 24.512 85.0352 24.372 84.5219 24.372C84.0366 24.372 83.6446 24.5167 83.3459 24.806C83.0472 25.0953 82.8652 25.4827 82.7999 25.968H86.2439ZM91.791 23.112C92.3136 23.112 92.785 23.2007 93.205 23.378C93.625 23.5553 93.9563 23.8073 94.199 24.134L93.079 25.142C92.911 24.9087 92.7196 24.736 92.505 24.624C92.2903 24.512 92.043 24.456 91.763 24.456C91.483 24.456 91.2496 24.5213 91.063 24.652C90.8763 24.7827 90.783 24.9553 90.783 25.17C90.783 25.3193 90.839 25.4453 90.951 25.548C91.063 25.6413 91.203 25.716 91.371 25.772C91.5483 25.8187 91.791 25.8747 92.099 25.94L92.379 26.01C92.7896 26.1033 93.1396 26.22 93.429 26.36C93.7183 26.4907 93.9516 26.6913 94.129 26.962C94.3156 27.2233 94.409 27.5733 94.409 28.012C94.409 28.4693 94.283 28.8613 94.031 29.188C93.779 29.5147 93.4336 29.762 92.995 29.93C92.5563 30.0887 92.057 30.168 91.497 30.168C90.9463 30.168 90.4563 30.0887 90.027 29.93C89.5976 29.7713 89.2196 29.5053 88.893 29.132L90.013 28.082C90.293 28.39 90.5543 28.6047 90.797 28.726C91.0396 28.8473 91.3103 28.908 91.609 28.908C91.9263 28.908 92.1923 28.838 92.407 28.698C92.6216 28.5487 92.729 28.362 92.729 28.138C92.729 27.942 92.6543 27.788 92.505 27.676C92.365 27.5547 92.211 27.4707 92.043 27.424C91.875 27.3773 91.5483 27.298 91.063 27.186C90.671 27.0927 90.3396 26.9853 90.069 26.864C89.7983 26.7427 89.5696 26.556 89.383 26.304C89.1963 26.052 89.103 25.7113 89.103 25.282C89.103 24.7687 89.2383 24.3533 89.509 24.036C89.789 23.7093 90.1296 23.476 90.531 23.336C90.9416 23.1867 91.3616 23.112 91.791 23.112Z" fill="black"/>
<path d="M32.75 90.7627H28.91V72.5227L24.654 76.4587L22.414 73.8027L29.262 68.1067H32.75V90.7627ZM48.9995 67.7227C50.4715 67.7227 51.7515 67.9787 52.8395 68.4907C53.9488 68.9814 54.8022 69.7174 55.3995 70.6987C56.0182 71.6587 56.3275 72.8107 56.3275 74.1547C56.3275 75.3494 56.0502 76.4694 55.4955 77.5147C54.9622 78.56 54.0875 79.648 52.8715 80.7787L45.8315 87.3067H56.3275V90.7627H41.1595V86.6987L49.9595 78.1867C50.8768 77.312 51.4955 76.5974 51.8155 76.0427C52.1355 75.488 52.2955 74.9227 52.2955 74.3467C52.2955 73.7494 52.1462 73.2267 51.8475 72.7787C51.5488 72.3307 51.1435 71.9894 50.6315 71.7547C50.1408 71.4987 49.5968 71.3707 48.9995 71.3707C48.0822 71.3707 47.3035 71.648 46.6635 72.2027C46.0235 72.7574 45.6395 73.504 45.5115 74.4427L41.4795 74.1227C41.6075 72.7574 42.0022 71.5947 42.6635 70.6347C43.3248 69.6747 44.1995 68.9494 45.2875 68.4587C46.3755 67.968 47.6128 67.7227 48.9995 67.7227Z" fill="black"/>
<path d="M24.921 104.105C26.109 104.105 27.0843 104.493 27.847 105.271C28.6097 106.048 28.991 107.023 28.991 108.197C28.991 109.37 28.606 110.345 27.836 111.123C27.0733 111.9 26.1017 112.289 24.921 112.289C23.7403 112.289 22.765 111.9 21.995 111.123C21.2323 110.345 20.851 109.37 20.851 108.197C20.851 107.023 21.2323 106.048 21.995 105.271C22.765 104.493 23.7403 104.105 24.921 104.105ZM22.71 105.898C22.1307 106.514 21.841 107.28 21.841 108.197C21.841 109.113 22.1307 109.883 22.71 110.507C23.2893 111.123 24.0263 111.431 24.921 111.431C25.8083 111.431 26.5417 111.123 27.121 110.507C27.7077 109.883 28.001 109.113 28.001 108.197C28.001 107.28 27.7077 106.514 27.121 105.898C26.5417 105.274 25.8047 104.963 24.91 104.963C24.03 104.963 23.2967 105.274 22.71 105.898ZM31.1798 106.943V110.067C31.1798 110.477 31.2751 110.807 31.4658 111.057C31.6638 111.306 31.9608 111.431 32.3568 111.431C32.8775 111.431 33.2735 111.258 33.5448 110.914C33.8161 110.569 33.9518 110.096 33.9518 109.495V106.943H34.8098V110.947C34.8098 111.057 34.8171 111.255 34.8318 111.541C34.8465 111.819 34.8538 112.003 34.8538 112.091H34.0398C34.0398 111.966 34.0361 111.823 34.0288 111.662C34.0215 111.493 34.0178 111.354 34.0178 111.244H33.9958C33.8638 111.537 33.6401 111.775 33.3248 111.959C33.0095 112.135 32.6575 112.223 32.2688 112.223C31.6455 112.223 31.1651 112.039 30.8278 111.673C30.4905 111.306 30.3218 110.804 30.3218 110.166V106.943H31.1798ZM37.7321 105.48V106.943H39.2501V107.669H37.7321V110.419C37.7321 110.807 37.7945 111.075 37.9191 111.222C38.0438 111.361 38.2381 111.431 38.5021 111.431C38.7955 111.431 39.0485 111.372 39.2611 111.255L39.2941 112.036C39.0008 112.16 38.6671 112.223 38.2931 112.223C37.7871 112.223 37.4241 112.102 37.2041 111.86C36.9841 111.61 36.8741 111.174 36.8741 110.551V107.669H35.7521V106.943H36.8741V105.48H37.7321ZM45.8158 106.811C46.6152 106.811 47.2715 107.064 47.7848 107.57C48.3055 108.076 48.5658 108.725 48.5658 109.517C48.5658 110.309 48.3055 110.958 47.7848 111.464C47.2715 111.97 46.6152 112.223 45.8158 112.223C45.0165 112.223 44.3565 111.97 43.8358 111.464C43.3225 110.958 43.0658 110.309 43.0658 109.517C43.0658 108.725 43.3225 108.076 43.8358 107.57C44.3492 107.064 45.0092 106.811 45.8158 106.811ZM43.9898 109.517C43.9898 110.074 44.1585 110.532 44.4958 110.892C44.8405 111.251 45.2805 111.431 45.8158 111.431C46.3585 111.431 46.7985 111.251 47.1358 110.892C47.4732 110.525 47.6418 110.067 47.6418 109.517C47.6418 108.967 47.4732 108.512 47.1358 108.153C46.7985 107.786 46.3548 107.603 45.8048 107.603C45.2695 107.603 44.8332 107.786 44.4958 108.153C44.1585 108.512 43.9898 108.967 43.9898 109.517ZM52.1491 103.643C52.4351 103.643 52.6587 103.687 52.8201 103.775L52.6991 104.545C52.5011 104.471 52.3067 104.435 52.1161 104.435C51.7787 104.435 51.5404 104.53 51.4011 104.721C51.2617 104.911 51.1921 105.267 51.1921 105.788V106.943H52.4461V107.669H51.1921V112.091H50.3341V107.669H49.2121V106.943H50.3341V105.777C50.3341 104.354 50.9391 103.643 52.1491 103.643ZM59.5713 104.303V112.091H58.6473V105.491H58.6253L57.2283 106.668L56.6783 105.997L58.7683 104.303H59.5713ZM66.9376 104.303V105.161H63.7586L63.7256 107.262C63.997 107.137 64.3306 107.075 64.7266 107.075C65.4526 107.075 66.0466 107.313 66.5086 107.79C66.978 108.266 67.2126 108.882 67.2126 109.638C67.2126 110.393 66.9596 111.013 66.4536 111.497C65.955 111.981 65.317 112.223 64.5396 112.223C63.4763 112.223 62.71 111.75 62.2406 110.804L63.1646 110.452C63.4653 111.104 63.9493 111.431 64.6166 111.431C65.1006 111.431 65.5003 111.266 65.8156 110.936C66.131 110.598 66.2886 110.166 66.2886 109.638C66.2886 109.102 66.1126 108.673 65.7606 108.351C65.416 108.028 64.9503 107.867 64.3636 107.867C63.865 107.867 63.337 108.028 62.7796 108.351L62.8566 104.303H66.9376ZM76.8485 103.775V112.091H75.9905V111.178H75.9685C75.7925 111.5 75.5248 111.757 75.1655 111.948C74.8061 112.131 74.4138 112.223 73.9885 112.223C73.2625 112.223 72.6501 111.962 72.1515 111.442C71.6601 110.921 71.4145 110.279 71.4145 109.517C71.4145 108.732 71.6638 108.087 72.1625 107.581C72.6685 107.067 73.3211 106.811 74.1205 106.811C74.8611 106.811 75.4771 107.104 75.9685 107.691H75.9905V103.775H76.8485ZM72.3385 109.517C72.3385 110.074 72.5071 110.532 72.8445 110.892C73.1891 111.251 73.6291 111.431 74.1645 111.431C74.7071 111.431 75.1471 111.251 75.4845 110.892C75.8218 110.525 75.9905 110.067 75.9905 109.517C75.9905 108.959 75.8218 108.501 75.4845 108.142C75.1471 107.782 74.7035 107.603 74.1535 107.603C73.6181 107.603 73.1818 107.786 72.8445 108.153C72.5071 108.512 72.3385 108.967 72.3385 109.517ZM80.4161 106.811C81.1494 106.811 81.6921 106.987 82.0441 107.339C82.3961 107.691 82.5721 108.222 82.5721 108.934V111.244C82.5721 111.478 82.5977 111.761 82.6491 112.091H81.8241C81.7874 111.981 81.7691 111.724 81.7691 111.321H81.7471C81.3511 111.922 80.7864 112.223 80.0531 112.223C79.4884 112.223 79.0264 112.083 78.6671 111.805C78.3151 111.526 78.1391 111.156 78.1391 110.694C78.1391 110.085 78.3884 109.634 78.8871 109.341C79.3857 109.04 80.1961 108.89 81.3181 108.89H81.7141V108.747C81.7141 108.373 81.6004 108.09 81.3731 107.9C81.1531 107.702 80.8414 107.603 80.4381 107.603C79.8147 107.603 79.3051 107.79 78.9091 108.164L78.3701 107.603C78.8981 107.075 79.5801 106.811 80.4161 106.811ZM79.0631 110.606C79.0631 111.2 79.4407 111.497 80.1961 111.497C80.6507 111.497 81.0174 111.35 81.2961 111.057C81.5747 110.763 81.7141 110.349 81.7141 109.814V109.616H80.7681C80.2474 109.616 79.8331 109.7 79.5251 109.869C79.2171 110.037 79.0631 110.283 79.0631 110.606ZM84.4372 106.943L86.0322 110.98H86.0542L87.5832 106.943H88.5182L85.9992 113.356C85.7938 113.876 85.5628 114.236 85.3062 114.434C85.0568 114.632 84.7268 114.731 84.3162 114.731C84.0082 114.731 83.7515 114.687 83.5462 114.599L83.6562 113.851C83.7882 113.909 83.9898 113.939 84.2612 113.939C84.4812 113.939 84.6645 113.88 84.8112 113.763C84.9578 113.645 85.0825 113.451 85.1852 113.18L85.5702 112.124L83.4362 106.943H84.4372ZM91.0198 106.811C91.8558 106.811 92.4388 107.122 92.7688 107.746L92.0538 108.219C91.8045 107.808 91.4415 107.603 90.9648 107.603C90.6715 107.603 90.4295 107.669 90.2388 107.801C90.0481 107.933 89.9528 108.105 89.9528 108.318C89.9528 108.655 90.3818 108.904 91.2398 109.066C91.8485 109.183 92.2811 109.363 92.5378 109.605C92.8018 109.847 92.9338 110.18 92.9338 110.606C92.9338 111.104 92.7468 111.5 92.3728 111.794C91.9988 112.08 91.5001 112.223 90.8768 112.223C89.9748 112.223 89.3075 111.904 88.8748 111.266L89.5568 110.738C89.9381 111.2 90.3781 111.431 90.8768 111.431C91.2068 111.431 91.4781 111.361 91.6908 111.222C91.9035 111.075 92.0098 110.881 92.0098 110.639C92.0098 110.404 91.9108 110.228 91.7128 110.111C91.5148 109.986 91.1298 109.861 90.5578 109.737C90.0445 109.627 89.6705 109.462 89.4358 109.242C89.2085 109.014 89.0948 108.71 89.0948 108.329C89.0948 107.874 89.2781 107.507 89.6448 107.229C90.0188 106.95 90.4771 106.811 91.0198 106.811Z" fill="#777FA1"/>
<circle cx="132.668" cy="89.9268" r="18" fill="#F1F2F6"/>
<path d="M133.314 82.125L141.814 89.625C142.033 89.8125 142.033 90.125 141.877 90.3438C141.689 90.5625 141.377 90.5625 141.158 90.375L140.002 89.3438V95.5C140.002 96.9062 138.877 98 137.502 98H128.502C127.096 98 126.002 96.9062 126.002 95.5V89.3438L124.814 90.375C124.627 90.5625 124.283 90.5625 124.127 90.3438C123.939 90.125 123.939 89.8125 124.158 89.625L132.658 82.125C132.846 81.9688 133.127 81.9688 133.314 82.125ZM127.002 95.5C127.002 96.3438 127.658 97 128.502 97H137.502C138.314 97 139.002 96.3438 139.002 95.5V88.4688L133.002 83.1875L127.002 88.4688V95.5ZM132.502 87.5H133.502C134.033 87.5 134.502 87.9688 134.502 88.5V89.5H135.502C136.033 89.5 136.502 89.9688 136.502 90.5V91.5C136.502 92.0625 136.033 92.5 135.502 92.5H134.502V93.5C134.502 94.0625 134.033 94.5 133.502 94.5H132.502C131.939 94.5 131.502 94.0625 131.502 93.5V92.5H130.502C129.939 92.5 129.502 92.0625 129.502 91.5V90.5C129.502 89.9688 129.939 89.5 130.502 89.5H131.502V88.5C131.502 87.9688 131.939 87.5 132.502 87.5ZM132.502 88.5V90C132.502 90.1562 132.439 90.2812 132.346 90.375C132.252 90.4688 132.127 90.5 132.002 90.5H130.502V91.5H132.002C132.252 91.5 132.502 91.75 132.502 92V93.5H133.502V92C133.502 91.75 133.721 91.5 134.002 91.5H135.502V90.5H134.002C133.721 90.5 133.502 90.2812 133.502 90V88.5H132.502Z" fill="#777FA1"/>
</svg>
