<svg width="206" height="159" viewBox="0 0 206 159" fill="none" xmlns="http://www.w3.org/2000/svg">
<rect x="0.988281" y="0.972168" width="204.873" height="157.562" rx="24.0556" fill="white"/>
<path d="M32.2163 27.6654C31.9918 27.3399 31.6887 27.1041 31.307 26.9582C30.9366 26.801 30.5437 26.7224 30.1283 26.7224C29.8813 26.7224 29.64 26.7505 29.4042 26.8066C29.1797 26.8628 28.972 26.9526 28.7812 27.076C28.6016 27.1995 28.4557 27.3623 28.3434 27.5644C28.2311 27.7552 28.175 27.9853 28.175 28.2548C28.175 28.6589 28.3153 28.9676 28.596 29.1809C28.8766 29.3942 29.2246 29.5794 29.64 29.7366C30.0553 29.8938 30.51 30.0453 31.0039 30.1912C31.4979 30.3372 31.9525 30.5392 32.3679 30.7974C32.7832 31.0556 33.1312 31.398 33.4119 31.8246C33.6925 32.2512 33.8329 32.8181 33.8329 33.5253C33.8329 34.1652 33.715 34.7265 33.4793 35.2092C33.2435 35.6807 32.9236 36.0736 32.5194 36.388C32.1265 36.7023 31.6663 36.938 31.1386 37.0952C30.611 37.2524 30.0553 37.3309 29.4716 37.3309C28.7307 37.3309 28.0178 37.2074 27.3331 36.9605C26.6483 36.7135 26.0589 36.2981 25.565 35.7144L27.1647 34.1652C27.4229 34.5581 27.7596 34.8668 28.175 35.0914C28.6016 35.3047 29.0506 35.4113 29.5221 35.4113C29.7691 35.4113 30.0161 35.3776 30.263 35.3103C30.51 35.2429 30.7345 35.1419 30.9366 35.0072C31.1386 34.8725 31.3014 34.7041 31.4249 34.502C31.5484 34.2887 31.6101 34.0473 31.6101 33.7779C31.6101 33.3401 31.4698 33.0033 31.1892 32.7676C30.9085 32.5318 30.5605 32.3354 30.1452 32.1782C29.7298 32.0098 29.2751 31.8527 28.7812 31.7067C28.2873 31.5608 27.8326 31.3644 27.4173 31.1174C27.0019 30.8592 26.6539 30.5224 26.3732 30.107C26.0926 29.6805 25.9523 29.1136 25.9523 28.4063C25.9523 27.7889 26.0758 27.2557 26.3227 26.8066C26.5809 26.3576 26.9121 25.9871 27.3162 25.6953C27.7316 25.3922 28.2031 25.1676 28.7307 25.0217C29.2583 24.8758 29.7971 24.8028 30.3472 24.8028C30.9759 24.8028 31.5821 24.8982 32.1658 25.0891C32.7608 25.2799 33.294 25.5942 33.7655 26.032L32.2163 27.6654ZM35.8909 28.9452H37.9116V37.0278H35.8909V28.9452ZM35.6046 26.2004C35.6046 25.8749 35.7225 25.5942 35.9583 25.3585C36.2052 25.1115 36.5139 24.988 36.8844 24.988C37.2548 24.988 37.5636 25.1059 37.8105 25.3416C38.0687 25.5662 38.1978 25.8524 38.1978 26.2004C38.1978 26.5484 38.0687 26.8403 37.8105 27.076C37.5636 27.3006 37.2548 27.4128 36.8844 27.4128C36.5139 27.4128 36.2052 27.295 35.9583 27.0592C35.7225 26.8122 35.6046 26.526 35.6046 26.2004ZM45.7545 31.37C45.5188 31.123 45.2718 30.9265 45.0136 30.7806C44.7554 30.6347 44.4916 30.5617 44.2222 30.5617C43.8517 30.5617 43.5206 30.6291 43.2287 30.7638C42.9368 30.8985 42.6842 31.0781 42.471 31.3026C42.2689 31.5271 42.1117 31.7853 41.9995 32.0772C41.8984 32.3691 41.8479 32.6722 41.8479 32.9865C41.8479 33.3008 41.8984 33.6039 41.9995 33.8958C42.1117 34.1877 42.2689 34.4459 42.471 34.6704C42.6842 34.8949 42.9368 35.0745 43.2287 35.2092C43.5206 35.3439 43.8517 35.4113 44.2222 35.4113C44.5365 35.4113 44.8284 35.3496 45.0978 35.2261C45.3672 35.0914 45.5974 34.9005 45.7882 34.6535L47.1353 36.1017C46.9333 36.3038 46.6975 36.4778 46.4281 36.6237C46.1699 36.7696 45.9061 36.8875 45.6367 36.9773C45.3672 37.0671 45.109 37.1289 44.8621 37.1625C44.6151 37.2074 44.4018 37.2299 44.2222 37.2299C43.616 37.2299 43.0435 37.1289 42.5046 36.9268C41.9658 36.7247 41.4999 36.4385 41.107 36.068C40.7141 35.6976 40.3998 35.2541 40.164 34.7377C39.9395 34.2101 39.8272 33.6264 39.8272 32.9865C39.8272 32.3466 39.9395 31.7685 40.164 31.2521C40.3998 30.7245 40.7141 30.2754 41.107 29.905C41.4999 29.5345 41.9658 29.2483 42.5046 29.0462C43.0435 28.8441 43.616 28.7431 44.2222 28.7431C44.7386 28.7431 45.255 28.8441 45.7714 29.0462C46.299 29.237 46.7593 29.5458 47.1522 29.9723L45.7545 31.37ZM48.3548 24.2976H50.3755V32.2961L53.4907 28.9452H56.0839L52.6151 32.616L56.3028 37.0278H53.6254L50.4092 32.9023H50.3755V37.0278H48.3548V24.2976ZM62.567 25.1059H64.6887V35.1082H69.7572V37.0278H62.567V25.1059ZM72.7302 33.6937C72.7975 34.2999 73.0333 34.7714 73.4374 35.1082C73.8415 35.445 74.3299 35.6134 74.9024 35.6134C75.4076 35.6134 75.8285 35.5123 76.1653 35.3103C76.5133 35.097 76.8164 34.8332 77.0746 34.5188L78.5228 35.6134C78.0513 36.1971 77.5236 36.6125 76.9399 36.8594C76.3561 37.1064 75.7443 37.2299 75.1045 37.2299C74.4983 37.2299 73.9257 37.1289 73.3869 36.9268C72.848 36.7247 72.3822 36.4385 71.9893 36.068C71.5964 35.6976 71.282 35.2541 71.0463 34.7377C70.8218 34.2101 70.7095 33.6264 70.7095 32.9865C70.7095 32.3466 70.8218 31.7685 71.0463 31.2521C71.282 30.7245 71.5964 30.2754 71.9893 29.905C72.3822 29.5345 72.848 29.2483 73.3869 29.0462C73.9257 28.8441 74.4983 28.7431 75.1045 28.7431C75.6658 28.7431 76.1765 28.8441 76.6368 29.0462C77.1083 29.237 77.5068 29.5177 77.8324 29.8881C78.1691 30.2586 78.4273 30.7189 78.6069 31.2689C78.7978 31.8078 78.8932 32.4308 78.8932 33.138V33.6937H72.7302ZM76.8725 32.1782C76.8613 31.5833 76.6761 31.1174 76.3169 30.7806C75.9576 30.4326 75.4581 30.2586 74.8182 30.2586C74.212 30.2586 73.7293 30.4326 73.3701 30.7806C73.022 31.1286 72.8088 31.5945 72.7302 32.1782H76.8725ZM85.8345 35.9165H85.784C85.4921 36.3767 85.1217 36.7135 84.6726 36.9268C84.2236 37.1289 83.7297 37.2299 83.1908 37.2299C82.8204 37.2299 82.4555 37.1794 82.0963 37.0783C81.7483 36.9773 81.434 36.8258 81.1533 36.6237C80.8839 36.4216 80.665 36.169 80.4966 35.8659C80.3282 35.5628 80.244 35.2092 80.244 34.8051C80.244 34.3673 80.3226 33.9968 80.4797 33.6937C80.6369 33.3794 80.8446 33.1212 81.1028 32.9191C81.3722 32.7059 81.6809 32.5375 82.0289 32.414C82.3769 32.2905 82.7362 32.2007 83.1066 32.1446C83.4883 32.0772 83.87 32.0379 84.2517 32.0267C84.6333 32.0042 84.9926 31.993 85.3293 31.993H85.8345V31.7741C85.8345 31.2689 85.6605 30.8929 85.3125 30.6459C84.9645 30.3877 84.5211 30.2586 83.9822 30.2586C83.5557 30.2586 83.1571 30.3372 82.7867 30.4943C82.4162 30.6403 82.0963 30.8423 81.8269 31.1005L80.766 30.0397C81.215 29.5794 81.7371 29.2483 82.332 29.0462C82.9382 28.8441 83.5613 28.7431 84.2011 28.7431C84.7737 28.7431 85.2564 28.8105 85.6493 28.9452C86.0422 29.0687 86.3677 29.2314 86.6259 29.4335C86.8841 29.6356 87.0806 29.8713 87.2153 30.1407C87.3612 30.3989 87.4623 30.6627 87.5184 30.9322C87.5858 31.2016 87.625 31.4654 87.6363 31.7236C87.6475 31.9706 87.6531 32.1895 87.6531 32.3803V37.0278H85.8345V35.9165ZM85.7166 33.4075H85.2957C85.015 33.4075 84.7007 33.4187 84.3527 33.4411C84.0047 33.4636 83.6735 33.5197 83.3592 33.6095C83.0561 33.6881 82.7979 33.8116 82.5846 33.98C82.3713 34.1372 82.2647 34.3617 82.2647 34.6535C82.2647 34.8444 82.304 35.0072 82.3825 35.1419C82.4723 35.2654 82.5846 35.372 82.7193 35.4618C82.854 35.5516 83.0056 35.619 83.174 35.6639C83.3424 35.6976 83.5107 35.7144 83.6791 35.7144C84.3751 35.7144 84.8859 35.5516 85.2115 35.2261C85.5483 34.8893 85.7166 34.4346 85.7166 33.8621V33.4075ZM88.7326 28.9452H90.9385L93.0939 34.603H93.1276L95.2998 28.9452H97.371L94.1884 37.0278H92.0331L88.7326 28.9452ZM100.176 33.6937C100.243 34.2999 100.479 34.7714 100.883 35.1082C101.287 35.445 101.775 35.6134 102.348 35.6134C102.853 35.6134 103.274 35.5123 103.611 35.3103C103.959 35.097 104.262 34.8332 104.52 34.5188L105.968 35.6134C105.497 36.1971 104.969 36.6125 104.385 36.8594C103.802 37.1064 103.19 37.2299 102.55 37.2299C101.944 37.2299 101.371 37.1289 100.832 36.9268C100.293 36.7247 99.8276 36.4385 99.4347 36.068C99.0418 35.6976 98.7274 35.2541 98.4917 34.7377C98.2672 34.2101 98.1549 33.6264 98.1549 32.9865C98.1549 32.3466 98.2672 31.7685 98.4917 31.2521C98.7274 30.7245 99.0418 30.2754 99.4347 29.905C99.8276 29.5345 100.293 29.2483 100.832 29.0462C101.371 28.8441 101.944 28.7431 102.55 28.7431C103.111 28.7431 103.622 28.8441 104.082 29.0462C104.554 29.237 104.952 29.5177 105.278 29.8881C105.615 30.2586 105.873 30.7189 106.052 31.2689C106.243 31.8078 106.339 32.4308 106.339 33.138V33.6937H100.176ZM104.318 32.1782C104.307 31.5833 104.121 31.1174 103.762 30.7806C103.403 30.4326 102.903 30.2586 102.264 30.2586C101.657 30.2586 101.175 30.4326 100.815 30.7806C100.467 31.1286 100.254 31.5945 100.176 32.1782H104.318ZM112.539 31.1847C112.146 30.6347 111.618 30.3596 110.956 30.3596C110.687 30.3596 110.423 30.427 110.165 30.5617C109.907 30.6964 109.777 30.9153 109.777 31.2184C109.777 31.4654 109.884 31.645 110.097 31.7573C110.311 31.8695 110.58 31.9649 110.906 32.0435C111.231 32.1221 111.579 32.2063 111.95 32.2961C112.331 32.3747 112.685 32.5038 113.011 32.6834C113.336 32.8518 113.605 33.0875 113.819 33.3906C114.032 33.6937 114.139 34.1091 114.139 34.6367C114.139 35.1194 114.032 35.5292 113.819 35.8659C113.617 36.1915 113.347 36.4553 113.011 36.6574C112.685 36.8594 112.314 37.0054 111.899 37.0952C111.484 37.185 111.068 37.2299 110.653 37.2299C110.024 37.2299 109.446 37.1401 108.919 36.9605C108.391 36.7809 107.92 36.4553 107.504 35.9838L108.851 34.7209C109.109 35.0128 109.385 35.2541 109.676 35.445C109.98 35.6246 110.344 35.7144 110.771 35.7144C110.917 35.7144 111.068 35.6976 111.226 35.6639C111.383 35.6302 111.529 35.5741 111.663 35.4955C111.798 35.4169 111.905 35.3215 111.983 35.2092C112.073 35.0857 112.118 34.9454 112.118 34.7883C112.118 34.5076 112.011 34.2999 111.798 34.1652C111.585 34.0305 111.315 33.9239 110.99 33.8453C110.664 33.7555 110.311 33.6769 109.929 33.6095C109.559 33.531 109.211 33.4131 108.885 33.2559C108.559 33.0875 108.29 32.8574 108.077 32.5655C107.863 32.2737 107.757 31.8695 107.757 31.3531C107.757 30.9041 107.847 30.5168 108.026 30.1912C108.217 29.8545 108.464 29.5794 108.767 29.3661C109.07 29.1528 109.418 28.9957 109.811 28.8946C110.204 28.7936 110.603 28.7431 111.007 28.7431C111.546 28.7431 112.079 28.8385 112.606 29.0294C113.134 29.209 113.561 29.5233 113.886 29.9723L112.539 31.1847Z" fill="black"/>
<path d="M35.358 87.5096L30.239 92.2437L27.5447 89.0491L35.7814 82.1981H39.9767V109.448H35.358V87.5096ZM50.0914 104.56L60.6759 94.3221C60.9838 94.0142 61.3045 93.6935 61.6381 93.3599C61.9717 93.0007 62.2667 92.6286 62.5233 92.2437C62.8056 91.8588 63.0365 91.4611 63.2161 91.0506C63.3957 90.6143 63.4855 90.1653 63.4855 89.7034C63.4855 89.1389 63.3701 88.6386 63.1392 88.2024C62.9339 87.7662 62.6516 87.3941 62.2924 87.0862C61.9332 86.7783 61.5098 86.5474 61.0223 86.3934C60.5604 86.2138 60.06 86.124 59.5212 86.124C58.3665 86.124 57.4171 86.4575 56.673 87.1247C55.9289 87.7918 55.4799 88.6899 55.3259 89.8189L50.4763 89.434C50.5789 88.1767 50.874 87.0734 51.3615 86.124C51.8747 85.1489 52.529 84.3407 53.3245 83.6992C54.1199 83.0577 55.0437 82.5702 56.0957 82.2366C57.1477 81.903 58.2895 81.7362 59.5212 81.7362C60.7528 81.7362 61.8947 81.903 62.9467 82.2366C64.0244 82.5445 64.961 83.0192 65.7564 83.6607C66.5518 84.2765 67.1805 85.0719 67.6424 86.047C68.1042 87.022 68.3352 88.1639 68.3352 89.4725C68.3352 91.1917 67.9374 92.6799 67.142 93.9372C66.3722 95.1689 65.3715 96.3492 64.1399 97.4782L55.7108 105.291H68.3352V109.448H50.0914V104.56Z" fill="black"/>
<path d="M34.4102 129.795C34.4102 129.257 34.322 128.746 34.1456 128.261C33.9692 127.767 33.7134 127.335 33.3782 126.964C33.0519 126.594 32.6505 126.298 32.1742 126.078C31.6979 125.857 31.1599 125.747 30.5601 125.747C29.9603 125.747 29.4223 125.857 28.946 126.078C28.4697 126.298 28.0639 126.594 27.7288 126.964C27.4024 127.335 27.151 127.767 26.9746 128.261C26.7982 128.746 26.71 129.257 26.71 129.795C26.71 130.333 26.7982 130.849 26.9746 131.343C27.151 131.828 27.4024 132.256 27.7288 132.627C28.0639 132.997 28.4697 133.293 28.946 133.513C29.4223 133.734 29.9603 133.844 30.5601 133.844C31.1599 133.844 31.6979 133.734 32.1742 133.513C32.6505 133.293 33.0519 132.997 33.3782 132.627C33.7134 132.256 33.9692 131.828 34.1456 131.343C34.322 130.849 34.4102 130.333 34.4102 129.795ZM35.4422 129.795C35.4422 130.51 35.3187 131.167 35.0717 131.767C34.8248 132.367 34.4808 132.887 34.0397 133.328C33.6075 133.76 33.0916 134.1 32.4918 134.347C31.9008 134.594 31.2569 134.717 30.5601 134.717C29.8633 134.717 29.215 134.594 28.6152 134.347C28.0243 134.1 27.5083 133.76 27.0672 133.328C26.635 132.887 26.2955 132.367 26.0485 131.767C25.8015 131.167 25.678 130.51 25.678 129.795C25.678 129.081 25.8015 128.424 26.0485 127.824C26.2955 127.224 26.635 126.708 27.0672 126.276C27.5083 125.835 28.0243 125.491 28.6152 125.244C29.215 124.997 29.8633 124.874 30.5601 124.874C31.2569 124.874 31.9008 124.997 32.4918 125.244C33.0916 125.491 33.6075 125.835 34.0397 126.276C34.4808 126.708 34.8248 127.224 35.0717 127.824C35.3187 128.424 35.4422 129.081 35.4422 129.795ZM41.5016 134.479C41.4839 134.311 41.4707 134.148 41.4619 133.989C41.4619 133.822 41.4619 133.654 41.4619 133.487H41.4354C41.3384 133.654 41.2149 133.809 41.065 133.95C40.915 134.091 40.7474 134.214 40.5622 134.32C40.377 134.417 40.1785 134.492 39.9668 134.545C39.764 134.607 39.5611 134.638 39.3582 134.638C38.5644 134.638 37.9778 134.43 37.5986 134.016C37.2193 133.593 37.0296 132.993 37.0296 132.217V128.287H37.9029V131.714C37.9029 132.058 37.9293 132.362 37.9822 132.627C38.0352 132.891 38.1234 133.116 38.2469 133.301C38.3792 133.478 38.5512 133.615 38.7628 133.712C38.9834 133.8 39.2568 133.844 39.5831 133.844C39.6272 133.844 39.7507 133.826 39.9536 133.791C40.1565 133.756 40.3682 133.659 40.5887 133.5C40.818 133.341 41.0209 133.103 41.1973 132.785C41.3737 132.468 41.4619 132.027 41.4619 131.462V128.287H42.3351V133.116C42.3351 133.284 42.3395 133.496 42.3483 133.751C42.366 134.007 42.3836 134.25 42.4013 134.479H41.5016ZM47.5832 129.081H45.7971V132.733C45.7971 132.962 45.8191 133.152 45.8632 133.301C45.9073 133.443 45.9691 133.553 46.0484 133.632C46.1278 133.712 46.2204 133.769 46.3263 133.804C46.4409 133.831 46.5644 133.844 46.6967 133.844C46.8467 133.844 47.001 133.822 47.1598 133.778C47.3186 133.734 47.4641 133.676 47.5964 133.606L47.6361 134.413C47.3098 134.563 46.9172 134.638 46.4586 134.638C46.291 134.638 46.1146 134.616 45.9294 134.572C45.753 134.528 45.5898 134.444 45.4398 134.32C45.2899 134.197 45.1664 134.029 45.0694 133.817C44.9724 133.606 44.9238 133.328 44.9238 132.984V129.081H43.614V128.287H44.9238V126.541H45.7971V128.287H47.5832V129.081ZM57.7621 131.383C57.7621 131.039 57.7048 130.717 57.5901 130.417C57.4843 130.117 57.3299 129.857 57.1271 129.637C56.9242 129.416 56.6772 129.244 56.3862 129.121C56.1039 128.988 55.782 128.922 55.4203 128.922C55.0587 128.922 54.7323 128.988 54.4413 129.121C54.159 129.244 53.9165 129.416 53.7136 129.637C53.5195 129.857 53.3652 130.117 53.2505 130.417C53.1447 130.717 53.0917 131.039 53.0917 131.383C53.0917 131.727 53.1447 132.049 53.2505 132.349C53.3652 132.649 53.5195 132.909 53.7136 133.129C53.9165 133.35 54.159 133.526 54.4413 133.659C54.7323 133.782 55.0587 133.844 55.4203 133.844C55.782 133.844 56.1039 133.782 56.3862 133.659C56.6772 133.526 56.9242 133.35 57.1271 133.129C57.3299 132.909 57.4843 132.649 57.5901 132.349C57.7048 132.049 57.7621 131.727 57.7621 131.383ZM58.7147 131.383C58.7147 131.851 58.6309 132.283 58.4634 132.68C58.3046 133.077 58.0797 133.421 57.7886 133.712C57.4975 134.003 57.1491 134.232 56.7434 134.4C56.3465 134.558 55.9054 134.638 55.4203 134.638C54.944 134.638 54.503 134.558 54.0973 134.4C53.7004 134.232 53.3564 134.003 53.0653 133.712C52.7742 133.421 52.5449 133.077 52.3773 132.68C52.2185 132.283 52.1391 131.851 52.1391 131.383C52.1391 130.916 52.2185 130.483 52.3773 130.086C52.5449 129.69 52.7742 129.346 53.0653 129.054C53.3564 128.763 53.7004 128.538 54.0973 128.38C54.503 128.212 54.944 128.128 55.4203 128.128C55.9054 128.128 56.3465 128.212 56.7434 128.38C57.1491 128.538 57.4975 128.763 57.7886 129.054C58.0797 129.346 58.3046 129.69 58.4634 130.086C58.6309 130.483 58.7147 130.916 58.7147 131.383ZM63.1837 129.081H61.7151V134.479H60.8419V129.081H59.532V128.287H60.8419V126.594C60.8419 125.773 61.0315 125.191 61.4108 124.847C61.79 124.494 62.2928 124.318 62.9191 124.318C63.0425 124.318 63.166 124.327 63.2895 124.344C63.4218 124.362 63.5497 124.384 63.6732 124.411L63.5144 125.204C63.4086 125.178 63.2983 125.156 63.1837 125.138C63.069 125.121 62.9543 125.112 62.8397 125.112C62.6015 125.112 62.4075 125.151 62.2575 125.231C62.1076 125.31 61.9929 125.425 61.9135 125.575C61.8341 125.716 61.7812 125.884 61.7548 126.078C61.7283 126.272 61.7151 126.479 61.7151 126.699V128.287H63.1837V129.081ZM71.5483 134.479H70.5957V126.303L68.9154 127.784L68.32 127.07L70.7015 125.112H71.5483V134.479ZM80.448 125.985H76.6111L76.5582 128.803C76.7611 128.724 76.9684 128.666 77.18 128.631C77.3917 128.596 77.6034 128.578 77.8151 128.578C78.2561 128.578 78.6575 128.653 79.0191 128.803C79.3807 128.953 79.6894 129.165 79.9452 129.438C80.2098 129.703 80.4127 130.02 80.5538 130.391C80.7038 130.752 80.7788 131.149 80.7788 131.582C80.7788 132.031 80.6994 132.446 80.5406 132.825C80.3818 133.196 80.1613 133.518 79.8791 133.791C79.5968 134.056 79.2616 134.263 78.8736 134.413C78.4943 134.563 78.0797 134.638 77.6299 134.638C77.0389 134.638 76.5053 134.497 76.029 134.214C75.5527 133.932 75.1866 133.518 74.9308 132.971L75.8702 132.561C76.0466 132.931 76.2936 133.227 76.6111 133.447C76.9287 133.659 77.2947 133.765 77.7093 133.765C78.0092 133.765 78.287 133.712 78.5428 133.606C78.7986 133.491 79.0191 133.341 79.2043 133.156C79.3984 132.971 79.5483 132.75 79.6542 132.494C79.7688 132.239 79.8262 131.965 79.8262 131.674C79.8262 131.348 79.7688 131.048 79.6542 130.774C79.5395 130.501 79.3807 130.267 79.1779 130.073C78.975 129.87 78.7324 129.716 78.4502 129.61C78.1679 129.504 77.8592 129.451 77.524 129.451C77.1889 129.451 76.8537 129.5 76.5185 129.597C76.1922 129.685 75.879 129.809 75.5791 129.967L75.6718 125.112H80.448V125.985ZM86.8117 131.383C86.8117 131.727 86.8646 132.049 86.9704 132.349C87.0851 132.649 87.2439 132.909 87.4467 133.129C87.6496 133.35 87.8922 133.526 88.1744 133.659C88.4655 133.782 88.7919 133.844 89.1535 133.844C89.5063 133.844 89.8327 133.782 90.1325 133.659C90.4413 133.526 90.7059 133.35 90.9264 133.129C91.1469 132.909 91.3189 132.649 91.4424 132.349C91.5659 132.049 91.6276 131.727 91.6276 131.383C91.6276 131.039 91.5659 130.717 91.4424 130.417C91.3189 130.117 91.1469 129.857 90.9264 129.637C90.7059 129.416 90.4413 129.244 90.1325 129.121C89.8327 128.988 89.5063 128.922 89.1535 128.922C88.7919 128.922 88.4655 128.988 88.1744 129.121C87.8922 129.244 87.6496 129.416 87.4467 129.637C87.2439 129.857 87.0851 130.117 86.9704 130.417C86.8646 130.717 86.8117 131.039 86.8117 131.383ZM92.4611 134.479H91.5879V133.447H91.5614C91.4203 133.659 91.2527 133.84 91.0587 133.989C90.8646 134.139 90.6618 134.263 90.4501 134.36C90.2384 134.457 90.0179 134.528 89.7886 134.572C89.568 134.616 89.3564 134.638 89.1535 134.638C88.6684 134.638 88.2229 134.558 87.8172 134.4C87.4203 134.232 87.0763 134.003 86.7852 133.712C86.4941 133.421 86.2648 133.077 86.0972 132.68C85.9385 132.283 85.8591 131.851 85.8591 131.383C85.8591 130.916 85.9385 130.483 86.0972 130.086C86.2648 129.69 86.4941 129.346 86.7852 129.054C87.0763 128.763 87.4203 128.538 87.8172 128.38C88.2229 128.212 88.6684 128.128 89.1535 128.128C89.3564 128.128 89.568 128.15 89.7886 128.194C90.0179 128.239 90.2384 128.309 90.4501 128.406C90.6618 128.503 90.8646 128.627 91.0587 128.777C91.2527 128.927 91.4203 129.107 91.5614 129.319H91.5879V124.477H92.4611V134.479ZM97.89 131.396C97.6695 131.396 97.3916 131.41 97.0565 131.436C96.7301 131.454 96.4126 131.507 96.1039 131.595C95.804 131.674 95.5438 131.802 95.3233 131.978C95.1116 132.155 95.0057 132.397 95.0057 132.706C95.0057 132.909 95.0454 133.085 95.1248 133.235C95.213 133.376 95.3277 133.496 95.4688 133.593C95.6099 133.681 95.7643 133.747 95.9319 133.791C96.1083 133.826 96.2847 133.844 96.4611 133.844C96.7786 133.844 97.0521 133.791 97.2814 133.685C97.5195 133.579 97.718 133.438 97.8768 133.262C98.0355 133.077 98.1502 132.865 98.2208 132.627C98.3001 132.38 98.3398 132.12 98.3398 131.846V131.396H97.89ZM98.3398 130.682V130.523C98.3398 129.456 97.8106 128.922 96.7522 128.922C96.0289 128.922 95.3982 129.165 94.8602 129.65L94.331 129.028C94.9131 128.428 95.7863 128.128 96.9506 128.128C97.2505 128.128 97.5372 128.172 97.8106 128.261C98.0929 128.349 98.3354 128.486 98.5383 128.671C98.7412 128.847 98.9043 129.072 99.0278 129.346C99.1513 129.619 99.2131 129.945 99.2131 130.325V133.09C99.2131 133.328 99.2219 133.579 99.2395 133.844C99.266 134.1 99.2924 134.311 99.3189 134.479H98.4721C98.4457 134.329 98.4236 134.166 98.406 133.989C98.3972 133.813 98.3928 133.641 98.3928 133.473H98.3663C98.1105 133.888 97.8062 134.188 97.4534 134.373C97.1094 134.55 96.686 134.638 96.1833 134.638C95.9098 134.638 95.6452 134.598 95.3894 134.519C95.1336 134.448 94.9043 134.338 94.7014 134.188C94.5074 134.029 94.3486 133.84 94.2251 133.619C94.1105 133.39 94.0531 133.125 94.0531 132.825C94.0531 132.322 94.181 131.93 94.4368 131.648C94.7014 131.357 95.0278 131.14 95.4159 130.999C95.8128 130.858 96.2318 130.77 96.6728 130.735C97.1226 130.699 97.5328 130.682 97.9032 130.682H98.3398ZM103.534 133.407L105.426 128.287H106.484L103.388 136.093C103.203 136.569 102.965 136.949 102.674 137.231C102.391 137.513 101.981 137.654 101.443 137.654C101.311 137.654 101.174 137.65 101.033 137.641C100.901 137.632 100.768 137.606 100.636 137.562L100.729 136.715C100.914 136.812 101.134 136.861 101.39 136.861C101.699 136.861 101.941 136.763 102.118 136.569C102.294 136.375 102.449 136.102 102.581 135.749L103.031 134.558L100.491 128.287H101.589L103.534 133.407ZM110.895 129.756C110.763 129.5 110.587 129.297 110.366 129.147C110.146 128.997 109.877 128.922 109.559 128.922C109.409 128.922 109.255 128.94 109.096 128.975C108.946 129.01 108.809 129.068 108.686 129.147C108.562 129.218 108.461 129.31 108.382 129.425C108.311 129.54 108.276 129.681 108.276 129.848C108.276 130.139 108.377 130.351 108.58 130.483C108.783 130.616 109.087 130.73 109.493 130.827L110.379 131.039C110.812 131.136 111.169 131.335 111.451 131.634C111.742 131.926 111.888 132.292 111.888 132.733C111.888 133.068 111.817 133.359 111.676 133.606C111.544 133.844 111.363 134.042 111.133 134.201C110.913 134.351 110.657 134.461 110.366 134.532C110.075 134.602 109.78 134.638 109.48 134.638C109.003 134.638 108.558 134.55 108.143 134.373C107.738 134.188 107.389 133.875 107.098 133.434L107.852 132.918C108.029 133.2 108.249 133.425 108.514 133.593C108.787 133.76 109.109 133.844 109.48 133.844C109.656 133.844 109.832 133.826 110.009 133.791C110.185 133.747 110.34 133.685 110.472 133.606C110.613 133.518 110.723 133.407 110.803 133.275C110.891 133.143 110.935 132.988 110.935 132.812C110.935 132.503 110.82 132.283 110.591 132.15C110.362 132.009 110.084 131.899 109.757 131.82L108.911 131.621C108.805 131.595 108.659 131.551 108.474 131.489C108.298 131.427 108.121 131.335 107.945 131.211C107.777 131.088 107.632 130.929 107.508 130.735C107.385 130.532 107.323 130.285 107.323 129.994C107.323 129.676 107.385 129.398 107.508 129.16C107.641 128.922 107.813 128.728 108.024 128.578C108.245 128.428 108.492 128.318 108.765 128.247C109.039 128.168 109.321 128.128 109.612 128.128C110.044 128.128 110.445 128.212 110.816 128.38C111.186 128.547 111.473 128.834 111.676 129.24L110.895 129.756Z" fill="#777FA1"/>
<circle cx="160.154" cy="108.463" r="21.65" fill="#F1F2F6"/>
<path d="M159.041 97.1982L169.264 106.219C169.527 106.445 169.527 106.82 169.339 107.084C169.114 107.347 168.738 107.347 168.475 107.121L167.084 105.881V113.285C167.084 114.977 165.731 116.292 164.077 116.292H153.252C151.561 116.292 150.245 114.977 150.245 113.285V105.881L148.817 107.121C148.592 107.347 148.178 107.347 147.99 107.084C147.765 106.82 147.765 106.445 148.028 106.219L158.251 97.1982C158.477 97.0102 158.815 97.0102 159.041 97.1982ZM151.448 113.285C151.448 114.3 152.237 115.089 153.252 115.089H164.077C165.055 115.089 165.882 114.3 165.882 113.285V104.828L158.665 98.4761L151.448 104.828V113.285ZM158.063 103.663H159.266C159.905 103.663 160.469 104.227 160.469 104.866V106.069H161.672C162.311 106.069 162.875 106.632 162.875 107.271V108.474C162.875 109.151 162.311 109.677 161.672 109.677H160.469V110.88C160.469 111.556 159.905 112.083 159.266 112.083H158.063C157.387 112.083 156.861 111.556 156.861 110.88V109.677H155.658C154.981 109.677 154.455 109.151 154.455 108.474V107.271C154.455 106.632 154.981 106.069 155.658 106.069H156.861V104.866C156.861 104.227 157.387 103.663 158.063 103.663ZM158.063 104.866V106.67C158.063 106.858 157.988 107.008 157.876 107.121C157.763 107.234 157.612 107.271 157.462 107.271H155.658V108.474H157.462C157.763 108.474 158.063 108.775 158.063 109.076V110.88H159.266V109.076C159.266 108.775 159.529 108.474 159.868 108.474H161.672V107.271H159.868C159.529 107.271 159.266 107.008 159.266 106.67V104.866H158.063Z" fill="#777FA1"/>
</svg>
