<svg width="171" height="133" viewBox="0 0 171 133" fill="none" xmlns="http://www.w3.org/2000/svg">
<rect width="170.333" height="132.091" rx="20" fill="white"/>
<path d="M30.108 30H28.092L27.168 27.732H22.87L21.974 30H20L24.312 20.088H25.838L30.108 30ZM26.552 26.22L25.026 22.188L23.472 26.22H26.552ZM34.7375 23.112C35.3535 23.112 35.8435 23.2473 36.2075 23.518C36.5715 23.7887 36.8235 24.12 36.9635 24.512C37.1128 24.8947 37.1875 25.2913 37.1875 25.702V30H35.5075V26.514C35.5075 25.8607 35.4048 25.3847 35.1995 25.086C34.9942 24.778 34.6862 24.624 34.2755 24.624C33.7622 24.624 33.3748 24.7827 33.1135 25.1C32.8615 25.4173 32.7355 25.8187 32.7355 26.304V30H31.0555V23.28H32.6515V24.358H32.6795C32.8755 23.938 33.1508 23.6253 33.5055 23.42C33.8602 23.2147 34.2708 23.112 34.7375 23.112ZM42.7766 23.112C43.3926 23.112 43.8826 23.2473 44.2466 23.518C44.6106 23.7887 44.8626 24.12 45.0026 24.512C45.1519 24.8947 45.2266 25.2913 45.2266 25.702V30H43.5466V26.514C43.5466 25.8607 43.4439 25.3847 43.2386 25.086C43.0332 24.778 42.7252 24.624 42.3146 24.624C41.8012 24.624 41.4139 24.7827 41.1526 25.1C40.9006 25.4173 40.7746 25.8187 40.7746 26.304V30H39.0946V23.28H40.6906V24.358H40.7186C40.9146 23.938 41.1899 23.6253 41.5446 23.42C41.8992 23.2147 42.3099 23.112 42.7766 23.112ZM48.8136 26.752C48.8136 27.4147 48.9163 27.9 49.1216 28.208C49.327 28.5067 49.635 28.656 50.0456 28.656C50.531 28.656 50.909 28.502 51.1796 28.194C51.4503 27.886 51.5856 27.4707 51.5856 26.948V23.28H53.2656V30H51.6696V28.922H51.6416C51.4456 29.342 51.175 29.6547 50.8296 29.86C50.4843 30.0653 50.069 30.168 49.5836 30.168C48.977 30.168 48.4916 30.0373 48.1276 29.776C47.7636 29.5147 47.507 29.188 47.3576 28.796C47.2083 28.404 47.1336 27.998 47.1336 27.578V23.28H48.8136V26.752ZM58.0147 23.112C59.0787 23.112 59.8207 23.3687 60.2407 23.882C60.67 24.3953 60.8847 25.0953 60.8847 25.982V30H59.3727V29.076H59.3307C59.0974 29.44 58.794 29.7153 58.4207 29.902C58.0567 30.0793 57.6414 30.168 57.1747 30.168C56.7174 30.168 56.302 30.084 55.9287 29.916C55.5554 29.748 55.2614 29.5147 55.0467 29.216C54.832 28.908 54.7247 28.5533 54.7247 28.152C54.7247 27.368 55.056 26.7847 55.7187 26.402C56.3814 26.01 57.4267 25.814 58.8547 25.814H59.3727V25.618C59.3727 25.226 59.2327 24.9227 58.9527 24.708C58.6727 24.484 58.2994 24.372 57.8327 24.372C57.4967 24.372 57.1747 24.4373 56.8667 24.568C56.5587 24.6893 56.2834 24.8573 56.0407 25.072L55.1587 24.19C55.4854 23.8633 55.8867 23.602 56.3627 23.406C56.8387 23.21 57.3894 23.112 58.0147 23.112ZM56.4047 28.026C56.4047 28.2967 56.5167 28.5113 56.7407 28.67C56.974 28.8287 57.2587 28.908 57.5947 28.908C58.1454 28.908 58.5607 28.7727 58.8407 28.502C59.13 28.222 59.2747 27.858 59.2747 27.41V26.99H58.7847C58.0194 26.99 57.4314 27.0787 57.0207 27.256C56.61 27.424 56.4047 27.6807 56.4047 28.026ZM64.4002 30H62.7202V19.416H64.4002V30ZM72.3895 28.404H76.6035V30H70.6255V20.088H72.3895V28.404ZM81.0493 23.112C81.74 23.112 82.3186 23.2707 82.7853 23.588C83.2613 23.9053 83.616 24.3393 83.8493 24.89C84.0826 25.4407 84.1993 26.0613 84.1993 26.752V27.228H79.0753C79.1126 27.5453 79.2106 27.8253 79.3693 28.068C79.5373 28.3107 79.752 28.4973 80.0133 28.628C80.2746 28.7587 80.564 28.824 80.8813 28.824C81.2546 28.824 81.586 28.7493 81.8753 28.6C82.174 28.4413 82.4446 28.2127 82.6873 27.914L83.8913 28.824C83.5273 29.272 83.1073 29.608 82.6313 29.832C82.1553 30.056 81.628 30.168 81.0493 30.168C80.368 30.168 79.7473 30.0187 79.1873 29.72C78.6366 29.4213 78.198 29.006 77.8713 28.474C77.554 27.9327 77.3953 27.3213 77.3953 26.64C77.3953 25.9587 77.554 25.352 77.8713 24.82C78.198 24.2787 78.6366 23.8587 79.1873 23.56C79.7473 23.2613 80.368 23.112 81.0493 23.112ZM82.5193 25.968C82.51 25.4547 82.3466 25.0627 82.0293 24.792C81.7213 24.512 81.3106 24.372 80.7973 24.372C80.312 24.372 79.92 24.5167 79.6213 24.806C79.3226 25.0953 79.1406 25.4827 79.0753 25.968H82.5193ZM88.6124 23.112C89.6764 23.112 90.4184 23.3687 90.8384 23.882C91.2677 24.3953 91.4824 25.0953 91.4824 25.982V30H89.9704V29.076H89.9284C89.695 29.44 89.3917 29.7153 89.0184 29.902C88.6544 30.0793 88.239 30.168 87.7724 30.168C87.315 30.168 86.8997 30.084 86.5264 29.916C86.153 29.748 85.859 29.5147 85.6444 29.216C85.4297 28.908 85.3224 28.5533 85.3224 28.152C85.3224 27.368 85.6537 26.7847 86.3164 26.402C86.979 26.01 88.0244 25.814 89.4524 25.814H89.9704V25.618C89.9704 25.226 89.8304 24.9227 89.5504 24.708C89.2704 24.484 88.897 24.372 88.4304 24.372C88.0944 24.372 87.7724 24.4373 87.4644 24.568C87.1564 24.6893 86.881 24.8573 86.6384 25.072L85.7564 24.19C86.083 23.8633 86.4844 23.602 86.9604 23.406C87.4364 23.21 87.987 23.112 88.6124 23.112ZM87.0024 28.026C87.0024 28.2967 87.1144 28.5113 87.3384 28.67C87.5717 28.8287 87.8564 28.908 88.1924 28.908C88.743 28.908 89.1584 28.7727 89.4384 28.502C89.7277 28.222 89.8724 27.858 89.8724 27.41V26.99H89.3824C88.617 26.99 88.029 27.0787 87.6184 27.256C87.2077 27.424 87.0024 27.6807 87.0024 28.026ZM96.0059 27.984H96.0339L97.8399 23.28H99.5619L96.9159 30H95.1239L92.3799 23.28H94.2139L96.0059 27.984ZM103.868 23.112C104.558 23.112 105.137 23.2707 105.604 23.588C106.08 23.9053 106.434 24.3393 106.668 24.89C106.901 25.4407 107.018 26.0613 107.018 26.752V27.228H101.894C101.931 27.5453 102.029 27.8253 102.188 28.068C102.356 28.3107 102.57 28.4973 102.832 28.628C103.093 28.7587 103.382 28.824 103.7 28.824C104.073 28.824 104.404 28.7493 104.694 28.6C104.992 28.4413 105.263 28.2127 105.506 27.914L106.71 28.824C106.346 29.272 105.926 29.608 105.45 29.832C104.974 30.056 104.446 30.168 103.868 30.168C103.186 30.168 102.566 30.0187 102.006 29.72C101.455 29.4213 101.016 29.006 100.69 28.474C100.372 27.9327 100.214 27.3213 100.214 26.64C100.214 25.9587 100.372 25.352 100.69 24.82C101.016 24.2787 101.455 23.8587 102.006 23.56C102.566 23.2613 103.186 23.112 103.868 23.112ZM105.338 25.968C105.328 25.4547 105.165 25.0627 104.848 24.792C104.54 24.512 104.129 24.372 103.616 24.372C103.13 24.372 102.738 24.5167 102.44 24.806C102.141 25.0953 101.959 25.4827 101.894 25.968H105.338ZM110.885 23.112C111.407 23.112 111.879 23.2007 112.299 23.378C112.719 23.5553 113.05 23.8073 113.293 24.134L112.173 25.142C112.005 24.9087 111.813 24.736 111.599 24.624C111.384 24.512 111.137 24.456 110.857 24.456C110.577 24.456 110.343 24.5213 110.157 24.652C109.97 24.7827 109.877 24.9553 109.877 25.17C109.877 25.3193 109.933 25.4453 110.045 25.548C110.157 25.6413 110.297 25.716 110.465 25.772C110.642 25.8187 110.885 25.8747 111.193 25.94L111.473 26.01C111.883 26.1033 112.233 26.22 112.523 26.36C112.812 26.4907 113.045 26.6913 113.223 26.962C113.409 27.2233 113.503 27.5733 113.503 28.012C113.503 28.4693 113.377 28.8613 113.125 29.188C112.873 29.5147 112.527 29.762 112.089 29.93C111.65 30.0887 111.151 30.168 110.591 30.168C110.04 30.168 109.55 30.0887 109.121 29.93C108.691 29.7713 108.313 29.5053 107.987 29.132L109.107 28.082C109.387 28.39 109.648 28.6047 109.891 28.726C110.133 28.8473 110.404 28.908 110.703 28.908C111.02 28.908 111.286 28.838 111.501 28.698C111.715 28.5487 111.823 28.362 111.823 28.138C111.823 27.942 111.748 27.788 111.599 27.676C111.459 27.5547 111.305 27.4707 111.137 27.424C110.969 27.3773 110.642 27.298 110.157 27.186C109.765 27.0927 109.433 26.9853 109.163 26.864C108.892 26.7427 108.663 26.556 108.477 26.304C108.29 26.052 108.197 25.7113 108.197 25.282C108.197 24.7687 108.332 24.3533 108.603 24.036C108.883 23.7093 109.223 23.476 109.625 23.336C110.035 23.1867 110.455 23.112 110.885 23.112Z" fill="black"/>
<path d="M32.416 90.7627H28.576V72.5227L24.32 76.4587L22.08 73.8027L28.928 68.1067H32.416V90.7627ZM48.4095 67.7227C49.7535 67.7227 50.9482 67.968 51.9935 68.4587C53.0388 68.9494 53.8602 69.6427 54.4575 70.5387C55.0548 71.4347 55.3535 72.48 55.3535 73.6747C55.3535 74.9334 55.0548 76.0214 54.4575 76.9387C53.8602 77.8347 53.0175 78.4427 51.9295 78.7627V78.8267C52.6762 78.976 53.3695 79.328 54.0095 79.8827C54.6495 80.416 55.1508 81.0774 55.5135 81.8667C55.8762 82.656 56.0575 83.4774 56.0575 84.3307C56.0575 85.7174 55.7375 86.9227 55.0975 87.9467C54.4575 88.9707 53.5508 89.76 52.3775 90.3147C51.2255 90.8694 49.9028 91.1467 48.4095 91.1467C46.9162 91.1467 45.5935 90.88 44.4415 90.3467C43.2895 89.792 42.3828 89.0027 41.7215 87.9787C41.0815 86.9547 40.7615 85.7387 40.7615 84.3307C40.7615 83.456 40.9428 82.6347 41.3055 81.8667C41.6682 81.0774 42.1588 80.416 42.7775 79.8827C43.4175 79.3494 44.1215 78.9974 44.8895 78.8267V78.7627C43.8228 78.464 42.9802 77.856 42.3615 76.9387C41.7642 76.0214 41.4655 74.9334 41.4655 73.6747C41.4655 72.48 41.7642 71.4347 42.3615 70.5387C42.9588 69.6214 43.7802 68.928 44.8255 68.4587C45.8708 67.968 47.0655 67.7227 48.4095 67.7227ZM45.3055 74.0587C45.3055 74.656 45.4335 75.2 45.6895 75.6907C45.9455 76.16 46.3082 76.5334 46.7775 76.8107C47.2468 77.088 47.7908 77.2267 48.4095 77.2267C48.9855 77.2267 49.5082 77.088 49.9775 76.8107C50.4468 76.5334 50.8202 76.16 51.0975 75.6907C51.3748 75.2 51.5135 74.656 51.5135 74.0587C51.5135 73.4827 51.3748 72.96 51.0975 72.4907C50.8202 72.0214 50.4468 71.6587 49.9775 71.4027C49.5082 71.1254 48.9748 70.9867 48.3775 70.9867C47.7588 70.9867 47.2148 71.1254 46.7455 71.4027C46.2975 71.6587 45.9455 72.0214 45.6895 72.4907C45.4335 72.96 45.3055 73.4827 45.3055 74.0587ZM44.6015 83.8507C44.6015 84.5547 44.7615 85.184 45.0815 85.7387C45.4228 86.2934 45.8815 86.7307 46.4575 87.0507C47.0335 87.3494 47.6842 87.4987 48.4095 87.4987C49.1348 87.4987 49.7855 87.3494 50.3615 87.0507C50.9375 86.7307 51.3855 86.2934 51.7055 85.7387C52.0468 85.184 52.2175 84.5547 52.2175 83.8507C52.2175 83.168 52.0468 82.56 51.7055 82.0267C51.3642 81.472 50.8948 81.0454 50.2975 80.7467C49.7215 80.448 49.0815 80.2987 48.3775 80.2987C47.7162 80.2987 47.0868 80.4587 46.4895 80.7787C45.9135 81.0774 45.4548 81.504 45.1135 82.0587C44.7722 82.592 44.6015 83.1894 44.6015 83.8507Z" fill="black"/>
<path d="M24.587 104.105C25.775 104.105 26.7503 104.493 27.513 105.271C28.2757 106.048 28.657 107.023 28.657 108.197C28.657 109.37 28.272 110.345 27.502 111.123C26.7393 111.9 25.7677 112.289 24.587 112.289C23.4063 112.289 22.431 111.9 21.661 111.123C20.8983 110.345 20.517 109.37 20.517 108.197C20.517 107.023 20.8983 106.048 21.661 105.271C22.431 104.493 23.4063 104.105 24.587 104.105ZM22.376 105.898C21.7967 106.514 21.507 107.28 21.507 108.197C21.507 109.113 21.7967 109.883 22.376 110.507C22.9553 111.123 23.6923 111.431 24.587 111.431C25.4743 111.431 26.2077 111.123 26.787 110.507C27.3737 109.883 27.667 109.113 27.667 108.197C27.667 107.28 27.3737 106.514 26.787 105.898C26.2077 105.274 25.4707 104.963 24.576 104.963C23.696 104.963 22.9627 105.274 22.376 105.898ZM30.8458 106.943V110.067C30.8458 110.477 30.9412 110.807 31.1318 111.057C31.3298 111.306 31.6268 111.431 32.0228 111.431C32.5435 111.431 32.9395 111.258 33.2108 110.914C33.4822 110.569 33.6178 110.096 33.6178 109.495V106.943H34.4758V110.947C34.4758 111.057 34.4832 111.255 34.4978 111.541C34.5125 111.819 34.5198 112.003 34.5198 112.091H33.7058C33.7058 111.966 33.7022 111.823 33.6948 111.662C33.6875 111.493 33.6838 111.354 33.6838 111.244H33.6618C33.5298 111.537 33.3062 111.775 32.9908 111.959C32.6755 112.135 32.3235 112.223 31.9348 112.223C31.3115 112.223 30.8312 112.039 30.4938 111.673C30.1565 111.306 29.9878 110.804 29.9878 110.166V106.943H30.8458ZM37.3981 105.48V106.943H38.9161V107.669H37.3981V110.419C37.3981 110.807 37.4605 111.075 37.5851 111.222C37.7098 111.361 37.9041 111.431 38.1681 111.431C38.4615 111.431 38.7145 111.372 38.9271 111.255L38.9601 112.036C38.6668 112.16 38.3331 112.223 37.9591 112.223C37.4531 112.223 37.0901 112.102 36.8701 111.86C36.6501 111.61 36.5401 111.174 36.5401 110.551V107.669H35.4181V106.943H36.5401V105.48H37.3981ZM45.4818 106.811C46.2812 106.811 46.9375 107.064 47.4508 107.57C47.9715 108.076 48.2318 108.725 48.2318 109.517C48.2318 110.309 47.9715 110.958 47.4508 111.464C46.9375 111.97 46.2812 112.223 45.4818 112.223C44.6825 112.223 44.0225 111.97 43.5018 111.464C42.9885 110.958 42.7318 110.309 42.7318 109.517C42.7318 108.725 42.9885 108.076 43.5018 107.57C44.0152 107.064 44.6752 106.811 45.4818 106.811ZM43.6558 109.517C43.6558 110.074 43.8245 110.532 44.1618 110.892C44.5065 111.251 44.9465 111.431 45.4818 111.431C46.0245 111.431 46.4645 111.251 46.8018 110.892C47.1392 110.525 47.3078 110.067 47.3078 109.517C47.3078 108.967 47.1392 108.512 46.8018 108.153C46.4645 107.786 46.0208 107.603 45.4708 107.603C44.9355 107.603 44.4992 107.786 44.1618 108.153C43.8245 108.512 43.6558 108.967 43.6558 109.517ZM51.8151 103.643C52.1011 103.643 52.3248 103.687 52.4861 103.775L52.3651 104.545C52.1671 104.471 51.9728 104.435 51.7821 104.435C51.4448 104.435 51.2064 104.53 51.0671 104.721C50.9278 104.911 50.8581 105.267 50.8581 105.788V106.943H52.1121V107.669H50.8581V112.091H50.0001V107.669H48.8781V106.943H50.0001V105.777C50.0001 104.354 50.6051 103.643 51.8151 103.643ZM58.4123 104.171C59.1163 104.171 59.6883 104.365 60.1283 104.754C60.5683 105.135 60.7883 105.645 60.7883 106.283C60.7883 106.825 60.671 107.276 60.4363 107.636C60.209 107.995 59.8203 108.435 59.2703 108.956L56.8723 111.211V111.233H60.8433V112.091H55.8273V111.035L58.8193 108.12C59.1347 107.812 59.373 107.537 59.5343 107.295C59.6957 107.053 59.791 106.869 59.8203 106.745C59.8497 106.62 59.8643 106.466 59.8643 106.283C59.8643 105.894 59.7287 105.579 59.4573 105.337C59.186 105.087 58.8487 104.963 58.4453 104.963C58.0567 104.963 57.7303 105.076 57.4663 105.304C57.2097 105.524 57.0447 105.824 56.9713 106.206L55.9703 106.118C56.073 105.502 56.3407 105.025 56.7733 104.688C57.2133 104.343 57.7597 104.171 58.4123 104.171ZM64.5246 104.171C65.2286 104.171 65.8006 104.365 66.2406 104.754C66.6806 105.135 66.9006 105.645 66.9006 106.283C66.9006 106.825 66.7833 107.276 66.5486 107.636C66.3213 107.995 65.9326 108.435 65.3826 108.956L62.9846 111.211V111.233H66.9556V112.091H61.9396V111.035L64.9316 108.12C65.247 107.812 65.4853 107.537 65.6466 107.295C65.808 107.053 65.9033 106.869 65.9326 106.745C65.962 106.62 65.9766 106.466 65.9766 106.283C65.9766 105.894 65.841 105.579 65.5696 105.337C65.2983 105.087 64.961 104.963 64.5576 104.963C64.169 104.963 63.8426 105.076 63.5786 105.304C63.322 105.524 63.157 105.824 63.0836 106.206L62.0826 106.118C62.1853 105.502 62.453 105.025 62.8856 104.688C63.3256 104.343 63.872 104.171 64.5246 104.171ZM76.5145 103.775V112.091H75.6565V111.178H75.6345C75.4585 111.5 75.1908 111.757 74.8315 111.948C74.4721 112.131 74.0798 112.223 73.6545 112.223C72.9285 112.223 72.3161 111.962 71.8175 111.442C71.3261 110.921 71.0805 110.279 71.0805 109.517C71.0805 108.732 71.3298 108.087 71.8285 107.581C72.3345 107.067 72.9871 106.811 73.7865 106.811C74.5271 106.811 75.1431 107.104 75.6345 107.691H75.6565V103.775H76.5145ZM72.0045 109.517C72.0045 110.074 72.1731 110.532 72.5105 110.892C72.8551 111.251 73.2951 111.431 73.8305 111.431C74.3731 111.431 74.8131 111.251 75.1505 110.892C75.4878 110.525 75.6565 110.067 75.6565 109.517C75.6565 108.959 75.4878 108.501 75.1505 108.142C74.8131 107.782 74.3695 107.603 73.8195 107.603C73.2841 107.603 72.8478 107.786 72.5105 108.153C72.1731 108.512 72.0045 108.967 72.0045 109.517ZM80.0821 106.811C80.8154 106.811 81.3581 106.987 81.7101 107.339C82.0621 107.691 82.2381 108.222 82.2381 108.934V111.244C82.2381 111.478 82.2638 111.761 82.3151 112.091H81.4901C81.4534 111.981 81.4351 111.724 81.4351 111.321H81.4131C81.0171 111.922 80.4524 112.223 79.7191 112.223C79.1544 112.223 78.6924 112.083 78.3331 111.805C77.9811 111.526 77.8051 111.156 77.8051 110.694C77.8051 110.085 78.0544 109.634 78.5531 109.341C79.0518 109.04 79.8621 108.89 80.9841 108.89H81.3801V108.747C81.3801 108.373 81.2664 108.09 81.0391 107.9C80.8191 107.702 80.5074 107.603 80.1041 107.603C79.4808 107.603 78.9711 107.79 78.5751 108.164L78.0361 107.603C78.5641 107.075 79.2461 106.811 80.0821 106.811ZM78.7291 110.606C78.7291 111.2 79.1068 111.497 79.8621 111.497C80.3168 111.497 80.6834 111.35 80.9621 111.057C81.2408 110.763 81.3801 110.349 81.3801 109.814V109.616H80.4341C79.9134 109.616 79.4991 109.7 79.1911 109.869C78.8831 110.037 78.7291 110.283 78.7291 110.606ZM84.1032 106.943L85.6982 110.98H85.7202L87.2492 106.943H88.1842L85.6652 113.356C85.4599 113.876 85.2289 114.236 84.9722 114.434C84.7229 114.632 84.3929 114.731 83.9822 114.731C83.6742 114.731 83.4175 114.687 83.2122 114.599L83.3222 113.851C83.4542 113.909 83.6559 113.939 83.9272 113.939C84.1472 113.939 84.3305 113.88 84.4772 113.763C84.6239 113.645 84.7485 113.451 84.8512 113.18L85.2362 112.124L83.1022 106.943H84.1032ZM90.6858 106.811C91.5218 106.811 92.1048 107.122 92.4348 107.746L91.7198 108.219C91.4705 107.808 91.1075 107.603 90.6308 107.603C90.3375 107.603 90.0955 107.669 89.9048 107.801C89.7142 107.933 89.6188 108.105 89.6188 108.318C89.6188 108.655 90.0478 108.904 90.9058 109.066C91.5145 109.183 91.9472 109.363 92.2038 109.605C92.4678 109.847 92.5998 110.18 92.5998 110.606C92.5998 111.104 92.4128 111.5 92.0388 111.794C91.6648 112.08 91.1662 112.223 90.5428 112.223C89.6408 112.223 88.9735 111.904 88.5408 111.266L89.2228 110.738C89.6042 111.2 90.0442 111.431 90.5428 111.431C90.8728 111.431 91.1442 111.361 91.3568 111.222C91.5695 111.075 91.6758 110.881 91.6758 110.639C91.6758 110.404 91.5768 110.228 91.3788 110.111C91.1808 109.986 90.7958 109.861 90.2238 109.737C89.7105 109.627 89.3365 109.462 89.1018 109.242C88.8745 109.014 88.7608 108.71 88.7608 108.329C88.7608 107.874 88.9442 107.507 89.3108 107.229C89.6848 106.95 90.1432 106.811 90.6858 106.811Z" fill="#777FA1"/>
<circle cx="132.334" cy="89.9268" r="18" fill="#F1F2F6"/>
<path d="M129.168 82C129.418 82 129.668 82.25 129.668 82.5V84H135.668V82.5C135.668 82.25 135.887 82 136.168 82C136.418 82 136.668 82.25 136.668 82.5V84H137.668C138.762 84 139.668 84.9062 139.668 86V87V88V96C139.668 97.125 138.762 98 137.668 98H127.668C126.543 98 125.668 97.125 125.668 96V88V87V86C125.668 84.9062 126.543 84 127.668 84H128.668V82.5C128.668 82.25 128.887 82 129.168 82ZM138.668 88H126.668V96C126.668 96.5625 127.105 97 127.668 97H137.668C138.199 97 138.668 96.5625 138.668 96V88ZM137.668 85H127.668C127.105 85 126.668 85.4688 126.668 86V87H138.668V86C138.668 85.4688 138.199 85 137.668 85Z" fill="#777FA1"/>
</svg>
