<svg width="206" height="159" viewBox="0 0 206 159" fill="none" xmlns="http://www.w3.org/2000/svg">
<rect x="0.730469" y="0.972168" width="204.873" height="157.562" rx="24.0556" fill="white"/>
<path d="M26.1154 25.1059H30.1231C30.6956 25.1059 31.2457 25.162 31.7733 25.2743C32.3121 25.3865 32.7836 25.5774 33.1878 25.8468C33.5919 26.105 33.9118 26.4586 34.1476 26.9077C34.3945 27.3455 34.518 27.8955 34.518 28.5579C34.518 29.31 34.3889 29.9162 34.1307 30.3765C33.8725 30.8367 33.5245 31.196 33.0867 31.4542C32.6489 31.7011 32.1381 31.8695 31.5544 31.9593C30.9819 32.0491 30.3813 32.094 29.7526 32.094H28.2371V37.0278H26.1154V25.1059ZM29.5169 30.2754C29.82 30.2754 30.1343 30.2642 30.4599 30.2418C30.7854 30.2193 31.0829 30.152 31.3523 30.0397C31.633 29.9274 31.8575 29.759 32.0259 29.5345C32.2055 29.31 32.2953 28.9957 32.2953 28.5915C32.2953 28.2211 32.2167 27.9292 32.0596 27.7159C31.9024 27.4914 31.7003 27.323 31.4534 27.2108C31.2064 27.0873 30.9314 27.0087 30.6283 26.975C30.3252 26.9413 30.0333 26.9245 29.7526 26.9245H28.2371V30.2754H29.5169ZM37.8408 33.6937C37.9082 34.2999 38.1439 34.7714 38.5481 35.1082C38.9522 35.445 39.4405 35.6134 40.013 35.6134C40.5182 35.6134 40.9392 35.5123 41.276 35.3103C41.624 35.097 41.9271 34.8332 42.1853 34.5188L43.6334 35.6134C43.1619 36.1971 42.6343 36.6125 42.0505 36.8594C41.4668 37.1064 40.855 37.2299 40.2151 37.2299C39.6089 37.2299 39.0364 37.1289 38.4975 36.9268C37.9587 36.7247 37.4928 36.4385 37.0999 36.068C36.707 35.6976 36.3927 35.2541 36.1569 34.7377C35.9324 34.2101 35.8202 33.6264 35.8202 32.9865C35.8202 32.3466 35.9324 31.7685 36.1569 31.2521C36.3927 30.7245 36.707 30.2754 37.0999 29.905C37.4928 29.5345 37.9587 29.2483 38.4975 29.0462C39.0364 28.8441 39.6089 28.7431 40.2151 28.7431C40.7764 28.7431 41.2872 28.8441 41.7474 29.0462C42.2189 29.237 42.6175 29.5177 42.943 29.8881C43.2798 30.2586 43.538 30.7189 43.7176 31.2689C43.9084 31.8078 44.0039 32.4308 44.0039 33.138V33.6937H37.8408ZM41.9832 32.1782C41.972 31.5833 41.7867 31.1174 41.4275 30.7806C41.0683 30.4326 40.5687 30.2586 39.9288 30.2586C39.3226 30.2586 38.8399 30.4326 38.4807 30.7806C38.1327 31.1286 37.9194 31.5945 37.8408 32.1782H41.9832ZM45.8935 28.9452H47.9142V30.2249H47.9478C48.1724 29.7534 48.4923 29.3886 48.9077 29.1304C49.323 28.8722 49.8001 28.7431 50.339 28.7431C50.4624 28.7431 50.5803 28.7543 50.6926 28.7768C50.8161 28.7992 50.9395 28.8273 51.063 28.861V30.8143C50.8946 30.7694 50.7263 30.7357 50.5579 30.7132C50.4007 30.6796 50.2435 30.6627 50.0864 30.6627C49.6149 30.6627 49.2332 30.7525 48.9413 30.9322C48.6607 31.1005 48.4418 31.297 48.2846 31.5215C48.1387 31.746 48.0376 31.9706 47.9815 32.1951C47.9366 32.4196 47.9142 32.588 47.9142 32.7002V37.0278H45.8935V28.9452ZM56.749 31.1847C56.3561 30.6347 55.8285 30.3596 55.1662 30.3596C54.8968 30.3596 54.633 30.427 54.3748 30.5617C54.1166 30.6964 53.9875 30.9153 53.9875 31.2184C53.9875 31.4654 54.0941 31.645 54.3074 31.7573C54.5207 31.8695 54.7901 31.9649 55.1157 32.0435C55.4412 32.1221 55.7892 32.2063 56.1597 32.2961C56.5414 32.3747 56.895 32.5038 57.2205 32.6834C57.5461 32.8518 57.8155 33.0875 58.0288 33.3906C58.2421 33.6937 58.3487 34.1091 58.3487 34.6367C58.3487 35.1194 58.2421 35.5292 58.0288 35.8659C57.8267 36.1915 57.5573 36.4553 57.2205 36.6574C56.895 36.8594 56.5245 37.0054 56.1092 37.0952C55.6938 37.185 55.2785 37.2299 54.8631 37.2299C54.2344 37.2299 53.6563 37.1401 53.1287 36.9605C52.6011 36.7809 52.1296 36.4553 51.7142 35.9838L53.0613 34.7209C53.3195 35.0128 53.5946 35.2541 53.8864 35.445C54.1895 35.6246 54.5544 35.7144 54.981 35.7144C55.1269 35.7144 55.2785 35.6976 55.4356 35.6639C55.5928 35.6302 55.7387 35.5741 55.8734 35.4955C56.0081 35.4169 56.1148 35.3215 56.1934 35.2092C56.2832 35.0857 56.3281 34.9454 56.3281 34.7883C56.3281 34.5076 56.2214 34.2999 56.0081 34.1652C55.7948 34.0305 55.5254 33.9239 55.1999 33.8453C54.8743 33.7555 54.5207 33.6769 54.139 33.6095C53.7686 33.531 53.4206 33.4131 53.095 33.2559C52.7695 33.0875 52.5 32.8574 52.2867 32.5655C52.0735 32.2737 51.9668 31.8695 51.9668 31.3531C51.9668 30.9041 52.0566 30.5168 52.2362 30.1912C52.4271 29.8545 52.674 29.5794 52.9771 29.3661C53.2802 29.1528 53.6282 28.9957 54.0211 28.8946C54.4141 28.7936 54.8126 28.7431 55.2167 28.7431C55.7556 28.7431 56.2888 28.8385 56.8164 29.0294C57.344 29.209 57.7706 29.5233 58.0962 29.9723L56.749 31.1847ZM59.5163 32.9865C59.5163 32.3466 59.6285 31.7685 59.8531 31.2521C60.0888 30.7245 60.4031 30.2754 60.796 29.905C61.1889 29.5345 61.6548 29.2483 62.1937 29.0462C62.7325 28.8441 63.305 28.7431 63.9112 28.7431C64.5174 28.7431 65.09 28.8441 65.6288 29.0462C66.1676 29.2483 66.6335 29.5345 67.0264 29.905C67.4193 30.2754 67.728 30.7245 67.9526 31.2521C68.1883 31.7685 68.3062 32.3466 68.3062 32.9865C68.3062 33.6264 68.1883 34.2101 67.9526 34.7377C67.728 35.2541 67.4193 35.6976 67.0264 36.068C66.6335 36.4385 66.1676 36.7247 65.6288 36.9268C65.09 37.1289 64.5174 37.2299 63.9112 37.2299C63.305 37.2299 62.7325 37.1289 62.1937 36.9268C61.6548 36.7247 61.1889 36.4385 60.796 36.068C60.4031 35.6976 60.0888 35.2541 59.8531 34.7377C59.6285 34.2101 59.5163 33.6264 59.5163 32.9865ZM61.5369 32.9865C61.5369 33.3008 61.5875 33.6039 61.6885 33.8958C61.8008 34.1877 61.9579 34.4459 62.16 34.6704C62.3733 34.8949 62.6259 35.0745 62.9177 35.2092C63.2096 35.3439 63.5408 35.4113 63.9112 35.4113C64.2817 35.4113 64.6129 35.3439 64.9047 35.2092C65.1966 35.0745 65.4436 34.8949 65.6456 34.6704C65.8589 34.4459 66.0161 34.1877 66.1171 33.8958C66.2294 33.6039 66.2855 33.3008 66.2855 32.9865C66.2855 32.6722 66.2294 32.3691 66.1171 32.0772C66.0161 31.7853 65.8589 31.5271 65.6456 31.3026C65.4436 31.0781 65.1966 30.8985 64.9047 30.7638C64.6129 30.6291 64.2817 30.5617 63.9112 30.5617C63.5408 30.5617 63.2096 30.6291 62.9177 30.7638C62.6259 30.8985 62.3733 31.0781 62.16 31.3026C61.9579 31.5271 61.8008 31.7853 61.6885 32.0772C61.5875 32.3691 61.5369 32.6722 61.5369 32.9865ZM70.1981 28.9452H72.1177V30.2418H72.1514C72.3422 29.8376 72.6341 29.4896 73.027 29.1977C73.4199 28.8946 73.9531 28.7431 74.6267 28.7431C75.1655 28.7431 75.6202 28.8329 75.9906 29.0125C76.3723 29.1921 76.681 29.4279 76.9168 29.7198C77.1525 30.0116 77.3209 30.3484 77.4219 30.7301C77.523 31.1118 77.5735 31.5103 77.5735 31.9256V37.0278H75.5528V32.936C75.5528 32.7115 75.5416 32.4645 75.5191 32.1951C75.4967 31.9144 75.435 31.6562 75.3339 31.4205C75.2441 31.1735 75.0982 30.9714 74.8961 30.8143C74.694 30.6459 74.419 30.5617 74.071 30.5617C73.7342 30.5617 73.448 30.6178 73.2122 30.7301C72.9877 30.8423 72.7969 30.9939 72.6397 31.1847C72.4938 31.3756 72.3871 31.5945 72.3198 31.8415C72.2524 32.0884 72.2187 32.3466 72.2187 32.616V37.0278H70.1981V28.9452ZM84.9189 35.9165H84.8684C84.5765 36.3767 84.2061 36.7135 83.757 36.9268C83.308 37.1289 82.8141 37.2299 82.2752 37.2299C81.9048 37.2299 81.5399 37.1794 81.1807 37.0783C80.8327 36.9773 80.5184 36.8258 80.2377 36.6237C79.9683 36.4216 79.7494 36.169 79.581 35.8659C79.4126 35.5628 79.3284 35.2092 79.3284 34.8051C79.3284 34.3673 79.407 33.9968 79.5642 33.6937C79.7213 33.3794 79.929 33.1212 80.1872 32.9191C80.4566 32.7059 80.7653 32.5375 81.1133 32.414C81.4613 32.2905 81.8206 32.2007 82.191 32.1446C82.5727 32.0772 82.9544 32.0379 83.3361 32.0267C83.7178 32.0042 84.077 31.993 84.4138 31.993H84.9189V31.7741C84.9189 31.2689 84.7449 30.8929 84.3969 30.6459C84.0489 30.3877 83.6055 30.2586 83.0667 30.2586C82.6401 30.2586 82.2415 30.3372 81.8711 30.4943C81.5006 30.6403 81.1807 30.8423 80.9113 31.1005L79.8504 30.0397C80.2995 29.5794 80.8215 29.2483 81.4164 29.0462C82.0226 28.8441 82.6457 28.7431 83.2856 28.7431C83.8581 28.7431 84.3408 28.8105 84.7337 28.9452C85.1266 29.0687 85.4522 29.2314 85.7104 29.4335C85.9686 29.6356 86.165 29.8713 86.2997 30.1407C86.4457 30.3989 86.5467 30.6627 86.6028 30.9322C86.6702 31.2016 86.7095 31.4654 86.7207 31.7236C86.7319 31.9706 86.7375 32.1895 86.7375 32.3803V37.0278H84.9189V35.9165ZM84.8011 33.4075H84.3801C84.0994 33.4075 83.7851 33.4187 83.4371 33.4411C83.0891 33.4636 82.7579 33.5197 82.4436 33.6095C82.1405 33.6881 81.8823 33.8116 81.669 33.98C81.4557 34.1372 81.3491 34.3617 81.3491 34.6535C81.3491 34.8444 81.3884 35.0072 81.467 35.1419C81.5568 35.2654 81.669 35.372 81.8037 35.4618C81.9384 35.5516 82.09 35.619 82.2584 35.6639C82.4268 35.6976 82.5952 35.7144 82.7636 35.7144C83.4596 35.7144 83.9703 35.5516 84.2959 35.2261C84.6327 34.8893 84.8011 34.4346 84.8011 33.8621V33.4075ZM88.9453 24.2976H90.9659V37.0278H88.9453V24.2976ZM98.4536 25.1059H100.575V29.8545H106.149V25.1059H108.271V37.0278H106.149V31.7741H100.575V37.0278H98.4536V25.1059ZM110.345 32.9865C110.345 32.3466 110.458 31.7685 110.682 31.2521C110.918 30.7245 111.232 30.2754 111.625 29.905C112.018 29.5345 112.484 29.2483 113.023 29.0462C113.562 28.8441 114.134 28.7431 114.74 28.7431C115.347 28.7431 115.919 28.8441 116.458 29.0462C116.997 29.2483 117.463 29.5345 117.856 29.905C118.248 30.2754 118.557 30.7245 118.782 31.2521C119.017 31.7685 119.135 32.3466 119.135 32.9865C119.135 33.6264 119.017 34.2101 118.782 34.7377C118.557 35.2541 118.248 35.6976 117.856 36.068C117.463 36.4385 116.997 36.7247 116.458 36.9268C115.919 37.1289 115.347 37.2299 114.74 37.2299C114.134 37.2299 113.562 37.1289 113.023 36.9268C112.484 36.7247 112.018 36.4385 111.625 36.068C111.232 35.6976 110.918 35.2541 110.682 34.7377C110.458 34.2101 110.345 33.6264 110.345 32.9865ZM112.366 32.9865C112.366 33.3008 112.417 33.6039 112.518 33.8958C112.63 34.1877 112.787 34.4459 112.989 34.6704C113.202 34.8949 113.455 35.0745 113.747 35.2092C114.039 35.3439 114.37 35.4113 114.74 35.4113C115.111 35.4113 115.442 35.3439 115.734 35.2092C116.026 35.0745 116.273 34.8949 116.475 34.6704C116.688 34.4459 116.845 34.1877 116.946 33.8958C117.058 33.6039 117.115 33.3008 117.115 32.9865C117.115 32.6722 117.058 32.3691 116.946 32.0772C116.845 31.7853 116.688 31.5271 116.475 31.3026C116.273 31.0781 116.026 30.8985 115.734 30.7638C115.442 30.6291 115.111 30.5617 114.74 30.5617C114.37 30.5617 114.039 30.6291 113.747 30.7638C113.455 30.8985 113.202 31.0781 112.989 31.3026C112.787 31.5271 112.63 31.7853 112.518 32.0772C112.417 32.3691 112.366 32.6722 112.366 32.9865ZM128.403 37.0278H126.483V35.7312H126.449C126.258 36.1354 125.967 36.489 125.574 36.7921C125.181 37.084 124.648 37.2299 123.974 37.2299C123.435 37.2299 122.975 37.1457 122.593 36.9773C122.223 36.7977 121.92 36.562 121.684 36.2701C121.448 35.967 121.28 35.6246 121.179 35.2429C121.078 34.8612 121.027 34.4627 121.027 34.0473V28.9452H123.048V33.037C123.048 33.2615 123.059 33.5141 123.082 33.7948C123.104 34.0642 123.16 34.3224 123.25 34.5694C123.351 34.8051 123.497 35.0072 123.688 35.1756C123.89 35.3327 124.17 35.4113 124.53 35.4113C124.866 35.4113 125.147 35.3552 125.372 35.2429C125.607 35.1307 125.798 34.9791 125.944 34.7883C126.101 34.5974 126.214 34.3785 126.281 34.1315C126.348 33.8846 126.382 33.6264 126.382 33.357V28.9452H128.403V37.0278ZM130.696 28.9452H132.717V30.2249H132.751C132.975 29.7534 133.295 29.3886 133.711 29.1304C134.126 28.8722 134.603 28.7431 135.142 28.7431C135.265 28.7431 135.383 28.7543 135.495 28.7768C135.619 28.7992 135.742 28.8273 135.866 28.861V30.8143C135.698 30.7694 135.529 30.7357 135.361 30.7132C135.204 30.6796 135.046 30.6627 134.889 30.6627C134.418 30.6627 134.036 30.7525 133.744 30.9322C133.464 31.1005 133.245 31.297 133.087 31.5215C132.942 31.746 132.841 31.9706 132.784 32.1951C132.739 32.4196 132.717 32.588 132.717 32.7002V37.0278H130.696V28.9452ZM141.552 31.1847C141.159 30.6347 140.631 30.3596 139.969 30.3596C139.7 30.3596 139.436 30.427 139.178 30.5617C138.919 30.6964 138.79 30.9153 138.79 31.2184C138.79 31.4654 138.897 31.645 139.11 31.7573C139.324 31.8695 139.593 31.9649 139.919 32.0435C140.244 32.1221 140.592 32.2063 140.963 32.2961C141.344 32.3747 141.698 32.5038 142.023 32.6834C142.349 32.8518 142.618 33.0875 142.832 33.3906C143.045 33.6937 143.152 34.1091 143.152 34.6367C143.152 35.1194 143.045 35.5292 142.832 35.8659C142.63 36.1915 142.36 36.4553 142.023 36.6574C141.698 36.8594 141.327 37.0054 140.912 37.0952C140.497 37.185 140.081 37.2299 139.666 37.2299C139.037 37.2299 138.459 37.1401 137.932 36.9605C137.404 36.7809 136.932 36.4553 136.517 35.9838L137.864 34.7209C138.122 35.0128 138.397 35.2541 138.689 35.445C138.992 35.6246 139.357 35.7144 139.784 35.7144C139.93 35.7144 140.081 35.6976 140.238 35.6639C140.396 35.6302 140.542 35.5741 140.676 35.4955C140.811 35.4169 140.918 35.3215 140.996 35.2092C141.086 35.0857 141.131 34.9454 141.131 34.7883C141.131 34.5076 141.024 34.2999 140.811 34.1652C140.598 34.0305 140.328 33.9239 140.003 33.8453C139.677 33.7555 139.324 33.6769 138.942 33.6095C138.571 33.531 138.223 33.4131 137.898 33.2559C137.572 33.0875 137.303 32.8574 137.09 32.5655C136.876 32.2737 136.77 31.8695 136.77 31.3531C136.77 30.9041 136.859 30.5168 137.039 30.1912C137.23 29.8545 137.477 29.5794 137.78 29.3661C138.083 29.1528 138.431 28.9957 138.824 28.8946C139.217 28.7936 139.615 28.7431 140.02 28.7431C140.558 28.7431 141.092 28.8385 141.619 29.0294C142.147 29.209 142.573 29.5233 142.899 29.9723L141.552 31.1847Z" fill="black"/>
<path d="M33.3297 93.1674H34.5228C35.19 93.1674 35.8315 93.129 36.4473 93.052C37.0888 92.975 37.6533 92.8082 38.1408 92.5516C38.654 92.295 39.0645 91.923 39.3724 91.4354C39.6804 90.9479 39.8343 90.2936 39.8343 89.4725C39.8343 88.4205 39.4751 87.5609 38.7566 86.8938C38.0382 86.2266 37.1016 85.893 35.9469 85.893C35.0232 85.893 34.1893 86.1625 33.4452 86.7013C32.7267 87.2145 32.2007 87.9458 31.8671 88.8952L26.979 87.5866C27.2869 86.5858 27.7231 85.7134 28.2876 84.9693C28.8521 84.2252 29.5193 83.6222 30.2891 83.1603C31.0588 82.6728 31.9056 82.3136 32.8293 82.0826C33.7531 81.8517 34.7153 81.7362 35.716 81.7362C36.8963 81.7362 38.0125 81.8902 39.0645 82.1981C40.1166 82.506 41.0403 82.9679 41.8357 83.5837C42.6312 84.1739 43.2598 84.9308 43.7217 85.8546C44.2092 86.7526 44.453 87.8047 44.453 89.0106C44.453 90.4732 44.0424 91.7818 43.2213 92.9365C42.4002 94.0655 41.2584 94.8096 39.7958 95.1689V95.2458C41.5407 95.5024 42.8621 96.2466 43.7602 97.4782C44.6583 98.7098 45.1073 100.172 45.1073 101.866C45.1073 103.175 44.8507 104.329 44.3375 105.33C43.85 106.331 43.1828 107.177 42.3361 107.87C41.4893 108.537 40.5015 109.051 39.3724 109.41C38.2691 109.743 37.1144 109.91 35.9084 109.91C34.7794 109.91 33.7146 109.782 32.7139 109.525C31.7132 109.294 30.8023 108.922 29.9812 108.409C29.1857 107.896 28.4929 107.242 27.9028 106.446C27.3126 105.625 26.8636 104.65 26.5556 103.521L31.4822 102.212C31.7645 103.341 32.2648 104.214 32.9833 104.83C33.7017 105.445 34.6768 105.753 35.9084 105.753C36.5243 105.753 37.1016 105.651 37.6404 105.445C38.2049 105.24 38.6925 104.958 39.103 104.599C39.5392 104.214 39.8728 103.765 40.1037 103.252C40.3603 102.713 40.4886 102.123 40.4886 101.481C40.4886 100.609 40.2962 99.903 39.9113 99.3642C39.5521 98.7996 39.0774 98.3763 38.4872 98.094C37.9227 97.7861 37.2812 97.5808 36.5628 97.4782C35.8443 97.3756 35.1387 97.3242 34.4459 97.3242H33.3297V93.1674Z" fill="black"/>
<path d="M34.1524 129.795C34.1524 129.257 34.0642 128.746 33.8878 128.261C33.7114 127.767 33.4556 127.335 33.1204 126.964C32.7941 126.594 32.3927 126.298 31.9164 126.078C31.4401 125.857 30.9021 125.747 30.3023 125.747C29.7025 125.747 29.1645 125.857 28.6882 126.078C28.2119 126.298 27.8061 126.594 27.471 126.964C27.1446 127.335 26.8932 127.767 26.7168 128.261C26.5404 128.746 26.4522 129.257 26.4522 129.795C26.4522 130.333 26.5404 130.849 26.7168 131.343C26.8932 131.828 27.1446 132.256 27.471 132.627C27.8061 132.997 28.2119 133.293 28.6882 133.513C29.1645 133.734 29.7025 133.844 30.3023 133.844C30.9021 133.844 31.4401 133.734 31.9164 133.513C32.3927 133.293 32.7941 132.997 33.1204 132.627C33.4556 132.256 33.7114 131.828 33.8878 131.343C34.0642 130.849 34.1524 130.333 34.1524 129.795ZM35.1844 129.795C35.1844 130.51 35.0609 131.167 34.8139 131.767C34.5669 132.367 34.223 132.887 33.7819 133.328C33.3497 133.76 32.8337 134.1 32.234 134.347C31.643 134.594 30.9991 134.717 30.3023 134.717C29.6055 134.717 28.9572 134.594 28.3574 134.347C27.7664 134.1 27.2504 133.76 26.8094 133.328C26.3772 132.887 26.0376 132.367 25.7907 131.767C25.5437 131.167 25.4202 130.51 25.4202 129.795C25.4202 129.081 25.5437 128.424 25.7907 127.824C26.0376 127.224 26.3772 126.708 26.8094 126.276C27.2504 125.835 27.7664 125.491 28.3574 125.244C28.9572 124.997 29.6055 124.874 30.3023 124.874C30.9991 124.874 31.643 124.997 32.234 125.244C32.8337 125.491 33.3497 125.835 33.7819 126.276C34.223 126.708 34.5669 127.224 34.8139 127.824C35.0609 128.424 35.1844 129.081 35.1844 129.795ZM41.2438 134.479C41.2261 134.311 41.2129 134.148 41.2041 133.989C41.2041 133.822 41.2041 133.654 41.2041 133.487H41.1776C41.0806 133.654 40.9571 133.809 40.8072 133.95C40.6572 134.091 40.4896 134.214 40.3044 134.32C40.1192 134.417 39.9207 134.492 39.709 134.545C39.5061 134.607 39.3033 134.638 39.1004 134.638C38.3066 134.638 37.72 134.43 37.3407 134.016C36.9615 133.593 36.7718 132.993 36.7718 132.217V128.287H37.645V131.714C37.645 132.058 37.6715 132.362 37.7244 132.627C37.7774 132.891 37.8656 133.116 37.989 133.301C38.1213 133.478 38.2933 133.615 38.505 133.712C38.7255 133.8 38.999 133.844 39.3253 133.844C39.3694 133.844 39.4929 133.826 39.6958 133.791C39.8987 133.756 40.1103 133.659 40.3309 133.5C40.5602 133.341 40.7631 133.103 40.9395 132.785C41.1159 132.468 41.2041 132.027 41.2041 131.462V128.287H42.0773V133.116C42.0773 133.284 42.0817 133.496 42.0905 133.751C42.1082 134.007 42.1258 134.25 42.1434 134.479H41.2438ZM47.3254 129.081H45.5392V132.733C45.5392 132.962 45.5613 133.152 45.6054 133.301C45.6495 133.443 45.7112 133.553 45.7906 133.632C45.87 133.712 45.9626 133.769 46.0685 133.804C46.1831 133.831 46.3066 133.844 46.4389 133.844C46.5889 133.844 46.7432 133.822 46.902 133.778C47.0608 133.734 47.2063 133.676 47.3386 133.606L47.3783 134.413C47.0519 134.563 46.6594 134.638 46.2008 134.638C46.0332 134.638 45.8568 134.616 45.6716 134.572C45.4951 134.528 45.332 134.444 45.182 134.32C45.0321 134.197 44.9086 134.029 44.8116 133.817C44.7145 133.606 44.666 133.328 44.666 132.984V129.081H43.3562V128.287H44.666V126.541H45.5392V128.287H47.3254V129.081ZM57.5043 131.383C57.5043 131.039 57.447 130.717 57.3323 130.417C57.2265 130.117 57.0721 129.857 56.8693 129.637C56.6664 129.416 56.4194 129.244 56.1283 129.121C55.8461 128.988 55.5241 128.922 55.1625 128.922C54.8009 128.922 54.4745 128.988 54.1835 129.121C53.9012 129.244 53.6586 129.416 53.4558 129.637C53.2617 129.857 53.1074 130.117 52.9927 130.417C52.8869 130.717 52.8339 131.039 52.8339 131.383C52.8339 131.727 52.8869 132.049 52.9927 132.349C53.1074 132.649 53.2617 132.909 53.4558 133.129C53.6586 133.35 53.9012 133.526 54.1835 133.659C54.4745 133.782 54.8009 133.844 55.1625 133.844C55.5241 133.844 55.8461 133.782 56.1283 133.659C56.4194 133.526 56.6664 133.35 56.8693 133.129C57.0721 132.909 57.2265 132.649 57.3323 132.349C57.447 132.049 57.5043 131.727 57.5043 131.383ZM58.4569 131.383C58.4569 131.851 58.3731 132.283 58.2055 132.68C58.0468 133.077 57.8219 133.421 57.5308 133.712C57.2397 134.003 56.8913 134.232 56.4856 134.4C56.0887 134.558 55.6476 134.638 55.1625 134.638C54.6862 134.638 54.2452 134.558 53.8395 134.4C53.4425 134.232 53.0985 134.003 52.8075 133.712C52.5164 133.421 52.2871 133.077 52.1195 132.68C51.9607 132.283 51.8813 131.851 51.8813 131.383C51.8813 130.916 51.9607 130.483 52.1195 130.086C52.2871 129.69 52.5164 129.346 52.8075 129.054C53.0985 128.763 53.4425 128.538 53.8395 128.38C54.2452 128.212 54.6862 128.128 55.1625 128.128C55.6476 128.128 56.0887 128.212 56.4856 128.38C56.8913 128.538 57.2397 128.763 57.5308 129.054C57.8219 129.346 58.0468 129.69 58.2055 130.086C58.3731 130.483 58.4569 130.916 58.4569 131.383ZM62.9259 129.081H61.4573V134.479H60.584V129.081H59.2742V128.287H60.584V126.594C60.584 125.773 60.7737 125.191 61.153 124.847C61.5322 124.494 62.035 124.318 62.6612 124.318C62.7847 124.318 62.9082 124.327 63.0317 124.344C63.164 124.362 63.2919 124.384 63.4154 124.411L63.2566 125.204C63.1508 125.178 63.0405 125.156 62.9259 125.138C62.8112 125.121 62.6965 125.112 62.5819 125.112C62.3437 125.112 62.1497 125.151 61.9997 125.231C61.8498 125.31 61.7351 125.425 61.6557 125.575C61.5763 125.716 61.5234 125.884 61.497 126.078C61.4705 126.272 61.4573 126.479 61.4573 126.699V128.287H62.9259V129.081ZM69.3853 129.134H69.8748C70.1482 129.134 70.4084 129.103 70.6554 129.041C70.9112 128.98 71.1317 128.882 71.3169 128.75C71.5021 128.609 71.6477 128.428 71.7535 128.208C71.8682 127.987 71.9255 127.723 71.9255 127.414C71.9255 126.911 71.7712 126.523 71.4625 126.25C71.1626 125.967 70.7392 125.826 70.1923 125.826C69.7954 125.826 69.447 125.914 69.1471 126.091C68.8472 126.267 68.6002 126.523 68.4062 126.858L67.5727 126.435C67.8549 125.932 68.2121 125.562 68.6443 125.323C69.0854 125.076 69.5925 124.953 70.1659 124.953C70.5363 124.953 70.8847 125.006 71.2111 125.112C71.5374 125.218 71.8241 125.376 72.0711 125.588C72.318 125.791 72.5121 126.047 72.6532 126.355C72.8031 126.655 72.8781 126.999 72.8781 127.387C72.8781 127.643 72.834 127.886 72.7458 128.115C72.6664 128.344 72.5518 128.552 72.4018 128.737C72.2607 128.922 72.0931 129.085 71.8991 129.226C71.705 129.359 71.5021 129.46 71.2905 129.531L71.3301 129.557C71.5948 129.61 71.8373 129.712 72.0578 129.862C72.2783 130.003 72.468 130.179 72.6267 130.391C72.7855 130.602 72.909 130.841 72.9972 131.105C73.0854 131.37 73.1295 131.648 73.1295 131.939C73.1295 132.371 73.0501 132.755 72.8914 133.09C72.7326 133.425 72.5165 133.707 72.2431 133.937C71.9696 134.166 71.6521 134.342 71.2905 134.466C70.9288 134.58 70.5451 134.638 70.1394 134.638C69.4514 134.638 68.8516 134.488 68.34 134.188C67.8285 133.888 67.4448 133.407 67.189 132.746L68.1945 132.441C68.3533 132.891 68.587 133.227 68.8957 133.447C69.2133 133.659 69.6543 133.765 70.2188 133.765C70.4834 133.765 70.7348 133.72 70.9729 133.632C71.2111 133.544 71.4184 133.421 71.5948 133.262C71.78 133.094 71.9211 132.896 72.0181 132.666C72.124 132.437 72.1769 132.186 72.1769 131.912C72.1769 131.559 72.1108 131.264 71.9784 131.026C71.8461 130.779 71.6697 130.58 71.4492 130.43C71.2287 130.281 70.9729 130.175 70.6819 130.113C70.3996 130.042 70.1041 130.007 69.7954 130.007H69.3853V129.134ZM78.9904 125.112H79.943V129.174H85.05V125.112H86.0026V134.479H85.05V130.047H79.943V134.479H78.9904V125.112ZM93.5266 131.383C93.5266 131.039 93.4692 130.717 93.3546 130.417C93.2487 130.117 93.0944 129.857 92.8915 129.637C92.6886 129.416 92.4417 129.244 92.1506 129.121C91.8683 128.988 91.5464 128.922 91.1848 128.922C90.8231 128.922 90.4968 128.988 90.2057 129.121C89.9235 129.244 89.6809 129.416 89.478 129.637C89.284 129.857 89.1296 130.117 89.015 130.417C88.9091 130.717 88.8562 131.039 88.8562 131.383C88.8562 131.727 88.9091 132.049 89.015 132.349C89.1296 132.649 89.284 132.909 89.478 133.129C89.6809 133.35 89.9235 133.526 90.2057 133.659C90.4968 133.782 90.8231 133.844 91.1848 133.844C91.5464 133.844 91.8683 133.782 92.1506 133.659C92.4417 133.526 92.6886 133.35 92.8915 133.129C93.0944 132.909 93.2487 132.649 93.3546 132.349C93.4692 132.049 93.5266 131.727 93.5266 131.383ZM94.4792 131.383C94.4792 131.851 94.3954 132.283 94.2278 132.68C94.069 133.077 93.8441 133.421 93.553 133.712C93.262 134.003 92.9136 134.232 92.5078 134.4C92.1109 134.558 91.6699 134.638 91.1848 134.638C90.7085 134.638 90.2674 134.558 89.8617 134.4C89.4648 134.232 89.1208 134.003 88.8297 133.712C88.5387 133.421 88.3093 133.077 88.1417 132.68C87.983 132.283 87.9036 131.851 87.9036 131.383C87.9036 130.916 87.983 130.483 88.1417 130.086C88.3093 129.69 88.5387 129.346 88.8297 129.054C89.1208 128.763 89.4648 128.538 89.8617 128.38C90.2674 128.212 90.7085 128.128 91.1848 128.128C91.6699 128.128 92.1109 128.212 92.5078 128.38C92.9136 128.538 93.262 128.763 93.553 129.054C93.8441 129.346 94.069 129.69 94.2278 130.086C94.3954 130.483 94.4792 130.916 94.4792 131.383ZM100.536 134.479C100.518 134.311 100.505 134.148 100.496 133.989C100.496 133.822 100.496 133.654 100.496 133.487H100.47C100.373 133.654 100.249 133.809 100.099 133.95C99.9492 134.091 99.7816 134.214 99.5964 134.32C99.4112 134.417 99.2127 134.492 99.001 134.545C98.7982 134.607 98.5953 134.638 98.3924 134.638C97.5986 134.638 97.012 134.43 96.6328 134.016C96.2535 133.593 96.0638 132.993 96.0638 132.217V128.287H96.9371V131.714C96.9371 132.058 96.9635 132.362 97.0164 132.627C97.0694 132.891 97.1576 133.116 97.2811 133.301C97.4134 133.478 97.5854 133.615 97.797 133.712C98.0176 133.8 98.291 133.844 98.6173 133.844C98.6614 133.844 98.7849 133.826 98.9878 133.791C99.1907 133.756 99.4024 133.659 99.6229 133.5C99.8522 133.341 100.055 133.103 100.231 132.785C100.408 132.468 100.496 132.027 100.496 131.462V128.287H101.369V133.116C101.369 133.284 101.374 133.496 101.383 133.751C101.4 134.007 101.418 134.25 101.435 134.479H100.536ZM103.508 130.219C103.508 129.945 103.499 129.667 103.482 129.385C103.473 129.103 103.464 128.737 103.455 128.287H104.315V129.438H104.342C104.403 129.271 104.492 129.112 104.606 128.962C104.721 128.803 104.858 128.662 105.016 128.538C105.184 128.415 105.374 128.318 105.585 128.247C105.806 128.168 106.053 128.128 106.326 128.128C106.573 128.128 106.789 128.155 106.975 128.208L106.803 129.068C106.688 129.024 106.52 129.002 106.3 129.002C105.965 129.002 105.678 129.068 105.44 129.2C105.202 129.323 105.003 129.487 104.844 129.69C104.686 129.884 104.567 130.095 104.487 130.325C104.417 130.554 104.381 130.774 104.381 130.986V134.479H103.508V130.219ZM111.09 129.756C110.957 129.5 110.781 129.297 110.561 129.147C110.34 128.997 110.071 128.922 109.753 128.922C109.603 128.922 109.449 128.94 109.29 128.975C109.14 129.01 109.004 129.068 108.88 129.147C108.757 129.218 108.655 129.31 108.576 129.425C108.505 129.54 108.47 129.681 108.47 129.848C108.47 130.139 108.572 130.351 108.774 130.483C108.977 130.616 109.282 130.73 109.687 130.827L110.574 131.039C111.006 131.136 111.363 131.335 111.645 131.634C111.936 131.926 112.082 132.292 112.082 132.733C112.082 133.068 112.011 133.359 111.87 133.606C111.738 133.844 111.557 134.042 111.328 134.201C111.107 134.351 110.852 134.461 110.561 134.532C110.269 134.602 109.974 134.638 109.674 134.638C109.198 134.638 108.752 134.55 108.338 134.373C107.932 134.188 107.584 133.875 107.293 133.434L108.047 132.918C108.223 133.2 108.444 133.425 108.708 133.593C108.982 133.76 109.304 133.844 109.674 133.844C109.85 133.844 110.027 133.826 110.203 133.791C110.38 133.747 110.534 133.685 110.666 133.606C110.807 133.518 110.918 133.407 110.997 133.275C111.085 133.143 111.129 132.988 111.129 132.812C111.129 132.503 111.015 132.283 110.785 132.15C110.556 132.009 110.278 131.899 109.952 131.82L109.105 131.621C108.999 131.595 108.854 131.551 108.669 131.489C108.492 131.427 108.316 131.335 108.139 131.211C107.972 131.088 107.826 130.929 107.703 130.735C107.579 130.532 107.517 130.285 107.517 129.994C107.517 129.676 107.579 129.398 107.703 129.16C107.835 128.922 108.007 128.728 108.219 128.578C108.439 128.428 108.686 128.318 108.96 128.247C109.233 128.168 109.515 128.128 109.806 128.128C110.239 128.128 110.64 128.212 111.01 128.38C111.381 128.547 111.667 128.834 111.87 129.24L111.09 129.756Z" fill="#777FA1"/>
<circle cx="159.896" cy="108.463" r="21.65" fill="#F1F2F6"/>
<path d="M166.624 106.67C166.624 103.663 165.007 100.919 162.414 99.4158C159.783 97.8747 156.588 97.8747 153.995 99.4158C151.363 100.919 149.785 103.663 149.785 106.67C149.785 109.715 151.363 112.458 153.995 113.962C156.588 115.503 159.783 115.503 162.414 113.962C165.007 112.458 166.624 109.715 166.624 106.67ZM148.582 106.67C148.582 103.25 150.386 100.092 153.393 98.3634C156.362 96.6344 160.008 96.6344 163.015 98.3634C165.985 100.092 167.826 103.25 167.826 106.67C167.826 110.128 165.985 113.285 163.015 115.014C160.008 116.743 156.362 116.743 153.393 115.014C150.386 113.285 148.582 110.128 148.582 106.67ZM157.603 101.258C157.603 100.957 157.866 100.656 158.204 100.656C158.505 100.656 158.806 100.957 158.806 101.258V106.369L162.113 108.587C162.414 108.775 162.489 109.151 162.301 109.414C162.113 109.715 161.737 109.79 161.474 109.602L157.866 107.196C157.678 107.084 157.603 106.896 157.603 106.67V101.258Z" fill="#777FA1"/>
</svg>
