<svg width="171" height="133" viewBox="0 0 171 133" fill="none" xmlns="http://www.w3.org/2000/svg">
<rect x="0.666016" width="170.333" height="132.091" rx="20" fill="white"/>
<path d="M25.174 20.088C25.7153 20.088 26.252 20.1627 26.784 20.312C27.3253 20.452 27.7873 20.7367 28.17 21.166C28.562 21.586 28.758 22.174 28.758 22.93C28.758 23.6207 28.618 24.1853 28.338 24.624C28.0673 25.0627 27.6473 25.3847 27.078 25.59C26.5087 25.7953 25.7807 25.898 24.894 25.898H23.536V30H21.772V20.088H25.174ZM24.684 24.386C25.1133 24.386 25.482 24.358 25.79 24.302C26.1073 24.2367 26.3733 24.1013 26.588 23.896C26.8027 23.6907 26.91 23.3873 26.91 22.986C26.91 22.5193 26.7373 22.174 26.392 21.95C26.056 21.7167 25.5427 21.6 24.852 21.6H23.536V24.386H24.684ZM33.4946 23.112C34.1853 23.112 34.7639 23.2707 35.2306 23.588C35.7066 23.9053 36.0613 24.3393 36.2946 24.89C36.5279 25.4407 36.6446 26.0613 36.6446 26.752V27.228H31.5206C31.5579 27.5453 31.6559 27.8253 31.8146 28.068C31.9826 28.3107 32.1973 28.4973 32.4586 28.628C32.7199 28.7587 33.0093 28.824 33.3266 28.824C33.6999 28.824 34.0313 28.7493 34.3206 28.6C34.6193 28.4413 34.8899 28.2127 35.1326 27.914L36.3366 28.824C35.9726 29.272 35.5526 29.608 35.0766 29.832C34.6006 30.056 34.0733 30.168 33.4946 30.168C32.8133 30.168 32.1926 30.0187 31.6326 29.72C31.0819 29.4213 30.6433 29.006 30.3166 28.474C29.9993 27.9327 29.8406 27.3213 29.8406 26.64C29.8406 25.9587 29.9993 25.352 30.3166 24.82C30.6433 24.2787 31.0819 23.8587 31.6326 23.56C32.1926 23.2613 32.8133 23.112 33.4946 23.112ZM34.9646 25.968C34.9553 25.4547 34.7919 25.0627 34.4746 24.792C34.1666 24.512 33.7559 24.372 33.2426 24.372C32.7573 24.372 32.3653 24.5167 32.0666 24.806C31.7679 25.0953 31.5859 25.4827 31.5206 25.968H34.9646ZM41.9117 23.112C42.0143 23.112 42.103 23.1213 42.1777 23.14C42.2617 23.1493 42.3317 23.1633 42.3877 23.182C42.4437 23.1913 42.4857 23.2007 42.5137 23.21V24.834C42.1963 24.75 41.9257 24.708 41.7017 24.708C41.3003 24.708 40.9643 24.792 40.6937 24.96C40.423 25.128 40.2223 25.3473 40.0917 25.618C39.961 25.8887 39.8957 26.1827 39.8957 26.5V30H38.2157V23.28H39.8957V24.344H39.9237C40.1103 23.9613 40.3763 23.6627 40.7217 23.448C41.0763 23.224 41.473 23.112 41.9117 23.112ZM45.9531 23.112C46.4757 23.112 46.9471 23.2007 47.3671 23.378C47.7871 23.5553 48.1184 23.8073 48.3611 24.134L47.2411 25.142C47.0731 24.9087 46.8817 24.736 46.6671 24.624C46.4524 24.512 46.2051 24.456 45.9251 24.456C45.6451 24.456 45.4117 24.5213 45.2251 24.652C45.0384 24.7827 44.9451 24.9553 44.9451 25.17C44.9451 25.3193 45.0011 25.4453 45.1131 25.548C45.2251 25.6413 45.3651 25.716 45.5331 25.772C45.7104 25.8187 45.9531 25.8747 46.2611 25.94L46.5411 26.01C46.9517 26.1033 47.3017 26.22 47.5911 26.36C47.8804 26.4907 48.1137 26.6913 48.2911 26.962C48.4777 27.2233 48.5711 27.5733 48.5711 28.012C48.5711 28.4693 48.4451 28.8613 48.1931 29.188C47.9411 29.5147 47.5957 29.762 47.1571 29.93C46.7184 30.0887 46.2191 30.168 45.6591 30.168C45.1084 30.168 44.6184 30.0887 44.1891 29.93C43.7597 29.7713 43.3817 29.5053 43.0551 29.132L44.1751 28.082C44.4551 28.39 44.7164 28.6047 44.9591 28.726C45.2017 28.8473 45.4724 28.908 45.7711 28.908C46.0884 28.908 46.3544 28.838 46.5691 28.698C46.7837 28.5487 46.8911 28.362 46.8911 28.138C46.8911 27.942 46.8164 27.788 46.6671 27.676C46.5271 27.5547 46.3731 27.4707 46.2051 27.424C46.0371 27.3773 45.7104 27.298 45.2251 27.186C44.8331 27.0927 44.5017 26.9853 44.2311 26.864C43.9604 26.7427 43.7317 26.556 43.5451 26.304C43.3584 26.052 43.2651 25.7113 43.2651 25.282C43.2651 24.7687 43.4004 24.3533 43.6711 24.036C43.9511 23.7093 44.2917 23.476 44.6931 23.336C45.1037 23.1867 45.5237 23.112 45.9531 23.112ZM53.1958 23.112C53.8771 23.112 54.4931 23.2613 55.0438 23.56C55.6038 23.8587 56.0424 24.2787 56.3598 24.82C56.6864 25.352 56.8498 25.9587 56.8498 26.64C56.8498 27.3213 56.6864 27.9327 56.3598 28.474C56.0424 29.006 55.6038 29.4213 55.0438 29.72C54.4931 30.0187 53.8771 30.168 53.1958 30.168C52.5144 30.168 51.8938 30.0187 51.3338 29.72C50.7831 29.4213 50.3444 29.006 50.0178 28.474C49.7004 27.9327 49.5418 27.3213 49.5418 26.64C49.5418 25.9587 49.7004 25.352 50.0178 24.82C50.3444 24.2787 50.7831 23.8587 51.3338 23.56C51.8938 23.2613 52.5144 23.112 53.1958 23.112ZM51.2218 26.64C51.2218 27.0227 51.3058 27.368 51.4738 27.676C51.6511 27.984 51.8891 28.2267 52.1878 28.404C52.4864 28.572 52.8224 28.656 53.1958 28.656C53.5784 28.656 53.9191 28.5673 54.2178 28.39C54.5164 28.2127 54.7498 27.97 54.9178 27.662C55.0858 27.354 55.1698 27.0133 55.1698 26.64C55.1698 26.2573 55.0811 25.912 54.9038 25.604C54.7358 25.296 54.4978 25.058 54.1898 24.89C53.8911 24.7127 53.5551 24.624 53.1818 24.624C52.8178 24.624 52.4864 24.7127 52.1878 24.89C51.8891 25.0673 51.6511 25.31 51.4738 25.618C51.3058 25.926 51.2218 26.2667 51.2218 26.64ZM62.1047 23.112C62.7207 23.112 63.2107 23.2473 63.5747 23.518C63.9387 23.7887 64.1907 24.12 64.3307 24.512C64.48 24.8947 64.5547 25.2913 64.5547 25.702V30H62.8747V26.514C62.8747 25.8607 62.772 25.3847 62.5667 25.086C62.3614 24.778 62.0534 24.624 61.6427 24.624C61.1294 24.624 60.742 24.7827 60.4807 25.1C60.2287 25.4173 60.1027 25.8187 60.1027 26.304V30H58.4227V23.28H60.0187V24.358H60.0467C60.2427 23.938 60.518 23.6253 60.8727 23.42C61.2274 23.2147 61.638 23.112 62.1047 23.112ZM69.3038 23.112C70.3678 23.112 71.1098 23.3687 71.5298 23.882C71.9591 24.3953 72.1738 25.0953 72.1738 25.982V30H70.6618V29.076H70.6198C70.3864 29.44 70.0831 29.7153 69.7098 29.902C69.3458 30.0793 68.9304 30.168 68.4638 30.168C68.0064 30.168 67.5911 30.084 67.2178 29.916C66.8444 29.748 66.5504 29.5147 66.3358 29.216C66.1211 28.908 66.0138 28.5533 66.0138 28.152C66.0138 27.368 66.3451 26.7847 67.0078 26.402C67.6704 26.01 68.7158 25.814 70.1438 25.814H70.6618V25.618C70.6618 25.226 70.5218 24.9227 70.2418 24.708C69.9618 24.484 69.5884 24.372 69.1218 24.372C68.7858 24.372 68.4638 24.4373 68.1558 24.568C67.8478 24.6893 67.5724 24.8573 67.3298 25.072L66.4478 24.19C66.7744 23.8633 67.1758 23.602 67.6518 23.406C68.1278 23.21 68.6784 23.112 69.3038 23.112ZM67.6938 28.026C67.6938 28.2967 67.8058 28.5113 68.0298 28.67C68.2631 28.8287 68.5478 28.908 68.8838 28.908C69.4344 28.908 69.8498 28.7727 70.1298 28.502C70.4191 28.222 70.5638 27.858 70.5638 27.41V26.99H70.0738C69.3084 26.99 68.7204 27.0787 68.3098 27.256C67.8991 27.424 67.6938 27.6807 67.6938 28.026ZM75.6893 30H74.0093V19.416H75.6893V30ZM83.6786 24.036H88.3126V20.088H90.0766V30H88.3126V25.632H83.6786V30H81.9146V20.088H83.6786V24.036ZM95.4555 23.112C96.1369 23.112 96.7529 23.2613 97.3035 23.56C97.8635 23.8587 98.3022 24.2787 98.6195 24.82C98.9462 25.352 99.1095 25.9587 99.1095 26.64C99.1095 27.3213 98.9462 27.9327 98.6195 28.474C98.3022 29.006 97.8635 29.4213 97.3035 29.72C96.7529 30.0187 96.1369 30.168 95.4555 30.168C94.7742 30.168 94.1535 30.0187 93.5935 29.72C93.0429 29.4213 92.6042 29.006 92.2775 28.474C91.9602 27.9327 91.8015 27.3213 91.8015 26.64C91.8015 25.9587 91.9602 25.352 92.2775 24.82C92.6042 24.2787 93.0429 23.8587 93.5935 23.56C94.1535 23.2613 94.7742 23.112 95.4555 23.112ZM93.4815 26.64C93.4815 27.0227 93.5655 27.368 93.7335 27.676C93.9109 27.984 94.1489 28.2267 94.4475 28.404C94.7462 28.572 95.0822 28.656 95.4555 28.656C95.8382 28.656 96.1789 28.5673 96.4775 28.39C96.7762 28.2127 97.0095 27.97 97.1775 27.662C97.3455 27.354 97.4295 27.0133 97.4295 26.64C97.4295 26.2573 97.3409 25.912 97.1635 25.604C96.9955 25.296 96.7575 25.058 96.4495 24.89C96.1509 24.7127 95.8149 24.624 95.4415 24.624C95.0775 24.624 94.7462 24.7127 94.4475 24.89C94.1489 25.0673 93.9109 25.31 93.7335 25.618C93.5655 25.926 93.4815 26.2667 93.4815 26.64ZM102.362 26.752C102.362 27.4147 102.465 27.9 102.67 28.208C102.876 28.5067 103.184 28.656 103.594 28.656C104.08 28.656 104.458 28.502 104.728 28.194C104.999 27.886 105.134 27.4707 105.134 26.948V23.28H106.814V30H105.218V28.922H105.19C104.994 29.342 104.724 29.6547 104.378 29.86C104.033 30.0653 103.618 30.168 103.132 30.168C102.526 30.168 102.04 30.0373 101.676 29.776C101.312 29.5147 101.056 29.188 100.906 28.796C100.757 28.404 100.682 27.998 100.682 27.578V23.28H102.362V26.752ZM112.418 23.112C112.52 23.112 112.609 23.1213 112.684 23.14C112.768 23.1493 112.838 23.1633 112.894 23.182C112.95 23.1913 112.992 23.2007 113.02 23.21V24.834C112.702 24.75 112.432 24.708 112.208 24.708C111.806 24.708 111.47 24.792 111.2 24.96C110.929 25.128 110.728 25.3473 110.598 25.618C110.467 25.8887 110.402 26.1827 110.402 26.5V30H108.722V23.28H110.402V24.344H110.43C110.616 23.9613 110.882 23.6627 111.228 23.448C111.582 23.224 111.979 23.112 112.418 23.112ZM116.459 23.112C116.982 23.112 117.453 23.2007 117.873 23.378C118.293 23.5553 118.624 23.8073 118.867 24.134L117.747 25.142C117.579 24.9087 117.388 24.736 117.173 24.624C116.958 24.512 116.711 24.456 116.431 24.456C116.151 24.456 115.918 24.5213 115.731 24.652C115.544 24.7827 115.451 24.9553 115.451 25.17C115.451 25.3193 115.507 25.4453 115.619 25.548C115.731 25.6413 115.871 25.716 116.039 25.772C116.216 25.8187 116.459 25.8747 116.767 25.94L117.047 26.01C117.458 26.1033 117.808 26.22 118.097 26.36C118.386 26.4907 118.62 26.6913 118.797 26.962C118.984 27.2233 119.077 27.5733 119.077 28.012C119.077 28.4693 118.951 28.8613 118.699 29.188C118.447 29.5147 118.102 29.762 117.663 29.93C117.224 30.0887 116.725 30.168 116.165 30.168C115.614 30.168 115.124 30.0887 114.695 29.93C114.266 29.7713 113.888 29.5053 113.561 29.132L114.681 28.082C114.961 28.39 115.222 28.6047 115.465 28.726C115.708 28.8473 115.978 28.908 116.277 28.908C116.594 28.908 116.86 28.838 117.075 28.698C117.29 28.5487 117.397 28.362 117.397 28.138C117.397 27.942 117.322 27.788 117.173 27.676C117.033 27.5547 116.879 27.4707 116.711 27.424C116.543 27.3773 116.216 27.298 115.731 27.186C115.339 27.0927 115.008 26.9853 114.737 26.864C114.466 26.7427 114.238 26.556 114.051 26.304C113.864 26.052 113.771 25.7113 113.771 25.282C113.771 24.7687 113.906 24.3533 114.177 24.036C114.457 23.7093 114.798 23.476 115.199 23.336C115.61 23.1867 116.03 23.112 116.459 23.112Z" fill="black"/>
<path d="M29.754 67.7227C31.162 67.7227 32.41 67.968 33.498 68.4587C34.6073 68.9494 35.4713 69.6534 36.09 70.5707C36.7087 71.488 37.018 72.5547 37.018 73.7707C37.018 75.0294 36.666 76.1174 35.962 77.0347C35.2793 77.952 34.3407 78.5707 33.146 78.8907V78.9547C34.042 79.0614 34.8207 79.3707 35.482 79.8827C36.1433 80.3734 36.6553 81.0134 37.018 81.8027C37.3807 82.592 37.562 83.4774 37.562 84.4587C37.562 85.8027 37.2207 86.9867 36.538 88.0107C35.8767 89.0134 34.97 89.792 33.818 90.3467C32.666 90.88 31.3647 91.1467 29.914 91.1467C27.8447 91.1467 26.138 90.688 24.794 89.7707C23.4713 88.8534 22.586 87.5414 22.138 85.8347L26.234 84.7467C26.7247 86.7094 27.9513 87.6907 29.914 87.6907C30.5967 87.6907 31.226 87.5414 31.802 87.2427C32.3993 86.944 32.8687 86.528 33.21 85.9947C33.5513 85.44 33.722 84.8214 33.722 84.1387C33.722 83.008 33.3167 82.1547 32.506 81.5787C31.7167 80.9814 30.4047 80.6827 28.57 80.6827H27.77V77.2267H28.41C29.37 77.2267 30.17 77.1734 30.81 77.0667C31.4713 76.96 32.026 76.6827 32.474 76.2347C32.9433 75.7867 33.178 75.0934 33.178 74.1547C33.178 73.5787 33.0393 73.0667 32.762 72.6187C32.4847 72.1494 32.1007 71.7974 31.61 71.5627C31.1193 71.3067 30.5647 71.1787 29.946 71.1787C29.178 71.1787 28.4847 71.4027 27.866 71.8507C27.2687 72.2774 26.8313 72.8854 26.554 73.6747L22.49 72.5867C22.938 71.0507 23.802 69.856 25.082 69.0027C26.3833 68.1494 27.9407 67.7227 29.754 67.7227Z" fill="black"/>
<path d="M25.253 104.105C26.441 104.105 27.4163 104.493 28.179 105.271C28.9417 106.048 29.323 107.023 29.323 108.197C29.323 109.37 28.938 110.345 28.168 111.123C27.4053 111.9 26.4337 112.289 25.253 112.289C24.0723 112.289 23.097 111.9 22.327 111.123C21.5643 110.345 21.183 109.37 21.183 108.197C21.183 107.023 21.5643 106.048 22.327 105.271C23.097 104.493 24.0723 104.105 25.253 104.105ZM23.042 105.898C22.4627 106.514 22.173 107.28 22.173 108.197C22.173 109.113 22.4627 109.883 23.042 110.507C23.6213 111.123 24.3583 111.431 25.253 111.431C26.1403 111.431 26.8737 111.123 27.453 110.507C28.0397 109.883 28.333 109.113 28.333 108.197C28.333 107.28 28.0397 106.514 27.453 105.898C26.8737 105.274 26.1367 104.963 25.242 104.963C24.362 104.963 23.6287 105.274 23.042 105.898ZM31.5118 106.943V110.067C31.5118 110.477 31.6072 110.807 31.7978 111.057C31.9958 111.306 32.2928 111.431 32.6888 111.431C33.2095 111.431 33.6055 111.258 33.8768 110.914C34.1482 110.569 34.2838 110.096 34.2838 109.495V106.943H35.1418V110.947C35.1418 111.057 35.1492 111.255 35.1638 111.541C35.1785 111.819 35.1858 112.003 35.1858 112.091H34.3718C34.3718 111.966 34.3682 111.823 34.3608 111.662C34.3535 111.493 34.3498 111.354 34.3498 111.244H34.3278C34.1958 111.537 33.9722 111.775 33.6568 111.959C33.3415 112.135 32.9895 112.223 32.6008 112.223C31.9775 112.223 31.4972 112.039 31.1598 111.673C30.8225 111.306 30.6538 110.804 30.6538 110.166V106.943H31.5118ZM38.0641 105.48V106.943H39.5821V107.669H38.0641V110.419C38.0641 110.807 38.1265 111.075 38.2511 111.222C38.3758 111.361 38.5701 111.431 38.8341 111.431C39.1275 111.431 39.3805 111.372 39.5931 111.255L39.6261 112.036C39.3328 112.16 38.9991 112.223 38.6251 112.223C38.1191 112.223 37.7561 112.102 37.5361 111.86C37.3161 111.61 37.2061 111.174 37.2061 110.551V107.669H36.0841V106.943H37.2061V105.48H38.0641ZM46.1479 106.811C46.9472 106.811 47.6035 107.064 48.1169 107.57C48.6375 108.076 48.8979 108.725 48.8979 109.517C48.8979 110.309 48.6375 110.958 48.1169 111.464C47.6035 111.97 46.9472 112.223 46.1479 112.223C45.3485 112.223 44.6885 111.97 44.1679 111.464C43.6545 110.958 43.3979 110.309 43.3979 109.517C43.3979 108.725 43.6545 108.076 44.1679 107.57C44.6812 107.064 45.3412 106.811 46.1479 106.811ZM44.3219 109.517C44.3219 110.074 44.4905 110.532 44.8279 110.892C45.1725 111.251 45.6125 111.431 46.1479 111.431C46.6905 111.431 47.1305 111.251 47.4679 110.892C47.8052 110.525 47.9739 110.067 47.9739 109.517C47.9739 108.967 47.8052 108.512 47.4679 108.153C47.1305 107.786 46.6869 107.603 46.1369 107.603C45.6015 107.603 45.1652 107.786 44.8279 108.153C44.4905 108.512 44.3219 108.967 44.3219 109.517ZM52.4811 103.643C52.7671 103.643 52.9908 103.687 53.1521 103.775L53.0311 104.545C52.8331 104.471 52.6388 104.435 52.4481 104.435C52.1108 104.435 51.8724 104.53 51.7331 104.721C51.5938 104.911 51.5241 105.267 51.5241 105.788V106.943H52.7781V107.669H51.5241V112.091H50.6661V107.669H49.5441V106.943H50.6661V105.777C50.6661 104.354 51.2711 103.643 52.4811 103.643ZM58.8474 104.171C59.5294 104.171 60.0867 104.354 60.5194 104.721C60.952 105.087 61.1684 105.579 61.1684 106.195C61.1684 106.598 61.0474 106.965 60.8054 107.295C60.5634 107.625 60.2407 107.856 59.8374 107.988V108.01C60.3214 108.098 60.7064 108.321 60.9924 108.681C61.2857 109.04 61.4324 109.469 61.4324 109.968C61.4324 110.65 61.194 111.196 60.7174 111.607C60.2407 112.017 59.621 112.223 58.8584 112.223C58.2204 112.223 57.6887 112.083 57.2634 111.805C56.838 111.519 56.5337 111.112 56.3504 110.584L57.2854 110.276C57.41 110.679 57.5897 110.972 57.8244 111.156C58.0664 111.339 58.411 111.431 58.8584 111.431C59.313 111.431 59.6907 111.284 59.9914 110.991C60.292 110.697 60.4424 110.334 60.4424 109.902C60.4424 109.425 60.27 109.055 59.9254 108.791C59.588 108.527 59.0857 108.395 58.4184 108.395H58.1874V107.603H58.4844C59.6577 107.603 60.2444 107.152 60.2444 106.25C60.2444 105.868 60.1197 105.56 59.8704 105.326C59.6284 105.084 59.3094 104.963 58.9134 104.963C58.2387 104.963 57.762 105.252 57.4834 105.832L56.5924 105.491C56.7757 105.073 57.0654 104.75 57.4614 104.523C57.8574 104.288 58.3194 104.171 58.8474 104.171ZM67.0092 104.303V107.603H71.1672V104.303H72.0912V112.091H71.1672V108.461H67.0092V112.091H66.0852V104.303H67.0092ZM76.3227 106.811C77.122 106.811 77.7783 107.064 78.2917 107.57C78.8123 108.076 79.0727 108.725 79.0727 109.517C79.0727 110.309 78.8123 110.958 78.2917 111.464C77.7783 111.97 77.122 112.223 76.3227 112.223C75.5233 112.223 74.8633 111.97 74.3427 111.464C73.8293 110.958 73.5727 110.309 73.5727 109.517C73.5727 108.725 73.8293 108.076 74.3427 107.57C74.856 107.064 75.516 106.811 76.3227 106.811ZM74.4967 109.517C74.4967 110.074 74.6653 110.532 75.0027 110.892C75.3473 111.251 75.7873 111.431 76.3227 111.431C76.8653 111.431 77.3053 111.251 77.6427 110.892C77.98 110.525 78.1487 110.067 78.1487 109.517C78.1487 108.967 77.98 108.512 77.6427 108.153C77.3053 107.786 76.8617 107.603 76.3117 107.603C75.7763 107.603 75.34 107.786 75.0027 108.153C74.6653 108.512 74.4967 108.967 74.4967 109.517ZM81.2589 106.943V110.067C81.2589 110.477 81.3542 110.807 81.5449 111.057C81.7429 111.306 82.0399 111.431 82.4359 111.431C82.9566 111.431 83.3526 111.258 83.6239 110.914C83.8952 110.569 84.0309 110.096 84.0309 109.495V106.943H84.8889V110.947C84.8889 111.057 84.8962 111.255 84.9109 111.541C84.9256 111.819 84.9329 112.003 84.9329 112.091H84.1189C84.1189 111.966 84.1152 111.823 84.1079 111.662C84.1006 111.493 84.0969 111.354 84.0969 111.244H84.0749C83.9429 111.537 83.7192 111.775 83.4039 111.959C83.0886 112.135 82.7366 112.223 82.3479 112.223C81.7246 112.223 81.2442 112.039 80.9069 111.673C80.5696 111.306 80.4009 110.804 80.4009 110.166V106.943H81.2589ZM89.0432 106.811C89.1752 106.811 89.2926 106.829 89.3952 106.866L89.3402 107.735C89.1716 107.691 89.0176 107.669 88.8782 107.669C88.3869 107.669 88.0129 107.83 87.7562 108.153C87.4996 108.475 87.3712 108.937 87.3712 109.539V112.091H86.5132V108.087C86.5132 107.969 86.5059 107.775 86.4912 107.504C86.4766 107.232 86.4692 107.045 86.4692 106.943H87.2832C87.2832 107.045 87.2869 107.185 87.2942 107.361C87.3016 107.529 87.3052 107.672 87.3052 107.79H87.3272C87.4666 107.496 87.6902 107.262 87.9982 107.086C88.3136 106.902 88.6619 106.811 89.0432 106.811ZM91.9534 106.811C92.7894 106.811 93.3724 107.122 93.7024 107.746L92.9874 108.219C92.7381 107.808 92.3751 107.603 91.8984 107.603C91.6051 107.603 91.3631 107.669 91.1724 107.801C90.9817 107.933 90.8864 108.105 90.8864 108.318C90.8864 108.655 91.3154 108.904 92.1734 109.066C92.7821 109.183 93.2147 109.363 93.4714 109.605C93.7354 109.847 93.8674 110.18 93.8674 110.606C93.8674 111.104 93.6804 111.5 93.3064 111.794C92.9324 112.08 92.4337 112.223 91.8104 112.223C90.9084 112.223 90.2411 111.904 89.8084 111.266L90.4904 110.738C90.8717 111.2 91.3117 111.431 91.8104 111.431C92.1404 111.431 92.4117 111.361 92.6244 111.222C92.8371 111.075 92.9434 110.881 92.9434 110.639C92.9434 110.404 92.8444 110.228 92.6464 110.111C92.4484 109.986 92.0634 109.861 91.4914 109.737C90.9781 109.627 90.6041 109.462 90.3694 109.242C90.1421 109.014 90.0284 108.71 90.0284 108.329C90.0284 107.874 90.2117 107.507 90.5784 107.229C90.9524 106.95 91.4107 106.811 91.9534 106.811Z" fill="#777FA1"/>
<circle cx="133" cy="89.9268" r="18" fill="#F1F2F6"/>
<path d="M140.334 90C140.334 87.5 138.99 85.2188 136.834 83.9688C134.646 82.6875 131.99 82.6875 129.834 83.9688C127.646 85.2188 126.334 87.5 126.334 90C126.334 92.5312 127.646 94.8125 129.834 96.0625C131.99 97.3438 134.646 97.3438 136.834 96.0625C138.99 94.8125 140.334 92.5312 140.334 90ZM125.334 90C125.334 87.1562 126.834 84.5312 129.334 83.0938C131.803 81.6562 134.834 81.6562 137.334 83.0938C139.803 84.5312 141.334 87.1562 141.334 90C141.334 92.875 139.803 95.5 137.334 96.9375C134.834 98.375 131.803 98.375 129.334 96.9375C126.834 95.5 125.334 92.875 125.334 90ZM132.834 85.5C132.834 85.25 133.053 85 133.334 85C133.584 85 133.834 85.25 133.834 85.5V89.75L136.584 91.5938C136.834 91.75 136.896 92.0625 136.74 92.2812C136.584 92.5312 136.271 92.5938 136.053 92.4375L133.053 90.4375C132.896 90.3438 132.834 90.1875 132.834 90V85.5Z" fill="#777FA1"/>
</svg>
