<svg width="18" height="21" viewBox="0 0 18 21" fill="none" xmlns="http://www.w3.org/2000/svg">
<path d="M8.00841 1.35195C8.00841 1.04365 8.27817 0.735351 8.625 0.735351C8.9333 0.735351 9.24159 1.04365 9.24159 1.35195V2.00708C12.3246 2.31537 14.7909 4.9359 14.7909 8.13449V9.2906C14.7909 10.9477 15.4461 12.5663 16.6407 13.7609L16.7563 13.8765C17.0646 14.1848 17.2573 14.6473 17.2573 15.0712C17.2573 16.0346 16.4866 16.8053 15.5232 16.8053H1.68831C0.724882 16.7668 -0.00732422 16.0346 -0.00732422 15.0712C-0.00732422 14.6087 0.146824 14.1848 0.493659 13.8765L0.570733 13.7609C1.76539 12.5663 2.45905 10.9477 2.45905 9.2906V8.13449C2.45905 4.9359 4.8869 2.31537 8.00841 2.00708V1.35195ZM8.625 3.20173C5.88886 3.20173 3.69224 5.43688 3.69224 8.13449V9.2906C3.69224 11.2945 2.88296 13.2214 1.45709 14.6473L1.34148 14.7243C1.2644 14.84 1.22587 14.9556 1.22587 15.0712C1.22587 15.3409 1.41855 15.5336 1.68831 15.5336H15.5232C15.7929 15.5336 16.0241 15.3409 16.0241 15.0712C16.0241 14.9556 15.9471 14.84 15.87 14.7243L15.7544 14.6473C14.3285 13.2214 13.5192 11.2945 13.5192 9.25206V8.13449C13.5192 5.43688 11.3226 3.20173 8.58646 3.20173H8.625ZM7.43035 18.4239C7.62303 18.9249 8.08548 19.2332 8.625 19.2332C9.12598 19.2332 9.58843 18.9249 9.78112 18.4239C9.89673 18.1156 10.2436 17.9229 10.5519 18.0385C10.8602 18.1541 11.0528 18.501 10.9372 18.8478C10.5904 19.8112 9.6655 20.4664 8.625 20.4664C7.54596 20.4664 6.62107 19.8112 6.27423 18.8478C6.15862 18.501 6.35131 18.1541 6.65961 18.0385C6.9679 17.9229 7.31474 18.1156 7.43035 18.4239Z" fill="#777FA1"/>
</svg>
