<svg width="322" height="159" viewBox="0 0 322 159" fill="none" xmlns="http://www.w3.org/2000/svg">
<rect width="322" height="159" rx="20" fill="white"/>
<path d="M27.504 29.684H22.87V32.288H27.238V33.884H22.87V38H21.106V28.088H27.504V29.684ZM29.8451 27.99C30.0504 27.99 30.2324 28.0367 30.3911 28.13C30.5591 28.214 30.6897 28.3353 30.7831 28.494C30.8857 28.6433 30.9371 28.8113 30.9371 28.998C30.9371 29.194 30.8857 29.3713 30.7831 29.53C30.6897 29.6793 30.5591 29.796 30.3911 29.88C30.2231 29.964 30.0411 30.006 29.8451 30.006C29.6491 30.006 29.4671 29.9593 29.2991 29.866C29.1404 29.7727 29.0144 29.6513 28.9211 29.502C28.8277 29.3433 28.7811 29.1753 28.7811 28.998C28.7811 28.8207 28.8277 28.6573 28.9211 28.508C29.0144 28.3493 29.1404 28.2233 29.2991 28.13C29.4671 28.0367 29.6491 27.99 29.8451 27.99ZM30.6991 38H29.0191V31.28H30.6991V38ZM34.3358 38H32.6558V27.416H34.3358V38ZM39.5825 31.112C40.2732 31.112 40.8518 31.2707 41.3185 31.588C41.7945 31.9053 42.1492 32.3393 42.3825 32.89C42.6158 33.4407 42.7325 34.0613 42.7325 34.752V35.228H37.6085C37.6458 35.5453 37.7438 35.8253 37.9025 36.068C38.0705 36.3107 38.2852 36.4973 38.5465 36.628C38.8078 36.7587 39.0972 36.824 39.4145 36.824C39.7878 36.824 40.1192 36.7493 40.4085 36.6C40.7072 36.4413 40.9778 36.2127 41.2205 35.914L42.4245 36.824C42.0605 37.272 41.6405 37.608 41.1645 37.832C40.6885 38.056 40.1612 38.168 39.5825 38.168C38.9012 38.168 38.2805 38.0187 37.7205 37.72C37.1698 37.4213 36.7312 37.006 36.4045 36.474C36.0872 35.9327 35.9285 35.3213 35.9285 34.64C35.9285 33.9587 36.0872 33.352 36.4045 32.82C36.7312 32.2787 37.1698 31.8587 37.7205 31.56C38.2805 31.2613 38.9012 31.112 39.5825 31.112ZM41.0525 33.968C41.0432 33.4547 40.8798 33.0627 40.5625 32.792C40.2545 32.512 39.8438 32.372 39.3305 32.372C38.8452 32.372 38.4532 32.5167 38.1545 32.806C37.8558 33.0953 37.6738 33.4827 37.6085 33.968H41.0525ZM46.5996 31.112C47.1222 31.112 47.5936 31.2007 48.0136 31.378C48.4336 31.5553 48.7649 31.8073 49.0076 32.134L47.8876 33.142C47.7196 32.9087 47.5282 32.736 47.3136 32.624C47.0989 32.512 46.8516 32.456 46.5716 32.456C46.2916 32.456 46.0582 32.5213 45.8716 32.652C45.6849 32.7827 45.5916 32.9553 45.5916 33.17C45.5916 33.3193 45.6476 33.4453 45.7596 33.548C45.8716 33.6413 46.0116 33.716 46.1796 33.772C46.3569 33.8187 46.5996 33.8747 46.9076 33.94L47.1876 34.01C47.5982 34.1033 47.9482 34.22 48.2376 34.36C48.5269 34.4907 48.7602 34.6913 48.9376 34.962C49.1242 35.2233 49.2176 35.5733 49.2176 36.012C49.2176 36.4693 49.0916 36.8613 48.8396 37.188C48.5876 37.5147 48.2422 37.762 47.8036 37.93C47.3649 38.0887 46.8656 38.168 46.3056 38.168C45.7549 38.168 45.2649 38.0887 44.8356 37.93C44.4062 37.7713 44.0282 37.5053 43.7016 37.132L44.8216 36.082C45.1016 36.39 45.3629 36.6047 45.6056 36.726C45.8482 36.8473 46.1189 36.908 46.4176 36.908C46.7349 36.908 47.0009 36.838 47.2156 36.698C47.4302 36.5487 47.5376 36.362 47.5376 36.138C47.5376 35.942 47.4629 35.788 47.3136 35.676C47.1736 35.5547 47.0196 35.4707 46.8516 35.424C46.6836 35.3773 46.3569 35.298 45.8716 35.186C45.4796 35.0927 45.1482 34.9853 44.8776 34.864C44.6069 34.7427 44.3782 34.556 44.1916 34.304C44.0049 34.052 43.9116 33.7113 43.9116 33.282C43.9116 32.7687 44.0469 32.3533 44.3176 32.036C44.5976 31.7093 44.9382 31.476 45.3396 31.336C45.7502 31.1867 46.1702 31.112 46.5996 31.112Z" fill="black"/>
<path d="M276 27.0909C276 23.1747 279.175 20 283.091 20H294.909C298.825 20 302 23.1747 302 27.0909V38.9091C302 42.8253 298.825 46 294.909 46H283.091C279.175 46 276 42.8253 276 38.9091V27.0909Z" fill="#52B7CA"/>
<path d="M293.5 36.125H285.938C285.164 36.125 284.562 35.5234 284.562 34.75V29.9375C284.562 29.1855 285.164 28.5625 285.938 28.5625H288.451C288.816 28.5625 289.16 28.7129 289.418 28.9707L289.998 29.5508C290.256 29.8086 290.6 29.9375 290.965 29.9375H293.5C294.252 29.9375 294.875 30.5605 294.875 31.3125V34.75C294.875 35.5234 294.252 36.125 293.5 36.125ZM283.531 30.4531V35.2656C283.531 36.3184 284.369 37.1562 285.422 37.1562H292.297C292.576 37.1562 292.812 37.3926 292.812 37.6719C292.812 37.9727 292.576 38.1875 292.297 38.1875H285.422C283.789 38.1875 282.5 36.8984 282.5 35.2656V30.4531C282.5 30.1738 282.715 29.9375 283.016 29.9375C283.295 29.9375 283.531 30.1738 283.531 30.4531Z" fill="white"/>
<rect x="20" y="58" width="282" height="27" rx="8" fill="#D0D4E4" fill-opacity="0.2"/>
<path d="M29.3295 75.6648C28.5817 75.6648 28 75.0831 28 74.3352V67.6875C28 66.9604 28.5817 66.358 29.3295 66.358H31.9886C32.4041 66.358 32.7988 66.5657 33.0481 66.8981L33.4428 67.4382C33.5675 67.6044 33.7544 67.6875 33.983 67.6875H37.3068C38.0339 67.6875 38.6364 68.29 38.6364 69.017V74.3352C38.6364 75.0831 38.0339 75.6648 37.3068 75.6648H29.3295Z" fill="#D0D4E4"/>
<path d="M55.436 75.5H54.092L53.24 73.4H49.196L48.356 75.5H47.012L50.756 67.004H51.8L55.436 75.5ZM52.82 72.392L51.236 68.492H51.212L49.604 72.392H52.82ZM61.9652 75.5H60.8852V74.684H60.8612C60.6532 74.988 60.3692 75.224 60.0092 75.392C59.6572 75.56 59.2812 75.644 58.8812 75.644C58.3292 75.644 57.8332 75.52 57.3932 75.272C56.9532 75.016 56.6092 74.66 56.3612 74.204C56.1132 73.748 55.9892 73.232 55.9892 72.656C55.9892 72.08 56.1132 71.564 56.3612 71.108C56.6092 70.652 56.9532 70.3 57.3932 70.052C57.8332 69.796 58.3292 69.668 58.8812 69.668C59.2812 69.668 59.6612 69.756 60.0212 69.932C60.3812 70.1 60.6612 70.332 60.8612 70.628H60.8852V66.428H61.9652V75.5ZM57.1412 72.656C57.1412 73.048 57.2172 73.396 57.3692 73.7C57.5292 73.996 57.7492 74.228 58.0292 74.396C58.3172 74.556 58.6452 74.636 59.0132 74.636C59.3812 74.636 59.7052 74.552 59.9852 74.384C60.2732 74.216 60.4932 73.984 60.6452 73.688C60.8052 73.392 60.8852 73.048 60.8852 72.656C60.8852 72.264 60.8052 71.92 60.6452 71.624C60.4852 71.32 60.2612 71.088 59.9732 70.928C59.6932 70.76 59.3692 70.676 59.0012 70.676C58.6332 70.676 58.3092 70.76 58.0292 70.928C57.7492 71.088 57.5292 71.32 57.3692 71.624C57.2172 71.92 57.1412 72.264 57.1412 72.656ZM66.4572 69.668C66.8732 69.668 67.2252 69.756 67.5132 69.932C67.8092 70.1 68.0492 70.364 68.2332 70.724C68.4092 70.396 68.6572 70.14 68.9772 69.956C69.3052 69.764 69.6572 69.668 70.0332 69.668C70.7532 69.668 71.2932 69.876 71.6532 70.292C72.0132 70.708 72.1932 71.324 72.1932 72.14V75.5H71.1132V72.272C71.1132 71.72 71.0132 71.316 70.8132 71.06C70.6132 70.804 70.3052 70.676 69.8892 70.676C69.4092 70.676 69.0452 70.824 68.7972 71.12C68.5572 71.408 68.4372 71.816 68.4372 72.344V75.5H67.3572V72.44C67.3572 72 67.3132 71.652 67.2252 71.396C67.1372 71.132 67.0052 70.948 66.8292 70.844C66.6612 70.732 66.4372 70.676 66.1572 70.676C65.8612 70.676 65.6012 70.752 65.3772 70.904C65.1612 71.056 64.9892 71.272 64.8612 71.552C64.7412 71.824 64.6812 72.14 64.6812 72.5V75.5H63.6012V69.812H64.6092V70.7H64.6332C64.7132 70.524 64.8412 70.356 65.0172 70.196C65.2012 70.036 65.4172 69.908 65.6652 69.812C65.9212 69.716 66.1852 69.668 66.4572 69.668ZM74.4439 66.98C74.5879 66.98 74.7199 67.016 74.8399 67.088C74.9599 67.16 75.0559 67.256 75.1279 67.376C75.1999 67.496 75.2359 67.628 75.2359 67.772C75.2359 67.916 75.1999 68.048 75.1279 68.168C75.0559 68.288 74.9559 68.384 74.8279 68.456C74.7079 68.528 74.5799 68.564 74.4439 68.564C74.2199 68.564 74.0319 68.488 73.8799 68.336C73.7279 68.184 73.6519 67.996 73.6519 67.772C73.6519 67.628 73.6879 67.496 73.7599 67.376C73.8319 67.256 73.9279 67.16 74.0479 67.088C74.1759 67.016 74.3079 66.98 74.4439 66.98ZM74.9839 75.5H73.9039V69.812H74.9839V75.5ZM79.6787 69.668C80.0947 69.668 80.4587 69.756 80.7707 69.932C81.0827 70.108 81.3227 70.356 81.4907 70.676C81.6587 70.996 81.7427 71.368 81.7427 71.792V75.5H80.6627V72.104C80.6627 71.664 80.5467 71.316 80.3147 71.06C80.0907 70.804 79.7747 70.676 79.3667 70.676C78.8707 70.676 78.4827 70.84 78.2027 71.168C77.9227 71.496 77.7827 71.948 77.7827 72.524V75.5H76.7027V69.812H77.7827V70.688H77.8067C77.9587 70.376 78.2027 70.128 78.5387 69.944C78.8827 69.76 79.2627 69.668 79.6787 69.668ZM90.8985 66.788C91.6025 66.788 92.2145 66.88 92.7345 67.064C93.2545 67.24 93.6945 67.516 94.0545 67.892L93.2385 68.768C92.6145 68.168 91.8305 67.868 90.8865 67.868C90.2705 67.868 89.7185 68.016 89.2305 68.312C88.7425 68.6 88.3625 69.004 88.0905 69.524C87.8185 70.036 87.6825 70.612 87.6825 71.252C87.6825 71.868 87.8225 72.436 88.1025 72.956C88.3825 73.468 88.7745 73.876 89.2785 74.18C89.7825 74.484 90.3505 74.636 90.9825 74.636C91.3905 74.636 91.7745 74.6 92.1345 74.528C92.5025 74.448 92.8145 74.336 93.0705 74.192V71.828H91.1865V70.748H94.2225V74.936C93.8305 75.176 93.3345 75.364 92.7345 75.5C92.1425 75.644 91.5665 75.716 91.0065 75.716C90.1105 75.716 89.3185 75.524 88.6305 75.14C87.9425 74.748 87.4065 74.216 87.0225 73.544C86.6465 72.864 86.4585 72.1 86.4585 71.252C86.4585 70.42 86.6465 69.664 87.0225 68.984C87.4065 68.304 87.9345 67.768 88.6065 67.376C89.2865 66.984 90.0505 66.788 90.8985 66.788ZM97.1304 73.22C97.1304 73.66 97.2464 74.008 97.4784 74.264C97.7104 74.512 98.0264 74.636 98.4264 74.636C98.9224 74.636 99.3104 74.472 99.5904 74.144C99.8704 73.808 100.01 73.356 100.01 72.788V69.812H101.09V75.5H100.01V74.624H99.9864C99.8344 74.936 99.5904 75.184 99.2544 75.368C98.9184 75.552 98.5384 75.644 98.1144 75.644C97.6984 75.644 97.3344 75.556 97.0224 75.38C96.7104 75.204 96.4704 74.956 96.3024 74.636C96.1344 74.316 96.0504 73.944 96.0504 73.52V69.812H97.1304V73.22ZM103.342 66.98C103.486 66.98 103.618 67.016 103.738 67.088C103.858 67.16 103.954 67.256 104.026 67.376C104.098 67.496 104.134 67.628 104.134 67.772C104.134 67.916 104.098 68.048 104.026 68.168C103.954 68.288 103.854 68.384 103.726 68.456C103.606 68.528 103.478 68.564 103.342 68.564C103.118 68.564 102.93 68.488 102.778 68.336C102.626 68.184 102.55 67.996 102.55 67.772C102.55 67.628 102.586 67.496 102.658 67.376C102.73 67.256 102.826 67.16 102.946 67.088C103.074 67.016 103.206 66.98 103.342 66.98ZM103.882 75.5H102.802V69.812H103.882V75.5ZM111.301 75.5H110.221V74.684H110.197C109.989 74.988 109.705 75.224 109.345 75.392C108.993 75.56 108.617 75.644 108.217 75.644C107.665 75.644 107.169 75.52 106.729 75.272C106.289 75.016 105.945 74.66 105.697 74.204C105.449 73.748 105.325 73.232 105.325 72.656C105.325 72.08 105.449 71.564 105.697 71.108C105.945 70.652 106.289 70.3 106.729 70.052C107.169 69.796 107.665 69.668 108.217 69.668C108.617 69.668 108.997 69.756 109.357 69.932C109.717 70.1 109.997 70.332 110.197 70.628H110.221V66.428H111.301V75.5ZM106.477 72.656C106.477 73.048 106.553 73.396 106.705 73.7C106.865 73.996 107.085 74.228 107.365 74.396C107.653 74.556 107.981 74.636 108.349 74.636C108.717 74.636 109.041 74.552 109.321 74.384C109.609 74.216 109.829 73.984 109.981 73.688C110.141 73.392 110.221 73.048 110.221 72.656C110.221 72.264 110.141 71.92 109.981 71.624C109.821 71.32 109.597 71.088 109.309 70.928C109.029 70.76 108.705 70.676 108.337 70.676C107.969 70.676 107.645 70.76 107.365 70.928C107.085 71.088 106.865 71.32 106.705 71.624C106.553 71.92 106.477 72.264 106.477 72.656ZM115.541 69.668C116.101 69.668 116.589 69.788 117.005 70.028C117.421 70.268 117.741 70.62 117.965 71.084C118.197 71.548 118.313 72.104 118.313 72.752V73.052H113.753C113.753 73.372 113.841 73.66 114.017 73.916C114.201 74.164 114.437 74.36 114.725 74.504C115.021 74.64 115.337 74.708 115.673 74.708C115.985 74.708 116.265 74.636 116.513 74.492C116.769 74.34 117.009 74.128 117.233 73.856L118.049 74.48C117.745 74.872 117.385 75.164 116.969 75.356C116.553 75.548 116.073 75.644 115.529 75.644C114.969 75.644 114.465 75.52 114.017 75.272C113.577 75.024 113.229 74.676 112.973 74.228C112.725 73.772 112.601 73.248 112.601 72.656C112.601 72.104 112.725 71.6 112.973 71.144C113.229 70.688 113.577 70.328 114.017 70.064C114.465 69.8 114.973 69.668 115.541 69.668ZM117.161 72.188C117.145 71.66 116.993 71.252 116.705 70.964C116.417 70.676 116.021 70.532 115.517 70.532C115.157 70.532 114.841 70.62 114.569 70.796C114.305 70.964 114.101 71.18 113.957 71.444C113.821 71.7 113.753 71.948 113.753 72.188H117.161Z" fill="black"/>
<path d="M247.85 67.8C248.49 67.8 249.01 67.9767 249.41 68.33C249.81 68.6767 250.01 69.14 250.01 69.72C250.01 70.2133 249.903 70.6233 249.69 70.95C249.483 71.2767 249.13 71.6767 248.63 72.15L246.45 74.2V74.22H250.06V75H245.5V74.04L248.22 71.39C248.507 71.11 248.723 70.86 248.87 70.64C249.017 70.42 249.103 70.2533 249.13 70.14C249.157 70.0267 249.17 69.8867 249.17 69.72C249.17 69.3667 249.047 69.08 248.8 68.86C248.553 68.6333 248.247 68.52 247.88 68.52C247.527 68.52 247.23 68.6233 246.99 68.83C246.757 69.03 246.607 69.3033 246.54 69.65L245.63 69.57C245.723 69.01 245.967 68.5767 246.36 68.27C246.76 67.9567 247.257 67.8 247.85 67.8ZM258.75 67.44V75H257.97V74.17H257.95C257.79 74.4633 257.547 74.6967 257.22 74.87C256.893 75.0367 256.537 75.12 256.15 75.12C255.49 75.12 254.933 74.8833 254.48 74.41C254.033 73.9367 253.81 73.3533 253.81 72.66C253.81 71.9467 254.037 71.36 254.49 70.9C254.95 70.4333 255.543 70.2 256.27 70.2C256.943 70.2 257.503 70.4667 257.95 71H257.97V67.44H258.75ZM254.65 72.66C254.65 73.1667 254.803 73.5833 255.11 73.91C255.423 74.2367 255.823 74.4 256.31 74.4C256.803 74.4 257.203 74.2367 257.51 73.91C257.817 73.5767 257.97 73.16 257.97 72.66C257.97 72.1533 257.817 71.7367 257.51 71.41C257.203 71.0833 256.8 70.92 256.3 70.92C255.813 70.92 255.417 71.0867 255.11 71.42C254.803 71.7467 254.65 72.16 254.65 72.66ZM261.993 70.2C262.66 70.2 263.153 70.36 263.473 70.68C263.793 71 263.953 71.4833 263.953 72.13V74.23C263.953 74.4433 263.976 74.7 264.023 75H263.273C263.24 74.9 263.223 74.6667 263.223 74.3H263.203C262.843 74.8467 262.33 75.12 261.663 75.12C261.15 75.12 260.73 74.9933 260.403 74.74C260.083 74.4867 259.923 74.15 259.923 73.73C259.923 73.1767 260.15 72.7667 260.603 72.5C261.056 72.2267 261.793 72.09 262.813 72.09H263.173V71.96C263.173 71.62 263.07 71.3633 262.863 71.19C262.663 71.01 262.38 70.92 262.013 70.92C261.446 70.92 260.983 71.09 260.623 71.43L260.133 70.92C260.613 70.44 261.233 70.2 261.993 70.2ZM260.763 73.65C260.763 74.19 261.106 74.46 261.793 74.46C262.206 74.46 262.54 74.3267 262.793 74.06C263.046 73.7933 263.173 73.4167 263.173 72.93V72.75H262.313C261.84 72.75 261.463 72.8267 261.183 72.98C260.903 73.1333 260.763 73.3567 260.763 73.65ZM265.649 70.32L267.099 73.99H267.119L268.509 70.32H269.359L267.069 76.15C266.882 76.6233 266.672 76.95 266.439 77.13C266.212 77.31 265.912 77.4 265.539 77.4C265.259 77.4 265.025 77.36 264.839 77.28L264.939 76.6C265.059 76.6533 265.242 76.68 265.489 76.68C265.689 76.68 265.855 76.6267 265.989 76.52C266.122 76.4133 266.235 76.2367 266.329 75.99L266.679 75.03L264.739 70.32H265.649ZM271.633 70.2C272.393 70.2 272.923 70.4833 273.223 71.05L272.573 71.48C272.346 71.1067 272.016 70.92 271.583 70.92C271.316 70.92 271.096 70.98 270.923 71.1C270.75 71.22 270.663 71.3767 270.663 71.57C270.663 71.8767 271.053 72.1033 271.833 72.25C272.386 72.3567 272.78 72.52 273.013 72.74C273.253 72.96 273.373 73.2633 273.373 73.65C273.373 74.1033 273.203 74.4633 272.863 74.73C272.523 74.99 272.07 75.12 271.503 75.12C270.683 75.12 270.076 74.83 269.683 74.25L270.303 73.77C270.65 74.19 271.05 74.4 271.503 74.4C271.803 74.4 272.05 74.3367 272.243 74.21C272.436 74.0767 272.533 73.9 272.533 73.68C272.533 73.4667 272.443 73.3067 272.263 73.2C272.083 73.0867 271.733 72.9733 271.213 72.86C270.746 72.76 270.406 72.61 270.193 72.41C269.986 72.2033 269.883 71.9267 269.883 71.58C269.883 71.1667 270.05 70.8333 270.383 70.58C270.723 70.3267 271.14 70.2 271.633 70.2ZM279.044 70.2C279.711 70.2 280.204 70.36 280.524 70.68C280.844 71 281.004 71.4833 281.004 72.13V74.23C281.004 74.4433 281.027 74.7 281.074 75H280.324C280.291 74.9 280.274 74.6667 280.274 74.3H280.254C279.894 74.8467 279.381 75.12 278.714 75.12C278.201 75.12 277.781 74.9933 277.454 74.74C277.134 74.4867 276.974 74.15 276.974 73.73C276.974 73.1767 277.201 72.7667 277.654 72.5C278.107 72.2267 278.844 72.09 279.864 72.09H280.224V71.96C280.224 71.62 280.121 71.3633 279.914 71.19C279.714 71.01 279.431 70.92 279.064 70.92C278.497 70.92 278.034 71.09 277.674 71.43L277.184 70.92C277.664 70.44 278.284 70.2 279.044 70.2ZM277.814 73.65C277.814 74.19 278.157 74.46 278.844 74.46C279.257 74.46 279.591 74.3267 279.844 74.06C280.097 73.7933 280.224 73.4167 280.224 72.93V72.75H279.364C278.891 72.75 278.514 72.8267 278.234 72.98C277.954 73.1333 277.814 73.3567 277.814 73.65ZM284.639 70.2C284.999 70.2 285.329 70.2833 285.629 70.45C285.936 70.6167 286.159 70.84 286.299 71.12H286.319V70.32H287.099V74.84C287.099 75.64 286.879 76.2667 286.439 76.72C286.006 77.1733 285.376 77.4 284.549 77.4C283.609 77.4 282.843 77.1033 282.249 76.51L282.809 75.87C283.309 76.41 283.889 76.68 284.549 76.68C285.729 76.68 286.319 76.0533 286.319 74.8V74.19H286.299C286.126 74.4633 285.893 74.6767 285.599 74.83C285.306 74.9833 284.986 75.06 284.639 75.06C283.919 75.06 283.326 74.8333 282.859 74.38C282.393 73.9267 282.159 73.3533 282.159 72.66C282.159 71.9133 282.383 71.3167 282.829 70.87C283.283 70.4233 283.886 70.2 284.639 70.2ZM282.999 72.66C282.999 73.1267 283.159 73.5233 283.479 73.85C283.799 74.1767 284.189 74.34 284.649 74.34C285.149 74.34 285.553 74.18 285.859 73.86C286.166 73.5333 286.319 73.1267 286.319 72.64C286.319 72.1333 286.163 71.72 285.849 71.4C285.543 71.08 285.139 70.92 284.639 70.92C284.166 70.92 283.773 71.0867 283.459 71.42C283.153 71.7467 282.999 72.16 282.999 72.66ZM290.773 70.2C291.499 70.2 292.096 70.43 292.563 70.89C293.036 71.35 293.273 71.94 293.273 72.66C293.273 73.38 293.036 73.97 292.563 74.43C292.096 74.89 291.499 75.12 290.773 75.12C290.046 75.12 289.446 74.89 288.973 74.43C288.506 73.97 288.273 73.38 288.273 72.66C288.273 71.94 288.506 71.35 288.973 70.89C289.439 70.43 290.039 70.2 290.773 70.2ZM289.113 72.66C289.113 73.1667 289.266 73.5833 289.573 73.91C289.886 74.2367 290.286 74.4 290.773 74.4C291.266 74.4 291.666 74.2367 291.973 73.91C292.279 73.5767 292.433 73.16 292.433 72.66C292.433 72.16 292.279 71.7467 291.973 71.42C291.666 71.0867 291.263 70.92 290.763 70.92C290.276 70.92 289.879 71.0867 289.573 71.42C289.266 71.7467 289.113 72.16 289.113 72.66Z" fill="#D0D4E4"/>
<rect x="20" y="89" width="282" height="27" rx="8" fill="white" fill-opacity="0.2"/>
<path d="M29.3295 106.665C28.5817 106.665 28 106.083 28 105.335V98.6875C28 97.9604 28.5817 97.358 29.3295 97.358H31.9886C32.4041 97.358 32.7988 97.5657 33.0481 97.8981L33.4428 98.4382C33.5675 98.6044 33.7544 98.6875 33.983 98.6875H37.3068C38.0339 98.6875 38.6364 99.29 38.6364 100.017V105.335C38.6364 106.083 38.0339 106.665 37.3068 106.665H29.3295Z" fill="#D0D4E4"/>
<path d="M50.528 97.788C51.112 97.788 51.6 97.872 51.992 98.04C52.392 98.2 52.72 98.44 52.976 98.76L52.04 99.612C51.896 99.388 51.688 99.208 51.416 99.072C51.152 98.936 50.852 98.868 50.516 98.868C50.116 98.868 49.792 98.94 49.544 99.084C49.296 99.22 49.12 99.388 49.016 99.588C48.92 99.788 48.872 99.984 48.872 100.176C48.872 100.52 48.98 100.8 49.196 101.016C49.412 101.224 49.728 101.392 50.144 101.52L51.212 101.868C51.828 102.068 52.288 102.344 52.592 102.696C52.904 103.04 53.06 103.504 53.06 104.088C53.06 104.6 52.932 105.056 52.676 105.456C52.428 105.856 52.08 106.168 51.632 106.392C51.184 106.608 50.676 106.716 50.108 106.716C49.516 106.716 48.984 106.616 48.512 106.416C48.048 106.208 47.676 105.916 47.396 105.54L48.344 104.724C48.528 105.012 48.78 105.236 49.1 105.396C49.42 105.556 49.768 105.636 50.144 105.636C50.432 105.636 50.704 105.58 50.96 105.468C51.224 105.348 51.436 105.18 51.596 104.964C51.756 104.748 51.836 104.5 51.836 104.22C51.836 103.916 51.732 103.668 51.524 103.476C51.316 103.276 50.96 103.096 50.456 102.936L49.7 102.684C49.276 102.548 48.912 102.38 48.608 102.18C48.312 101.98 48.076 101.72 47.9 101.4C47.732 101.072 47.648 100.664 47.648 100.176C47.648 99.784 47.756 99.404 47.972 99.036C48.196 98.668 48.524 98.368 48.956 98.136C49.396 97.904 49.92 97.788 50.528 97.788ZM57.592 98.004C58.56 98.004 59.376 98.208 60.04 98.616C60.704 99.016 61.196 99.54 61.516 100.188C61.836 100.828 61.996 101.516 61.996 102.252C61.996 103.052 61.8 103.776 61.408 104.424C61.016 105.072 60.472 105.58 59.776 105.948C59.08 106.316 58.292 106.5 57.412 106.5H54.568V98.004H57.592ZM57.232 105.42C57.816 105.42 58.376 105.312 58.912 105.096C59.448 104.872 59.892 104.524 60.244 104.052C60.596 103.572 60.772 102.972 60.772 102.252C60.772 101.692 60.652 101.172 60.412 100.692C60.172 100.204 59.804 99.816 59.308 99.528C58.82 99.232 58.22 99.084 57.508 99.084H55.72V105.42H57.232ZM66.4865 98.004C67.4545 98.004 68.2705 98.208 68.9345 98.616C69.5985 99.016 70.0905 99.54 70.4105 100.188C70.7305 100.828 70.8905 101.516 70.8905 102.252C70.8905 103.052 70.6945 103.776 70.3025 104.424C69.9105 105.072 69.3665 105.58 68.6705 105.948C67.9745 106.316 67.1865 106.5 66.3065 106.5H63.4625V98.004H66.4865ZM66.1265 105.42C66.7105 105.42 67.2705 105.312 67.8065 105.096C68.3425 104.872 68.7865 104.524 69.1385 104.052C69.4905 103.572 69.6665 102.972 69.6665 102.252C69.6665 101.692 69.5465 101.172 69.3065 100.692C69.0665 100.204 68.6985 99.816 68.2025 99.528C67.7145 99.232 67.1145 99.084 66.4025 99.084H64.6145V105.42H66.1265ZM77.0409 105.42H80.9409V106.5H75.8889V98.004H77.0409V105.42ZM84.5835 100.668C85.1195 100.668 85.6195 100.796 86.0835 101.052C86.5475 101.308 86.9155 101.664 87.1875 102.12C87.4675 102.576 87.6075 103.088 87.6075 103.656C87.6075 104.2 87.4715 104.7 87.1995 105.156C86.9355 105.612 86.5715 105.976 86.1075 106.248C85.6435 106.512 85.1355 106.644 84.5835 106.644C84.0395 106.644 83.5355 106.512 83.0715 106.248C82.6075 105.984 82.2395 105.624 81.9675 105.168C81.6955 104.712 81.5595 104.208 81.5595 103.656C81.5595 103.112 81.6915 102.612 81.9555 102.156C82.2275 101.7 82.5955 101.34 83.0595 101.076C83.5235 100.804 84.0315 100.668 84.5835 100.668ZM82.7115 103.656C82.7115 104.048 82.7875 104.396 82.9395 104.7C83.0995 104.996 83.3195 105.228 83.5995 105.396C83.8875 105.556 84.2155 105.636 84.5835 105.636C84.9515 105.636 85.2755 105.552 85.5555 105.384C85.8435 105.216 86.0635 104.984 86.2155 104.688C86.3755 104.392 86.4555 104.048 86.4555 103.656C86.4555 103.264 86.3755 102.92 86.2155 102.624C86.0555 102.32 85.8315 102.088 85.5435 101.928C85.2635 101.76 84.9395 101.676 84.5715 101.676C84.2115 101.676 83.8875 101.76 83.5995 101.928C83.3195 102.096 83.0995 102.332 82.9395 102.636C82.7875 102.932 82.7115 103.272 82.7115 103.656ZM91.5765 100.668C91.9765 100.668 92.3525 100.756 92.7045 100.932C93.0645 101.1 93.3485 101.332 93.5565 101.628H93.5805V100.812H94.6605V106.5C94.6605 107.02 94.5365 107.496 94.2885 107.928C94.0485 108.368 93.6925 108.72 93.2205 108.984C92.7485 109.248 92.1925 109.38 91.5525 109.38C90.9925 109.38 90.4845 109.3 90.0285 109.14C89.5725 108.98 89.1525 108.72 88.7685 108.36L89.5005 107.448C89.7885 107.76 90.0965 107.992 90.4245 108.144C90.7525 108.296 91.1245 108.372 91.5405 108.372C92.2045 108.372 92.7085 108.2 93.0525 107.856C93.4045 107.512 93.5805 107.036 93.5805 106.428V105.564H93.5445C93.3605 105.884 93.0885 106.132 92.7285 106.308C92.3765 106.484 91.9925 106.572 91.5765 106.572C91.0485 106.572 90.5605 106.452 90.1125 106.212C89.6725 105.964 89.3245 105.62 89.0685 105.18C88.8125 104.74 88.6845 104.24 88.6845 103.68C88.6845 103.08 88.8085 102.552 89.0565 102.096C89.3045 101.64 89.6485 101.288 90.0885 101.04C90.5285 100.792 91.0245 100.668 91.5765 100.668ZM89.8365 103.656C89.8365 104.032 89.9125 104.364 90.0645 104.652C90.2165 104.94 90.4325 105.164 90.7125 105.324C90.9925 105.484 91.3245 105.564 91.7085 105.564C92.0845 105.564 92.4125 105.488 92.6925 105.336C92.9805 105.176 93.2005 104.952 93.3525 104.664C93.5045 104.376 93.5805 104.04 93.5805 103.656C93.5805 103.264 93.5005 102.92 93.3405 102.624C93.1805 102.32 92.9565 102.088 92.6685 101.928C92.3885 101.76 92.0645 101.676 91.6965 101.676C91.3365 101.676 91.0125 101.76 90.7245 101.928C90.4445 102.096 90.2245 102.332 90.0645 102.636C89.9125 102.932 89.8365 103.272 89.8365 103.656ZM99.0445 100.668C99.5805 100.668 100.08 100.796 100.544 101.052C101.008 101.308 101.376 101.664 101.648 102.12C101.928 102.576 102.068 103.088 102.068 103.656C102.068 104.2 101.932 104.7 101.66 105.156C101.396 105.612 101.032 105.976 100.568 106.248C100.104 106.512 99.5965 106.644 99.0445 106.644C98.5005 106.644 97.9965 106.512 97.5325 106.248C97.0685 105.984 96.7005 105.624 96.4285 105.168C96.1565 104.712 96.0205 104.208 96.0205 103.656C96.0205 103.112 96.1525 102.612 96.4165 102.156C96.6885 101.7 97.0565 101.34 97.5205 101.076C97.9845 100.804 98.4925 100.668 99.0445 100.668ZM97.1725 103.656C97.1725 104.048 97.2485 104.396 97.4005 104.7C97.5605 104.996 97.7805 105.228 98.0605 105.396C98.3485 105.556 98.6765 105.636 99.0445 105.636C99.4125 105.636 99.7365 105.552 100.016 105.384C100.304 105.216 100.524 104.984 100.676 104.688C100.836 104.392 100.916 104.048 100.916 103.656C100.916 103.264 100.836 102.92 100.676 102.624C100.516 102.32 100.292 102.088 100.004 101.928C99.7245 101.76 99.4005 101.676 99.0325 101.676C98.6725 101.676 98.3485 101.76 98.0605 101.928C97.7805 102.096 97.5605 102.332 97.4005 102.636C97.2485 102.932 97.1725 103.272 97.1725 103.656ZM110.949 97.788C111.653 97.788 112.265 97.88 112.785 98.064C113.305 98.24 113.745 98.516 114.105 98.892L113.289 99.768C112.665 99.168 111.881 98.868 110.937 98.868C110.321 98.868 109.769 99.016 109.281 99.312C108.793 99.6 108.413 100.004 108.141 100.524C107.869 101.036 107.733 101.612 107.733 102.252C107.733 102.868 107.873 103.436 108.153 103.956C108.433 104.468 108.825 104.876 109.329 105.18C109.833 105.484 110.401 105.636 111.033 105.636C111.441 105.636 111.825 105.6 112.185 105.528C112.553 105.448 112.865 105.336 113.121 105.192V102.828H111.237V101.748H114.273V105.936C113.881 106.176 113.385 106.364 112.785 106.5C112.193 106.644 111.617 106.716 111.057 106.716C110.161 106.716 109.369 106.524 108.681 106.14C107.993 105.748 107.457 105.216 107.073 104.544C106.697 103.864 106.509 103.1 106.509 102.252C106.509 101.42 106.697 100.664 107.073 99.984C107.457 99.304 107.985 98.768 108.657 98.376C109.337 97.984 110.101 97.788 110.949 97.788ZM117.181 104.22C117.181 104.66 117.297 105.008 117.529 105.264C117.761 105.512 118.077 105.636 118.477 105.636C118.973 105.636 119.361 105.472 119.641 105.144C119.921 104.808 120.061 104.356 120.061 103.788V100.812H121.141V106.5H120.061V105.624H120.037C119.885 105.936 119.641 106.184 119.305 106.368C118.969 106.552 118.589 106.644 118.165 106.644C117.749 106.644 117.385 106.556 117.073 106.38C116.761 106.204 116.521 105.956 116.353 105.636C116.185 105.316 116.101 104.944 116.101 104.52V100.812H117.181V104.22ZM123.393 97.98C123.537 97.98 123.669 98.016 123.789 98.088C123.909 98.16 124.005 98.256 124.077 98.376C124.149 98.496 124.185 98.628 124.185 98.772C124.185 98.916 124.149 99.048 124.077 99.168C124.005 99.288 123.905 99.384 123.777 99.456C123.657 99.528 123.529 99.564 123.393 99.564C123.169 99.564 122.981 99.488 122.829 99.336C122.677 99.184 122.601 98.996 122.601 98.772C122.601 98.628 122.637 98.496 122.709 98.376C122.781 98.256 122.877 98.16 122.997 98.088C123.125 98.016 123.257 97.98 123.393 97.98ZM123.933 106.5H122.853V100.812H123.933V106.5ZM131.352 106.5H130.272V105.684H130.248C130.04 105.988 129.756 106.224 129.396 106.392C129.044 106.56 128.668 106.644 128.268 106.644C127.716 106.644 127.22 106.52 126.78 106.272C126.34 106.016 125.996 105.66 125.748 105.204C125.5 104.748 125.376 104.232 125.376 103.656C125.376 103.08 125.5 102.564 125.748 102.108C125.996 101.652 126.34 101.3 126.78 101.052C127.22 100.796 127.716 100.668 128.268 100.668C128.668 100.668 129.048 100.756 129.408 100.932C129.768 101.1 130.048 101.332 130.248 101.628H130.272V97.428H131.352V106.5ZM126.528 103.656C126.528 104.048 126.604 104.396 126.756 104.7C126.916 104.996 127.136 105.228 127.416 105.396C127.704 105.556 128.032 105.636 128.4 105.636C128.768 105.636 129.092 105.552 129.372 105.384C129.66 105.216 129.88 104.984 130.032 104.688C130.192 104.392 130.272 104.048 130.272 103.656C130.272 103.264 130.192 102.92 130.032 102.624C129.872 102.32 129.648 102.088 129.36 101.928C129.08 101.76 128.756 101.676 128.388 101.676C128.02 101.676 127.696 101.76 127.416 101.928C127.136 102.088 126.916 102.32 126.756 102.624C126.604 102.92 126.528 103.264 126.528 103.656ZM135.592 100.668C136.152 100.668 136.64 100.788 137.056 101.028C137.472 101.268 137.792 101.62 138.016 102.084C138.248 102.548 138.364 103.104 138.364 103.752V104.052H133.804C133.804 104.372 133.892 104.66 134.068 104.916C134.252 105.164 134.488 105.36 134.776 105.504C135.072 105.64 135.388 105.708 135.724 105.708C136.036 105.708 136.316 105.636 136.564 105.492C136.82 105.34 137.06 105.128 137.284 104.856L138.1 105.48C137.796 105.872 137.436 106.164 137.02 106.356C136.604 106.548 136.124 106.644 135.58 106.644C135.02 106.644 134.516 106.52 134.068 106.272C133.628 106.024 133.28 105.676 133.024 105.228C132.776 104.772 132.652 104.248 132.652 103.656C132.652 103.104 132.776 102.6 133.024 102.144C133.28 101.688 133.628 101.328 134.068 101.064C134.516 100.8 135.024 100.668 135.592 100.668ZM137.212 103.188C137.196 102.66 137.044 102.252 136.756 101.964C136.468 101.676 136.072 101.532 135.568 101.532C135.208 101.532 134.892 101.62 134.62 101.796C134.356 101.964 134.152 102.18 134.008 102.444C133.872 102.7 133.804 102.948 133.804 103.188H137.212ZM140.82 106.5H139.74V97.428H140.82V106.5ZM143.163 97.98C143.307 97.98 143.439 98.016 143.559 98.088C143.679 98.16 143.775 98.256 143.847 98.376C143.919 98.496 143.955 98.628 143.955 98.772C143.955 98.916 143.919 99.048 143.847 99.168C143.775 99.288 143.675 99.384 143.547 99.456C143.427 99.528 143.299 99.564 143.163 99.564C142.939 99.564 142.751 99.488 142.599 99.336C142.447 99.184 142.371 98.996 142.371 98.772C142.371 98.628 142.407 98.496 142.479 98.376C142.551 98.256 142.647 98.16 142.767 98.088C142.895 98.016 143.027 97.98 143.163 97.98ZM143.703 106.5H142.623V100.812H143.703V106.5ZM148.397 100.668C148.813 100.668 149.177 100.756 149.489 100.932C149.801 101.108 150.041 101.356 150.209 101.676C150.377 101.996 150.461 102.368 150.461 102.792V106.5H149.381V103.104C149.381 102.664 149.265 102.316 149.033 102.06C148.809 101.804 148.493 101.676 148.085 101.676C147.589 101.676 147.201 101.84 146.921 102.168C146.641 102.496 146.501 102.948 146.501 103.524V106.5H145.421V100.812H146.501V101.688H146.525C146.677 101.376 146.921 101.128 147.257 100.944C147.601 100.76 147.981 100.668 148.397 100.668ZM154.693 100.668C155.253 100.668 155.741 100.788 156.157 101.028C156.573 101.268 156.893 101.62 157.117 102.084C157.349 102.548 157.465 103.104 157.465 103.752V104.052H152.905C152.905 104.372 152.993 104.66 153.169 104.916C153.353 105.164 153.589 105.36 153.877 105.504C154.173 105.64 154.489 105.708 154.825 105.708C155.137 105.708 155.417 105.636 155.665 105.492C155.921 105.34 156.161 105.128 156.385 104.856L157.201 105.48C156.897 105.872 156.537 106.164 156.121 106.356C155.705 106.548 155.225 106.644 154.681 106.644C154.121 106.644 153.617 106.52 153.169 106.272C152.729 106.024 152.381 105.676 152.125 105.228C151.877 104.772 151.753 104.248 151.753 103.656C151.753 103.104 151.877 102.6 152.125 102.144C152.381 101.688 152.729 101.328 153.169 101.064C153.617 100.8 154.125 100.668 154.693 100.668ZM156.313 103.188C156.297 102.66 156.145 102.252 155.857 101.964C155.569 101.676 155.173 101.532 154.669 101.532C154.309 101.532 153.993 101.62 153.721 101.796C153.457 101.964 153.253 102.18 153.109 102.444C152.973 102.7 152.905 102.948 152.905 103.188H156.313ZM160.677 100.668C161.109 100.668 161.497 100.752 161.841 100.92C162.185 101.08 162.445 101.308 162.621 101.604L161.781 102.24C161.461 101.864 161.073 101.676 160.617 101.676C160.345 101.676 160.117 101.736 159.933 101.856C159.757 101.976 159.669 102.128 159.669 102.312C159.669 102.536 159.765 102.712 159.957 102.84C160.149 102.96 160.425 103.056 160.785 103.128C161.257 103.216 161.637 103.332 161.925 103.476C162.213 103.612 162.425 103.792 162.561 104.016C162.705 104.232 162.777 104.512 162.777 104.856C162.777 105.256 162.669 105.592 162.453 105.864C162.245 106.128 161.965 106.324 161.613 106.452C161.261 106.58 160.877 106.644 160.461 106.644C159.949 106.644 159.517 106.564 159.165 106.404C158.821 106.236 158.525 105.98 158.277 105.636L159.093 104.964C159.333 105.204 159.561 105.376 159.777 105.48C160.001 105.584 160.233 105.636 160.473 105.636C160.793 105.636 161.065 105.572 161.289 105.444C161.513 105.316 161.625 105.14 161.625 104.916C161.625 104.708 161.533 104.54 161.349 104.412C161.173 104.284 160.905 104.18 160.545 104.1C160.073 104.004 159.689 103.892 159.393 103.764C159.105 103.628 158.885 103.456 158.733 103.248C158.589 103.032 158.517 102.756 158.517 102.42C158.517 102.044 158.617 101.724 158.817 101.46C159.025 101.196 159.293 101 159.621 100.872C159.949 100.736 160.301 100.668 160.677 100.668ZM164.941 104.988C165.085 104.988 165.217 105.024 165.337 105.096C165.457 105.168 165.553 105.268 165.625 105.396C165.697 105.516 165.733 105.644 165.733 105.78C165.733 105.924 165.693 106.06 165.613 106.188C165.541 106.308 165.445 106.404 165.325 106.476C165.205 106.54 165.077 106.572 164.941 106.572C164.805 106.572 164.673 106.536 164.545 106.464C164.425 106.392 164.329 106.296 164.257 106.176C164.185 106.056 164.149 105.924 164.149 105.78C164.149 105.636 164.185 105.504 164.257 105.384C164.329 105.264 164.425 105.168 164.545 105.096C164.673 105.024 164.805 104.988 164.941 104.988ZM168.281 104.988C168.425 104.988 168.557 105.024 168.677 105.096C168.797 105.168 168.893 105.268 168.965 105.396C169.037 105.516 169.073 105.644 169.073 105.78C169.073 105.924 169.033 106.06 168.953 106.188C168.881 106.308 168.785 106.404 168.665 106.476C168.545 106.54 168.417 106.572 168.281 106.572C168.145 106.572 168.013 106.536 167.885 106.464C167.765 106.392 167.669 106.296 167.597 106.176C167.525 106.056 167.489 105.924 167.489 105.78C167.489 105.636 167.525 105.504 167.597 105.384C167.669 105.264 167.765 105.168 167.885 105.096C168.013 105.024 168.145 104.988 168.281 104.988ZM171.621 104.988C171.765 104.988 171.897 105.024 172.017 105.096C172.137 105.168 172.233 105.268 172.305 105.396C172.377 105.516 172.413 105.644 172.413 105.78C172.413 105.924 172.373 106.06 172.293 106.188C172.221 106.308 172.125 106.404 172.005 106.476C171.885 106.54 171.757 106.572 171.621 106.572C171.485 106.572 171.353 106.536 171.225 106.464C171.105 106.392 171.009 106.296 170.937 106.176C170.865 106.056 170.829 105.924 170.829 105.78C170.829 105.636 170.865 105.504 170.937 105.384C171.009 105.264 171.105 105.168 171.225 105.096C171.353 105.024 171.485 104.988 171.621 104.988Z" fill="black"/>
<path d="M242.6 98.92V106H241.76V100H241.74L240.47 101.07L239.97 100.46L241.87 98.92H242.6ZM245.557 99.77C245.97 99.1233 246.563 98.8 247.337 98.8C248.11 98.8 248.703 99.1233 249.117 99.77C249.53 100.41 249.737 101.307 249.737 102.46C249.737 103.62 249.53 104.52 249.117 105.16C248.71 105.8 248.117 106.12 247.337 106.12C246.563 106.12 245.97 105.8 245.557 105.16C245.143 104.513 244.937 103.613 244.937 102.46C244.937 101.307 245.143 100.41 245.557 99.77ZM245.777 102.46C245.777 103.413 245.91 104.143 246.177 104.65C246.443 105.15 246.83 105.4 247.337 105.4C247.843 105.4 248.23 105.15 248.497 104.65C248.763 104.15 248.897 103.42 248.897 102.46C248.897 101.5 248.763 100.77 248.497 100.27C248.23 99.77 247.84 99.52 247.327 99.52C246.833 99.52 246.45 99.77 246.177 100.27C245.91 100.763 245.777 101.493 245.777 102.46ZM258.306 98.44V106H257.526V105.17H257.506C257.346 105.463 257.103 105.697 256.776 105.87C256.45 106.037 256.093 106.12 255.706 106.12C255.046 106.12 254.49 105.883 254.036 105.41C253.59 104.937 253.366 104.353 253.366 103.66C253.366 102.947 253.593 102.36 254.046 101.9C254.506 101.433 255.1 101.2 255.826 101.2C256.5 101.2 257.06 101.467 257.506 102H257.526V98.44H258.306ZM254.206 103.66C254.206 104.167 254.36 104.583 254.666 104.91C254.98 105.237 255.38 105.4 255.866 105.4C256.36 105.4 256.76 105.237 257.066 104.91C257.373 104.577 257.526 104.16 257.526 103.66C257.526 103.153 257.373 102.737 257.066 102.41C256.76 102.083 256.356 101.92 255.856 101.92C255.37 101.92 254.973 102.087 254.666 102.42C254.36 102.747 254.206 103.16 254.206 103.66ZM261.55 101.2C262.216 101.2 262.71 101.36 263.03 101.68C263.35 102 263.51 102.483 263.51 103.13V105.23C263.51 105.443 263.533 105.7 263.58 106H262.83C262.796 105.9 262.78 105.667 262.78 105.3H262.76C262.4 105.847 261.886 106.12 261.22 106.12C260.706 106.12 260.286 105.993 259.96 105.74C259.64 105.487 259.48 105.15 259.48 104.73C259.48 104.177 259.706 103.767 260.16 103.5C260.613 103.227 261.35 103.09 262.37 103.09H262.73V102.96C262.73 102.62 262.626 102.363 262.42 102.19C262.22 102.01 261.936 101.92 261.57 101.92C261.003 101.92 260.54 102.09 260.18 102.43L259.69 101.92C260.17 101.44 260.79 101.2 261.55 101.2ZM260.32 104.65C260.32 105.19 260.663 105.46 261.35 105.46C261.763 105.46 262.096 105.327 262.35 105.06C262.603 104.793 262.73 104.417 262.73 103.93V103.75H261.87C261.396 103.75 261.02 103.827 260.74 103.98C260.46 104.133 260.32 104.357 260.32 104.65ZM265.205 101.32L266.655 104.99H266.675L268.065 101.32H268.915L266.625 107.15C266.439 107.623 266.229 107.95 265.995 108.13C265.769 108.31 265.469 108.4 265.095 108.4C264.815 108.4 264.582 108.36 264.395 108.28L264.495 107.6C264.615 107.653 264.799 107.68 265.045 107.68C265.245 107.68 265.412 107.627 265.545 107.52C265.679 107.413 265.792 107.237 265.885 106.99L266.235 106.03L264.295 101.32H265.205ZM271.19 101.2C271.95 101.2 272.48 101.483 272.78 102.05L272.13 102.48C271.903 102.107 271.573 101.92 271.14 101.92C270.873 101.92 270.653 101.98 270.48 102.1C270.306 102.22 270.22 102.377 270.22 102.57C270.22 102.877 270.61 103.103 271.39 103.25C271.943 103.357 272.336 103.52 272.57 103.74C272.81 103.96 272.93 104.263 272.93 104.65C272.93 105.103 272.76 105.463 272.42 105.73C272.08 105.99 271.626 106.12 271.06 106.12C270.24 106.12 269.633 105.83 269.24 105.25L269.86 104.77C270.206 105.19 270.606 105.4 271.06 105.4C271.36 105.4 271.606 105.337 271.8 105.21C271.993 105.077 272.09 104.9 272.09 104.68C272.09 104.467 272 104.307 271.82 104.2C271.64 104.087 271.29 103.973 270.77 103.86C270.303 103.76 269.963 103.61 269.75 103.41C269.543 103.203 269.44 102.927 269.44 102.58C269.44 102.167 269.606 101.833 269.94 101.58C270.28 101.327 270.696 101.2 271.19 101.2ZM278.601 101.2C279.267 101.2 279.761 101.36 280.081 101.68C280.401 102 280.561 102.483 280.561 103.13V105.23C280.561 105.443 280.584 105.7 280.631 106H279.881C279.847 105.9 279.831 105.667 279.831 105.3H279.811C279.451 105.847 278.937 106.12 278.271 106.12C277.757 106.12 277.337 105.993 277.011 105.74C276.691 105.487 276.531 105.15 276.531 104.73C276.531 104.177 276.757 103.767 277.211 103.5C277.664 103.227 278.401 103.09 279.421 103.09H279.781V102.96C279.781 102.62 279.677 102.363 279.471 102.19C279.271 102.01 278.987 101.92 278.621 101.92C278.054 101.92 277.591 102.09 277.231 102.43L276.741 101.92C277.221 101.44 277.841 101.2 278.601 101.2ZM277.371 104.65C277.371 105.19 277.714 105.46 278.401 105.46C278.814 105.46 279.147 105.327 279.401 105.06C279.654 104.793 279.781 104.417 279.781 103.93V103.75H278.921C278.447 103.75 278.071 103.827 277.791 103.98C277.511 104.133 277.371 104.357 277.371 104.65ZM284.196 101.2C284.556 101.2 284.886 101.283 285.186 101.45C285.493 101.617 285.716 101.84 285.856 102.12H285.876V101.32H286.656V105.84C286.656 106.64 286.436 107.267 285.996 107.72C285.563 108.173 284.933 108.4 284.106 108.4C283.166 108.4 282.399 108.103 281.806 107.51L282.366 106.87C282.866 107.41 283.446 107.68 284.106 107.68C285.286 107.68 285.876 107.053 285.876 105.8V105.19H285.856C285.683 105.463 285.449 105.677 285.156 105.83C284.863 105.983 284.543 106.06 284.196 106.06C283.476 106.06 282.883 105.833 282.416 105.38C281.949 104.927 281.716 104.353 281.716 103.66C281.716 102.913 281.939 102.317 282.386 101.87C282.839 101.423 283.443 101.2 284.196 101.2ZM282.556 103.66C282.556 104.127 282.716 104.523 283.036 104.85C283.356 105.177 283.746 105.34 284.206 105.34C284.706 105.34 285.109 105.18 285.416 104.86C285.723 104.533 285.876 104.127 285.876 103.64C285.876 103.133 285.719 102.72 285.406 102.4C285.099 102.08 284.696 101.92 284.196 101.92C283.723 101.92 283.329 102.087 283.016 102.42C282.709 102.747 282.556 103.16 282.556 103.66ZM290.329 101.2C291.056 101.2 291.653 101.43 292.119 101.89C292.593 102.35 292.829 102.94 292.829 103.66C292.829 104.38 292.593 104.97 292.119 105.43C291.653 105.89 291.056 106.12 290.329 106.12C289.603 106.12 289.003 105.89 288.529 105.43C288.063 104.97 287.829 104.38 287.829 103.66C287.829 102.94 288.063 102.35 288.529 101.89C288.996 101.43 289.596 101.2 290.329 101.2ZM288.669 103.66C288.669 104.167 288.823 104.583 289.129 104.91C289.443 105.237 289.843 105.4 290.329 105.4C290.823 105.4 291.223 105.237 291.529 104.91C291.836 104.577 291.989 104.16 291.989 103.66C291.989 103.16 291.836 102.747 291.529 102.42C291.223 102.087 290.819 101.92 290.319 101.92C289.833 101.92 289.436 102.087 289.129 102.42C288.823 102.747 288.669 103.16 288.669 103.66Z" fill="#D0D4E4"/>
</svg>
