<svg width="18" height="16" viewBox="0 0 18 16" fill="none" xmlns="http://www.w3.org/2000/svg">
<path d="M3.5 0C3.75 0 4 0.25 4 0.5C4 0.78125 3.75 1 3.5 1H2.75C1.78125 1 1 1.8125 1 2.75V3.5C1 3.78125 0.75 4 0.5 4C0.21875 4 0 3.78125 0 3.5V2.75C0 1.25 1.21875 0 2.75 0H3.5ZM0 8.5V5.5C0 5.25 0.21875 5 0.5 5C0.75 5 1 5.25 1 5.5V8.5C1 8.78125 0.75 9 0.5 9C0.21875 9 0 8.78125 0 8.5ZM0.5 10C0.75 10 1 10.25 1 10.5V11.25C1 12.2188 1.78125 13 2.75 13H3.5C3.75 13 4 13.25 4 13.5C4 13.7812 3.75 14 3.5 14H2.75C1.21875 14 0 12.7812 0 11.25V10.5C0 10.25 0.21875 10 0.5 10ZM13.5312 5.03125C13.25 5.0625 13 4.84375 13 4.5625V2.75C13 1.8125 12.1875 1 11.25 1H10.5C10.2188 1 10 0.78125 10 0.5C10 0.25 10.2188 0 10.5 0H11.25C12.75 0 14 1.25 14 2.75V4.5625C14 4.8125 13.7812 5 13.5312 5.03125ZM5 13.5C5 13.25 5.21875 13 5.5 13H8.5C8.75 13 9 13.25 9 13.5C9 13.7812 8.75 14 8.5 14H5.5C5.21875 14 5 13.7812 5 13.5ZM8.5 1H5.5C5.21875 1 5 0.78125 5 0.5C5 0.25 5.21875 0 5.5 0H8.5C8.75 0 9 0.25 9 0.5C9 0.78125 8.75 1 8.5 1ZM17 10.5C17 9.25 16.3125 8.125 15.25 7.5C14.1562 6.84375 12.8125 6.84375 11.75 7.5C10.6562 8.125 10 9.25 10 10.5C10 11.7812 10.6562 12.9062 11.75 13.5312C12.8125 14.1875 14.1562 14.1875 15.25 13.5312C16.3125 12.9062 17 11.7812 17 10.5ZM9 10.5C9 8.90625 9.84375 7.4375 11.25 6.625C12.625 5.8125 14.3438 5.8125 15.75 6.625C17.125 7.4375 18 8.90625 18 10.5C18 12.125 17.125 13.5938 15.75 14.4062C14.3438 15.2188 12.625 15.2188 11.25 14.4062C9.84375 13.5938 9 12.125 9 10.5ZM14 8.5V10H15.5C15.75 10 16 10.25 16 10.5C16 10.7812 15.75 11 15.5 11H14V12.5C14 12.7812 13.75 13 13.5 13C13.2188 13 13 12.7812 13 12.5V11H11.5C11.2188 11 11 10.7812 11 10.5C11 10.25 11.2188 10 11.5 10H13V8.5C13 8.25 13.2188 8 13.5 8C13.75 8 14 8.25 14 8.5Z" fill="#777FA1"/>
</svg>
