<svg width="322" height="161" viewBox="0 0 322 161" fill="none" xmlns="http://www.w3.org/2000/svg">
<rect width="322" height="161" rx="20" fill="white"/>
<path d="M24.41 27.836C24.9793 27.836 25.5067 27.9247 25.992 28.102C26.4773 28.2793 26.8973 28.5313 27.252 28.858L25.964 30.216C25.7773 29.9547 25.53 29.7587 25.222 29.628C24.9233 29.4973 24.592 29.432 24.228 29.432C23.7333 29.432 23.3367 29.5487 23.038 29.782C22.7487 30.0153 22.604 30.3233 22.604 30.706C22.604 31.0233 22.73 31.2847 22.982 31.49C23.234 31.6953 23.6213 31.882 24.144 32.05C24.844 32.2647 25.404 32.4747 25.824 32.68C26.244 32.876 26.594 33.17 26.874 33.562C27.1633 33.9447 27.308 34.4533 27.308 35.088C27.308 35.7507 27.1493 36.32 26.832 36.796C26.5147 37.272 26.0853 37.636 25.544 37.888C25.012 38.1307 24.4147 38.252 23.752 38.252C23.0333 38.252 22.394 38.1447 21.834 37.93C21.2833 37.706 20.8167 37.3653 20.434 36.908L21.764 35.62C21.9787 35.9467 22.2587 36.2033 22.604 36.39C22.9493 36.5673 23.3227 36.656 23.724 36.656C24.0413 36.656 24.3307 36.6 24.592 36.488C24.8627 36.3667 25.0727 36.2033 25.222 35.998C25.3807 35.7927 25.46 35.5593 25.46 35.298C25.46 35.046 25.3993 34.8313 25.278 34.654C25.166 34.4767 24.9793 34.318 24.718 34.178C24.466 34.038 24.1207 33.9027 23.682 33.772C23.0193 33.5667 22.478 33.352 22.058 33.128C21.6473 32.904 21.3253 32.61 21.092 32.246C20.868 31.8727 20.756 31.4013 20.756 30.832C20.756 30.244 20.91 29.726 21.218 29.278C21.526 28.8207 21.9553 28.466 22.506 28.214C23.066 27.962 23.7007 27.836 24.41 27.836ZM29.8451 27.99C30.0504 27.99 30.2324 28.0367 30.3911 28.13C30.5591 28.214 30.6897 28.3353 30.7831 28.494C30.8857 28.6433 30.9371 28.8113 30.9371 28.998C30.9371 29.194 30.8857 29.3713 30.7831 29.53C30.6897 29.6793 30.5591 29.796 30.3911 29.88C30.2231 29.964 30.0411 30.006 29.8451 30.006C29.6491 30.006 29.4671 29.9593 29.2991 29.866C29.1404 29.7727 29.0144 29.6513 28.9211 29.502C28.8277 29.3433 28.7811 29.1753 28.7811 28.998C28.7811 28.8207 28.8277 28.6573 28.9211 28.508C29.0144 28.3493 29.1404 28.2233 29.2991 28.13C29.4671 28.0367 29.6491 27.99 29.8451 27.99ZM30.6991 38H29.0191V31.28H30.6991V38ZM35.5958 31.112C36.0904 31.112 36.5384 31.21 36.9398 31.406C37.3504 31.602 37.6771 31.896 37.9198 32.288H37.9478V31.28H39.5438V37.454C39.5438 38.266 39.3991 38.9613 39.1098 39.54C38.8298 40.128 38.4051 40.576 37.8358 40.884C37.2758 41.2013 36.5804 41.36 35.7498 41.36C35.0778 41.36 34.4664 41.2713 33.9158 41.094C33.3651 40.926 32.8658 40.646 32.4178 40.254L33.4258 38.882C33.7711 39.1993 34.1304 39.4373 34.5038 39.596C34.8771 39.764 35.2878 39.848 35.7358 39.848C36.5011 39.848 37.0471 39.6567 37.3738 39.274C37.7004 38.8913 37.8638 38.3127 37.8638 37.538V37.104H37.8358C37.5838 37.4213 37.2664 37.664 36.8838 37.832C36.5011 38 36.0858 38.084 35.6378 38.084C34.9938 38.084 34.4151 37.9347 33.9018 37.636C33.3978 37.328 33.0011 36.9127 32.7118 36.39C32.4318 35.8673 32.2918 35.284 32.2918 34.64C32.2918 33.968 32.4271 33.366 32.6978 32.834C32.9684 32.2927 33.3511 31.8727 33.8458 31.574C34.3498 31.266 34.9331 31.112 35.5958 31.112ZM33.9718 34.626C33.9718 34.99 34.0604 35.3213 34.2378 35.62C34.4151 35.9187 34.6531 36.152 34.9518 36.32C35.2598 36.488 35.5911 36.572 35.9458 36.572C36.3378 36.572 36.6831 36.4927 36.9818 36.334C37.2898 36.166 37.5278 35.9327 37.6958 35.634C37.8638 35.326 37.9478 34.9807 37.9478 34.598C37.9478 34.1967 37.8638 33.8467 37.6958 33.548C37.5278 33.2493 37.2898 33.0207 36.9818 32.862C36.6831 32.7033 36.3378 32.624 35.9458 32.624C35.5631 32.624 35.2224 32.708 34.9238 32.876C34.6251 33.044 34.3918 33.282 34.2238 33.59C34.0558 33.8887 33.9718 34.234 33.9718 34.626ZM45.1281 31.112C45.7441 31.112 46.2341 31.2473 46.5981 31.518C46.9621 31.7887 47.2141 32.12 47.3541 32.512C47.5035 32.8947 47.5781 33.2913 47.5781 33.702V38H45.8981V34.514C45.8981 33.8607 45.7955 33.3847 45.5901 33.086C45.3848 32.778 45.0768 32.624 44.6661 32.624C44.1528 32.624 43.7655 32.7827 43.5041 33.1C43.2521 33.4173 43.1261 33.8187 43.1261 34.304V38H41.4461V31.28H43.0421V32.358H43.0701C43.2661 31.938 43.5415 31.6253 43.8961 31.42C44.2508 31.2147 44.6615 31.112 45.1281 31.112Z" fill="black"/>
<path d="M54 34C55.6569 34 57 32.6569 57 31C57 29.3431 55.6569 28 54 28C52.3431 28 51 29.3431 51 31C51 32.6569 52.3431 34 54 34Z" fill="#27BD50"/>
<path d="M276 27.0909C276 23.1747 279.175 20 283.091 20H294.909C298.825 20 302 23.1747 302 27.0909V38.9091C302 42.8253 298.825 46 294.909 46H283.091C279.175 46 276 42.8253 276 38.9091V27.0909Z" fill="#6E38CE"/>
<path d="M285.989 29.8523V30.517C285.989 30.891 285.677 31.1818 285.324 31.1818C284.95 31.1818 284.659 30.891 284.659 30.517V29.8523C284.659 28.7512 285.552 27.858 286.653 27.858C287.754 27.858 288.648 28.7512 288.648 29.8523V30.0185C288.648 30.4547 288.606 30.891 288.565 31.3272L291.099 30.5586C291.348 30.4755 291.598 30.5586 291.785 30.7248C291.951 30.9118 292.013 31.161 291.93 31.4103L291.556 32.5114H293.301C293.654 32.5114 293.966 32.823 293.966 33.1761C293.966 33.5501 293.654 33.8409 293.301 33.8409H290.642C290.414 33.8409 290.227 33.737 290.102 33.5708C289.977 33.4047 289.936 33.1761 289.998 32.9684L290.268 32.1998L288.295 32.7814C288.045 33.8825 287.651 34.9419 287.09 35.9183L286.799 36.4169C286.529 36.8947 286.03 37.1648 285.49 37.1648C284.659 37.1648 283.994 36.5 283.994 35.669V34.1733C283.994 33.3008 284.555 32.5114 285.407 32.2621L287.152 31.7427C287.256 31.1818 287.318 30.6001 287.318 30.0185V29.8523C287.318 29.4991 287.007 29.1875 286.653 29.1875C286.279 29.1875 285.989 29.4991 285.989 29.8523ZM285.781 33.5293C285.511 33.6124 285.303 33.8825 285.303 34.1733V35.669C285.303 35.7729 285.386 35.856 285.49 35.856C285.552 35.856 285.615 35.8145 285.635 35.7521L285.926 35.2536C286.3 34.6096 286.591 33.9448 286.799 33.2385L285.781 33.5293ZM282.499 34.8381H283.33V35.669C283.33 35.7314 283.33 35.7937 283.33 35.8352H282.499C282.208 35.8352 282 35.6275 282 35.3366C282 35.0666 282.208 34.8381 282.499 34.8381ZM294.797 35.8352H287.879C288.045 35.5236 288.211 35.1912 288.336 34.8381H294.797C295.067 34.8381 295.295 35.0666 295.295 35.3366C295.295 35.6275 295.067 35.8352 294.797 35.8352Z" fill="white"/>
<rect x="20" y="58" width="282" height="27" rx="8" fill="#D0E4D8" fill-opacity="0.2"/>
<path d="M28 67.0227C28 66.2956 28.5817 65.6932 29.3295 65.6932H32.6534V68.3523C32.6534 68.7262 32.9442 69.017 33.3182 69.017H35.9773V75C35.9773 75.7479 35.3748 76.3295 34.6477 76.3295H29.3295C28.5817 76.3295 28 75.7479 28 75V67.0227ZM35.9773 68.3523H33.3182V65.6932L35.9773 68.3523Z" fill="#27BD50"/>
<path d="M52.436 75.5H51.092L50.24 73.4H46.196L45.356 75.5H44.012L47.756 67.004H48.8L52.436 75.5ZM49.82 72.392L48.236 68.492H48.212L46.604 72.392H49.82ZM54.3452 70.688H54.3692C54.5212 70.376 54.7652 70.128 55.1012 69.944C55.4452 69.76 55.8252 69.668 56.2412 69.668C56.6572 69.668 57.0212 69.756 57.3332 69.932C57.6452 70.1 57.8852 70.344 58.0532 70.664C58.2212 70.984 58.3052 71.36 58.3052 71.792V75.5H57.2252V72.104C57.2252 71.664 57.1092 71.316 56.8772 71.06C56.6532 70.804 56.3372 70.676 55.9292 70.676C55.4332 70.676 55.0452 70.84 54.7652 71.168C54.4852 71.496 54.3452 71.948 54.3452 72.524V75.5H53.2652V66.428H54.3452V70.688ZM62.7892 69.668C63.2052 69.668 63.5572 69.756 63.8452 69.932C64.1412 70.1 64.3812 70.364 64.5652 70.724C64.7412 70.396 64.9892 70.14 65.3092 69.956C65.6372 69.764 65.9892 69.668 66.3652 69.668C67.0852 69.668 67.6252 69.876 67.9852 70.292C68.3452 70.708 68.5252 71.324 68.5252 72.14V75.5H67.4452V72.272C67.4452 71.72 67.3452 71.316 67.1452 71.06C66.9452 70.804 66.6372 70.676 66.2212 70.676C65.7412 70.676 65.3772 70.824 65.1292 71.12C64.8892 71.408 64.7692 71.816 64.7692 72.344V75.5H63.6892V72.44C63.6892 72 63.6452 71.652 63.5572 71.396C63.4692 71.132 63.3372 70.948 63.1612 70.844C62.9932 70.732 62.7692 70.676 62.4892 70.676C62.1932 70.676 61.9332 70.752 61.7092 70.904C61.4932 71.056 61.3212 71.272 61.1932 71.552C61.0732 71.824 61.0132 72.14 61.0132 72.5V75.5H59.9332V69.812H60.9412V70.7H60.9652C61.0452 70.524 61.1732 70.356 61.3492 70.196C61.5332 70.036 61.7492 69.908 61.9972 69.812C62.2532 69.716 62.5172 69.668 62.7892 69.668ZM72.7559 69.668C73.3159 69.668 73.8039 69.788 74.2199 70.028C74.6359 70.268 74.9559 70.62 75.1799 71.084C75.4119 71.548 75.5279 72.104 75.5279 72.752V73.052H70.9679C70.9679 73.372 71.0559 73.66 71.2319 73.916C71.4159 74.164 71.6519 74.36 71.9399 74.504C72.2359 74.64 72.5519 74.708 72.8879 74.708C73.1999 74.708 73.4799 74.636 73.7279 74.492C73.9839 74.34 74.2239 74.128 74.4479 73.856L75.2639 74.48C74.9599 74.872 74.5999 75.164 74.1839 75.356C73.7679 75.548 73.2879 75.644 72.7439 75.644C72.1839 75.644 71.6799 75.52 71.2319 75.272C70.7919 75.024 70.4439 74.676 70.1879 74.228C69.9399 73.772 69.8159 73.248 69.8159 72.656C69.8159 72.104 69.9399 71.6 70.1879 71.144C70.4439 70.688 70.7919 70.328 71.2319 70.064C71.6799 69.8 72.1879 69.668 72.7559 69.668ZM74.3759 72.188C74.3599 71.66 74.2079 71.252 73.9199 70.964C73.6319 70.676 73.2359 70.532 72.7319 70.532C72.3719 70.532 72.0559 70.62 71.7839 70.796C71.5199 70.964 71.3159 71.18 71.1719 71.444C71.0359 71.7 70.9679 71.948 70.9679 72.188H74.3759ZM82.5199 75.5H81.4399V74.684H81.4159C81.2079 74.988 80.9239 75.224 80.5639 75.392C80.2119 75.56 79.8359 75.644 79.4359 75.644C78.8839 75.644 78.3879 75.52 77.9479 75.272C77.5079 75.016 77.1639 74.66 76.9159 74.204C76.6679 73.748 76.5439 73.232 76.5439 72.656C76.5439 72.08 76.6679 71.564 76.9159 71.108C77.1639 70.652 77.5079 70.3 77.9479 70.052C78.3879 69.796 78.8839 69.668 79.4359 69.668C79.8359 69.668 80.2159 69.756 80.5759 69.932C80.9359 70.1 81.2159 70.332 81.4159 70.628H81.4399V66.428H82.5199V75.5ZM77.6959 72.656C77.6959 73.048 77.7719 73.396 77.9239 73.7C78.0839 73.996 78.3039 74.228 78.5839 74.396C78.8719 74.556 79.1999 74.636 79.5679 74.636C79.9359 74.636 80.2599 74.552 80.5399 74.384C80.8279 74.216 81.0479 73.984 81.1999 73.688C81.3599 73.392 81.4399 73.048 81.4399 72.656C81.4399 72.264 81.3599 71.92 81.1999 71.624C81.0399 71.32 80.8159 71.088 80.5279 70.928C80.2479 70.76 79.9239 70.676 79.5559 70.676C79.1879 70.676 78.8639 70.76 78.5839 70.928C78.3039 71.088 78.0839 71.32 77.9239 71.624C77.7719 71.92 77.6959 72.264 77.6959 72.656ZM88.9237 74.42H92.8237V75.5H87.7717V67.004H88.9237V74.42ZM96.3223 69.668C96.8823 69.668 97.3703 69.788 97.7863 70.028C98.2023 70.268 98.5223 70.62 98.7463 71.084C98.9783 71.548 99.0943 72.104 99.0943 72.752V73.052H94.5343C94.5343 73.372 94.6223 73.66 94.7983 73.916C94.9823 74.164 95.2183 74.36 95.5063 74.504C95.8023 74.64 96.1183 74.708 96.4543 74.708C96.7663 74.708 97.0463 74.636 97.2943 74.492C97.5503 74.34 97.7903 74.128 98.0143 73.856L98.8303 74.48C98.5263 74.872 98.1663 75.164 97.7503 75.356C97.3343 75.548 96.8543 75.644 96.3103 75.644C95.7503 75.644 95.2463 75.52 94.7983 75.272C94.3583 75.024 94.0103 74.676 93.7543 74.228C93.5063 73.772 93.3823 73.248 93.3823 72.656C93.3823 72.104 93.5063 71.6 93.7543 71.144C94.0103 70.688 94.3583 70.328 94.7983 70.064C95.2463 69.8 95.7543 69.668 96.3223 69.668ZM97.9423 72.188C97.9263 71.66 97.7743 71.252 97.4863 70.964C97.1983 70.676 96.8023 70.532 96.2983 70.532C95.9383 70.532 95.6223 70.62 95.3503 70.796C95.0863 70.964 94.8823 71.18 94.7383 71.444C94.6023 71.7 94.5343 71.948 94.5343 72.188H97.9423ZM102.666 69.668C103.21 69.668 103.658 69.76 104.01 69.944C104.37 70.12 104.63 70.348 104.79 70.628C104.958 70.908 105.042 71.208 105.042 71.528V74.576C105.042 74.688 105.046 74.828 105.054 74.996C105.062 75.164 105.074 75.332 105.09 75.5H104.13C104.106 75.212 104.094 74.924 104.094 74.636H104.07C103.83 74.996 103.546 75.256 103.218 75.416C102.898 75.568 102.518 75.644 102.078 75.644C101.702 75.644 101.362 75.576 101.058 75.44C100.762 75.296 100.53 75.096 100.362 74.84C100.194 74.584 100.11 74.284 100.11 73.94C100.11 73.332 100.362 72.852 100.866 72.5C101.378 72.148 102.166 71.972 103.23 71.972H104.034V71.768C104.034 71.52 103.974 71.304 103.854 71.12C103.742 70.928 103.582 70.784 103.374 70.688C103.166 70.584 102.93 70.532 102.666 70.532C102.362 70.532 102.094 70.58 101.862 70.676C101.638 70.764 101.37 70.932 101.058 71.18L100.41 70.508C100.706 70.236 101.05 70.028 101.442 69.884C101.842 69.74 102.25 69.668 102.666 69.668ZM101.19 73.856C101.19 74.152 101.29 74.38 101.49 74.54C101.698 74.7 102.006 74.78 102.414 74.78C102.91 74.78 103.302 74.632 103.59 74.336C103.886 74.04 104.034 73.62 104.034 73.076V72.764H103.422C102.614 72.764 102.038 72.868 101.694 73.076C101.358 73.276 101.19 73.536 101.19 73.856ZM108.877 74.168L110.509 69.812H111.661L109.429 75.5H108.241L105.925 69.812H107.173L108.877 74.168ZM115.213 69.668C115.773 69.668 116.261 69.788 116.677 70.028C117.093 70.268 117.413 70.62 117.637 71.084C117.869 71.548 117.985 72.104 117.985 72.752V73.052H113.425C113.425 73.372 113.513 73.66 113.689 73.916C113.873 74.164 114.109 74.36 114.397 74.504C114.693 74.64 115.009 74.708 115.345 74.708C115.657 74.708 115.937 74.636 116.185 74.492C116.441 74.34 116.681 74.128 116.905 73.856L117.721 74.48C117.417 74.872 117.057 75.164 116.641 75.356C116.225 75.548 115.745 75.644 115.201 75.644C114.641 75.644 114.137 75.52 113.689 75.272C113.249 75.024 112.901 74.676 112.645 74.228C112.397 73.772 112.273 73.248 112.273 72.656C112.273 72.104 112.397 71.6 112.645 71.144C112.901 70.688 113.249 70.328 113.689 70.064C114.137 69.8 114.645 69.668 115.213 69.668ZM116.833 72.188C116.817 71.66 116.665 71.252 116.377 70.964C116.089 70.676 115.693 70.532 115.189 70.532C114.829 70.532 114.513 70.62 114.241 70.796C113.977 70.964 113.773 71.18 113.629 71.444C113.493 71.7 113.425 71.948 113.425 72.188H116.833ZM125.425 69.668C125.625 69.668 125.785 69.692 125.905 69.74L125.857 70.904C125.649 70.848 125.469 70.82 125.317 70.82C124.789 70.82 124.385 70.972 124.105 71.276C123.833 71.58 123.697 72.02 123.697 72.596V75.5H122.617V69.812H123.697V70.688H123.721C123.865 70.384 124.093 70.14 124.405 69.956C124.725 69.764 125.065 69.668 125.425 69.668ZM129.451 69.668C130.011 69.668 130.499 69.788 130.915 70.028C131.331 70.268 131.651 70.62 131.875 71.084C132.107 71.548 132.223 72.104 132.223 72.752V73.052H127.663C127.663 73.372 127.751 73.66 127.927 73.916C128.111 74.164 128.347 74.36 128.635 74.504C128.931 74.64 129.247 74.708 129.583 74.708C129.895 74.708 130.175 74.636 130.423 74.492C130.679 74.34 130.919 74.128 131.143 73.856L131.959 74.48C131.655 74.872 131.295 75.164 130.879 75.356C130.463 75.548 129.983 75.644 129.439 75.644C128.879 75.644 128.375 75.52 127.927 75.272C127.487 75.024 127.139 74.676 126.883 74.228C126.635 73.772 126.511 73.248 126.511 72.656C126.511 72.104 126.635 71.6 126.883 71.144C127.139 70.688 127.487 70.328 127.927 70.064C128.375 69.8 128.883 69.668 129.451 69.668ZM131.071 72.188C131.055 71.66 130.903 71.252 130.615 70.964C130.327 70.676 129.931 70.532 129.427 70.532C129.067 70.532 128.751 70.62 128.479 70.796C128.215 70.964 128.011 71.18 127.867 71.444C127.731 71.7 127.663 71.948 127.663 72.188H131.071ZM136.131 69.668C136.539 69.668 136.919 69.756 137.271 69.932C137.631 70.1 137.911 70.332 138.111 70.628H138.135V69.812H139.215V78.236H138.135V74.684H138.111C137.911 74.98 137.631 75.216 137.271 75.392C136.919 75.56 136.539 75.644 136.131 75.644C135.571 75.644 135.071 75.52 134.631 75.272C134.191 75.016 133.847 74.66 133.599 74.204C133.359 73.748 133.239 73.232 133.239 72.656C133.239 72.096 133.359 71.588 133.599 71.132C133.839 70.676 134.179 70.32 134.619 70.064C135.059 69.8 135.563 69.668 136.131 69.668ZM134.391 72.656C134.391 73.048 134.467 73.396 134.619 73.7C134.779 73.996 134.999 74.228 135.279 74.396C135.567 74.556 135.895 74.636 136.263 74.636C136.639 74.636 136.967 74.552 137.247 74.384C137.535 74.216 137.755 73.984 137.907 73.688C138.059 73.384 138.135 73.04 138.135 72.656C138.135 72.296 138.063 71.968 137.919 71.672C137.775 71.368 137.559 71.128 137.271 70.952C136.991 70.768 136.651 70.676 136.251 70.676C135.883 70.676 135.559 70.76 135.279 70.928C134.999 71.088 134.779 71.32 134.619 71.624C134.467 71.92 134.391 72.264 134.391 72.656ZM141.931 73.22C141.931 73.66 142.047 74.008 142.279 74.264C142.511 74.512 142.827 74.636 143.227 74.636C143.723 74.636 144.111 74.472 144.391 74.144C144.671 73.808 144.811 73.356 144.811 72.788V69.812H145.891V75.5H144.811V74.624H144.787C144.635 74.936 144.391 75.184 144.055 75.368C143.719 75.552 143.339 75.644 142.915 75.644C142.499 75.644 142.135 75.556 141.823 75.38C141.511 75.204 141.271 74.956 141.103 74.636C140.935 74.316 140.851 73.944 140.851 73.52V69.812H141.931V73.22ZM150.123 69.668C150.683 69.668 151.171 69.788 151.587 70.028C152.003 70.268 152.323 70.62 152.547 71.084C152.779 71.548 152.895 72.104 152.895 72.752V73.052H148.335C148.335 73.372 148.423 73.66 148.599 73.916C148.783 74.164 149.019 74.36 149.307 74.504C149.603 74.64 149.919 74.708 150.255 74.708C150.567 74.708 150.847 74.636 151.095 74.492C151.351 74.34 151.591 74.128 151.815 73.856L152.631 74.48C152.327 74.872 151.967 75.164 151.551 75.356C151.135 75.548 150.655 75.644 150.111 75.644C149.551 75.644 149.047 75.52 148.599 75.272C148.159 75.024 147.811 74.676 147.555 74.228C147.307 73.772 147.183 73.248 147.183 72.656C147.183 72.104 147.307 71.6 147.555 71.144C147.811 70.688 148.159 70.328 148.599 70.064C149.047 69.8 149.555 69.668 150.123 69.668ZM151.743 72.188C151.727 71.66 151.575 71.252 151.287 70.964C150.999 70.676 150.603 70.532 150.099 70.532C149.739 70.532 149.423 70.62 149.151 70.796C148.887 70.964 148.683 71.18 148.539 71.444C148.403 71.7 148.335 71.948 148.335 72.188H151.743ZM156.107 69.668C156.539 69.668 156.927 69.752 157.271 69.92C157.615 70.08 157.875 70.308 158.051 70.604L157.211 71.24C156.891 70.864 156.503 70.676 156.047 70.676C155.775 70.676 155.547 70.736 155.363 70.856C155.187 70.976 155.099 71.128 155.099 71.312C155.099 71.536 155.195 71.712 155.387 71.84C155.579 71.96 155.855 72.056 156.215 72.128C156.687 72.216 157.067 72.332 157.355 72.476C157.643 72.612 157.855 72.792 157.991 73.016C158.135 73.232 158.207 73.512 158.207 73.856C158.207 74.256 158.099 74.592 157.883 74.864C157.675 75.128 157.395 75.324 157.043 75.452C156.691 75.58 156.307 75.644 155.891 75.644C155.379 75.644 154.947 75.564 154.595 75.404C154.251 75.236 153.955 74.98 153.707 74.636L154.523 73.964C154.763 74.204 154.991 74.376 155.207 74.48C155.431 74.584 155.663 74.636 155.903 74.636C156.223 74.636 156.495 74.572 156.719 74.444C156.943 74.316 157.055 74.14 157.055 73.916C157.055 73.708 156.963 73.54 156.779 73.412C156.603 73.284 156.335 73.18 155.975 73.1C155.503 73.004 155.119 72.892 154.823 72.764C154.535 72.628 154.315 72.456 154.163 72.248C154.019 72.032 153.947 71.756 153.947 71.42C153.947 71.044 154.047 70.724 154.247 70.46C154.455 70.196 154.723 70 155.051 69.872C155.379 69.736 155.731 69.668 156.107 69.668ZM161.019 69.812H162.567V70.748H161.019V73.484C161.019 73.748 161.039 73.964 161.079 74.132C161.127 74.292 161.211 74.416 161.331 74.504C161.451 74.592 161.619 74.636 161.835 74.636C162.163 74.636 162.419 74.58 162.603 74.468V75.452C162.507 75.508 162.359 75.552 162.159 75.584C161.967 75.624 161.787 75.644 161.619 75.644C161.107 75.644 160.727 75.552 160.479 75.368C160.231 75.176 160.079 74.956 160.023 74.708C159.967 74.46 159.939 74.152 159.939 73.784V70.748H158.691V69.812H159.939V68.216H161.019V69.812Z" fill="black"/>
<path d="M191.53 67.92C192.297 67.92 192.893 68.0867 193.32 68.42C193.747 68.7533 193.96 69.2333 193.96 69.86C193.96 70.4867 193.75 70.97 193.33 71.31C192.91 71.65 192.36 71.82 191.68 71.82H190.22V75H189.38V67.92H191.53ZM191.68 71.04C192.107 71.04 192.443 70.9367 192.69 70.73C192.937 70.5233 193.06 70.2367 193.06 69.87C193.06 69.5033 192.937 69.2167 192.69 69.01C192.45 68.8033 192.113 68.7 191.68 68.7H190.22V71.04H191.68ZM197.298 70.2C197.951 70.2 198.484 70.4133 198.898 70.84C199.311 71.26 199.518 71.8833 199.518 72.71V72.9H195.738C195.778 73.3333 195.941 73.6933 196.228 73.98C196.521 74.26 196.871 74.4 197.278 74.4C197.898 74.4 198.391 74.1633 198.758 73.69L199.348 74.15C198.854 74.7967 198.164 75.12 197.278 75.12C196.564 75.12 195.988 74.89 195.548 74.43C195.114 73.9633 194.898 73.3733 194.898 72.66C194.898 71.94 195.121 71.35 195.568 70.89C196.021 70.43 196.598 70.2 197.298 70.2ZM198.678 72.24C198.658 71.8333 198.524 71.5133 198.278 71.28C198.031 71.04 197.691 70.92 197.258 70.92C196.851 70.92 196.511 71.0367 196.238 71.27C195.964 71.4967 195.798 71.82 195.738 72.24H198.678ZM203.024 70.2C203.604 70.2 204.044 70.3667 204.344 70.7C204.651 71.0333 204.804 71.49 204.804 72.07V75H204.024V72.16C204.024 71.78 203.934 71.48 203.754 71.26C203.581 71.0333 203.314 70.92 202.954 70.92C202.481 70.92 202.121 71.0767 201.874 71.39C201.628 71.7033 201.504 72.1433 201.504 72.71V75H200.724V71.36C200.724 71.2533 200.718 71.0767 200.704 70.83C200.691 70.5833 200.684 70.4133 200.684 70.32H201.424C201.424 70.4133 201.428 70.54 201.434 70.7C201.441 70.8533 201.444 70.9833 201.444 71.09H201.464C201.591 70.8233 201.794 70.61 202.074 70.45C202.361 70.2833 202.678 70.2 203.024 70.2ZM210.951 67.44V75H210.171V74.17H210.151C209.991 74.4633 209.748 74.6967 209.421 74.87C209.094 75.0367 208.738 75.12 208.351 75.12C207.691 75.12 207.134 74.8833 206.681 74.41C206.234 73.9367 206.011 73.3533 206.011 72.66C206.011 71.9467 206.238 71.36 206.691 70.9C207.151 70.4333 207.744 70.2 208.471 70.2C209.144 70.2 209.704 70.4667 210.151 71H210.171V67.44H210.951ZM206.851 72.66C206.851 73.1667 207.004 73.5833 207.311 73.91C207.624 74.2367 208.024 74.4 208.511 74.4C209.004 74.4 209.404 74.2367 209.711 73.91C210.018 73.5767 210.171 73.16 210.171 72.66C210.171 72.1533 210.018 71.7367 209.711 71.41C209.404 71.0833 209.001 70.92 208.501 70.92C208.014 70.92 207.618 71.0867 207.311 71.42C207.004 71.7467 206.851 72.16 206.851 72.66ZM212.454 68.09C212.568 67.9767 212.701 67.92 212.854 67.92C213.008 67.92 213.141 67.9767 213.254 68.09C213.368 68.1967 213.424 68.33 213.424 68.49C213.424 68.6567 213.371 68.7933 213.264 68.9C213.158 69.0067 213.021 69.06 212.854 69.06C212.688 69.06 212.551 69.0067 212.444 68.9C212.338 68.7933 212.284 68.6567 212.284 68.49C212.284 68.33 212.341 68.1967 212.454 68.09ZM213.244 70.32V75H212.464V70.32H213.244ZM217.097 70.2C217.677 70.2 218.117 70.3667 218.417 70.7C218.723 71.0333 218.877 71.49 218.877 72.07V75H218.097V72.16C218.097 71.78 218.007 71.48 217.827 71.26C217.653 71.0333 217.387 70.92 217.027 70.92C216.553 70.92 216.193 71.0767 215.947 71.39C215.7 71.7033 215.577 72.1433 215.577 72.71V75H214.797V71.36C214.797 71.2533 214.79 71.0767 214.777 70.83C214.763 70.5833 214.757 70.4133 214.757 70.32H215.497C215.497 70.4133 215.5 70.54 215.507 70.7C215.513 70.8533 215.517 70.9833 215.517 71.09H215.537C215.663 70.8233 215.867 70.61 216.147 70.45C216.433 70.2833 216.75 70.2 217.097 70.2ZM222.563 70.2C222.923 70.2 223.253 70.2833 223.553 70.45C223.86 70.6167 224.083 70.84 224.223 71.12H224.243V70.32H225.023V74.84C225.023 75.64 224.803 76.2667 224.363 76.72C223.93 77.1733 223.3 77.4 222.473 77.4C221.533 77.4 220.767 77.1033 220.173 76.51L220.733 75.87C221.233 76.41 221.813 76.68 222.473 76.68C223.653 76.68 224.243 76.0533 224.243 74.8V74.19H224.223C224.05 74.4633 223.817 74.6767 223.523 74.83C223.23 74.9833 222.91 75.06 222.563 75.06C221.843 75.06 221.25 74.8333 220.783 74.38C220.317 73.9267 220.083 73.3533 220.083 72.66C220.083 71.9133 220.307 71.3167 220.753 70.87C221.207 70.4233 221.81 70.2 222.563 70.2ZM220.923 72.66C220.923 73.1267 221.083 73.5233 221.403 73.85C221.723 74.1767 222.113 74.34 222.573 74.34C223.073 74.34 223.477 74.18 223.783 73.86C224.09 73.5333 224.243 73.1267 224.243 72.64C224.243 72.1333 224.087 71.72 223.773 71.4C223.467 71.08 223.063 70.92 222.563 70.92C222.09 70.92 221.697 71.0867 221.383 71.42C221.077 71.7467 220.923 72.16 220.923 72.66Z" fill="#777FA1"/>
<path d="M272.63 67.92V68.7H270.29V75H269.45V68.7H267.11V67.92H272.63ZM274.599 70.2C275.326 70.2 275.922 70.43 276.389 70.89C276.862 71.35 277.099 71.94 277.099 72.66C277.099 73.38 276.862 73.97 276.389 74.43C275.922 74.89 275.326 75.12 274.599 75.12C273.872 75.12 273.272 74.89 272.799 74.43C272.332 73.97 272.099 73.38 272.099 72.66C272.099 71.94 272.332 71.35 272.799 70.89C273.266 70.43 273.866 70.2 274.599 70.2ZM272.939 72.66C272.939 73.1667 273.092 73.5833 273.399 73.91C273.712 74.2367 274.112 74.4 274.599 74.4C275.092 74.4 275.492 74.2367 275.799 73.91C276.106 73.5767 276.259 73.16 276.259 72.66C276.259 72.16 276.106 71.7467 275.799 71.42C275.492 71.0867 275.089 70.92 274.589 70.92C274.102 70.92 273.706 71.0867 273.399 71.42C273.092 71.7467 272.939 72.16 272.939 72.66ZM282.976 67.44V75H282.196V74.17H282.176C282.016 74.4633 281.773 74.6967 281.446 74.87C281.12 75.0367 280.763 75.12 280.376 75.12C279.716 75.12 279.16 74.8833 278.706 74.41C278.26 73.9367 278.036 73.3533 278.036 72.66C278.036 71.9467 278.263 71.36 278.716 70.9C279.176 70.4333 279.77 70.2 280.496 70.2C281.17 70.2 281.73 70.4667 282.176 71H282.196V67.44H282.976ZM278.876 72.66C278.876 73.1667 279.03 73.5833 279.336 73.91C279.65 74.2367 280.05 74.4 280.536 74.4C281.03 74.4 281.43 74.2367 281.736 73.91C282.043 73.5767 282.196 73.16 282.196 72.66C282.196 72.1533 282.043 71.7367 281.736 71.41C281.43 71.0833 281.026 70.92 280.526 70.92C280.04 70.92 279.643 71.0867 279.336 71.42C279.03 71.7467 278.876 72.16 278.876 72.66ZM286.22 70.2C286.886 70.2 287.38 70.36 287.7 70.68C288.02 71 288.18 71.4833 288.18 72.13V74.23C288.18 74.4433 288.203 74.7 288.25 75H287.5C287.466 74.9 287.45 74.6667 287.45 74.3H287.43C287.07 74.8467 286.556 75.12 285.89 75.12C285.376 75.12 284.956 74.9933 284.63 74.74C284.31 74.4867 284.15 74.15 284.15 73.73C284.15 73.1767 284.376 72.7667 284.83 72.5C285.283 72.2267 286.02 72.09 287.04 72.09H287.4V71.96C287.4 71.62 287.296 71.3633 287.09 71.19C286.89 71.01 286.606 70.92 286.24 70.92C285.673 70.92 285.21 71.09 284.85 71.43L284.36 70.92C284.84 70.44 285.46 70.2 286.22 70.2ZM284.99 73.65C284.99 74.19 285.333 74.46 286.02 74.46C286.433 74.46 286.766 74.3267 287.02 74.06C287.273 73.7933 287.4 73.4167 287.4 72.93V72.75H286.54C286.066 72.75 285.69 72.8267 285.41 72.98C285.13 73.1333 284.99 73.3567 284.99 73.65ZM289.875 70.32L291.325 73.99H291.345L292.735 70.32H293.585L291.295 76.15C291.109 76.6233 290.899 76.95 290.665 77.13C290.439 77.31 290.139 77.4 289.765 77.4C289.485 77.4 289.252 77.36 289.065 77.28L289.165 76.6C289.285 76.6533 289.469 76.68 289.715 76.68C289.915 76.68 290.082 76.6267 290.215 76.52C290.349 76.4133 290.462 76.2367 290.555 75.99L290.905 75.03L288.965 70.32H289.875Z" fill="#D0D4E4"/>
<rect x="20" y="85" width="282" height="27" rx="8" fill="white"/>
<path d="M28 94.0227C28 93.2956 28.5817 92.6932 29.3295 92.6932H32.6534V95.3523C32.6534 95.7262 32.9442 96.017 33.3182 96.017H35.9773V102C35.9773 102.748 35.3748 103.33 34.6477 103.33H29.3295C28.5817 103.33 28 102.748 28 102V94.0227ZM35.9773 95.3523H33.3182V92.6932L35.9773 95.3523Z" fill="#D0D4E4"/>
<path d="M47.528 93.788C48.112 93.788 48.6 93.872 48.992 94.04C49.392 94.2 49.72 94.44 49.976 94.76L49.04 95.612C48.896 95.388 48.688 95.208 48.416 95.072C48.152 94.936 47.852 94.868 47.516 94.868C47.116 94.868 46.792 94.94 46.544 95.084C46.296 95.22 46.12 95.388 46.016 95.588C45.92 95.788 45.872 95.984 45.872 96.176C45.872 96.52 45.98 96.8 46.196 97.016C46.412 97.224 46.728 97.392 47.144 97.52L48.212 97.868C48.828 98.068 49.288 98.344 49.592 98.696C49.904 99.04 50.06 99.504 50.06 100.088C50.06 100.6 49.932 101.056 49.676 101.456C49.428 101.856 49.08 102.168 48.632 102.392C48.184 102.608 47.676 102.716 47.108 102.716C46.516 102.716 45.984 102.616 45.512 102.416C45.048 102.208 44.676 101.916 44.396 101.54L45.344 100.724C45.528 101.012 45.78 101.236 46.1 101.396C46.42 101.556 46.768 101.636 47.144 101.636C47.432 101.636 47.704 101.58 47.96 101.468C48.224 101.348 48.436 101.18 48.596 100.964C48.756 100.748 48.836 100.5 48.836 100.22C48.836 99.916 48.732 99.668 48.524 99.476C48.316 99.276 47.96 99.096 47.456 98.936L46.7 98.684C46.276 98.548 45.912 98.38 45.608 98.18C45.312 97.98 45.076 97.72 44.9 97.4C44.732 97.072 44.648 96.664 44.648 96.176C44.648 95.784 44.756 95.404 44.972 95.036C45.196 94.668 45.524 94.368 45.956 94.136C46.396 93.904 46.92 93.788 47.528 93.788ZM52.564 97.688H52.588C52.74 97.376 52.984 97.128 53.32 96.944C53.664 96.76 54.044 96.668 54.46 96.668C54.876 96.668 55.24 96.756 55.552 96.932C55.864 97.1 56.104 97.344 56.272 97.664C56.44 97.984 56.524 98.36 56.524 98.792V102.5H55.444V99.104C55.444 98.664 55.328 98.316 55.096 98.06C54.872 97.804 54.556 97.676 54.148 97.676C53.652 97.676 53.264 97.84 52.984 98.168C52.704 98.496 52.564 98.948 52.564 99.524V102.5H51.484V93.428H52.564V97.688ZM60.4319 96.668C60.9759 96.668 61.4239 96.76 61.7759 96.944C62.1359 97.12 62.3959 97.348 62.5559 97.628C62.7239 97.908 62.8079 98.208 62.8079 98.528V101.576C62.8079 101.688 62.8119 101.828 62.8199 101.996C62.8279 102.164 62.8399 102.332 62.8559 102.5H61.8959C61.8719 102.212 61.8599 101.924 61.8599 101.636H61.8359C61.5959 101.996 61.3119 102.256 60.9839 102.416C60.6639 102.568 60.2839 102.644 59.8439 102.644C59.4679 102.644 59.1279 102.576 58.8239 102.44C58.5279 102.296 58.2959 102.096 58.1279 101.84C57.9599 101.584 57.8759 101.284 57.8759 100.94C57.8759 100.332 58.1279 99.852 58.6319 99.5C59.1439 99.148 59.9319 98.972 60.9959 98.972H61.7999V98.768C61.7999 98.52 61.7399 98.304 61.6199 98.12C61.5079 97.928 61.3479 97.784 61.1399 97.688C60.9319 97.584 60.6959 97.532 60.4319 97.532C60.1279 97.532 59.8599 97.58 59.6279 97.676C59.4039 97.764 59.1359 97.932 58.8239 98.18L58.1759 97.508C58.4719 97.236 58.8159 97.028 59.2079 96.884C59.6079 96.74 60.0159 96.668 60.4319 96.668ZM58.9559 100.856C58.9559 101.152 59.0559 101.38 59.2559 101.54C59.4639 101.7 59.7719 101.78 60.1799 101.78C60.6759 101.78 61.0679 101.632 61.3559 101.336C61.6519 101.04 61.7999 100.62 61.7999 100.076V99.764H61.1879C60.3799 99.764 59.8039 99.868 59.4599 100.076C59.1239 100.276 58.9559 100.536 58.9559 100.856ZM65.4546 97.628H65.4786C65.6706 97.332 65.9466 97.1 66.3066 96.932C66.6746 96.756 67.0586 96.668 67.4586 96.668C68.0186 96.668 68.5146 96.796 68.9466 97.052C69.3866 97.3 69.7306 97.652 69.9786 98.108C70.2266 98.556 70.3506 99.072 70.3506 99.656C70.3506 100.216 70.2306 100.724 69.9906 101.18C69.7506 101.636 69.4106 101.996 68.9706 102.26C68.5386 102.516 68.0386 102.644 67.4706 102.644C67.0706 102.644 66.6906 102.56 66.3306 102.392C65.9706 102.224 65.6866 101.988 65.4786 101.684H65.4546V102.5H64.3746V93.428H65.4546V97.628ZM65.4546 99.656C65.4546 100.048 65.5306 100.392 65.6826 100.688C65.8426 100.984 66.0626 101.216 66.3426 101.384C66.6306 101.552 66.9586 101.636 67.3266 101.636C67.6946 101.636 68.0186 101.552 68.2986 101.384C68.5866 101.216 68.8066 100.984 68.9586 100.688C69.1186 100.384 69.1986 100.04 69.1986 99.656C69.1986 99.264 69.1186 98.92 68.9586 98.624C68.7986 98.32 68.5746 98.088 68.2866 97.928C68.0066 97.76 67.6826 97.676 67.3146 97.676C66.9546 97.676 66.6306 97.76 66.3426 97.928C66.0626 98.088 65.8426 98.32 65.6826 98.624C65.5306 98.92 65.4546 99.264 65.4546 99.656ZM74.3145 96.668C74.8745 96.668 75.3625 96.788 75.7785 97.028C76.1945 97.268 76.5145 97.62 76.7385 98.084C76.9705 98.548 77.0865 99.104 77.0865 99.752V100.052H72.5265C72.5265 100.372 72.6145 100.66 72.7905 100.916C72.9745 101.164 73.2105 101.36 73.4985 101.504C73.7945 101.64 74.1105 101.708 74.4465 101.708C74.7585 101.708 75.0385 101.636 75.2865 101.492C75.5425 101.34 75.7825 101.128 76.0065 100.856L76.8225 101.48C76.5185 101.872 76.1585 102.164 75.7425 102.356C75.3265 102.548 74.8465 102.644 74.3025 102.644C73.7425 102.644 73.2385 102.52 72.7905 102.272C72.3505 102.024 72.0025 101.676 71.7465 101.228C71.4985 100.772 71.3745 100.248 71.3745 99.656C71.3745 99.104 71.4985 98.6 71.7465 98.144C72.0025 97.688 72.3505 97.328 72.7905 97.064C73.2385 96.8 73.7465 96.668 74.3145 96.668ZM75.9345 99.188C75.9185 98.66 75.7665 98.252 75.4785 97.964C75.1905 97.676 74.7945 97.532 74.2905 97.532C73.9305 97.532 73.6145 97.62 73.3425 97.796C73.0785 97.964 72.8745 98.18 72.7305 98.444C72.5945 98.7 72.5265 98.948 72.5265 99.188H75.9345ZM80.9825 96.668C81.5425 96.668 82.0305 96.788 82.4465 97.028C82.8625 97.268 83.1825 97.62 83.4065 98.084C83.6385 98.548 83.7545 99.104 83.7545 99.752V100.052H79.1945C79.1945 100.372 79.2825 100.66 79.4585 100.916C79.6425 101.164 79.8785 101.36 80.1665 101.504C80.4625 101.64 80.7785 101.708 81.1145 101.708C81.4265 101.708 81.7065 101.636 81.9545 101.492C82.2105 101.34 82.4505 101.128 82.6745 100.856L83.4905 101.48C83.1865 101.872 82.8265 102.164 82.4105 102.356C81.9945 102.548 81.5145 102.644 80.9705 102.644C80.4105 102.644 79.9065 102.52 79.4585 102.272C79.0185 102.024 78.6705 101.676 78.4145 101.228C78.1665 100.772 78.0425 100.248 78.0425 99.656C78.0425 99.104 78.1665 98.6 78.4145 98.144C78.6705 97.688 79.0185 97.328 79.4585 97.064C79.9065 96.8 80.4145 96.668 80.9825 96.668ZM82.6025 99.188C82.5865 98.66 82.4345 98.252 82.1465 97.964C81.8585 97.676 81.4625 97.532 80.9585 97.532C80.5985 97.532 80.2825 97.62 80.0105 97.796C79.7465 97.964 79.5425 98.18 79.3985 98.444C79.2625 98.7 79.1945 98.948 79.1945 99.188H82.6025ZM86.1265 97.628H86.1505C86.3425 97.332 86.6185 97.1 86.9785 96.932C87.3465 96.756 87.7305 96.668 88.1305 96.668C88.6905 96.668 89.1865 96.796 89.6185 97.052C90.0585 97.3 90.4025 97.652 90.6505 98.108C90.8985 98.556 91.0225 99.072 91.0225 99.656C91.0225 100.216 90.9025 100.724 90.6625 101.18C90.4225 101.636 90.0825 101.996 89.6425 102.26C89.2105 102.516 88.7105 102.644 88.1425 102.644C87.7425 102.644 87.3625 102.56 87.0025 102.392C86.6425 102.224 86.3585 101.988 86.1505 101.684H86.1265V102.5H85.0465V93.428H86.1265V97.628ZM86.1265 99.656C86.1265 100.048 86.2025 100.392 86.3545 100.688C86.5145 100.984 86.7345 101.216 87.0145 101.384C87.3025 101.552 87.6305 101.636 87.9985 101.636C88.3665 101.636 88.6905 101.552 88.9705 101.384C89.2585 101.216 89.4785 100.984 89.6305 100.688C89.7905 100.384 89.8705 100.04 89.8705 99.656C89.8705 99.264 89.7905 98.92 89.6305 98.624C89.4705 98.32 89.2465 98.088 88.9585 97.928C88.6785 97.76 88.3545 97.676 87.9865 97.676C87.6265 97.676 87.3025 97.76 87.0145 97.928C86.7345 98.088 86.5145 98.32 86.3545 98.624C86.2025 98.92 86.1265 99.264 86.1265 99.656ZM97.1503 101.42H101.05V102.5H95.9983V94.004H97.1503V101.42ZM104.549 96.668C105.109 96.668 105.597 96.788 106.013 97.028C106.429 97.268 106.749 97.62 106.973 98.084C107.205 98.548 107.321 99.104 107.321 99.752V100.052H102.761C102.761 100.372 102.849 100.66 103.025 100.916C103.209 101.164 103.445 101.36 103.733 101.504C104.029 101.64 104.345 101.708 104.681 101.708C104.993 101.708 105.273 101.636 105.521 101.492C105.777 101.34 106.017 101.128 106.241 100.856L107.057 101.48C106.753 101.872 106.393 102.164 105.977 102.356C105.561 102.548 105.081 102.644 104.537 102.644C103.977 102.644 103.473 102.52 103.025 102.272C102.585 102.024 102.237 101.676 101.981 101.228C101.733 100.772 101.609 100.248 101.609 99.656C101.609 99.104 101.733 98.6 101.981 98.144C102.237 97.688 102.585 97.328 103.025 97.064C103.473 96.8 103.981 96.668 104.549 96.668ZM106.169 99.188C106.153 98.66 106.001 98.252 105.713 97.964C105.425 97.676 105.029 97.532 104.525 97.532C104.165 97.532 103.849 97.62 103.577 97.796C103.313 97.964 103.109 98.18 102.965 98.444C102.829 98.7 102.761 98.948 102.761 99.188H106.169ZM110.893 96.668C111.437 96.668 111.885 96.76 112.237 96.944C112.597 97.12 112.857 97.348 113.017 97.628C113.185 97.908 113.269 98.208 113.269 98.528V101.576C113.269 101.688 113.273 101.828 113.281 101.996C113.289 102.164 113.301 102.332 113.317 102.5H112.357C112.333 102.212 112.321 101.924 112.321 101.636H112.297C112.057 101.996 111.773 102.256 111.445 102.416C111.125 102.568 110.745 102.644 110.305 102.644C109.929 102.644 109.589 102.576 109.285 102.44C108.989 102.296 108.757 102.096 108.589 101.84C108.421 101.584 108.337 101.284 108.337 100.94C108.337 100.332 108.589 99.852 109.093 99.5C109.605 99.148 110.393 98.972 111.457 98.972H112.261V98.768C112.261 98.52 112.201 98.304 112.081 98.12C111.969 97.928 111.809 97.784 111.601 97.688C111.393 97.584 111.157 97.532 110.893 97.532C110.589 97.532 110.321 97.58 110.089 97.676C109.865 97.764 109.597 97.932 109.285 98.18L108.637 97.508C108.933 97.236 109.277 97.028 109.669 96.884C110.069 96.74 110.477 96.668 110.893 96.668ZM109.417 100.856C109.417 101.152 109.517 101.38 109.717 101.54C109.925 101.7 110.233 101.78 110.641 101.78C111.137 101.78 111.529 101.632 111.817 101.336C112.113 101.04 112.261 100.62 112.261 100.076V99.764H111.649C110.841 99.764 110.265 99.868 109.921 100.076C109.585 100.276 109.417 100.536 109.417 100.856ZM117.104 101.168L118.736 96.812H119.888L117.656 102.5H116.468L114.152 96.812H115.4L117.104 101.168ZM123.44 96.668C124 96.668 124.488 96.788 124.904 97.028C125.32 97.268 125.64 97.62 125.864 98.084C126.096 98.548 126.212 99.104 126.212 99.752V100.052H121.652C121.652 100.372 121.74 100.66 121.916 100.916C122.1 101.164 122.336 101.36 122.624 101.504C122.92 101.64 123.236 101.708 123.572 101.708C123.884 101.708 124.164 101.636 124.412 101.492C124.668 101.34 124.908 101.128 125.132 100.856L125.948 101.48C125.644 101.872 125.284 102.164 124.868 102.356C124.452 102.548 123.972 102.644 123.428 102.644C122.868 102.644 122.364 102.52 121.916 102.272C121.476 102.024 121.128 101.676 120.872 101.228C120.624 100.772 120.5 100.248 120.5 99.656C120.5 99.104 120.624 98.6 120.872 98.144C121.128 97.688 121.476 97.328 121.916 97.064C122.364 96.8 122.872 96.668 123.44 96.668ZM125.06 99.188C125.044 98.66 124.892 98.252 124.604 97.964C124.316 97.676 123.92 97.532 123.416 97.532C123.056 97.532 122.74 97.62 122.468 97.796C122.204 97.964 122 98.18 121.856 98.444C121.72 98.7 121.652 98.948 121.652 99.188H125.06ZM133.651 96.668C133.851 96.668 134.011 96.692 134.131 96.74L134.083 97.904C133.875 97.848 133.695 97.82 133.543 97.82C133.015 97.82 132.611 97.972 132.331 98.276C132.059 98.58 131.923 99.02 131.923 99.596V102.5H130.843V96.812H131.923V97.688H131.947C132.091 97.384 132.319 97.14 132.631 96.956C132.951 96.764 133.291 96.668 133.651 96.668ZM137.678 96.668C138.238 96.668 138.726 96.788 139.142 97.028C139.558 97.268 139.878 97.62 140.102 98.084C140.334 98.548 140.45 99.104 140.45 99.752V100.052H135.89C135.89 100.372 135.978 100.66 136.154 100.916C136.338 101.164 136.574 101.36 136.862 101.504C137.158 101.64 137.474 101.708 137.81 101.708C138.122 101.708 138.402 101.636 138.65 101.492C138.906 101.34 139.146 101.128 139.37 100.856L140.186 101.48C139.882 101.872 139.522 102.164 139.106 102.356C138.69 102.548 138.21 102.644 137.666 102.644C137.106 102.644 136.602 102.52 136.154 102.272C135.714 102.024 135.366 101.676 135.11 101.228C134.862 100.772 134.738 100.248 134.738 99.656C134.738 99.104 134.862 98.6 135.11 98.144C135.366 97.688 135.714 97.328 136.154 97.064C136.602 96.8 137.11 96.668 137.678 96.668ZM139.298 99.188C139.282 98.66 139.13 98.252 138.842 97.964C138.554 97.676 138.158 97.532 137.654 97.532C137.294 97.532 136.978 97.62 136.706 97.796C136.442 97.964 136.238 98.18 136.094 98.444C135.958 98.7 135.89 98.948 135.89 99.188H139.298ZM144.358 96.668C144.766 96.668 145.146 96.756 145.498 96.932C145.858 97.1 146.138 97.332 146.338 97.628H146.362V96.812H147.442V105.236H146.362V101.684H146.338C146.138 101.98 145.858 102.216 145.498 102.392C145.146 102.56 144.766 102.644 144.358 102.644C143.798 102.644 143.298 102.52 142.858 102.272C142.418 102.016 142.074 101.66 141.826 101.204C141.586 100.748 141.466 100.232 141.466 99.656C141.466 99.096 141.586 98.588 141.826 98.132C142.066 97.676 142.406 97.32 142.846 97.064C143.286 96.8 143.79 96.668 144.358 96.668ZM142.618 99.656C142.618 100.048 142.694 100.396 142.846 100.7C143.006 100.996 143.226 101.228 143.506 101.396C143.794 101.556 144.122 101.636 144.49 101.636C144.866 101.636 145.194 101.552 145.474 101.384C145.762 101.216 145.982 100.984 146.134 100.688C146.286 100.384 146.362 100.04 146.362 99.656C146.362 99.296 146.29 98.968 146.146 98.672C146.002 98.368 145.786 98.128 145.498 97.952C145.218 97.768 144.878 97.676 144.478 97.676C144.11 97.676 143.786 97.76 143.506 97.928C143.226 98.088 143.006 98.32 142.846 98.624C142.694 98.92 142.618 99.264 142.618 99.656ZM150.158 100.22C150.158 100.66 150.274 101.008 150.506 101.264C150.738 101.512 151.054 101.636 151.454 101.636C151.95 101.636 152.338 101.472 152.618 101.144C152.898 100.808 153.038 100.356 153.038 99.788V96.812H154.118V102.5H153.038V101.624H153.014C152.862 101.936 152.618 102.184 152.282 102.368C151.946 102.552 151.566 102.644 151.142 102.644C150.726 102.644 150.362 102.556 150.05 102.38C149.738 102.204 149.498 101.956 149.33 101.636C149.162 101.316 149.078 100.944 149.078 100.52V96.812H150.158V100.22ZM158.35 96.668C158.91 96.668 159.398 96.788 159.814 97.028C160.23 97.268 160.55 97.62 160.774 98.084C161.006 98.548 161.122 99.104 161.122 99.752V100.052H156.562C156.562 100.372 156.65 100.66 156.826 100.916C157.01 101.164 157.246 101.36 157.534 101.504C157.83 101.64 158.146 101.708 158.482 101.708C158.794 101.708 159.074 101.636 159.322 101.492C159.578 101.34 159.818 101.128 160.042 100.856L160.858 101.48C160.554 101.872 160.194 102.164 159.778 102.356C159.362 102.548 158.882 102.644 158.338 102.644C157.778 102.644 157.274 102.52 156.826 102.272C156.386 102.024 156.038 101.676 155.782 101.228C155.534 100.772 155.41 100.248 155.41 99.656C155.41 99.104 155.534 98.6 155.782 98.144C156.038 97.688 156.386 97.328 156.826 97.064C157.274 96.8 157.782 96.668 158.35 96.668ZM159.97 99.188C159.954 98.66 159.802 98.252 159.514 97.964C159.226 97.676 158.83 97.532 158.326 97.532C157.966 97.532 157.65 97.62 157.378 97.796C157.114 97.964 156.91 98.18 156.766 98.444C156.63 98.7 156.562 98.948 156.562 99.188H159.97ZM164.334 96.668C164.766 96.668 165.154 96.752 165.498 96.92C165.842 97.08 166.102 97.308 166.278 97.604L165.438 98.24C165.118 97.864 164.73 97.676 164.274 97.676C164.002 97.676 163.774 97.736 163.59 97.856C163.414 97.976 163.326 98.128 163.326 98.312C163.326 98.536 163.422 98.712 163.614 98.84C163.806 98.96 164.082 99.056 164.442 99.128C164.914 99.216 165.294 99.332 165.582 99.476C165.87 99.612 166.082 99.792 166.218 100.016C166.362 100.232 166.434 100.512 166.434 100.856C166.434 101.256 166.326 101.592 166.11 101.864C165.902 102.128 165.622 102.324 165.27 102.452C164.918 102.58 164.534 102.644 164.118 102.644C163.606 102.644 163.174 102.564 162.822 102.404C162.478 102.236 162.182 101.98 161.934 101.636L162.75 100.964C162.99 101.204 163.218 101.376 163.434 101.48C163.658 101.584 163.89 101.636 164.13 101.636C164.45 101.636 164.722 101.572 164.946 101.444C165.17 101.316 165.282 101.14 165.282 100.916C165.282 100.708 165.19 100.54 165.006 100.412C164.83 100.284 164.562 100.18 164.202 100.1C163.73 100.004 163.346 99.892 163.05 99.764C162.762 99.628 162.542 99.456 162.39 99.248C162.246 99.032 162.174 98.756 162.174 98.42C162.174 98.044 162.274 97.724 162.474 97.46C162.682 97.196 162.95 97 163.278 96.872C163.606 96.736 163.958 96.668 164.334 96.668ZM169.246 96.812H170.794V97.748H169.246V100.484C169.246 100.748 169.266 100.964 169.306 101.132C169.354 101.292 169.438 101.416 169.558 101.504C169.678 101.592 169.846 101.636 170.062 101.636C170.39 101.636 170.646 101.58 170.83 101.468V102.452C170.734 102.508 170.586 102.552 170.386 102.584C170.194 102.624 170.014 102.644 169.846 102.644C169.334 102.644 168.954 102.552 168.706 102.368C168.458 102.176 168.306 101.956 168.25 101.708C168.194 101.46 168.166 101.152 168.166 100.784V97.748H166.918V96.812H168.166V95.216H169.246V96.812Z" fill="black"/>
<path d="M241.6 94.92V102H240.76V96H240.74L239.47 97.07L238.97 96.46L240.87 94.92H241.6ZM244.557 95.77C244.97 95.1233 245.563 94.8 246.337 94.8C247.11 94.8 247.703 95.1233 248.117 95.77C248.53 96.41 248.737 97.3067 248.737 98.46C248.737 99.62 248.53 100.52 248.117 101.16C247.71 101.8 247.117 102.12 246.337 102.12C245.563 102.12 244.97 101.8 244.557 101.16C244.143 100.513 243.937 99.6133 243.937 98.46C243.937 97.3067 244.143 96.41 244.557 95.77ZM244.777 98.46C244.777 99.4133 244.91 100.143 245.177 100.65C245.443 101.15 245.83 101.4 246.337 101.4C246.843 101.4 247.23 101.15 247.497 100.65C247.763 100.15 247.897 99.42 247.897 98.46C247.897 97.5 247.763 96.77 247.497 96.27C247.23 95.77 246.84 95.52 246.327 95.52C245.833 95.52 245.45 95.77 245.177 96.27C244.91 96.7633 244.777 97.4933 244.777 98.46ZM255.286 94.92C256.293 94.92 257.136 95.24 257.816 95.88C258.496 96.52 258.836 97.38 258.836 98.46C258.836 99.5533 258.493 100.417 257.806 101.05C257.12 101.683 256.286 102 255.306 102H252.646V94.92H255.286ZM255.086 101.22C255.98 101.22 256.676 100.983 257.176 100.51C257.683 100.03 257.936 99.3467 257.936 98.46C257.936 97.5733 257.683 96.8933 257.176 96.42C256.676 95.94 255.98 95.7 255.086 95.7H253.486V101.22H255.086ZM261.849 97.2C262.515 97.2 263.009 97.36 263.329 97.68C263.649 98 263.809 98.4833 263.809 99.13V101.23C263.809 101.443 263.832 101.7 263.879 102H263.129C263.095 101.9 263.079 101.667 263.079 101.3H263.059C262.699 101.847 262.185 102.12 261.519 102.12C261.005 102.12 260.585 101.993 260.259 101.74C259.939 101.487 259.779 101.15 259.779 100.73C259.779 100.177 260.005 99.7667 260.459 99.5C260.912 99.2267 261.649 99.09 262.669 99.09H263.029V98.96C263.029 98.62 262.925 98.3633 262.719 98.19C262.519 98.01 262.235 97.92 261.869 97.92C261.302 97.92 260.839 98.09 260.479 98.43L259.989 97.92C260.469 97.44 261.089 97.2 261.849 97.2ZM260.619 100.65C260.619 101.19 260.962 101.46 261.649 101.46C262.062 101.46 262.395 101.327 262.649 101.06C262.902 100.793 263.029 100.417 263.029 99.93V99.75H262.169C261.695 99.75 261.319 99.8267 261.039 99.98C260.759 100.133 260.619 100.357 260.619 100.65ZM265.504 97.32L266.954 100.99H266.974L268.364 97.32H269.214L266.924 103.15C266.737 103.623 266.527 103.95 266.294 104.13C266.067 104.31 265.767 104.4 265.394 104.4C265.114 104.4 264.881 104.36 264.694 104.28L264.794 103.6C264.914 103.653 265.097 103.68 265.344 103.68C265.544 103.68 265.711 103.627 265.844 103.52C265.977 103.413 266.091 103.237 266.184 102.99L266.534 102.03L264.594 97.32H265.504ZM271.488 97.2C272.248 97.2 272.778 97.4833 273.078 98.05L272.428 98.48C272.202 98.1067 271.872 97.92 271.438 97.92C271.172 97.92 270.952 97.98 270.778 98.1C270.605 98.22 270.518 98.3767 270.518 98.57C270.518 98.8767 270.908 99.1033 271.688 99.25C272.242 99.3567 272.635 99.52 272.868 99.74C273.108 99.96 273.228 100.263 273.228 100.65C273.228 101.103 273.058 101.463 272.718 101.73C272.378 101.99 271.925 102.12 271.358 102.12C270.538 102.12 269.932 101.83 269.538 101.25L270.158 100.77C270.505 101.19 270.905 101.4 271.358 101.4C271.658 101.4 271.905 101.337 272.098 101.21C272.292 101.077 272.388 100.9 272.388 100.68C272.388 100.467 272.298 100.307 272.118 100.2C271.938 100.087 271.588 99.9733 271.068 99.86C270.602 99.76 270.262 99.61 270.048 99.41C269.842 99.2033 269.738 98.9267 269.738 98.58C269.738 98.1667 269.905 97.8333 270.238 97.58C270.578 97.3267 270.995 97.2 271.488 97.2ZM278.899 97.2C279.566 97.2 280.059 97.36 280.379 97.68C280.699 98 280.859 98.4833 280.859 99.13V101.23C280.859 101.443 280.883 101.7 280.929 102H280.179C280.146 101.9 280.129 101.667 280.129 101.3H280.109C279.749 101.847 279.236 102.12 278.569 102.12C278.056 102.12 277.636 101.993 277.309 101.74C276.989 101.487 276.829 101.15 276.829 100.73C276.829 100.177 277.056 99.7667 277.509 99.5C277.963 99.2267 278.699 99.09 279.719 99.09H280.079V98.96C280.079 98.62 279.976 98.3633 279.769 98.19C279.569 98.01 279.286 97.92 278.919 97.92C278.353 97.92 277.889 98.09 277.529 98.43L277.039 97.92C277.519 97.44 278.139 97.2 278.899 97.2ZM277.669 100.65C277.669 101.19 278.013 101.46 278.699 101.46C279.113 101.46 279.446 101.327 279.699 101.06C279.953 100.793 280.079 100.417 280.079 99.93V99.75H279.219C278.746 99.75 278.369 99.8267 278.089 99.98C277.809 100.133 277.669 100.357 277.669 100.65ZM284.495 97.2C284.855 97.2 285.185 97.2833 285.485 97.45C285.792 97.6167 286.015 97.84 286.155 98.12H286.175V97.32H286.955V101.84C286.955 102.64 286.735 103.267 286.295 103.72C285.862 104.173 285.232 104.4 284.405 104.4C283.465 104.4 282.698 104.103 282.105 103.51L282.665 102.87C283.165 103.41 283.745 103.68 284.405 103.68C285.585 103.68 286.175 103.053 286.175 101.8V101.19H286.155C285.982 101.463 285.748 101.677 285.455 101.83C285.162 101.983 284.842 102.06 284.495 102.06C283.775 102.06 283.182 101.833 282.715 101.38C282.248 100.927 282.015 100.353 282.015 99.66C282.015 98.9133 282.238 98.3167 282.685 97.87C283.138 97.4233 283.742 97.2 284.495 97.2ZM282.855 99.66C282.855 100.127 283.015 100.523 283.335 100.85C283.655 101.177 284.045 101.34 284.505 101.34C285.005 101.34 285.408 101.18 285.715 100.86C286.022 100.533 286.175 100.127 286.175 99.64C286.175 99.1333 286.018 98.72 285.705 98.4C285.398 98.08 284.995 97.92 284.495 97.92C284.022 97.92 283.628 98.0867 283.315 98.42C283.008 98.7467 282.855 99.16 282.855 99.66ZM290.628 97.2C291.355 97.2 291.952 97.43 292.418 97.89C292.892 98.35 293.128 98.94 293.128 99.66C293.128 100.38 292.892 100.97 292.418 101.43C291.952 101.89 291.355 102.12 290.628 102.12C289.902 102.12 289.302 101.89 288.828 101.43C288.362 100.97 288.128 100.38 288.128 99.66C288.128 98.94 288.362 98.35 288.828 97.89C289.295 97.43 289.895 97.2 290.628 97.2ZM288.968 99.66C288.968 100.167 289.122 100.583 289.428 100.91C289.742 101.237 290.142 101.4 290.628 101.4C291.122 101.4 291.522 101.237 291.828 100.91C292.135 100.577 292.288 100.16 292.288 99.66C292.288 99.16 292.135 98.7467 291.828 98.42C291.522 98.0867 291.118 97.92 290.618 97.92C290.132 97.92 289.735 98.0867 289.428 98.42C289.122 98.7467 288.968 99.16 288.968 99.66Z" fill="#D0D4E4"/>
</svg>
