<svg width="322" height="253" viewBox="0 0 322 253" fill="none" xmlns="http://www.w3.org/2000/svg">
<rect width="322" height="253" rx="20" fill="white"/>
<path d="M27.938 29.684H24.9V38H23.136V29.684H20.098V28.088H27.938V29.684ZM30.7505 31.112C31.4318 31.112 32.0478 31.2613 32.5985 31.56C33.1585 31.8587 33.5971 32.2787 33.9145 32.82C34.2411 33.352 34.4045 33.9587 34.4045 34.64C34.4045 35.3213 34.2411 35.9327 33.9145 36.474C33.5971 37.006 33.1585 37.4213 32.5985 37.72C32.0478 38.0187 31.4318 38.168 30.7505 38.168C30.0691 38.168 29.4485 38.0187 28.8885 37.72C28.3378 37.4213 27.8991 37.006 27.5725 36.474C27.2551 35.9327 27.0965 35.3213 27.0965 34.64C27.0965 33.9587 27.2551 33.352 27.5725 32.82C27.8991 32.2787 28.3378 31.8587 28.8885 31.56C29.4485 31.2613 30.0691 31.112 30.7505 31.112ZM28.7765 34.64C28.7765 35.0227 28.8605 35.368 29.0285 35.676C29.2058 35.984 29.4438 36.2267 29.7425 36.404C30.0411 36.572 30.3771 36.656 30.7505 36.656C31.1331 36.656 31.4738 36.5673 31.7725 36.39C32.0711 36.2127 32.3045 35.97 32.4725 35.662C32.6405 35.354 32.7245 35.0133 32.7245 34.64C32.7245 34.2573 32.6358 33.912 32.4585 33.604C32.2905 33.296 32.0525 33.058 31.7445 32.89C31.4458 32.7127 31.1098 32.624 30.7365 32.624C30.3725 32.624 30.0411 32.7127 29.7425 32.89C29.4438 33.0673 29.2058 33.31 29.0285 33.618C28.8605 33.926 28.7765 34.2667 28.7765 34.64ZM47.036 27.416V38H45.44V36.992H45.412C45.1693 37.384 44.8426 37.678 44.432 37.874C44.0306 38.07 43.5826 38.168 43.088 38.168C42.4253 38.168 41.842 38.0187 41.338 37.72C40.8433 37.412 40.4606 36.992 40.19 36.46C39.9193 35.9187 39.784 35.312 39.784 34.64C39.784 34.0053 39.9146 33.4173 40.176 32.876C40.4466 32.3347 40.8293 31.9053 41.324 31.588C41.8186 31.2707 42.388 31.112 43.032 31.112C43.4986 31.112 43.9233 31.196 44.306 31.364C44.698 31.532 45.034 31.7887 45.314 32.134H45.356V27.416H47.036ZM41.464 34.64C41.464 35.0133 41.548 35.354 41.716 35.662C41.884 35.97 42.1173 36.2127 42.416 36.39C42.7146 36.5673 43.0553 36.656 43.438 36.656C43.858 36.656 44.2173 36.558 44.516 36.362C44.8146 36.1567 45.0386 35.9 45.188 35.592C45.3373 35.284 45.412 34.9667 45.412 34.64C45.412 34.248 45.3233 33.898 45.146 33.59C44.9686 33.282 44.726 33.044 44.418 32.876C44.1193 32.708 43.7926 32.624 43.438 32.624C43.0553 32.624 42.7146 32.7173 42.416 32.904C42.1173 33.0813 41.884 33.324 41.716 33.632C41.548 33.94 41.464 34.276 41.464 34.64ZM52.2563 31.112C52.9377 31.112 53.5537 31.2613 54.1043 31.56C54.6643 31.8587 55.103 32.2787 55.4203 32.82C55.747 33.352 55.9103 33.9587 55.9103 34.64C55.9103 35.3213 55.747 35.9327 55.4203 36.474C55.103 37.006 54.6643 37.4213 54.1043 37.72C53.5537 38.0187 52.9377 38.168 52.2563 38.168C51.575 38.168 50.9543 38.0187 50.3943 37.72C49.8437 37.4213 49.405 37.006 49.0783 36.474C48.761 35.9327 48.6023 35.3213 48.6023 34.64C48.6023 33.9587 48.761 33.352 49.0783 32.82C49.405 32.2787 49.8437 31.8587 50.3943 31.56C50.9543 31.2613 51.575 31.112 52.2563 31.112ZM50.2823 34.64C50.2823 35.0227 50.3663 35.368 50.5343 35.676C50.7117 35.984 50.9497 36.2267 51.2483 36.404C51.547 36.572 51.883 36.656 52.2563 36.656C52.639 36.656 52.9797 36.5673 53.2783 36.39C53.577 36.2127 53.8103 35.97 53.9783 35.662C54.1463 35.354 54.2303 35.0133 54.2303 34.64C54.2303 34.2573 54.1417 33.912 53.9643 33.604C53.7963 33.296 53.5583 33.058 53.2503 32.89C52.9517 32.7127 52.6157 32.624 52.2423 32.624C51.8783 32.624 51.547 32.7127 51.2483 32.89C50.9497 33.0673 50.7117 33.31 50.5343 33.618C50.3663 33.926 50.2823 34.2667 50.2823 34.64Z" fill="black"/>
<path d="M276 27.0909C276 23.1747 279.175 20 283.091 20H294.909C298.825 20 302 23.1747 302 27.0909V38.9091C302 42.8253 298.825 46 294.909 46H283.091C279.175 46 276 42.8253 276 38.9091V27.0909Z" fill="#7ACE38"/>
<path d="M293.41 30.1523C293.689 30.4102 293.689 30.8613 293.41 31.1191L287.91 36.6191C287.652 36.8984 287.201 36.8984 286.943 36.6191L284.193 33.8691C283.914 33.6113 283.914 33.1602 284.193 32.9023C284.451 32.623 284.902 32.623 285.16 32.9023L287.438 35.1582L292.443 30.1523C292.701 29.873 293.152 29.873 293.41 30.1523Z" fill="white"/>
<rect width="282" height="30" transform="translate(20 58)" fill="white"/>
<path d="M32.6875 72.75C32.6875 70.7266 31.5938 68.8672 29.8438 67.8281C28.0664 66.8164 25.9062 66.8164 24.1562 67.8281C22.3789 68.8672 21.3125 70.7266 21.3125 72.75C21.3125 74.8008 22.3789 76.6602 24.1562 77.6992C25.9062 78.7109 28.0664 78.7109 29.8438 77.6992C31.5938 76.6602 32.6875 74.8008 32.6875 72.75ZM20 72.75C20 70.2617 21.3125 67.9648 23.5 66.707C25.6602 65.4492 28.3125 65.4492 30.5 66.707C32.6602 67.9648 34 70.2617 34 72.75C34 75.2656 32.6602 77.5625 30.5 78.8203C28.3125 80.0781 25.6602 80.0781 23.5 78.8203C21.3125 77.5625 20 75.2656 20 72.75Z" fill="#D0D4E4"/>
<path d="M46.884 68.288C47.524 68.288 48.104 68.408 48.624 68.648C49.152 68.88 49.572 69.204 49.884 69.62L49.008 70.256C48.488 69.568 47.78 69.224 46.884 69.224C45.964 69.224 45.192 69.572 44.568 70.268C43.952 70.964 43.644 71.792 43.644 72.752C43.644 73.744 43.948 74.58 44.556 75.26C45.164 75.94 45.94 76.28 46.884 76.28C47.9 76.28 48.72 75.884 49.344 75.092L50.1 75.728C49.356 76.72 48.284 77.216 46.884 77.216C45.636 77.216 44.604 76.788 43.788 75.932C42.972 75.076 42.564 74.016 42.564 72.752C42.564 71.488 42.972 70.428 43.788 69.572C44.604 68.716 45.636 68.288 46.884 68.288ZM52.2732 67.928V72.164H52.2972C52.4652 71.884 52.7132 71.66 53.0412 71.492C53.3772 71.324 53.7332 71.24 54.1092 71.24C54.7972 71.24 55.3212 71.44 55.6812 71.84C56.0492 72.24 56.2332 72.788 56.2332 73.484V77H55.2972V73.592C55.2972 73.136 55.1892 72.776 54.9732 72.512C54.7652 72.24 54.4452 72.104 54.0132 72.104C53.4452 72.104 53.0132 72.292 52.7172 72.668C52.4212 73.036 52.2732 73.552 52.2732 74.216V77H51.3372V67.928H52.2732ZM60.5612 71.24C61.3452 71.24 61.9852 71.496 62.4812 72.008C62.9772 72.512 63.2252 73.26 63.2252 74.252V74.48H58.6892C58.7372 75 58.9332 75.432 59.2772 75.776C59.6292 76.112 60.0492 76.28 60.5372 76.28C61.2812 76.28 61.8732 75.996 62.3132 75.428L63.0212 75.98C62.4292 76.756 61.6012 77.144 60.5372 77.144C59.6812 77.144 58.9892 76.868 58.4612 76.316C57.9412 75.756 57.6812 75.048 57.6812 74.192C57.6812 73.328 57.9492 72.62 58.4852 72.068C59.0292 71.516 59.7212 71.24 60.5612 71.24ZM62.2172 73.688C62.1932 73.2 62.0332 72.816 61.7372 72.536C61.4412 72.248 61.0332 72.104 60.5132 72.104C60.0252 72.104 59.6172 72.244 59.2892 72.524C58.9612 72.796 58.7612 73.184 58.6892 73.688H62.2172ZM67.2652 71.24C68.1532 71.24 68.8692 71.536 69.4132 72.128L68.6692 72.788C68.2932 72.332 67.8212 72.104 67.2532 72.104C66.6772 72.104 66.2172 72.296 65.8732 72.68C65.5292 73.056 65.3572 73.56 65.3572 74.192C65.3572 74.784 65.5332 75.28 65.8852 75.68C66.2452 76.08 66.7012 76.28 67.2532 76.28C67.8692 76.28 68.3452 76.048 68.6812 75.584L69.3772 76.244C68.8572 76.844 68.1492 77.144 67.2532 77.144C66.3892 77.144 65.6892 76.872 65.1532 76.328C64.6172 75.776 64.3492 75.064 64.3492 74.192C64.3492 73.328 64.6172 72.62 65.1532 72.068C65.6972 71.516 66.4012 71.24 67.2652 71.24ZM71.3982 67.928V73.856L73.9542 71.384H75.2862L72.5742 73.94L75.5622 77H74.1822L71.3982 74.048V77H70.4622V67.928H71.3982ZM82.5501 68.504C83.4701 68.504 84.1861 68.704 84.6981 69.104C85.2101 69.504 85.4661 70.08 85.4661 70.832C85.4661 71.584 85.2141 72.164 84.7101 72.572C84.2061 72.98 83.5461 73.184 82.7301 73.184H80.9781V77H79.9701V68.504H82.5501ZM82.7301 72.248C83.2421 72.248 83.6461 72.124 83.9421 71.876C84.2381 71.628 84.3861 71.284 84.3861 70.844C84.3861 70.404 84.2381 70.06 83.9421 69.812C83.6541 69.564 83.2501 69.44 82.7301 69.44H80.9781V72.248H82.7301ZM89.6753 71.24C89.8193 71.24 89.9473 71.26 90.0593 71.3L89.9993 72.248C89.8153 72.2 89.6473 72.176 89.4953 72.176C88.9593 72.176 88.5513 72.352 88.2713 72.704C87.9913 73.056 87.8513 73.56 87.8513 74.216V77H86.9153V72.632C86.9153 72.504 86.9073 72.292 86.8913 71.996C86.8753 71.7 86.8673 71.496 86.8673 71.384H87.7553C87.7553 71.496 87.7593 71.648 87.7673 71.84C87.7753 72.024 87.7793 72.18 87.7793 72.308H87.8033C87.9553 71.988 88.1993 71.732 88.5353 71.54C88.8793 71.34 89.2593 71.24 89.6753 71.24ZM93.5992 71.24C94.4712 71.24 95.1872 71.516 95.7472 72.068C96.3152 72.62 96.5992 73.328 96.5992 74.192C96.5992 75.056 96.3152 75.764 95.7472 76.316C95.1872 76.868 94.4712 77.144 93.5992 77.144C92.7272 77.144 92.0072 76.868 91.4392 76.316C90.8792 75.764 90.5992 75.056 90.5992 74.192C90.5992 73.328 90.8792 72.62 91.4392 72.068C91.9992 71.516 92.7192 71.24 93.5992 71.24ZM91.6072 74.192C91.6072 74.8 91.7912 75.3 92.1592 75.692C92.5352 76.084 93.0152 76.28 93.5992 76.28C94.1912 76.28 94.6712 76.084 95.0392 75.692C95.4072 75.292 95.5912 74.792 95.5912 74.192C95.5912 73.592 95.4072 73.096 95.0392 72.704C94.6712 72.304 94.1872 72.104 93.5872 72.104C93.0032 72.104 92.5272 72.304 92.1592 72.704C91.7912 73.096 91.6072 73.592 91.6072 74.192ZM103.652 67.928V77H102.716V76.004H102.692C102.5 76.356 102.208 76.636 101.816 76.844C101.424 77.044 100.996 77.144 100.532 77.144C99.7402 77.144 99.0722 76.86 98.5282 76.292C97.9922 75.724 97.7242 75.024 97.7242 74.192C97.7242 73.336 97.9962 72.632 98.5402 72.08C99.0922 71.52 99.8042 71.24 100.676 71.24C101.484 71.24 102.156 71.56 102.692 72.2H102.716V67.928H103.652ZM98.7322 74.192C98.7322 74.8 98.9162 75.3 99.2842 75.692C99.6602 76.084 100.14 76.28 100.724 76.28C101.316 76.28 101.796 76.084 102.164 75.692C102.532 75.292 102.716 74.792 102.716 74.192C102.716 73.584 102.532 73.084 102.164 72.692C101.796 72.3 101.312 72.104 100.712 72.104C100.128 72.104 99.6522 72.304 99.2842 72.704C98.9162 73.096 98.7322 73.592 98.7322 74.192ZM106.32 71.384V74.792C106.32 75.24 106.424 75.6 106.632 75.872C106.848 76.144 107.172 76.28 107.604 76.28C108.172 76.28 108.604 76.092 108.9 75.716C109.196 75.34 109.344 74.824 109.344 74.168V71.384H110.28V75.752C110.28 75.872 110.288 76.088 110.304 76.4C110.32 76.704 110.328 76.904 110.328 77H109.44C109.44 76.864 109.436 76.708 109.428 76.532C109.42 76.348 109.416 76.196 109.416 76.076H109.392C109.248 76.396 109.004 76.656 108.66 76.856C108.316 77.048 107.932 77.144 107.508 77.144C106.828 77.144 106.304 76.944 105.936 76.544C105.568 76.144 105.384 75.596 105.384 74.9V71.384H106.32ZM114.644 71.24C115.532 71.24 116.248 71.536 116.792 72.128L116.048 72.788C115.672 72.332 115.2 72.104 114.632 72.104C114.056 72.104 113.596 72.296 113.252 72.68C112.908 73.056 112.736 73.56 112.736 74.192C112.736 74.784 112.912 75.28 113.264 75.68C113.624 76.08 114.08 76.28 114.632 76.28C115.248 76.28 115.724 76.048 116.06 75.584L116.756 76.244C116.236 76.844 115.528 77.144 114.632 77.144C113.768 77.144 113.068 76.872 112.532 76.328C111.996 75.776 111.728 75.064 111.728 74.192C111.728 73.328 111.996 72.62 112.532 72.068C113.076 71.516 113.78 71.24 114.644 71.24ZM119.257 69.788V71.384H120.913V72.176H119.257V75.176C119.257 75.6 119.325 75.892 119.461 76.052C119.597 76.204 119.809 76.28 120.097 76.28C120.417 76.28 120.693 76.216 120.925 76.088L120.961 76.94C120.641 77.076 120.277 77.144 119.869 77.144C119.317 77.144 118.921 77.012 118.681 76.748C118.441 76.476 118.321 76 118.321 75.32V72.176H117.097V71.384H118.321V69.788H119.257ZM128.148 68.504C129.068 68.504 129.784 68.704 130.296 69.104C130.808 69.504 131.064 70.08 131.064 70.832C131.064 71.584 130.812 72.164 130.308 72.572C129.804 72.98 129.144 73.184 128.328 73.184H126.576V77H125.568V68.504H128.148ZM128.328 72.248C128.84 72.248 129.244 72.124 129.54 71.876C129.836 71.628 129.984 71.284 129.984 70.844C129.984 70.404 129.836 70.06 129.54 69.812C129.252 69.564 128.848 69.44 128.328 69.44H126.576V72.248H128.328ZM133.533 67.928V77H132.597V67.928H133.533ZM137.556 71.24C138.356 71.24 138.948 71.432 139.332 71.816C139.716 72.2 139.908 72.78 139.908 73.556V76.076C139.908 76.332 139.936 76.64 139.992 77H139.092C139.052 76.88 139.032 76.6 139.032 76.16H139.008C138.576 76.816 137.96 77.144 137.16 77.144C136.544 77.144 136.04 76.992 135.648 76.688C135.264 76.384 135.072 75.98 135.072 75.476C135.072 74.812 135.344 74.32 135.888 74C136.432 73.672 137.316 73.508 138.54 73.508H138.972V73.352C138.972 72.944 138.848 72.636 138.6 72.428C138.36 72.212 138.02 72.104 137.58 72.104C136.9 72.104 136.344 72.308 135.912 72.716L135.324 72.104C135.9 71.528 136.644 71.24 137.556 71.24ZM136.08 75.38C136.08 76.028 136.492 76.352 137.316 76.352C137.812 76.352 138.212 76.192 138.516 75.872C138.82 75.552 138.972 75.1 138.972 74.516V74.3H137.94C137.372 74.3 136.92 74.392 136.584 74.576C136.248 74.76 136.08 75.028 136.08 75.38ZM144.378 71.24C145.074 71.24 145.602 71.44 145.962 71.84C146.33 72.24 146.514 72.788 146.514 73.484V77H145.578V73.592C145.578 73.136 145.47 72.776 145.254 72.512C145.046 72.24 144.726 72.104 144.294 72.104C143.726 72.104 143.294 72.292 142.998 72.668C142.702 73.044 142.554 73.572 142.554 74.252V77H141.618V72.632C141.618 72.504 141.61 72.292 141.594 71.996C141.578 71.7 141.57 71.496 141.57 71.384H142.458C142.458 71.496 142.462 71.648 142.47 71.84C142.478 72.024 142.482 72.18 142.482 72.308H142.506C142.658 71.988 142.902 71.732 143.238 71.54C143.582 71.34 143.962 71.24 144.378 71.24Z" fill="black"/>
<path d="M280.63 69.42V70.2H278.29V76.5H277.45V70.2H275.11V69.42H280.63ZM282.599 71.7C283.326 71.7 283.922 71.93 284.389 72.39C284.862 72.85 285.099 73.44 285.099 74.16C285.099 74.88 284.862 75.47 284.389 75.93C283.922 76.39 283.326 76.62 282.599 76.62C281.872 76.62 281.272 76.39 280.799 75.93C280.332 75.47 280.099 74.88 280.099 74.16C280.099 73.44 280.332 72.85 280.799 72.39C281.266 71.93 281.866 71.7 282.599 71.7ZM280.939 74.16C280.939 74.6667 281.092 75.0833 281.399 75.41C281.712 75.7367 282.112 75.9 282.599 75.9C283.092 75.9 283.492 75.7367 283.799 75.41C284.106 75.0767 284.259 74.66 284.259 74.16C284.259 73.66 284.106 73.2467 283.799 72.92C283.492 72.5867 283.089 72.42 282.589 72.42C282.102 72.42 281.706 72.5867 281.399 72.92C281.092 73.2467 280.939 73.66 280.939 74.16ZM290.976 68.94V76.5H290.196V75.67H290.176C290.016 75.9633 289.773 76.1967 289.446 76.37C289.12 76.5367 288.763 76.62 288.376 76.62C287.716 76.62 287.16 76.3833 286.706 75.91C286.26 75.4367 286.036 74.8533 286.036 74.16C286.036 73.4467 286.263 72.86 286.716 72.4C287.176 71.9333 287.77 71.7 288.496 71.7C289.17 71.7 289.73 71.9667 290.176 72.5H290.196V68.94H290.976ZM286.876 74.16C286.876 74.6667 287.03 75.0833 287.336 75.41C287.65 75.7367 288.05 75.9 288.536 75.9C289.03 75.9 289.43 75.7367 289.736 75.41C290.043 75.0767 290.196 74.66 290.196 74.16C290.196 73.6533 290.043 73.2367 289.736 72.91C289.43 72.5833 289.026 72.42 288.526 72.42C288.04 72.42 287.643 72.5867 287.336 72.92C287.03 73.2467 286.876 73.66 286.876 74.16ZM294.22 71.7C294.886 71.7 295.38 71.86 295.7 72.18C296.02 72.5 296.18 72.9833 296.18 73.63V75.73C296.18 75.9433 296.203 76.2 296.25 76.5H295.5C295.466 76.4 295.45 76.1667 295.45 75.8H295.43C295.07 76.3467 294.556 76.62 293.89 76.62C293.376 76.62 292.956 76.4933 292.63 76.24C292.31 75.9867 292.15 75.65 292.15 75.23C292.15 74.6767 292.376 74.2667 292.83 74C293.283 73.7267 294.02 73.59 295.04 73.59H295.4V73.46C295.4 73.12 295.296 72.8633 295.09 72.69C294.89 72.51 294.606 72.42 294.24 72.42C293.673 72.42 293.21 72.59 292.85 72.93L292.36 72.42C292.84 71.94 293.46 71.7 294.22 71.7ZM292.99 75.15C292.99 75.69 293.333 75.96 294.02 75.96C294.433 75.96 294.766 75.8267 295.02 75.56C295.273 75.2933 295.4 74.9167 295.4 74.43V74.25H294.54C294.066 74.25 293.69 74.3267 293.41 74.48C293.13 74.6333 292.99 74.8567 292.99 75.15ZM297.875 71.82L299.325 75.49H299.345L300.735 71.82H301.585L299.295 77.65C299.109 78.1233 298.899 78.45 298.665 78.63C298.439 78.81 298.139 78.9 297.765 78.9C297.485 78.9 297.252 78.86 297.065 78.78L297.165 78.1C297.285 78.1533 297.469 78.18 297.715 78.18C297.915 78.18 298.082 78.1267 298.215 78.02C298.349 77.9133 298.462 77.7367 298.555 77.49L298.905 76.53L296.965 71.82H297.875Z" fill="#D0D4E4"/>
<rect width="282" height="30" transform="translate(20 96)" fill="white"/>
<path d="M32.6875 110.75C32.6875 108.727 31.5938 106.867 29.8438 105.828C28.0664 104.816 25.9062 104.816 24.1562 105.828C22.3789 106.867 21.3125 108.727 21.3125 110.75C21.3125 112.801 22.3789 114.66 24.1562 115.699C25.9062 116.711 28.0664 116.711 29.8438 115.699C31.5938 114.66 32.6875 112.801 32.6875 110.75ZM20 110.75C20 108.262 21.3125 105.965 23.5 104.707C25.6602 103.449 28.3125 103.449 30.5 104.707C32.6602 105.965 34 108.262 34 110.75C34 113.266 32.6602 115.562 30.5 116.82C28.3125 118.078 25.6602 118.078 23.5 116.82C21.3125 115.562 20 113.266 20 110.75Z" fill="#D0D4E4"/>
<path d="M47.136 106.288C48.392 106.288 49.392 106.66 50.136 107.404L49.38 108.196C48.772 107.548 48 107.224 47.064 107.224C46.088 107.224 45.272 107.56 44.616 108.232C43.968 108.896 43.644 109.736 43.644 110.752C43.644 111.776 43.972 112.62 44.628 113.284C45.284 113.948 46.128 114.28 47.16 114.28C47.896 114.28 48.6 114.116 49.272 113.788V111.184H47.316V110.248H50.28V114.424C49.304 114.952 48.244 115.216 47.1 115.216C45.772 115.216 44.684 114.8 43.836 113.968C42.988 113.136 42.564 112.064 42.564 110.752C42.564 109.464 42.996 108.4 43.86 107.56C44.724 106.712 45.816 106.288 47.136 106.288ZM54.7838 109.24C55.5678 109.24 56.2078 109.496 56.7038 110.008C57.1998 110.512 57.4478 111.26 57.4478 112.252V112.48H52.9118C52.9598 113 53.1558 113.432 53.4998 113.776C53.8518 114.112 54.2718 114.28 54.7598 114.28C55.5038 114.28 56.0958 113.996 56.5358 113.428L57.2438 113.98C56.6518 114.756 55.8238 115.144 54.7598 115.144C53.9038 115.144 53.2118 114.868 52.6838 114.316C52.1638 113.756 51.9038 113.048 51.9038 112.192C51.9038 111.328 52.1718 110.62 52.7078 110.068C53.2518 109.516 53.9438 109.24 54.7838 109.24ZM56.4398 111.688C56.4158 111.2 56.2558 110.816 55.9598 110.536C55.6638 110.248 55.2558 110.104 54.7358 110.104C54.2478 110.104 53.8398 110.244 53.5118 110.524C53.1838 110.796 52.9838 111.184 52.9118 111.688H56.4398ZM60.3118 107.788V109.384H61.9678V110.176H60.3118V113.176C60.3118 113.6 60.3798 113.892 60.5158 114.052C60.6518 114.204 60.8638 114.28 61.1518 114.28C61.4718 114.28 61.7478 114.216 61.9798 114.088L62.0158 114.94C61.6958 115.076 61.3318 115.144 60.9238 115.144C60.3718 115.144 59.9758 115.012 59.7358 114.748C59.4958 114.476 59.3758 114 59.3758 113.32V110.176H58.1518V109.384H59.3758V107.788H60.3118ZM67.8704 107.788V109.384H69.5264V110.176H67.8704V113.176C67.8704 113.6 67.9384 113.892 68.0744 114.052C68.2104 114.204 68.4224 114.28 68.7104 114.28C69.0304 114.28 69.3064 114.216 69.5384 114.088L69.5744 114.94C69.2544 115.076 68.8904 115.144 68.4824 115.144C67.9304 115.144 67.5344 115.012 67.2944 114.748C67.0544 114.476 66.9344 114 66.9344 113.32V110.176H65.7104V109.384H66.9344V107.788H67.8704ZM71.6092 105.928V110.164H71.6332C71.8012 109.884 72.0492 109.66 72.3772 109.492C72.7132 109.324 73.0692 109.24 73.4452 109.24C74.1332 109.24 74.6572 109.44 75.0172 109.84C75.3852 110.24 75.5692 110.788 75.5692 111.484V115H74.6332V111.592C74.6332 111.136 74.5252 110.776 74.3092 110.512C74.1012 110.24 73.7812 110.104 73.3492 110.104C72.7812 110.104 72.3492 110.292 72.0532 110.668C71.7572 111.036 71.6092 111.552 71.6092 112.216V115H70.6732V105.928H71.6092ZM79.8971 109.24C80.6811 109.24 81.3211 109.496 81.8171 110.008C82.3131 110.512 82.5611 111.26 82.5611 112.252V112.48H78.0251C78.0731 113 78.2691 113.432 78.6131 113.776C78.9651 114.112 79.3851 114.28 79.8731 114.28C80.6171 114.28 81.2091 113.996 81.6491 113.428L82.3571 113.98C81.7651 114.756 80.9371 115.144 79.8731 115.144C79.0171 115.144 78.3251 114.868 77.7971 114.316C77.2771 113.756 77.0171 113.048 77.0171 112.192C77.0171 111.328 77.2851 110.62 77.8211 110.068C78.3651 109.516 79.0571 109.24 79.8971 109.24ZM81.5531 111.688C81.5291 111.2 81.3691 110.816 81.0731 110.536C80.7771 110.248 80.3691 110.104 79.8491 110.104C79.3611 110.104 78.9531 110.244 78.6251 110.524C78.2971 110.796 78.0971 111.184 78.0251 111.688H81.5531ZM90.1089 109.24C90.8049 109.24 91.3329 109.44 91.6929 109.84C92.0609 110.24 92.2449 110.788 92.2449 111.484V115H91.3089V111.592C91.3089 111.136 91.2009 110.776 90.9849 110.512C90.7769 110.24 90.4569 110.104 90.0249 110.104C89.4569 110.104 89.0249 110.292 88.7289 110.668C88.4329 111.044 88.2849 111.572 88.2849 112.252V115H87.3489V110.632C87.3489 110.504 87.3409 110.292 87.3249 109.996C87.3089 109.7 87.3009 109.496 87.3009 109.384H88.1889C88.1889 109.496 88.1929 109.648 88.2009 109.84C88.2089 110.024 88.2129 110.18 88.2129 110.308H88.2369C88.3889 109.988 88.6329 109.732 88.9689 109.54C89.3129 109.34 89.6929 109.24 90.1089 109.24ZM96.5729 109.24C97.3569 109.24 97.9969 109.496 98.4929 110.008C98.9889 110.512 99.2369 111.26 99.2369 112.252V112.48H94.7009C94.7489 113 94.9449 113.432 95.2889 113.776C95.6409 114.112 96.0609 114.28 96.5489 114.28C97.2929 114.28 97.8849 113.996 98.3249 113.428L99.0329 113.98C98.4409 114.756 97.6129 115.144 96.5489 115.144C95.6929 115.144 95.0009 114.868 94.4729 114.316C93.9529 113.756 93.6929 113.048 93.6929 112.192C93.6929 111.328 93.9609 110.62 94.4969 110.068C95.0409 109.516 95.7329 109.24 96.5729 109.24ZM98.2289 111.688C98.2049 111.2 98.0449 110.816 97.7489 110.536C97.4529 110.248 97.0449 110.104 96.5249 110.104C96.0369 110.104 95.6289 110.244 95.3009 110.524C94.9729 110.796 94.7729 111.184 94.7009 111.688H98.2289ZM100.997 109.384L102.281 113.704H102.305L103.757 109.384H104.741L106.217 113.704H106.241L107.513 109.384H108.521L106.709 115H105.785L104.189 110.68H104.165L102.749 115H101.789L99.9649 109.384H100.997ZM112.991 106.708C113.127 106.572 113.287 106.504 113.471 106.504C113.655 106.504 113.815 106.572 113.951 106.708C114.087 106.836 114.155 106.996 114.155 107.188C114.155 107.388 114.091 107.552 113.963 107.68C113.835 107.808 113.671 107.872 113.471 107.872C113.271 107.872 113.107 107.808 112.979 107.68C112.851 107.552 112.787 107.388 112.787 107.188C112.787 106.996 112.855 106.836 112.991 106.708ZM113.939 109.384V115H113.003V109.384H113.939ZM118.55 106.504C119.47 106.504 120.186 106.704 120.698 107.104C121.21 107.504 121.466 108.08 121.466 108.832C121.466 109.584 121.214 110.164 120.71 110.572C120.206 110.98 119.546 111.184 118.73 111.184H116.978V115H115.97V106.504H118.55ZM118.73 110.248C119.242 110.248 119.646 110.124 119.942 109.876C120.238 109.628 120.386 109.284 120.386 108.844C120.386 108.404 120.238 108.06 119.942 107.812C119.654 107.564 119.25 107.44 118.73 107.44H116.978V110.248H118.73ZM125.075 109.24C125.875 109.24 126.467 109.432 126.851 109.816C127.235 110.2 127.427 110.78 127.427 111.556V114.076C127.427 114.332 127.455 114.64 127.511 115H126.611C126.571 114.88 126.551 114.6 126.551 114.16H126.527C126.095 114.816 125.479 115.144 124.679 115.144C124.063 115.144 123.559 114.992 123.167 114.688C122.783 114.384 122.591 113.98 122.591 113.476C122.591 112.812 122.863 112.32 123.407 112C123.951 111.672 124.835 111.508 126.059 111.508H126.491V111.352C126.491 110.944 126.367 110.636 126.119 110.428C125.879 110.212 125.539 110.104 125.099 110.104C124.419 110.104 123.863 110.308 123.431 110.716L122.843 110.104C123.419 109.528 124.163 109.24 125.075 109.24ZM123.599 113.38C123.599 114.028 124.011 114.352 124.835 114.352C125.331 114.352 125.731 114.192 126.035 113.872C126.339 113.552 126.491 113.1 126.491 112.516V112.3H125.459C124.891 112.3 124.439 112.392 124.103 112.576C123.767 112.76 123.599 113.028 123.599 113.38ZM134.742 105.928V115H133.806V114.004H133.782C133.59 114.356 133.298 114.636 132.906 114.844C132.514 115.044 132.086 115.144 131.622 115.144C130.83 115.144 130.162 114.86 129.618 114.292C129.082 113.724 128.814 113.024 128.814 112.192C128.814 111.336 129.086 110.632 129.63 110.08C130.182 109.52 130.894 109.24 131.766 109.24C132.574 109.24 133.246 109.56 133.782 110.2H133.806V105.928H134.742ZM129.822 112.192C129.822 112.8 130.006 113.3 130.374 113.692C130.75 114.084 131.23 114.28 131.814 114.28C132.406 114.28 132.886 114.084 133.254 113.692C133.622 113.292 133.806 112.792 133.806 112.192C133.806 111.584 133.622 111.084 133.254 110.692C132.886 110.3 132.402 110.104 131.802 110.104C131.218 110.104 130.742 110.304 130.374 110.704C130.006 111.096 129.822 111.592 129.822 112.192ZM142.274 105.784C142.586 105.784 142.83 105.832 143.006 105.928L142.874 106.768C142.658 106.688 142.446 106.648 142.238 106.648C141.87 106.648 141.61 106.752 141.458 106.96C141.306 107.168 141.23 107.556 141.23 108.124V109.384H142.598V110.176H141.23V115H140.294V110.176H139.07V109.384H140.294V108.112C140.294 106.56 140.954 105.784 142.274 105.784ZM146.359 109.24C146.503 109.24 146.631 109.26 146.743 109.3L146.683 110.248C146.499 110.2 146.331 110.176 146.179 110.176C145.643 110.176 145.235 110.352 144.955 110.704C144.675 111.056 144.535 111.56 144.535 112.216V115H143.599V110.632C143.599 110.504 143.591 110.292 143.575 109.996C143.559 109.7 143.551 109.496 143.551 109.384H144.439C144.439 109.496 144.443 109.648 144.451 109.84C144.459 110.024 144.463 110.18 144.463 110.308H144.487C144.639 109.988 144.883 109.732 145.219 109.54C145.563 109.34 145.943 109.24 146.359 109.24ZM150.283 109.24C151.155 109.24 151.871 109.516 152.431 110.068C152.999 110.62 153.283 111.328 153.283 112.192C153.283 113.056 152.999 113.764 152.431 114.316C151.871 114.868 151.155 115.144 150.283 115.144C149.411 115.144 148.691 114.868 148.123 114.316C147.563 113.764 147.283 113.056 147.283 112.192C147.283 111.328 147.563 110.62 148.123 110.068C148.683 109.516 149.403 109.24 150.283 109.24ZM148.291 112.192C148.291 112.8 148.475 113.3 148.843 113.692C149.219 114.084 149.699 114.28 150.283 114.28C150.875 114.28 151.355 114.084 151.723 113.692C152.091 113.292 152.275 112.792 152.275 112.192C152.275 111.592 152.091 111.096 151.723 110.704C151.355 110.304 150.871 110.104 150.271 110.104C149.687 110.104 149.211 110.304 148.843 110.704C148.475 111.096 148.291 111.592 148.291 112.192ZM157.504 109.24C158.352 109.24 158.94 109.596 159.268 110.308C159.7 109.596 160.296 109.24 161.056 109.24C162.472 109.24 163.18 110.004 163.18 111.532V115H162.244V111.604C162.244 111.124 162.128 110.756 161.896 110.5C161.664 110.236 161.324 110.104 160.876 110.104C160.46 110.104 160.112 110.264 159.832 110.584C159.56 110.896 159.424 111.276 159.424 111.724V115H158.488V111.748C158.488 111.18 158.404 110.764 158.236 110.5C158.076 110.236 157.796 110.104 157.396 110.104C156.836 110.104 156.408 110.292 156.112 110.668C155.816 111.044 155.668 111.572 155.668 112.252V115H154.732V110.632C154.732 110.504 154.724 110.292 154.708 109.996C154.692 109.7 154.684 109.496 154.684 109.384H155.572C155.572 109.496 155.576 109.648 155.584 109.84C155.592 110.024 155.596 110.18 155.596 110.308H155.62C155.772 109.988 156.016 109.732 156.352 109.54C156.696 109.34 157.08 109.24 157.504 109.24ZM169.466 106.504V115H168.458V106.504H169.466ZM177.276 106.504V107.44H174.468V115H173.46V107.44H170.652V106.504H177.276ZM184.818 106.504C186.026 106.504 187.038 106.888 187.854 107.656C188.67 108.424 189.078 109.456 189.078 110.752C189.078 112.064 188.666 113.1 187.842 113.86C187.018 114.62 186.018 115 184.842 115H181.65V106.504H184.818ZM184.578 114.064C185.65 114.064 186.486 113.78 187.086 113.212C187.694 112.636 187.998 111.816 187.998 110.752C187.998 109.688 187.694 108.872 187.086 108.304C186.486 107.728 185.65 107.44 184.578 107.44H182.658V114.064H184.578ZM193.089 109.24C193.873 109.24 194.513 109.496 195.009 110.008C195.505 110.512 195.753 111.26 195.753 112.252V112.48H191.217C191.265 113 191.461 113.432 191.805 113.776C192.157 114.112 192.577 114.28 193.065 114.28C193.809 114.28 194.401 113.996 194.841 113.428L195.549 113.98C194.957 114.756 194.129 115.144 193.065 115.144C192.209 115.144 191.517 114.868 190.989 114.316C190.469 113.756 190.209 113.048 190.209 112.192C190.209 111.328 190.477 110.62 191.013 110.068C191.557 109.516 192.249 109.24 193.089 109.24ZM194.745 111.688C194.721 111.2 194.561 110.816 194.265 110.536C193.969 110.248 193.561 110.104 193.041 110.104C192.553 110.104 192.145 110.244 191.817 110.524C191.489 110.796 191.289 111.184 191.217 111.688H194.745ZM200.129 109.24C201.001 109.24 201.709 109.52 202.253 110.08C202.805 110.632 203.081 111.336 203.081 112.192C203.081 113.024 202.809 113.724 202.265 114.292C201.729 114.86 201.065 115.144 200.273 115.144C199.801 115.144 199.369 115.04 198.977 114.832C198.585 114.624 198.297 114.348 198.113 114.004H198.089V117.736H197.153V109.384H198.089V110.2H198.113C198.665 109.56 199.337 109.24 200.129 109.24ZM198.089 112.192C198.089 112.8 198.273 113.3 198.641 113.692C199.017 114.084 199.497 114.28 200.081 114.28C200.673 114.28 201.153 114.084 201.521 113.692C201.889 113.292 202.073 112.792 202.073 112.192C202.073 111.592 201.889 111.096 201.521 110.704C201.153 110.304 200.669 110.104 200.069 110.104C199.485 110.104 199.009 110.304 198.641 110.704C198.273 111.096 198.089 111.592 198.089 112.192ZM206.316 107.788V109.384H207.972V110.176H206.316V113.176C206.316 113.6 206.384 113.892 206.52 114.052C206.656 114.204 206.868 114.28 207.156 114.28C207.476 114.28 207.752 114.216 207.984 114.088L208.02 114.94C207.7 115.076 207.336 115.144 206.928 115.144C206.376 115.144 205.98 115.012 205.74 114.748C205.5 114.476 205.38 114 205.38 113.32V110.176H204.156V109.384H205.38V107.788H206.316ZM210.618 114.352C210.618 114.544 210.546 114.712 210.402 114.856C210.258 115 210.09 115.072 209.898 115.072C209.706 115.072 209.538 115 209.394 114.856C209.25 114.712 209.178 114.544 209.178 114.352C209.178 114.152 209.246 113.984 209.382 113.848C209.526 113.704 209.698 113.632 209.898 113.632C210.098 113.632 210.266 113.704 210.402 113.848C210.546 113.984 210.618 114.152 210.618 114.352Z" fill="black"/>
<path d="M259.6 107.42V114.5H258.76V108.5H258.74L257.47 109.57L256.97 108.96L258.87 107.42H259.6ZM265.497 107.42L263.597 110.37L263.617 110.39C263.883 110.25 264.2 110.18 264.567 110.18C265.18 110.18 265.69 110.387 266.097 110.8C266.503 111.213 266.707 111.747 266.707 112.4C266.707 113.06 266.487 113.597 266.047 114.01C265.607 114.417 265.037 114.62 264.337 114.62C263.643 114.62 263.073 114.417 262.627 114.01C262.187 113.603 261.967 113.067 261.967 112.4C261.967 111.78 262.19 111.117 262.637 110.41L264.517 107.42H265.497ZM263.237 111.33C262.95 111.61 262.807 111.967 262.807 112.4C262.807 112.833 262.947 113.193 263.227 113.48C263.513 113.76 263.883 113.9 264.337 113.9C264.79 113.9 265.157 113.76 265.437 113.48C265.723 113.193 265.867 112.833 265.867 112.4C265.867 111.96 265.72 111.6 265.427 111.32C265.14 111.04 264.773 110.9 264.327 110.9C263.893 110.9 263.53 111.043 263.237 111.33ZM273.866 107.42L276.876 114.5H275.896L275.176 112.76H271.636L270.906 114.5H269.956L273.076 107.42H273.866ZM273.436 108.5L271.966 111.98H274.856L273.456 108.5H273.436ZM278.458 109.82V112.66C278.458 113.033 278.544 113.333 278.718 113.56C278.898 113.787 279.168 113.9 279.528 113.9C280.001 113.9 280.361 113.743 280.608 113.43C280.854 113.117 280.978 112.687 280.978 112.14V109.82H281.758V113.46C281.758 113.56 281.764 113.74 281.778 114C281.791 114.253 281.798 114.42 281.798 114.5H281.058C281.058 114.387 281.054 114.257 281.048 114.11C281.041 113.957 281.038 113.83 281.038 113.73H281.018C280.898 113.997 280.694 114.213 280.408 114.38C280.121 114.54 279.801 114.62 279.448 114.62C278.881 114.62 278.444 114.453 278.138 114.12C277.831 113.787 277.678 113.33 277.678 112.75V109.82H278.458ZM285.444 109.7C285.804 109.7 286.134 109.783 286.434 109.95C286.741 110.117 286.964 110.34 287.104 110.62H287.124V109.82H287.904V114.34C287.904 115.14 287.684 115.767 287.244 116.22C286.811 116.673 286.181 116.9 285.354 116.9C284.414 116.9 283.647 116.603 283.054 116.01L283.614 115.37C284.114 115.91 284.694 116.18 285.354 116.18C286.534 116.18 287.124 115.553 287.124 114.3V113.69H287.104C286.931 113.963 286.697 114.177 286.404 114.33C286.111 114.483 285.791 114.56 285.444 114.56C284.724 114.56 284.131 114.333 283.664 113.88C283.197 113.427 282.964 112.853 282.964 112.16C282.964 111.413 283.187 110.817 283.634 110.37C284.087 109.923 284.691 109.7 285.444 109.7ZM283.804 112.16C283.804 112.627 283.964 113.023 284.284 113.35C284.604 113.677 284.994 113.84 285.454 113.84C285.954 113.84 286.357 113.68 286.664 113.36C286.971 113.033 287.124 112.627 287.124 112.14C287.124 111.633 286.967 111.22 286.654 110.9C286.347 110.58 285.944 110.42 285.444 110.42C284.971 110.42 284.577 110.587 284.264 110.92C283.957 111.247 283.804 111.66 283.804 112.16ZM290.127 109.82V112.66C290.127 113.033 290.214 113.333 290.387 113.56C290.567 113.787 290.837 113.9 291.197 113.9C291.671 113.9 292.031 113.743 292.277 113.43C292.524 113.117 292.647 112.687 292.647 112.14V109.82H293.427V113.46C293.427 113.56 293.434 113.74 293.447 114C293.461 114.253 293.467 114.42 293.467 114.5H292.727C292.727 114.387 292.724 114.257 292.717 114.11C292.711 113.957 292.707 113.83 292.707 113.73H292.687C292.567 113.997 292.364 114.213 292.077 114.38C291.791 114.54 291.471 114.62 291.117 114.62C290.551 114.62 290.114 114.453 289.807 114.12C289.501 113.787 289.347 113.33 289.347 112.75V109.82H290.127ZM296.334 109.7C297.094 109.7 297.624 109.983 297.924 110.55L297.274 110.98C297.047 110.607 296.717 110.42 296.284 110.42C296.017 110.42 295.797 110.48 295.624 110.6C295.451 110.72 295.364 110.877 295.364 111.07C295.364 111.377 295.754 111.603 296.534 111.75C297.087 111.857 297.481 112.02 297.714 112.24C297.954 112.46 298.074 112.763 298.074 113.15C298.074 113.603 297.904 113.963 297.564 114.23C297.224 114.49 296.771 114.62 296.204 114.62C295.384 114.62 294.777 114.33 294.384 113.75L295.004 113.27C295.351 113.69 295.751 113.9 296.204 113.9C296.504 113.9 296.751 113.837 296.944 113.71C297.137 113.577 297.234 113.4 297.234 113.18C297.234 112.967 297.144 112.807 296.964 112.7C296.784 112.587 296.434 112.473 295.914 112.36C295.447 112.26 295.107 112.11 294.894 111.91C294.687 111.703 294.584 111.427 294.584 111.08C294.584 110.667 294.751 110.333 295.084 110.08C295.424 109.827 295.841 109.7 296.334 109.7ZM300.342 108.49V109.82H301.722V110.48H300.342V112.98C300.342 113.333 300.399 113.577 300.512 113.71C300.625 113.837 300.802 113.9 301.042 113.9C301.309 113.9 301.539 113.847 301.732 113.74L301.762 114.45C301.495 114.563 301.192 114.62 300.852 114.62C300.392 114.62 300.062 114.51 299.862 114.29C299.662 114.063 299.562 113.667 299.562 113.1V110.48H298.542V109.82H299.562V108.49H300.342Z" fill="#D0D4E4"/>
<rect width="282" height="30" transform="translate(20 134)" fill="white"/>
<path d="M32.6875 148.75C32.6875 146.727 31.5938 144.867 29.8438 143.828C28.0664 142.816 25.9062 142.816 24.1562 143.828C22.3789 144.867 21.3125 146.727 21.3125 148.75C21.3125 150.801 22.3789 152.66 24.1562 153.699C25.9062 154.711 28.0664 154.711 29.8438 153.699C31.5938 152.66 32.6875 150.801 32.6875 148.75ZM20 148.75C20 146.262 21.3125 143.965 23.5 142.707C25.6602 141.449 28.3125 141.449 30.5 142.707C32.6602 143.965 34 146.262 34 148.75C34 151.266 32.6602 153.562 30.5 154.82C28.3125 156.078 25.6602 156.078 23.5 154.82C21.3125 153.562 20 151.266 20 148.75Z" fill="#D0D4E4"/>
<path d="M45.54 144.288C46.548 144.288 47.34 144.62 47.916 145.284L47.088 146.004C46.768 145.484 46.252 145.224 45.54 145.224C45.004 145.224 44.568 145.356 44.232 145.62C43.896 145.876 43.728 146.22 43.728 146.652C43.728 147.052 43.864 147.364 44.136 147.588C44.408 147.812 44.88 148.024 45.552 148.224C46.496 148.504 47.148 148.836 47.508 149.22C47.876 149.604 48.06 150.108 48.06 150.732C48.06 151.484 47.78 152.088 47.22 152.544C46.668 152.992 45.952 153.216 45.072 153.216C44.496 153.216 43.976 153.112 43.512 152.904C43.056 152.696 42.704 152.408 42.456 152.04L43.32 151.332C43.504 151.636 43.756 151.872 44.076 152.04C44.396 152.2 44.748 152.28 45.132 152.28C45.628 152.28 46.06 152.144 46.428 151.872C46.796 151.592 46.98 151.236 46.98 150.804C46.98 150.644 46.964 150.504 46.932 150.384C46.908 150.256 46.848 150.14 46.752 150.036C46.664 149.932 46.584 149.852 46.512 149.796C46.448 149.732 46.324 149.66 46.14 149.58C45.964 149.5 45.828 149.444 45.732 149.412C45.644 149.372 45.468 149.312 45.204 149.232C44.948 149.144 44.76 149.08 44.64 149.04C43.92 148.792 43.408 148.488 43.104 148.128C42.8 147.768 42.648 147.304 42.648 146.736C42.648 146.008 42.92 145.42 43.464 144.972C44.008 144.516 44.7 144.288 45.54 144.288ZM50.972 145.788V147.384H52.628V148.176H50.972V151.176C50.972 151.6 51.04 151.892 51.176 152.052C51.312 152.204 51.524 152.28 51.812 152.28C52.132 152.28 52.408 152.216 52.64 152.088L52.676 152.94C52.356 153.076 51.992 153.144 51.584 153.144C51.032 153.144 50.636 153.012 50.396 152.748C50.156 152.476 50.036 152 50.036 151.32V148.176H48.812V147.384H50.036V145.788H50.972ZM55.9347 147.24C56.7347 147.24 57.3267 147.432 57.7107 147.816C58.0947 148.2 58.2867 148.78 58.2867 149.556V152.076C58.2867 152.332 58.3147 152.64 58.3707 153H57.4707C57.4307 152.88 57.4107 152.6 57.4107 152.16H57.3867C56.9547 152.816 56.3387 153.144 55.5387 153.144C54.9227 153.144 54.4187 152.992 54.0267 152.688C53.6427 152.384 53.4507 151.98 53.4507 151.476C53.4507 150.812 53.7227 150.32 54.2667 150C54.8107 149.672 55.6947 149.508 56.9187 149.508H57.3507V149.352C57.3507 148.944 57.2267 148.636 56.9787 148.428C56.7387 148.212 56.3987 148.104 55.9587 148.104C55.2787 148.104 54.7227 148.308 54.2907 148.716L53.7027 148.104C54.2787 147.528 55.0227 147.24 55.9347 147.24ZM54.4587 151.38C54.4587 152.028 54.8707 152.352 55.6947 152.352C56.1907 152.352 56.5907 152.192 56.8947 151.872C57.1987 151.552 57.3507 151.1 57.3507 150.516V150.3H56.3187C55.7507 150.3 55.2987 150.392 54.9627 150.576C54.6267 150.76 54.4587 151.028 54.4587 151.38ZM62.7574 147.24C62.9014 147.24 63.0294 147.26 63.1414 147.3L63.0814 148.248C62.8974 148.2 62.7294 148.176 62.5774 148.176C62.0414 148.176 61.6334 148.352 61.3534 148.704C61.0734 149.056 60.9334 149.56 60.9334 150.216V153H59.9974V148.632C59.9974 148.504 59.9894 148.292 59.9734 147.996C59.9574 147.7 59.9494 147.496 59.9494 147.384H60.8374C60.8374 147.496 60.8414 147.648 60.8494 147.84C60.8574 148.024 60.8614 148.18 60.8614 148.308H60.8854C61.0374 147.988 61.2814 147.732 61.6174 147.54C61.9614 147.34 62.3414 147.24 62.7574 147.24ZM65.6321 145.788V147.384H67.2881V148.176H65.6321V151.176C65.6321 151.6 65.7001 151.892 65.8361 152.052C65.9721 152.204 66.1841 152.28 66.4721 152.28C66.7921 152.28 67.0681 152.216 67.3001 152.088L67.3361 152.94C67.0161 153.076 66.6521 153.144 66.2441 153.144C65.6921 153.144 65.2961 153.012 65.0561 152.748C64.8161 152.476 64.6961 152 64.6961 151.32V148.176H63.4721V147.384H64.6961V145.788H65.6321ZM72.9147 144.504V149.616C72.9147 150.472 73.0987 151.132 73.4667 151.596C73.8427 152.052 74.3907 152.28 75.1107 152.28C75.8307 152.28 76.3747 152.052 76.7427 151.596C77.1187 151.14 77.3067 150.496 77.3067 149.664V144.504H78.3147V149.796C78.3147 150.852 78.0387 151.688 77.4867 152.304C76.9347 152.912 76.1427 153.216 75.1107 153.216C74.0787 153.216 73.2867 152.908 72.7347 152.292C72.1827 151.676 71.9067 150.84 71.9067 149.784V144.504H72.9147ZM81.9399 147.24C82.8519 147.24 83.4879 147.58 83.8479 148.26L83.0679 148.776C82.7959 148.328 82.3999 148.104 81.8799 148.104C81.5599 148.104 81.2959 148.176 81.0879 148.32C80.8799 148.464 80.7759 148.652 80.7759 148.884C80.7759 149.252 81.2439 149.524 82.1799 149.7C82.8439 149.828 83.3159 150.024 83.5959 150.288C83.8839 150.552 84.0279 150.916 84.0279 151.38C84.0279 151.924 83.8239 152.356 83.4159 152.676C83.0079 152.988 82.4639 153.144 81.7839 153.144C80.7999 153.144 80.0719 152.796 79.5999 152.1L80.3439 151.524C80.7599 152.028 81.2399 152.28 81.7839 152.28C82.1439 152.28 82.4399 152.204 82.6719 152.052C82.9039 151.892 83.0199 151.68 83.0199 151.416C83.0199 151.16 82.9119 150.968 82.6959 150.84C82.4799 150.704 82.0599 150.568 81.4359 150.432C80.8759 150.312 80.4679 150.132 80.2119 149.892C79.9639 149.644 79.8399 149.312 79.8399 148.896C79.8399 148.4 80.0399 148 80.4399 147.696C80.8479 147.392 81.3479 147.24 81.9399 147.24ZM87.8893 147.24C88.6733 147.24 89.3133 147.496 89.8093 148.008C90.3053 148.512 90.5533 149.26 90.5533 150.252V150.48H86.0173C86.0653 151 86.2613 151.432 86.6053 151.776C86.9573 152.112 87.3773 152.28 87.8653 152.28C88.6093 152.28 89.2013 151.996 89.6413 151.428L90.3493 151.98C89.7573 152.756 88.9293 153.144 87.8653 153.144C87.0093 153.144 86.3173 152.868 85.7893 152.316C85.2693 151.756 85.0093 151.048 85.0093 150.192C85.0093 149.328 85.2773 148.62 85.8133 148.068C86.3573 147.516 87.0493 147.24 87.8893 147.24ZM89.5453 149.688C89.5213 149.2 89.3613 148.816 89.0653 148.536C88.7693 148.248 88.3613 148.104 87.8413 148.104C87.3533 148.104 86.9453 148.244 86.6173 148.524C86.2893 148.796 86.0893 149.184 86.0173 149.688H89.5453ZM94.7613 147.24C94.9053 147.24 95.0333 147.26 95.1453 147.3L95.0853 148.248C94.9013 148.2 94.7333 148.176 94.5813 148.176C94.0453 148.176 93.6373 148.352 93.3573 148.704C93.0773 149.056 92.9373 149.56 92.9373 150.216V153H92.0013V148.632C92.0013 148.504 91.9933 148.292 91.9773 147.996C91.9613 147.7 91.9533 147.496 91.9533 147.384H92.8413C92.8413 147.496 92.8453 147.648 92.8533 147.84C92.8613 148.024 92.8653 148.18 92.8653 148.308H92.8893C93.0413 147.988 93.2853 147.732 93.6213 147.54C93.9653 147.34 94.3453 147.24 94.7613 147.24ZM102.044 144.504C103.204 144.504 104.032 144.7 104.528 145.092C105.032 145.476 105.284 146.056 105.284 146.832C105.284 147.44 105.1 147.94 104.732 148.332C104.372 148.724 103.848 148.976 103.16 149.088L105.572 153H104.336L102.032 149.184H100.736V153H99.7279V144.504H102.044ZM101.936 148.248C102.792 148.248 103.384 148.128 103.712 147.888C104.04 147.648 104.204 147.3 104.204 146.844C104.204 146.364 104.04 146.012 103.712 145.788C103.392 145.556 102.892 145.44 102.212 145.44H100.736V148.248H101.936ZM109.452 147.24C110.236 147.24 110.876 147.496 111.372 148.008C111.868 148.512 112.116 149.26 112.116 150.252V150.48H107.58C107.628 151 107.824 151.432 108.168 151.776C108.52 152.112 108.94 152.28 109.428 152.28C110.172 152.28 110.764 151.996 111.204 151.428L111.912 151.98C111.32 152.756 110.492 153.144 109.428 153.144C108.572 153.144 107.88 152.868 107.352 152.316C106.832 151.756 106.572 151.048 106.572 150.192C106.572 149.328 106.84 148.62 107.376 148.068C107.92 147.516 108.612 147.24 109.452 147.24ZM111.108 149.688C111.084 149.2 110.924 148.816 110.628 148.536C110.332 148.248 109.924 148.104 109.404 148.104C108.916 148.104 108.508 148.244 108.18 148.524C107.852 148.796 107.652 149.184 107.58 149.688H111.108ZM115.28 147.24C116.192 147.24 116.828 147.58 117.188 148.26L116.408 148.776C116.136 148.328 115.74 148.104 115.22 148.104C114.9 148.104 114.636 148.176 114.428 148.32C114.22 148.464 114.116 148.652 114.116 148.884C114.116 149.252 114.584 149.524 115.52 149.7C116.184 149.828 116.656 150.024 116.936 150.288C117.224 150.552 117.368 150.916 117.368 151.38C117.368 151.924 117.164 152.356 116.756 152.676C116.348 152.988 115.804 153.144 115.124 153.144C114.14 153.144 113.412 152.796 112.94 152.1L113.684 151.524C114.1 152.028 114.58 152.28 115.124 152.28C115.484 152.28 115.78 152.204 116.012 152.052C116.244 151.892 116.36 151.68 116.36 151.416C116.36 151.16 116.252 150.968 116.036 150.84C115.82 150.704 115.4 150.568 114.776 150.432C114.216 150.312 113.808 150.132 113.552 149.892C113.304 149.644 113.18 149.312 113.18 148.896C113.18 148.4 113.38 148 113.78 147.696C114.188 147.392 114.688 147.24 115.28 147.24ZM121.229 147.24C122.013 147.24 122.653 147.496 123.149 148.008C123.645 148.512 123.893 149.26 123.893 150.252V150.48H119.357C119.405 151 119.601 151.432 119.945 151.776C120.297 152.112 120.717 152.28 121.205 152.28C121.949 152.28 122.541 151.996 122.981 151.428L123.689 151.98C123.097 152.756 122.269 153.144 121.205 153.144C120.349 153.144 119.657 152.868 119.129 152.316C118.609 151.756 118.349 151.048 118.349 150.192C118.349 149.328 118.617 148.62 119.153 148.068C119.697 147.516 120.389 147.24 121.229 147.24ZM122.885 149.688C122.861 149.2 122.701 148.816 122.405 148.536C122.109 148.248 121.701 148.104 121.181 148.104C120.693 148.104 120.285 148.244 119.957 148.524C119.629 148.796 119.429 149.184 119.357 149.688H122.885ZM127.501 147.24C128.301 147.24 128.893 147.432 129.277 147.816C129.661 148.2 129.853 148.78 129.853 149.556V152.076C129.853 152.332 129.881 152.64 129.937 153H129.037C128.997 152.88 128.977 152.6 128.977 152.16H128.953C128.521 152.816 127.905 153.144 127.105 153.144C126.489 153.144 125.985 152.992 125.593 152.688C125.209 152.384 125.017 151.98 125.017 151.476C125.017 150.812 125.289 150.32 125.833 150C126.377 149.672 127.261 149.508 128.485 149.508H128.917V149.352C128.917 148.944 128.793 148.636 128.545 148.428C128.305 148.212 127.965 148.104 127.525 148.104C126.845 148.104 126.289 148.308 125.857 148.716L125.269 148.104C125.845 147.528 126.589 147.24 127.501 147.24ZM126.025 151.38C126.025 152.028 126.437 152.352 127.261 152.352C127.757 152.352 128.157 152.192 128.461 151.872C128.765 151.552 128.917 151.1 128.917 150.516V150.3H127.885C127.317 150.3 126.865 150.392 126.529 150.576C126.193 150.76 126.025 151.028 126.025 151.38ZM134.324 147.24C134.468 147.24 134.596 147.26 134.708 147.3L134.648 148.248C134.464 148.2 134.296 148.176 134.144 148.176C133.608 148.176 133.2 148.352 132.92 148.704C132.64 149.056 132.5 149.56 132.5 150.216V153H131.564V148.632C131.564 148.504 131.556 148.292 131.54 147.996C131.524 147.7 131.516 147.496 131.516 147.384H132.404C132.404 147.496 132.408 147.648 132.416 147.84C132.424 148.024 132.428 148.18 132.428 148.308H132.452C132.604 147.988 132.848 147.732 133.184 147.54C133.528 147.34 133.908 147.24 134.324 147.24ZM138.164 147.24C139.052 147.24 139.768 147.536 140.312 148.128L139.568 148.788C139.192 148.332 138.72 148.104 138.152 148.104C137.576 148.104 137.116 148.296 136.772 148.68C136.428 149.056 136.256 149.56 136.256 150.192C136.256 150.784 136.432 151.28 136.784 151.68C137.144 152.08 137.6 152.28 138.152 152.28C138.768 152.28 139.244 152.048 139.58 151.584L140.276 152.244C139.756 152.844 139.048 153.144 138.152 153.144C137.288 153.144 136.588 152.872 136.052 152.328C135.516 151.776 135.248 151.064 135.248 150.192C135.248 149.328 135.516 148.62 136.052 148.068C136.596 147.516 137.3 147.24 138.164 147.24ZM142.297 143.928V148.164H142.321C142.489 147.884 142.737 147.66 143.065 147.492C143.401 147.324 143.757 147.24 144.133 147.24C144.821 147.24 145.345 147.44 145.705 147.84C146.073 148.24 146.257 148.788 146.257 149.484V153H145.321V149.592C145.321 149.136 145.213 148.776 144.997 148.512C144.789 148.24 144.469 148.104 144.037 148.104C143.469 148.104 143.037 148.292 142.741 148.668C142.445 149.036 142.297 149.552 142.297 150.216V153H141.361V143.928H142.297ZM154.044 147.24C154.916 147.24 155.632 147.516 156.192 148.068C156.76 148.62 157.044 149.328 157.044 150.192C157.044 151.056 156.76 151.764 156.192 152.316C155.632 152.868 154.916 153.144 154.044 153.144C153.172 153.144 152.452 152.868 151.884 152.316C151.324 151.764 151.044 151.056 151.044 150.192C151.044 149.328 151.324 148.62 151.884 148.068C152.444 147.516 153.164 147.24 154.044 147.24ZM152.052 150.192C152.052 150.8 152.236 151.3 152.604 151.692C152.98 152.084 153.46 152.28 154.044 152.28C154.636 152.28 155.116 152.084 155.484 151.692C155.852 151.292 156.036 150.792 156.036 150.192C156.036 149.592 155.852 149.096 155.484 148.704C155.116 148.304 154.632 148.104 154.032 148.104C153.448 148.104 152.972 148.304 152.604 148.704C152.236 149.096 152.052 149.592 152.052 150.192ZM160.953 143.784C161.265 143.784 161.509 143.832 161.685 143.928L161.553 144.768C161.337 144.688 161.125 144.648 160.917 144.648C160.549 144.648 160.289 144.752 160.137 144.96C159.985 145.168 159.909 145.556 159.909 146.124V147.384H161.277V148.176H159.909V153H158.973V148.176H157.749V147.384H158.973V146.112C158.973 144.56 159.633 143.784 160.953 143.784ZM169.734 144.288C171.03 144.288 172.094 144.712 172.926 145.56C173.758 146.408 174.174 147.472 174.174 148.752C174.174 150.032 173.754 151.096 172.914 151.944C172.082 152.792 171.022 153.216 169.734 153.216C168.446 153.216 167.382 152.792 166.542 151.944C165.71 151.096 165.294 150.032 165.294 148.752C165.294 147.472 165.71 146.408 166.542 145.56C167.382 144.712 168.446 144.288 169.734 144.288ZM167.322 146.244C166.69 146.916 166.374 147.752 166.374 148.752C166.374 149.752 166.69 150.592 167.322 151.272C167.954 151.944 168.758 152.28 169.734 152.28C170.702 152.28 171.502 151.944 172.134 151.272C172.774 150.592 173.094 149.752 173.094 148.752C173.094 147.752 172.774 146.916 172.134 146.244C171.502 145.564 170.698 145.224 169.722 145.224C168.762 145.224 167.962 145.564 167.322 146.244ZM178.386 147.24C179.082 147.24 179.61 147.44 179.97 147.84C180.338 148.24 180.522 148.788 180.522 149.484V153H179.586V149.592C179.586 149.136 179.478 148.776 179.262 148.512C179.054 148.24 178.734 148.104 178.302 148.104C177.734 148.104 177.302 148.292 177.006 148.668C176.71 149.044 176.562 149.572 176.562 150.252V153H175.626V148.632C175.626 148.504 175.618 148.292 175.602 147.996C175.586 147.7 175.578 147.496 175.578 147.384H176.466C176.466 147.496 176.47 147.648 176.478 147.84C176.486 148.024 176.49 148.18 176.49 148.308H176.514C176.666 147.988 176.91 147.732 177.246 147.54C177.59 147.34 177.97 147.24 178.386 147.24ZM184.85 147.24C185.634 147.24 186.274 147.496 186.77 148.008C187.266 148.512 187.514 149.26 187.514 150.252V150.48H182.978C183.026 151 183.222 151.432 183.566 151.776C183.918 152.112 184.338 152.28 184.826 152.28C185.57 152.28 186.162 151.996 186.602 151.428L187.31 151.98C186.718 152.756 185.89 153.144 184.826 153.144C183.97 153.144 183.278 152.868 182.75 152.316C182.23 151.756 181.97 151.048 181.97 150.192C181.97 149.328 182.238 148.62 182.774 148.068C183.318 147.516 184.01 147.24 184.85 147.24ZM186.506 149.688C186.482 149.2 186.322 148.816 186.026 148.536C185.73 148.248 185.322 148.104 184.802 148.104C184.314 148.104 183.906 148.244 183.578 148.524C183.25 148.796 183.05 149.184 182.978 149.688H186.506ZM191.89 147.24C192.762 147.24 193.47 147.52 194.014 148.08C194.566 148.632 194.842 149.336 194.842 150.192C194.842 151.024 194.57 151.724 194.026 152.292C193.49 152.86 192.826 153.144 192.034 153.144C191.562 153.144 191.13 153.04 190.738 152.832C190.346 152.624 190.058 152.348 189.874 152.004H189.85V155.736H188.914V147.384H189.85V148.2H189.874C190.426 147.56 191.098 147.24 191.89 147.24ZM189.85 150.192C189.85 150.8 190.034 151.3 190.402 151.692C190.778 152.084 191.258 152.28 191.842 152.28C192.434 152.28 192.914 152.084 193.282 151.692C193.65 151.292 193.834 150.792 193.834 150.192C193.834 149.592 193.65 149.096 193.282 148.704C192.914 148.304 192.43 148.104 191.83 148.104C191.246 148.104 190.77 148.304 190.402 148.704C190.034 149.096 189.85 149.592 189.85 150.192ZM198.974 147.24C199.846 147.24 200.562 147.516 201.122 148.068C201.69 148.62 201.974 149.328 201.974 150.192C201.974 151.056 201.69 151.764 201.122 152.316C200.562 152.868 199.846 153.144 198.974 153.144C198.102 153.144 197.382 152.868 196.814 152.316C196.254 151.764 195.974 151.056 195.974 150.192C195.974 149.328 196.254 148.62 196.814 148.068C197.374 147.516 198.094 147.24 198.974 147.24ZM196.982 150.192C196.982 150.8 197.166 151.3 197.534 151.692C197.91 152.084 198.39 152.28 198.974 152.28C199.566 152.28 200.046 152.084 200.414 151.692C200.782 151.292 200.966 150.792 200.966 150.192C200.966 149.592 200.782 149.096 200.414 148.704C200.046 148.304 199.562 148.104 198.962 148.104C198.378 148.104 197.902 148.304 197.534 148.704C197.166 149.096 196.982 149.592 196.982 150.192ZM206.183 147.24C206.327 147.24 206.455 147.26 206.567 147.3L206.507 148.248C206.323 148.2 206.155 148.176 206.003 148.176C205.467 148.176 205.059 148.352 204.779 148.704C204.499 149.056 204.359 149.56 204.359 150.216V153H203.423V148.632C203.423 148.504 203.415 148.292 203.399 147.996C203.383 147.7 203.375 147.496 203.375 147.384H204.263C204.263 147.496 204.267 147.648 204.275 147.84C204.283 148.024 204.287 148.18 204.287 148.308H204.311C204.463 147.988 204.707 147.732 205.043 147.54C205.387 147.34 205.767 147.24 206.183 147.24ZM209.058 145.788V147.384H210.714V148.176H209.058V151.176C209.058 151.6 209.126 151.892 209.262 152.052C209.398 152.204 209.61 152.28 209.898 152.28C210.218 152.28 210.494 152.216 210.726 152.088L210.762 152.94C210.442 153.076 210.078 153.144 209.67 153.144C209.118 153.144 208.722 153.012 208.482 152.748C208.242 152.476 208.122 152 208.122 151.32V148.176H206.898V147.384H208.122V145.788H209.058ZM214.021 147.24C214.821 147.24 215.413 147.432 215.797 147.816C216.181 148.2 216.373 148.78 216.373 149.556V152.076C216.373 152.332 216.401 152.64 216.457 153H215.557C215.517 152.88 215.497 152.6 215.497 152.16H215.473C215.041 152.816 214.425 153.144 213.625 153.144C213.009 153.144 212.505 152.992 212.113 152.688C211.729 152.384 211.537 151.98 211.537 151.476C211.537 150.812 211.809 150.32 212.353 150C212.897 149.672 213.781 149.508 215.005 149.508H215.437V149.352C215.437 148.944 215.313 148.636 215.065 148.428C214.825 148.212 214.485 148.104 214.045 148.104C213.365 148.104 212.809 148.308 212.377 148.716L211.789 148.104C212.365 147.528 213.109 147.24 214.021 147.24ZM212.545 151.38C212.545 152.028 212.957 152.352 213.781 152.352C214.277 152.352 214.677 152.192 214.981 151.872C215.285 151.552 215.437 151.1 215.437 150.516V150.3H214.405C213.837 150.3 213.385 150.392 213.049 150.576C212.713 150.76 212.545 151.028 212.545 151.38ZM219.103 143.928V153H218.167V143.928H219.103Z" fill="black"/>
<path d="M259.6 145.42V152.5H258.76V146.5H258.74L257.47 147.57L256.97 146.96L258.87 145.42H259.6ZM265.747 145.42V150.1H266.767V150.88H265.747V152.5H264.907V150.88H261.907V149.95L264.717 145.42H265.747ZM264.887 146.4L262.627 150.1H264.907V146.4H264.887ZM273.866 145.42L276.876 152.5H275.896L275.176 150.76H271.636L270.906 152.5H269.956L273.076 145.42H273.866ZM273.436 146.5L271.966 149.98H274.856L273.456 146.5H273.436ZM278.458 147.82V150.66C278.458 151.033 278.544 151.333 278.718 151.56C278.898 151.787 279.168 151.9 279.528 151.9C280.001 151.9 280.361 151.743 280.608 151.43C280.854 151.117 280.978 150.687 280.978 150.14V147.82H281.758V151.46C281.758 151.56 281.764 151.74 281.778 152C281.791 152.253 281.798 152.42 281.798 152.5H281.058C281.058 152.387 281.054 152.257 281.048 152.11C281.041 151.957 281.038 151.83 281.038 151.73H281.018C280.898 151.997 280.694 152.213 280.408 152.38C280.121 152.54 279.801 152.62 279.448 152.62C278.881 152.62 278.444 152.453 278.138 152.12C277.831 151.787 277.678 151.33 277.678 150.75V147.82H278.458ZM285.444 147.7C285.804 147.7 286.134 147.783 286.434 147.95C286.741 148.117 286.964 148.34 287.104 148.62H287.124V147.82H287.904V152.34C287.904 153.14 287.684 153.767 287.244 154.22C286.811 154.673 286.181 154.9 285.354 154.9C284.414 154.9 283.647 154.603 283.054 154.01L283.614 153.37C284.114 153.91 284.694 154.18 285.354 154.18C286.534 154.18 287.124 153.553 287.124 152.3V151.69H287.104C286.931 151.963 286.697 152.177 286.404 152.33C286.111 152.483 285.791 152.56 285.444 152.56C284.724 152.56 284.131 152.333 283.664 151.88C283.197 151.427 282.964 150.853 282.964 150.16C282.964 149.413 283.187 148.817 283.634 148.37C284.087 147.923 284.691 147.7 285.444 147.7ZM283.804 150.16C283.804 150.627 283.964 151.023 284.284 151.35C284.604 151.677 284.994 151.84 285.454 151.84C285.954 151.84 286.357 151.68 286.664 151.36C286.971 151.033 287.124 150.627 287.124 150.14C287.124 149.633 286.967 149.22 286.654 148.9C286.347 148.58 285.944 148.42 285.444 148.42C284.971 148.42 284.577 148.587 284.264 148.92C283.957 149.247 283.804 149.66 283.804 150.16ZM290.127 147.82V150.66C290.127 151.033 290.214 151.333 290.387 151.56C290.567 151.787 290.837 151.9 291.197 151.9C291.671 151.9 292.031 151.743 292.277 151.43C292.524 151.117 292.647 150.687 292.647 150.14V147.82H293.427V151.46C293.427 151.56 293.434 151.74 293.447 152C293.461 152.253 293.467 152.42 293.467 152.5H292.727C292.727 152.387 292.724 152.257 292.717 152.11C292.711 151.957 292.707 151.83 292.707 151.73H292.687C292.567 151.997 292.364 152.213 292.077 152.38C291.791 152.54 291.471 152.62 291.117 152.62C290.551 152.62 290.114 152.453 289.807 152.12C289.501 151.787 289.347 151.33 289.347 150.75V147.82H290.127ZM296.334 147.7C297.094 147.7 297.624 147.983 297.924 148.55L297.274 148.98C297.047 148.607 296.717 148.42 296.284 148.42C296.017 148.42 295.797 148.48 295.624 148.6C295.451 148.72 295.364 148.877 295.364 149.07C295.364 149.377 295.754 149.603 296.534 149.75C297.087 149.857 297.481 150.02 297.714 150.24C297.954 150.46 298.074 150.763 298.074 151.15C298.074 151.603 297.904 151.963 297.564 152.23C297.224 152.49 296.771 152.62 296.204 152.62C295.384 152.62 294.777 152.33 294.384 151.75L295.004 151.27C295.351 151.69 295.751 151.9 296.204 151.9C296.504 151.9 296.751 151.837 296.944 151.71C297.137 151.577 297.234 151.4 297.234 151.18C297.234 150.967 297.144 150.807 296.964 150.7C296.784 150.587 296.434 150.473 295.914 150.36C295.447 150.26 295.107 150.11 294.894 149.91C294.687 149.703 294.584 149.427 294.584 149.08C294.584 148.667 294.751 148.333 295.084 148.08C295.424 147.827 295.841 147.7 296.334 147.7ZM300.342 146.49V147.82H301.722V148.48H300.342V150.98C300.342 151.333 300.399 151.577 300.512 151.71C300.625 151.837 300.802 151.9 301.042 151.9C301.309 151.9 301.539 151.847 301.732 151.74L301.762 152.45C301.495 152.563 301.192 152.62 300.852 152.62C300.392 152.62 300.062 152.51 299.862 152.29C299.662 152.063 299.562 151.667 299.562 151.1V148.48H298.542V147.82H299.562V146.49H300.342Z" fill="#D0D4E4"/>
<rect width="282" height="42" transform="translate(20 191)" fill="white"/>
<rect x="20" y="199" width="27" height="26" rx="13" fill="#D0D4E4" fill-opacity="0.2"/>
<path d="M34.25 208.375V211.75H37.625C38.0234 211.75 38.375 212.102 38.375 212.5C38.375 212.922 38.0234 213.25 37.625 213.25H34.25V216.625C34.25 217.047 33.8984 217.375 33.5 217.375C33.0781 217.375 32.75 217.047 32.75 216.625V213.25H29.375C28.9531 213.25 28.625 212.922 28.625 212.5C28.625 212.102 28.9531 211.75 29.375 211.75H32.75V208.375C32.75 207.977 33.0781 207.625 33.5 207.625C33.8984 207.625 34.25 207.977 34.25 208.375Z" fill="#777FA1"/>
</svg>
