<svg width="280" height="274" viewBox="0 0 280 274" fill="none" xmlns="http://www.w3.org/2000/svg">
<rect x="0.152344" y="0.669434" width="279.044" height="273.031" rx="24.0556" fill="white"/>
<path d="M32.4052 28.0252C32.1486 27.6531 31.8022 27.3837 31.366 27.2169C30.9426 27.0373 30.4935 26.9475 30.0189 26.9475C29.7366 26.9475 29.4608 26.9796 29.1913 27.0437C28.9347 27.1079 28.6974 27.2105 28.4793 27.3516C28.274 27.4928 28.1072 27.6788 27.9789 27.9097C27.8506 28.1278 27.7865 28.3908 27.7865 28.6987C27.7865 29.1606 27.9469 29.5134 28.2676 29.7572C28.5883 30.0009 28.9861 30.2126 29.4608 30.3923C29.9355 30.5719 30.4551 30.7451 31.0196 30.9119C31.5841 31.0786 32.1037 31.3096 32.5784 31.6047C33.0531 31.8997 33.4508 32.291 33.7715 32.7786C34.0923 33.2661 34.2526 33.914 34.2526 34.7223C34.2526 35.4535 34.1179 36.095 33.8485 36.6467C33.5791 37.1855 33.2134 37.6346 32.7516 37.9938C32.3025 38.353 31.7765 38.6225 31.1735 38.8021C30.5705 38.9817 29.9355 39.0715 29.2683 39.0715C28.4216 39.0715 27.6069 38.9304 26.8243 38.6481C26.0417 38.3659 25.3681 37.8912 24.8036 37.224L26.6318 35.4535C26.9269 35.9026 27.3118 36.2554 27.7865 36.512C28.274 36.7557 28.7872 36.8776 29.3261 36.8776C29.6083 36.8776 29.8906 36.8391 30.1728 36.7622C30.4551 36.6852 30.7117 36.5697 30.9426 36.4158C31.1735 36.2618 31.3596 36.0694 31.5007 35.8384C31.6418 35.5947 31.7124 35.3188 31.7124 35.0109C31.7124 34.5106 31.552 34.1257 31.2313 33.8563C30.9105 33.5868 30.5128 33.3623 30.0381 33.1827C29.5634 32.9903 29.0438 32.8106 28.4793 32.6439C27.9148 32.4771 27.3952 32.2525 26.9205 31.9703C26.4458 31.6752 26.0481 31.2903 25.7273 30.8156C25.4066 30.3281 25.2462 29.6802 25.2462 28.8719C25.2462 28.1663 25.3874 27.5569 25.6696 27.0437C25.9647 26.5305 26.3432 26.1072 26.805 25.7736C27.2797 25.4272 27.8186 25.1706 28.4216 25.0038C29.0246 24.837 29.6404 24.7536 30.269 24.7536C30.9875 24.7536 31.6803 24.8627 32.3474 25.0808C33.0274 25.2989 33.6368 25.6581 34.1757 26.1585L32.4052 28.0252ZM38.8755 30.7771H38.914C39.0936 30.3923 39.4079 30.0459 39.857 29.7379C40.3188 29.4172 40.909 29.2568 41.6275 29.2568C42.2433 29.2568 42.7629 29.3595 43.1863 29.5647C43.6225 29.77 43.9753 30.0394 44.2447 30.373C44.5141 30.7066 44.7066 31.0915 44.822 31.5277C44.9375 31.9639 44.9952 32.4193 44.9952 32.894V38.7251H42.6859V34.0487C42.6859 33.7921 42.6731 33.5099 42.6474 33.2019C42.6218 32.8812 42.5512 32.5861 42.4357 32.3167C42.3331 32.0344 42.1663 31.8035 41.9354 31.6239C41.7044 31.4315 41.3901 31.3352 40.9924 31.3352C40.6075 31.3352 40.2804 31.3994 40.0109 31.5277C39.7543 31.656 39.5362 31.8292 39.3566 32.0473C39.1898 32.2654 39.068 32.5156 38.991 32.7978C38.914 33.0801 38.8755 33.3751 38.8755 33.6831V38.7251H36.5662V24.1763H38.8755V30.7771ZM53.39 37.455H53.3323C52.9987 37.981 52.5753 38.3659 52.0622 38.6096C51.549 38.8406 50.9845 38.956 50.3687 38.956C49.9453 38.956 49.5283 38.8983 49.1178 38.7828C48.72 38.6674 48.3608 38.4942 48.0401 38.2632C47.7322 38.0323 47.482 37.7436 47.2895 37.3972C47.0971 37.0508 47.0009 36.6467 47.0009 36.1848C47.0009 35.6845 47.0907 35.2611 47.2703 34.9147C47.4499 34.5555 47.6873 34.2604 47.9823 34.0295C48.2903 33.7857 48.6431 33.5932 49.0408 33.4521C49.4385 33.311 49.8491 33.2084 50.2724 33.1442C50.7086 33.0672 51.1448 33.0223 51.5811 33.0095C52.0173 32.9838 52.4278 32.971 52.8127 32.971H53.39V32.7208C53.39 32.1435 53.1912 31.7137 52.7935 31.4315C52.3957 31.1364 51.889 30.9888 51.2731 30.9888C50.7856 30.9888 50.3302 31.0786 49.9068 31.2583C49.4834 31.425 49.1178 31.656 48.8099 31.9511L47.5975 30.7387C48.1106 30.2126 48.7072 29.8342 49.3872 29.6032C50.08 29.3723 50.792 29.2568 51.5233 29.2568C52.1776 29.2568 52.7293 29.3338 53.1783 29.4878C53.6274 29.6289 53.9994 29.8149 54.2945 30.0459C54.5896 30.2768 54.8141 30.5462 54.9681 30.8541C55.1349 31.1492 55.2503 31.4507 55.3145 31.7586C55.3915 32.0665 55.4364 32.368 55.4492 32.6631C55.462 32.9453 55.4684 33.1955 55.4684 33.4136V38.7251H53.39V37.455ZM53.2553 34.5875H52.7742C52.4535 34.5875 52.0942 34.6004 51.6965 34.626C51.2988 34.6517 50.9203 34.7158 50.5611 34.8185C50.2147 34.9083 49.9196 35.0494 49.6759 35.2419C49.4321 35.4215 49.3102 35.6781 49.3102 36.0116C49.3102 36.2297 49.3551 36.4158 49.4449 36.5697C49.5476 36.7108 49.6759 36.8327 49.8298 36.9354C49.9838 37.038 50.157 37.115 50.3494 37.1663C50.5419 37.2048 50.7343 37.224 50.9267 37.224C51.7222 37.224 52.3059 37.038 52.678 36.6659C53.0629 36.2811 53.2553 35.7615 53.2553 35.1071V34.5875ZM57.9531 29.4878H60.2624V30.9503H60.3009C60.5575 30.4115 60.9231 29.9945 61.3978 29.6995C61.8725 29.4044 62.4178 29.2568 63.0336 29.2568C63.1747 29.2568 63.3094 29.2697 63.4377 29.2953C63.5789 29.321 63.72 29.3531 63.8611 29.3915V31.6239C63.6687 31.5726 63.4762 31.5341 63.2838 31.5084C63.1042 31.4699 62.9245 31.4507 62.7449 31.4507C62.2061 31.4507 61.7699 31.5533 61.4363 31.7586C61.1156 31.9511 60.8654 32.1756 60.6858 32.4322C60.519 32.6888 60.4035 32.9453 60.3394 33.2019C60.2881 33.4585 60.2624 33.651 60.2624 33.7793V38.7251H57.9531V29.4878ZM67.7807 29.4878V39.2832C67.7807 39.8605 67.7422 40.3929 67.6652 40.8805C67.5882 41.3808 67.4343 41.8106 67.2033 42.1699C66.9852 42.5419 66.6709 42.8306 66.2604 43.0359C65.8498 43.2411 65.3174 43.3438 64.6631 43.3438C64.445 43.3438 64.2333 43.3309 64.028 43.3053C63.8227 43.2796 63.6174 43.2347 63.4122 43.1706L63.5854 41.1691C63.7137 41.1948 63.8356 41.214 63.951 41.2269C64.0665 41.2525 64.1884 41.2654 64.3167 41.2654C64.5989 41.2654 64.817 41.2012 64.971 41.0729C65.1378 40.9575 65.2532 40.8035 65.3174 40.6111C65.3944 40.4186 65.4393 40.2069 65.4521 39.976C65.4649 39.7451 65.4713 39.5205 65.4713 39.3024V29.4878H67.7807ZM65.1442 26.3509C65.1442 25.9789 65.2789 25.6581 65.5483 25.3887C65.8306 25.1064 66.1834 24.9653 66.6068 24.9653C67.0301 24.9653 67.3829 25.1 67.6652 25.3695C67.9603 25.626 68.1078 25.9532 68.1078 26.3509C68.1078 26.7486 67.9603 27.0822 67.6652 27.3516C67.3829 27.6082 67.0301 27.7365 66.6068 27.7365C66.1834 27.7365 65.8306 27.6018 65.5483 27.3324C65.2789 27.0501 65.1442 26.723 65.1442 26.3509ZM76.2052 37.455H76.1475C75.8139 37.981 75.3905 38.3659 74.8774 38.6096C74.3642 38.8406 73.7997 38.956 73.1838 38.956C72.7605 38.956 72.3435 38.8983 71.933 38.7828C71.5352 38.6674 71.176 38.4942 70.8553 38.2632C70.5474 38.0323 70.2972 37.7436 70.1047 37.3972C69.9123 37.0508 69.8161 36.6467 69.8161 36.1848C69.8161 35.6845 69.9059 35.2611 70.0855 34.9147C70.2651 34.5555 70.5024 34.2604 70.7975 34.0295C71.1054 33.7857 71.4583 33.5932 71.856 33.4521C72.2537 33.311 72.6642 33.2084 73.0876 33.1442C73.5238 33.0672 73.96 33.0223 74.3962 33.0095C74.8324 32.9838 75.243 32.971 75.6279 32.971H76.2052V32.7208C76.2052 32.1435 76.0064 31.7137 75.6086 31.4315C75.2109 31.1364 74.7042 30.9888 74.0883 30.9888C73.6008 30.9888 73.1454 31.0786 72.722 31.2583C72.2986 31.425 71.933 31.656 71.625 31.9511L70.4126 30.7387C70.9258 30.2126 71.5224 29.8342 72.2024 29.6032C72.8952 29.3723 73.6072 29.2568 74.3385 29.2568C74.9928 29.2568 75.5445 29.3338 75.9935 29.4878C76.4426 29.6289 76.8146 29.8149 77.1097 30.0459C77.4048 30.2768 77.6293 30.5462 77.7833 30.8541C77.95 31.1492 78.0655 31.4507 78.1297 31.7586C78.2066 32.0665 78.2515 32.368 78.2644 32.6631C78.2772 32.9453 78.2836 33.1955 78.2836 33.4136V38.7251H76.2052V37.455ZM76.0705 34.5875H75.5894C75.2687 34.5875 74.9094 34.6004 74.5117 34.626C74.114 34.6517 73.7355 34.7158 73.3763 34.8185C73.0299 34.9083 72.7348 35.0494 72.491 35.2419C72.2473 35.4215 72.1254 35.6781 72.1254 36.0116C72.1254 36.2297 72.1703 36.4158 72.2601 36.5697C72.3627 36.7108 72.491 36.8327 72.645 36.9354C72.799 37.038 72.9722 37.115 73.1646 37.1663C73.357 37.2048 73.5495 37.224 73.7419 37.224C74.5374 37.224 75.1211 37.038 75.4932 36.6659C75.8781 36.2811 76.0705 35.7615 76.0705 35.1071V34.5875ZM83.0776 30.7771H83.1161C83.2957 30.3923 83.61 30.0459 84.0591 29.7379C84.5209 29.4172 85.1111 29.2568 85.8295 29.2568C86.4454 29.2568 86.965 29.3595 87.3883 29.5647C87.8246 29.77 88.1774 30.0394 88.4468 30.373C88.7162 30.7066 88.9087 31.0915 89.0241 31.5277C89.1396 31.9639 89.1973 32.4193 89.1973 32.894V38.7251H86.888V34.0487C86.888 33.7921 86.8752 33.5099 86.8495 33.2019C86.8238 32.8812 86.7533 32.5861 86.6378 32.3167C86.5352 32.0344 86.3684 31.8035 86.1375 31.6239C85.9065 31.4315 85.5922 31.3352 85.1945 31.3352C84.8096 31.3352 84.4824 31.3994 84.213 31.5277C83.9564 31.656 83.7383 31.8292 83.5587 32.0473C83.3919 32.2654 83.27 32.5156 83.1931 32.7978C83.1161 33.0801 83.0776 33.3751 83.0776 33.6831V38.7251H80.7683V24.1763H83.0776V30.7771Z" fill="#202020"/>
<path d="M35.4217 78.6148H36.9877C37.8634 78.6148 38.7053 78.5643 39.5136 78.4633C40.3555 78.3623 41.0964 78.1434 41.7363 77.8066C42.4099 77.4698 42.9487 76.9815 43.3528 76.3416C43.757 75.7017 43.959 74.8429 43.959 73.7652C43.959 72.3845 43.4876 71.2563 42.5446 70.3806C41.6016 69.505 40.3724 69.0672 38.8569 69.0672C37.6445 69.0672 36.5499 69.4208 35.5733 70.128C34.6303 70.8016 33.9399 71.7614 33.5021 73.0075L27.0865 71.2899C27.4906 69.9765 28.0631 68.8315 28.804 67.8548C29.545 66.8781 30.4206 66.0867 31.4309 65.4805C32.4412 64.8406 33.5526 64.3691 34.765 64.066C35.9774 63.7629 37.2403 63.6114 38.5538 63.6114C40.1029 63.6114 41.5679 63.8135 42.9487 64.2176C44.3295 64.6217 45.5419 65.2279 46.5859 66.0362C47.6299 66.8108 48.455 67.8043 49.0612 69.0167C49.7011 70.1954 50.021 71.5762 50.021 73.159C50.021 75.0787 49.4822 76.7962 48.4045 78.3117C47.3268 79.7936 45.8282 80.7702 43.9085 81.2417V81.3427C46.1986 81.6795 47.933 82.6562 49.1117 84.2727C50.2905 85.8892 50.8798 87.8089 50.8798 90.0316C50.8798 91.7492 50.5431 93.2647 49.8695 94.5781C49.2296 95.8915 48.354 97.0029 47.2426 97.9122C46.1313 98.7878 44.8347 99.4614 43.3528 99.9329C41.9047 100.371 40.3892 100.59 38.8063 100.59C37.3245 100.59 35.9269 100.421 34.6135 100.084C33.3 99.7813 32.1045 99.293 31.0268 98.6194C29.9828 97.9459 29.0735 97.0871 28.2989 96.0431C27.5243 94.9654 26.9349 93.6857 26.5308 92.2038L32.9969 90.4863C33.3674 91.9681 34.0241 93.1131 34.9671 93.9214C35.9101 94.7297 37.1898 95.1338 38.8063 95.1338C39.6146 95.1338 40.3724 94.9991 41.0796 94.7297C41.8205 94.4602 42.4604 94.0898 42.9992 93.6183C43.5718 93.1131 44.0096 92.5238 44.3127 91.8502C44.6494 91.143 44.8178 90.3684 44.8178 89.5264C44.8178 88.3814 44.5652 87.4553 44.0601 86.748C43.5886 86.0071 42.9656 85.4514 42.191 85.081C41.4501 84.6768 40.6081 84.4074 39.6651 84.2727C38.7222 84.138 37.796 84.0706 36.8867 84.0706H35.4217V78.6148ZM76.1784 64.2176L67.5906 77.453L67.6916 77.554C68.0621 77.3519 68.5504 77.2004 69.1566 77.0993C69.7965 76.9983 70.4195 76.9478 71.0257 76.9478C72.6086 76.9478 74.0567 77.2509 75.3702 77.8571C76.6836 78.4633 77.8118 79.2884 78.7548 80.3324C79.7314 81.3764 80.4723 82.5888 80.9775 83.9696C81.5163 85.3504 81.7858 86.8154 81.7858 88.3646C81.7858 90.2168 81.4658 91.9007 80.826 93.4162C80.1861 94.9317 79.2936 96.2283 78.1486 97.306C77.0372 98.35 75.6901 99.1583 74.1072 99.7308C72.5581 100.303 70.8742 100.59 69.0556 100.59C67.1696 100.59 65.452 100.32 63.9029 99.7813C62.3537 99.2088 61.0066 98.4005 59.8615 97.3565C58.7502 96.3125 57.8745 95.0328 57.2347 93.5173C56.6285 92.0018 56.3254 90.301 56.3254 88.4151C56.3254 86.5291 56.6285 84.8284 57.2347 83.3129C57.8745 81.7637 58.6828 80.1977 59.6595 78.6148L68.803 64.2176H76.1784ZM62.6905 88.314C62.6905 89.2233 62.8589 90.0821 63.1956 90.8904C63.5324 91.665 63.9871 92.3554 64.5596 92.9616C65.1658 93.5341 65.8562 93.9888 66.6308 94.3255C67.439 94.6623 68.2978 94.8307 69.2071 94.8307C70.1164 94.8307 70.9584 94.6623 71.733 94.3255C72.5412 93.9888 73.2316 93.5341 73.8041 92.9616C74.4103 92.3554 74.8818 91.665 75.2186 90.8904C75.5554 90.0821 75.7238 89.2233 75.7238 88.314C75.7238 87.4047 75.5554 86.5628 75.2186 85.7882C74.8818 84.9799 74.4103 84.2896 73.8041 83.717C73.2316 83.1108 72.5412 82.6393 71.733 82.3026C70.9584 81.9658 70.1164 81.7974 69.2071 81.7974C68.2978 81.7974 67.439 81.9658 66.6308 82.3026C65.8562 82.6393 65.1658 83.1108 64.5596 83.717C63.9871 84.2896 63.5324 84.9799 63.1956 85.7882C62.8589 86.5628 62.6905 87.4047 62.6905 88.314ZM86.0189 71.6941C86.0189 70.5827 86.221 69.5387 86.6251 68.562C87.0629 67.5854 87.6523 66.7266 88.3932 65.9857C89.1341 65.2448 89.9929 64.6722 90.9695 64.2681C91.9462 63.8303 92.9902 63.6114 94.1016 63.6114C95.2129 63.6114 96.257 63.8303 97.2336 64.2681C98.2103 64.6722 99.069 65.2448 99.81 65.9857C100.551 66.7266 101.123 67.5854 101.528 68.562C101.965 69.5387 102.184 70.5827 102.184 71.6941C102.184 72.8054 101.965 73.8494 101.528 74.8261C101.123 75.8028 100.551 76.6615 99.81 77.4024C99.069 78.1434 98.2103 78.7327 97.2336 79.1705C96.257 79.5747 95.2129 79.7767 94.1016 79.7767C92.9902 79.7767 91.9462 79.5747 90.9695 79.1705C89.9929 78.7327 89.1341 78.1434 88.3932 77.4024C87.6523 76.6615 87.0629 75.8028 86.6251 74.8261C86.221 73.8494 86.0189 72.8054 86.0189 71.6941ZM89.9592 71.6941C89.9592 72.8391 90.3633 73.8158 91.1716 74.624C91.9799 75.4323 92.9565 75.8364 94.1016 75.8364C95.2466 75.8364 96.2233 75.4323 97.0315 74.624C97.8398 73.8158 98.2439 72.8391 98.2439 71.6941C98.2439 70.549 97.8398 69.5724 97.0315 68.7641C96.2233 67.9558 95.2466 67.5517 94.1016 67.5517C92.9565 67.5517 91.9799 67.9558 91.1716 68.7641C90.3633 69.5724 89.9592 70.549 89.9592 71.6941Z" fill="#202020"/>
<path d="M229.883 22.523C230.673 22.523 231.462 23.3123 231.462 24.1017V31.9949C231.462 32.8829 230.673 33.5735 229.883 33.5735C228.995 33.5735 228.305 32.8829 228.305 31.9949V24.1017C228.305 23.3123 228.995 22.523 229.883 22.523ZM204.625 47.7813C204.625 46.992 205.316 46.2027 206.204 46.2027H214.097C214.886 46.2027 215.676 46.992 215.676 47.7813C215.676 48.6693 214.886 49.36 214.097 49.36H206.204C205.316 49.36 204.625 48.6693 204.625 47.7813ZM244.091 47.7813C244.091 46.992 244.782 46.2027 245.67 46.2027H253.563C254.352 46.2027 255.142 46.992 255.142 47.7813C255.142 48.6693 254.352 49.36 253.563 49.36H245.67C244.782 49.36 244.091 48.6693 244.091 47.7813ZM229.883 61.9892C230.673 61.9892 231.462 62.7785 231.462 63.5678V71.461C231.462 72.349 230.673 73.0397 229.883 73.0397C228.995 73.0397 228.305 72.349 228.305 71.461V63.5678C228.305 62.7785 228.995 61.9892 229.883 61.9892ZM212.025 29.9229C212.617 29.3309 213.604 29.3309 214.196 29.9229L219.819 35.5468C220.411 36.1388 220.411 37.1255 219.819 37.8161C219.227 38.4081 218.142 38.4081 217.55 37.8161L212.025 32.1922C211.334 31.6002 211.334 30.6136 212.025 29.9229ZM212.025 65.6398C211.334 65.0478 211.334 64.0611 212.025 63.4691L217.55 57.8452C218.142 57.2532 219.227 57.2532 219.819 57.8452C220.411 58.4372 220.411 59.5225 219.819 60.1145L214.196 65.6398C213.604 66.3304 212.617 66.3304 212.025 65.6398ZM239.849 37.8161C239.257 37.1255 239.257 36.1388 239.849 35.5468L245.472 29.9229C246.064 29.3309 247.051 29.3309 247.742 29.9229C248.334 30.6136 248.334 31.6002 247.742 32.1922L242.118 37.8161C241.526 38.4081 240.539 38.4081 239.849 37.8161ZM239.849 57.8452C240.539 57.2532 241.526 57.2532 242.118 57.8452L247.742 63.4691C248.334 64.0611 248.334 65.0478 247.742 65.6398C247.051 66.3304 246.064 66.3304 245.472 65.6398L239.849 60.1145C239.257 59.5225 239.257 58.4372 239.849 57.8452ZM237.777 47.7813C237.777 45.0187 236.198 42.4534 233.83 40.9734C231.363 39.5921 228.305 39.5921 225.937 40.9734C223.47 42.4534 221.99 45.0187 221.99 47.7813C221.99 50.6426 223.47 53.2079 225.937 54.6879C228.305 56.0692 231.363 56.0692 233.83 54.6879C236.198 53.2079 237.777 50.6426 237.777 47.7813ZM218.833 47.7813C218.833 43.8347 220.905 40.2828 224.358 38.3095C227.713 36.2375 231.955 36.2375 235.409 38.3095C238.763 40.2828 240.934 43.8347 240.934 47.7813C240.934 51.8266 238.763 55.3786 235.409 57.3519C231.955 59.4239 227.713 59.4239 224.358 57.3519C220.905 55.3786 218.833 51.8266 218.833 47.7813Z" fill="#FFC700"/>
<path d="M26.1074 205.471H32.7468C33.3882 205.471 34.0217 205.551 34.6471 205.712C35.2726 205.856 35.8259 206.105 36.307 206.457C36.8041 206.794 37.2051 207.235 37.5098 207.78C37.8145 208.326 37.9668 208.983 37.9668 209.753C37.9668 210.715 37.6942 211.509 37.1489 212.134C36.6037 212.76 35.89 213.209 35.008 213.482V213.53C35.5372 213.594 36.0263 213.746 36.4754 213.987C36.9404 214.211 37.3333 214.508 37.6541 214.877C37.9748 215.23 38.2234 215.647 38.3998 216.128C38.5923 216.593 38.6885 217.098 38.6885 217.643C38.6885 218.573 38.5041 219.351 38.1352 219.977C37.7663 220.586 37.2772 221.083 36.6678 221.468C36.0744 221.837 35.3848 222.102 34.599 222.262C33.8293 222.422 33.0434 222.502 32.2416 222.502H26.1074V205.471ZM29.1384 212.399H31.9048C32.9151 212.399 33.6689 212.207 34.166 211.822C34.6792 211.421 34.9358 210.9 34.9358 210.258C34.9358 209.52 34.6712 208.975 34.142 208.622C33.6288 208.254 32.7949 208.069 31.6402 208.069H29.1384V212.399ZM29.1384 219.904H31.9289C32.3138 219.904 32.7227 219.88 33.1557 219.832C33.6047 219.784 34.0137 219.672 34.3825 219.495C34.7514 219.319 35.0561 219.071 35.2966 218.75C35.5372 218.413 35.6575 217.964 35.6575 217.403C35.6575 216.505 35.3608 215.879 34.7674 215.526C34.1901 215.174 33.284 214.997 32.0491 214.997H29.1384V219.904ZM41.4413 210.956H44.328V212.784H44.3761C44.6969 212.11 45.1539 211.589 45.7473 211.22C46.3406 210.852 47.0222 210.667 47.792 210.667C47.9684 210.667 48.1368 210.683 48.2972 210.715C48.4736 210.747 48.65 210.787 48.8264 210.835V213.626C48.5858 213.562 48.3453 213.514 48.1047 213.482C47.8802 213.433 47.6557 213.409 47.4312 213.409C46.7576 213.409 46.2124 213.538 45.7954 213.794C45.3945 214.035 45.0817 214.316 44.8572 214.636C44.6487 214.957 44.5044 215.278 44.4242 215.598C44.3601 215.919 44.328 216.16 44.328 216.32V222.502H41.4413V210.956ZM50.8392 210.956H53.7258V222.502H50.8392V210.956ZM50.4302 207.035C50.4302 206.57 50.5986 206.169 50.9354 205.832C51.2882 205.479 51.7292 205.303 52.2584 205.303C52.7877 205.303 53.2287 205.471 53.5815 205.808C53.9503 206.129 54.1348 206.538 54.1348 207.035C54.1348 207.532 53.9503 207.949 53.5815 208.286C53.2287 208.606 52.7877 208.767 52.2584 208.767C51.7292 208.767 51.2882 208.598 50.9354 208.262C50.5986 207.909 50.4302 207.5 50.4302 207.035ZM68.9233 210.956V221.468C68.9233 222.51 68.795 223.449 68.5384 224.283C68.2818 225.133 67.8809 225.846 67.3356 226.423C66.8064 227.017 66.1329 227.474 65.315 227.795C64.4971 228.115 63.5268 228.276 62.4042 228.276C61.3298 228.276 60.3114 228.139 59.3492 227.867C58.387 227.594 57.4969 227.097 56.679 226.375L58.411 224.018C58.9884 224.547 59.5897 224.956 60.2152 225.245C60.8406 225.533 61.5623 225.678 62.3802 225.678C63.0698 225.678 63.6471 225.582 64.1122 225.389C64.5933 225.197 64.9702 224.932 65.2428 224.595C65.5315 224.258 65.7319 223.85 65.8442 223.368C65.9725 222.903 66.0366 222.382 66.0366 221.805V220.963H65.9885C65.5716 221.524 65.0183 221.949 64.3287 222.238C63.6391 222.51 62.9335 222.647 62.2118 222.647C61.3458 222.647 60.56 222.494 59.8544 222.19C59.1487 221.869 58.5393 221.444 58.0261 220.915C57.529 220.386 57.1441 219.76 56.8715 219.038C56.5988 218.317 56.4625 217.547 56.4625 216.729C56.4625 215.879 56.5908 215.085 56.8474 214.348C57.104 213.61 57.4809 212.968 57.978 212.423C58.4752 211.878 59.0685 211.453 59.7581 211.148C60.4638 210.827 61.2656 210.667 62.1637 210.667C62.9816 210.667 63.7433 210.827 64.449 211.148C65.1546 211.469 65.7159 211.982 66.1329 212.688H66.181V210.956H68.9233ZM62.7651 213.265C62.2519 213.265 61.7868 213.353 61.3699 213.53C60.9529 213.69 60.5921 213.923 60.2874 214.227C59.9987 214.516 59.7662 214.877 59.5897 215.31C59.4294 215.727 59.3492 216.192 59.3492 216.705C59.3492 217.17 59.4294 217.603 59.5897 218.004C59.7662 218.405 60.0067 218.758 60.3114 219.062C60.6161 219.367 60.9769 219.608 61.3939 219.784C61.8109 219.961 62.2599 220.049 62.741 220.049C63.2702 220.049 63.7433 219.961 64.1603 219.784C64.5933 219.608 64.9541 219.375 65.2428 219.087C65.5475 218.782 65.78 218.421 65.9404 218.004C66.1008 217.587 66.181 217.138 66.181 216.657C66.181 215.647 65.8763 214.829 65.2669 214.203C64.6575 213.578 63.8235 213.265 62.7651 213.265ZM75.0787 212.567H75.1268C75.3513 212.086 75.7442 211.653 76.3055 211.268C76.8829 210.868 77.6206 210.667 78.5186 210.667C79.2884 210.667 79.9379 210.795 80.4671 211.052C81.0124 211.309 81.4534 211.645 81.7902 212.062C82.127 212.479 82.3675 212.96 82.5119 213.506C82.6562 214.051 82.7284 214.62 82.7284 215.214V222.502H79.8417V216.657C79.8417 216.336 79.8257 215.983 79.7936 215.598C79.7615 215.198 79.6733 214.829 79.529 214.492C79.4007 214.139 79.1922 213.85 78.9035 213.626C78.6149 213.385 78.222 213.265 77.7248 213.265C77.2437 213.265 76.8348 213.345 76.498 213.506C76.1772 213.666 75.9046 213.883 75.6801 214.155C75.4716 214.428 75.3193 214.741 75.223 215.093C75.1268 215.446 75.0787 215.815 75.0787 216.2V222.502H72.192V204.316H75.0787V212.567ZM84.6581 213.409V210.956H87.0396V207.612H89.9262V210.956H93.1016V213.409H89.9262V218.461C89.9262 219.038 90.0305 219.495 90.239 219.832C90.4635 220.169 90.8965 220.337 91.538 220.337C91.7946 220.337 92.0752 220.313 92.3799 220.265C92.6846 220.201 92.9252 220.105 93.1016 219.977V222.406C92.7969 222.551 92.42 222.647 91.971 222.695C91.538 222.759 91.1531 222.791 90.8163 222.791C90.0465 222.791 89.4131 222.703 88.9159 222.526C88.4348 222.366 88.0499 222.118 87.7612 221.781C87.4886 221.428 87.2962 220.995 87.1839 220.482C87.0877 219.969 87.0396 219.375 87.0396 218.702V213.409H84.6581ZM111.085 209.128C110.764 208.662 110.331 208.326 109.786 208.117C109.257 207.893 108.695 207.78 108.102 207.78C107.749 207.78 107.404 207.821 107.068 207.901C106.747 207.981 106.45 208.109 106.177 208.286C105.921 208.462 105.712 208.695 105.552 208.983C105.392 209.256 105.311 209.585 105.311 209.969C105.311 210.547 105.512 210.988 105.913 211.293C106.314 211.597 106.811 211.862 107.404 212.086C107.998 212.311 108.647 212.527 109.353 212.736C110.058 212.944 110.708 213.233 111.301 213.602C111.895 213.971 112.392 214.46 112.793 215.069C113.194 215.679 113.394 216.489 113.394 217.499C113.394 218.413 113.226 219.215 112.889 219.904C112.552 220.578 112.095 221.139 111.518 221.588C110.956 222.037 110.299 222.374 109.545 222.599C108.791 222.823 107.998 222.935 107.164 222.935C106.105 222.935 105.087 222.759 104.109 222.406C103.13 222.053 102.288 221.46 101.583 220.626L103.868 218.413C104.237 218.974 104.718 219.415 105.311 219.736C105.921 220.041 106.562 220.193 107.236 220.193C107.589 220.193 107.942 220.145 108.294 220.049C108.647 219.953 108.968 219.808 109.257 219.616C109.545 219.423 109.778 219.183 109.954 218.894C110.131 218.589 110.219 218.245 110.219 217.86C110.219 217.234 110.018 216.753 109.617 216.416C109.216 216.08 108.719 215.799 108.126 215.574C107.533 215.334 106.883 215.109 106.177 214.901C105.472 214.692 104.822 214.412 104.229 214.059C103.636 213.69 103.138 213.209 102.738 212.616C102.337 212.006 102.136 211.196 102.136 210.186C102.136 209.304 102.313 208.542 102.665 207.901C103.034 207.259 103.507 206.73 104.085 206.313C104.678 205.88 105.352 205.559 106.105 205.351C106.859 205.142 107.629 205.038 108.415 205.038C109.313 205.038 110.179 205.174 111.013 205.447C111.863 205.72 112.624 206.169 113.298 206.794L111.085 209.128ZM126.822 222.502H124.08V220.65H124.032C123.759 221.227 123.342 221.733 122.781 222.166C122.22 222.583 121.458 222.791 120.496 222.791C119.726 222.791 119.068 222.671 118.523 222.43C117.994 222.174 117.561 221.837 117.224 221.42C116.887 220.987 116.647 220.498 116.503 219.953C116.358 219.407 116.286 218.838 116.286 218.245V210.956H119.173V216.801C119.173 217.122 119.189 217.483 119.221 217.884C119.253 218.269 119.333 218.638 119.461 218.99C119.606 219.327 119.814 219.616 120.087 219.856C120.376 220.081 120.776 220.193 121.29 220.193C121.771 220.193 122.172 220.113 122.492 219.953C122.829 219.792 123.102 219.576 123.31 219.303C123.535 219.03 123.695 218.718 123.791 218.365C123.888 218.012 123.936 217.643 123.936 217.258V210.956H126.822V222.502ZM130.099 210.956H132.842V212.808H132.89C133.162 212.231 133.579 211.734 134.141 211.317C134.702 210.884 135.464 210.667 136.426 210.667C137.196 210.667 137.845 210.795 138.374 211.052C138.92 211.309 139.361 211.645 139.697 212.062C140.034 212.479 140.275 212.96 140.419 213.506C140.563 214.051 140.636 214.62 140.636 215.214V222.502H137.749V216.657C137.749 216.336 137.733 215.983 137.701 215.598C137.669 215.198 137.58 214.829 137.436 214.492C137.308 214.139 137.099 213.85 136.811 213.626C136.522 213.385 136.129 213.265 135.632 213.265C135.151 213.265 134.742 213.345 134.405 213.506C134.084 213.666 133.812 213.883 133.587 214.155C133.379 214.428 133.226 214.741 133.13 215.093C133.034 215.446 132.986 215.815 132.986 216.2V222.502H130.099V210.956Z" fill="#D0D4E4"/>
<path d="M32.1435 244.694C32.1435 244.93 32.0593 245.143 31.891 245.334C31.7226 245.514 31.5037 245.603 31.2342 245.603C30.9648 245.603 30.7459 245.514 30.5775 245.334C30.4091 245.143 30.3249 244.93 30.3249 244.694C30.3249 244.458 30.4091 244.251 30.5775 244.071C30.7459 243.88 30.9648 243.785 31.2342 243.785C31.5037 243.785 31.7226 243.88 31.891 244.071C32.0593 244.251 32.1435 244.458 32.1435 244.694ZM57.8781 243.684H57.9118V233.581H59.1242V245.502H57.6087L50.5027 235.298H50.469V245.502H49.2566V233.581H50.7721L57.8781 243.684ZM68.7109 241.562C68.7109 241.124 68.6379 240.715 68.492 240.333C68.3573 239.951 68.1608 239.62 67.9026 239.339C67.6444 239.059 67.3301 238.84 66.9597 238.683C66.6004 238.514 66.1907 238.43 65.7304 238.43C65.2701 238.43 64.8548 238.514 64.4843 238.683C64.1251 238.84 63.8164 239.059 63.5582 239.339C63.3112 239.62 63.1148 239.951 62.9688 240.333C62.8341 240.715 62.7668 241.124 62.7668 241.562C62.7668 242 62.8341 242.41 62.9688 242.791C63.1148 243.173 63.3112 243.504 63.5582 243.785C63.8164 244.066 64.1251 244.29 64.4843 244.458C64.8548 244.616 65.2701 244.694 65.7304 244.694C66.1907 244.694 66.6004 244.616 66.9597 244.458C67.3301 244.29 67.6444 244.066 67.9026 243.785C68.1608 243.504 68.3573 243.173 68.492 242.791C68.6379 242.41 68.7109 242 68.7109 241.562ZM69.9233 241.562C69.9233 242.157 69.8166 242.707 69.6034 243.212C69.4013 243.718 69.115 244.155 68.7446 244.526C68.3741 244.896 67.9307 245.188 67.4143 245.401C66.9091 245.603 66.3478 245.705 65.7304 245.705C65.1242 245.705 64.5629 245.603 64.0465 245.401C63.5414 245.188 63.1035 244.896 62.7331 244.526C62.3626 244.155 62.0708 243.718 61.8575 243.212C61.6554 242.707 61.5544 242.157 61.5544 241.562C61.5544 240.967 61.6554 240.417 61.8575 239.912C62.0708 239.407 62.3626 238.969 62.7331 238.598C63.1035 238.228 63.5414 237.942 64.0465 237.74C64.5629 237.526 65.1242 237.42 65.7304 237.42C66.3478 237.42 66.9091 237.526 67.4143 237.74C67.9307 237.942 68.3741 238.228 68.7446 238.598C69.115 238.969 69.4013 239.407 69.6034 239.912C69.8166 240.417 69.9233 240.967 69.9233 241.562ZM82.3688 239.474C82.178 239.182 81.9086 238.935 81.5605 238.733C81.2238 238.531 80.8365 238.43 80.3987 238.43C79.9384 238.419 79.523 238.492 79.1526 238.649C78.7934 238.806 78.4846 239.025 78.2264 239.306C77.9683 239.586 77.7718 239.923 77.6371 240.316C77.5024 240.698 77.435 241.113 77.435 241.562C77.435 242.011 77.5024 242.432 77.6371 242.825C77.7718 243.207 77.9683 243.538 78.2264 243.819C78.4846 244.099 78.7934 244.318 79.1526 244.475C79.523 244.632 79.9384 244.705 80.3987 244.694C80.8365 244.694 81.2238 244.593 81.5605 244.391C81.9086 244.189 82.178 243.942 82.3688 243.65L83.2781 244.341C82.8852 244.801 82.4418 245.143 81.9478 245.368C81.4539 245.581 80.9375 245.693 80.3987 245.705C79.7588 245.716 79.1807 245.62 78.6643 245.418C78.1479 245.205 77.7044 244.913 77.334 244.543C76.9748 244.172 76.6997 243.734 76.5089 243.229C76.318 242.713 76.2226 242.157 76.2226 241.562C76.2226 240.967 76.318 240.417 76.5089 239.912C76.6997 239.396 76.9748 238.952 77.334 238.582C77.7044 238.211 78.1479 237.925 78.6643 237.723C79.1807 237.51 79.7588 237.409 80.3987 237.42C80.9375 237.431 81.4539 237.549 81.9478 237.773C82.4418 237.987 82.8852 238.323 83.2781 238.784L82.3688 239.474ZM84.7502 232.772H85.8616V238.885H85.8952C86.0187 238.671 86.1759 238.475 86.3667 238.295C86.5576 238.116 86.7709 237.964 87.0066 237.841C87.2424 237.706 87.4893 237.605 87.7475 237.538C88.0169 237.459 88.2808 237.42 88.5389 237.42C89.5493 237.42 90.2958 237.689 90.7785 238.228C91.2612 238.756 91.5026 239.513 91.5026 240.501V245.502H90.3912V241.141C90.3912 240.266 90.2397 239.598 89.9366 239.137C89.6335 238.666 89.0722 238.43 88.2527 238.43C88.1966 238.43 88.0394 238.453 87.7812 238.497C87.523 238.542 87.248 238.666 86.9561 238.868C86.6754 239.07 86.4229 239.373 86.1983 239.777C85.9738 240.181 85.8616 240.743 85.8616 241.461V245.502H84.7502V232.772ZM98.5861 241.579C98.3055 241.579 97.9518 241.596 97.5253 241.629C97.1099 241.652 96.7058 241.719 96.3129 241.832C95.9312 241.933 95.6 242.095 95.3194 242.32C95.0499 242.544 94.9152 242.853 94.9152 243.246C94.9152 243.504 94.9657 243.729 95.0668 243.92C95.179 244.099 95.325 244.251 95.5046 244.374C95.6842 244.486 95.8807 244.571 96.094 244.627C96.3185 244.672 96.543 244.694 96.7675 244.694C97.1716 244.694 97.5196 244.627 97.8115 244.492C98.1146 244.357 98.3672 244.178 98.5693 243.953C98.7713 243.718 98.9173 243.448 99.0071 243.145C99.1081 242.831 99.1586 242.5 99.1586 242.152V241.579H98.5861ZM99.1586 240.67V240.468C99.1586 239.109 98.4851 238.43 97.138 238.43C96.2174 238.43 95.4148 238.739 94.73 239.356L94.0564 238.565C94.7974 237.801 95.9087 237.42 97.3905 237.42C97.7722 237.42 98.1371 237.476 98.4851 237.588C98.8443 237.7 99.153 237.874 99.4112 238.11C99.6694 238.335 99.8771 238.621 100.034 238.969C100.191 239.317 100.27 239.732 100.27 240.215V243.734C100.27 244.037 100.281 244.357 100.304 244.694C100.337 245.02 100.371 245.289 100.405 245.502H99.327C99.2933 245.312 99.2653 245.104 99.2428 244.879C99.2316 244.655 99.226 244.436 99.226 244.223H99.1923C98.8668 244.75 98.4795 245.132 98.0304 245.368C97.5926 245.592 97.0538 245.705 96.4139 245.705C96.0659 245.705 95.7291 245.654 95.4036 245.553C95.078 245.463 94.7861 245.323 94.5279 245.132C94.281 244.93 94.0789 244.689 93.9217 244.408C93.7758 244.116 93.7028 243.779 93.7028 243.398C93.7028 242.758 93.8656 242.258 94.1912 241.899C94.5279 241.528 94.9433 241.253 95.4372 241.074C95.9424 240.894 96.4756 240.782 97.0369 240.737C97.6095 240.692 98.1315 240.67 98.6029 240.67H99.1586ZM103.9 237.622C103.922 237.835 103.933 238.048 103.933 238.262C103.945 238.464 103.95 238.671 103.95 238.885H103.984C104.107 238.671 104.265 238.475 104.455 238.295C104.646 238.116 104.86 237.964 105.095 237.841C105.331 237.706 105.578 237.605 105.836 237.538C106.106 237.459 106.369 237.42 106.628 237.42C107.638 237.42 108.384 237.689 108.867 238.228C109.35 238.756 109.591 239.513 109.591 240.501V245.502H108.48V241.141C108.48 240.266 108.328 239.598 108.025 239.137C107.722 238.666 107.161 238.43 106.341 238.43C106.285 238.43 106.128 238.453 105.87 238.497C105.612 238.542 105.337 238.666 105.045 238.868C104.764 239.07 104.512 239.373 104.287 239.777C104.062 240.181 103.95 240.743 103.95 241.461V245.502H102.839V239.356C102.839 239.143 102.828 238.874 102.805 238.548C102.794 238.222 102.777 237.914 102.755 237.622H103.9ZM117.938 239.474C117.747 239.182 117.477 238.935 117.129 238.733C116.793 238.531 116.405 238.43 115.968 238.43C115.507 238.419 115.092 238.492 114.721 238.649C114.362 238.806 114.054 239.025 113.795 239.306C113.537 239.586 113.341 239.923 113.206 240.316C113.071 240.698 113.004 241.113 113.004 241.562C113.004 242.011 113.071 242.432 113.206 242.825C113.341 243.207 113.537 243.538 113.795 243.819C114.054 244.099 114.362 244.318 114.721 244.475C115.092 244.632 115.507 244.705 115.968 244.694C116.405 244.694 116.793 244.593 117.129 244.391C117.477 244.189 117.747 243.942 117.938 243.65L118.847 244.341C118.454 244.801 118.011 245.143 117.517 245.368C117.023 245.581 116.506 245.693 115.968 245.705C115.328 245.716 114.75 245.62 114.233 245.418C113.717 245.205 113.273 244.913 112.903 244.543C112.544 244.172 112.269 243.734 112.078 243.229C111.887 242.713 111.791 242.157 111.791 241.562C111.791 240.967 111.887 240.417 112.078 239.912C112.269 239.396 112.544 238.952 112.903 238.582C113.273 238.211 113.717 237.925 114.233 237.723C114.75 237.51 115.328 237.409 115.968 237.42C116.506 237.431 117.023 237.549 117.517 237.773C118.011 237.987 118.454 238.323 118.847 238.784L117.938 239.474ZM126.448 240.956C126.448 240.204 126.224 239.598 125.775 239.137C125.326 238.666 124.697 238.43 123.889 238.43C123.53 238.43 123.182 238.503 122.845 238.649C122.508 238.784 122.211 238.969 121.952 239.205C121.705 239.44 121.503 239.71 121.346 240.013C121.2 240.316 121.127 240.63 121.127 240.956H126.448ZM121.094 241.865C121.127 242.258 121.223 242.629 121.38 242.977C121.537 243.325 121.745 243.628 122.003 243.886C122.261 244.133 122.559 244.329 122.895 244.475C123.232 244.621 123.597 244.694 123.99 244.694C124.585 244.694 125.096 244.559 125.522 244.29C125.96 244.009 126.291 243.689 126.516 243.33L127.375 244.037C126.903 244.632 126.381 245.059 125.809 245.317C125.247 245.575 124.641 245.705 123.99 245.705C123.406 245.705 122.862 245.603 122.357 245.401C121.863 245.188 121.436 244.896 121.077 244.526C120.718 244.155 120.431 243.718 120.218 243.212C120.016 242.707 119.915 242.157 119.915 241.562C119.915 240.967 120.016 240.417 120.218 239.912C120.42 239.407 120.701 238.969 121.06 238.598C121.419 238.228 121.84 237.942 122.323 237.74C122.806 237.526 123.328 237.42 123.889 237.42C124.484 237.42 125.017 237.526 125.489 237.74C125.96 237.953 126.353 238.239 126.667 238.598C126.993 238.947 127.24 239.362 127.408 239.845C127.577 240.316 127.661 240.821 127.661 241.36V241.865H121.094ZM133.852 239.491C133.683 239.165 133.459 238.907 133.178 238.716C132.898 238.526 132.555 238.43 132.151 238.43C131.96 238.43 131.764 238.453 131.562 238.497C131.371 238.542 131.197 238.615 131.04 238.716C130.883 238.806 130.754 238.924 130.652 239.07C130.563 239.216 130.518 239.396 130.518 239.609C130.518 239.979 130.647 240.249 130.905 240.417C131.163 240.585 131.551 240.731 132.067 240.855L133.195 241.124C133.745 241.248 134.2 241.5 134.559 241.882C134.93 242.253 135.115 242.718 135.115 243.28C135.115 243.706 135.025 244.077 134.845 244.391C134.677 244.694 134.447 244.947 134.155 245.149C133.874 245.34 133.549 245.48 133.178 245.57C132.808 245.66 132.432 245.705 132.05 245.705C131.444 245.705 130.877 245.592 130.349 245.368C129.833 245.132 129.39 244.733 129.019 244.172L129.979 243.515C130.203 243.875 130.484 244.161 130.821 244.374C131.169 244.588 131.579 244.694 132.05 244.694C132.275 244.694 132.499 244.672 132.724 244.627C132.948 244.571 133.145 244.492 133.313 244.391C133.493 244.279 133.633 244.138 133.734 243.97C133.846 243.802 133.902 243.605 133.902 243.381C133.902 242.988 133.756 242.707 133.465 242.539C133.173 242.359 132.819 242.219 132.404 242.118L131.326 241.865C131.191 241.832 131.006 241.775 130.77 241.697C130.546 241.618 130.321 241.5 130.097 241.343C129.884 241.186 129.698 240.984 129.541 240.737C129.384 240.479 129.305 240.165 129.305 239.794C129.305 239.39 129.384 239.036 129.541 238.733C129.71 238.43 129.928 238.183 130.198 237.992C130.478 237.801 130.793 237.661 131.141 237.571C131.489 237.47 131.848 237.42 132.218 237.42C132.769 237.42 133.279 237.526 133.751 237.74C134.222 237.953 134.587 238.318 134.845 238.834L133.852 239.491ZM148.285 241.562C148.285 241.124 148.212 240.715 148.066 240.333C147.931 239.951 147.734 239.62 147.476 239.339C147.218 239.059 146.904 238.84 146.533 238.683C146.174 238.514 145.764 238.43 145.304 238.43C144.844 238.43 144.428 238.514 144.058 238.683C143.699 238.84 143.39 239.059 143.132 239.339C142.885 239.62 142.688 239.951 142.542 240.333C142.408 240.715 142.34 241.124 142.34 241.562C142.34 242 142.408 242.41 142.542 242.791C142.688 243.173 142.885 243.504 143.132 243.785C143.39 244.066 143.699 244.29 144.058 244.458C144.428 244.616 144.844 244.694 145.304 244.694C145.764 244.694 146.174 244.616 146.533 244.458C146.904 244.29 147.218 244.066 147.476 243.785C147.734 243.504 147.931 243.173 148.066 242.791C148.212 242.41 148.285 242 148.285 241.562ZM149.497 241.562C149.497 242.157 149.39 242.707 149.177 243.212C148.975 243.718 148.689 244.155 148.318 244.526C147.948 244.896 147.504 245.188 146.988 245.401C146.483 245.603 145.921 245.705 145.304 245.705C144.698 245.705 144.137 245.603 143.62 245.401C143.115 245.188 142.677 244.896 142.307 244.526C141.936 244.155 141.644 243.718 141.431 243.212C141.229 242.707 141.128 242.157 141.128 241.562C141.128 240.967 141.229 240.417 141.431 239.912C141.644 239.407 141.936 238.969 142.307 238.598C142.677 238.228 143.115 237.942 143.62 237.74C144.137 237.526 144.698 237.42 145.304 237.42C145.921 237.42 146.483 237.526 146.988 237.74C147.504 237.942 147.948 238.228 148.318 238.598C148.689 238.969 148.975 239.407 149.177 239.912C149.39 240.417 149.497 240.967 149.497 241.562ZM155.185 238.632H153.316V245.502H152.204V238.632H150.537V237.622H152.204V235.466C152.204 234.422 152.446 233.682 152.928 233.244C153.411 232.795 154.051 232.57 154.848 232.57C155.005 232.57 155.162 232.581 155.319 232.604C155.488 232.626 155.651 232.654 155.808 232.688L155.606 233.698C155.471 233.665 155.331 233.637 155.185 233.614C155.039 233.592 154.893 233.581 154.747 233.581C154.444 233.581 154.197 233.631 154.006 233.732C153.815 233.833 153.669 233.979 153.568 234.17C153.467 234.349 153.4 234.563 153.366 234.81C153.332 235.057 153.316 235.321 153.316 235.601V237.622H155.185V238.632ZM161.301 240.08C161.301 239.732 161.29 239.379 161.267 239.019C161.256 238.66 161.245 238.194 161.233 237.622H162.328V239.087H162.362C162.44 238.874 162.553 238.671 162.698 238.481C162.844 238.279 163.018 238.099 163.22 237.942C163.434 237.785 163.675 237.661 163.945 237.571C164.225 237.47 164.54 237.42 164.888 237.42C165.202 237.42 165.477 237.453 165.713 237.521L165.494 238.615C165.348 238.559 165.134 238.531 164.854 238.531C164.427 238.531 164.062 238.615 163.759 238.784C163.456 238.941 163.204 239.149 163.002 239.407C162.799 239.654 162.648 239.923 162.547 240.215C162.457 240.507 162.412 240.788 162.412 241.057V245.502H161.301V240.08ZM171.253 241.579C170.972 241.579 170.619 241.596 170.192 241.629C169.777 241.652 169.373 241.719 168.98 241.832C168.598 241.933 168.267 242.095 167.986 242.32C167.717 242.544 167.582 242.853 167.582 243.246C167.582 243.504 167.633 243.729 167.734 243.92C167.846 244.099 167.992 244.251 168.172 244.374C168.351 244.486 168.548 244.571 168.761 244.627C168.986 244.672 169.21 244.694 169.435 244.694C169.839 244.694 170.187 244.627 170.479 244.492C170.782 244.357 171.034 244.178 171.236 243.953C171.438 243.718 171.584 243.448 171.674 243.145C171.775 242.831 171.826 242.5 171.826 242.152V241.579H171.253ZM171.826 240.67V240.468C171.826 239.109 171.152 238.43 169.805 238.43C168.884 238.43 168.082 238.739 167.397 239.356L166.723 238.565C167.464 237.801 168.576 237.42 170.058 237.42C170.439 237.42 170.804 237.476 171.152 237.588C171.511 237.7 171.82 237.874 172.078 238.11C172.336 238.335 172.544 238.621 172.701 238.969C172.858 239.317 172.937 239.732 172.937 240.215V243.734C172.937 244.037 172.948 244.357 172.971 244.694C173.004 245.02 173.038 245.289 173.072 245.502H171.994C171.96 245.312 171.932 245.104 171.91 244.879C171.899 244.655 171.893 244.436 171.893 244.223H171.859C171.534 244.75 171.146 245.132 170.697 245.368C170.26 245.592 169.721 245.705 169.081 245.705C168.733 245.705 168.396 245.654 168.071 245.553C167.745 245.463 167.453 245.323 167.195 245.132C166.948 244.93 166.746 244.689 166.589 244.408C166.443 244.116 166.37 243.779 166.37 243.398C166.37 242.758 166.533 242.258 166.858 241.899C167.195 241.528 167.61 241.253 168.104 241.074C168.609 240.894 169.143 240.782 169.704 240.737C170.276 240.692 170.798 240.67 171.27 240.67H171.826ZM177.122 234.591C177.122 234.827 177.038 235.023 176.87 235.18C176.701 235.326 176.516 235.399 176.314 235.399C176.112 235.399 175.927 235.326 175.758 235.18C175.59 235.023 175.506 234.827 175.506 234.591C175.506 234.355 175.59 234.164 175.758 234.018C175.927 233.861 176.112 233.783 176.314 233.783C176.516 233.783 176.701 233.861 176.87 234.018C177.038 234.164 177.122 234.355 177.122 234.591ZM176.87 245.502H175.758V237.622H176.87V245.502ZM180.612 237.622C180.634 237.835 180.646 238.048 180.646 238.262C180.657 238.464 180.663 238.671 180.663 238.885H180.696C180.82 238.671 180.977 238.475 181.168 238.295C181.359 238.116 181.572 237.964 181.808 237.841C182.043 237.706 182.29 237.605 182.548 237.538C182.818 237.459 183.082 237.42 183.34 237.42C184.35 237.42 185.097 237.689 185.579 238.228C186.062 238.756 186.304 239.513 186.304 240.501V245.502H185.192V241.141C185.192 240.266 185.041 239.598 184.738 239.137C184.434 238.666 183.873 238.43 183.054 238.43C182.998 238.43 182.84 238.453 182.582 238.497C182.324 238.542 182.049 238.666 181.757 238.868C181.476 239.07 181.224 239.373 180.999 239.777C180.775 240.181 180.663 240.743 180.663 241.461V245.502H179.551V239.356C179.551 239.143 179.54 238.874 179.517 238.548C179.506 238.222 179.489 237.914 179.467 237.622H180.612ZM193.084 239.491C192.916 239.165 192.691 238.907 192.41 238.716C192.13 238.526 191.787 238.43 191.383 238.43C191.192 238.43 190.996 238.453 190.794 238.497C190.603 238.542 190.429 238.615 190.272 238.716C190.115 238.806 189.986 238.924 189.885 239.07C189.795 239.216 189.75 239.396 189.75 239.609C189.75 239.979 189.879 240.249 190.137 240.417C190.395 240.585 190.783 240.731 191.299 240.855L192.427 241.124C192.977 241.248 193.432 241.5 193.791 241.882C194.162 242.253 194.347 242.718 194.347 243.28C194.347 243.706 194.257 244.077 194.077 244.391C193.909 244.694 193.679 244.947 193.387 245.149C193.106 245.34 192.781 245.48 192.41 245.57C192.04 245.66 191.664 245.705 191.282 245.705C190.676 245.705 190.109 245.592 189.581 245.368C189.065 245.132 188.622 244.733 188.251 244.172L189.211 243.515C189.436 243.875 189.716 244.161 190.053 244.374C190.401 244.588 190.811 244.694 191.282 244.694C191.507 244.694 191.731 244.672 191.956 244.627C192.18 244.571 192.377 244.492 192.545 244.391C192.725 244.279 192.865 244.138 192.966 243.97C193.078 243.802 193.134 243.605 193.134 243.381C193.134 242.988 192.989 242.707 192.697 242.539C192.405 242.359 192.051 242.219 191.636 242.118L190.558 241.865C190.423 241.832 190.238 241.775 190.002 241.697C189.778 241.618 189.553 241.5 189.329 241.343C189.116 241.186 188.93 240.984 188.773 240.737C188.616 240.479 188.537 240.165 188.537 239.794C188.537 239.39 188.616 239.036 188.773 238.733C188.942 238.43 189.161 238.183 189.43 237.992C189.711 237.801 190.025 237.661 190.373 237.571C190.721 237.47 191.08 237.42 191.451 237.42C192.001 237.42 192.511 237.526 192.983 237.74C193.454 237.953 193.819 238.318 194.077 238.834L193.084 239.491Z" fill="#D0D4E4"/>
<path d="M35.3933 252.448C31.6879 252.448 28.6815 249.442 28.6815 245.736C28.6815 244.793 29.101 243.569 29.6953 242.276L40.1475 250.491C38.924 251.714 37.246 252.448 35.3933 252.448ZM41.8604 247.519L46.23 250.98C46.6145 251.26 46.6845 251.784 46.3698 252.134C46.0902 252.518 45.5658 252.588 45.2163 252.273L24.5216 236.053C24.1371 235.774 24.0672 235.249 24.3818 234.9C24.6615 234.515 25.1858 234.445 25.5354 234.76L31.3732 239.304C32.5967 237.417 33.8902 235.704 34.4844 234.97C34.6942 234.725 35.0088 234.55 35.3583 234.55H35.3933C35.7429 234.55 36.0575 234.725 36.2672 234.97C37.5257 236.578 42.1051 242.555 42.1051 245.736C42.1051 246.366 42.0002 246.96 41.8604 247.519ZM32.0374 246.296C32.0374 246.016 31.7578 245.736 31.4781 245.736C31.1635 245.736 30.9188 246.016 30.9188 246.296C30.9188 248.463 32.6667 250.211 34.834 250.211C35.1136 250.211 35.3933 249.966 35.3933 249.652C35.3933 249.372 35.1136 249.092 34.834 249.092C33.2609 249.092 32.0374 247.869 32.0374 246.296Z" fill="#D0D4E4"/>
</svg>
