<svg width="232" height="227" viewBox="0 0 232 227" fill="none" xmlns="http://www.w3.org/2000/svg">
<rect width="232" height="227" rx="20" fill="white"/>
<path d="M25.04 19.384C25.6907 19.384 26.2933 19.4853 26.848 19.688C27.4027 19.8907 27.8827 20.1787 28.288 20.552L26.816 22.104C26.6027 21.8053 26.32 21.5813 25.968 21.432C25.6267 21.2827 25.248 21.208 24.832 21.208C24.2667 21.208 23.8133 21.3413 23.472 21.608C23.1413 21.8747 22.976 22.2267 22.976 22.664C22.976 23.0267 23.12 23.3253 23.408 23.56C23.696 23.7947 24.1387 24.008 24.736 24.2C25.536 24.4453 26.176 24.6853 26.656 24.92C27.136 25.144 27.536 25.48 27.856 25.928C28.1867 26.3653 28.352 26.9467 28.352 27.672C28.352 28.4293 28.1707 29.08 27.808 29.624C27.4453 30.168 26.9547 30.584 26.336 30.872C25.728 31.1493 25.0453 31.288 24.288 31.288C23.4667 31.288 22.736 31.1653 22.096 30.92C21.4667 30.664 20.9333 30.2747 20.496 29.752L22.016 28.28C22.2613 28.6533 22.5813 28.9467 22.976 29.16C23.3707 29.3627 23.7973 29.464 24.256 29.464C24.6187 29.464 24.9493 29.4 25.248 29.272C25.5573 29.1333 25.7973 28.9467 25.968 28.712C26.1493 28.4773 26.24 28.2107 26.24 27.912C26.24 27.624 26.1707 27.3787 26.032 27.176C25.904 26.9733 25.6907 26.792 25.392 26.632C25.104 26.472 24.7093 26.3173 24.208 26.168C23.4507 25.9333 22.832 25.688 22.352 25.432C21.8827 25.176 21.5147 24.84 21.248 24.424C20.992 23.9973 20.864 23.4587 20.864 22.808C20.864 22.136 21.04 21.544 21.392 21.032C21.744 20.5093 22.2347 20.104 22.864 19.816C23.504 19.528 24.2293 19.384 25.04 19.384ZM32.1955 24.392H32.2275C32.4302 23.9973 32.7288 23.688 33.1235 23.464C33.5288 23.24 33.9822 23.128 34.4835 23.128C35.0915 23.128 35.6035 23.256 36.0195 23.512C36.4462 23.7573 36.7608 24.104 36.9635 24.552C37.1768 25 37.2835 25.5173 37.2835 26.104V31H35.3635V27.016C35.3635 26.2693 35.2462 25.7253 35.0115 25.384C34.7768 25.032 34.4248 24.856 33.9555 24.856C33.4008 24.856 32.9688 25.032 32.6595 25.384C32.3502 25.736 32.1955 26.2053 32.1955 26.792V31H30.2755V18.904H32.1955V24.392ZM42.711 23.128C43.927 23.128 44.775 23.4213 45.255 24.008C45.7457 24.5947 45.991 25.3947 45.991 26.408V31H44.263V29.944H44.215C43.9483 30.36 43.6017 30.6747 43.175 30.888C42.759 31.0907 42.2843 31.192 41.751 31.192C41.2283 31.192 40.7537 31.096 40.327 30.904C39.9003 30.712 39.5643 30.4453 39.319 30.104C39.0737 29.752 38.951 29.3467 38.951 28.888C38.951 27.992 39.3297 27.3253 40.087 26.888C40.8443 26.44 42.039 26.216 43.671 26.216H44.263V25.992C44.263 25.544 44.103 25.1973 43.783 24.952C43.463 24.696 43.0363 24.568 42.503 24.568C42.119 24.568 41.751 24.6427 41.399 24.792C41.047 24.9307 40.7323 25.1227 40.455 25.368L39.447 24.36C39.8203 23.9867 40.279 23.688 40.823 23.464C41.367 23.24 41.9963 23.128 42.711 23.128ZM40.871 28.744C40.871 29.0533 40.999 29.2987 41.255 29.48C41.5217 29.6613 41.847 29.752 42.231 29.752C42.8603 29.752 43.335 29.5973 43.655 29.288C43.9857 28.968 44.151 28.552 44.151 28.04V27.56H43.591C42.7163 27.56 42.0443 27.6613 41.575 27.864C41.1057 28.056 40.871 28.3493 40.871 28.744ZM52.2808 23.128C52.3981 23.128 52.4994 23.1387 52.5848 23.16C52.6808 23.1707 52.7608 23.1867 52.8248 23.208C52.8888 23.2187 52.9368 23.2293 52.9688 23.24V25.096C52.6061 25 52.2968 24.952 52.0408 24.952C51.5821 24.952 51.1981 25.048 50.8888 25.24C50.5794 25.432 50.3501 25.6827 50.2008 25.992C50.0514 26.3013 49.9768 26.6373 49.9768 27V31H48.0568V23.32H49.9768V24.536H50.0088C50.2221 24.0987 50.5261 23.7573 50.9208 23.512C51.3261 23.256 51.7794 23.128 52.2808 23.128ZM55.2515 19.56C55.4862 19.56 55.6942 19.6133 55.8755 19.72C56.0675 19.816 56.2168 19.9547 56.3235 20.136C56.4408 20.3067 56.4995 20.4987 56.4995 20.712C56.4995 20.936 56.4408 21.1387 56.3235 21.32C56.2168 21.4907 56.0675 21.624 55.8755 21.72C55.6835 21.816 55.4755 21.864 55.2515 21.864C55.0275 21.864 54.8195 21.8107 54.6275 21.704C54.4462 21.5973 54.3022 21.4587 54.1955 21.288C54.0888 21.1067 54.0355 20.9147 54.0355 20.712C54.0355 20.5093 54.0888 20.3227 54.1955 20.152C54.3022 19.9707 54.4462 19.8267 54.6275 19.72C54.8195 19.6133 55.0275 19.56 55.2515 19.56ZM56.2275 31.56C56.2275 32.3493 56.1368 32.984 55.9555 33.464C55.7742 33.944 55.4915 34.2907 55.1075 34.504C54.7342 34.728 54.2435 34.84 53.6355 34.84C53.2195 34.84 52.8728 34.792 52.5955 34.696L52.7395 33.032C52.9848 33.0853 53.1875 33.112 53.3475 33.112C53.7315 33.112 53.9875 32.9787 54.1155 32.712C54.2435 32.4453 54.3075 32.0667 54.3075 31.576V23.32H56.2275V31.56ZM61.6798 23.128C62.8958 23.128 63.7438 23.4213 64.2238 24.008C64.7144 24.5947 64.9598 25.3947 64.9598 26.408V31H63.2318V29.944H63.1838C62.9171 30.36 62.5704 30.6747 62.1438 30.888C61.7278 31.0907 61.2531 31.192 60.7198 31.192C60.1971 31.192 59.7224 31.096 59.2958 30.904C58.8691 30.712 58.5331 30.4453 58.2878 30.104C58.0424 29.752 57.9198 29.3467 57.9198 28.888C57.9198 27.992 58.2984 27.3253 59.0558 26.888C59.8131 26.44 61.0078 26.216 62.6398 26.216H63.2318V25.992C63.2318 25.544 63.0718 25.1973 62.7518 24.952C62.4318 24.696 62.0051 24.568 61.4718 24.568C61.0878 24.568 60.7198 24.6427 60.3678 24.792C60.0158 24.9307 59.7011 25.1227 59.4238 25.368L58.4158 24.36C58.7891 23.9867 59.2478 23.688 59.7918 23.464C60.3358 23.24 60.9651 23.128 61.6798 23.128ZM59.8398 28.744C59.8398 29.0533 59.9678 29.2987 60.2238 29.48C60.4904 29.6613 60.8158 29.752 61.1998 29.752C61.8291 29.752 62.3038 29.5973 62.6238 29.288C62.9544 28.968 63.1198 28.552 63.1198 28.04V27.56H62.5598C61.6851 27.56 61.0131 27.6613 60.5438 27.864C60.0744 28.056 59.8398 28.3493 59.8398 28.744ZM68.9455 24.392H68.9775C69.1802 23.9973 69.4788 23.688 69.8735 23.464C70.2788 23.24 70.7322 23.128 71.2335 23.128C71.8415 23.128 72.3535 23.256 72.7695 23.512C73.1962 23.7573 73.5108 24.104 73.7135 24.552C73.9268 25 74.0335 25.5173 74.0335 26.104V31H72.1135V27.016C72.1135 26.2693 71.9962 25.7253 71.7615 25.384C71.5268 25.032 71.1748 24.856 70.7055 24.856C70.1508 24.856 69.7188 25.032 69.4095 25.384C69.1002 25.736 68.9455 26.2053 68.9455 26.792V31H67.0255V18.904H68.9455V24.392Z" fill="#202020"/>
<path d="M31.928 51.76C33.776 51.76 35.414 52.082 36.842 52.726C38.298 53.37 39.432 54.294 40.244 55.498C41.056 56.702 41.462 58.102 41.462 59.698C41.462 61.35 41 62.778 40.076 63.982C39.18 65.186 37.948 65.998 36.38 66.418V66.502C37.556 66.642 38.578 67.048 39.446 67.72C40.314 68.364 40.986 69.204 41.462 70.24C41.938 71.276 42.176 72.438 42.176 73.726C42.176 75.49 41.728 77.044 40.832 78.388C39.964 79.704 38.774 80.726 37.262 81.454C35.75 82.154 34.042 82.504 32.138 82.504C29.422 82.504 27.182 81.902 25.418 80.698C23.682 79.494 22.52 77.772 21.932 75.532L27.308 74.104C27.952 76.68 29.562 77.968 32.138 77.968C33.034 77.968 33.86 77.772 34.616 77.38C35.4 76.988 36.016 76.442 36.464 75.742C36.912 75.014 37.136 74.202 37.136 73.306C37.136 71.822 36.604 70.702 35.54 69.946C34.504 69.162 32.782 68.77 30.374 68.77H29.324V64.234H30.164C31.424 64.234 32.474 64.164 33.314 64.024C34.182 63.884 34.91 63.52 35.498 62.932C36.114 62.344 36.422 61.434 36.422 60.202C36.422 59.446 36.24 58.774 35.876 58.186C35.512 57.57 35.008 57.108 34.364 56.8C33.72 56.464 32.992 56.296 32.18 56.296C31.172 56.296 30.262 56.59 29.45 57.178C28.666 57.738 28.092 58.536 27.728 59.572L22.394 58.144C22.982 56.128 24.116 54.56 25.796 53.44C27.504 52.32 29.548 51.76 31.928 51.76ZM56.0695 63.268L56.1535 63.352C56.4335 63.184 56.8255 63.058 57.3295 62.974C57.8615 62.89 58.3935 62.848 58.9255 62.848C60.5775 62.848 62.0895 63.268 63.4615 64.108C64.8335 64.92 65.9115 66.054 66.6955 67.51C67.4795 68.966 67.8715 70.576 67.8715 72.34C67.8715 74.384 67.4095 76.176 66.4855 77.716C65.5895 79.256 64.3295 80.446 62.7055 81.286C61.1095 82.098 59.3035 82.504 57.2875 82.504C55.1875 82.504 53.3395 82.098 51.7435 81.286C50.1475 80.446 48.9015 79.27 48.0055 77.758C47.1375 76.218 46.7035 74.426 46.7035 72.382C46.7035 71.262 46.8295 70.226 47.0815 69.274C47.3615 68.294 47.7255 67.356 48.1735 66.46C48.6495 65.564 49.2655 64.528 50.0215 63.352L57.0775 52.264H63.2095L56.0695 63.268ZM51.9955 72.298C51.9955 73.278 52.2335 74.188 52.7095 75.028C53.2135 75.868 53.8715 76.526 54.6835 77.002C55.5235 77.478 56.4335 77.716 57.4135 77.716C58.3935 77.716 59.2895 77.478 60.1015 77.002C60.9415 76.498 61.5995 75.84 62.0755 75.028C62.5795 74.188 62.8315 73.278 62.8315 72.298C62.8315 71.318 62.5795 70.408 62.0755 69.568C61.5995 68.728 60.9415 68.07 60.1015 67.594C59.2615 67.118 58.3515 66.88 57.3715 66.88C56.4195 66.88 55.5235 67.132 54.6835 67.636C53.8715 68.112 53.2135 68.77 52.7095 69.61C52.2335 70.422 51.9955 71.318 51.9955 72.298ZM78.1109 51.76C79.3149 51.76 80.4209 52.068 81.4289 52.684C82.4649 53.272 83.2909 54.084 83.9069 55.12C84.5229 56.128 84.8309 57.248 84.8309 58.48C84.8309 59.712 84.5229 60.846 83.9069 61.882C83.2909 62.89 82.4649 63.702 81.4289 64.318C80.4209 64.906 79.3149 65.2 78.1109 65.2C76.8789 65.2 75.7449 64.892 74.7089 64.276C73.7009 63.66 72.8889 62.848 72.2729 61.84C71.6849 60.804 71.3909 59.684 71.3909 58.48C71.3909 57.304 71.6849 56.198 72.2729 55.162C72.8889 54.126 73.7009 53.3 74.7089 52.684C75.7449 52.068 76.8789 51.76 78.1109 51.76ZM74.6669 58.48C74.6669 59.096 74.8209 59.67 75.1289 60.202C75.4369 60.734 75.8569 61.154 76.3889 61.462C76.9209 61.77 77.4949 61.924 78.1109 61.924C78.7269 61.924 79.2869 61.77 79.7909 61.462C80.3229 61.154 80.7429 60.734 81.0509 60.202C81.3869 59.67 81.5549 59.096 81.5549 58.48C81.5549 57.864 81.4009 57.29 81.0929 56.758C80.7849 56.226 80.3649 55.806 79.8329 55.498C79.3009 55.19 78.7269 55.036 78.1109 55.036C77.4949 55.036 76.9209 55.19 76.3889 55.498C75.8569 55.806 75.4369 56.226 75.1289 56.758C74.8209 57.262 74.6669 57.836 74.6669 58.48Z" fill="#202020"/>
<path d="M191 18.25C191.656 18.25 192.312 18.9062 192.312 19.5625V26.125C192.312 26.8633 191.656 27.4375 191 27.4375C190.262 27.4375 189.688 26.8633 189.688 26.125V19.5625C189.688 18.9062 190.262 18.25 191 18.25ZM170 39.25C170 38.5938 170.574 37.9375 171.312 37.9375H177.875C178.531 37.9375 179.188 38.5938 179.188 39.25C179.188 39.9883 178.531 40.5625 177.875 40.5625H171.312C170.574 40.5625 170 39.9883 170 39.25ZM202.812 39.25C202.812 38.5938 203.387 37.9375 204.125 37.9375H210.688C211.344 37.9375 212 38.5938 212 39.25C212 39.9883 211.344 40.5625 210.688 40.5625H204.125C203.387 40.5625 202.812 39.9883 202.812 39.25ZM191 51.0625C191.656 51.0625 192.312 51.7188 192.312 52.375V58.9375C192.312 59.6758 191.656 60.25 191 60.25C190.262 60.25 189.688 59.6758 189.688 58.9375V52.375C189.688 51.7188 190.262 51.0625 191 51.0625ZM176.152 24.4023C176.645 23.9102 177.465 23.9102 177.957 24.4023L182.633 29.0781C183.125 29.5703 183.125 30.3906 182.633 30.9648C182.141 31.457 181.238 31.457 180.746 30.9648L176.152 26.2891C175.578 25.7969 175.578 24.9766 176.152 24.4023ZM176.152 54.0977C175.578 53.6055 175.578 52.7852 176.152 52.293L180.746 47.6172C181.238 47.125 182.141 47.125 182.633 47.6172C183.125 48.1094 183.125 49.0117 182.633 49.5039L177.957 54.0977C177.465 54.6719 176.645 54.6719 176.152 54.0977ZM199.285 30.9648C198.793 30.3906 198.793 29.5703 199.285 29.0781L203.961 24.4023C204.453 23.9102 205.273 23.9102 205.848 24.4023C206.34 24.9766 206.34 25.7969 205.848 26.2891L201.172 30.9648C200.68 31.457 199.859 31.457 199.285 30.9648ZM199.285 47.6172C199.859 47.125 200.68 47.125 201.172 47.6172L205.848 52.293C206.34 52.7852 206.34 53.6055 205.848 54.0977C205.273 54.6719 204.453 54.6719 203.961 54.0977L199.285 49.5039C198.793 49.0117 198.793 48.1094 199.285 47.6172ZM197.562 39.25C197.562 36.9531 196.25 34.8203 194.281 33.5898C192.23 32.4414 189.688 32.4414 187.719 33.5898C185.668 34.8203 184.438 36.9531 184.438 39.25C184.438 41.6289 185.668 43.7617 187.719 44.9922C189.688 46.1406 192.23 46.1406 194.281 44.9922C196.25 43.7617 197.562 41.6289 197.562 39.25ZM181.812 39.25C181.812 35.9688 183.535 33.0156 186.406 31.375C189.195 29.6523 192.723 29.6523 195.594 31.375C198.383 33.0156 200.188 35.9688 200.188 39.25C200.188 42.6133 198.383 45.5664 195.594 47.207C192.723 48.9297 189.195 48.9297 186.406 47.207C183.535 45.5664 181.812 42.6133 181.812 39.25Z" fill="#FFC700"/>
<path d="M27.18 170.14C27.86 170.14 28.52 170.26 29.16 170.5C29.8133 170.726 30.3533 171.106 30.78 171.64C31.22 172.16 31.44 172.846 31.44 173.7C31.44 174.433 31.2267 175.073 30.8 175.62C30.3733 176.153 29.7667 176.546 28.98 176.8V176.84C29.58 176.906 30.1067 177.1 30.56 177.42C31.0267 177.74 31.3867 178.146 31.64 178.64C31.9067 179.133 32.04 179.673 32.04 180.26C32.04 181.14 31.82 181.886 31.38 182.5C30.94 183.1 30.32 183.553 29.52 183.86C28.7333 184.153 27.82 184.3 26.78 184.3H21.58V170.14H27.18ZM26.48 175.9C27.24 175.9 27.8333 175.74 28.26 175.42C28.7 175.1 28.92 174.666 28.92 174.12C28.92 172.906 28.04 172.3 26.28 172.3H24.1V175.9H26.48ZM26.5 182.14C28.5133 182.14 29.52 181.446 29.52 180.06C29.52 179.353 29.28 178.846 28.8 178.54C28.3333 178.22 27.6133 178.06 26.64 178.06H24.1V182.14H26.5ZM39.6088 174.46C39.7554 174.46 39.8821 174.473 39.9888 174.5C40.1088 174.513 40.2088 174.533 40.2888 174.56C40.3688 174.573 40.4288 174.586 40.4688 174.6V176.92C40.0154 176.8 39.6288 176.74 39.3088 176.74C38.7354 176.74 38.2554 176.86 37.8688 177.1C37.4821 177.34 37.1954 177.653 37.0088 178.04C36.8221 178.426 36.7288 178.846 36.7288 179.3V184.3H34.3288V174.7H36.7288V176.22H36.7688C37.0354 175.673 37.4154 175.246 37.9088 174.94C38.4154 174.62 38.9821 174.46 39.6088 174.46ZM43.3222 170C43.6155 170 43.8755 170.066 44.1022 170.2C44.3422 170.32 44.5289 170.493 44.6622 170.72C44.8089 170.933 44.8822 171.173 44.8822 171.44C44.8822 171.72 44.8089 171.973 44.6622 172.2C44.5289 172.413 44.3422 172.58 44.1022 172.7C43.8622 172.82 43.6022 172.88 43.3222 172.88C43.0422 172.88 42.7822 172.813 42.5422 172.68C42.3155 172.546 42.1355 172.373 42.0022 172.16C41.8689 171.933 41.8022 171.693 41.8022 171.44C41.8022 171.186 41.8689 170.953 42.0022 170.74C42.1355 170.513 42.3155 170.333 42.5422 170.2C42.7822 170.066 43.0422 170 43.3222 170ZM44.5422 184.3H42.1422V174.7H44.5422V184.3ZM51.5375 174.46C52.2442 174.46 52.8842 174.6 53.4575 174.88C54.0442 175.16 54.5108 175.58 54.8575 176.14H54.8975V174.7H57.1775V183.52C57.1775 184.68 56.9708 185.673 56.5575 186.5C56.1575 187.34 55.5508 187.98 54.7375 188.42C53.9375 188.873 52.9442 189.1 51.7575 189.1C50.7975 189.1 49.9242 188.973 49.1375 188.72C48.3508 188.48 47.6375 188.08 46.9975 187.52L48.4375 185.56C48.9308 186.013 49.4442 186.353 49.9775 186.58C50.5108 186.82 51.0975 186.94 51.7375 186.94C52.8308 186.94 53.6108 186.666 54.0775 186.12C54.5442 185.573 54.7775 184.746 54.7775 183.64V183.02H54.7375C54.3775 183.473 53.9242 183.82 53.3775 184.06C52.8308 184.3 52.2375 184.42 51.5975 184.42C50.6775 184.42 49.8508 184.206 49.1175 183.78C48.3975 183.34 47.8308 182.746 47.4175 182C47.0175 181.253 46.8175 180.42 46.8175 179.5C46.8175 178.54 47.0108 177.68 47.3975 176.92C47.7842 176.146 48.3308 175.546 49.0375 175.12C49.7575 174.68 50.5908 174.46 51.5375 174.46ZM49.2175 179.48C49.2175 180 49.3442 180.473 49.5975 180.9C49.8508 181.326 50.1908 181.66 50.6175 181.9C51.0575 182.14 51.5308 182.26 52.0375 182.26C52.5975 182.26 53.0908 182.146 53.5175 181.92C53.9575 181.68 54.2975 181.346 54.5375 180.92C54.7775 180.48 54.8975 179.986 54.8975 179.44C54.8975 178.866 54.7775 178.366 54.5375 177.94C54.2975 177.513 53.9575 177.186 53.5175 176.96C53.0908 176.733 52.5975 176.62 52.0375 176.62C51.4908 176.62 51.0042 176.74 50.5775 176.98C50.1508 177.22 49.8175 177.56 49.5775 178C49.3375 178.426 49.2175 178.92 49.2175 179.48ZM62.2952 176.04H62.3352C62.5885 175.546 62.9618 175.16 63.4552 174.88C63.9618 174.6 64.5285 174.46 65.1552 174.46C65.9152 174.46 66.5552 174.62 67.0752 174.94C67.6085 175.246 68.0018 175.68 68.2552 176.24C68.5218 176.8 68.6552 177.446 68.6552 178.18V184.3H66.2552V179.32C66.2552 178.386 66.1085 177.706 65.8152 177.28C65.5218 176.84 65.0818 176.62 64.4952 176.62C63.8018 176.62 63.2618 176.84 62.8752 177.28C62.4885 177.72 62.2952 178.306 62.2952 179.04V184.3H59.8952V169.18H62.2952V176.04ZM74.6395 174.7H77.2795V176.74H74.6395V181C74.6395 181.52 74.7462 181.9 74.9595 182.14C75.1729 182.38 75.5129 182.5 75.9795 182.5C76.2729 182.5 76.5329 182.473 76.7595 182.42C76.9995 182.353 77.1729 182.28 77.2795 182.2V184.22C77.0662 184.326 76.7729 184.406 76.3995 184.46C76.0262 184.513 75.6862 184.54 75.3795 184.54C74.6195 184.54 74.0062 184.433 73.5395 184.22C73.0862 184.006 72.7529 183.66 72.5395 183.18C72.3395 182.7 72.2395 182.053 72.2395 181.24V176.74H70.2595V174.7H72.2395V171.92H74.6395V174.7ZM90.0109 169.78C90.8243 169.78 91.5776 169.906 92.2709 170.16C92.9643 170.413 93.5643 170.773 94.0709 171.24L92.2309 173.18C91.9643 172.806 91.6109 172.526 91.1709 172.34C90.7443 172.153 90.2709 172.06 89.7509 172.06C89.0443 172.06 88.4776 172.226 88.0509 172.56C87.6376 172.893 87.4309 173.333 87.4309 173.88C87.4309 174.333 87.6109 174.706 87.9709 175C88.3309 175.293 88.8843 175.56 89.6309 175.8C90.6309 176.106 91.4309 176.406 92.0309 176.7C92.6309 176.98 93.1309 177.4 93.5309 177.96C93.9443 178.506 94.1509 179.233 94.1509 180.14C94.1509 181.086 93.9243 181.9 93.4709 182.58C93.0176 183.26 92.4043 183.78 91.6309 184.14C90.8709 184.486 90.0176 184.66 89.0709 184.66C88.0443 184.66 87.1309 184.506 86.3309 184.2C85.5443 183.88 84.8776 183.393 84.3309 182.74L86.2309 180.9C86.5376 181.366 86.9376 181.733 87.4309 182C87.9243 182.253 88.4576 182.38 89.0309 182.38C89.4843 182.38 89.8976 182.3 90.2709 182.14C90.6576 181.966 90.9576 181.733 91.1709 181.44C91.3976 181.146 91.5109 180.813 91.5109 180.44C91.5109 180.08 91.4243 179.773 91.2509 179.52C91.0909 179.266 90.8243 179.04 90.4509 178.84C90.0909 178.64 89.5976 178.446 88.9709 178.26C88.0243 177.966 87.2509 177.66 86.6509 177.34C86.0643 177.02 85.6043 176.6 85.2709 176.08C84.9509 175.546 84.7909 174.873 84.7909 174.06C84.7909 173.22 85.0109 172.48 85.4509 171.84C85.8909 171.186 86.5043 170.68 87.2909 170.32C88.0909 169.96 88.9976 169.78 90.0109 169.78ZM98.9553 179.66C98.9553 180.606 99.102 181.3 99.3953 181.74C99.6886 182.166 100.129 182.38 100.715 182.38C101.409 182.38 101.949 182.16 102.335 181.72C102.722 181.28 102.915 180.686 102.915 179.94V174.7H105.315V184.3H103.035V182.76H102.995C102.715 183.36 102.329 183.806 101.835 184.1C101.342 184.393 100.749 184.54 100.055 184.54C99.1886 184.54 98.4953 184.353 97.9753 183.98C97.4553 183.606 97.0886 183.14 96.8753 182.58C96.662 182.02 96.5553 181.44 96.5553 180.84V174.7H98.9553V179.66ZM113.3 174.46C114.18 174.46 114.88 174.653 115.4 175.04C115.92 175.426 116.28 175.9 116.48 176.46C116.693 177.006 116.8 177.573 116.8 178.16V184.3H114.4V179.32C114.4 178.386 114.253 177.706 113.96 177.28C113.666 176.84 113.226 176.62 112.64 176.62C111.906 176.62 111.353 176.846 110.98 177.3C110.62 177.753 110.44 178.326 110.44 179.02V184.3H108.04V174.7H110.32V176.24H110.36C110.64 175.64 111.033 175.193 111.54 174.9C112.046 174.606 112.633 174.46 113.3 174.46Z" fill="#D0D4E4"/>
<path d="M27.1063 205.544C27.1063 205.768 27.0223 205.964 26.8543 206.132C26.6863 206.3 26.4903 206.384 26.2663 206.384C26.0423 206.384 25.8463 206.3 25.6783 206.132C25.5103 205.964 25.4263 205.768 25.4263 205.544C25.4263 205.31 25.5056 205.114 25.6643 204.956C25.8323 204.788 26.033 204.704 26.2663 204.704C26.4996 204.704 26.6956 204.788 26.8543 204.956C27.0223 205.114 27.1063 205.31 27.1063 205.544ZM42.6223 196.388L48.3623 204.62H48.3903V196.388H49.5663V206.3H48.0823L42.3423 198.068H42.3143V206.3H41.1383V196.388H42.6223ZM54.9607 199.58C55.9781 199.58 56.8134 199.902 57.4667 200.546C58.1294 201.19 58.4607 202.016 58.4607 203.024C58.4607 204.032 58.1294 204.858 57.4667 205.502C56.8134 206.146 55.9781 206.468 54.9607 206.468C53.9434 206.468 53.1034 206.146 52.4407 205.502C51.7874 204.858 51.4607 204.032 51.4607 203.024C51.4607 202.016 51.7874 201.19 52.4407 200.546C53.0941 199.902 53.9341 199.58 54.9607 199.58ZM52.6367 203.024C52.6367 203.733 52.8514 204.316 53.2807 204.774C53.7194 205.231 54.2794 205.46 54.9607 205.46C55.6514 205.46 56.2114 205.231 56.6407 204.774C57.0701 204.307 57.2847 203.724 57.2847 203.024C57.2847 202.324 57.0701 201.745 56.6407 201.288C56.2114 200.821 55.6467 200.588 54.9467 200.588C54.2654 200.588 53.7101 200.821 53.2807 201.288C52.8514 201.745 52.6367 202.324 52.6367 203.024ZM67.0717 199.58C68.1077 199.58 68.9431 199.925 69.5777 200.616L68.7097 201.386C68.2711 200.854 67.7204 200.588 67.0577 200.588C66.3857 200.588 65.8491 200.812 65.4477 201.26C65.0464 201.698 64.8457 202.286 64.8457 203.024C64.8457 203.714 65.0511 204.293 65.4617 204.76C65.8817 205.226 66.4137 205.46 67.0577 205.46C67.7764 205.46 68.3317 205.189 68.7237 204.648L69.5357 205.418C68.9291 206.118 68.1031 206.468 67.0577 206.468C66.0497 206.468 65.2331 206.15 64.6077 205.516C63.9824 204.872 63.6697 204.041 63.6697 203.024C63.6697 202.016 63.9824 201.19 64.6077 200.546C65.2424 199.902 66.0637 199.58 67.0717 199.58ZM71.8936 195.716V200.658H71.9216C72.1176 200.331 72.407 200.07 72.7896 199.874C73.1816 199.678 73.597 199.58 74.0356 199.58C74.8383 199.58 75.4496 199.813 75.8696 200.28C76.299 200.746 76.5136 201.386 76.5136 202.198V206.3H75.4216V202.324C75.4216 201.792 75.2956 201.372 75.0436 201.064C74.801 200.746 74.4276 200.588 73.9236 200.588C73.261 200.588 72.757 200.807 72.4116 201.246C72.0663 201.675 71.8936 202.277 71.8936 203.052V206.3H70.8016V195.716H71.8936ZM81.1009 199.58C82.0343 199.58 82.7249 199.804 83.1729 200.252C83.6209 200.7 83.8449 201.376 83.8449 202.282V205.222C83.8449 205.52 83.8776 205.88 83.9429 206.3H82.8929C82.8463 206.16 82.8229 205.833 82.8229 205.32H82.7949C82.2909 206.085 81.5723 206.468 80.6389 206.468C79.9203 206.468 79.3323 206.29 78.8749 205.936C78.4269 205.581 78.2029 205.11 78.2029 204.522C78.2029 203.747 78.5203 203.173 79.1549 202.8C79.7896 202.417 80.8209 202.226 82.2489 202.226H82.7529V202.044C82.7529 201.568 82.6083 201.208 82.3189 200.966C82.0389 200.714 81.6423 200.588 81.1289 200.588C80.3356 200.588 79.6869 200.826 79.1829 201.302L78.4969 200.588C79.1689 199.916 80.0369 199.58 81.1009 199.58ZM79.3789 204.41C79.3789 205.166 79.8596 205.544 80.8209 205.544C81.3996 205.544 81.8663 205.357 82.2209 204.984C82.5756 204.61 82.7529 204.083 82.7529 203.402V203.15H81.5489C80.8863 203.15 80.3589 203.257 79.9669 203.472C79.5749 203.686 79.3789 203.999 79.3789 204.41ZM89.0607 199.58C89.8727 199.58 90.4887 199.813 90.9087 200.28C91.338 200.746 91.5527 201.386 91.5527 202.198V206.3H90.4607V202.324C90.4607 201.792 90.3347 201.372 90.0827 201.064C89.84 200.746 89.4667 200.588 88.9627 200.588C88.3 200.588 87.796 200.807 87.4507 201.246C87.1054 201.684 86.9327 202.3 86.9327 203.094V206.3H85.8407V201.204C85.8407 201.054 85.8314 200.807 85.8127 200.462C85.794 200.116 85.7847 199.878 85.7847 199.748H86.8207C86.8207 199.878 86.8254 200.056 86.8347 200.28C86.844 200.494 86.8487 200.676 86.8487 200.826H86.8767C87.054 200.452 87.3387 200.154 87.7307 199.93C88.132 199.696 88.5754 199.58 89.0607 199.58ZM96.644 199.58C97.68 199.58 98.5153 199.925 99.15 200.616L98.282 201.386C97.8433 200.854 97.2927 200.588 96.63 200.588C95.958 200.588 95.4213 200.812 95.02 201.26C94.6187 201.698 94.418 202.286 94.418 203.024C94.418 203.714 94.6233 204.293 95.034 204.76C95.454 205.226 95.986 205.46 96.63 205.46C97.3487 205.46 97.904 205.189 98.296 204.648L99.108 205.418C98.5013 206.118 97.6753 206.468 96.63 206.468C95.622 206.468 94.8053 206.15 94.18 205.516C93.5547 204.872 93.242 204.041 93.242 203.024C93.242 202.016 93.5547 201.19 94.18 200.546C94.8147 199.902 95.636 199.58 96.644 199.58ZM103.356 199.58C104.271 199.58 105.017 199.878 105.596 200.476C106.175 201.064 106.464 201.936 106.464 203.094V203.36H101.172C101.228 203.966 101.457 204.47 101.858 204.872C102.269 205.264 102.759 205.46 103.328 205.46C104.196 205.46 104.887 205.128 105.4 204.466L106.226 205.11C105.535 206.015 104.569 206.468 103.328 206.468C102.329 206.468 101.522 206.146 100.906 205.502C100.299 204.848 99.9959 204.022 99.9959 203.024C99.9959 202.016 100.309 201.19 100.934 200.546C101.569 199.902 102.376 199.58 103.356 199.58ZM105.288 202.436C105.26 201.866 105.073 201.418 104.728 201.092C104.383 200.756 103.907 200.588 103.3 200.588C102.731 200.588 102.255 200.751 101.872 201.078C101.489 201.395 101.256 201.848 101.172 202.436H105.288ZM110.155 199.58C111.219 199.58 111.961 199.976 112.381 200.77L111.471 201.372C111.154 200.849 110.692 200.588 110.085 200.588C109.712 200.588 109.404 200.672 109.161 200.84C108.919 201.008 108.797 201.227 108.797 201.498C108.797 201.927 109.343 202.244 110.435 202.45C111.21 202.599 111.761 202.828 112.087 203.136C112.423 203.444 112.591 203.868 112.591 204.41C112.591 205.044 112.353 205.548 111.877 205.922C111.401 206.286 110.767 206.468 109.973 206.468C108.825 206.468 107.976 206.062 107.425 205.25L108.293 204.578C108.779 205.166 109.339 205.46 109.973 205.46C110.393 205.46 110.739 205.371 111.009 205.194C111.28 205.007 111.415 204.76 111.415 204.452C111.415 204.153 111.289 203.929 111.037 203.78C110.785 203.621 110.295 203.462 109.567 203.304C108.914 203.164 108.438 202.954 108.139 202.674C107.85 202.384 107.705 201.997 107.705 201.512C107.705 200.933 107.939 200.466 108.405 200.112C108.881 199.757 109.465 199.58 110.155 199.58ZM121.133 199.58C122.15 199.58 122.985 199.902 123.639 200.546C124.301 201.19 124.633 202.016 124.633 203.024C124.633 204.032 124.301 204.858 123.639 205.502C122.985 206.146 122.15 206.468 121.133 206.468C120.115 206.468 119.275 206.146 118.613 205.502C117.959 204.858 117.633 204.032 117.633 203.024C117.633 202.016 117.959 201.19 118.613 200.546C119.266 199.902 120.106 199.58 121.133 199.58ZM118.809 203.024C118.809 203.733 119.023 204.316 119.453 204.774C119.891 205.231 120.451 205.46 121.133 205.46C121.823 205.46 122.383 205.231 122.813 204.774C123.242 204.307 123.457 203.724 123.457 203.024C123.457 202.324 123.242 201.745 122.813 201.288C122.383 200.821 121.819 200.588 121.119 200.588C120.437 200.588 119.882 200.821 119.453 201.288C119.023 201.745 118.809 202.324 118.809 203.024ZM129.193 195.548C129.557 195.548 129.842 195.604 130.047 195.716L129.893 196.696C129.641 196.602 129.394 196.556 129.151 196.556C128.722 196.556 128.418 196.677 128.241 196.92C128.064 197.162 127.975 197.615 127.975 198.278V199.748H129.571V200.672H127.975V206.3H126.883V200.672H125.455V199.748H126.883V198.264C126.883 196.453 127.653 195.548 129.193 195.548ZM137.856 199.58C138.024 199.58 138.173 199.603 138.304 199.65L138.234 200.756C138.019 200.7 137.823 200.672 137.646 200.672C137.02 200.672 136.544 200.877 136.218 201.288C135.891 201.698 135.728 202.286 135.728 203.052V206.3H134.636V201.204C134.636 201.054 134.626 200.807 134.608 200.462C134.589 200.116 134.58 199.878 134.58 199.748H135.616C135.616 199.878 135.62 200.056 135.63 200.28C135.639 200.494 135.644 200.676 135.644 200.826H135.672C135.849 200.452 136.134 200.154 136.526 199.93C136.927 199.696 137.37 199.58 137.856 199.58ZM142.077 199.58C143.011 199.58 143.701 199.804 144.149 200.252C144.597 200.7 144.821 201.376 144.821 202.282V205.222C144.821 205.52 144.854 205.88 144.919 206.3H143.869C143.823 206.16 143.799 205.833 143.799 205.32H143.771C143.267 206.085 142.549 206.468 141.615 206.468C140.897 206.468 140.309 206.29 139.851 205.936C139.403 205.581 139.179 205.11 139.179 204.522C139.179 203.747 139.497 203.173 140.131 202.8C140.766 202.417 141.797 202.226 143.225 202.226H143.729V202.044C143.729 201.568 143.585 201.208 143.295 200.966C143.015 200.714 142.619 200.588 142.105 200.588C141.312 200.588 140.663 200.826 140.159 201.302L139.473 200.588C140.145 199.916 141.013 199.58 142.077 199.58ZM140.355 204.41C140.355 205.166 140.836 205.544 141.797 205.544C142.376 205.544 142.843 205.357 143.197 204.984C143.552 204.61 143.729 204.083 143.729 203.402V203.15H142.525C141.863 203.15 141.335 203.257 140.943 203.472C140.551 203.686 140.355 203.999 140.355 204.41ZM146.901 196.626C147.06 196.467 147.247 196.388 147.461 196.388C147.676 196.388 147.863 196.467 148.021 196.626C148.18 196.775 148.259 196.962 148.259 197.186C148.259 197.419 148.185 197.61 148.035 197.76C147.886 197.909 147.695 197.984 147.461 197.984C147.228 197.984 147.037 197.909 146.887 197.76C146.738 197.61 146.663 197.419 146.663 197.186C146.663 196.962 146.743 196.775 146.901 196.626ZM148.007 199.748V206.3H146.915V199.748H148.007ZM153.401 199.58C154.213 199.58 154.829 199.813 155.249 200.28C155.678 200.746 155.893 201.386 155.893 202.198V206.3H154.801V202.324C154.801 201.792 154.675 201.372 154.423 201.064C154.18 200.746 153.807 200.588 153.303 200.588C152.64 200.588 152.136 200.807 151.791 201.246C151.445 201.684 151.273 202.3 151.273 203.094V206.3H150.181V201.204C150.181 201.054 150.171 200.807 150.153 200.462C150.134 200.116 150.125 199.878 150.125 199.748H151.161C151.161 199.878 151.165 200.056 151.175 200.28C151.184 200.494 151.189 200.676 151.189 200.826H151.217C151.394 200.452 151.679 200.154 152.071 199.93C152.472 199.696 152.915 199.58 153.401 199.58ZM159.962 199.58C161.026 199.58 161.768 199.976 162.188 200.77L161.278 201.372C160.96 200.849 160.498 200.588 159.892 200.588C159.518 200.588 159.21 200.672 158.968 200.84C158.725 201.008 158.604 201.227 158.604 201.498C158.604 201.927 159.15 202.244 160.242 202.45C161.016 202.599 161.567 202.828 161.894 203.136C162.23 203.444 162.398 203.868 162.398 204.41C162.398 205.044 162.16 205.548 161.684 205.922C161.208 206.286 160.573 206.468 159.78 206.468C158.632 206.468 157.782 206.062 157.232 205.25L158.1 204.578C158.585 205.166 159.145 205.46 159.78 205.46C160.2 205.46 160.545 205.371 160.816 205.194C161.086 205.007 161.222 204.76 161.222 204.452C161.222 204.153 161.096 203.929 160.844 203.78C160.592 203.621 160.102 203.462 159.374 203.304C158.72 203.164 158.244 202.954 157.946 202.674C157.656 202.384 157.512 201.997 157.512 201.512C157.512 200.933 157.745 200.466 158.212 200.112C158.688 199.757 159.271 199.58 159.962 199.58Z" fill="#D0D4E4"/>
<path d="M29.3004 208.86C26.2196 208.86 23.7201 206.361 23.7201 203.28C23.7201 202.495 24.0689 201.478 24.563 200.403L33.253 207.233C32.2358 208.25 30.8407 208.86 29.3004 208.86ZM34.6771 204.762L38.3101 207.639C38.6298 207.872 38.6879 208.308 38.4264 208.599C38.1938 208.918 37.7579 208.976 37.4673 208.715L20.2616 195.229C19.9419 194.997 19.8837 194.561 20.1453 194.27C20.3778 193.95 20.8138 193.892 21.1044 194.154L25.958 197.932C26.9753 196.363 28.0506 194.939 28.5447 194.328C28.7191 194.125 28.9807 193.979 29.2713 193.979H29.3004C29.591 193.979 29.8526 194.125 30.027 194.328C31.0733 195.665 34.8806 200.635 34.8806 203.28C34.8806 203.803 34.7934 204.297 34.6771 204.762ZM26.5103 203.745C26.5103 203.512 26.2777 203.28 26.0452 203.28C25.7837 203.28 25.5802 203.512 25.5802 203.745C25.5802 205.547 27.0334 207 28.8353 207C29.0679 207 29.3004 206.797 29.3004 206.535C29.3004 206.302 29.0679 206.07 28.8353 206.07C27.5275 206.07 26.5103 205.053 26.5103 203.745Z" fill="#D0D4E4"/>
</svg>
