<svg width="71" height="72" viewBox="0 0 71 72" fill="none" xmlns="http://www.w3.org/2000/svg">
<path opacity="0.2" d="M35.5 0.875C36.6094 0.875 37.7188 1.98438 37.7188 3.09375V14.1875C37.7188 15.4355 36.6094 16.4062 35.5 16.4062C34.252 16.4062 33.2812 15.4355 33.2812 14.1875V3.09375C33.2812 1.98438 34.252 0.875 35.5 0.875ZM0 36.375C0 35.2656 0.970703 34.1562 2.21875 34.1562H13.3125C14.4219 34.1562 15.5312 35.2656 15.5312 36.375C15.5312 37.623 14.4219 38.5938 13.3125 38.5938H2.21875C0.970703 38.5938 0 37.623 0 36.375ZM55.4688 36.375C55.4688 35.2656 56.4395 34.1562 57.6875 34.1562H68.7812C69.8906 34.1562 71 35.2656 71 36.375C71 37.623 69.8906 38.5938 68.7812 38.5938H57.6875C56.4395 38.5938 55.4688 37.623 55.4688 36.375ZM35.5 56.3438C36.6094 56.3438 37.7188 57.4531 37.7188 58.5625V69.6562C37.7188 70.9043 36.6094 71.875 35.5 71.875C34.252 71.875 33.2812 70.9043 33.2812 69.6562V58.5625C33.2812 57.4531 34.252 56.3438 35.5 56.3438ZM10.4004 11.2754C11.2324 10.4434 12.6191 10.4434 13.4512 11.2754L21.3555 19.1797C22.1875 20.0117 22.1875 21.3984 21.3555 22.3691C20.5234 23.2012 18.998 23.2012 18.166 22.3691L10.4004 14.4648C9.42969 13.6328 9.42969 12.2461 10.4004 11.2754ZM10.4004 61.4746C9.42969 60.6426 9.42969 59.2559 10.4004 58.4238L18.166 50.5195C18.998 49.6875 20.5234 49.6875 21.3555 50.5195C22.1875 51.3516 22.1875 52.877 21.3555 53.709L13.4512 61.4746C12.6191 62.4453 11.2324 62.4453 10.4004 61.4746ZM49.5059 22.3691C48.6738 21.3984 48.6738 20.0117 49.5059 19.1797L57.4102 11.2754C58.2422 10.4434 59.6289 10.4434 60.5996 11.2754C61.4316 12.2461 61.4316 13.6328 60.5996 14.4648L52.6953 22.3691C51.8633 23.2012 50.4766 23.2012 49.5059 22.3691ZM49.5059 50.5195C50.4766 49.6875 51.8633 49.6875 52.6953 50.5195L60.5996 58.4238C61.4316 59.2559 61.4316 60.6426 60.5996 61.4746C59.6289 62.4453 58.2422 62.4453 57.4102 61.4746L49.5059 53.709C48.6738 52.877 48.6738 51.3516 49.5059 50.5195ZM46.5938 36.375C46.5938 32.4922 44.375 28.8867 41.0469 26.8066C37.5801 24.8652 33.2812 24.8652 29.9531 26.8066C26.4863 28.8867 24.4062 32.4922 24.4062 36.375C24.4062 40.3965 26.4863 44.002 29.9531 46.082C33.2812 48.0234 37.5801 48.0234 41.0469 46.082C44.375 44.002 46.5938 40.3965 46.5938 36.375ZM19.9688 36.375C19.9688 30.8281 22.8809 25.8359 27.7344 23.0625C32.4492 20.1504 38.4121 20.1504 43.2656 23.0625C47.9805 25.8359 51.0312 30.8281 51.0312 36.375C51.0312 42.0605 47.9805 47.0527 43.2656 49.8262C38.4121 52.7383 32.4492 52.7383 27.7344 49.8262C22.8809 47.0527 19.9688 42.0605 19.9688 36.375Z" fill="#777FA1"/>
</svg>
