<svg width="36" height="34" viewBox="0 0 36 34" fill="none" xmlns="http://www.w3.org/2000/svg">
<path d="M17.8428 33.6887C11.7913 33.6887 6.26606 30.5314 3.24032 25.2693C0.214583 20.0729 0.214583 13.6925 3.24032 8.43039C6.26606 3.23402 11.7913 0.0109496 17.8428 0.0109496C23.8285 0.0109496 29.3538 3.23402 32.3795 8.43039C35.4052 13.6925 35.4052 20.0729 32.3795 25.2693C29.3538 30.5314 23.8285 33.6887 17.8428 33.6887ZM16.2641 22.6382C16.2641 23.5591 16.9219 24.2169 17.8428 24.2169C18.6979 24.2169 19.4214 23.5591 19.4214 22.6382V18.4285H23.6312C24.4863 18.4285 25.2098 17.7707 25.2098 16.8498C25.2098 15.9947 24.4863 15.2712 23.6312 15.2712H19.4214V11.0615C19.4214 10.2064 18.6979 9.48282 17.8428 9.48282C16.9219 9.48282 16.2641 10.2064 16.2641 11.0615V15.2712H12.0544C11.1335 15.2712 10.4758 15.9947 10.4758 16.8498C10.4758 17.7707 11.1335 18.4285 12.0544 18.4285H16.2641V22.6382Z" fill="#50B0B8"/>
</svg>
