<svg width="809" height="719" viewBox="0 0 809 719" fill="none" xmlns="http://www.w3.org/2000/svg">
<rect x="1.93307" y="2.22897" width="804.658" height="140.725" rx="22.2514" fill="white" fill-opacity="0.5"/>
<rect x="1.93307" y="2.22897" width="804.658" height="140.725" rx="22.2514" stroke="white" stroke-width="3.60833" stroke-dasharray="7.22 7.22"/>
<path d="M392.387 57.3895C392.913 57.3895 393.439 57.9157 393.439 58.4419C393.439 59.0339 392.913 59.4944 392.387 59.4944H390.808C388.769 59.4944 387.124 61.2046 387.124 63.1779V64.7565C387.124 65.3485 386.598 65.8089 386.072 65.8089C385.48 65.8089 385.02 65.3485 385.02 64.7565V63.1779C385.02 60.0206 387.585 57.3895 390.808 57.3895H392.387ZM385.02 75.2808V68.9662C385.02 68.44 385.48 67.9138 386.072 67.9138C386.598 67.9138 387.124 68.44 387.124 68.9662V75.2808C387.124 75.8728 386.598 76.3332 386.072 76.3332C385.48 76.3332 385.02 75.8728 385.02 75.2808ZM386.072 78.4381C386.598 78.4381 387.124 78.9643 387.124 79.4905V81.0692C387.124 83.1083 388.769 84.7527 390.808 84.7527H392.387C392.913 84.7527 393.439 85.2789 393.439 85.8051C393.439 86.3971 392.913 86.8575 392.387 86.8575H390.808C387.585 86.8575 385.02 84.2922 385.02 81.0692V79.4905C385.02 78.9643 385.48 78.4381 386.072 78.4381ZM413.501 67.9796C412.909 68.0454 412.383 67.5849 412.383 66.9929V63.1779C412.383 61.2046 410.673 59.4944 408.699 59.4944H407.121C406.529 59.4944 406.068 59.0339 406.068 58.4419C406.068 57.9157 406.529 57.3895 407.121 57.3895H408.699C411.857 57.3895 414.488 60.0206 414.488 63.1779V66.9929C414.488 67.5191 414.027 67.9138 413.501 67.9796ZM395.544 85.8051C395.544 85.2789 396.004 84.7527 396.596 84.7527H402.911C403.437 84.7527 403.963 85.2789 403.963 85.8051C403.963 86.3971 403.437 86.8575 402.911 86.8575H396.596C396.004 86.8575 395.544 86.3971 395.544 85.8051ZM402.911 59.4944H396.596C396.004 59.4944 395.544 59.0339 395.544 58.4419C395.544 57.9157 396.004 57.3895 396.596 57.3895H402.911C403.437 57.3895 403.963 57.9157 403.963 58.4419C403.963 59.0339 403.437 59.4944 402.911 59.4944ZM420.802 79.4905C420.802 76.8595 419.355 74.4915 417.119 73.1759C414.816 71.7946 411.988 71.7946 409.752 73.1759C407.449 74.4915 406.068 76.8595 406.068 79.4905C406.068 82.1874 407.449 84.5554 409.752 85.8709C411.988 87.2522 414.816 87.2522 417.119 85.8709C419.355 84.5554 420.802 82.1874 420.802 79.4905ZM403.963 79.4905C403.963 76.1359 405.739 73.0444 408.699 71.3342C411.593 69.624 415.211 69.624 418.171 71.3342C421.065 73.0444 422.907 76.1359 422.907 79.4905C422.907 82.9109 421.065 86.0024 418.171 87.7126C415.211 89.4228 411.593 89.4228 408.699 87.7126C405.739 86.0024 403.963 82.9109 403.963 79.4905ZM414.488 75.2808V78.4381H417.645C418.171 78.4381 418.697 78.9643 418.697 79.4905C418.697 80.0825 418.171 80.543 417.645 80.543H414.488V83.7003C414.488 84.2922 413.961 84.7527 413.435 84.7527C412.843 84.7527 412.383 84.2922 412.383 83.7003V80.543H409.225C408.633 80.543 408.173 80.0825 408.173 79.4905C408.173 78.9643 408.633 78.4381 409.225 78.4381H412.383V75.2808C412.383 74.7546 412.843 74.2284 413.435 74.2284C413.961 74.2284 414.488 74.7546 414.488 75.2808Z" fill="#777FA1"/>
<rect x="1.93307" y="175.429" width="804.658" height="185.228" rx="22.2514" fill="white" fill-opacity="0.5"/>
<rect x="1.93307" y="175.429" width="804.658" height="185.228" rx="22.2514" stroke="white" stroke-width="3.60833" stroke-dasharray="7.22 7.22"/>
<path d="M392.387 252.841C392.913 252.841 393.439 253.367 393.439 253.893C393.439 254.485 392.913 254.946 392.387 254.946H390.808C388.769 254.946 387.124 256.656 387.124 258.629V260.208C387.124 260.8 386.598 261.26 386.072 261.26C385.48 261.26 385.02 260.8 385.02 260.208V258.629C385.02 255.472 387.585 252.841 390.808 252.841H392.387ZM385.02 270.732V264.417C385.02 263.891 385.48 263.365 386.072 263.365C386.598 263.365 387.124 263.891 387.124 264.417V270.732C387.124 271.324 386.598 271.784 386.072 271.784C385.48 271.784 385.02 271.324 385.02 270.732ZM386.072 273.889C386.598 273.889 387.124 274.415 387.124 274.942V276.52C387.124 278.559 388.769 280.204 390.808 280.204H392.387C392.913 280.204 393.439 280.73 393.439 281.256C393.439 281.848 392.913 282.309 392.387 282.309H390.808C387.585 282.309 385.02 279.743 385.02 276.52V274.942C385.02 274.415 385.48 273.889 386.072 273.889ZM413.501 263.431C412.909 263.497 412.383 263.036 412.383 262.444V258.629C412.383 256.656 410.673 254.946 408.699 254.946H407.121C406.529 254.946 406.068 254.485 406.068 253.893C406.068 253.367 406.529 252.841 407.121 252.841H408.699C411.857 252.841 414.488 255.472 414.488 258.629V262.444C414.488 262.97 414.027 263.365 413.501 263.431ZM395.544 281.256C395.544 280.73 396.004 280.204 396.596 280.204H402.911C403.437 280.204 403.963 280.73 403.963 281.256C403.963 281.848 403.437 282.309 402.911 282.309H396.596C396.004 282.309 395.544 281.848 395.544 281.256ZM402.911 254.946H396.596C396.004 254.946 395.544 254.485 395.544 253.893C395.544 253.367 396.004 252.841 396.596 252.841H402.911C403.437 252.841 403.963 253.367 403.963 253.893C403.963 254.485 403.437 254.946 402.911 254.946ZM420.802 274.942C420.802 272.311 419.355 269.943 417.119 268.627C414.816 267.246 411.988 267.246 409.752 268.627C407.449 269.943 406.068 272.311 406.068 274.942C406.068 277.639 407.449 280.007 409.752 281.322C411.988 282.703 414.816 282.703 417.119 281.322C419.355 280.007 420.802 277.639 420.802 274.942ZM403.963 274.942C403.963 271.587 405.739 268.496 408.699 266.785C411.593 265.075 415.211 265.075 418.171 266.785C421.065 268.496 422.907 271.587 422.907 274.942C422.907 278.362 421.065 281.454 418.171 283.164C415.211 284.874 411.593 284.874 408.699 283.164C405.739 281.454 403.963 278.362 403.963 274.942ZM414.488 270.732V273.889H417.645C418.171 273.889 418.697 274.415 418.697 274.942C418.697 275.534 418.171 275.994 417.645 275.994H414.488V279.151C414.488 279.743 413.961 280.204 413.435 280.204C412.843 280.204 412.383 279.743 412.383 279.151V275.994H409.225C408.633 275.994 408.173 275.534 408.173 274.942C408.173 274.415 408.633 273.889 409.225 273.889H412.383V270.732C412.383 270.206 412.843 269.68 413.435 269.68C413.961 269.68 414.488 270.206 414.488 270.732Z" fill="#777FA1"/>
<rect x="1.93307" y="393.132" width="386.092" height="145.536" rx="22.2514" fill="white" fill-opacity="0.5"/>
<rect x="1.93307" y="393.132" width="386.092" height="145.536" rx="22.2514" stroke="white" stroke-width="3.60833" stroke-dasharray="7.22 7.22"/>
<path d="M183.101 450.698C183.628 450.698 184.154 451.224 184.154 451.75C184.154 452.342 183.628 452.803 183.101 452.803H181.523C179.484 452.803 177.839 454.513 177.839 456.486V458.065C177.839 458.657 177.313 459.117 176.787 459.117C176.195 459.117 175.734 458.657 175.734 458.065V456.486C175.734 453.329 178.3 450.698 181.523 450.698H183.101ZM175.734 468.589V462.274C175.734 461.748 176.195 461.222 176.787 461.222C177.313 461.222 177.839 461.748 177.839 462.274V468.589C177.839 469.181 177.313 469.641 176.787 469.641C176.195 469.641 175.734 469.181 175.734 468.589ZM176.787 471.746C177.313 471.746 177.839 472.273 177.839 472.799V474.377C177.839 476.416 179.484 478.061 181.523 478.061H183.101C183.628 478.061 184.154 478.587 184.154 479.113C184.154 479.705 183.628 480.166 183.101 480.166H181.523C178.3 480.166 175.734 477.6 175.734 474.377V472.799C175.734 472.273 176.195 471.746 176.787 471.746ZM204.216 461.288C203.624 461.354 203.098 460.893 203.098 460.301V456.486C203.098 454.513 201.387 452.803 199.414 452.803H197.835C197.243 452.803 196.783 452.342 196.783 451.75C196.783 451.224 197.243 450.698 197.835 450.698H199.414C202.571 450.698 205.202 453.329 205.202 456.486V460.301C205.202 460.827 204.742 461.222 204.216 461.288ZM186.259 479.113C186.259 478.587 186.719 478.061 187.311 478.061H193.626C194.152 478.061 194.678 478.587 194.678 479.113C194.678 479.705 194.152 480.166 193.626 480.166H187.311C186.719 480.166 186.259 479.705 186.259 479.113ZM193.626 452.803H187.311C186.719 452.803 186.259 452.342 186.259 451.75C186.259 451.224 186.719 450.698 187.311 450.698H193.626C194.152 450.698 194.678 451.224 194.678 451.75C194.678 452.342 194.152 452.803 193.626 452.803ZM211.517 472.799C211.517 470.168 210.07 467.8 207.834 466.484C205.531 465.103 202.703 465.103 200.466 466.484C198.164 467.8 196.783 470.168 196.783 472.799C196.783 475.496 198.164 477.864 200.466 479.179C202.703 480.56 205.531 480.56 207.834 479.179C210.07 477.864 211.517 475.496 211.517 472.799ZM194.678 472.799C194.678 469.444 196.454 466.353 199.414 464.642C202.308 462.932 205.926 462.932 208.886 464.642C211.78 466.353 213.622 469.444 213.622 472.799C213.622 476.219 211.78 479.311 208.886 481.021C205.926 482.731 202.308 482.731 199.414 481.021C196.454 479.311 194.678 476.219 194.678 472.799ZM205.202 468.589V471.746H208.36C208.886 471.746 209.412 472.273 209.412 472.799C209.412 473.391 208.886 473.851 208.36 473.851H205.202V477.008C205.202 477.6 204.676 478.061 204.15 478.061C203.558 478.061 203.098 477.6 203.098 477.008V473.851H199.94C199.348 473.851 198.888 473.391 198.888 472.799C198.888 472.273 199.348 471.746 199.94 471.746H203.098V468.589C203.098 468.063 203.558 467.537 204.15 467.537C204.676 467.537 205.202 468.063 205.202 468.589Z" fill="#777FA1"/>
<rect x="420.499" y="393.132" width="386.092" height="145.536" rx="22.2514" fill="white" fill-opacity="0.5"/>
<rect x="420.499" y="393.132" width="386.092" height="145.536" rx="22.2514" stroke="white" stroke-width="3.60833" stroke-dasharray="7.22 7.22"/>
<path d="M601.668 450.698C602.194 450.698 602.72 451.224 602.72 451.75C602.72 452.342 602.194 452.803 601.668 452.803H600.089C598.05 452.803 596.406 454.513 596.406 456.486V458.065C596.406 458.657 595.879 459.117 595.353 459.117C594.761 459.117 594.301 458.657 594.301 458.065V456.486C594.301 453.329 596.866 450.698 600.089 450.698H601.668ZM594.301 468.589V462.274C594.301 461.748 594.761 461.222 595.353 461.222C595.879 461.222 596.406 461.748 596.406 462.274V468.589C596.406 469.181 595.879 469.641 595.353 469.641C594.761 469.641 594.301 469.181 594.301 468.589ZM595.353 471.746C595.879 471.746 596.406 472.273 596.406 472.799V474.377C596.406 476.416 598.05 478.061 600.089 478.061H601.668C602.194 478.061 602.72 478.587 602.72 479.113C602.72 479.705 602.194 480.166 601.668 480.166H600.089C596.866 480.166 594.301 477.6 594.301 474.377V472.799C594.301 472.273 594.761 471.746 595.353 471.746ZM622.782 461.288C622.19 461.354 621.664 460.893 621.664 460.301V456.486C621.664 454.513 619.954 452.803 617.98 452.803H616.402C615.81 452.803 615.349 452.342 615.349 451.75C615.349 451.224 615.81 450.698 616.402 450.698H617.98C621.138 450.698 623.769 453.329 623.769 456.486V460.301C623.769 460.827 623.308 461.222 622.782 461.288ZM604.825 479.113C604.825 478.587 605.286 478.061 605.878 478.061H612.192C612.718 478.061 613.245 478.587 613.245 479.113C613.245 479.705 612.718 480.166 612.192 480.166H605.878C605.286 480.166 604.825 479.705 604.825 479.113ZM612.192 452.803H605.878C605.286 452.803 604.825 452.342 604.825 451.75C604.825 451.224 605.286 450.698 605.878 450.698H612.192C612.718 450.698 613.245 451.224 613.245 451.75C613.245 452.342 612.718 452.803 612.192 452.803ZM630.083 472.799C630.083 470.168 628.636 467.8 626.4 466.484C624.098 465.103 621.269 465.103 619.033 466.484C616.731 467.8 615.349 470.168 615.349 472.799C615.349 475.496 616.731 477.864 619.033 479.179C621.269 480.56 624.098 480.56 626.4 479.179C628.636 477.864 630.083 475.496 630.083 472.799ZM613.245 472.799C613.245 469.444 615.021 466.353 617.98 464.642C620.875 462.932 624.492 462.932 627.452 464.642C630.347 466.353 632.188 469.444 632.188 472.799C632.188 476.219 630.347 479.311 627.452 481.021C624.492 482.731 620.875 482.731 617.98 481.021C615.021 479.311 613.245 476.219 613.245 472.799ZM623.769 468.589V471.746H626.926C627.452 471.746 627.979 472.273 627.979 472.799C627.979 473.391 627.452 473.851 626.926 473.851H623.769V477.008C623.769 477.6 623.243 478.061 622.716 478.061C622.124 478.061 621.664 477.6 621.664 477.008V473.851H618.507C617.915 473.851 617.454 473.391 617.454 472.799C617.454 472.273 617.915 471.746 618.507 471.746H621.664V468.589C621.664 468.063 622.124 467.537 622.716 467.537C623.243 467.537 623.769 468.063 623.769 468.589Z" fill="#777FA1"/>
<rect x="1.93307" y="571.143" width="386.092" height="145.536" rx="22.2514" fill="white" fill-opacity="0.5"/>
<rect x="1.93307" y="571.143" width="386.092" height="145.536" rx="22.2514" stroke="white" stroke-width="3.60833" stroke-dasharray="7.22 7.22"/>
<path d="M183.101 628.709C183.628 628.709 184.154 629.235 184.154 629.761C184.154 630.353 183.628 630.814 183.101 630.814H181.523C179.484 630.814 177.839 632.524 177.839 634.497V636.076C177.839 636.668 177.313 637.128 176.787 637.128C176.195 637.128 175.734 636.668 175.734 636.076V634.497C175.734 631.34 178.3 628.709 181.523 628.709H183.101ZM175.734 646.6V640.286C175.734 639.759 176.195 639.233 176.787 639.233C177.313 639.233 177.839 639.759 177.839 640.286V646.6C177.839 647.192 177.313 647.653 176.787 647.653C176.195 647.653 175.734 647.192 175.734 646.6ZM176.787 649.757C177.313 649.757 177.839 650.284 177.839 650.81V652.389C177.839 654.428 179.484 656.072 181.523 656.072H183.101C183.628 656.072 184.154 656.598 184.154 657.124C184.154 657.716 183.628 658.177 183.101 658.177H181.523C178.3 658.177 175.734 655.612 175.734 652.389V650.81C175.734 650.284 176.195 649.757 176.787 649.757ZM204.216 639.299C203.624 639.365 203.098 638.904 203.098 638.312V634.497C203.098 632.524 201.387 630.814 199.414 630.814H197.835C197.243 630.814 196.783 630.353 196.783 629.761C196.783 629.235 197.243 628.709 197.835 628.709H199.414C202.571 628.709 205.202 631.34 205.202 634.497V638.312C205.202 638.838 204.742 639.233 204.216 639.299ZM186.259 657.124C186.259 656.598 186.719 656.072 187.311 656.072H193.626C194.152 656.072 194.678 656.598 194.678 657.124C194.678 657.716 194.152 658.177 193.626 658.177H187.311C186.719 658.177 186.259 657.716 186.259 657.124ZM193.626 630.814H187.311C186.719 630.814 186.259 630.353 186.259 629.761C186.259 629.235 186.719 628.709 187.311 628.709H193.626C194.152 628.709 194.678 629.235 194.678 629.761C194.678 630.353 194.152 630.814 193.626 630.814ZM211.517 650.81C211.517 648.179 210.07 645.811 207.834 644.495C205.531 643.114 202.703 643.114 200.466 644.495C198.164 645.811 196.783 648.179 196.783 650.81C196.783 653.507 198.164 655.875 200.466 657.19C202.703 658.572 205.531 658.572 207.834 657.19C210.07 655.875 211.517 653.507 211.517 650.81ZM194.678 650.81C194.678 647.455 196.454 644.364 199.414 642.654C202.308 640.943 205.926 640.943 208.886 642.654C211.78 644.364 213.622 647.455 213.622 650.81C213.622 654.23 211.78 657.322 208.886 659.032C205.926 660.742 202.308 660.742 199.414 659.032C196.454 657.322 194.678 654.23 194.678 650.81ZM205.202 646.6V649.757H208.36C208.886 649.757 209.412 650.284 209.412 650.81C209.412 651.402 208.886 651.862 208.36 651.862H205.202V655.02C205.202 655.612 204.676 656.072 204.15 656.072C203.558 656.072 203.098 655.612 203.098 655.02V651.862H199.94C199.348 651.862 198.888 651.402 198.888 650.81C198.888 650.284 199.348 649.757 199.94 649.757H203.098V646.6C203.098 646.074 203.558 645.548 204.15 645.548C204.676 645.548 205.202 646.074 205.202 646.6Z" fill="#777FA1"/>
<rect x="420.499" y="571.143" width="386.092" height="145.536" rx="22.2514" fill="white" fill-opacity="0.5"/>
<rect x="420.499" y="571.143" width="386.092" height="145.536" rx="22.2514" stroke="white" stroke-width="3.60833" stroke-dasharray="7.22 7.22"/>
<path d="M601.668 628.709C602.194 628.709 602.72 629.235 602.72 629.761C602.72 630.353 602.194 630.814 601.668 630.814H600.089C598.05 630.814 596.406 632.524 596.406 634.497V636.076C596.406 636.668 595.879 637.128 595.353 637.128C594.761 637.128 594.301 636.668 594.301 636.076V634.497C594.301 631.34 596.866 628.709 600.089 628.709H601.668ZM594.301 646.6V640.286C594.301 639.759 594.761 639.233 595.353 639.233C595.879 639.233 596.406 639.759 596.406 640.286V646.6C596.406 647.192 595.879 647.653 595.353 647.653C594.761 647.653 594.301 647.192 594.301 646.6ZM595.353 649.757C595.879 649.757 596.406 650.284 596.406 650.81V652.389C596.406 654.428 598.05 656.072 600.089 656.072H601.668C602.194 656.072 602.72 656.598 602.72 657.124C602.72 657.716 602.194 658.177 601.668 658.177H600.089C596.866 658.177 594.301 655.612 594.301 652.389V650.81C594.301 650.284 594.761 649.757 595.353 649.757ZM622.782 639.299C622.19 639.365 621.664 638.904 621.664 638.312V634.497C621.664 632.524 619.954 630.814 617.98 630.814H616.402C615.81 630.814 615.349 630.353 615.349 629.761C615.349 629.235 615.81 628.709 616.402 628.709H617.98C621.138 628.709 623.769 631.34 623.769 634.497V638.312C623.769 638.838 623.308 639.233 622.782 639.299ZM604.825 657.124C604.825 656.598 605.286 656.072 605.878 656.072H612.192C612.718 656.072 613.245 656.598 613.245 657.124C613.245 657.716 612.718 658.177 612.192 658.177H605.878C605.286 658.177 604.825 657.716 604.825 657.124ZM612.192 630.814H605.878C605.286 630.814 604.825 630.353 604.825 629.761C604.825 629.235 605.286 628.709 605.878 628.709H612.192C612.718 628.709 613.245 629.235 613.245 629.761C613.245 630.353 612.718 630.814 612.192 630.814ZM630.083 650.81C630.083 648.179 628.636 645.811 626.4 644.495C624.098 643.114 621.269 643.114 619.033 644.495C616.731 645.811 615.349 648.179 615.349 650.81C615.349 653.507 616.731 655.875 619.033 657.19C621.269 658.572 624.098 658.572 626.4 657.19C628.636 655.875 630.083 653.507 630.083 650.81ZM613.245 650.81C613.245 647.455 615.021 644.364 617.98 642.654C620.875 640.943 624.492 640.943 627.452 642.654C630.347 644.364 632.188 647.455 632.188 650.81C632.188 654.23 630.347 657.322 627.452 659.032C624.492 660.742 620.875 660.742 617.98 659.032C615.021 657.322 613.245 654.23 613.245 650.81ZM623.769 646.6V649.757H626.926C627.452 649.757 627.979 650.284 627.979 650.81C627.979 651.402 627.452 651.862 626.926 651.862H623.769V655.02C623.769 655.612 623.243 656.072 622.716 656.072C622.124 656.072 621.664 655.612 621.664 655.02V651.862H618.507C617.915 651.862 617.454 651.402 617.454 650.81C617.454 650.284 617.915 649.757 618.507 649.757H621.664V646.6C621.664 646.074 622.124 645.548 622.716 645.548C623.243 645.548 623.769 646.074 623.769 646.6Z" fill="#777FA1"/>
</svg>
