<svg width="39" height="33" viewBox="0 0 39 33" fill="none" xmlns="http://www.w3.org/2000/svg">
<path d="M7.96467 0.653408C8.49089 0.653408 9.0171 1.17962 9.0171 1.70584C9.0171 2.29783 8.49089 2.75827 7.96467 2.75827H6.38602C4.34694 2.75827 2.70252 4.46847 2.70252 6.44178V8.02042C2.70252 8.61241 2.1763 9.07285 1.65009 9.07285C1.05809 9.07285 0.597656 8.61241 0.597656 8.02042V6.44178C0.597656 3.28448 3.16296 0.653408 6.38602 0.653408H7.96467ZM0.597656 18.5447V12.2301C0.597656 11.7039 1.05809 11.1777 1.65009 11.1777C2.1763 11.1777 2.70252 11.7039 2.70252 12.2301V18.5447C2.70252 19.1367 2.1763 19.5972 1.65009 19.5972C1.05809 19.5972 0.597656 19.1367 0.597656 18.5447ZM1.65009 21.702C2.1763 21.702 2.70252 22.2282 2.70252 22.7544V24.3331C2.70252 26.3722 4.34694 28.0166 6.38602 28.0166H7.96467C8.49089 28.0166 9.0171 28.5428 9.0171 29.069C9.0171 29.661 8.49089 30.1215 7.96467 30.1215H6.38602C3.16296 30.1215 0.597656 27.5562 0.597656 24.3331V22.7544C0.597656 22.2282 1.05809 21.702 1.65009 21.702ZM29.0791 11.2435C28.4871 11.3093 27.9608 10.8488 27.9608 10.2568V6.44178C27.9608 4.46847 26.2506 2.75827 24.2773 2.75827H22.6987C22.1067 2.75827 21.6463 2.29783 21.6463 1.70584C21.6463 1.17962 22.1067 0.653408 22.6987 0.653408H24.2773C27.4346 0.653408 30.0657 3.28448 30.0657 6.44178V10.2568C30.0657 10.7831 29.6053 11.1777 29.0791 11.2435ZM11.122 29.069C11.122 28.5428 11.5824 28.0166 12.1744 28.0166H18.489C19.0152 28.0166 19.5414 28.5428 19.5414 29.069C19.5414 29.661 19.0152 30.1215 18.489 30.1215H12.1744C11.5824 30.1215 11.122 29.661 11.122 29.069ZM18.489 2.75827H12.1744C11.5824 2.75827 11.122 2.29783 11.122 1.70584C11.122 1.17962 11.5824 0.653408 12.1744 0.653408H18.489C19.0152 0.653408 19.5414 1.17962 19.5414 1.70584C19.5414 2.29783 19.0152 2.75827 18.489 2.75827ZM36.3803 22.7544C36.3803 20.1234 34.9332 17.7554 32.6968 16.4399C30.3946 15.0586 27.5662 15.0586 25.3298 16.4399C23.0276 17.7554 21.6463 20.1234 21.6463 22.7544C21.6463 25.4513 23.0276 27.8193 25.3298 29.1348C27.5662 30.5161 30.3946 30.5161 32.6968 29.1348C34.9332 27.8193 36.3803 25.4513 36.3803 22.7544ZM19.5414 22.7544C19.5414 19.3998 21.3174 16.3083 24.2773 14.5981C27.1715 12.8879 30.7893 12.8879 33.7492 14.5981C36.6434 16.3083 38.4852 19.3998 38.4852 22.7544C38.4852 26.1748 36.6434 29.2664 33.7492 30.9766C30.7893 32.6868 27.1715 32.6868 24.2773 30.9766C21.3174 29.2664 19.5414 26.1748 19.5414 22.7544ZM30.0657 18.5447V21.702H33.223C33.7492 21.702 34.2754 22.2282 34.2754 22.7544C34.2754 23.3464 33.7492 23.8069 33.223 23.8069H30.0657V26.9642C30.0657 27.5562 29.5395 28.0166 29.0133 28.0166C28.4213 28.0166 27.9608 27.5562 27.9608 26.9642V23.8069H24.8036C24.2116 23.8069 23.7511 23.3464 23.7511 22.7544C23.7511 22.2282 24.2116 21.702 24.8036 21.702H27.9608V18.5447C27.9608 18.0185 28.4213 17.4923 29.0133 17.4923C29.5395 17.4923 30.0657 18.0185 30.0657 18.5447Z" fill="#777FA1"/>
</svg>
