<svg width="34" height="34" viewBox="0 0 34 34" fill="none" xmlns="http://www.w3.org/2000/svg">
<path d="M0.855469 9.70291C0.855469 4.74326 4.87607 0.722656 9.83573 0.722656H24.8028C29.7625 0.722656 33.7831 4.74325 33.7831 9.70291V24.67C33.7831 29.6297 29.7625 33.6503 24.8028 33.6503H9.83573C4.87607 33.6503 0.855469 29.6297 0.855469 24.67V9.70291Z" fill="#045257"/>
<path d="M14.3828 12.749C14.3828 12.3838 14.6836 12.0615 15.0703 12.0615C15.4355 12.0615 15.7578 12.3838 15.7578 12.749V13.4365H18.5078V12.749C18.5078 12.3838 18.8086 12.0615 19.1953 12.0615C19.5605 12.0615 19.8828 12.3838 19.8828 12.749V13.4365H20.9141C21.4727 13.4365 21.9453 13.9092 21.9453 14.4678V15.499H12.3203V14.4678C12.3203 13.9092 12.7715 13.4365 13.3516 13.4365H14.3828V12.749ZM21.9453 16.1865V22.0303C21.9453 22.6104 21.4727 23.0615 20.9141 23.0615H13.3516C12.7715 23.0615 12.3203 22.6104 12.3203 22.0303V16.1865H21.9453Z" fill="white"/>
</svg>
