<svg width="42" height="42" viewBox="0 0 42 42" fill="none" xmlns="http://www.w3.org/2000/svg">
<path d="M0.355469 9.2703C0.355469 4.1661 4.49324 0.0283203 9.59744 0.0283203H32.7024C37.8066 0.0283203 41.9443 4.16609 41.9443 9.27029V32.3752C41.9443 37.4794 37.8066 41.6172 32.7024 41.6172H9.59745C4.49325 41.6172 0.355469 37.4794 0.355469 32.3752V9.2703Z" fill="#FF5959"/>
<path d="M16.8273 13.5566C16.8273 12.994 17.2906 12.4976 17.8863 12.4976C18.4489 12.4976 18.9453 12.994 18.9453 13.5566V14.6155H23.1812V13.5566C23.1812 12.994 23.6445 12.4976 24.2402 12.4976C24.8027 12.4976 25.2991 12.994 25.2991 13.5566V14.6155H26.8876C27.748 14.6155 28.4761 15.3436 28.4761 16.204V17.7925H13.6504V16.204C13.6504 15.3436 14.3453 14.6155 15.2389 14.6155H16.8273V13.5566ZM28.4761 18.8514V27.8527C28.4761 28.7462 27.748 29.4412 26.8876 29.4412H15.2389C14.3453 29.4412 13.6504 28.7462 13.6504 27.8527V18.8514H28.4761Z" fill="white"/>
</svg>
