<svg width="846" height="125" viewBox="0 0 846 125" fill="none" xmlns="http://www.w3.org/2000/svg">
<rect width="845.553" height="124.662" rx="24.0556" fill="white"/>
<path d="M25.385 19.3369H29.5273C30.0998 19.3369 30.6499 19.393 31.1775 19.5052C31.7164 19.6063 32.1935 19.7859 32.6088 20.0441C33.0242 20.3023 33.3554 20.6503 33.6023 21.0881C33.8493 21.5259 33.9728 22.0816 33.9728 22.7552C33.9728 23.6195 33.7314 24.3436 33.2487 24.9274C32.7772 25.5111 32.0981 25.8647 31.2112 25.9882L34.3769 31.2588H31.8174L29.0558 26.2071H27.5067V31.2588H25.385V19.3369ZM29.1569 24.3885C29.46 24.3885 29.7631 24.3773 30.0662 24.3548C30.3693 24.3212 30.6443 24.2538 30.8913 24.1528C31.1495 24.0405 31.3572 23.8777 31.5143 23.6644C31.6715 23.4399 31.7501 23.1312 31.7501 22.7383C31.7501 22.3903 31.6771 22.1097 31.5312 21.8964C31.3852 21.6831 31.1944 21.5259 30.9586 21.4249C30.7229 21.3126 30.4591 21.2397 30.1672 21.206C29.8866 21.1723 29.6115 21.1555 29.3421 21.1555H27.5067V24.3885H29.1569ZM37.4228 27.9247C37.4901 28.5309 37.7259 29.0024 38.13 29.3392C38.5342 29.6759 39.0225 29.8443 39.595 29.8443C40.1002 29.8443 40.5211 29.7433 40.8579 29.5412C41.2059 29.3279 41.509 29.0641 41.7672 28.7498L43.2154 29.8443C42.7439 30.4281 42.2163 30.8434 41.6325 31.0904C41.0488 31.3374 40.437 31.4609 39.7971 31.4609C39.1909 31.4609 38.6184 31.3598 38.0795 31.1578C37.5407 30.9557 37.0748 30.6694 36.6819 30.299C36.289 29.9285 35.9746 29.4851 35.7389 28.9687C35.5144 28.4411 35.4021 27.8573 35.4021 27.2175C35.4021 26.5776 35.5144 25.9994 35.7389 25.4831C35.9746 24.9554 36.289 24.5064 36.6819 24.1359C37.0748 23.7655 37.5407 23.4792 38.0795 23.2772C38.6184 23.0751 39.1909 22.9741 39.7971 22.9741C40.3584 22.9741 40.8692 23.0751 41.3294 23.2772C41.8009 23.468 42.1994 23.7486 42.525 24.1191C42.8618 24.4896 43.1199 24.9498 43.2996 25.4999C43.4904 26.0387 43.5858 26.6618 43.5858 27.369V27.9247H37.4228ZM41.5652 26.4092C41.5539 25.8142 41.3687 25.3483 41.0095 25.0116C40.6502 24.6636 40.1507 24.4896 39.5108 24.4896C38.9046 24.4896 38.4219 24.6636 38.0627 25.0116C37.7147 25.3596 37.5014 25.8254 37.4228 26.4092H41.5652ZM50.9986 25.6009C50.7629 25.354 50.5159 25.1575 50.2577 25.0116C49.9995 24.8656 49.7357 24.7927 49.4663 24.7927C49.0958 24.7927 48.7647 24.86 48.4728 24.9947C48.1809 25.1294 47.9283 25.309 47.715 25.5336C47.513 25.7581 47.3558 26.0163 47.2435 26.3082C47.1425 26.6 47.092 26.9031 47.092 27.2175C47.092 27.5318 47.1425 27.8349 47.2435 28.1268C47.3558 28.4186 47.513 28.6768 47.715 28.9013C47.9283 29.1259 48.1809 29.3055 48.4728 29.4402C48.7647 29.5749 49.0958 29.6423 49.4663 29.6423C49.7806 29.6423 50.0725 29.5805 50.3419 29.457C50.6113 29.3223 50.8415 29.1315 51.0323 28.8845L52.3794 30.3327C52.1773 30.5347 51.9416 30.7087 51.6722 30.8547C51.414 31.0006 51.1502 31.1185 50.8807 31.2083C50.6113 31.2981 50.3531 31.3598 50.1062 31.3935C49.8592 31.4384 49.6459 31.4609 49.4663 31.4609C48.8601 31.4609 48.2876 31.3598 47.7487 31.1578C47.2099 30.9557 46.744 30.6694 46.3511 30.299C45.9582 29.9285 45.6439 29.4851 45.4081 28.9687C45.1836 28.4411 45.0713 27.8573 45.0713 27.2175C45.0713 26.5776 45.1836 25.9994 45.4081 25.4831C45.6439 24.9554 45.9582 24.5064 46.3511 24.1359C46.744 23.7655 47.2099 23.4792 47.7487 23.2772C48.2876 23.0751 48.8601 22.9741 49.4663 22.9741C49.9827 22.9741 50.4991 23.0751 51.0155 23.2772C51.5431 23.468 52.0033 23.7767 52.3962 24.2033L50.9986 25.6009ZM55.2154 27.9247C55.2828 28.5309 55.5185 29.0024 55.9227 29.3392C56.3268 29.6759 56.8151 29.8443 57.3877 29.8443C57.8928 29.8443 58.3138 29.7433 58.6506 29.5412C58.9986 29.3279 59.3017 29.0641 59.5599 28.7498L61.008 29.8443C60.5365 30.4281 60.0089 30.8434 59.4252 31.0904C58.8414 31.3374 58.2296 31.4609 57.5897 31.4609C56.9835 31.4609 56.411 31.3598 55.8722 31.1578C55.3333 30.9557 54.8674 30.6694 54.4745 30.299C54.0816 29.9285 53.7673 29.4851 53.5316 28.9687C53.307 28.4411 53.1948 27.8573 53.1948 27.2175C53.1948 26.5776 53.307 25.9994 53.5316 25.4831C53.7673 24.9554 54.0816 24.5064 54.4745 24.1359C54.8674 23.7655 55.3333 23.4792 55.8722 23.2772C56.411 23.0751 56.9835 22.9741 57.5897 22.9741C58.151 22.9741 58.6618 23.0751 59.1221 23.2772C59.5936 23.468 59.9921 23.7486 60.3176 24.1191C60.6544 24.4896 60.9126 24.9498 61.0922 25.4999C61.2831 26.0387 61.3785 26.6618 61.3785 27.369V27.9247H55.2154ZM59.3578 26.4092C59.3466 25.8142 59.1614 25.3483 58.8021 25.0116C58.4429 24.6636 57.9433 24.4896 57.3035 24.4896C56.6973 24.4896 56.2146 24.6636 55.8553 25.0116C55.5073 25.3596 55.294 25.8254 55.2154 26.4092H59.3578ZM63.2681 23.1761H65.1878V24.4727H65.2214C65.4123 24.0686 65.7041 23.7206 66.0971 23.4287C66.49 23.1256 67.0232 22.9741 67.6967 22.9741C68.2356 22.9741 68.6902 23.0639 69.0607 23.2435C69.4424 23.4231 69.7511 23.6588 69.9868 23.9507C70.2226 24.2426 70.391 24.5794 70.492 24.961C70.593 25.3427 70.6436 25.7412 70.6436 26.1566V31.2588H68.6229V27.1669C68.6229 26.9424 68.6117 26.6955 68.5892 26.426C68.5668 26.1454 68.505 25.8872 68.404 25.6514C68.3142 25.4045 68.1682 25.2024 67.9662 25.0452C67.7641 24.8769 67.4891 24.7927 67.1411 24.7927C66.8043 24.7927 66.518 24.8488 66.2823 24.961C66.0578 25.0733 65.8669 25.2249 65.7098 25.4157C65.5638 25.6065 65.4572 25.8254 65.3898 26.0724C65.3225 26.3194 65.2888 26.5776 65.2888 26.847V31.2588H63.2681V23.1761ZM71.9943 24.8937V23.1761H73.6614V20.8355H75.6821V23.1761H77.9048V24.8937H75.6821V28.4299C75.6821 28.834 75.755 29.1539 75.901 29.3897C76.0581 29.6254 76.3612 29.7433 76.8103 29.7433C76.9899 29.7433 77.1863 29.7265 77.3996 29.6928C77.6129 29.6479 77.7813 29.5805 77.9048 29.4907V31.1914C77.6915 31.2925 77.4277 31.3598 77.1134 31.3935C76.8103 31.4384 76.5408 31.4609 76.3051 31.4609C75.7663 31.4609 75.3228 31.3991 74.9748 31.2756C74.6381 31.1634 74.3686 30.9894 74.1666 30.7536C73.9757 30.5067 73.841 30.2036 73.7624 29.8443C73.6951 29.4851 73.6614 29.0697 73.6614 28.5982V24.8937H71.9943ZM91.8402 31.2588H89.9205V29.9622H89.8868C89.696 30.3663 89.4041 30.7199 89.0112 31.023C88.6183 31.3149 88.0851 31.4609 87.4115 31.4609C86.8727 31.4609 86.4124 31.3767 86.0307 31.2083C85.6603 31.0287 85.3572 30.7929 85.1214 30.501C84.8857 30.1979 84.7173 29.8555 84.6163 29.4739C84.5152 29.0922 84.4647 28.6937 84.4647 28.2783V23.1761H86.4854V27.268C86.4854 27.4925 86.4966 27.7451 86.5191 28.0257C86.5415 28.2951 86.5977 28.5533 86.6875 28.8003C86.7885 29.0361 86.9344 29.2381 87.1253 29.4065C87.3273 29.5637 87.608 29.6423 87.9672 29.6423C88.304 29.6423 88.5846 29.5861 88.8092 29.4739C89.0449 29.3616 89.2357 29.2101 89.3817 29.0192C89.5388 28.8284 89.6511 28.6095 89.7185 28.3625C89.7858 28.1155 89.8195 27.8573 89.8195 27.5879V23.1761H91.8402V31.2588ZM98.4447 25.4157C98.0518 24.8656 97.5242 24.5906 96.8618 24.5906C96.5924 24.5906 96.3286 24.6579 96.0704 24.7927C95.8122 24.9274 95.6831 25.1463 95.6831 25.4494C95.6831 25.6963 95.7898 25.876 96.0031 25.9882C96.2163 26.1005 96.4858 26.1959 96.8113 26.2745C97.1369 26.3531 97.4849 26.4373 97.8553 26.5271C98.237 26.6056 98.5906 26.7347 98.9162 26.9144C99.2417 27.0827 99.5112 27.3185 99.7244 27.6216C99.9377 27.9247 100.044 28.34 100.044 28.8677C100.044 29.3504 99.9377 29.7601 99.7244 30.0969C99.5224 30.4225 99.253 30.6863 98.9162 30.8883C98.5906 31.0904 98.2202 31.2363 97.8048 31.3261C97.3895 31.416 96.9741 31.4609 96.5587 31.4609C95.9301 31.4609 95.3519 31.371 94.8243 31.1914C94.2967 31.0118 93.8252 30.6863 93.4099 30.2148L94.757 28.9519C95.0152 29.2437 95.2902 29.4851 95.5821 29.6759C95.8852 29.8555 96.25 29.9454 96.6766 29.9454C96.8225 29.9454 96.9741 29.9285 97.1313 29.8948C97.2884 29.8612 97.4344 29.805 97.5691 29.7265C97.7038 29.6479 97.8104 29.5524 97.889 29.4402C97.9788 29.3167 98.0237 29.1764 98.0237 29.0192C98.0237 28.7386 97.9171 28.5309 97.7038 28.3962C97.4905 28.2615 97.2211 28.1548 96.8955 28.0762C96.57 27.9864 96.2163 27.9079 95.8347 27.8405C95.4642 27.7619 95.1162 27.644 94.7907 27.4869C94.4651 27.3185 94.1957 27.0884 93.9824 26.7965C93.7691 26.5046 93.6624 26.1005 93.6624 25.5841C93.6624 25.135 93.7523 24.7478 93.9319 24.4222C94.1227 24.0854 94.3697 23.8104 94.6728 23.5971C94.9759 23.3838 95.3239 23.2266 95.7168 23.1256C96.1097 23.0246 96.5082 22.9741 96.9124 22.9741C97.4512 22.9741 97.9844 23.0695 98.512 23.2603C99.0397 23.4399 99.4663 23.7543 99.7918 24.2033L98.4447 25.4157ZM103.233 27.9247C103.3 28.5309 103.536 29.0024 103.94 29.3392C104.344 29.6759 104.832 29.8443 105.405 29.8443C105.91 29.8443 106.331 29.7433 106.668 29.5412C107.016 29.3279 107.319 29.0641 107.577 28.7498L109.025 29.8443C108.554 30.4281 108.026 30.8434 107.442 31.0904C106.859 31.3374 106.247 31.4609 105.607 31.4609C105.001 31.4609 104.428 31.3598 103.889 31.1578C103.35 30.9557 102.885 30.6694 102.492 30.299C102.099 29.9285 101.784 29.4851 101.549 28.9687C101.324 28.4411 101.212 27.8573 101.212 27.2175C101.212 26.5776 101.324 25.9994 101.549 25.4831C101.784 24.9554 102.099 24.5064 102.492 24.1359C102.885 23.7655 103.35 23.4792 103.889 23.2772C104.428 23.0751 105.001 22.9741 105.607 22.9741C106.168 22.9741 106.679 23.0751 107.139 23.2772C107.611 23.468 108.009 23.7486 108.335 24.1191C108.672 24.4896 108.93 24.9498 109.109 25.4999C109.3 26.0387 109.396 26.6618 109.396 27.369V27.9247H103.233ZM107.375 26.4092C107.364 25.8142 107.178 25.3483 106.819 25.0116C106.46 24.6636 105.96 24.4896 105.321 24.4896C104.714 24.4896 104.232 24.6636 103.872 25.0116C103.524 25.3596 103.311 25.8254 103.233 26.4092H107.375ZM117.684 30.0464H117.65C117.358 30.5403 116.966 30.8996 116.472 31.1241C115.978 31.3486 115.444 31.4609 114.872 31.4609C114.243 31.4609 113.682 31.3542 113.188 31.1409C112.705 30.9164 112.29 30.6133 111.942 30.2316C111.594 29.8499 111.33 29.4009 111.151 28.8845C110.971 28.3681 110.881 27.8124 110.881 27.2175C110.881 26.6225 110.977 26.0668 111.167 25.5504C111.358 25.034 111.622 24.585 111.959 24.2033C112.307 23.8216 112.722 23.5241 113.205 23.3108C113.688 23.0863 114.215 22.9741 114.788 22.9741C115.169 22.9741 115.506 23.0133 115.798 23.0919C116.09 23.1705 116.348 23.2715 116.573 23.395C116.797 23.5185 116.988 23.6532 117.145 23.7992C117.302 23.9339 117.431 24.0686 117.532 24.2033H117.583V18.5286H119.604V31.2588H117.684V30.0464ZM112.902 27.2175C112.902 27.5318 112.952 27.8349 113.053 28.1268C113.166 28.4186 113.323 28.6768 113.525 28.9013C113.738 29.1259 113.991 29.3055 114.283 29.4402C114.574 29.5749 114.906 29.6423 115.276 29.6423C115.647 29.6423 115.978 29.5749 116.27 29.4402C116.561 29.3055 116.808 29.1259 117.01 28.9013C117.224 28.6768 117.381 28.4186 117.482 28.1268C117.594 27.8349 117.65 27.5318 117.65 27.2175C117.65 26.9031 117.594 26.6 117.482 26.3082C117.381 26.0163 117.224 25.7581 117.01 25.5336C116.808 25.309 116.561 25.1294 116.27 24.9947C115.978 24.86 115.647 24.7927 115.276 24.7927C114.906 24.7927 114.574 24.86 114.283 24.9947C113.991 25.1294 113.738 25.309 113.525 25.5336C113.323 25.7581 113.166 26.0163 113.053 26.3082C112.952 26.6 112.902 26.9031 112.902 27.2175ZM131.926 30.1474H131.876C131.584 30.6077 131.213 30.9445 130.764 31.1578C130.315 31.3598 129.821 31.4609 129.282 31.4609C128.912 31.4609 128.547 31.4103 128.188 31.3093C127.84 31.2083 127.525 31.0567 127.245 30.8547C126.975 30.6526 126.757 30.4 126.588 30.0969C126.42 29.7938 126.336 29.4402 126.336 29.0361C126.336 28.5982 126.414 28.2278 126.571 27.9247C126.728 27.6104 126.936 27.3522 127.194 27.1501C127.464 26.9368 127.772 26.7684 128.12 26.6449C128.468 26.5214 128.828 26.4316 129.198 26.3755C129.58 26.3082 129.962 26.2689 130.343 26.2576C130.725 26.2352 131.084 26.224 131.421 26.224H131.926V26.0051C131.926 25.4999 131.752 25.1238 131.404 24.8769C131.056 24.6187 130.613 24.4896 130.074 24.4896C129.647 24.4896 129.249 24.5681 128.878 24.7253C128.508 24.8712 128.188 25.0733 127.918 25.3315L126.858 24.2707C127.307 23.8104 127.829 23.4792 128.424 23.2772C129.03 23.0751 129.653 22.9741 130.293 22.9741C130.865 22.9741 131.348 23.0414 131.741 23.1761C132.134 23.2996 132.459 23.4624 132.717 23.6644C132.976 23.8665 133.172 24.1023 133.307 24.3717C133.453 24.6299 133.554 24.8937 133.61 25.1631C133.677 25.4325 133.717 25.6963 133.728 25.9545C133.739 26.2015 133.745 26.4204 133.745 26.6113V31.2588H131.926V30.1474ZM131.808 27.6384H131.387C131.107 27.6384 130.792 27.6497 130.444 27.6721C130.096 27.6946 129.765 27.7507 129.451 27.8405C129.148 27.9191 128.889 28.0426 128.676 28.211C128.463 28.3681 128.356 28.5926 128.356 28.8845C128.356 29.0753 128.396 29.2381 128.474 29.3728C128.564 29.4963 128.676 29.603 128.811 29.6928C128.946 29.7826 129.097 29.8499 129.266 29.8948C129.434 29.9285 129.602 29.9454 129.771 29.9454C130.467 29.9454 130.977 29.7826 131.303 29.457C131.64 29.1203 131.808 28.6656 131.808 28.0931V27.6384ZM135.919 23.1761H137.838V24.3885H137.872C138.164 23.8946 138.557 23.5354 139.051 23.3108C139.545 23.0863 140.078 22.9741 140.65 22.9741C141.268 22.9741 141.824 23.0863 142.317 23.3108C142.811 23.5241 143.232 23.8216 143.58 24.2033C143.928 24.585 144.192 25.034 144.372 25.5504C144.551 26.0668 144.641 26.6225 144.641 27.2175C144.641 27.8124 144.546 28.3681 144.355 28.8845C144.164 29.4009 143.895 29.8499 143.547 30.2316C143.21 30.6133 142.8 30.9164 142.317 31.1409C141.835 31.3542 141.307 31.4609 140.735 31.4609C140.353 31.4609 140.016 31.4216 139.724 31.343C139.432 31.2644 139.174 31.1634 138.95 31.0399C138.725 30.9164 138.534 30.7873 138.377 30.6526C138.22 30.5067 138.091 30.3663 137.99 30.2316H137.939V35.0981H135.919V23.1761ZM142.621 27.2175C142.621 26.9031 142.564 26.6 142.452 26.3082C142.351 26.0163 142.194 25.7581 141.981 25.5336C141.779 25.309 141.532 25.1294 141.24 24.9947C140.948 24.86 140.617 24.7927 140.246 24.7927C139.876 24.7927 139.545 24.86 139.253 24.9947C138.961 25.1294 138.708 25.309 138.495 25.5336C138.293 25.7581 138.136 26.0163 138.024 26.3082C137.923 26.6 137.872 26.9031 137.872 27.2175C137.872 27.5318 137.923 27.8349 138.024 28.1268C138.136 28.4186 138.293 28.6768 138.495 28.9013C138.708 29.1259 138.961 29.3055 139.253 29.4402C139.545 29.5749 139.876 29.6423 140.246 29.6423C140.617 29.6423 140.948 29.5749 141.24 29.4402C141.532 29.3055 141.779 29.1259 141.981 28.9013C142.194 28.6768 142.351 28.4186 142.452 28.1268C142.564 27.8349 142.621 27.5318 142.621 27.2175ZM146.525 23.1761H148.445V24.3885H148.479C148.77 23.8946 149.163 23.5354 149.657 23.3108C150.151 23.0863 150.684 22.9741 151.257 22.9741C151.874 22.9741 152.43 23.0863 152.924 23.3108C153.418 23.5241 153.839 23.8216 154.187 24.2033C154.535 24.585 154.799 25.034 154.978 25.5504C155.158 26.0668 155.248 26.6225 155.248 27.2175C155.248 27.8124 155.152 28.3681 154.962 28.8845C154.771 29.4009 154.501 29.8499 154.153 30.2316C153.816 30.6133 153.407 30.9164 152.924 31.1409C152.441 31.3542 151.914 31.4609 151.341 31.4609C150.959 31.4609 150.623 31.4216 150.331 31.343C150.039 31.2644 149.781 31.1634 149.556 31.0399C149.332 30.9164 149.141 30.7873 148.984 30.6526C148.827 30.5067 148.697 30.3663 148.596 30.2316H148.546V35.0981H146.525V23.1761ZM153.227 27.2175C153.227 26.9031 153.171 26.6 153.059 26.3082C152.958 26.0163 152.801 25.7581 152.587 25.5336C152.385 25.309 152.138 25.1294 151.846 24.9947C151.554 24.86 151.223 24.7927 150.853 24.7927C150.482 24.7927 150.151 24.86 149.859 24.9947C149.567 25.1294 149.315 25.309 149.102 25.5336C148.9 25.7581 148.742 26.0163 148.63 26.3082C148.529 26.6 148.479 26.9031 148.479 27.2175C148.479 27.5318 148.529 27.8349 148.63 28.1268C148.742 28.4186 148.9 28.6768 149.102 28.9013C149.315 29.1259 149.567 29.3055 149.859 29.4402C150.151 29.5749 150.482 29.6423 150.853 29.6423C151.223 29.6423 151.554 29.5749 151.846 29.4402C152.138 29.3055 152.385 29.1259 152.587 28.9013C152.801 28.6768 152.958 28.4186 153.059 28.1268C153.171 27.8349 153.227 27.5318 153.227 27.2175ZM161.443 25.4157C161.05 24.8656 160.522 24.5906 159.86 24.5906C159.59 24.5906 159.326 24.6579 159.068 24.7927C158.81 24.9274 158.681 25.1463 158.681 25.4494C158.681 25.6963 158.788 25.876 159.001 25.9882C159.214 26.1005 159.484 26.1959 159.809 26.2745C160.135 26.3531 160.483 26.4373 160.853 26.5271C161.235 26.6056 161.588 26.7347 161.914 26.9144C162.24 27.0827 162.509 27.3185 162.722 27.6216C162.936 27.9247 163.042 28.34 163.042 28.8677C163.042 29.3504 162.936 29.7601 162.722 30.0969C162.52 30.4225 162.251 30.6863 161.914 30.8883C161.588 31.0904 161.218 31.2363 160.803 31.3261C160.387 31.416 159.972 31.4609 159.557 31.4609C158.928 31.4609 158.35 31.371 157.822 31.1914C157.295 31.0118 156.823 30.6863 156.408 30.2148L157.755 28.9519C158.013 29.2437 158.288 29.4851 158.58 29.6759C158.883 29.8555 159.248 29.9454 159.674 29.9454C159.82 29.9454 159.972 29.9285 160.129 29.8948C160.286 29.8612 160.432 29.805 160.567 29.7265C160.702 29.6479 160.808 29.5524 160.887 29.4402C160.977 29.3167 161.022 29.1764 161.022 29.0192C161.022 28.7386 160.915 28.5309 160.702 28.3962C160.488 28.2615 160.219 28.1548 159.893 28.0762C159.568 27.9864 159.214 27.9079 158.832 27.8405C158.462 27.7619 158.114 27.644 157.788 27.4869C157.463 27.3185 157.194 27.0884 156.98 26.7965C156.767 26.5046 156.66 26.1005 156.66 25.5841C156.66 25.135 156.75 24.7478 156.93 24.4222C157.121 24.0854 157.368 23.8104 157.671 23.5971C157.974 23.3838 158.322 23.2266 158.715 23.1256C159.108 23.0246 159.506 22.9741 159.91 22.9741C160.449 22.9741 160.982 23.0695 161.51 23.2603C162.037 23.4399 162.464 23.7543 162.79 24.2033L161.443 25.4157Z" fill="black"/>
<path d="M24.0547 66.4637C24.0547 60.3245 29.0315 55.3477 35.1707 55.3477H62.9608C69.1001 55.3477 74.0769 60.3245 74.0769 66.4637V94.2538C74.0769 100.393 69.1 105.37 62.9608 105.37H35.1707C29.0315 105.37 24.0547 100.393 24.0547 94.2538V66.4637Z" fill="#0091EA"/>
<path d="M49.0335 72.8502C44.8143 72.8502 41.3912 76.2733 41.3912 80.4925C41.3912 84.7117 44.8143 88.1348 49.0335 88.1348C49.7101 88.1348 50.3072 88.7318 50.3072 89.4085C50.3072 90.1249 49.7101 90.6822 49.0335 90.6822C43.3814 90.6822 38.8438 86.1446 38.8438 80.4925C38.8438 74.8802 43.3814 70.3028 49.0335 70.3028C54.6458 70.3028 59.2232 74.8802 59.2232 80.4925V81.7662C59.2232 83.8758 57.5116 85.5873 55.402 85.5873C54.2079 85.5873 53.173 85.0699 52.4566 84.2738C51.5809 85.1097 50.347 85.5873 49.0335 85.5873C46.2074 85.5873 43.9386 83.3185 43.9386 80.4925C43.9386 77.7062 46.2074 75.3976 49.0335 75.3976C50.1081 75.3976 51.143 75.7559 51.9789 76.3927C52.2177 76.1937 52.4964 76.0345 52.8546 76.0345C53.5313 76.0345 54.1283 76.6315 54.1283 77.3082V80.4925V81.7662C54.1283 82.4827 54.6856 83.0399 55.402 83.0399C56.0787 83.0399 56.6757 82.4827 56.6757 81.7662V80.4925C56.6757 76.2733 53.2526 72.8502 49.0335 72.8502ZM51.5809 80.4925C51.5809 79.6168 51.0634 78.7809 50.3072 78.3033C49.5111 77.8655 48.516 77.8655 47.7597 78.3033C46.9637 78.7809 46.486 79.6168 46.486 80.4925C46.486 81.408 46.9637 82.2438 47.7597 82.7215C48.516 83.1593 49.5111 83.1593 50.3072 82.7215C51.0634 82.2438 51.5809 81.408 51.5809 80.4925Z" fill="white"/>
<path d="M93.3203 66.4637C93.3203 60.3245 98.2971 55.3477 104.436 55.3477H132.226C138.366 55.3477 143.342 60.3245 143.342 66.4637V94.2538C143.342 100.393 138.366 105.37 132.226 105.37H104.436C98.2971 105.37 93.3203 100.393 93.3203 94.2538V66.4637Z" fill="#27BD50"/>
<path d="M128.594 81.0439L123.933 85.7045C121.603 88.0764 117.774 88.0764 115.444 85.7045C113.364 83.6239 113.072 80.3781 114.778 77.9645L114.82 77.9229C115.278 77.2987 116.11 77.1739 116.693 77.59C117.275 78.0061 117.442 78.8384 116.984 79.4626L116.942 79.5042C115.985 80.8358 116.152 82.6668 117.317 83.8319C118.607 85.1635 120.729 85.1635 122.061 83.8319L126.721 79.1713C128.053 77.8397 128.053 75.7174 126.721 74.4274C125.556 73.2623 123.725 73.0958 122.393 74.0529L122.352 74.0945C121.728 74.5523 120.895 74.3858 120.479 73.8033C120.063 73.2207 120.188 72.3884 120.771 71.9307L120.854 71.8891C123.267 70.1829 126.513 70.4742 128.594 72.5549C130.966 74.8852 130.966 78.7136 128.594 81.0439ZM106.997 80.0868L111.657 75.3845C114.029 73.0542 117.816 73.0542 120.188 75.3845C122.269 77.4652 122.518 80.7526 120.812 83.1661L120.771 83.2077C120.354 83.8319 119.481 83.9568 118.898 83.5406C118.315 83.1245 118.149 82.2923 118.607 81.6681L118.648 81.6265C119.605 80.2532 119.439 78.4639 118.274 77.2987C116.984 75.9671 114.862 75.9671 113.53 77.2987L108.869 81.9594C107.579 83.2494 107.579 85.3716 108.869 86.7032C110.034 87.8684 111.865 88.0348 113.197 87.0777L113.239 87.0361C113.863 86.5784 114.695 86.7448 115.111 87.3274C115.527 87.91 115.403 88.7422 114.82 89.2L114.737 89.2416C112.365 90.9477 109.077 90.6564 106.997 88.5758C104.625 86.2455 104.625 82.4171 106.997 80.0868Z" fill="white"/>
<path d="M162.59 66.4637C162.59 60.3245 167.567 55.3477 173.706 55.3477H201.496C207.635 55.3477 212.612 60.3245 212.612 66.4637V94.2538C212.612 100.393 207.635 105.37 201.496 105.37H173.706C167.567 105.37 162.59 100.393 162.59 94.2538V66.4637Z" fill="#52B7CA"/>
<path d="M195.954 85.5873H181.943C180.51 85.5873 179.395 84.4728 179.395 83.0399V74.1239C179.395 72.7308 180.51 71.5765 181.943 71.5765H186.6C187.276 71.5765 187.913 71.8551 188.391 72.3328L189.466 73.4075C189.943 73.8851 190.58 74.1239 191.257 74.1239H195.954C197.347 74.1239 198.501 75.2782 198.501 76.6713V83.0399C198.501 84.4728 197.347 85.5873 195.954 85.5873ZM177.485 75.0792V83.9952C177.485 85.9456 179.037 87.4979 180.987 87.4979H193.725C194.242 87.4979 194.68 87.9357 194.68 88.4532C194.68 89.0104 194.242 89.4085 193.725 89.4085H180.987C177.962 89.4085 175.574 87.0203 175.574 83.9952V75.0792C175.574 74.5618 175.972 74.1239 176.53 74.1239C177.047 74.1239 177.485 74.5618 177.485 75.0792Z" fill="white"/>
<path d="M231.855 66.4295C231.855 60.2903 236.832 55.3135 242.972 55.3135H270.762C276.901 55.3135 281.878 60.2903 281.878 66.4295V94.2874C281.878 100.427 276.901 105.403 270.762 105.403H242.971C236.832 105.403 231.855 100.427 231.855 94.2874V66.4295Z" fill="#6E38CE"/>
<path d="M251.279 75.3976V76.6713C251.279 77.3878 250.682 77.9451 250.005 77.9451C249.289 77.9451 248.732 77.3878 248.732 76.6713V75.3976C248.732 73.288 250.443 71.5765 252.553 71.5765C254.662 71.5765 256.374 73.288 256.374 75.3976V75.7161C256.374 76.5519 256.294 77.3878 256.215 78.2237L261.071 76.751C261.548 76.5917 262.026 76.751 262.384 77.0694C262.703 77.4276 262.822 77.9053 262.663 78.3829L261.946 80.4925H265.29C265.966 80.4925 266.564 81.0895 266.564 81.7662C266.564 82.4827 265.966 83.0399 265.29 83.0399H260.195C259.757 83.0399 259.399 82.8409 259.16 82.5225C258.921 82.204 258.842 81.7662 258.961 81.3682L259.479 79.8954L255.697 81.0099C255.22 83.1195 254.463 85.1495 253.389 87.0203L252.831 87.9756C252.314 88.891 251.359 89.4085 250.324 89.4085C248.732 89.4085 247.458 88.1348 247.458 86.5426V83.6768C247.458 82.005 248.533 80.4925 250.164 80.0148L253.508 79.0198C253.707 77.9451 253.826 76.8306 253.826 75.7161V75.3976C253.826 74.721 253.229 74.1239 252.553 74.1239C251.836 74.1239 251.279 74.721 251.279 75.3976ZM250.881 82.4429C250.364 82.6021 249.965 83.1195 249.965 83.6768V86.5426C249.965 86.7416 250.125 86.9009 250.324 86.9009C250.443 86.9009 250.563 86.8212 250.602 86.7018L251.16 85.7466C251.876 84.5126 252.433 83.2389 252.831 81.8856L250.881 82.4429ZM244.592 84.9505H246.184V86.5426C246.184 86.662 246.184 86.7814 246.184 86.8611H244.592C244.035 86.8611 243.637 86.463 243.637 85.9058C243.637 85.3883 244.035 84.9505 244.592 84.9505ZM268.156 86.8611H254.901C255.22 86.264 255.538 85.6271 255.777 84.9505H268.156C268.673 84.9505 269.111 85.3883 269.111 85.9058C269.111 86.463 268.673 86.8611 268.156 86.8611Z" fill="white"/>
<path d="M301.121 66.4637C301.121 60.3245 306.098 55.3477 312.237 55.3477H340.027C346.166 55.3477 351.143 60.3245 351.143 66.4637V94.2538C351.143 100.393 346.166 105.37 340.027 105.37H312.237C306.098 105.37 301.121 100.393 301.121 94.2538V66.4637Z" fill="#FF5959"/>
<path d="M320.934 71.5765C320.934 70.8998 321.492 70.3028 322.208 70.3028C322.885 70.3028 323.482 70.8998 323.482 71.5765V72.8502H328.577V71.5765C328.577 70.8998 329.134 70.3028 329.85 70.3028C330.527 70.3028 331.124 70.8998 331.124 71.5765V72.8502H333.035C334.07 72.8502 334.945 73.7259 334.945 74.7608V76.6713H317.113V74.7608C317.113 73.7259 317.949 72.8502 319.024 72.8502H320.934V71.5765ZM334.945 77.9451V88.7716C334.945 89.8463 334.07 90.6822 333.035 90.6822H319.024C317.949 90.6822 317.113 89.8463 317.113 88.7716V77.9451H334.945Z" fill="white"/>
</svg>
