<svg width="18" height="15" viewBox="0 0 18 15" fill="none" xmlns="http://www.w3.org/2000/svg">
<path d="M5.76858 0.365029C6.09746 0.661025 6.09746 1.15435 5.80146 1.48324L3.4335 4.11431C3.30194 4.24587 3.10461 4.34453 2.87439 4.34453C2.67706 4.37742 2.44684 4.27875 2.31529 4.11431L0.99975 2.79877C0.670866 2.50278 0.670866 2.00945 0.99975 1.68057C1.29575 1.38457 1.78907 1.38457 2.08507 1.68057L2.8415 2.437L4.65037 0.397917C4.94636 0.0690327 5.43969 0.0690327 5.76858 0.365029ZM5.76858 5.62718C6.09746 5.92318 6.09746 6.4165 5.80146 6.74539L3.4335 9.37647C3.30194 9.50802 3.10461 9.60668 2.87439 9.60668C2.67706 9.63957 2.44684 9.54091 2.31529 9.37647L0.99975 8.06093C0.670866 7.76493 0.670866 7.2716 0.99975 6.97561C1.29575 6.64672 1.78907 6.64672 2.08507 6.97561L2.8415 7.69915L4.65037 5.66007C4.94636 5.36407 5.43969 5.33119 5.76858 5.62718ZM8.13654 2.23967C8.13654 1.68057 8.59698 1.18724 9.18898 1.18724H16.556C17.1151 1.18724 17.6084 1.68057 17.6084 2.23967C17.6084 2.83166 17.1151 3.2921 16.556 3.2921H9.18898C8.59698 3.2921 8.13654 2.83166 8.13654 2.23967ZM8.13654 7.50182C8.13654 6.94272 8.59698 6.44939 9.18898 6.44939H16.556C17.1151 6.44939 17.6084 6.94272 17.6084 7.50182C17.6084 8.09382 17.1151 8.55425 16.556 8.55425H9.18898C8.59698 8.55425 8.13654 8.09382 8.13654 7.50182ZM6.03168 12.764C6.03168 12.2049 6.49212 11.7115 7.08411 11.7115H16.556C17.1151 11.7115 17.6084 12.2049 17.6084 12.764C17.6084 13.356 17.1151 13.8164 16.556 13.8164H7.08411C6.49212 13.8164 6.03168 13.356 6.03168 12.764ZM2.34818 11.1853C2.90728 11.1853 3.40061 11.5142 3.6966 11.9747C3.9926 12.468 3.9926 13.0929 3.6966 13.5533C3.40061 14.0466 2.90728 14.3426 2.34818 14.3426C1.75618 14.3426 1.26286 14.0466 0.966862 13.5533C0.670866 13.0929 0.670866 12.468 0.966862 11.9747C1.26286 11.5142 1.75618 11.1853 2.34818 11.1853Z" fill="#D0D4E4"/>
</svg>
