<svg width="42" height="42" viewBox="0 0 42 42" fill="none" xmlns="http://www.w3.org/2000/svg">
<path d="M0 9.2703C0 4.1661 4.13777 0.0283203 9.24197 0.0283203H32.3469C37.4511 0.0283203 41.5889 4.16609 41.5889 9.27029V32.3752C41.5889 37.4794 37.4511 41.6172 32.3469 41.6172H9.24198C4.13778 41.6172 0 37.4794 0 32.3752V9.2703Z" fill="#0091EA"/>
<path d="M20.7667 14.6155C17.2589 14.6155 14.4129 17.4615 14.4129 20.9694C14.4129 24.4772 17.2589 27.3232 20.7667 27.3232C21.3293 27.3232 21.8257 27.8196 21.8257 28.3822C21.8257 28.9779 21.3293 29.4412 20.7667 29.4412C16.0675 29.4412 12.2949 25.6686 12.2949 20.9694C12.2949 16.3033 16.0675 12.4976 20.7667 12.4976C25.4328 12.4976 29.2385 16.3033 29.2385 20.9694V22.0284C29.2385 23.7823 27.8155 25.2053 26.0616 25.2053C25.0688 25.2053 24.2084 24.7751 23.6127 24.1132C22.8847 24.8082 21.8588 25.2053 20.7667 25.2053C18.4171 25.2053 16.5308 23.319 16.5308 20.9694C16.5308 18.6529 18.4171 16.7335 20.7667 16.7335C21.6602 16.7335 22.5207 17.0313 23.2156 17.5608C23.4142 17.3953 23.6458 17.263 23.9437 17.263C24.5062 17.263 25.0026 17.7594 25.0026 18.3219V20.9694V22.0284C25.0026 22.624 25.4659 23.0873 26.0616 23.0873C26.6242 23.0873 27.1206 22.624 27.1206 22.0284V20.9694C27.1206 17.4615 24.2746 14.6155 20.7667 14.6155ZM22.8847 20.9694C22.8847 20.2413 22.4545 19.5464 21.8257 19.1493C21.1638 18.7852 20.3365 18.7852 19.7078 19.1493C19.0459 19.5464 18.6488 20.2413 18.6488 20.9694C18.6488 21.7305 19.0459 22.4255 19.7078 22.8226C20.3365 23.1866 21.1638 23.1866 21.8257 22.8226C22.4545 22.4255 22.8847 21.7305 22.8847 20.9694Z" fill="white"/>
</svg>
