<svg width="42" height="42" viewBox="0 0 42 42" fill="none" xmlns="http://www.w3.org/2000/svg">
<path d="M0.177734 9.2703C0.177734 4.1661 4.31551 0.0283203 9.41971 0.0283203H32.5246C37.6288 0.0283203 41.7666 4.16609 41.7666 9.27029V32.3752C41.7666 37.4794 37.6288 41.6172 32.5246 41.6172H9.41971C4.31551 41.6172 0.177734 37.4794 0.177734 32.3752V9.2703Z" fill="#52B7CA"/>
<path d="M27.9163 25.2053H16.2675C15.0762 25.2053 14.1496 24.2787 14.1496 23.0873V15.6745C14.1496 14.5162 15.0762 13.5566 16.2675 13.5566H20.1394C20.702 13.5566 21.2315 13.7882 21.6286 14.1853L22.5221 15.0788C22.9192 15.4759 23.4487 15.6745 24.0113 15.6745H27.9163C29.0745 15.6745 30.0342 16.6342 30.0342 17.7925V23.0873C30.0342 24.2787 29.0745 25.2053 27.9163 25.2053ZM12.5611 16.4687V23.8816C12.5611 25.5031 13.8517 26.7938 15.4733 26.7938H26.0631C26.4933 26.7938 26.8573 27.1578 26.8573 27.588C26.8573 28.0513 26.4933 28.3822 26.0631 28.3822H15.4733C12.9582 28.3822 10.9727 26.3966 10.9727 23.8816V16.4687C10.9727 16.0385 11.3036 15.6745 11.7669 15.6745C12.1971 15.6745 12.5611 16.0385 12.5611 16.4687Z" fill="white"/>
</svg>
