<svg width="32" height="32" viewBox="0 0 32 32" fill="none" xmlns="http://www.w3.org/2000/svg">
<path d="M0.671875 8.58445C0.671875 3.87413 4.49034 0.0556641 9.20066 0.0556641H23.4153C28.1256 0.0556641 31.9441 3.87413 31.9441 8.58445V22.7991C31.9441 27.5094 28.1256 31.3279 23.4153 31.3279H9.20066C4.49034 31.3279 0.671875 27.5094 0.671875 22.7991V8.58445Z" fill="#045257"/>
<path d="M9.69141 11.2809C9.69141 9.95657 10.7658 8.88214 12.0901 8.88214C13.4144 8.88214 14.4888 9.95657 14.4888 11.2809V12.0804H17.6871V11.2809C17.6871 9.95657 18.7616 8.88214 20.0859 8.88214C21.4102 8.88214 22.4846 9.95657 22.4846 11.2809C22.4846 12.6052 21.4102 13.6796 20.0859 13.6796H19.2863V16.8779H20.0859C21.4102 16.8779 22.4846 17.9523 22.4846 19.2766C22.4846 20.6009 21.4102 21.6753 20.0859 21.6753C18.7616 21.6753 17.6871 20.6009 17.6871 19.2766V18.477H14.4888V19.2766C14.4888 20.6009 13.4144 21.6753 12.0901 21.6753C10.7658 21.6753 9.69141 20.6009 9.69141 19.2766C9.69141 17.9523 10.7658 16.8779 12.0901 16.8779H12.8897V13.6796H12.0901C10.7658 13.6796 9.69141 12.6052 9.69141 11.2809ZM12.8897 12.0804V11.2809C12.8897 10.8561 12.5149 10.4813 12.0901 10.4813C11.6404 10.4813 11.2906 10.8561 11.2906 11.2809C11.2906 11.7306 11.6404 12.0804 12.0901 12.0804H12.8897ZM14.4888 16.8779H17.6871V13.6796H14.4888V16.8779ZM12.8897 18.477H12.0901C11.6404 18.477 11.2906 18.8518 11.2906 19.2766C11.2906 19.7264 11.6404 20.0762 12.0901 20.0762C12.5149 20.0762 12.8897 19.7264 12.8897 19.2766V18.477ZM19.2863 18.477V19.2766C19.2863 19.7264 19.6361 20.0762 20.0859 20.0762C20.5106 20.0762 20.8854 19.7264 20.8854 19.2766C20.8854 18.8518 20.5106 18.477 20.0859 18.477H19.2863ZM19.2863 12.0804H20.0859C20.5106 12.0804 20.8854 11.7306 20.8854 11.2809C20.8854 10.8561 20.5106 10.4813 20.0859 10.4813C19.6361 10.4813 19.2863 10.8561 19.2863 11.2809V12.0804Z" fill="white"/>
</svg>
