<svg width="32" height="33" viewBox="0 0 32 33" fill="none" xmlns="http://www.w3.org/2000/svg">
<path d="M0.300781 9.44861C0.300781 4.72971 4.1262 0.904297 8.8451 0.904297H23.0856C27.8045 0.904297 31.6299 4.72972 31.6299 9.44861V23.6891C31.6299 28.408 27.8045 32.2334 23.0856 32.2334H8.84509C4.1262 32.2334 0.300781 28.408 0.300781 23.6891V9.44861Z" fill="#5C52CA"/>
<path d="M15.5426 10.5587C15.7425 10.5587 15.9424 10.6086 16.1173 10.6836L23.1386 13.2073C23.3634 13.2822 23.5384 13.5071 23.5384 13.757C23.5384 14.0318 23.3634 14.2567 23.1386 14.3317L16.1173 16.8553C15.9424 16.9303 15.7425 16.9553 15.5176 16.9553C15.3177 16.9553 15.1178 16.9303 14.9429 16.8553L10.9451 15.4061C11.1699 15.1812 11.4448 15.0063 11.7446 14.8814L15.6675 13.3322C15.8924 13.2572 15.9924 13.0323 15.8924 12.8075C15.8175 12.6076 15.5926 12.5076 15.3927 12.5826L11.4698 14.1318C10.9701 14.3317 10.5453 14.6315 10.2204 15.0313C9.79568 15.606 9.54581 16.3056 9.54581 17.0552V17.6799C9.69573 18.0047 9.79568 18.3795 9.87064 18.7293C10.0206 19.404 10.1455 20.3784 9.92061 21.4529C9.89562 21.5528 9.84565 21.6528 9.7457 21.7027C9.64576 21.7527 9.54581 21.7777 9.44586 21.7527L7.84672 21.3529C7.6968 21.3279 7.59685 21.228 7.54688 21.103C7.52189 20.9781 7.54688 20.8282 7.62184 20.7282C7.82173 20.4284 8.02162 20.1036 8.17154 19.7788C8.47138 19.2041 8.74624 18.4794 8.74624 17.7548V17.0552C8.74624 16.2556 8.97112 15.506 9.3709 14.8564L7.92168 14.3317C7.6968 14.2567 7.54688 14.0318 7.54688 13.757C7.54688 13.5071 7.6968 13.2822 7.92168 13.2073L14.9429 10.6836C15.1178 10.6086 15.3177 10.5587 15.5426 10.5587ZM10.7452 19.9537L11.12 16.3306L14.6681 17.6049C14.9429 17.7049 15.2428 17.7548 15.5426 17.7548C15.8175 17.7548 16.1173 17.7049 16.3922 17.6049L19.9403 16.3306L20.3401 19.9537C20.3401 20.8532 18.1912 21.7527 15.5426 21.7527C12.894 21.7527 10.7452 20.8532 10.7452 19.9537Z" fill="white"/>
</svg>
