<svg width="43" height="42" viewBox="0 0 43 42" fill="none" xmlns="http://www.w3.org/2000/svg">
<path d="M0.589844 9.2703C0.589844 4.1661 4.72762 0.0283203 9.83182 0.0283203H32.9367C38.0409 0.0283203 42.1787 4.16609 42.1787 9.27029V32.3752C42.1787 37.4794 38.041 41.6172 32.9367 41.6172H9.83182C4.72762 41.6172 0.589844 37.4794 0.589844 32.3752V9.2703Z" fill="#27BD50"/>
<path d="M29.9166 21.5957L26.0417 25.4706C24.1042 27.4427 20.9213 27.4427 18.9838 25.4706C17.254 23.7408 17.0118 21.0422 18.4303 19.0355L18.4649 19.0009C18.8454 18.482 19.5374 18.3782 20.0218 18.7242C20.5061 19.0701 20.6445 19.7621 20.2639 20.281L20.2293 20.3156C19.4336 21.4228 19.572 22.945 20.5407 23.9138C21.6132 25.0209 23.3777 25.0209 24.4848 23.9138L28.3597 20.0389C29.4668 18.9318 29.4668 17.1673 28.3597 16.0948C27.391 15.1261 25.8687 14.9877 24.7616 15.7834L24.727 15.818C24.208 16.1986 23.5161 16.0602 23.1701 15.5758C22.8241 15.0915 22.9279 14.3995 23.4123 14.0189L23.4815 13.9843C25.4881 12.5659 28.1867 12.808 29.9166 14.5379C31.8886 16.4753 31.8886 19.6583 29.9166 21.5957ZM11.9606 20.8L15.8355 16.8905C17.8075 14.9531 20.9559 14.9531 22.9279 16.8905C24.6578 18.6204 24.8654 21.3536 23.4469 23.3602L23.4123 23.3948C23.0663 23.9138 22.3398 24.0175 21.8554 23.6716C21.371 23.3256 21.2327 22.6337 21.6132 22.1147L21.6478 22.0801C22.4436 20.9384 22.3052 19.4507 21.3364 18.482C20.2639 17.3749 18.4995 17.3749 17.3924 18.482L13.5175 22.3569C12.445 23.4294 12.445 25.1939 13.5175 26.301C14.4862 27.2697 16.0085 27.4081 17.1156 26.6123L17.1502 26.5777C17.6691 26.1972 18.3611 26.3356 18.7071 26.8199C19.053 27.3043 18.9492 27.9962 18.4649 28.3768L18.3957 28.4114C16.4236 29.8299 13.6905 29.5877 11.9606 27.8578C9.98856 25.9204 9.98856 22.7374 11.9606 20.8Z" fill="white"/>
</svg>
