<svg width="15" height="14" viewBox="0 0 15 14" fill="none" xmlns="http://www.w3.org/2000/svg">
<path d="M1.28786 0.634092H2.08743H8.48402H9.28359C9.70837 0.634092 10.0832 1.00889 10.0832 1.43367C10.0832 1.88343 9.70837 2.23324 9.28359 2.23324V2.50809C9.28359 3.58252 8.85882 4.60697 8.10922 5.35657L6.41012 7.03068L7.30965 7.9302C7.03479 8.5049 6.88487 9.15455 6.88487 9.82919C6.88487 11.3284 7.60949 12.6527 8.73389 13.4273H8.48402H2.08743H1.28786C0.838095 13.4273 0.488281 13.0775 0.488281 12.6277C0.488281 12.2029 0.838095 11.8281 1.28786 11.8281V11.5533C1.28786 10.5038 1.68764 9.47938 2.43724 8.72978L4.13634 7.03068L2.43724 5.35657C1.68764 4.60697 1.28786 3.58252 1.28786 2.50809V2.23324C0.838095 2.23324 0.488281 1.88343 0.488281 1.43367C0.488281 1.00889 0.838095 0.634092 1.28786 0.634092ZM2.887 2.50809C2.887 2.98284 3.01194 3.45759 3.28679 3.83239H7.28466C7.53453 3.45759 7.68445 2.98284 7.68445 2.50809V2.23324H2.887V2.50809ZM14.8806 9.82919C14.8806 11.1285 14.181 12.3029 13.0816 12.9525C11.9572 13.6022 10.5829 13.6022 9.48349 12.9525C8.35909 12.3029 7.68445 11.1285 7.68445 9.82919C7.68445 8.55487 8.35909 7.3805 9.48349 6.73084C10.5829 6.08119 11.9572 6.08119 13.0816 6.73084C14.181 7.3805 14.8806 8.55487 14.8806 9.82919ZM11.2825 7.83026C11.0576 7.83026 10.8827 8.03015 10.8827 8.23004V9.82919C10.8827 10.0541 11.0576 10.229 11.2825 10.229H12.4819C12.6818 10.229 12.8817 10.0541 12.8817 9.82919C12.8817 9.6293 12.6818 9.4294 12.4819 9.4294H11.6823V8.23004C11.6823 8.03015 11.4824 7.83026 11.2825 7.83026Z" fill="#D0D4E4"/>
</svg>
