<svg width="352" height="127" viewBox="0 0 352 127" fill="none" xmlns="http://www.w3.org/2000/svg">
<mask id="path-1-inside-1_5332_24394" fill="white">
<path d="M0.367188 0.542969H352.006V39.0756H0.367188V0.542969Z"/>
</mask>
<path d="M352.006 37.8707H0.367188V40.2806H352.006V37.8707Z" fill="#D0D4E4" fill-opacity="0.5" mask="url(#path-1-inside-1_5332_24394)"/>
<path d="M0.367188 14.5151C0.367188 13.6106 1.09073 12.8613 2.02101 12.8613H8.63628C9.54072 12.8613 10.2901 13.6106 10.2901 14.5151V21.1304C10.2901 22.0606 9.54072 22.7842 8.63628 22.7842H2.02101C1.09073 22.7842 0.367188 22.0606 0.367188 21.1304V14.5151ZM14.8123 13.7915C15.0707 13.9466 15.2516 14.2308 15.2516 14.5151V21.1304C15.2516 21.4405 15.0707 21.7247 14.8123 21.8797C14.528 22.009 14.2179 22.009 13.9595 21.8281L11.4788 20.1742L11.117 19.9417V19.4765V16.1689V15.7296L11.4788 15.497L13.9595 13.8432C14.2179 13.6623 14.528 13.6623 14.8123 13.7915Z" fill="#D0D4E4"/>
<path d="M26.9604 12.162H28.3485V16.4131H33.6552V12.162H35.0433V22.3994H33.6552V17.7145H28.3485V22.3994H26.9604V12.162ZM38.401 18.9725C38.401 19.3195 38.454 19.6424 38.56 19.9413C38.666 20.2305 38.8155 20.4811 39.0083 20.6932C39.2011 20.8956 39.4372 21.0595 39.7168 21.1848C39.9963 21.3005 40.3096 21.3583 40.6567 21.3583C41.0037 21.3583 41.317 21.3005 41.5965 21.1848C41.8761 21.0595 42.1123 20.8956 42.3051 20.6932C42.4978 20.4811 42.6473 20.2305 42.7533 19.9413C42.8593 19.6424 42.9124 19.3195 42.9124 18.9725C42.9124 18.6255 42.8593 18.3073 42.7533 18.0182C42.6473 17.7193 42.4978 17.4687 42.3051 17.2663C42.1123 17.0542 41.8761 16.8903 41.5965 16.7746C41.317 16.6493 41.0037 16.5867 40.6567 16.5867C40.3096 16.5867 39.9963 16.6493 39.7168 16.7746C39.4372 16.8903 39.2011 17.0542 39.0083 17.2663C38.8155 17.4687 38.666 17.7193 38.56 18.0182C38.454 18.3073 38.401 18.6255 38.401 18.9725ZM37.0128 18.9725C37.0128 18.4712 37.1044 18.0037 37.2876 17.5699C37.4804 17.1361 37.7406 16.7553 38.0684 16.4276C38.3961 16.0998 38.7817 15.8444 39.2252 15.6612C39.6686 15.4684 40.1457 15.372 40.6567 15.372C41.1676 15.372 41.6447 15.4684 42.0882 15.6612C42.5316 15.8444 42.9172 16.0998 43.2449 16.4276C43.5727 16.7553 43.8281 17.1361 44.0113 17.5699C44.2041 18.0037 44.3005 18.4712 44.3005 18.9725C44.3005 19.4738 44.2041 19.9461 44.0113 20.3895C43.8281 20.8233 43.5727 21.2041 43.2449 21.5318C42.9172 21.8499 42.5316 22.1054 42.0882 22.2982C41.6447 22.4814 41.1676 22.5729 40.6567 22.5729C40.1457 22.5729 39.6686 22.4814 39.2252 22.2982C38.7817 22.1054 38.3961 21.8499 38.0684 21.5318C37.7406 21.2041 37.4804 20.8233 37.2876 20.3895C37.1044 19.9461 37.0128 19.4738 37.0128 18.9725ZM45.1066 15.5456H46.567L48.1142 20.6643H48.1431L49.7771 15.5456H51.1507L52.8859 20.6643H52.9148L54.3897 15.5456H55.7633L53.551 22.3994H52.2352L50.4277 17.2807H50.3988L48.7649 22.3994H47.3623L45.1066 15.5456ZM64.5997 16.6734H62.7344V19.7822C62.7344 19.975 62.7393 20.1678 62.7489 20.3606C62.7585 20.5438 62.7923 20.7125 62.8501 20.8667C62.9176 21.0113 63.014 21.1318 63.1393 21.2282C63.2743 21.3149 63.4671 21.3583 63.7177 21.3583C63.8719 21.3583 64.031 21.3439 64.1949 21.3149C64.3587 21.286 64.5082 21.233 64.6431 21.1559V22.3416C64.4889 22.4283 64.2864 22.4862 64.0358 22.5151C63.7948 22.5536 63.6068 22.5729 63.4719 22.5729C62.9706 22.5729 62.5802 22.5055 62.3007 22.3705C62.0307 22.2259 61.8283 22.0427 61.6933 21.821C61.568 21.5993 61.4909 21.3535 61.462 21.0836C61.4427 20.804 61.4331 20.5245 61.4331 20.2449V16.6734H59.9293V15.5456H61.4331V13.6224H62.7344V15.5456H64.5997V16.6734ZM67.3343 18.9725C67.3343 19.3195 67.3873 19.6424 67.4933 19.9413C67.5994 20.2305 67.7488 20.4811 67.9416 20.6932C68.1344 20.8956 68.3706 21.0595 68.6501 21.1848C68.9297 21.3005 69.243 21.3583 69.59 21.3583C69.937 21.3583 70.2503 21.3005 70.5299 21.1848C70.8094 21.0595 71.0456 20.8956 71.2384 20.6932C71.4312 20.4811 71.5806 20.2305 71.6866 19.9413C71.7927 19.6424 71.8457 19.3195 71.8457 18.9725C71.8457 18.6255 71.7927 18.3073 71.6866 18.0182C71.5806 17.7193 71.4312 17.4687 71.2384 17.2663C71.0456 17.0542 70.8094 16.8903 70.5299 16.7746C70.2503 16.6493 69.937 16.5867 69.59 16.5867C69.243 16.5867 68.9297 16.6493 68.6501 16.7746C68.3706 16.8903 68.1344 17.0542 67.9416 17.2663C67.7488 17.4687 67.5994 17.7193 67.4933 18.0182C67.3873 18.3073 67.3343 18.6255 67.3343 18.9725ZM65.9462 18.9725C65.9462 18.4712 66.0377 18.0037 66.2209 17.5699C66.4137 17.1361 66.674 16.7553 67.0017 16.4276C67.3295 16.0998 67.7151 15.8444 68.1585 15.6612C68.6019 15.4684 69.0791 15.372 69.59 15.372C70.1009 15.372 70.5781 15.4684 71.0215 15.6612C71.4649 15.8444 71.8505 16.0998 72.1783 16.4276C72.506 16.7553 72.7615 17.1361 72.9446 17.5699C73.1374 18.0037 73.2338 18.4712 73.2338 18.9725C73.2338 19.4738 73.1374 19.9461 72.9446 20.3895C72.7615 20.8233 72.506 21.2041 72.1783 21.5318C71.8505 21.8499 71.4649 22.1054 71.0215 22.2982C70.5781 22.4814 70.1009 22.5729 69.59 22.5729C69.0791 22.5729 68.6019 22.4814 68.1585 22.2982C67.7151 22.1054 67.3295 21.8499 67.0017 21.5318C66.674 21.2041 66.4137 20.8233 66.2209 20.3895C66.0377 19.9461 65.9462 19.4738 65.9462 18.9725ZM84.9616 22.3994H83.6602V21.3439H83.6313C83.4674 21.7102 83.183 22.009 82.7782 22.2404C82.3733 22.4621 81.9058 22.5729 81.3756 22.5729C81.0382 22.5729 80.7201 22.5199 80.4213 22.4139C80.1224 22.3175 79.8573 22.1632 79.626 21.9512C79.4043 21.7391 79.2259 21.4692 79.091 21.1414C78.956 20.804 78.8885 20.4088 78.8885 19.9557V15.5456H80.1899V19.5943C80.1899 19.9124 80.2333 20.1871 80.32 20.4184C80.4068 20.6402 80.5225 20.8233 80.6671 20.9679C80.8117 21.1029 80.9755 21.2041 81.1587 21.2716C81.3515 21.3294 81.5491 21.3583 81.7515 21.3583C82.0214 21.3583 82.2721 21.3149 82.5034 21.2282C82.7348 21.1414 82.9372 21.0065 83.1107 20.8233C83.2843 20.6305 83.4192 20.3895 83.5156 20.1003C83.612 19.8111 83.6602 19.4689 83.6602 19.0737V15.5456H84.9616V22.3994ZM90.567 17.2663C90.4128 17.0735 90.22 16.9144 89.9887 16.7891C89.7669 16.6541 89.4922 16.5867 89.1645 16.5867C88.856 16.5867 88.5861 16.6541 88.3547 16.7891C88.133 16.9144 88.0221 17.1024 88.0221 17.353C88.0221 17.5554 88.0848 17.7193 88.2101 17.8446C88.3451 17.97 88.4993 18.0712 88.6728 18.1483C88.856 18.2254 89.0488 18.2832 89.2512 18.3218C89.4536 18.3604 89.6272 18.3941 89.7718 18.423C90.0513 18.4905 90.3116 18.5724 90.5526 18.6688C90.8032 18.7652 91.0153 18.8905 91.1888 19.0448C91.372 19.199 91.5117 19.387 91.6081 19.6087C91.7142 19.8304 91.7672 20.1003 91.7672 20.4184C91.7672 20.804 91.6852 21.1366 91.5214 21.4162C91.3575 21.6861 91.1454 21.9078 90.8852 22.0813C90.6249 22.2548 90.326 22.3801 89.9887 22.4573C89.6609 22.5344 89.3283 22.5729 88.9909 22.5729C88.4222 22.5729 87.9209 22.4862 87.4871 22.3127C87.063 22.1391 86.6822 21.821 86.3448 21.3583L87.3281 20.5486C87.5402 20.7607 87.7763 20.9486 88.0366 21.1125C88.2969 21.2764 88.615 21.3583 88.9909 21.3583C89.1548 21.3583 89.3187 21.3439 89.4826 21.3149C89.6561 21.2764 89.8055 21.2234 89.9308 21.1559C90.0658 21.0788 90.1718 20.9872 90.2489 20.8812C90.3357 20.7655 90.3791 20.6353 90.3791 20.4907C90.3791 20.298 90.3164 20.1389 90.1911 20.0136C90.0754 19.8883 89.9308 19.7919 89.7573 19.7244C89.5934 19.6473 89.4151 19.5894 89.2223 19.5509C89.0391 19.5027 88.8753 19.4641 88.7307 19.4352C88.4511 19.3677 88.186 19.2906 87.9354 19.2038C87.6848 19.1171 87.463 19.0014 87.2702 18.8568C87.0775 18.7122 86.9232 18.5291 86.8075 18.3073C86.6919 18.0856 86.634 17.8109 86.634 17.4831C86.634 17.1265 86.7063 16.818 86.8509 16.5577C87.0052 16.2878 87.2028 16.0661 87.4438 15.8926C87.6944 15.7191 87.9739 15.5889 88.2824 15.5022C88.6005 15.4154 88.9186 15.372 89.2368 15.372C89.6995 15.372 90.1429 15.4588 90.567 15.6323C90.9912 15.8058 91.3286 16.095 91.5792 16.4999L90.567 17.2663ZM94.3314 19.4497C94.3314 19.7485 94.3941 20.0232 94.5194 20.2739C94.6543 20.5148 94.8278 20.7221 95.0399 20.8956C95.252 21.0691 95.4978 21.2041 95.7774 21.3005C96.0569 21.3969 96.3461 21.4451 96.6449 21.4451C97.0498 21.4451 97.4017 21.3535 97.7005 21.1703C97.9993 20.9776 98.2741 20.7269 98.5247 20.4184L99.5079 21.1703C98.785 22.1054 97.7728 22.5729 96.4714 22.5729C95.9316 22.5729 95.44 22.4814 94.9965 22.2982C94.5628 22.115 94.1916 21.8644 93.8831 21.5463C93.5843 21.2185 93.353 20.8378 93.1891 20.404C93.0252 19.9606 92.9433 19.4834 92.9433 18.9725C92.9433 18.4616 93.03 17.9892 93.2035 17.5554C93.3867 17.112 93.6325 16.7312 93.941 16.4131C94.2591 16.0854 94.635 15.8299 95.0688 15.6468C95.5026 15.4636 95.975 15.372 96.4859 15.372C97.0932 15.372 97.6041 15.4781 98.0186 15.6902C98.4427 15.9022 98.7898 16.1818 99.0597 16.5288C99.3296 16.8662 99.5224 17.2518 99.6381 17.6856C99.7634 18.1097 99.826 18.5435 99.826 18.9869V19.4497H94.3314ZM98.4379 18.4086C98.4283 18.1194 98.3801 17.8543 98.2933 17.6133C98.2162 17.3723 98.0957 17.165 97.9318 16.9915C97.768 16.8084 97.5607 16.6686 97.3101 16.5722C97.0691 16.4662 96.7847 16.4131 96.457 16.4131C96.1388 16.4131 95.8448 16.4758 95.5749 16.6011C95.3147 16.7168 95.0929 16.871 94.9098 17.0638C94.7266 17.2566 94.582 17.4735 94.476 17.7145C94.3796 17.9459 94.3314 18.1772 94.3314 18.4086H98.4379ZM106.463 18.9725C106.463 19.3195 106.516 19.6424 106.622 19.9413C106.728 20.2305 106.877 20.4811 107.07 20.6932C107.263 20.8956 107.499 21.0595 107.779 21.1848C108.058 21.3005 108.371 21.3583 108.718 21.3583C109.066 21.3583 109.379 21.3005 109.658 21.1848C109.938 21.0595 110.174 20.8956 110.367 20.6932C110.56 20.4811 110.709 20.2305 110.815 19.9413C110.921 19.6424 110.974 19.3195 110.974 18.9725C110.974 18.6255 110.921 18.3073 110.815 18.0182C110.709 17.7193 110.56 17.4687 110.367 17.2663C110.174 17.0542 109.938 16.8903 109.658 16.7746C109.379 16.6493 109.066 16.5867 108.718 16.5867C108.371 16.5867 108.058 16.6493 107.779 16.7746C107.499 16.8903 107.263 17.0542 107.07 17.2663C106.877 17.4687 106.728 17.7193 106.622 18.0182C106.516 18.3073 106.463 18.6255 106.463 18.9725ZM105.075 18.9725C105.075 18.4712 105.166 18.0037 105.349 17.5699C105.542 17.1361 105.802 16.7553 106.13 16.4276C106.458 16.0998 106.844 15.8444 107.287 15.6612C107.73 15.4684 108.208 15.372 108.718 15.372C109.229 15.372 109.707 15.4684 110.15 15.6612C110.593 15.8444 110.979 16.0998 111.307 16.4276C111.634 16.7553 111.89 17.1361 112.073 17.5699C112.266 18.0037 112.362 18.4712 112.362 18.9725C112.362 19.4738 112.266 19.9461 112.073 20.3895C111.89 20.8233 111.634 21.2041 111.307 21.5318C110.979 21.8499 110.593 22.1054 110.15 22.2982C109.707 22.4814 109.229 22.5729 108.718 22.5729C108.208 22.5729 107.73 22.4814 107.287 22.2982C106.844 22.1054 106.458 21.8499 106.13 21.5318C105.802 21.2041 105.542 20.8233 105.349 20.3895C105.166 19.9461 105.075 19.4738 105.075 18.9725ZM113.993 15.5456H115.294V16.6011H115.323C115.487 16.2348 115.771 15.9408 116.176 15.7191C116.581 15.4877 117.048 15.372 117.579 15.372C117.906 15.372 118.22 15.4251 118.518 15.5311C118.827 15.6275 119.092 15.7817 119.314 15.9938C119.545 16.2059 119.728 16.4806 119.863 16.818C119.998 17.1458 120.066 17.5362 120.066 17.9892V22.3994H118.764V18.3507C118.764 18.0326 118.721 17.7627 118.634 17.541C118.547 17.3096 118.432 17.1265 118.287 16.9915C118.143 16.8469 117.974 16.7457 117.781 16.6879C117.598 16.6204 117.405 16.5867 117.203 16.5867C116.933 16.5867 116.682 16.63 116.451 16.7168C116.219 16.8035 116.017 16.9433 115.843 17.1361C115.67 17.3193 115.535 17.5554 115.439 17.8446C115.342 18.1338 115.294 18.476 115.294 18.8713V22.3994H113.993V15.5456ZM123.011 19.4497C123.011 19.7485 123.073 20.0232 123.199 20.2739C123.333 20.5148 123.507 20.7221 123.719 20.8956C123.931 21.0691 124.177 21.2041 124.457 21.3005C124.736 21.3969 125.025 21.4451 125.324 21.4451C125.729 21.4451 126.081 21.3535 126.38 21.1703C126.678 20.9776 126.953 20.7269 127.204 20.4184L128.187 21.1703C127.464 22.1054 126.452 22.5729 125.151 22.5729C124.611 22.5729 124.119 22.4814 123.676 22.2982C123.242 22.115 122.871 21.8644 122.562 21.5463C122.263 21.2185 122.032 20.8378 121.868 20.404C121.704 19.9606 121.622 19.4834 121.622 18.9725C121.622 18.4616 121.709 17.9892 121.883 17.5554C122.066 17.112 122.312 16.7312 122.62 16.4131C122.938 16.0854 123.314 15.8299 123.748 15.6468C124.182 15.4636 124.654 15.372 125.165 15.372C125.772 15.372 126.283 15.4781 126.698 15.6902C127.122 15.9022 127.469 16.1818 127.739 16.5288C128.009 16.8662 128.202 17.2518 128.317 17.6856C128.443 18.1097 128.505 18.5435 128.505 18.9869V19.4497H123.011ZM127.117 18.4086C127.107 18.1194 127.059 17.8543 126.972 17.6133C126.895 17.3723 126.775 17.165 126.611 16.9915C126.447 16.8084 126.24 16.6686 125.989 16.5722C125.748 16.4662 125.464 16.4131 125.136 16.4131C124.818 16.4131 124.524 16.4758 124.254 16.6011C123.994 16.7168 123.772 16.871 123.589 17.0638C123.406 17.2566 123.261 17.4735 123.155 17.7145C123.059 17.9459 123.011 18.1772 123.011 18.4086H127.117ZM130.062 15.5456H131.363V16.5288H131.392C131.643 16.1625 131.985 15.8781 132.419 15.6757C132.862 15.4733 133.315 15.372 133.778 15.372C134.308 15.372 134.785 15.4636 135.21 15.6468C135.643 15.8299 136.01 16.0854 136.309 16.4131C136.617 16.7409 136.853 17.1265 137.017 17.5699C137.181 18.0037 137.263 18.4712 137.263 18.9725C137.263 19.4834 137.181 19.9606 137.017 20.404C136.853 20.8378 136.617 21.2185 136.309 21.5463C136.01 21.8644 135.643 22.115 135.21 22.2982C134.785 22.4814 134.308 22.5729 133.778 22.5729C133.286 22.5729 132.824 22.4717 132.39 22.2693C131.956 22.0572 131.624 21.7728 131.392 21.4162H131.363V26.477H130.062V15.5456ZM133.619 16.5867C133.272 16.5867 132.959 16.6493 132.679 16.7746C132.4 16.8903 132.163 17.0542 131.971 17.2663C131.778 17.4687 131.628 17.7193 131.522 18.0182C131.416 18.3073 131.363 18.6255 131.363 18.9725C131.363 19.3195 131.416 19.6424 131.522 19.9413C131.628 20.2305 131.778 20.4811 131.971 20.6932C132.163 20.8956 132.4 21.0595 132.679 21.1848C132.959 21.3005 133.272 21.3583 133.619 21.3583C133.966 21.3583 134.279 21.3005 134.559 21.1848C134.838 21.0595 135.075 20.8956 135.267 20.6932C135.46 20.4811 135.61 20.2305 135.716 19.9413C135.822 19.6424 135.875 19.3195 135.875 18.9725C135.875 18.6255 135.822 18.3073 135.716 18.0182C135.61 17.7193 135.46 17.4687 135.267 17.2663C135.075 17.0542 134.838 16.8903 134.559 16.7746C134.279 16.6493 133.966 16.5867 133.619 16.5867ZM139.957 18.9725C139.957 19.3195 140.01 19.6424 140.116 19.9413C140.222 20.2305 140.372 20.4811 140.564 20.6932C140.757 20.8956 140.993 21.0595 141.273 21.1848C141.552 21.3005 141.866 21.3583 142.213 21.3583C142.56 21.3583 142.873 21.3005 143.153 21.1848C143.432 21.0595 143.668 20.8956 143.861 20.6932C144.054 20.4811 144.203 20.2305 144.309 19.9413C144.415 19.6424 144.469 19.3195 144.469 18.9725C144.469 18.6255 144.415 18.3073 144.309 18.0182C144.203 17.7193 144.054 17.4687 143.861 17.2663C143.668 17.0542 143.432 16.8903 143.153 16.7746C142.873 16.6493 142.56 16.5867 142.213 16.5867C141.866 16.5867 141.552 16.6493 141.273 16.7746C140.993 16.8903 140.757 17.0542 140.564 17.2663C140.372 17.4687 140.222 17.7193 140.116 18.0182C140.01 18.3073 139.957 18.6255 139.957 18.9725ZM138.569 18.9725C138.569 18.4712 138.661 18.0037 138.844 17.5699C139.037 17.1361 139.297 16.7553 139.625 16.4276C139.952 16.0998 140.338 15.8444 140.781 15.6612C141.225 15.4684 141.702 15.372 142.213 15.372C142.724 15.372 143.201 15.4684 143.644 15.6612C144.088 15.8444 144.473 16.0998 144.801 16.4276C145.129 16.7553 145.384 17.1361 145.567 17.5699C145.76 18.0037 145.857 18.4712 145.857 18.9725C145.857 19.4738 145.76 19.9461 145.567 20.3895C145.384 20.8233 145.129 21.2041 144.801 21.5318C144.473 21.8499 144.088 22.1054 143.644 22.2982C143.201 22.4814 142.724 22.5729 142.213 22.5729C141.702 22.5729 141.225 22.4814 140.781 22.2982C140.338 22.1054 139.952 21.8499 139.625 21.5318C139.297 21.2041 139.037 20.8233 138.844 20.3895C138.661 19.9461 138.569 19.4738 138.569 18.9725ZM147.487 15.5456H148.788V16.6011H148.817C148.904 16.418 149.02 16.2541 149.164 16.1095C149.309 15.9552 149.468 15.8251 149.641 15.7191C149.825 15.613 150.022 15.5311 150.234 15.4733C150.446 15.4058 150.658 15.372 150.87 15.372C151.083 15.372 151.275 15.401 151.449 15.4588L151.391 16.8614C151.285 16.8325 151.179 16.8084 151.073 16.7891C150.967 16.7698 150.861 16.7602 150.755 16.7602C150.119 16.7602 149.632 16.9385 149.294 17.2952C148.957 17.6518 148.788 18.2061 148.788 18.958V22.3994H147.487V15.5456ZM156.511 16.6734H154.646V19.7822C154.646 19.975 154.651 20.1678 154.661 20.3606C154.67 20.5438 154.704 20.7125 154.762 20.8667C154.829 21.0113 154.926 21.1318 155.051 21.2282C155.186 21.3149 155.379 21.3583 155.629 21.3583C155.784 21.3583 155.943 21.3439 156.107 21.3149C156.27 21.286 156.42 21.233 156.555 21.1559V22.3416C156.401 22.4283 156.198 22.4862 155.948 22.5151C155.707 22.5536 155.519 22.5729 155.384 22.5729C154.882 22.5729 154.492 22.5055 154.212 22.3705C153.942 22.2259 153.74 22.0427 153.605 21.821C153.48 21.5993 153.403 21.3535 153.374 21.0836C153.354 20.804 153.345 20.5245 153.345 20.2449V16.6734H151.841V15.5456H153.345V13.6224H154.646V15.5456H156.511V16.6734ZM158.219 16.3842C158.586 16.0468 159.01 15.7962 159.492 15.6323C159.974 15.4588 160.456 15.372 160.938 15.372C161.439 15.372 161.868 15.4347 162.225 15.56C162.591 15.6853 162.89 15.854 163.121 16.0661C163.353 16.2782 163.521 16.524 163.627 16.8035C163.743 17.0735 163.801 17.3578 163.801 17.6567V21.1559C163.801 21.3969 163.806 21.6186 163.815 21.821C163.825 22.0235 163.839 22.2163 163.859 22.3994H162.702C162.673 22.0524 162.658 21.7054 162.658 21.3583H162.63C162.34 21.8018 161.998 22.115 161.603 22.2982C161.208 22.4814 160.75 22.5729 160.229 22.5729C159.911 22.5729 159.607 22.5296 159.318 22.4428C159.029 22.356 158.774 22.2259 158.552 22.0524C158.34 21.8789 158.171 21.6668 158.046 21.4162C157.921 21.1559 157.858 20.8571 157.858 20.5197C157.858 20.0762 157.954 19.7051 158.147 19.4063C158.35 19.1074 158.619 18.8664 158.957 18.6833C159.304 18.4905 159.704 18.3555 160.157 18.2784C160.62 18.1917 161.111 18.1483 161.632 18.1483H162.586V17.8591C162.586 17.6856 162.552 17.5121 162.485 17.3386C162.417 17.165 162.316 17.0108 162.181 16.8758C162.046 16.7312 161.878 16.6204 161.675 16.5433C161.473 16.4565 161.232 16.4131 160.952 16.4131C160.702 16.4131 160.48 16.4372 160.287 16.4854C160.104 16.5336 159.935 16.5963 159.781 16.6734C159.627 16.7409 159.487 16.8228 159.362 16.9192C159.236 17.0156 159.116 17.1072 159 17.194L158.219 16.3842ZM161.892 19.1026C161.584 19.1026 161.266 19.1219 160.938 19.1605C160.62 19.1894 160.326 19.252 160.056 19.3484C159.795 19.4448 159.579 19.5798 159.405 19.7533C159.241 19.9268 159.159 20.1485 159.159 20.4184C159.159 20.8137 159.289 21.098 159.55 21.2716C159.82 21.4451 160.181 21.5318 160.634 21.5318C160.991 21.5318 161.294 21.474 161.545 21.3583C161.796 21.233 161.998 21.0739 162.152 20.8812C162.307 20.6884 162.417 20.4763 162.485 20.2449C162.552 20.0039 162.586 19.7678 162.586 19.5364V19.1026H161.892ZM165.79 11.4679H167.091V22.3994H165.79V11.4679ZM180.055 22.3994H178.754V21.4162H178.725C178.474 21.7825 178.127 22.0668 177.684 22.2693C177.25 22.4717 176.802 22.5729 176.339 22.5729C175.809 22.5729 175.327 22.4814 174.893 22.2982C174.469 22.115 174.102 21.8596 173.794 21.5318C173.495 21.2041 173.264 20.8233 173.1 20.3895C172.936 19.9557 172.854 19.4834 172.854 18.9725C172.854 18.4616 172.936 17.9892 173.1 17.5554C173.264 17.112 173.495 16.7312 173.794 16.4131C174.102 16.0854 174.469 15.8299 174.893 15.6468C175.327 15.4636 175.809 15.372 176.339 15.372C176.83 15.372 177.293 15.4781 177.727 15.6902C178.161 15.8926 178.493 16.1721 178.725 16.5288H178.754V11.4679H180.055V22.3994ZM176.498 21.3583C176.845 21.3583 177.158 21.3005 177.438 21.1848C177.717 21.0595 177.953 20.8956 178.146 20.6932C178.339 20.4811 178.488 20.2305 178.595 19.9413C178.701 19.6424 178.754 19.3195 178.754 18.9725C178.754 18.6255 178.701 18.3073 178.595 18.0182C178.488 17.7193 178.339 17.4687 178.146 17.2663C177.953 17.0542 177.717 16.8903 177.438 16.7746C177.158 16.6493 176.845 16.5867 176.498 16.5867C176.151 16.5867 175.838 16.6493 175.558 16.7746C175.278 16.8903 175.042 17.0542 174.849 17.2663C174.657 17.4687 174.507 17.7193 174.401 18.0182C174.295 18.3073 174.242 18.6255 174.242 18.9725C174.242 19.3195 174.295 19.6424 174.401 19.9413C174.507 20.2305 174.657 20.4811 174.849 20.6932C175.042 20.8956 175.278 21.0595 175.558 21.1848C175.838 21.3005 176.151 21.3583 176.498 21.3583ZM182.055 16.3842C182.421 16.0468 182.846 15.7962 183.328 15.6323C183.81 15.4588 184.292 15.372 184.774 15.372C185.275 15.372 185.704 15.4347 186.06 15.56C186.427 15.6853 186.726 15.854 186.957 16.0661C187.188 16.2782 187.357 16.524 187.463 16.8035C187.579 17.0735 187.637 17.3578 187.637 17.6567V21.1559C187.637 21.3969 187.641 21.6186 187.651 21.821C187.661 22.0235 187.675 22.2163 187.694 22.3994H186.538C186.509 22.0524 186.494 21.7054 186.494 21.3583H186.465C186.176 21.8018 185.834 22.115 185.439 22.2982C185.043 22.4814 184.586 22.5729 184.065 22.5729C183.747 22.5729 183.443 22.5296 183.154 22.4428C182.865 22.356 182.609 22.2259 182.388 22.0524C182.176 21.8789 182.007 21.6668 181.882 21.4162C181.756 21.1559 181.694 20.8571 181.694 20.5197C181.694 20.0762 181.79 19.7051 181.983 19.4063C182.185 19.1074 182.455 18.8664 182.793 18.6833C183.14 18.4905 183.54 18.3555 183.993 18.2784C184.455 18.1917 184.947 18.1483 185.468 18.1483H186.422V17.8591C186.422 17.6856 186.388 17.5121 186.321 17.3386C186.253 17.165 186.152 17.0108 186.017 16.8758C185.882 16.7312 185.713 16.6204 185.511 16.5433C185.309 16.4565 185.068 16.4131 184.788 16.4131C184.537 16.4131 184.316 16.4372 184.123 16.4854C183.94 16.5336 183.771 16.5963 183.617 16.6734C183.463 16.7409 183.323 16.8228 183.197 16.9192C183.072 17.0156 182.952 17.1072 182.836 17.194L182.055 16.3842ZM185.728 19.1026C185.419 19.1026 185.101 19.1219 184.774 19.1605C184.455 19.1894 184.161 19.252 183.891 19.3484C183.631 19.4448 183.414 19.5798 183.241 19.7533C183.077 19.9268 182.995 20.1485 182.995 20.4184C182.995 20.8137 183.125 21.098 183.385 21.2716C183.655 21.4451 184.017 21.5318 184.47 21.5318C184.827 21.5318 185.13 21.474 185.381 21.3583C185.631 21.233 185.834 21.0739 185.988 20.8812C186.142 20.6884 186.253 20.4763 186.321 20.2449C186.388 20.0039 186.422 19.7678 186.422 19.5364V19.1026H185.728ZM193.168 17.2663C193.014 17.0735 192.821 16.9144 192.59 16.7891C192.368 16.6541 192.093 16.5867 191.766 16.5867C191.457 16.5867 191.187 16.6541 190.956 16.7891C190.734 16.9144 190.623 17.1024 190.623 17.353C190.623 17.5554 190.686 17.7193 190.811 17.8446C190.946 17.97 191.1 18.0712 191.274 18.1483C191.457 18.2254 191.65 18.2832 191.852 18.3218C192.055 18.3604 192.228 18.3941 192.373 18.423C192.652 18.4905 192.913 18.5724 193.154 18.6688C193.404 18.7652 193.616 18.8905 193.79 19.0448C193.973 19.199 194.113 19.387 194.209 19.6087C194.315 19.8304 194.368 20.1003 194.368 20.4184C194.368 20.804 194.286 21.1366 194.122 21.4162C193.959 21.6861 193.747 21.9078 193.486 22.0813C193.226 22.2548 192.927 22.3801 192.59 22.4573C192.262 22.5344 191.929 22.5729 191.592 22.5729C191.023 22.5729 190.522 22.4862 190.088 22.3127C189.664 22.1391 189.283 21.821 188.946 21.3583L189.929 20.5486C190.141 20.7607 190.377 20.9486 190.638 21.1125C190.898 21.2764 191.216 21.3583 191.592 21.3583C191.756 21.3583 191.92 21.3439 192.084 21.3149C192.257 21.2764 192.407 21.2234 192.532 21.1559C192.667 21.0788 192.773 20.9872 192.85 20.8812C192.937 20.7655 192.98 20.6353 192.98 20.4907C192.98 20.298 192.917 20.1389 192.792 20.0136C192.676 19.8883 192.532 19.7919 192.358 19.7244C192.195 19.6473 192.016 19.5894 191.823 19.5509C191.64 19.5027 191.476 19.4641 191.332 19.4352C191.052 19.3677 190.787 19.2906 190.536 19.2038C190.286 19.1171 190.064 19.0014 189.871 18.8568C189.679 18.7122 189.524 18.5291 189.409 18.3073C189.293 18.0856 189.235 17.8109 189.235 17.4831C189.235 17.1265 189.307 16.818 189.452 16.5577C189.606 16.2878 189.804 16.0661 190.045 15.8926C190.295 15.7191 190.575 15.5889 190.884 15.5022C191.202 15.4154 191.52 15.372 191.838 15.372C192.301 15.372 192.744 15.4588 193.168 15.6323C193.592 15.8058 193.93 16.095 194.18 16.4999L193.168 17.2663ZM195.949 11.4679H197.251V16.6011H197.28C197.443 16.2348 197.728 15.9408 198.133 15.7191C198.537 15.4877 199.005 15.372 199.535 15.372C199.863 15.372 200.176 15.4251 200.475 15.5311C200.784 15.6275 201.049 15.7817 201.27 15.9938C201.502 16.2059 201.685 16.4806 201.82 16.818C201.955 17.1458 202.022 17.5362 202.022 17.9892V22.3994H200.721V18.3507C200.721 18.0326 200.678 17.7627 200.591 17.541C200.504 17.3096 200.388 17.1265 200.244 16.9915C200.099 16.8469 199.93 16.7457 199.738 16.6879C199.554 16.6204 199.362 16.5867 199.159 16.5867C198.889 16.5867 198.639 16.63 198.407 16.7168C198.176 16.8035 197.974 16.9433 197.8 17.1361C197.627 17.3193 197.492 17.5554 197.395 17.8446C197.299 18.1338 197.251 18.476 197.251 18.8713V22.3994H195.949V11.4679ZM203.984 11.4679H205.285V16.5288H205.314C205.546 16.1721 205.878 15.8926 206.312 15.6902C206.746 15.4781 207.208 15.372 207.7 15.372C208.23 15.372 208.707 15.4636 209.132 15.6468C209.565 15.8299 209.932 16.0854 210.23 16.4131C210.539 16.7312 210.775 17.112 210.939 17.5554C211.103 17.9892 211.185 18.4616 211.185 18.9725C211.185 19.4834 211.103 19.9557 210.939 20.3895C210.775 20.8233 210.539 21.2041 210.23 21.5318C209.932 21.8596 209.565 22.115 209.132 22.2982C208.707 22.4814 208.23 22.5729 207.7 22.5729C207.237 22.5729 206.784 22.4717 206.341 22.2693C205.907 22.0668 205.565 21.7825 205.314 21.4162H205.285V22.3994H203.984V11.4679ZM207.541 21.3583C207.888 21.3583 208.201 21.3005 208.481 21.1848C208.76 21.0595 208.997 20.8956 209.189 20.6932C209.382 20.4811 209.532 20.2305 209.638 19.9413C209.744 19.6424 209.797 19.3195 209.797 18.9725C209.797 18.6255 209.744 18.3073 209.638 18.0182C209.532 17.7193 209.382 17.4687 209.189 17.2663C208.997 17.0542 208.76 16.8903 208.481 16.7746C208.201 16.6493 207.888 16.5867 207.541 16.5867C207.194 16.5867 206.881 16.6493 206.601 16.7746C206.322 16.8903 206.085 17.0542 205.893 17.2663C205.7 17.4687 205.55 17.7193 205.444 18.0182C205.338 18.3073 205.285 18.6255 205.285 18.9725C205.285 19.3195 205.338 19.6424 205.444 19.9413C205.55 20.2305 205.7 20.4811 205.893 20.6932C206.085 20.8956 206.322 21.0595 206.601 21.1848C206.881 21.3005 207.194 21.3583 207.541 21.3583ZM213.879 18.9725C213.879 19.3195 213.932 19.6424 214.038 19.9413C214.144 20.2305 214.294 20.4811 214.486 20.6932C214.679 20.8956 214.915 21.0595 215.195 21.1848C215.474 21.3005 215.788 21.3583 216.135 21.3583C216.482 21.3583 216.795 21.3005 217.075 21.1848C217.354 21.0595 217.59 20.8956 217.783 20.6932C217.976 20.4811 218.125 20.2305 218.231 19.9413C218.337 19.6424 218.39 19.3195 218.39 18.9725C218.39 18.6255 218.337 18.3073 218.231 18.0182C218.125 17.7193 217.976 17.4687 217.783 17.2663C217.59 17.0542 217.354 16.8903 217.075 16.7746C216.795 16.6493 216.482 16.5867 216.135 16.5867C215.788 16.5867 215.474 16.6493 215.195 16.7746C214.915 16.8903 214.679 17.0542 214.486 17.2663C214.294 17.4687 214.144 17.7193 214.038 18.0182C213.932 18.3073 213.879 18.6255 213.879 18.9725ZM212.491 18.9725C212.491 18.4712 212.582 18.0037 212.766 17.5699C212.958 17.1361 213.219 16.7553 213.546 16.4276C213.874 16.0998 214.26 15.8444 214.703 15.6612C215.147 15.4684 215.624 15.372 216.135 15.372C216.646 15.372 217.123 15.4684 217.566 15.6612C218.01 15.8444 218.395 16.0998 218.723 16.4276C219.051 16.7553 219.306 17.1361 219.489 17.5699C219.682 18.0037 219.779 18.4712 219.779 18.9725C219.779 19.4738 219.682 19.9461 219.489 20.3895C219.306 20.8233 219.051 21.2041 218.723 21.5318C218.395 21.8499 218.01 22.1054 217.566 22.2982C217.123 22.4814 216.646 22.5729 216.135 22.5729C215.624 22.5729 215.147 22.4814 214.703 22.2982C214.26 22.1054 213.874 21.8499 213.546 21.5318C213.219 21.2041 212.958 20.8233 212.766 20.3895C212.582 19.9461 212.491 19.4738 212.491 18.9725ZM221.438 16.3842C221.804 16.0468 222.228 15.7962 222.71 15.6323C223.192 15.4588 223.674 15.372 224.156 15.372C224.657 15.372 225.086 15.4347 225.443 15.56C225.809 15.6853 226.108 15.854 226.34 16.0661C226.571 16.2782 226.74 16.524 226.846 16.8035C226.961 17.0735 227.019 17.3578 227.019 17.6567V21.1559C227.019 21.3969 227.024 21.6186 227.034 21.821C227.043 22.0235 227.058 22.2163 227.077 22.3994H225.92C225.891 22.0524 225.877 21.7054 225.877 21.3583H225.848C225.559 21.8018 225.217 22.115 224.821 22.2982C224.426 22.4814 223.968 22.5729 223.448 22.5729C223.13 22.5729 222.826 22.5296 222.537 22.4428C222.248 22.356 221.992 22.2259 221.77 22.0524C221.558 21.8789 221.39 21.6668 221.264 21.4162C221.139 21.1559 221.076 20.8571 221.076 20.5197C221.076 20.0762 221.173 19.7051 221.365 19.4063C221.568 19.1074 221.838 18.8664 222.175 18.6833C222.522 18.4905 222.922 18.3555 223.375 18.2784C223.838 18.1917 224.33 18.1483 224.85 18.1483H225.805V17.8591C225.805 17.6856 225.771 17.5121 225.703 17.3386C225.636 17.165 225.535 17.0108 225.4 16.8758C225.265 16.7312 225.096 16.6204 224.894 16.5433C224.691 16.4565 224.45 16.4131 224.171 16.4131C223.92 16.4131 223.698 16.4372 223.506 16.4854C223.322 16.5336 223.154 16.5963 222.999 16.6734C222.845 16.7409 222.705 16.8228 222.58 16.9192C222.455 17.0156 222.334 17.1072 222.219 17.194L221.438 16.3842ZM225.111 19.1026C224.802 19.1026 224.484 19.1219 224.156 19.1605C223.838 19.1894 223.544 19.252 223.274 19.3484C223.014 19.4448 222.797 19.5798 222.623 19.7533C222.46 19.9268 222.378 20.1485 222.378 20.4184C222.378 20.8137 222.508 21.098 222.768 21.2716C223.038 21.4451 223.399 21.5318 223.853 21.5318C224.209 21.5318 224.513 21.474 224.763 21.3583C225.014 21.233 225.217 21.0739 225.371 20.8812C225.525 20.6884 225.636 20.4763 225.703 20.2449C225.771 20.0039 225.805 19.7678 225.805 19.5364V19.1026H225.111ZM228.907 15.5456H230.208V16.6011H230.237C230.324 16.418 230.44 16.2541 230.584 16.1095C230.729 15.9552 230.888 15.8251 231.061 15.7191C231.245 15.613 231.442 15.5311 231.654 15.4733C231.866 15.4058 232.078 15.372 232.291 15.372C232.503 15.372 232.695 15.401 232.869 15.4588L232.811 16.8614C232.705 16.8325 232.599 16.8084 232.493 16.7891C232.387 16.7698 232.281 16.7602 232.175 16.7602C231.539 16.7602 231.052 16.9385 230.714 17.2952C230.377 17.6518 230.208 18.2061 230.208 18.958V22.3994H228.907V15.5456ZM240.873 22.3994H239.571V21.4162H239.543C239.292 21.7825 238.945 22.0668 238.501 22.2693C238.068 22.4717 237.619 22.5729 237.157 22.5729C236.627 22.5729 236.145 22.4814 235.711 22.2982C235.287 22.115 234.92 21.8596 234.612 21.5318C234.313 21.2041 234.082 20.8233 233.918 20.3895C233.754 19.9557 233.672 19.4834 233.672 18.9725C233.672 18.4616 233.754 17.9892 233.918 17.5554C234.082 17.112 234.313 16.7312 234.612 16.4131C234.92 16.0854 235.287 15.8299 235.711 15.6468C236.145 15.4636 236.627 15.372 237.157 15.372C237.648 15.372 238.111 15.4781 238.545 15.6902C238.979 15.8926 239.311 16.1721 239.543 16.5288H239.571V11.4679H240.873V22.3994ZM237.316 21.3583C237.663 21.3583 237.976 21.3005 238.256 21.1848C238.535 21.0595 238.771 20.8956 238.964 20.6932C239.157 20.4811 239.306 20.2305 239.412 19.9413C239.518 19.6424 239.571 19.3195 239.571 18.9725C239.571 18.6255 239.518 18.3073 239.412 18.0182C239.306 17.7193 239.157 17.4687 238.964 17.2663C238.771 17.0542 238.535 16.8903 238.256 16.7746C237.976 16.6493 237.663 16.5867 237.316 16.5867C236.969 16.5867 236.655 16.6493 236.376 16.7746C236.096 16.8903 235.86 17.0542 235.667 17.2663C235.475 17.4687 235.325 17.7193 235.219 18.0182C235.113 18.3073 235.06 18.6255 235.06 18.9725C235.06 19.3195 235.113 19.6424 235.219 19.9413C235.325 20.2305 235.475 20.4811 235.667 20.6932C235.86 20.8956 236.096 21.0595 236.376 21.1848C236.655 21.3005 236.969 21.3583 237.316 21.3583ZM244.897 19.5364V18.6544C244.897 18.3941 244.917 18.1772 244.955 18.0037C244.994 17.8302 245.052 17.6759 245.129 17.541C245.206 17.3964 245.307 17.2614 245.432 17.1361C245.567 17.0012 245.731 16.8421 245.924 16.6589C246.078 16.5144 246.232 16.3698 246.387 16.2252C246.541 16.0709 246.681 15.9167 246.806 15.7625C246.931 15.5986 247.033 15.4299 247.11 15.2564C247.196 15.0732 247.24 14.8708 247.24 14.6491C247.24 14.4273 247.196 14.2249 247.11 14.0418C247.033 13.849 246.927 13.6851 246.792 13.5501C246.657 13.4152 246.493 13.3091 246.3 13.232C246.117 13.1549 245.919 13.1163 245.707 13.1163C245.235 13.1163 244.849 13.2658 244.55 13.5646C244.261 13.8634 244.088 14.2538 244.03 14.7358L242.555 14.5912C242.68 13.7526 243.027 13.0971 243.596 12.6247C244.174 12.1427 244.888 11.9017 245.736 11.9017C246.141 11.9017 246.517 11.9644 246.864 12.0897C247.221 12.2054 247.529 12.3789 247.789 12.6103C248.05 12.832 248.252 13.1115 248.397 13.4489C248.551 13.7767 248.628 14.1526 248.628 14.5768C248.628 14.9431 248.575 15.266 248.469 15.5456C248.363 15.8155 248.213 16.0709 248.021 16.3119L247.153 17.2084L247.008 17.3386C246.854 17.4831 246.729 17.6085 246.633 17.7145C246.546 17.8109 246.473 17.9169 246.416 18.0326C246.367 18.1386 246.334 18.2591 246.314 18.3941C246.295 18.5291 246.285 18.6978 246.285 18.9002V19.5364H244.897ZM244.623 21.5318C244.623 21.2716 244.714 21.0499 244.897 20.8667C245.09 20.6739 245.317 20.5775 245.577 20.5775C245.837 20.5775 246.059 20.6739 246.242 20.8667C246.435 21.0499 246.531 21.2716 246.531 21.5318C246.531 21.7921 246.435 22.0186 246.242 22.2114C246.059 22.3946 245.837 22.4862 245.577 22.4862C245.317 22.4862 245.09 22.3946 244.897 22.2114C244.714 22.0186 244.623 21.7921 244.623 21.5318Z" fill="black"/>
<path d="M350.426 13.2597C350.793 13.2597 351.103 13.5698 351.103 13.9363V20.7019C351.103 21.0965 350.793 21.3785 350.426 21.3785C350.031 21.3785 349.749 21.0965 349.749 20.7019V15.5713L343.238 22.0832C342.956 22.3651 342.533 22.3651 342.279 22.0832C341.997 21.8295 341.997 21.4066 342.279 21.1529L348.791 14.641H343.66C343.266 14.641 342.984 14.3309 342.984 13.9645C342.984 13.5698 343.266 13.2879 343.66 13.2879H350.426V13.2597Z" fill="#777FA1"/>
<mask id="path-7-inside-2_5332_24394" fill="white">
<path d="M0.367188 44.085H352.006V82.6176H0.367188V44.085Z"/>
</mask>
<path d="M352.006 81.4127H0.367188V83.8226H352.006V81.4127Z" fill="#D0D4E4" fill-opacity="0.5" mask="url(#path-7-inside-2_5332_24394)"/>
<path d="M0.367188 58.0571C0.367188 57.1526 1.09073 56.4033 2.02101 56.4033H8.63628C9.54072 56.4033 10.2901 57.1526 10.2901 58.0571V64.6724C10.2901 65.6026 9.54072 66.3262 8.63628 66.3262H2.02101C1.09073 66.3262 0.367188 65.6026 0.367188 64.6724V58.0571ZM14.8123 57.3335C15.0707 57.4886 15.2516 57.7728 15.2516 58.0571V64.6724C15.2516 64.9824 15.0707 65.2667 14.8123 65.4217C14.528 65.5509 14.2179 65.5509 13.9595 65.3701L11.4788 63.7162L11.117 63.4837V63.0185V59.7109V59.2716L11.4788 59.039L13.9595 57.3852C14.2179 57.2043 14.528 57.2043 14.8123 57.3335Z" fill="#D0D4E4"/>
<path d="M26.9604 55.704H28.3485V59.9551H33.6552V55.704H35.0433V65.9414H33.6552V61.2565H28.3485V65.9414H26.9604V55.704ZM38.401 62.5145C38.401 62.8615 38.454 63.1844 38.56 63.4833C38.666 63.7725 38.8155 64.0231 39.0083 64.2352C39.2011 64.4376 39.4372 64.6015 39.7168 64.7268C39.9963 64.8425 40.3096 64.9003 40.6567 64.9003C41.0037 64.9003 41.317 64.8425 41.5965 64.7268C41.8761 64.6015 42.1123 64.4376 42.3051 64.2352C42.4978 64.0231 42.6473 63.7725 42.7533 63.4833C42.8593 63.1844 42.9124 62.8615 42.9124 62.5145C42.9124 62.1674 42.8593 61.8493 42.7533 61.5601C42.6473 61.2613 42.4978 61.0107 42.3051 60.8082C42.1123 60.5962 41.8761 60.4323 41.5965 60.3166C41.317 60.1913 41.0037 60.1286 40.6567 60.1286C40.3096 60.1286 39.9963 60.1913 39.7168 60.3166C39.4372 60.4323 39.2011 60.5962 39.0083 60.8082C38.8155 61.0107 38.666 61.2613 38.56 61.5601C38.454 61.8493 38.401 62.1674 38.401 62.5145ZM37.0128 62.5145C37.0128 62.0132 37.1044 61.5457 37.2876 61.1119C37.4804 60.6781 37.7406 60.2973 38.0684 59.9696C38.3961 59.6418 38.7817 59.3864 39.2252 59.2032C39.6686 59.0104 40.1457 58.914 40.6567 58.914C41.1676 58.914 41.6447 59.0104 42.0882 59.2032C42.5316 59.3864 42.9172 59.6418 43.2449 59.9696C43.5727 60.2973 43.8281 60.6781 44.0113 61.1119C44.2041 61.5457 44.3005 62.0132 44.3005 62.5145C44.3005 63.0157 44.2041 63.4881 44.0113 63.9315C43.8281 64.3653 43.5727 64.7461 43.2449 65.0738C42.9172 65.3919 42.5316 65.6474 42.0882 65.8402C41.6447 66.0233 41.1676 66.1149 40.6567 66.1149C40.1457 66.1149 39.6686 66.0233 39.2252 65.8402C38.7817 65.6474 38.3961 65.3919 38.0684 65.0738C37.7406 64.7461 37.4804 64.3653 37.2876 63.9315C37.1044 63.4881 37.0128 63.0157 37.0128 62.5145ZM45.1066 59.0876H46.567L48.1142 64.2063H48.1431L49.7771 59.0876H51.1507L52.8859 64.2063H52.9148L54.3897 59.0876H55.7633L53.551 65.9414H52.2352L50.4277 60.8227H50.3988L48.7649 65.9414H47.3623L45.1066 59.0876ZM64.5997 60.2154H62.7344V63.3242C62.7344 63.517 62.7393 63.7098 62.7489 63.9026C62.7585 64.0858 62.7923 64.2545 62.8501 64.4087C62.9176 64.5533 63.014 64.6738 63.1393 64.7702C63.2743 64.8569 63.4671 64.9003 63.7177 64.9003C63.8719 64.9003 64.031 64.8859 64.1949 64.8569C64.3587 64.828 64.5082 64.775 64.6431 64.6979V65.8836C64.4889 65.9703 64.2864 66.0282 64.0358 66.0571C63.7948 66.0956 63.6068 66.1149 63.4719 66.1149C62.9706 66.1149 62.5802 66.0474 62.3007 65.9125C62.0307 65.7679 61.8283 65.5847 61.6933 65.363C61.568 65.1413 61.4909 64.8955 61.462 64.6256C61.4427 64.346 61.4331 64.0665 61.4331 63.7869V60.2154H59.9293V59.0876H61.4331V57.1644H62.7344V59.0876H64.5997V60.2154ZM67.3343 62.5145C67.3343 62.8615 67.3873 63.1844 67.4933 63.4833C67.5994 63.7725 67.7488 64.0231 67.9416 64.2352C68.1344 64.4376 68.3706 64.6015 68.6501 64.7268C68.9297 64.8425 69.243 64.9003 69.59 64.9003C69.937 64.9003 70.2503 64.8425 70.5299 64.7268C70.8094 64.6015 71.0456 64.4376 71.2384 64.2352C71.4312 64.0231 71.5806 63.7725 71.6866 63.4833C71.7927 63.1844 71.8457 62.8615 71.8457 62.5145C71.8457 62.1674 71.7927 61.8493 71.6866 61.5601C71.5806 61.2613 71.4312 61.0107 71.2384 60.8082C71.0456 60.5962 70.8094 60.4323 70.5299 60.3166C70.2503 60.1913 69.937 60.1286 69.59 60.1286C69.243 60.1286 68.9297 60.1913 68.6501 60.3166C68.3706 60.4323 68.1344 60.5962 67.9416 60.8082C67.7488 61.0107 67.5994 61.2613 67.4933 61.5601C67.3873 61.8493 67.3343 62.1674 67.3343 62.5145ZM65.9462 62.5145C65.9462 62.0132 66.0377 61.5457 66.2209 61.1119C66.4137 60.6781 66.674 60.2973 67.0017 59.9696C67.3295 59.6418 67.7151 59.3864 68.1585 59.2032C68.6019 59.0104 69.0791 58.914 69.59 58.914C70.1009 58.914 70.5781 59.0104 71.0215 59.2032C71.4649 59.3864 71.8505 59.6418 72.1783 59.9696C72.506 60.2973 72.7615 60.6781 72.9446 61.1119C73.1374 61.5457 73.2338 62.0132 73.2338 62.5145C73.2338 63.0157 73.1374 63.4881 72.9446 63.9315C72.7615 64.3653 72.506 64.7461 72.1783 65.0738C71.8505 65.3919 71.4649 65.6474 71.0215 65.8402C70.5781 66.0233 70.1009 66.1149 69.59 66.1149C69.0791 66.1149 68.6019 66.0233 68.1585 65.8402C67.7151 65.6474 67.3295 65.3919 67.0017 65.0738C66.674 64.7461 66.4137 64.3653 66.2209 63.9315C66.0377 63.4881 65.9462 63.0157 65.9462 62.5145ZM82.5324 60.8082C82.3781 60.6155 82.1853 60.4564 81.954 60.3311C81.7323 60.1961 81.4575 60.1286 81.1298 60.1286C80.8213 60.1286 80.5514 60.1961 80.32 60.3311C80.0983 60.4564 79.9875 60.6444 79.9875 60.895C79.9875 61.0974 80.0501 61.2613 80.1754 61.3866C80.3104 61.5119 80.4646 61.6132 80.6381 61.6903C80.8213 61.7674 81.0141 61.8252 81.2165 61.8638C81.419 61.9024 81.5925 61.9361 81.7371 61.965C82.0166 62.0325 82.2769 62.1144 82.5179 62.2108C82.7685 62.3072 82.9806 62.4325 83.1541 62.5868C83.3373 62.741 83.4771 62.929 83.5734 63.1507C83.6795 63.3724 83.7325 63.6423 83.7325 63.9604C83.7325 64.346 83.6506 64.6786 83.4867 64.9582C83.3228 65.2281 83.1107 65.4498 82.8505 65.6233C82.5902 65.7968 82.2914 65.9221 81.954 65.9992C81.6262 66.0764 81.2936 66.1149 80.9563 66.1149C80.3875 66.1149 79.8862 66.0282 79.4525 65.8546C79.0283 65.6811 78.6475 65.363 78.3102 64.9003L79.2934 64.0906C79.5055 64.3027 79.7417 64.4906 80.0019 64.6545C80.2622 64.8184 80.5803 64.9003 80.9563 64.9003C81.1201 64.9003 81.284 64.8859 81.4479 64.8569C81.6214 64.8184 81.7708 64.7654 81.8961 64.6979C82.0311 64.6208 82.1371 64.5292 82.2142 64.4231C82.301 64.3075 82.3444 64.1773 82.3444 64.0327C82.3444 63.8399 82.2817 63.6809 82.1564 63.5556C82.0407 63.4303 81.8961 63.3339 81.7226 63.2664C81.5587 63.1893 81.3804 63.1314 81.1876 63.0929C81.0045 63.0447 80.8406 63.0061 80.696 62.9772C80.4164 62.9097 80.1513 62.8326 79.9007 62.7458C79.6501 62.6591 79.4284 62.5434 79.2356 62.3988C79.0428 62.2542 78.8885 62.0711 78.7729 61.8493C78.6572 61.6276 78.5993 61.3529 78.5993 61.0251C78.5993 60.6685 78.6716 60.36 78.8162 60.0997C78.9705 59.8298 79.1681 59.6081 79.4091 59.4346C79.6597 59.2611 79.9393 59.1309 80.2477 59.0442C80.5658 58.9574 80.884 58.914 81.2021 58.914C81.6648 58.914 82.1082 59.0008 82.5324 59.1743C82.9565 59.3478 83.2939 59.637 83.5445 60.0419L82.5324 60.8082ZM86.2967 62.9916C86.2967 63.2905 86.3594 63.5652 86.4847 63.8158C86.6196 64.0568 86.7932 64.2641 87.0052 64.4376C87.2173 64.6111 87.4631 64.7461 87.7427 64.8425C88.0222 64.9389 88.3114 64.9871 88.6102 64.9871C89.0151 64.9871 89.367 64.8955 89.6658 64.7123C89.9646 64.5195 90.2394 64.2689 90.49 63.9604L91.4733 64.7123C90.7503 65.6474 89.7381 66.1149 88.4367 66.1149C87.8969 66.1149 87.4053 66.0233 86.9619 65.8402C86.5281 65.657 86.1569 65.4064 85.8485 65.0883C85.5496 64.7605 85.3183 64.3798 85.1544 63.946C84.9905 63.5026 84.9086 63.0254 84.9086 62.5145C84.9086 62.0036 84.9953 61.5312 85.1689 61.0974C85.352 60.654 85.5978 60.2732 85.9063 59.9551C86.2244 59.6274 86.6004 59.3719 87.0342 59.1888C87.4679 59.0056 87.9403 58.914 88.4512 58.914C89.0585 58.914 89.5694 59.0201 89.9839 59.2321C90.4081 59.4442 90.7551 59.7238 91.025 60.0708C91.2949 60.4082 91.4877 60.7938 91.6034 61.2276C91.7287 61.6517 91.7914 62.0855 91.7914 62.5289V62.9916H86.2967ZM90.4032 61.9506C90.3936 61.6614 90.3454 61.3963 90.2586 61.1553C90.1815 60.9143 90.061 60.707 89.8972 60.5335C89.7333 60.3504 89.526 60.2106 89.2754 60.1142C89.0344 60.0081 88.75 59.9551 88.4223 59.9551C88.1042 59.9551 87.8101 60.0178 87.5402 60.1431C87.28 60.2588 87.0583 60.413 86.8751 60.6058C86.6919 60.7986 86.5473 61.0155 86.4413 61.2565C86.3449 61.4878 86.2967 61.7192 86.2967 61.9506H90.4032ZM93.3481 59.0876H94.6495V60.1431H94.6784C94.8423 59.7768 95.1267 59.4828 95.5315 59.2611C95.9364 59.0297 96.4039 58.914 96.9341 58.914C97.2619 58.914 97.5752 58.9671 97.874 59.0731C98.1825 59.1695 98.4476 59.3237 98.6693 59.5358C98.9006 59.7479 99.0838 60.0226 99.2187 60.36C99.3537 60.6877 99.4212 61.0782 99.4212 61.5312V65.9414H98.1198V61.8927C98.1198 61.5746 98.0764 61.3047 97.9897 61.083C97.9029 60.8516 97.7872 60.6685 97.6426 60.5335C97.4981 60.3889 97.3294 60.2877 97.1366 60.2299C96.9534 60.1624 96.7606 60.1286 96.5582 60.1286C96.2883 60.1286 96.0376 60.172 95.8063 60.2588C95.5749 60.3455 95.3725 60.4853 95.199 60.6781C95.0255 60.8613 94.8905 61.0974 94.7941 61.3866C94.6977 61.6758 94.6495 62.018 94.6495 62.4133V65.9414H93.3481V59.0876ZM108.251 65.9414H106.95V64.9582H106.921C106.67 65.3245 106.323 65.6088 105.88 65.8113C105.446 66.0137 104.998 66.1149 104.535 66.1149C104.005 66.1149 103.523 66.0233 103.089 65.8402C102.665 65.657 102.299 65.4016 101.99 65.0738C101.691 64.7461 101.46 64.3653 101.296 63.9315C101.132 63.4977 101.05 63.0254 101.05 62.5145C101.05 62.0036 101.132 61.5312 101.296 61.0974C101.46 60.654 101.691 60.2732 101.99 59.9551C102.299 59.6274 102.665 59.3719 103.089 59.1888C103.523 59.0056 104.005 58.914 104.535 58.914C105.027 58.914 105.489 59.0201 105.923 59.2321C106.357 59.4346 106.69 59.7141 106.921 60.0708H106.95V55.0099H108.251V65.9414ZM104.694 64.9003C105.041 64.9003 105.354 64.8425 105.634 64.7268C105.914 64.6015 106.15 64.4376 106.342 64.2352C106.535 64.0231 106.685 63.7725 106.791 63.4833C106.897 63.1844 106.95 62.8615 106.95 62.5145C106.95 62.1674 106.897 61.8493 106.791 61.5601C106.685 61.2613 106.535 61.0107 106.342 60.8082C106.15 60.5962 105.914 60.4323 105.634 60.3166C105.354 60.1913 105.041 60.1286 104.694 60.1286C104.347 60.1286 104.034 60.1913 103.754 60.3166C103.475 60.4323 103.238 60.5962 103.046 60.8082C102.853 61.0107 102.703 61.2613 102.597 61.5601C102.491 61.8493 102.438 62.1674 102.438 62.5145C102.438 62.8615 102.491 63.1844 102.597 63.4833C102.703 63.7725 102.853 64.0231 103.046 64.2352C103.238 64.4376 103.475 64.6015 103.754 64.7268C104.034 64.8425 104.347 64.9003 104.694 64.9003ZM115.23 62.9916C115.23 63.2905 115.293 63.5652 115.418 63.8158C115.553 64.0568 115.726 64.2641 115.939 64.4376C116.151 64.6111 116.396 64.7461 116.676 64.8425C116.956 64.9389 117.245 64.9871 117.544 64.9871C117.948 64.9871 118.3 64.8955 118.599 64.7123C118.898 64.5195 119.173 64.2689 119.423 63.9604L120.407 64.7123C119.684 65.6474 118.671 66.1149 117.37 66.1149C116.83 66.1149 116.339 66.0233 115.895 65.8402C115.461 65.657 115.09 65.4064 114.782 65.0883C114.483 64.7605 114.252 64.3798 114.088 63.946C113.924 63.5026 113.842 63.0254 113.842 62.5145C113.842 62.0036 113.929 61.5312 114.102 61.0974C114.285 60.654 114.531 60.2732 114.84 59.9551C115.158 59.6274 115.534 59.3719 115.967 59.1888C116.401 59.0056 116.874 58.914 117.385 58.914C117.992 58.914 118.503 59.0201 118.917 59.2321C119.341 59.4442 119.688 59.7238 119.958 60.0708C120.228 60.4082 120.421 60.7938 120.537 61.2276C120.662 61.6517 120.725 62.0855 120.725 62.5289V62.9916H115.23ZM119.337 61.9506C119.327 61.6614 119.279 61.3963 119.192 61.1553C119.115 60.9143 118.994 60.707 118.83 60.5335C118.667 60.3504 118.459 60.2106 118.209 60.1142C117.968 60.0081 117.683 59.9551 117.356 59.9551C117.037 59.9551 116.743 60.0178 116.474 60.1431C116.213 60.2588 115.992 60.413 115.808 60.6058C115.625 60.7986 115.481 61.0155 115.375 61.2565C115.278 61.4878 115.23 61.7192 115.23 61.9506H119.337ZM122.281 59.0876H123.496V60.1576H123.525C123.554 60.0612 123.626 59.9407 123.742 59.7961C123.867 59.6515 124.021 59.5165 124.205 59.3912C124.397 59.2562 124.619 59.1454 124.87 59.0586C125.13 58.9622 125.414 58.914 125.723 58.914C126.234 58.914 126.663 59.0201 127.01 59.2321C127.357 59.4442 127.641 59.7623 127.863 60.1865C128.085 59.7623 128.398 59.4442 128.803 59.2321C129.208 59.0201 129.617 58.914 130.032 58.914C130.562 58.914 130.996 59.0008 131.333 59.1743C131.671 59.3478 131.936 59.5792 132.128 59.8684C132.321 60.1479 132.451 60.4709 132.519 60.8372C132.596 61.1938 132.635 61.565 132.635 61.9506V65.9414H131.333V62.1241C131.333 61.8638 131.314 61.6132 131.275 61.3722C131.246 61.1312 131.179 60.9191 131.073 60.7359C130.967 60.5528 130.817 60.4082 130.625 60.3022C130.432 60.1865 130.176 60.1286 129.858 60.1286C129.232 60.1286 128.783 60.3214 128.514 60.707C128.244 61.0926 128.109 61.5891 128.109 62.1964V65.9414H126.807V62.3554C126.807 62.0277 126.788 61.7288 126.749 61.4589C126.721 61.189 126.653 60.9577 126.547 60.7649C126.451 60.5624 126.306 60.4082 126.113 60.3022C125.93 60.1865 125.679 60.1286 125.361 60.1286C125.13 60.1286 124.903 60.1768 124.682 60.2732C124.47 60.36 124.282 60.495 124.118 60.6781C123.954 60.8613 123.824 61.0974 123.727 61.3866C123.631 61.6662 123.583 61.9988 123.583 62.3843V65.9414H122.281V59.0876ZM134.624 59.9262C134.99 59.5888 135.414 59.3382 135.896 59.1743C136.378 59.0008 136.86 58.914 137.342 58.914C137.843 58.914 138.272 58.9767 138.629 59.102C138.995 59.2273 139.294 59.396 139.525 59.6081C139.757 59.8202 139.926 60.066 140.032 60.3455C140.147 60.6155 140.205 60.8998 140.205 61.1987V64.6979C140.205 64.9389 140.21 65.1606 140.22 65.363C140.229 65.5655 140.244 65.7583 140.263 65.9414H139.106C139.077 65.5944 139.063 65.2473 139.063 64.9003H139.034C138.745 65.3437 138.402 65.657 138.007 65.8402C137.612 66.0233 137.154 66.1149 136.634 66.1149C136.315 66.1149 136.012 66.0715 135.723 65.9848C135.433 65.898 135.178 65.7679 134.956 65.5944C134.744 65.4209 134.575 65.2088 134.45 64.9582C134.325 64.6979 134.262 64.399 134.262 64.0617C134.262 63.6182 134.359 63.2471 134.551 62.9483C134.754 62.6494 135.024 62.4084 135.361 62.2253C135.708 62.0325 136.108 61.8975 136.561 61.8204C137.024 61.7337 137.516 61.6903 138.036 61.6903H138.99V61.4011C138.99 61.2276 138.957 61.0541 138.889 60.8805C138.822 60.707 138.721 60.5528 138.586 60.4178C138.451 60.2732 138.282 60.1624 138.08 60.0853C137.877 59.9985 137.636 59.9551 137.357 59.9551C137.106 59.9551 136.884 59.9792 136.691 60.0274C136.508 60.0756 136.34 60.1383 136.185 60.2154C136.031 60.2829 135.891 60.3648 135.766 60.4612C135.641 60.5576 135.52 60.6492 135.404 60.7359L134.624 59.9262ZM138.296 62.6446C137.988 62.6446 137.67 62.6639 137.342 62.7025C137.024 62.7314 136.73 62.794 136.46 62.8904C136.2 62.9868 135.983 63.1218 135.809 63.2953C135.645 63.4688 135.564 63.6905 135.564 63.9604C135.564 64.3557 135.694 64.64 135.954 64.8136C136.224 64.9871 136.585 65.0738 137.038 65.0738C137.395 65.0738 137.699 65.016 137.949 64.9003C138.2 64.775 138.402 64.6159 138.557 64.4231C138.711 64.2304 138.822 64.0183 138.889 63.7869C138.957 63.5459 138.99 63.3098 138.99 63.0784V62.6446H138.296ZM142.194 59.0876H143.495V65.9414H142.194V59.0876ZM141.89 56.6294C141.89 56.3691 141.982 56.1474 142.165 55.9643C142.358 55.7715 142.584 55.6751 142.845 55.6751C143.105 55.6751 143.327 55.7715 143.51 55.9643C143.703 56.1474 143.799 56.3691 143.799 56.6294C143.799 56.8897 143.703 57.1162 143.51 57.309C143.327 57.4922 143.105 57.5838 142.845 57.5838C142.584 57.5838 142.358 57.4922 142.165 57.309C141.982 57.1162 141.89 56.8897 141.89 56.6294ZM145.668 55.0099H146.969V65.9414H145.668V55.0099ZM151.093 63.0784V62.1964C151.093 61.9361 151.113 61.7192 151.151 61.5457C151.19 61.3722 151.248 61.2179 151.325 61.083C151.402 60.9384 151.503 60.8034 151.628 60.6781C151.763 60.5432 151.927 60.3841 152.12 60.2009C152.274 60.0563 152.429 59.9117 152.583 59.7672C152.737 59.6129 152.877 59.4587 153.002 59.3044C153.127 59.1406 153.229 58.9719 153.306 58.7984C153.393 58.6152 153.436 58.4128 153.436 58.1911C153.436 57.9693 153.393 57.7669 153.306 57.5838C153.229 57.391 153.123 57.2271 152.988 57.0921C152.853 56.9572 152.689 56.8511 152.496 56.774C152.313 56.6969 152.115 56.6583 151.903 56.6583C151.431 56.6583 151.045 56.8078 150.746 57.1066C150.457 57.4054 150.284 57.7958 150.226 58.2778L148.751 58.1332C148.876 57.2946 149.223 56.6391 149.792 56.1667C150.371 55.6847 151.084 55.4437 151.932 55.4437C152.337 55.4437 152.713 55.5064 153.06 55.6317C153.417 55.7474 153.725 55.9209 153.985 56.1523C154.246 56.374 154.448 56.6535 154.593 56.9909C154.747 57.3187 154.824 57.6946 154.824 58.1188C154.824 58.4851 154.771 58.808 154.665 59.0876C154.559 59.3575 154.41 59.6129 154.217 59.8539L153.349 60.7504L153.205 60.8805C153.05 61.0251 152.925 61.1505 152.829 61.2565C152.742 61.3529 152.67 61.4589 152.612 61.5746C152.564 61.6806 152.53 61.8011 152.511 61.9361C152.491 62.0711 152.482 62.2397 152.482 62.4422V63.0784H151.093ZM150.819 65.0738C150.819 64.8136 150.91 64.5918 151.093 64.4087C151.286 64.2159 151.513 64.1195 151.773 64.1195C152.033 64.1195 152.255 64.2159 152.438 64.4087C152.631 64.5918 152.727 64.8136 152.727 65.0738C152.727 65.3341 152.631 65.5606 152.438 65.7534C152.255 65.9366 152.033 66.0282 151.773 66.0282C151.513 66.0282 151.286 65.9366 151.093 65.7534C150.91 65.5606 150.819 65.3341 150.819 65.0738Z" fill="black"/>
<path d="M350.426 56.8017C350.793 56.8017 351.103 57.1118 351.103 57.4783V64.2439C351.103 64.6385 350.793 64.9204 350.426 64.9204C350.031 64.9204 349.749 64.6385 349.749 64.2439V59.1133L343.238 65.6252C342.956 65.9071 342.533 65.9071 342.279 65.6252C341.997 65.3715 341.997 64.9486 342.279 64.6949L348.791 58.183H343.66C343.266 58.183 342.984 57.8729 342.984 57.5064C342.984 57.1118 343.266 56.8299 343.66 56.8299H350.426V56.8017Z" fill="#777FA1"/>
<path d="M0.367188 101.599C0.367188 100.695 1.09073 99.9452 2.02101 99.9452H8.63628C9.54072 99.9452 10.2901 100.695 10.2901 101.599V108.214C10.2901 109.145 9.54072 109.868 8.63628 109.868H2.02101C1.09073 109.868 0.367188 109.145 0.367188 108.214V101.599ZM14.8123 100.876C15.0707 101.031 15.2516 101.315 15.2516 101.599V108.214C15.2516 108.524 15.0707 108.809 14.8123 108.964C14.528 109.093 14.2179 109.093 13.9595 108.912L11.4788 107.258L11.117 107.026V106.561V103.253V102.814L11.4788 102.581L13.9595 100.927C14.2179 100.746 14.528 100.746 14.8123 100.876Z" fill="#D0D4E4"/>
<path d="M25.659 99.246H27.105L29.3607 107.43H29.3896L31.8043 99.246H33.3949L35.8096 107.43H35.8386L38.0943 99.246H39.5402L36.5615 109.483H35.1011L32.6141 101.126H32.5851L30.1126 109.483H28.6521L25.659 99.246ZM40.5367 98.5519H41.838V103.685H41.867C42.0308 103.319 42.3152 103.025 42.7201 102.803C43.125 102.572 43.5925 102.456 44.1227 102.456C44.4504 102.456 44.7637 102.509 45.0625 102.615C45.371 102.711 45.6361 102.866 45.8578 103.078C46.0892 103.29 46.2723 103.565 46.4073 103.902C46.5422 104.23 46.6097 104.62 46.6097 105.073V109.483H45.3084V105.435C45.3084 105.117 45.265 104.847 45.1782 104.625C45.0915 104.394 44.9758 104.21 44.8312 104.076C44.6866 103.931 44.5179 103.83 44.3251 103.772C44.1419 103.704 43.9492 103.671 43.7467 103.671C43.4768 103.671 43.2262 103.714 42.9948 103.801C42.7635 103.888 42.561 104.027 42.3875 104.22C42.214 104.403 42.079 104.639 41.9826 104.929C41.8862 105.218 41.838 105.56 41.838 105.955V109.483H40.5367V98.5519ZM48.6003 103.468C48.9666 103.131 49.3907 102.88 49.8727 102.716C50.3547 102.543 50.8367 102.456 51.3187 102.456C51.82 102.456 52.2489 102.519 52.6056 102.644C52.9719 102.769 53.2707 102.938 53.5021 103.15C53.7334 103.362 53.9021 103.608 54.0082 103.888C54.1239 104.157 54.1817 104.442 54.1817 104.741V108.24C54.1817 108.481 54.1865 108.703 54.1962 108.905C54.2058 109.107 54.2203 109.3 54.2395 109.483H53.0828C53.0538 109.136 53.0394 108.789 53.0394 108.442H53.0105C52.7213 108.886 52.3791 109.199 51.9838 109.382C51.5886 109.565 51.1307 109.657 50.6102 109.657C50.2921 109.657 49.9884 109.614 49.6992 109.527C49.41 109.44 49.1546 109.31 48.9329 109.136C48.7208 108.963 48.5521 108.751 48.4268 108.5C48.3015 108.24 48.2388 107.941 48.2388 107.604C48.2388 107.16 48.3352 106.789 48.528 106.49C48.7304 106.191 49.0003 105.95 49.3377 105.767C49.6848 105.574 50.0848 105.44 50.5379 105.362C51.0006 105.276 51.4922 105.232 52.0128 105.232H52.9671V104.943C52.9671 104.77 52.9334 104.596 52.8659 104.423C52.7984 104.249 52.6972 104.095 52.5622 103.96C52.4273 103.815 52.2586 103.704 52.0561 103.627C51.8537 103.54 51.6127 103.497 51.3332 103.497C51.0825 103.497 50.8608 103.521 50.668 103.569C50.4849 103.618 50.3162 103.68 50.1619 103.757C50.0077 103.825 49.8679 103.907 49.7426 104.003C49.6173 104.1 49.4968 104.191 49.3811 104.278L48.6003 103.468ZM52.273 106.187C51.9646 106.187 51.6464 106.206 51.3187 106.244C51.0006 106.273 50.7066 106.336 50.4367 106.432C50.1764 106.529 49.9595 106.664 49.786 106.837C49.6221 107.011 49.5402 107.233 49.5402 107.502C49.5402 107.898 49.6703 108.182 49.9306 108.356C50.2005 108.529 50.562 108.616 51.015 108.616C51.3717 108.616 51.6754 108.558 51.926 108.442C52.1766 108.317 52.3791 108.158 52.5333 107.965C52.6875 107.772 52.7984 107.56 52.8659 107.329C52.9334 107.088 52.9671 106.852 52.9671 106.62V106.187H52.273ZM59.7422 103.757H57.8769V106.866C57.8769 107.059 57.8817 107.252 57.8914 107.445C57.901 107.628 57.9348 107.796 57.9926 107.951C58.0601 108.095 58.1565 108.216 58.2818 108.312C58.4167 108.399 58.6095 108.442 58.8602 108.442C59.0144 108.442 59.1735 108.428 59.3373 108.399C59.5012 108.37 59.6506 108.317 59.7856 108.24V109.426C59.6313 109.512 59.4289 109.57 59.1783 109.599C58.9373 109.638 58.7493 109.657 58.6144 109.657C58.1131 109.657 57.7227 109.589 57.4431 109.454C57.1732 109.31 56.9708 109.127 56.8358 108.905C56.7105 108.683 56.6334 108.437 56.6045 108.168C56.5852 107.888 56.5756 107.608 56.5756 107.329V103.757H55.0718V102.63H56.5756V100.706H57.8769V102.63H59.7422V103.757ZM65.5468 102.63H66.8482V109.483H65.5468V102.63ZM65.2432 100.171C65.2432 99.9111 65.3348 99.6894 65.5179 99.5063C65.7107 99.3135 65.9372 99.2171 66.1975 99.2171C66.4578 99.2171 66.6795 99.3135 66.8627 99.5063C67.0555 99.6894 67.1519 99.9111 67.1519 100.171C67.1519 100.432 67.0555 100.658 66.8627 100.851C66.6795 101.034 66.4578 101.126 66.1975 101.126C65.9372 101.126 65.7107 101.034 65.5179 100.851C65.3348 100.658 65.2432 100.432 65.2432 100.171ZM72.5631 104.35C72.4089 104.157 72.2161 103.998 71.9847 103.873C71.763 103.738 71.4883 103.671 71.1606 103.671C70.8521 103.671 70.5822 103.738 70.3508 103.873C70.1291 103.998 70.0182 104.186 70.0182 104.437C70.0182 104.639 70.0809 104.803 70.2062 104.929C70.3412 105.054 70.4954 105.155 70.6689 105.232C70.8521 105.309 71.0449 105.367 71.2473 105.406C71.4497 105.444 71.6233 105.478 71.7679 105.507C72.0474 105.574 72.3077 105.656 72.5487 105.753C72.7993 105.849 73.0114 105.975 73.1849 106.129C73.3681 106.283 73.5078 106.471 73.6042 106.693C73.7103 106.914 73.7633 107.184 73.7633 107.502C73.7633 107.888 73.6813 108.221 73.5175 108.5C73.3536 108.77 73.1415 108.992 72.8812 109.165C72.621 109.339 72.3221 109.464 71.9847 109.541C71.657 109.618 71.3244 109.657 70.987 109.657C70.4183 109.657 69.917 109.57 69.4832 109.397C69.0591 109.223 68.6783 108.905 68.3409 108.442L69.3242 107.633C69.5363 107.845 69.7724 108.033 70.0327 108.196C70.293 108.36 70.6111 108.442 70.987 108.442C71.1509 108.442 71.3148 108.428 71.4787 108.399C71.6522 108.36 71.8016 108.307 71.9269 108.24C72.0619 108.163 72.1679 108.071 72.245 107.965C72.3318 107.849 72.3752 107.719 72.3752 107.575C72.3752 107.382 72.3125 107.223 72.1872 107.098C72.0715 106.972 71.9269 106.876 71.7534 106.808C71.5895 106.731 71.4112 106.673 71.2184 106.635C71.0352 106.587 70.8714 106.548 70.7268 106.519C70.4472 106.452 70.1821 106.375 69.9315 106.288C69.6809 106.201 69.4591 106.085 69.2663 105.941C69.0735 105.796 68.9193 105.613 68.8036 105.391C68.688 105.17 68.6301 104.895 68.6301 104.567C68.6301 104.21 68.7024 103.902 68.847 103.642C69.0012 103.372 69.1989 103.15 69.4399 102.977C69.6905 102.803 69.97 102.673 70.2785 102.586C70.5966 102.499 70.9147 102.456 71.2328 102.456C71.6956 102.456 72.139 102.543 72.5631 102.716C72.9873 102.89 73.3247 103.179 73.5753 103.584L72.5631 104.35ZM79.3686 98.5519H80.67V103.685H80.6989C80.8628 103.319 81.1472 103.025 81.552 102.803C81.9569 102.572 82.4244 102.456 82.9546 102.456C83.2824 102.456 83.5957 102.509 83.8945 102.615C84.203 102.711 84.4681 102.866 84.6898 103.078C84.9211 103.29 85.1043 103.565 85.2392 103.902C85.3742 104.23 85.4417 104.62 85.4417 105.073V109.483H84.1403V105.435C84.1403 105.117 84.0969 104.847 84.0102 104.625C83.9234 104.394 83.8077 104.21 83.6631 104.076C83.5185 103.931 83.3499 103.83 83.1571 103.772C82.9739 103.704 82.7811 103.671 82.5787 103.671C82.3088 103.671 82.0581 103.714 81.8268 103.801C81.5954 103.888 81.393 104.027 81.2195 104.22C81.046 104.403 80.911 104.639 80.8146 104.929C80.7182 105.218 80.67 105.56 80.67 105.955V109.483H79.3686V98.5519ZM88.4589 106.056C88.4589 106.404 88.5119 106.726 88.6179 107.025C88.724 107.314 88.8734 107.565 89.0662 107.777C89.259 107.98 89.4951 108.143 89.7747 108.269C90.0543 108.384 90.3675 108.442 90.7146 108.442C91.0616 108.442 91.3749 108.384 91.6544 108.269C91.934 108.143 92.1702 107.98 92.363 107.777C92.5558 107.565 92.7052 107.314 92.8112 107.025C92.9173 106.726 92.9703 106.404 92.9703 106.056C92.9703 105.709 92.9173 105.391 92.8112 105.102C92.7052 104.803 92.5558 104.553 92.363 104.35C92.1702 104.138 91.934 103.974 91.6544 103.859C91.3749 103.733 91.0616 103.671 90.7146 103.671C90.3675 103.671 90.0543 103.733 89.7747 103.859C89.4951 103.974 89.259 104.138 89.0662 104.35C88.8734 104.553 88.724 104.803 88.6179 105.102C88.5119 105.391 88.4589 105.709 88.4589 106.056ZM87.0708 106.056C87.0708 105.555 87.1623 105.088 87.3455 104.654C87.5383 104.22 87.7986 103.839 88.1263 103.512C88.4541 103.184 88.8396 102.928 89.2831 102.745C89.7265 102.552 90.2037 102.456 90.7146 102.456C91.2255 102.456 91.7026 102.552 92.1461 102.745C92.5895 102.928 92.9751 103.184 93.3028 103.512C93.6306 103.839 93.886 104.22 94.0692 104.654C94.262 105.088 94.3584 105.555 94.3584 106.056C94.3584 106.558 94.262 107.03 94.0692 107.474C93.886 107.907 93.6306 108.288 93.3028 108.616C92.9751 108.934 92.5895 109.189 92.1461 109.382C91.7026 109.565 91.2255 109.657 90.7146 109.657C90.2037 109.657 89.7265 109.565 89.2831 109.382C88.8396 109.189 88.4541 108.934 88.1263 108.616C87.7986 108.288 87.5383 107.907 87.3455 107.474C87.1623 107.03 87.0708 106.558 87.0708 106.056ZM99.6325 104.35C99.4783 104.157 99.2855 103.998 99.0542 103.873C98.8324 103.738 98.5577 103.671 98.23 103.671C97.9215 103.671 97.6516 103.738 97.4202 103.873C97.1985 103.998 97.0876 104.186 97.0876 104.437C97.0876 104.639 97.1503 104.803 97.2756 104.929C97.4106 105.054 97.5648 105.155 97.7383 105.232C97.9215 105.309 98.1143 105.367 98.3167 105.406C98.5191 105.444 98.6927 105.478 98.8373 105.507C99.1168 105.574 99.3771 105.656 99.6181 105.753C99.8687 105.849 100.081 105.975 100.254 106.129C100.437 106.283 100.577 106.471 100.674 106.693C100.78 106.914 100.833 107.184 100.833 107.502C100.833 107.888 100.751 108.221 100.587 108.5C100.423 108.77 100.211 108.992 99.9506 109.165C99.6904 109.339 99.3915 109.464 99.0542 109.541C98.7264 109.618 98.3938 109.657 98.0564 109.657C97.4877 109.657 96.9864 109.57 96.5526 109.397C96.1285 109.223 95.7477 108.905 95.4103 108.442L96.3936 107.633C96.6057 107.845 96.8418 108.033 97.1021 108.196C97.3624 108.36 97.6805 108.442 98.0564 108.442C98.2203 108.442 98.3842 108.428 98.5481 108.399C98.7216 108.36 98.871 108.307 98.9963 108.24C99.1313 108.163 99.2373 108.071 99.3144 107.965C99.4012 107.849 99.4446 107.719 99.4446 107.575C99.4446 107.382 99.3819 107.223 99.2566 107.098C99.1409 106.972 98.9963 106.876 98.8228 106.808C98.6589 106.731 98.4806 106.673 98.2878 106.635C98.1046 106.587 97.9408 106.548 97.7962 106.519C97.5166 106.452 97.2515 106.375 97.0009 106.288C96.7503 106.201 96.5285 106.085 96.3357 105.941C96.143 105.796 95.9887 105.613 95.873 105.391C95.7574 105.17 95.6995 104.895 95.6995 104.567C95.6995 104.21 95.7718 103.902 95.9164 103.642C96.0707 103.372 96.2683 103.15 96.5093 102.977C96.7599 102.803 97.0394 102.673 97.3479 102.586C97.666 102.499 97.9841 102.456 98.3023 102.456C98.765 102.456 99.2084 102.543 99.6325 102.716C100.057 102.89 100.394 103.179 100.645 103.584L99.6325 104.35ZM106.086 103.757H104.221V106.866C104.221 107.059 104.226 107.252 104.236 107.445C104.245 107.628 104.279 107.796 104.337 107.951C104.404 108.095 104.501 108.216 104.626 108.312C104.761 108.399 104.954 108.442 105.204 108.442C105.359 108.442 105.518 108.428 105.682 108.399C105.845 108.37 105.995 108.317 106.13 108.24V109.426C105.976 109.512 105.773 109.57 105.522 109.599C105.281 109.638 105.093 109.657 104.959 109.657C104.457 109.657 104.067 109.589 103.787 109.454C103.517 109.31 103.315 109.127 103.18 108.905C103.055 108.683 102.978 108.437 102.949 108.168C102.929 107.888 102.92 107.608 102.92 107.329V103.757H101.416V102.63H102.92V100.706H104.221V102.63H106.086V103.757ZM107.867 102.63H109.168V109.483H107.867V102.63ZM107.563 100.171C107.563 99.9111 107.655 99.6894 107.838 99.5063C108.03 99.3135 108.257 99.2171 108.517 99.2171C108.778 99.2171 108.999 99.3135 109.182 99.5063C109.375 99.6894 109.472 99.9111 109.472 100.171C109.472 100.432 109.375 100.658 109.182 100.851C108.999 101.034 108.778 101.126 108.517 101.126C108.257 101.126 108.03 101.034 107.838 100.851C107.655 100.658 107.563 100.432 107.563 100.171ZM111.239 102.63H112.54V103.685H112.569C112.733 103.319 113.018 103.025 113.422 102.803C113.827 102.572 114.295 102.456 114.825 102.456C115.153 102.456 115.466 102.509 115.765 102.615C116.073 102.711 116.339 102.866 116.56 103.078C116.792 103.29 116.975 103.565 117.11 103.902C117.245 104.23 117.312 104.62 117.312 105.073V109.483H116.011V105.435C116.011 105.117 115.967 104.847 115.881 104.625C115.794 104.394 115.678 104.21 115.534 104.076C115.389 103.931 115.22 103.83 115.027 103.772C114.844 103.704 114.652 103.671 114.449 103.671C114.179 103.671 113.929 103.714 113.697 103.801C113.466 103.888 113.263 104.027 113.09 104.22C112.916 104.403 112.781 104.639 112.685 104.929C112.589 105.218 112.54 105.56 112.54 105.955V109.483H111.239V102.63ZM126.142 109.426C126.142 109.946 126.051 110.418 125.867 110.843C125.694 111.276 125.443 111.648 125.115 111.956C124.788 112.274 124.392 112.52 123.93 112.693C123.467 112.867 122.956 112.954 122.397 112.954C121.742 112.954 121.139 112.862 120.59 112.679C120.05 112.496 119.534 112.178 119.042 111.725L119.924 110.626C120.262 110.992 120.628 111.267 121.023 111.45C121.419 111.643 121.867 111.739 122.368 111.739C122.85 111.739 123.25 111.667 123.568 111.522C123.886 111.387 124.137 111.209 124.32 110.987C124.513 110.765 124.648 110.51 124.725 110.221C124.802 109.941 124.841 109.657 124.841 109.368V108.356H124.797C124.547 108.77 124.204 109.079 123.771 109.281C123.347 109.474 122.898 109.57 122.426 109.57C121.925 109.57 121.457 109.483 121.023 109.31C120.599 109.127 120.233 108.881 119.924 108.572C119.616 108.254 119.375 107.883 119.201 107.459C119.028 107.025 118.941 106.558 118.941 106.056C118.941 105.555 119.023 105.088 119.187 104.654C119.351 104.21 119.582 103.825 119.881 103.497C120.19 103.169 120.556 102.914 120.98 102.731C121.414 102.548 121.896 102.456 122.426 102.456C122.889 102.456 123.337 102.557 123.771 102.76C124.214 102.962 124.561 103.246 124.812 103.613H124.841V102.63H126.142V109.426ZM122.585 103.671C122.238 103.671 121.925 103.733 121.645 103.859C121.366 103.974 121.129 104.138 120.937 104.35C120.744 104.553 120.594 104.803 120.488 105.102C120.382 105.391 120.329 105.709 120.329 106.056C120.329 106.751 120.532 107.31 120.937 107.734C121.341 108.148 121.891 108.356 122.585 108.356C123.279 108.356 123.829 108.148 124.233 107.734C124.638 107.31 124.841 106.751 124.841 106.056C124.841 105.709 124.788 105.391 124.682 105.102C124.576 104.803 124.426 104.553 124.233 104.35C124.041 104.138 123.804 103.974 123.525 103.859C123.245 103.733 122.932 103.671 122.585 103.671ZM135.782 104.35C135.627 104.157 135.435 103.998 135.203 103.873C134.981 103.738 134.707 103.671 134.379 103.671C134.071 103.671 133.801 103.738 133.569 103.873C133.348 103.998 133.237 104.186 133.237 104.437C133.237 104.639 133.299 104.803 133.425 104.929C133.56 105.054 133.714 105.155 133.887 105.232C134.071 105.309 134.263 105.367 134.466 105.406C134.668 105.444 134.842 105.478 134.986 105.507C135.266 105.574 135.526 105.656 135.767 105.753C136.018 105.849 136.23 105.975 136.403 106.129C136.586 106.283 136.726 106.471 136.823 106.693C136.929 106.914 136.982 107.184 136.982 107.502C136.982 107.888 136.9 108.221 136.736 108.5C136.572 108.77 136.36 108.992 136.1 109.165C135.839 109.339 135.541 109.464 135.203 109.541C134.875 109.618 134.543 109.657 134.205 109.657C133.637 109.657 133.135 109.57 132.702 109.397C132.278 109.223 131.897 108.905 131.559 108.442L132.543 107.633C132.755 107.845 132.991 108.033 133.251 108.196C133.511 108.36 133.83 108.442 134.205 108.442C134.369 108.442 134.533 108.428 134.697 108.399C134.871 108.36 135.02 108.307 135.145 108.24C135.28 108.163 135.386 108.071 135.463 107.965C135.55 107.849 135.594 107.719 135.594 107.575C135.594 107.382 135.531 107.223 135.406 107.098C135.29 106.972 135.145 106.876 134.972 106.808C134.808 106.731 134.63 106.673 134.437 106.635C134.254 106.587 134.09 106.548 133.945 106.519C133.666 106.452 133.401 106.375 133.15 106.288C132.899 106.201 132.678 106.085 132.485 105.941C132.292 105.796 132.138 105.613 132.022 105.391C131.906 105.17 131.849 104.895 131.849 104.567C131.849 104.21 131.921 103.902 132.065 103.642C132.22 103.372 132.417 103.15 132.658 102.977C132.909 102.803 133.188 102.673 133.497 102.586C133.815 102.499 134.133 102.456 134.451 102.456C134.914 102.456 135.357 102.543 135.782 102.716C136.206 102.89 136.543 103.179 136.794 103.584L135.782 104.35ZM139.546 106.534C139.546 106.832 139.609 107.107 139.734 107.358C139.869 107.599 140.042 107.806 140.254 107.98C140.467 108.153 140.712 108.288 140.992 108.384C141.271 108.481 141.561 108.529 141.859 108.529C142.264 108.529 142.616 108.437 142.915 108.254C143.214 108.062 143.489 107.811 143.739 107.502L144.722 108.254C143.999 109.189 142.987 109.657 141.686 109.657C141.146 109.657 140.654 109.565 140.211 109.382C139.777 109.199 139.406 108.948 139.098 108.63C138.799 108.303 138.567 107.922 138.404 107.488C138.24 107.045 138.158 106.567 138.158 106.056C138.158 105.546 138.245 105.073 138.418 104.639C138.601 104.196 138.847 103.815 139.156 103.497C139.474 103.169 139.85 102.914 140.283 102.731C140.717 102.548 141.189 102.456 141.7 102.456C142.308 102.456 142.819 102.562 143.233 102.774C143.657 102.986 144.004 103.266 144.274 103.613C144.544 103.95 144.737 104.336 144.853 104.77C144.978 105.194 145.041 105.628 145.041 106.071V106.534H139.546ZM143.652 105.493C143.643 105.203 143.595 104.938 143.508 104.697C143.431 104.456 143.31 104.249 143.146 104.076C142.982 103.892 142.775 103.753 142.525 103.656C142.284 103.55 141.999 103.497 141.671 103.497C141.353 103.497 141.059 103.56 140.789 103.685C140.529 103.801 140.307 103.955 140.124 104.148C139.941 104.341 139.797 104.557 139.691 104.798C139.594 105.03 139.546 105.261 139.546 105.493H143.652ZM146.597 102.63H147.899V103.685H147.928C148.014 103.502 148.13 103.338 148.275 103.193C148.419 103.039 148.578 102.909 148.752 102.803C148.935 102.697 149.133 102.615 149.345 102.557C149.557 102.49 149.769 102.456 149.981 102.456C150.193 102.456 150.386 102.485 150.559 102.543L150.501 103.945C150.395 103.916 150.289 103.892 150.183 103.873C150.077 103.854 149.971 103.844 149.865 103.844C149.229 103.844 148.742 104.022 148.405 104.379C148.067 104.736 147.899 105.29 147.899 106.042V109.483H146.597V102.63ZM151.125 102.63H152.629L154.682 107.878L156.648 102.63H158.037L155.347 109.483H153.916L151.125 102.63ZM159.28 102.63H160.581V109.483H159.28V102.63ZM158.976 100.171C158.976 99.9111 159.068 99.6894 159.251 99.5063C159.444 99.3135 159.671 99.2171 159.931 99.2171C160.191 99.2171 160.413 99.3135 160.596 99.5063C160.789 99.6894 160.885 99.9111 160.885 100.171C160.885 100.432 160.789 100.658 160.596 100.851C160.413 101.034 160.191 101.126 159.931 101.126C159.671 101.126 159.444 101.034 159.251 100.851C159.068 100.658 158.976 100.432 158.976 100.171ZM167.554 104.451C167.313 104.201 167.058 104.013 166.788 103.888C166.528 103.753 166.214 103.685 165.848 103.685C165.491 103.685 165.178 103.753 164.908 103.888C164.648 104.013 164.426 104.191 164.243 104.423C164.07 104.644 163.935 104.905 163.838 105.203C163.752 105.493 163.708 105.796 163.708 106.114C163.708 106.432 163.761 106.736 163.867 107.025C163.973 107.305 164.123 107.551 164.315 107.763C164.508 107.975 164.74 108.143 165.01 108.269C165.279 108.384 165.583 108.442 165.92 108.442C166.287 108.442 166.6 108.38 166.86 108.254C167.121 108.119 167.362 107.927 167.583 107.676L168.509 108.601C168.171 108.977 167.776 109.247 167.323 109.411C166.88 109.575 166.407 109.657 165.906 109.657C165.376 109.657 164.889 109.57 164.446 109.397C164.012 109.223 163.636 108.982 163.318 108.674C163 108.356 162.754 107.98 162.58 107.546C162.407 107.102 162.32 106.616 162.32 106.085C162.32 105.555 162.407 105.068 162.58 104.625C162.754 104.182 162.995 103.801 163.303 103.483C163.621 103.165 163.997 102.919 164.431 102.745C164.875 102.562 165.366 102.47 165.906 102.47C166.407 102.47 166.884 102.562 167.338 102.745C167.8 102.919 168.2 103.189 168.538 103.555L167.554 104.451ZM170.611 106.534C170.611 106.832 170.674 107.107 170.799 107.358C170.934 107.599 171.108 107.806 171.32 107.98C171.532 108.153 171.778 108.288 172.057 108.384C172.337 108.481 172.626 108.529 172.925 108.529C173.33 108.529 173.682 108.437 173.981 108.254C174.279 108.062 174.554 107.811 174.805 107.502L175.788 108.254C175.065 109.189 174.053 109.657 172.752 109.657C172.212 109.657 171.72 109.565 171.277 109.382C170.843 109.199 170.472 108.948 170.163 108.63C169.864 108.303 169.633 107.922 169.469 107.488C169.305 107.045 169.223 106.567 169.223 106.056C169.223 105.546 169.31 105.073 169.484 104.639C169.667 104.196 169.913 103.815 170.221 103.497C170.539 103.169 170.915 102.914 171.349 102.731C171.783 102.548 172.255 102.456 172.766 102.456C173.373 102.456 173.884 102.562 174.299 102.774C174.723 102.986 175.07 103.266 175.34 103.613C175.61 103.95 175.802 104.336 175.918 104.77C176.043 105.194 176.106 105.628 176.106 106.071V106.534H170.611ZM174.718 105.493C174.708 105.203 174.66 104.938 174.573 104.697C174.496 104.456 174.376 104.249 174.212 104.076C174.048 103.892 173.841 103.753 173.59 103.656C173.349 103.55 173.065 103.497 172.737 103.497C172.419 103.497 172.125 103.56 171.855 103.685C171.595 103.801 171.373 103.955 171.19 104.148C171.007 104.341 170.862 104.557 170.756 104.798C170.66 105.03 170.611 105.261 170.611 105.493H174.718ZM182.193 103.757H180.719V102.63H182.193V101.097C182.193 100.181 182.367 99.5014 182.714 99.058C183.071 98.605 183.678 98.3784 184.536 98.3784C184.68 98.3784 184.83 98.3832 184.984 98.3929C185.148 98.4025 185.321 98.4314 185.505 98.4796L185.36 99.6364C185.235 99.5882 185.114 99.5545 184.999 99.5352C184.883 99.5159 184.758 99.5063 184.623 99.5063C184.382 99.5063 184.189 99.5448 184.044 99.6219C183.9 99.6894 183.784 99.7906 183.697 99.9256C183.62 100.061 183.567 100.224 183.538 100.417C183.519 100.6 183.509 100.812 183.509 101.053V102.63H185.056V103.757H183.495V109.483H182.193V103.757ZM186.502 102.63H187.804V103.685H187.833C187.92 103.502 188.035 103.338 188.18 103.193C188.324 103.039 188.483 102.909 188.657 102.803C188.84 102.697 189.038 102.615 189.25 102.557C189.462 102.49 189.674 102.456 189.886 102.456C190.098 102.456 190.291 102.485 190.464 102.543L190.407 103.945C190.301 103.916 190.194 103.892 190.088 103.873C189.982 103.854 189.876 103.844 189.77 103.844C189.134 103.844 188.647 104.022 188.31 104.379C187.973 104.736 187.804 105.29 187.804 106.042V109.483H186.502V102.63ZM192.656 106.056C192.656 106.404 192.709 106.726 192.815 107.025C192.921 107.314 193.07 107.565 193.263 107.777C193.456 107.98 193.692 108.143 193.971 108.269C194.251 108.384 194.564 108.442 194.911 108.442C195.258 108.442 195.572 108.384 195.851 108.269C196.131 108.143 196.367 107.98 196.56 107.777C196.752 107.565 196.902 107.314 197.008 107.025C197.114 106.726 197.167 106.404 197.167 106.056C197.167 105.709 197.114 105.391 197.008 105.102C196.902 104.803 196.752 104.553 196.56 104.35C196.367 104.138 196.131 103.974 195.851 103.859C195.572 103.733 195.258 103.671 194.911 103.671C194.564 103.671 194.251 103.733 193.971 103.859C193.692 103.974 193.456 104.138 193.263 104.35C193.07 104.553 192.921 104.803 192.815 105.102C192.709 105.391 192.656 105.709 192.656 106.056ZM191.267 106.056C191.267 105.555 191.359 105.088 191.542 104.654C191.735 104.22 191.995 103.839 192.323 103.512C192.651 103.184 193.036 102.928 193.48 102.745C193.923 102.552 194.4 102.456 194.911 102.456C195.422 102.456 195.899 102.552 196.343 102.745C196.786 102.928 197.172 103.184 197.5 103.512C197.827 103.839 198.083 104.22 198.266 104.654C198.459 105.088 198.555 105.555 198.555 106.056C198.555 106.558 198.459 107.03 198.266 107.474C198.083 107.907 197.827 108.288 197.5 108.616C197.172 108.934 196.786 109.189 196.343 109.382C195.899 109.565 195.422 109.657 194.911 109.657C194.4 109.657 193.923 109.565 193.48 109.382C193.036 109.189 192.651 108.934 192.323 108.616C191.995 108.288 191.735 107.907 191.542 107.474C191.359 107.03 191.267 106.558 191.267 106.056ZM200.185 102.63H201.4V103.7H201.429C201.458 103.603 201.53 103.483 201.646 103.338C201.771 103.193 201.925 103.059 202.109 102.933C202.301 102.798 202.523 102.687 202.774 102.601C203.034 102.504 203.318 102.456 203.627 102.456C204.138 102.456 204.567 102.562 204.914 102.774C205.261 102.986 205.545 103.304 205.767 103.728C205.989 103.304 206.302 102.986 206.707 102.774C207.112 102.562 207.521 102.456 207.936 102.456C208.466 102.456 208.9 102.543 209.237 102.716C209.575 102.89 209.84 103.121 210.032 103.41C210.225 103.69 210.355 104.013 210.423 104.379C210.5 104.736 210.539 105.107 210.539 105.493V109.483H209.237V105.666C209.237 105.406 209.218 105.155 209.179 104.914C209.15 104.673 209.083 104.461 208.977 104.278C208.871 104.095 208.721 103.95 208.529 103.844C208.336 103.728 208.08 103.671 207.762 103.671C207.136 103.671 206.687 103.863 206.418 104.249C206.148 104.635 206.013 105.131 206.013 105.738V109.483H204.711V105.897C204.711 105.57 204.692 105.271 204.653 105.001C204.625 104.731 204.557 104.5 204.451 104.307C204.355 104.104 204.21 103.95 204.017 103.844C203.834 103.728 203.583 103.671 203.265 103.671C203.034 103.671 202.807 103.719 202.586 103.815C202.374 103.902 202.186 104.037 202.022 104.22C201.858 104.403 201.728 104.639 201.631 104.929C201.535 105.208 201.487 105.541 201.487 105.926V109.483H200.185V102.63ZM217.159 107.343C217.41 107.719 217.728 107.999 218.114 108.182C218.509 108.356 218.914 108.442 219.328 108.442C219.56 108.442 219.796 108.409 220.037 108.341C220.278 108.264 220.495 108.153 220.687 108.009C220.89 107.864 221.054 107.686 221.179 107.474C221.304 107.261 221.367 107.016 221.367 106.736C221.367 106.341 221.242 106.042 220.991 105.84C220.74 105.628 220.427 105.454 220.051 105.319C219.685 105.174 219.28 105.039 218.837 104.914C218.403 104.779 217.998 104.596 217.622 104.365C217.256 104.133 216.947 103.825 216.697 103.439C216.446 103.044 216.321 102.514 216.321 101.849C216.321 101.55 216.383 101.232 216.509 100.894C216.644 100.557 216.851 100.249 217.13 99.969C217.41 99.6894 217.767 99.4581 218.2 99.2749C218.644 99.0821 219.174 98.9857 219.791 98.9857C220.35 98.9857 220.885 99.0628 221.396 99.2171C221.907 99.3713 222.355 99.6846 222.741 100.157L221.613 101.184C221.439 100.914 221.194 100.697 220.875 100.533C220.557 100.369 220.196 100.287 219.791 100.287C219.405 100.287 219.082 100.34 218.822 100.446C218.572 100.543 218.369 100.673 218.215 100.837C218.061 100.991 217.95 101.159 217.882 101.343C217.824 101.526 217.796 101.694 217.796 101.849C217.796 102.283 217.921 102.615 218.172 102.846C218.422 103.078 218.731 103.266 219.097 103.41C219.473 103.555 219.878 103.685 220.312 103.801C220.755 103.916 221.16 104.08 221.526 104.292C221.902 104.495 222.215 104.774 222.466 105.131C222.717 105.478 222.842 105.96 222.842 106.577C222.842 107.069 222.746 107.512 222.553 107.907C222.37 108.303 222.119 108.635 221.801 108.905C221.483 109.175 221.107 109.382 220.673 109.527C220.239 109.671 219.777 109.744 219.285 109.744C218.629 109.744 218.008 109.628 217.42 109.397C216.832 109.165 216.364 108.809 216.017 108.327L217.159 107.343ZM224.659 99.246H228.231C228.954 99.246 229.585 99.3279 230.125 99.4918C230.674 99.6557 231.147 99.8774 231.542 100.157C231.947 100.427 232.279 100.74 232.539 101.097C232.809 101.453 233.021 101.82 233.176 102.196C233.33 102.572 233.441 102.948 233.508 103.324C233.576 103.7 233.61 104.047 233.61 104.365C233.61 105.02 233.489 105.656 233.248 106.273C233.007 106.881 232.65 107.425 232.178 107.907C231.706 108.38 231.118 108.76 230.414 109.05C229.72 109.339 228.915 109.483 227.999 109.483H224.659V99.246ZM226.047 108.182H227.797C228.385 108.182 228.939 108.105 229.46 107.951C229.99 107.787 230.452 107.546 230.848 107.228C231.243 106.91 231.556 106.514 231.788 106.042C232.019 105.56 232.135 105.001 232.135 104.365C232.135 104.037 232.082 103.656 231.976 103.222C231.87 102.779 231.667 102.36 231.368 101.964C231.079 101.569 230.674 101.237 230.154 100.967C229.633 100.687 228.958 100.547 228.129 100.547H226.047V108.182ZM235.377 99.246H238.948C239.671 99.246 240.303 99.3279 240.842 99.4918C241.392 99.6557 241.864 99.8774 242.259 100.157C242.664 100.427 242.997 100.74 243.257 101.097C243.527 101.453 243.739 101.82 243.893 102.196C244.048 102.572 244.158 102.948 244.226 103.324C244.293 103.7 244.327 104.047 244.327 104.365C244.327 105.02 244.207 105.656 243.966 106.273C243.725 106.881 243.368 107.425 242.896 107.907C242.423 108.38 241.835 108.76 241.132 109.05C240.437 109.339 239.633 109.483 238.717 109.483H235.377V99.246ZM236.765 108.182H238.514C239.102 108.182 239.657 108.105 240.177 107.951C240.707 107.787 241.17 107.546 241.565 107.228C241.961 106.91 242.274 106.514 242.505 106.042C242.737 105.56 242.852 105.001 242.852 104.365C242.852 104.037 242.799 103.656 242.693 103.222C242.587 102.779 242.385 102.36 242.086 101.964C241.797 101.569 241.392 101.237 240.871 100.967C240.351 100.687 239.676 100.547 238.847 100.547H236.765V108.182ZM248.046 106.62V105.738C248.046 105.478 248.066 105.261 248.104 105.088C248.143 104.914 248.201 104.76 248.278 104.625C248.355 104.48 248.456 104.345 248.581 104.22C248.716 104.085 248.88 103.926 249.073 103.743C249.227 103.598 249.381 103.454 249.536 103.309C249.69 103.155 249.83 103.001 249.955 102.846C250.08 102.683 250.182 102.514 250.259 102.34C250.345 102.157 250.389 101.955 250.389 101.733C250.389 101.511 250.345 101.309 250.259 101.126C250.182 100.933 250.075 100.769 249.941 100.634C249.806 100.499 249.642 100.393 249.449 100.316C249.266 100.239 249.068 100.2 248.856 100.2C248.384 100.2 247.998 100.35 247.699 100.649C247.41 100.947 247.237 101.338 247.179 101.82L245.704 101.675C245.829 100.837 246.176 100.181 246.745 99.7087C247.323 99.2267 248.037 98.9857 248.885 98.9857C249.29 98.9857 249.666 99.0484 250.013 99.1737C250.369 99.2894 250.678 99.4629 250.938 99.6942C251.198 99.916 251.401 100.196 251.546 100.533C251.7 100.861 251.777 101.237 251.777 101.661C251.777 102.027 251.724 102.35 251.618 102.63C251.512 102.899 251.362 103.155 251.17 103.396L250.302 104.292L250.157 104.423C250.003 104.567 249.878 104.692 249.781 104.798C249.695 104.895 249.622 105.001 249.565 105.117C249.516 105.223 249.483 105.343 249.463 105.478C249.444 105.613 249.434 105.782 249.434 105.984V106.62H248.046ZM247.772 108.616C247.772 108.356 247.863 108.134 248.046 107.951C248.239 107.758 248.466 107.661 248.726 107.661C248.986 107.661 249.208 107.758 249.391 107.951C249.584 108.134 249.68 108.356 249.68 108.616C249.68 108.876 249.584 109.103 249.391 109.295C249.208 109.479 248.986 109.57 248.726 109.57C248.466 109.57 248.239 109.479 248.046 109.295C247.863 109.103 247.772 108.876 247.772 108.616Z" fill="black"/>
<path d="M350.426 100.344C350.793 100.344 351.103 100.654 351.103 101.02V107.786C351.103 108.181 350.793 108.462 350.426 108.462C350.031 108.462 349.749 108.181 349.749 107.786V102.655L343.238 109.167C342.956 109.449 342.533 109.449 342.279 109.167C341.997 108.913 341.997 108.491 342.279 108.237L348.791 101.725H343.66C343.266 101.725 342.984 101.415 342.984 101.048C342.984 100.654 343.266 100.372 343.66 100.372H350.426V100.344Z" fill="#777FA1"/>
</svg>
