<svg width="670" height="123" viewBox="0 0 670 123" fill="none" xmlns="http://www.w3.org/2000/svg">
<rect width="670" height="123" rx="19.2444" fill="white"/>
<path d="M34.3024 41.59C33.9816 41.1249 33.5486 40.7881 33.0034 40.5796C32.4741 40.3551 31.9128 40.2428 31.3195 40.2428C30.9667 40.2428 30.6219 40.2829 30.2851 40.3631C29.9643 40.4433 29.6677 40.5716 29.395 40.748C29.1384 40.9244 28.9299 41.157 28.7696 41.4456C28.6092 41.7183 28.529 42.047 28.529 42.4319C28.529 43.0092 28.7295 43.4503 29.1304 43.755C29.5313 44.0597 30.0285 44.3243 30.6219 44.5488C31.2152 44.7733 31.8647 44.9898 32.5704 45.1983C33.276 45.4068 33.9255 45.6954 34.5189 46.0643C35.1122 46.4331 35.6094 46.9223 36.0103 47.5317C36.4112 48.1411 36.6117 48.951 36.6117 49.9613C36.6117 50.8754 36.4433 51.6773 36.1065 52.3668C35.7697 53.0404 35.3127 53.6017 34.7354 54.0507C34.1741 54.4998 33.5165 54.8365 32.7628 55.0611C32.0091 55.2856 31.2152 55.3978 30.3813 55.3978C29.3229 55.3978 28.3045 55.2214 27.3262 54.8686C26.348 54.5158 25.506 53.9224 24.8004 53.0885L27.0857 50.8754C27.4545 51.4367 27.9357 51.8777 28.529 52.1985C29.1384 52.5032 29.7799 52.6555 30.4535 52.6555C30.8063 52.6555 31.1591 52.6074 31.5119 52.5112C31.8647 52.415 32.1855 52.2706 32.4741 52.0782C32.7628 51.8857 32.9953 51.6452 33.1717 51.3565C33.3482 51.0518 33.4364 50.707 33.4364 50.3221C33.4364 49.6967 33.2359 49.2156 32.835 48.8788C32.434 48.542 31.9369 48.2614 31.3435 48.0368C30.7502 47.7963 30.1007 47.5718 29.395 47.3633C28.6894 47.1548 28.0399 46.8742 27.4465 46.5213C26.8532 46.1525 26.356 45.6714 25.9551 45.078C25.5542 44.4686 25.3537 43.6587 25.3537 42.6484C25.3537 41.7664 25.5301 41.0046 25.8829 40.3631C26.2518 39.7216 26.7249 39.1924 27.3022 38.7755C27.8956 38.3425 28.5691 38.0217 29.3229 37.8132C30.0766 37.6048 30.8464 37.5005 31.6322 37.5005C32.5303 37.5005 33.3963 37.6368 34.2302 37.9095C35.0802 38.1821 35.8419 38.6311 36.5155 39.2566L34.3024 41.59ZM42.3903 45.0299H42.4384C42.6629 44.5488 43.0558 44.1158 43.6171 43.7309C44.1945 43.33 44.9322 43.1295 45.8302 43.1295C46.6 43.1295 47.2495 43.2578 47.7787 43.5144C48.324 43.771 48.765 44.1078 49.1018 44.5247C49.4386 44.9417 49.6791 45.4228 49.8235 45.9681C49.9678 46.5133 50.04 47.0826 50.04 47.676V54.9648H47.1533V49.1193C47.1533 48.7986 47.1372 48.4458 47.1052 48.0609C47.0731 47.66 46.9849 47.2911 46.8406 46.9543C46.7123 46.6015 46.5038 46.3129 46.2151 46.0883C45.9265 45.8478 45.5335 45.7275 45.0364 45.7275C44.5553 45.7275 44.1463 45.8077 43.8096 45.9681C43.4888 46.1284 43.2162 46.3449 42.9917 46.6176C42.7832 46.8902 42.6308 47.2029 42.5346 47.5557C42.4384 47.9085 42.3903 48.2774 42.3903 48.6623V54.9648H39.5036V36.7788H42.3903V45.0299ZM60.5334 53.3772H60.4613C60.0443 54.0347 59.5151 54.5158 58.8736 54.8205C58.2321 55.1092 57.5265 55.2535 56.7567 55.2535C56.2275 55.2535 55.7063 55.1813 55.1931 55.037C54.696 54.8927 54.2469 54.6762 53.846 54.3875C53.4611 54.0988 53.1484 53.738 52.9078 53.305C52.6673 52.872 52.547 52.3668 52.547 51.7895C52.547 51.1641 52.6592 50.6348 52.8838 50.2018C53.1083 49.7528 53.405 49.384 53.7738 49.0953C54.1587 48.7906 54.5997 48.55 55.0969 48.3736C55.594 48.1972 56.1072 48.0689 56.6364 47.9887C57.1817 47.8925 57.727 47.8364 58.2722 47.8203C58.8175 47.7883 59.3307 47.7722 59.8118 47.7722H60.5334V47.4595C60.5334 46.7378 60.2849 46.2006 59.7877 45.8478C59.2906 45.4789 58.6571 45.2945 57.8873 45.2945C57.2779 45.2945 56.7086 45.4068 56.1794 45.6313C55.6502 45.8398 55.1931 46.1284 54.8082 46.4973L53.2927 44.9818C53.9342 44.3243 54.6799 43.8512 55.5299 43.5625C56.3959 43.2738 57.2859 43.1295 58.2 43.1295C59.0179 43.1295 59.7075 43.2257 60.2688 43.4182C60.8301 43.5946 61.2952 43.8271 61.664 44.1158C62.0329 44.4045 62.3135 44.7412 62.506 45.1261C62.7145 45.495 62.8588 45.8718 62.939 46.2567C63.0352 46.6416 63.0913 47.0185 63.1074 47.3873C63.1234 47.7402 63.1314 48.0529 63.1314 48.3255V54.9648H60.5334V53.3772ZM60.365 49.7929H59.7637C59.3627 49.7929 58.9137 49.8089 58.4165 49.841C57.9194 49.8731 57.4463 49.9533 56.9973 50.0816C56.5643 50.1938 56.1954 50.3702 55.8907 50.6108C55.586 50.8353 55.4337 51.156 55.4337 51.573C55.4337 51.8456 55.4898 52.0782 55.602 52.2706C55.7303 52.447 55.8907 52.5994 56.0832 52.7277C56.2756 52.856 56.4921 52.9522 56.7327 53.0163C56.9732 53.0645 57.2138 53.0885 57.4543 53.0885C58.4486 53.0885 59.1783 52.856 59.6434 52.3909C60.1245 51.9098 60.365 51.2603 60.365 50.4424V49.7929ZM66.2372 43.4182H69.1239V45.2464H69.172C69.4928 44.5728 69.9498 44.0516 70.5432 43.6828C71.1365 43.3139 71.8181 43.1295 72.5879 43.1295C72.7643 43.1295 72.9327 43.1455 73.0931 43.1776C73.2695 43.2097 73.4459 43.2498 73.6223 43.2979V46.0883C73.3817 46.0242 73.1412 45.9761 72.9006 45.944C72.6761 45.8959 72.4516 45.8718 72.2271 45.8718C71.5535 45.8718 71.0083 46.0001 70.5913 46.2567C70.1904 46.4973 69.8776 46.7779 69.6531 47.0987C69.4446 47.4194 69.3003 47.7402 69.2201 48.0609C69.156 48.3816 69.1239 48.6222 69.1239 48.7826V54.9648H66.2372V43.4182ZM78.5217 43.4182V55.6625C78.5217 56.3841 78.4736 57.0497 78.3774 57.6591C78.2812 58.2845 78.0887 58.8218 77.8001 59.2708C77.5274 59.7359 77.1345 60.0967 76.6213 60.3533C76.1082 60.6099 75.4426 60.7382 74.6247 60.7382C74.3521 60.7382 74.0875 60.7221 73.8309 60.6901C73.5743 60.658 73.3177 60.6019 73.0611 60.5217L73.2776 58.0199C73.438 58.052 73.5903 58.076 73.7347 58.0921C73.879 58.1241 74.0314 58.1402 74.1917 58.1402C74.5445 58.1402 74.8172 58.06 75.0096 57.8996C75.2181 57.7553 75.3624 57.5628 75.4426 57.3223C75.5388 57.0817 75.595 56.8171 75.611 56.5285C75.627 56.2398 75.6351 55.9591 75.6351 55.6865V43.4182H78.5217ZM75.2261 39.4971C75.2261 39.032 75.3945 38.6311 75.7313 38.2943C76.0841 37.9415 76.5251 37.7651 77.0543 37.7651C77.5836 37.7651 78.0246 37.9335 78.3774 38.2703C78.7462 38.591 78.9307 39 78.9307 39.4971C78.9307 39.9943 78.7462 40.4112 78.3774 40.748C78.0246 41.0688 77.5836 41.2291 77.0543 41.2291C76.5251 41.2291 76.0841 41.0607 75.7313 40.724C75.3945 40.3711 75.2261 39.9622 75.2261 39.4971ZM89.0524 53.3772H88.9803C88.5633 54.0347 88.0341 54.5158 87.3926 54.8205C86.7511 55.1092 86.0455 55.2535 85.2757 55.2535C84.7465 55.2535 84.2253 55.1813 83.7121 55.037C83.2149 54.8927 82.7659 54.6762 82.365 54.3875C81.9801 54.0988 81.6674 53.738 81.4268 53.305C81.1863 52.872 81.066 52.3668 81.066 51.7895C81.066 51.1641 81.1782 50.6348 81.4028 50.2018C81.6273 49.7528 81.924 49.384 82.2928 49.0953C82.6777 48.7906 83.1187 48.55 83.6159 48.3736C84.113 48.1972 84.6262 48.0689 85.1554 47.9887C85.7007 47.8925 86.2459 47.8364 86.7912 47.8203C87.3365 47.7883 87.8496 47.7722 88.3308 47.7722H89.0524V47.4595C89.0524 46.7378 88.8038 46.2006 88.3067 45.8478C87.8096 45.4789 87.1761 45.2945 86.4063 45.2945C85.7969 45.2945 85.2276 45.4068 84.6984 45.6313C84.1691 45.8398 83.7121 46.1284 83.3272 46.4973L81.8117 44.9818C82.4532 44.3243 83.1989 43.8512 84.0489 43.5625C84.9149 43.2738 85.8049 43.1295 86.719 43.1295C87.5369 43.1295 88.2265 43.2257 88.7878 43.4182C89.3491 43.5946 89.8142 43.8271 90.183 44.1158C90.5519 44.4045 90.8325 44.7412 91.025 45.1261C91.2335 45.495 91.3778 45.8718 91.458 46.2567C91.5542 46.6416 91.6103 47.0185 91.6264 47.3873C91.6424 47.7402 91.6504 48.0529 91.6504 48.3255V54.9648H89.0524V53.3772ZM88.884 49.7929H88.2826C87.8817 49.7929 87.4327 49.8089 86.9355 49.841C86.4384 49.8731 85.9653 49.9533 85.5163 50.0816C85.0833 50.1938 84.7144 50.3702 84.4097 50.6108C84.105 50.8353 83.9526 51.156 83.9526 51.573C83.9526 51.8456 84.0088 52.0782 84.121 52.2706C84.2493 52.447 84.4097 52.5994 84.6021 52.7277C84.7946 52.856 85.0111 52.9522 85.2516 53.0163C85.4922 53.0645 85.7328 53.0885 85.9733 53.0885C86.9676 53.0885 87.6973 52.856 88.1624 52.3909C88.6435 51.9098 88.884 51.2603 88.884 50.4424V49.7929ZM97.6429 45.0299H97.691C97.9155 44.5488 98.3084 44.1158 98.8697 43.7309C99.4471 43.33 100.185 43.1295 101.083 43.1295C101.853 43.1295 102.502 43.2578 103.031 43.5144C103.577 43.771 104.018 44.1078 104.354 44.5247C104.691 44.9417 104.932 45.4228 105.076 45.9681C105.22 46.5133 105.293 47.0826 105.293 47.676V54.9648H102.406V49.1193C102.406 48.7986 102.39 48.4458 102.358 48.0609C102.326 47.66 102.238 47.2911 102.093 46.9543C101.965 46.6015 101.756 46.3129 101.468 46.0883C101.179 45.8478 100.786 45.7275 100.289 45.7275C99.8079 45.7275 99.3989 45.8077 99.0622 45.9681C98.7414 46.1284 98.4688 46.3449 98.2443 46.6176C98.0358 46.8902 97.8834 47.2029 97.7872 47.5557C97.691 47.9085 97.6429 48.2774 97.6429 48.6623V54.9648H94.7562V36.7788H97.6429V45.0299ZM114.052 37.9335H117.371L120.571 50.2018H120.619L124.444 37.9335H127.426L131.179 50.2018H131.227L134.571 37.9335H137.65L132.695 54.9648H129.808L125.863 41.9989H125.815L121.87 54.9648H119.079L114.052 37.9335ZM141.183 50.2018C141.279 51.0678 141.616 51.7414 142.193 52.2225C142.771 52.7036 143.468 52.9442 144.286 52.9442C145.008 52.9442 145.609 52.7998 146.09 52.5112C146.588 52.2065 147.021 51.8296 147.389 51.3806L149.458 52.9442C148.785 53.7781 148.031 54.3715 147.197 54.7243C146.363 55.0771 145.489 55.2535 144.575 55.2535C143.709 55.2535 142.891 55.1092 142.121 54.8205C141.351 54.5318 140.686 54.1229 140.125 53.5937C139.563 53.0645 139.114 52.431 138.778 51.6933C138.457 50.9395 138.296 50.1056 138.296 49.1915C138.296 48.2774 138.457 47.4515 138.778 46.7138C139.114 45.96 139.563 45.3186 140.125 44.7893C140.686 44.2601 141.351 43.8512 142.121 43.5625C142.891 43.2738 143.709 43.1295 144.575 43.1295C145.377 43.1295 146.106 43.2738 146.764 43.5625C147.438 43.8351 148.007 44.2361 148.472 44.7653C148.953 45.2945 149.322 45.952 149.578 46.7378C149.851 47.5076 149.987 48.3977 149.987 49.408V50.2018H141.183ZM147.101 48.0368C147.085 47.1869 146.82 46.5213 146.307 46.0402C145.794 45.5431 145.08 45.2945 144.166 45.2945C143.3 45.2945 142.61 45.5431 142.097 46.0402C141.6 46.5374 141.295 47.2029 141.183 48.0368H147.101ZM159.904 53.3772H159.831C159.414 54.0347 158.885 54.5158 158.244 54.8205C157.602 55.1092 156.897 55.2535 156.127 55.2535C155.598 55.2535 155.076 55.1813 154.563 55.037C154.066 54.8927 153.617 54.6762 153.216 54.3875C152.831 54.0988 152.518 53.738 152.278 53.305C152.037 52.872 151.917 52.3668 151.917 51.7895C151.917 51.1641 152.029 50.6348 152.254 50.2018C152.478 49.7528 152.775 49.384 153.144 49.0953C153.529 48.7906 153.97 48.55 154.467 48.3736C154.964 48.1972 155.477 48.0689 156.007 47.9887C156.552 47.8925 157.097 47.8364 157.642 47.8203C158.188 47.7883 158.701 47.7722 159.182 47.7722H159.904V47.4595C159.904 46.7378 159.655 46.2006 159.158 45.8478C158.661 45.4789 158.027 45.2945 157.257 45.2945C156.648 45.2945 156.079 45.4068 155.549 45.6313C155.02 45.8398 154.563 46.1284 154.178 46.4973L152.663 44.9818C153.304 44.3243 154.05 43.8512 154.9 43.5625C155.766 43.2738 156.656 43.1295 157.57 43.1295C158.388 43.1295 159.078 43.2257 159.639 43.4182C160.2 43.5946 160.665 43.8271 161.034 44.1158C161.403 44.4045 161.684 44.7412 161.876 45.1261C162.085 45.495 162.229 45.8718 162.309 46.2567C162.405 46.6416 162.461 47.0185 162.477 47.3873C162.494 47.7402 162.502 48.0529 162.502 48.3255V54.9648H159.904V53.3772ZM159.735 49.7929H159.134C158.733 49.7929 158.284 49.8089 157.787 49.841C157.29 49.8731 156.816 49.9533 156.367 50.0816C155.934 50.1938 155.566 50.3702 155.261 50.6108C154.956 50.8353 154.804 51.156 154.804 51.573C154.804 51.8456 154.86 52.0782 154.972 52.2706C155.1 52.447 155.261 52.5994 155.453 52.7277C155.646 52.856 155.862 52.9522 156.103 53.0163C156.343 53.0645 156.584 53.0885 156.824 53.0885C157.819 53.0885 158.548 52.856 159.013 52.3909C159.495 51.9098 159.735 51.2603 159.735 50.4424V49.7929ZM164.26 45.8718V43.4182H166.642V40.0745H169.528V43.4182H172.704V45.8718H169.528V50.9235C169.528 51.5008 169.633 51.9579 169.841 52.2947C170.066 52.6315 170.499 52.7998 171.14 52.7998C171.397 52.7998 171.677 52.7758 171.982 52.7277C172.287 52.6635 172.527 52.5673 172.704 52.439V54.8686C172.399 55.013 172.022 55.1092 171.573 55.1573C171.14 55.2214 170.755 55.2535 170.418 55.2535C169.649 55.2535 169.015 55.1653 168.518 54.9889C168.037 54.8285 167.652 54.58 167.363 54.2432C167.091 53.8904 166.898 53.4574 166.786 52.9442C166.69 52.431 166.642 51.8376 166.642 51.1641V45.8718H164.26ZM177.867 45.0299H177.915C178.14 44.5488 178.533 44.1158 179.094 43.7309C179.671 43.33 180.409 43.1295 181.307 43.1295C182.077 43.1295 182.726 43.2578 183.256 43.5144C183.801 43.771 184.242 44.1078 184.579 44.5247C184.916 44.9417 185.156 45.4228 185.3 45.9681C185.445 46.5133 185.517 47.0826 185.517 47.676V54.9648H182.63V49.1193C182.63 48.7986 182.614 48.4458 182.582 48.0609C182.55 47.66 182.462 47.2911 182.318 46.9543C182.189 46.6015 181.981 46.3129 181.692 46.0883C181.403 45.8478 181.01 45.7275 180.513 45.7275C180.032 45.7275 179.623 45.8077 179.287 45.9681C178.966 46.1284 178.693 46.3449 178.469 46.6176C178.26 46.8902 178.108 47.2029 178.012 47.5557C177.915 47.9085 177.867 48.2774 177.867 48.6623V54.9648H174.981V36.7788H177.867V45.0299ZM191.103 50.2018C191.199 51.0678 191.536 51.7414 192.113 52.2225C192.691 52.7036 193.388 52.9442 194.206 52.9442C194.928 52.9442 195.529 52.7998 196.01 52.5112C196.508 52.2065 196.941 51.8296 197.309 51.3806L199.378 52.9442C198.705 53.7781 197.951 54.3715 197.117 54.7243C196.283 55.0771 195.409 55.2535 194.495 55.2535C193.629 55.2535 192.811 55.1092 192.041 54.8205C191.271 54.5318 190.606 54.1229 190.045 53.5937C189.483 53.0645 189.034 52.431 188.697 51.6933C188.377 50.9395 188.216 50.1056 188.216 49.1915C188.216 48.2774 188.377 47.4515 188.697 46.7138C189.034 45.96 189.483 45.3186 190.045 44.7893C190.606 44.2601 191.271 43.8512 192.041 43.5625C192.811 43.2738 193.629 43.1295 194.495 43.1295C195.297 43.1295 196.026 43.2738 196.684 43.5625C197.357 43.8351 197.927 44.2361 198.392 44.7653C198.873 45.2945 199.242 45.952 199.498 46.7378C199.771 47.5076 199.907 48.3977 199.907 49.408V50.2018H191.103ZM197.021 48.0368C197.005 47.1869 196.74 46.5213 196.227 46.0402C195.714 45.5431 195 45.2945 194.086 45.2945C193.22 45.2945 192.53 45.5431 192.017 46.0402C191.52 46.5374 191.215 47.2029 191.103 48.0368H197.021ZM202.607 43.4182H205.494V45.2464H205.542C205.862 44.5728 206.319 44.0516 206.913 43.6828C207.506 43.3139 208.188 43.1295 208.958 43.1295C209.134 43.1295 209.302 43.1455 209.463 43.1776C209.639 43.2097 209.816 43.2498 209.992 43.2979V46.0883C209.751 46.0242 209.511 45.9761 209.27 45.944C209.046 45.8959 208.821 45.8718 208.597 45.8718C207.923 45.8718 207.378 46.0001 206.961 46.2567C206.56 46.4973 206.247 46.7779 206.023 47.0987C205.814 47.4194 205.67 47.7402 205.59 48.0609C205.526 48.3816 205.494 48.6222 205.494 48.7826V54.9648H202.607V43.4182Z" fill="black"/>
<path d="M30.8574 83.5162C30.8574 83.7183 30.7852 83.9011 30.6409 84.0647C30.4966 84.2186 30.3089 84.2956 30.078 84.2956C29.8471 84.2956 29.6594 84.2186 29.5151 84.0647C29.3708 83.9011 29.2986 83.7183 29.2986 83.5162C29.2986 83.3141 29.3708 83.1361 29.5151 82.9822C29.6594 82.8186 29.8471 82.7368 30.078 82.7368C30.3089 82.7368 30.4966 82.8186 30.6409 82.9822C30.7852 83.1361 30.8574 83.3141 30.8574 83.5162ZM52.9156 82.6502H52.9445V73.9902H53.9837V84.209H52.6847L46.5938 75.4624H46.5649V84.209H45.5257V73.9902H46.8247L52.9156 82.6502ZM62.2009 80.8316C62.2009 80.4563 62.1383 80.1051 62.0132 79.778C61.8978 79.4508 61.7294 79.1669 61.5081 78.9264C61.2867 78.6858 61.0173 78.4982 60.6998 78.3635C60.3919 78.2192 60.0407 78.147 59.6462 78.147C59.2516 78.147 58.8956 78.2192 58.5781 78.3635C58.2702 78.4982 58.0056 78.6858 57.7843 78.9264C57.5726 79.1669 57.4042 79.4508 57.2791 79.778C57.1636 80.1051 57.1059 80.4563 57.1059 80.8316C57.1059 81.2069 57.1636 81.5581 57.2791 81.8852C57.4042 82.2124 57.5726 82.4962 57.7843 82.7368C58.0056 82.9773 58.2702 83.1698 58.5781 83.3141C58.8956 83.4488 59.2516 83.5162 59.6462 83.5162C60.0407 83.5162 60.3919 83.4488 60.6998 83.3141C61.0173 83.1698 61.2867 82.9773 61.5081 82.7368C61.7294 82.4962 61.8978 82.2124 62.0132 81.8852C62.1383 81.5581 62.2009 81.2069 62.2009 80.8316ZM63.2401 80.8316C63.2401 81.3416 63.1486 81.8131 62.9658 82.2461C62.7926 82.6791 62.5473 83.0543 62.2297 83.3719C61.9122 83.6894 61.5321 83.9396 61.0895 84.1224C60.6565 84.2956 60.1754 84.3822 59.6462 84.3822C59.1266 84.3822 58.6454 84.2956 58.2028 84.1224C57.7698 83.9396 57.3946 83.6894 57.077 83.3719C56.7595 83.0543 56.5093 82.6791 56.3265 82.2461C56.1533 81.8131 56.0667 81.3416 56.0667 80.8316C56.0667 80.3216 56.1533 79.8501 56.3265 79.4171C56.5093 78.9841 56.7595 78.6089 57.077 78.2913C57.3946 77.9738 57.7698 77.7284 58.2028 77.5552C58.6454 77.3724 59.1266 77.281 59.6462 77.281C60.1754 77.281 60.6565 77.3724 61.0895 77.5552C61.5321 77.7284 61.9122 77.9738 62.2297 78.2913C62.5473 78.6089 62.7926 78.9841 62.9658 79.4171C63.1486 79.8501 63.2401 80.3216 63.2401 80.8316ZM73.9076 79.0419C73.7441 78.7917 73.5131 78.58 73.2148 78.4068C72.9262 78.2336 72.5942 78.147 72.2189 78.147C71.8244 78.1374 71.4684 78.1999 71.1509 78.3346C70.843 78.4693 70.5784 78.657 70.357 78.8975C70.1357 79.1381 69.9673 79.4267 69.8519 79.7635C69.7364 80.0907 69.6787 80.4467 69.6787 80.8316C69.6787 81.2165 69.7364 81.5773 69.8519 81.9141C69.9673 82.2412 70.1357 82.5251 70.357 82.7657C70.5784 83.0062 70.843 83.1938 71.1509 83.3286C71.4684 83.4633 71.8244 83.5258 72.2189 83.5162C72.5942 83.5162 72.9262 83.4296 73.2148 83.2564C73.5131 83.0832 73.7441 82.8715 73.9076 82.6213L74.687 83.2131C74.3503 83.6076 73.9702 83.9011 73.5468 84.0935C73.1234 84.2763 72.6808 84.3726 72.2189 84.3822C71.6705 84.3918 71.1749 84.31 70.7323 84.1368C70.2897 83.954 69.9096 83.7038 69.5921 83.3863C69.2842 83.0688 69.0484 82.6935 68.8848 82.2605C68.7213 81.8179 68.6395 81.3416 68.6395 80.8316C68.6395 80.3216 68.7213 79.8501 68.8848 79.4171C69.0484 78.9745 69.2842 78.5944 69.5921 78.2769C69.9096 77.9594 70.2897 77.714 70.7323 77.5408C71.1749 77.358 71.6705 77.2714 72.2189 77.281C72.6808 77.2906 73.1234 77.3916 73.5468 77.5841C73.9702 77.7669 74.3503 78.0556 74.687 78.4501L73.9076 79.0419ZM75.9488 73.2974H76.9014V78.5367H76.9303C77.0361 78.3539 77.1709 78.1855 77.3344 78.0315C77.498 77.8776 77.6808 77.7477 77.8829 77.6418C78.085 77.5264 78.2967 77.4398 78.518 77.382C78.7489 77.3147 78.975 77.281 79.1963 77.281C80.0623 77.281 80.7022 77.5119 81.116 77.9738C81.5297 78.426 81.7366 79.0755 81.7366 79.9223V84.209H80.784V80.4708C80.784 79.7202 80.6541 79.1477 80.3943 78.7532C80.1345 78.3491 79.6534 78.147 78.951 78.147C78.9029 78.147 78.7681 78.1662 78.5468 78.2047C78.3255 78.2432 78.0898 78.3491 77.8396 78.5223C77.599 78.6955 77.3825 78.9553 77.1901 79.3017C76.9977 79.6481 76.9014 80.1292 76.9014 80.745V84.209H75.9488V73.2974ZM87.8082 80.846C87.5676 80.846 87.2645 80.8605 86.8989 80.8893C86.5429 80.9086 86.1965 80.9663 85.8597 81.0625C85.5325 81.1491 85.2487 81.2886 85.0081 81.4811C84.7772 81.6735 84.6617 81.9381 84.6617 82.2749C84.6617 82.4962 84.705 82.6887 84.7916 82.8523C84.8878 83.0062 85.0129 83.1361 85.1669 83.242C85.3208 83.3382 85.4892 83.4103 85.6721 83.4585C85.8645 83.4969 86.0569 83.5162 86.2494 83.5162C86.5958 83.5162 86.8941 83.4585 87.1443 83.343C87.4041 83.2275 87.6206 83.0736 87.7938 82.8811C87.967 82.6791 88.092 82.4481 88.169 82.1883C88.2556 81.9189 88.2989 81.635 88.2989 81.3368V80.846H87.8082ZM88.2989 80.0666V79.8934C88.2989 78.7291 87.7216 78.147 86.5669 78.147C85.7779 78.147 85.0899 78.4116 84.503 78.9408L83.9256 78.2625C84.5607 77.6081 85.5133 77.281 86.7834 77.281C87.1106 77.281 87.4233 77.3291 87.7216 77.4253C88.0295 77.5215 88.2941 77.6707 88.5154 77.8728C88.7367 78.0652 88.9147 78.3106 89.0495 78.6089C89.1842 78.9071 89.2515 79.2632 89.2515 79.6769V82.6935C89.2515 82.9533 89.2611 83.2275 89.2804 83.5162C89.3093 83.7952 89.3381 84.0262 89.367 84.209H88.4433C88.4144 84.0454 88.3903 83.8674 88.3711 83.675C88.3615 83.4825 88.3567 83.2949 88.3567 83.1121H88.3278C88.0487 83.5643 87.7168 83.8915 87.3319 84.0935C86.9566 84.286 86.4948 84.3822 85.9463 84.3822C85.648 84.3822 85.3593 84.3389 85.0803 84.2523C84.8012 84.1753 84.5511 84.055 84.3298 83.8915C84.1181 83.7183 83.9449 83.5114 83.8102 83.2708C83.6851 83.0206 83.6225 82.732 83.6225 82.4048C83.6225 81.8564 83.762 81.4282 84.0411 81.1203C84.3298 80.8027 84.6858 80.567 85.1092 80.413C85.5422 80.2591 85.9992 80.1628 86.4803 80.1244C86.9711 80.0859 87.4185 80.0666 87.8226 80.0666H88.2989ZM92.3627 77.4542C92.3819 77.637 92.3916 77.8198 92.3916 78.0027C92.4012 78.1759 92.406 78.3539 92.406 78.5367H92.4349C92.5407 78.3539 92.6754 78.1855 92.839 78.0315C93.0026 77.8776 93.1854 77.7477 93.3875 77.6418C93.5895 77.5264 93.8012 77.4398 94.0225 77.382C94.2535 77.3147 94.4796 77.281 94.7009 77.281C95.5669 77.281 96.2068 77.5119 96.6205 77.9738C97.0343 78.426 97.2412 79.0755 97.2412 79.9223V84.209H96.2886V80.4708C96.2886 79.7202 96.1587 79.1477 95.8989 78.7532C95.6391 78.3491 95.1579 78.147 94.4555 78.147C94.4074 78.147 94.2727 78.1662 94.0514 78.2047C93.8301 78.2432 93.5943 78.3491 93.3442 78.5223C93.1036 78.6955 92.8871 78.9553 92.6947 79.3017C92.5022 79.6481 92.406 80.1292 92.406 80.745V84.209H91.4534V78.9408C91.4534 78.758 91.4438 78.5271 91.4245 78.248C91.4149 77.969 91.4005 77.7044 91.3812 77.4542H92.3627ZM104.395 79.0419C104.232 78.7917 104.001 78.58 103.702 78.4068C103.414 78.2336 103.082 78.147 102.707 78.147C102.312 78.1374 101.956 78.1999 101.638 78.3346C101.331 78.4693 101.066 78.657 100.845 78.8975C100.623 79.1381 100.455 79.4267 100.339 79.7635C100.224 80.0907 100.166 80.4467 100.166 80.8316C100.166 81.2165 100.224 81.5773 100.339 81.9141C100.455 82.2412 100.623 82.5251 100.845 82.7657C101.066 83.0062 101.331 83.1938 101.638 83.3286C101.956 83.4633 102.312 83.5258 102.707 83.5162C103.082 83.5162 103.414 83.4296 103.702 83.2564C104.001 83.0832 104.232 82.8715 104.395 82.6213L105.175 83.2131C104.838 83.6076 104.458 83.9011 104.034 84.0935C103.611 84.2763 103.168 84.3726 102.707 84.3822C102.158 84.3918 101.663 84.31 101.22 84.1368C100.777 83.954 100.397 83.7038 100.08 83.3863C99.7718 83.0688 99.536 82.6935 99.3724 82.2605C99.2089 81.8179 99.1271 81.3416 99.1271 80.8316C99.1271 80.3216 99.2089 79.8501 99.3724 79.4171C99.536 78.9745 99.7718 78.5944 100.08 78.2769C100.397 77.9594 100.777 77.714 101.22 77.5408C101.663 77.358 102.158 77.2714 102.707 77.281C103.168 77.2906 103.611 77.3916 104.034 77.5841C104.458 77.7669 104.838 78.0556 105.175 78.4501L104.395 79.0419ZM111.69 80.312C111.69 79.6673 111.498 79.1477 111.113 78.7532C110.728 78.3491 110.189 78.147 109.496 78.147C109.188 78.147 108.89 78.2095 108.601 78.3346C108.313 78.4501 108.058 78.6089 107.836 78.8109C107.625 79.013 107.452 79.2439 107.317 79.5037C107.192 79.7635 107.129 80.0329 107.129 80.312H111.69ZM107.1 81.0914C107.129 81.4282 107.211 81.7457 107.346 82.044C107.48 82.3423 107.658 82.6021 107.88 82.8234C108.101 83.0351 108.356 83.2035 108.645 83.3286C108.933 83.4536 109.246 83.5162 109.583 83.5162C110.093 83.5162 110.531 83.4007 110.896 83.1698C111.272 82.9292 111.555 82.655 111.748 82.3471L112.484 82.9533C112.08 83.4633 111.632 83.8289 111.142 84.0502C110.661 84.2715 110.141 84.3822 109.583 84.3822C109.083 84.3822 108.616 84.2956 108.183 84.1224C107.759 83.9396 107.394 83.6894 107.086 83.3719C106.778 83.0543 106.533 82.6791 106.35 82.2461C106.177 81.8131 106.09 81.3416 106.09 80.8316C106.09 80.3216 106.177 79.8501 106.35 79.4171C106.523 78.9841 106.764 78.6089 107.071 78.2913C107.379 77.9738 107.74 77.7284 108.154 77.5552C108.568 77.3724 109.015 77.281 109.496 77.281C110.006 77.281 110.463 77.3724 110.867 77.5552C111.272 77.738 111.608 77.9834 111.878 78.2913C112.157 78.5896 112.369 78.9456 112.513 79.3594C112.657 79.7635 112.729 80.1965 112.729 80.6584V81.0914H107.1ZM118.036 79.0563C117.892 78.7772 117.699 78.5559 117.459 78.3924C117.218 78.2288 116.925 78.147 116.578 78.147C116.415 78.147 116.246 78.1662 116.073 78.2047C115.909 78.2432 115.76 78.3058 115.626 78.3924C115.491 78.4693 115.38 78.5704 115.294 78.6955C115.217 78.8205 115.178 78.9745 115.178 79.1573C115.178 79.4749 115.289 79.7058 115.51 79.8501C115.731 79.9945 116.063 80.1195 116.506 80.2254L117.473 80.4563C117.945 80.5622 118.334 80.7787 118.642 81.1058C118.96 81.4234 119.118 81.8227 119.118 82.3038C119.118 82.6694 119.042 82.987 118.888 83.2564C118.743 83.5162 118.546 83.7327 118.296 83.9059C118.055 84.0695 117.776 84.1897 117.459 84.2667C117.141 84.3437 116.819 84.3822 116.492 84.3822C115.972 84.3822 115.486 84.286 115.034 84.0935C114.591 83.8915 114.211 83.5499 113.894 83.0688L114.716 82.5059C114.909 82.8138 115.149 83.0591 115.438 83.242C115.736 83.4248 116.087 83.5162 116.492 83.5162C116.684 83.5162 116.877 83.4969 117.069 83.4585C117.261 83.4103 117.43 83.343 117.574 83.2564C117.728 83.1602 117.848 83.0399 117.935 82.8956C118.031 82.7512 118.079 82.5828 118.079 82.3904C118.079 82.0536 117.954 81.8131 117.704 81.6687C117.454 81.5148 117.151 81.3945 116.795 81.3079L115.871 81.0914C115.756 81.0625 115.597 81.0144 115.395 80.9471C115.202 80.8797 115.01 80.7787 114.817 80.644C114.635 80.5092 114.476 80.336 114.341 80.1244C114.206 79.903 114.139 79.6336 114.139 79.3161C114.139 78.9697 114.206 78.6666 114.341 78.4068C114.485 78.147 114.673 77.9353 114.904 77.7717C115.145 77.6081 115.414 77.4879 115.712 77.4109C116.011 77.3243 116.318 77.281 116.636 77.281C117.107 77.281 117.545 77.3724 117.949 77.5552C118.354 77.738 118.666 78.0508 118.888 78.4934L118.036 79.0563ZM130.407 80.8316C130.407 80.4563 130.344 80.1051 130.219 79.778C130.104 79.4508 129.935 79.1669 129.714 78.9264C129.493 78.6858 129.223 78.4982 128.906 78.3635C128.598 78.2192 128.247 78.147 127.852 78.147C127.458 78.147 127.102 78.2192 126.784 78.3635C126.476 78.4982 126.212 78.6858 125.99 78.9264C125.779 79.1669 125.61 79.4508 125.485 79.778C125.37 80.1051 125.312 80.4563 125.312 80.8316C125.312 81.2069 125.37 81.5581 125.485 81.8852C125.61 82.2124 125.779 82.4962 125.99 82.7368C126.212 82.9773 126.476 83.1698 126.784 83.3141C127.102 83.4488 127.458 83.5162 127.852 83.5162C128.247 83.5162 128.598 83.4488 128.906 83.3141C129.223 83.1698 129.493 82.9773 129.714 82.7368C129.935 82.4962 130.104 82.2124 130.219 81.8852C130.344 81.5581 130.407 81.2069 130.407 80.8316ZM131.446 80.8316C131.446 81.3416 131.355 81.8131 131.172 82.2461C130.999 82.6791 130.753 83.0543 130.436 83.3719C130.118 83.6894 129.738 83.9396 129.295 84.1224C128.862 84.2956 128.381 84.3822 127.852 84.3822C127.333 84.3822 126.851 84.2956 126.409 84.1224C125.976 83.9396 125.601 83.6894 125.283 83.3719C124.965 83.0543 124.715 82.6791 124.532 82.2461C124.359 81.8131 124.273 81.3416 124.273 80.8316C124.273 80.3216 124.359 79.8501 124.532 79.4171C124.715 78.9841 124.965 78.6089 125.283 78.2913C125.601 77.9738 125.976 77.7284 126.409 77.5552C126.851 77.3724 127.333 77.281 127.852 77.281C128.381 77.281 128.862 77.3724 129.295 77.5552C129.738 77.7284 130.118 77.9738 130.436 78.2913C130.753 78.6089 130.999 78.9841 131.172 79.4171C131.355 79.8501 131.446 80.3216 131.446 80.8316ZM136.321 78.3202H134.719V84.209H133.767V78.3202H132.338V77.4542H133.767V75.6067C133.767 74.7119 133.973 74.0768 134.387 73.7015C134.801 73.3166 135.349 73.1242 136.033 73.1242C136.167 73.1242 136.302 73.1338 136.437 73.1531C136.581 73.1723 136.721 73.1964 136.855 73.2252L136.682 74.0912C136.567 74.0624 136.446 74.0383 136.321 74.0191C136.196 73.9998 136.071 73.9902 135.946 73.9902C135.686 73.9902 135.474 74.0335 135.311 74.1201C135.147 74.2067 135.022 74.3318 134.936 74.4954C134.849 74.6493 134.791 74.8321 134.762 75.0438C134.734 75.2555 134.719 75.4816 134.719 75.7222V77.4542H136.321V78.3202ZM141.564 79.5615C141.564 79.2632 141.554 78.9601 141.535 78.6522C141.525 78.3442 141.516 77.9449 141.506 77.4542H142.444V78.7099H142.473C142.54 78.5271 142.637 78.3539 142.762 78.1903C142.887 78.0171 143.036 77.8631 143.209 77.7284C143.392 77.5937 143.599 77.4879 143.83 77.4109C144.07 77.3243 144.34 77.281 144.638 77.281C144.907 77.281 145.143 77.3099 145.345 77.3676L145.158 78.3058C145.032 78.2576 144.85 78.2336 144.609 78.2336C144.243 78.2336 143.931 78.3058 143.671 78.4501C143.411 78.5848 143.195 78.7628 143.021 78.9841C142.848 79.1958 142.718 79.4267 142.632 79.6769C142.555 79.9271 142.516 80.1677 142.516 80.3986V84.209H141.564V79.5615ZM150.094 80.846C149.854 80.846 149.551 80.8605 149.185 80.8893C148.829 80.9086 148.482 80.9663 148.146 81.0625C147.819 81.1491 147.535 81.2886 147.294 81.4811C147.063 81.6735 146.948 81.9381 146.948 82.2749C146.948 82.4962 146.991 82.6887 147.078 82.8523C147.174 83.0062 147.299 83.1361 147.453 83.242C147.607 83.3382 147.775 83.4103 147.958 83.4585C148.151 83.4969 148.343 83.5162 148.535 83.5162C148.882 83.5162 149.18 83.4585 149.43 83.343C149.69 83.2275 149.907 83.0736 150.08 82.8811C150.253 82.6791 150.378 82.4481 150.455 82.1883C150.542 81.9189 150.585 81.635 150.585 81.3368V80.846H150.094ZM150.585 80.0666V79.8934C150.585 78.7291 150.008 78.147 148.853 78.147C148.064 78.147 147.376 78.4116 146.789 78.9408L146.212 78.2625C146.847 77.6081 147.799 77.281 149.069 77.281C149.397 77.281 149.709 77.3291 150.008 77.4253C150.316 77.5215 150.58 77.6707 150.801 77.8728C151.023 78.0652 151.201 78.3106 151.335 78.6089C151.47 78.9071 151.538 79.2632 151.538 79.6769V82.6935C151.538 82.9533 151.547 83.2275 151.566 83.5162C151.595 83.7952 151.624 84.0262 151.653 84.209H150.729C150.7 84.0454 150.676 83.8674 150.657 83.675C150.647 83.4825 150.643 83.2949 150.643 83.1121H150.614C150.335 83.5643 150.003 83.8915 149.618 84.0935C149.243 84.286 148.781 84.3822 148.232 84.3822C147.934 84.3822 147.645 84.3389 147.366 84.2523C147.087 84.1753 146.837 84.055 146.616 83.8915C146.404 83.7183 146.231 83.5114 146.096 83.2708C145.971 83.0206 145.909 82.732 145.909 82.4048C145.909 81.8564 146.048 81.4282 146.327 81.1203C146.616 80.8027 146.972 80.567 147.395 80.413C147.828 80.2591 148.285 80.1628 148.766 80.1244C149.257 80.0859 149.705 80.0666 150.109 80.0666H150.585ZM155.125 74.8562C155.125 75.0583 155.053 75.2266 154.909 75.3614C154.764 75.4864 154.605 75.549 154.432 75.549C154.259 75.549 154.1 75.4864 153.956 75.3614C153.812 75.2266 153.739 75.0583 153.739 74.8562C153.739 74.6541 153.812 74.4905 153.956 74.3655C154.1 74.2307 154.259 74.1634 154.432 74.1634C154.605 74.1634 154.764 74.2307 154.909 74.3655C155.053 74.4905 155.125 74.6541 155.125 74.8562ZM154.909 84.209H153.956V77.4542H154.909V84.209ZM158.116 77.4542C158.135 77.637 158.145 77.8198 158.145 78.0027C158.155 78.1759 158.159 78.3539 158.159 78.5367H158.188C158.294 78.3539 158.429 78.1855 158.592 78.0315C158.756 77.8776 158.939 77.7477 159.141 77.6418C159.343 77.5264 159.555 77.4398 159.776 77.382C160.007 77.3147 160.233 77.281 160.454 77.281C161.32 77.281 161.96 77.5119 162.374 77.9738C162.788 78.426 162.995 79.0755 162.995 79.9223V84.209H162.042V80.4708C162.042 79.7202 161.912 79.1477 161.652 78.7532C161.392 78.3491 160.911 78.147 160.209 78.147C160.161 78.147 160.026 78.1662 159.805 78.2047C159.583 78.2432 159.348 78.3491 159.098 78.5223C158.857 78.6955 158.641 78.9553 158.448 79.3017C158.256 79.6481 158.159 80.1292 158.159 80.745V84.209H157.207V78.9408C157.207 78.758 157.197 78.5271 157.178 78.248C157.168 77.969 157.154 77.7044 157.135 77.4542H158.116ZM168.806 79.0563C168.662 78.7772 168.47 78.5559 168.229 78.3924C167.988 78.2288 167.695 78.147 167.349 78.147C167.185 78.147 167.017 78.1662 166.843 78.2047C166.68 78.2432 166.531 78.3058 166.396 78.3924C166.261 78.4693 166.151 78.5704 166.064 78.6955C165.987 78.8205 165.949 78.9745 165.949 79.1573C165.949 79.4749 166.059 79.7058 166.281 79.8501C166.502 79.9945 166.834 80.1195 167.276 80.2254L168.243 80.4563C168.715 80.5622 169.105 80.7787 169.413 81.1058C169.73 81.4234 169.889 81.8227 169.889 82.3038C169.889 82.6694 169.812 82.987 169.658 83.2564C169.514 83.5162 169.316 83.7327 169.066 83.9059C168.826 84.0695 168.547 84.1897 168.229 84.2667C167.911 84.3437 167.589 84.3822 167.262 84.3822C166.742 84.3822 166.256 84.286 165.804 84.0935C165.362 83.8915 164.982 83.5499 164.664 83.0688L165.487 82.5059C165.679 82.8138 165.92 83.0591 166.208 83.242C166.507 83.4248 166.858 83.5162 167.262 83.5162C167.454 83.5162 167.647 83.4969 167.839 83.4585C168.032 83.4103 168.2 83.343 168.344 83.2564C168.498 83.1602 168.619 83.0399 168.705 82.8956C168.802 82.7512 168.85 82.5828 168.85 82.3904C168.85 82.0536 168.725 81.8131 168.474 81.6687C168.224 81.5148 167.921 81.3945 167.565 81.3079L166.641 81.0914C166.526 81.0625 166.367 81.0144 166.165 80.9471C165.973 80.8797 165.78 80.7787 165.588 80.644C165.405 80.5092 165.246 80.336 165.111 80.1244C164.977 79.903 164.909 79.6336 164.909 79.3161C164.909 78.9697 164.977 78.6666 165.111 78.4068C165.256 78.147 165.443 77.9353 165.674 77.7717C165.915 77.6081 166.184 77.4879 166.483 77.4109C166.781 77.3243 167.089 77.281 167.406 77.281C167.878 77.281 168.316 77.3724 168.72 77.5552C169.124 77.738 169.437 78.0508 169.658 78.4934L168.806 79.0563Z" fill="#777FA1"/>
<path d="M30.8203 86.9674C28.5792 86.9674 26.7609 85.1491 26.7609 82.908C26.7609 82.3372 27.0146 81.5972 27.3741 80.8149L33.6957 85.7834C32.9557 86.5234 31.9409 86.9674 30.8203 86.9674ZM34.7317 83.9863L37.3745 86.0794C37.6071 86.2485 37.6494 86.5657 37.4591 86.7771C37.2899 87.0097 36.9728 87.052 36.7614 86.8617L24.245 77.0515C24.0124 76.8824 23.9701 76.5652 24.1604 76.3538C24.3295 76.1212 24.6467 76.079 24.8581 76.2692L28.3889 79.0178C29.1289 77.8761 29.9112 76.8401 30.2706 76.3961C30.3975 76.2481 30.5877 76.1424 30.7992 76.1424H30.8203C31.0317 76.1424 31.222 76.2481 31.3489 76.3961C32.11 77.3687 34.8797 80.984 34.8797 82.908C34.8797 83.2886 34.8163 83.648 34.7317 83.9863ZM28.7906 83.2463C28.7906 83.0771 28.6215 82.908 28.4523 82.908C28.2621 82.908 28.1141 83.0771 28.1141 83.2463C28.1141 84.5571 29.1712 85.6143 30.482 85.6143C30.6512 85.6143 30.8203 85.4663 30.8203 85.276C30.8203 85.1068 30.6512 84.9377 30.482 84.9377C29.5306 84.9377 28.7906 84.1977 28.7906 83.2463Z" fill="#D0D4E4"/>
<path d="M543.807 47.0726H544.702C545.202 47.0726 545.683 47.0437 546.145 46.986C546.626 46.9283 547.05 46.8032 547.415 46.6107C547.8 46.4183 548.108 46.1392 548.339 45.7736C548.57 45.408 548.685 44.9172 548.685 44.3014C548.685 43.5124 548.416 42.8677 547.877 42.3673C547.338 41.867 546.636 41.6168 545.77 41.6168C545.077 41.6168 544.452 41.8189 543.893 42.223C543.355 42.6079 542.96 43.1564 542.71 43.8684L539.044 42.8869C539.275 42.1364 539.602 41.4821 540.025 40.924C540.449 40.3659 540.949 39.9137 541.526 39.5673C542.104 39.2016 542.739 38.9322 543.432 38.759C544.124 38.5858 544.846 38.4992 545.597 38.4992C546.482 38.4992 547.319 38.6147 548.108 38.8456C548.897 39.0765 549.59 39.4229 550.186 39.8848C550.783 40.3274 551.254 40.8951 551.601 41.5879C551.966 42.2615 552.149 43.0505 552.149 43.955C552.149 45.0519 551.841 46.0334 551.226 46.8994C550.61 47.7462 549.753 48.3042 548.656 48.5737V48.6314C549.965 48.8238 550.956 49.3819 551.63 50.3057C552.303 51.2294 552.64 52.3263 552.64 53.5965C552.64 54.5779 552.448 55.4439 552.063 56.1945C551.697 56.945 551.197 57.5801 550.562 58.0997C549.927 58.6 549.186 58.9849 548.339 59.2543C547.511 59.5045 546.645 59.6296 545.741 59.6296C544.894 59.6296 544.096 59.5334 543.345 59.3409C542.594 59.1677 541.911 58.8887 541.295 58.5038C540.699 58.1189 540.179 57.6282 539.737 57.0316C539.294 56.4158 538.957 55.6845 538.726 54.8377L542.421 53.8563C542.633 54.703 543.008 55.3573 543.547 55.8192C544.086 56.2811 544.817 56.512 545.741 56.512C546.203 56.512 546.636 56.435 547.04 56.2811C547.463 56.1271 547.829 55.9154 548.137 55.646C548.464 55.3573 548.714 55.0206 548.887 54.6357C549.08 54.2315 549.176 53.7889 549.176 53.3078C549.176 52.6535 549.032 52.1243 548.743 51.7201C548.474 51.2968 548.118 50.9792 547.675 50.7675C547.252 50.5366 546.77 50.3826 546.232 50.3057C545.693 50.2287 545.164 50.1902 544.644 50.1902H543.807V47.0726ZM567.096 38.8456L562.189 46.4087L562.247 46.4664C562.458 46.3509 562.738 46.2643 563.084 46.2066C563.45 46.1489 563.806 46.12 564.152 46.12C565.056 46.12 565.884 46.2932 566.635 46.6396C567.385 46.986 568.03 47.4575 568.569 48.0541C569.127 48.6506 569.55 49.3434 569.839 50.1325C570.147 50.9215 570.301 51.7586 570.301 52.6439C570.301 53.7023 570.118 54.6645 569.752 55.5305C569.386 56.3965 568.876 57.1374 568.222 57.7533C567.587 58.3498 566.817 58.8117 565.913 59.1389C565.028 59.466 564.065 59.6296 563.026 59.6296C561.948 59.6296 560.967 59.4756 560.082 59.1677C559.197 58.8406 558.427 58.3787 557.772 57.7821C557.137 57.1856 556.637 56.4543 556.271 55.5883C555.925 54.7223 555.752 53.7504 555.752 52.6727C555.752 51.595 555.925 50.6232 556.271 49.7572C556.637 48.872 557.099 47.9771 557.657 47.0726L562.882 38.8456H567.096ZM559.389 52.615C559.389 53.1346 559.485 53.6253 559.678 54.0872C559.87 54.5298 560.13 54.9243 560.457 55.2707C560.803 55.5979 561.198 55.8577 561.641 56.0501C562.102 56.2426 562.593 56.3388 563.113 56.3388C563.632 56.3388 564.113 56.2426 564.556 56.0501C565.018 55.8577 565.412 55.5979 565.74 55.2707C566.086 54.9243 566.355 54.5298 566.548 54.0872C566.74 53.6253 566.837 53.1346 566.837 52.615C566.837 52.0954 566.74 51.6143 566.548 51.1717C566.355 50.7098 566.086 50.3153 565.74 49.9881C565.412 49.6417 565.018 49.3723 564.556 49.1799C564.113 48.9874 563.632 48.8912 563.113 48.8912C562.593 48.8912 562.102 48.9874 561.641 49.1799C561.198 49.3723 560.803 49.6417 560.457 49.9881C560.13 50.3153 559.87 50.7098 559.678 51.1717C559.485 51.6143 559.389 52.0954 559.389 52.615ZM572.72 43.1179C572.72 42.4828 572.835 41.8862 573.066 41.3281C573.316 40.77 573.653 40.2793 574.076 39.8559C574.5 39.4326 574.99 39.1054 575.548 38.8745C576.107 38.6243 576.703 38.4992 577.338 38.4992C577.973 38.4992 578.57 38.6243 579.128 38.8745C579.686 39.1054 580.177 39.4326 580.6 39.8559C581.023 40.2793 581.351 40.77 581.582 41.3281C581.832 41.8862 581.957 42.4828 581.957 43.1179C581.957 43.7529 581.832 44.3495 581.582 44.9076C581.351 45.4657 581.023 45.9564 580.6 46.3798C580.177 46.8032 579.686 47.14 579.128 47.3901C578.57 47.6211 577.973 47.7365 577.338 47.7365C576.703 47.7365 576.107 47.6211 575.548 47.3901C574.99 47.14 574.5 46.8032 574.076 46.3798C573.653 45.9564 573.316 45.4657 573.066 44.9076C572.835 44.3495 572.72 43.7529 572.72 43.1179ZM574.971 43.1179C574.971 43.7722 575.202 44.3303 575.664 44.7921C576.126 45.254 576.684 45.4849 577.338 45.4849C577.992 45.4849 578.551 45.254 579.012 44.7921C579.474 44.3303 579.705 43.7722 579.705 43.1179C579.705 42.4636 579.474 41.9055 579.012 41.4436C578.551 40.9817 577.992 40.7508 577.338 40.7508C576.684 40.7508 576.126 40.9817 575.664 41.4436C575.202 41.9055 574.971 42.4636 574.971 43.1179Z" fill="black"/>
<path d="M513.539 73.498H517.522C517.907 73.498 518.287 73.5461 518.663 73.6423C519.038 73.7289 519.37 73.8781 519.658 74.0898C519.957 74.2918 520.197 74.5564 520.38 74.8836C520.563 75.2108 520.654 75.6053 520.654 76.0671C520.654 76.6445 520.491 77.1208 520.164 77.496C519.836 77.8713 519.408 78.1407 518.879 78.3043V78.3332C519.197 78.3717 519.49 78.4631 519.759 78.6074C520.038 78.7421 520.274 78.9201 520.467 79.1414C520.659 79.3531 520.808 79.6033 520.914 79.892C521.03 80.171 521.087 80.4741 521.087 80.8013C521.087 81.3594 520.977 81.826 520.755 82.2013C520.534 82.5669 520.241 82.8652 519.875 83.0962C519.519 83.3175 519.105 83.4762 518.634 83.5725C518.172 83.6687 517.7 83.7168 517.219 83.7168H513.539V73.498ZM515.357 77.6548H517.017C517.623 77.6548 518.076 77.5393 518.374 77.3084C518.682 77.0678 518.836 76.7551 518.836 76.3702C518.836 75.9276 518.677 75.6005 518.359 75.3888C518.051 75.1675 517.551 75.0568 516.858 75.0568H515.357V77.6548ZM515.357 82.158H517.032C517.262 82.158 517.508 82.1436 517.768 82.1147C518.037 82.0858 518.282 82.0185 518.504 81.9126C518.725 81.8068 518.908 81.6576 519.052 81.4652C519.197 81.2631 519.269 80.9937 519.269 80.6569C519.269 80.1181 519.091 79.7428 518.735 79.5311C518.388 79.3194 517.845 79.2136 517.104 79.2136H515.357V82.158ZM522.739 76.7888H524.471V77.8857H524.5C524.692 77.4816 524.967 77.1689 525.323 76.9476C525.679 76.7263 526.088 76.6156 526.549 76.6156C526.655 76.6156 526.756 76.6252 526.853 76.6445C526.958 76.6637 527.064 76.6878 527.17 76.7166V78.3909C527.026 78.3524 526.881 78.3235 526.737 78.3043C526.602 78.2754 526.468 78.261 526.333 78.261C525.929 78.261 525.602 78.338 525.351 78.4919C525.111 78.6363 524.923 78.8047 524.789 78.9971C524.663 79.1895 524.577 79.382 524.529 79.5744C524.49 79.7669 524.471 79.9112 524.471 80.0074V83.7168H522.739V76.7888ZM528.378 76.7888H530.11V83.7168H528.378V76.7888ZM528.132 74.4362C528.132 74.1571 528.233 73.9166 528.435 73.7145C528.647 73.5028 528.912 73.397 529.229 73.397C529.547 73.397 529.811 73.498 530.023 73.7001C530.244 73.8925 530.355 74.1379 530.355 74.4362C530.355 74.7345 530.244 74.9846 530.023 75.1867C529.811 75.3791 529.547 75.4754 529.229 75.4754C528.912 75.4754 528.647 75.3743 528.435 75.1723C528.233 74.9606 528.132 74.7152 528.132 74.4362ZM539.228 76.7888V83.0962C539.228 83.7216 539.151 84.2845 538.997 84.7849C538.843 85.2948 538.603 85.723 538.276 86.0694C537.958 86.4255 537.554 86.6997 537.063 86.8921C536.572 87.0846 535.99 87.1808 535.317 87.1808C534.672 87.1808 534.061 87.099 533.484 86.9354C532.906 86.7719 532.372 86.4736 531.882 86.0406L532.921 84.6261C533.267 84.9436 533.628 85.189 534.003 85.3622C534.379 85.5354 534.812 85.622 535.302 85.622C535.716 85.622 536.062 85.5643 536.342 85.4488C536.63 85.3333 536.856 85.1746 537.02 84.9725C537.193 84.7704 537.313 84.5251 537.381 84.2364C537.458 83.9574 537.496 83.6446 537.496 83.2982V82.7931H537.467C537.217 83.1298 536.885 83.3848 536.471 83.558C536.058 83.7216 535.634 83.8034 535.201 83.8034C534.682 83.8034 534.21 83.712 533.787 83.5292C533.363 83.3367 532.998 83.0817 532.69 82.7642C532.392 82.4467 532.161 82.0714 531.997 81.6384C531.834 81.2054 531.752 80.7435 531.752 80.2528C531.752 79.7428 531.829 79.2665 531.983 78.8239C532.137 78.3813 532.363 77.9964 532.661 77.6692C532.959 77.3421 533.315 77.0871 533.729 76.9043C534.152 76.7118 534.634 76.6156 535.172 76.6156C535.663 76.6156 536.12 76.7118 536.544 76.9043C536.967 77.0967 537.304 77.4046 537.554 77.828H537.583V76.7888H539.228ZM535.533 78.1744C535.225 78.1744 534.946 78.2273 534.696 78.3332C534.446 78.4294 534.229 78.5689 534.047 78.7517C533.873 78.9249 533.734 79.1414 533.628 79.4012C533.532 79.6514 533.484 79.9305 533.484 80.2384C533.484 80.5174 533.532 80.7772 533.628 81.0178C533.734 81.2583 533.878 81.47 534.061 81.6528C534.244 81.8357 534.46 81.98 534.711 82.0858C534.961 82.1917 535.23 82.2446 535.519 82.2446C535.836 82.2446 536.12 82.1917 536.37 82.0858C536.63 81.98 536.847 81.8405 537.02 81.6673C537.203 81.4844 537.342 81.2679 537.438 81.0178C537.535 80.7676 537.583 80.4982 537.583 80.2095C537.583 79.6033 537.4 79.1126 537.034 78.7373C536.669 78.362 536.168 78.1744 535.533 78.1744ZM542.921 77.7558H542.95C543.085 77.4672 543.321 77.2074 543.658 76.9764C544.004 76.7359 544.447 76.6156 544.985 76.6156C545.447 76.6156 545.837 76.6926 546.155 76.8465C546.482 77.0005 546.746 77.2026 546.948 77.4527C547.15 77.7029 547.295 77.9916 547.381 78.3187C547.468 78.6459 547.511 78.9875 547.511 79.3435V83.7168H545.779V80.2095C545.779 80.0171 545.77 79.8054 545.75 79.5744C545.731 79.3339 545.678 79.1126 545.592 78.9105C545.515 78.6988 545.39 78.5256 545.216 78.3909C545.043 78.2466 544.807 78.1744 544.509 78.1744C544.22 78.1744 543.975 78.2225 543.773 78.3187C543.581 78.415 543.417 78.5449 543.282 78.7084C543.157 78.872 543.066 79.0596 543.008 79.2713C542.95 79.483 542.921 79.7043 542.921 79.9353V83.7168H541.189V72.8052H542.921V77.7558ZM548.669 78.261V76.7888H550.098V74.7826H551.83V76.7888H553.735V78.261H551.83V81.292C551.83 81.6384 551.893 81.9126 552.018 82.1147C552.152 82.3168 552.412 82.4178 552.797 82.4178C552.951 82.4178 553.119 82.4034 553.302 82.3745C553.485 82.336 553.629 82.2783 553.735 82.2013V83.6591C553.552 83.7457 553.326 83.8034 553.057 83.8323C552.797 83.8708 552.566 83.89 552.364 83.89C551.902 83.89 551.522 83.8371 551.224 83.7312C550.935 83.635 550.704 83.4859 550.531 83.2838C550.367 83.0721 550.252 82.8123 550.185 82.5044C550.127 82.1965 550.098 81.8405 550.098 81.4363V78.261H548.669ZM564.525 75.6919C564.333 75.4128 564.073 75.2108 563.746 75.0857C563.428 74.951 563.091 74.8836 562.735 74.8836C562.524 74.8836 562.317 74.9077 562.115 74.9558C561.922 75.0039 561.744 75.0809 561.581 75.1867C561.427 75.2925 561.302 75.4321 561.205 75.6053C561.109 75.7688 561.061 75.9661 561.061 76.197C561.061 76.5434 561.181 76.808 561.422 76.9909C561.662 77.1737 561.961 77.3325 562.317 77.4672C562.673 77.6019 563.063 77.7318 563.486 77.8569C563.909 77.982 564.299 78.1552 564.655 78.3765C565.011 78.5978 565.309 78.8913 565.55 79.2569C565.79 79.6225 565.911 80.1085 565.911 80.7147C565.911 81.2631 565.81 81.7442 565.608 82.158C565.406 82.5621 565.131 82.8989 564.785 83.1683C564.448 83.4378 564.054 83.6398 563.601 83.7745C563.149 83.9092 562.673 83.9766 562.172 83.9766C561.537 83.9766 560.926 83.8708 560.339 83.6591C559.752 83.4474 559.247 83.0914 558.824 82.591L560.195 81.2631C560.416 81.5999 560.705 81.8645 561.061 82.057C561.427 82.2398 561.812 82.3312 562.216 82.3312C562.427 82.3312 562.639 82.3023 562.851 82.2446C563.063 82.1869 563.255 82.1003 563.428 81.9848C563.601 81.8693 563.741 81.725 563.847 81.5518C563.953 81.369 564.005 81.1621 564.005 80.9312C564.005 80.5559 563.885 80.2672 563.645 80.0652C563.404 79.8631 563.106 79.6947 562.75 79.56C562.394 79.4157 562.004 79.281 561.581 79.1559C561.157 79.0308 560.768 78.8624 560.412 78.6507C560.056 78.4294 559.757 78.1407 559.517 77.7847C559.276 77.4191 559.156 76.9331 559.156 76.3269C559.156 75.7977 559.262 75.3407 559.473 74.9558C559.695 74.5709 559.979 74.2533 560.325 74.0032C560.681 73.7434 561.085 73.5509 561.537 73.4258C561.99 73.3007 562.452 73.2382 562.923 73.2382C563.462 73.2382 563.981 73.32 564.482 73.4836C564.992 73.6471 565.449 73.9166 565.853 74.2918L564.525 75.6919ZM573.968 83.7168H572.322V82.6054H572.293C572.13 82.9518 571.88 83.2549 571.543 83.5147C571.206 83.7649 570.749 83.89 570.172 83.89C569.71 83.89 569.315 83.8178 568.988 83.6735C568.671 83.5195 568.411 83.3175 568.209 83.0673C568.007 82.8075 567.862 82.514 567.776 82.1869C567.689 81.8597 567.646 81.5181 567.646 81.1621V76.7888H569.378V80.2961C569.378 80.4885 569.387 80.705 569.407 80.9456C569.426 81.1765 569.474 81.3978 569.551 81.6095C569.638 81.8116 569.763 81.9848 569.926 82.1291C570.1 82.2638 570.34 82.3312 570.648 82.3312C570.937 82.3312 571.177 82.2831 571.37 82.1869C571.572 82.0906 571.735 81.9607 571.86 81.7972C571.995 81.6336 572.091 81.446 572.149 81.2343C572.207 81.0226 572.236 80.8013 572.236 80.5703V76.7888H573.968V83.7168ZM575.934 76.7888H577.579V77.9002H577.608C577.772 77.5538 578.022 77.2555 578.359 77.0053C578.695 76.7455 579.152 76.6156 579.73 76.6156C580.192 76.6156 580.581 76.6926 580.899 76.8465C581.226 77.0005 581.491 77.2026 581.693 77.4527C581.895 77.7029 582.039 77.9916 582.126 78.3187C582.212 78.6459 582.256 78.9875 582.256 79.3435V83.7168H580.524V80.2095C580.524 80.0171 580.514 79.8054 580.495 79.5744C580.475 79.3339 580.423 79.1126 580.336 78.9105C580.259 78.6988 580.134 78.5256 579.961 78.3909C579.787 78.2466 579.552 78.1744 579.253 78.1744C578.965 78.1744 578.719 78.2225 578.517 78.3187C578.325 78.415 578.161 78.5449 578.027 78.7084C577.901 78.872 577.81 79.0596 577.752 79.2713C577.695 79.483 577.666 79.7043 577.666 79.9353V83.7168H575.934V76.7888Z" fill="#202020"/>
<path d="M621.888 39.5571C622.639 39.5571 623.391 40.3088 623.391 41.0605V48.5779C623.391 49.4236 622.639 50.0814 621.888 50.0814C621.042 50.0814 620.384 49.4236 620.384 48.5779V41.0605C620.384 40.3088 621.042 39.5571 621.888 39.5571ZM597.832 63.6126C597.832 62.8609 598.49 62.1092 599.336 62.1092H606.853C607.605 62.1092 608.356 62.8609 608.356 63.6126C608.356 64.4583 607.605 65.1161 606.853 65.1161H599.336C598.49 65.1161 597.832 64.4583 597.832 63.6126ZM635.419 63.6126C635.419 62.8609 636.077 62.1092 636.922 62.1092H644.44C645.191 62.1092 645.943 62.8609 645.943 63.6126C645.943 64.4583 645.191 65.1161 644.44 65.1161H636.922C636.077 65.1161 635.419 64.4583 635.419 63.6126ZM621.888 77.1439C622.639 77.1439 623.391 77.8956 623.391 78.6474V86.1647C623.391 87.0104 622.639 87.6682 621.888 87.6682C621.042 87.6682 620.384 87.0104 620.384 86.1647V78.6474C620.384 77.8956 621.042 77.1439 621.888 77.1439ZM604.88 46.6046C605.443 46.0408 606.383 46.0408 606.947 46.6046L612.303 51.9607C612.867 52.5245 612.867 53.4642 612.303 54.122C611.739 54.6858 610.706 54.6858 610.142 54.122L604.88 48.7658C604.222 48.202 604.222 47.2624 604.88 46.6046ZM604.88 80.6207C604.222 80.0569 604.222 79.1172 604.88 78.5534L610.142 73.1973C610.706 72.6335 611.739 72.6335 612.303 73.1973C612.867 73.7611 612.867 74.7947 612.303 75.3585L606.947 80.6207C606.383 81.2784 605.443 81.2784 604.88 80.6207ZM631.378 54.122C630.814 53.4642 630.814 52.5245 631.378 51.9607L636.734 46.6046C637.298 46.0408 638.238 46.0408 638.896 46.6046C639.459 47.2624 639.459 48.202 638.896 48.7658L633.539 54.122C632.976 54.6858 632.036 54.6858 631.378 54.122ZM631.378 73.1973C632.036 72.6335 632.976 72.6335 633.539 73.1973L638.896 78.5534C639.459 79.1172 639.459 80.0569 638.896 80.6207C638.238 81.2784 637.298 81.2784 636.734 80.6207L631.378 75.3585C630.814 74.7947 630.814 73.7611 631.378 73.1973ZM629.405 63.6126C629.405 60.9816 627.901 58.5384 625.646 57.1289C623.297 55.8134 620.384 55.8134 618.129 57.1289C615.78 58.5384 614.37 60.9816 614.37 63.6126C614.37 66.3377 615.78 68.7808 618.129 70.1903C620.384 71.5059 623.297 71.5059 625.646 70.1903C627.901 68.7808 629.405 66.3377 629.405 63.6126ZM611.363 63.6126C611.363 59.8539 613.337 56.4711 616.625 54.5918C619.82 52.6185 623.861 52.6185 627.15 54.5918C630.345 56.4711 632.412 59.8539 632.412 63.6126C632.412 67.4653 630.345 70.8481 627.15 72.7274C623.861 74.7007 619.82 74.7007 616.625 72.7274C613.337 70.8481 611.363 67.4653 611.363 63.6126Z" fill="#FFC700"/>
</svg>
