<svg width="803" height="209" viewBox="0 0 803 209" fill="none" xmlns="http://www.w3.org/2000/svg">
<rect width="387" height="208.081" rx="24.0556" fill="white"/>
<path d="M25.385 33.7695H33.0803V35.6891H27.5067V38.8211H32.7604V40.7408H27.5067V45.6914H25.385V33.7695ZM34.4648 41.6501C34.4648 41.0102 34.5771 40.4321 34.8016 39.9157C35.0373 39.388 35.3517 38.939 35.7446 38.5686C36.1375 38.1981 36.6033 37.9118 37.1422 37.7098C37.681 37.5077 38.2536 37.4067 38.8598 37.4067C39.466 37.4067 40.0385 37.5077 40.5773 37.7098C41.1162 37.9118 41.582 38.1981 41.9749 38.5686C42.3679 38.939 42.6766 39.388 42.9011 39.9157C43.1368 40.4321 43.2547 41.0102 43.2547 41.6501C43.2547 42.29 43.1368 42.8737 42.9011 43.4013C42.6766 43.9177 42.3679 44.3611 41.9749 44.7316C41.582 45.102 41.1162 45.3883 40.5773 45.5904C40.0385 45.7924 39.466 45.8935 38.8598 45.8935C38.2536 45.8935 37.681 45.7924 37.1422 45.5904C36.6033 45.3883 36.1375 45.102 35.7446 44.7316C35.3517 44.3611 35.0373 43.9177 34.8016 43.4013C34.5771 42.8737 34.4648 42.29 34.4648 41.6501ZM36.4855 41.6501C36.4855 41.9644 36.536 42.2675 36.637 42.5594C36.7493 42.8512 36.9064 43.1094 37.1085 43.334C37.3218 43.5585 37.5744 43.7381 37.8663 43.8728C38.1581 44.0075 38.4893 44.0749 38.8598 44.0749C39.2302 44.0749 39.5614 44.0075 39.8532 43.8728C40.1451 43.7381 40.3921 43.5585 40.5942 43.334C40.8075 43.1094 40.9646 42.8512 41.0656 42.5594C41.1779 42.2675 41.234 41.9644 41.234 41.6501C41.234 41.3357 41.1779 41.0326 41.0656 40.7408C40.9646 40.4489 40.8075 40.1907 40.5942 39.9662C40.3921 39.7417 40.1451 39.5621 39.8532 39.4273C39.5614 39.2926 39.2302 39.2253 38.8598 39.2253C38.4893 39.2253 38.1581 39.2926 37.8663 39.4273C37.5744 39.5621 37.3218 39.7417 37.1085 39.9662C36.9064 40.1907 36.7493 40.4489 36.637 40.7408C36.536 41.0326 36.4855 41.3357 36.4855 41.6501ZM45.1466 37.6087H47.1672V38.8885H47.2009C47.4254 38.417 47.7454 38.0522 48.1607 37.794C48.5761 37.5358 49.0532 37.4067 49.592 37.4067C49.7155 37.4067 49.8334 37.4179 49.9457 37.4404C50.0691 37.4628 50.1926 37.4909 50.3161 37.5245V39.4779C50.1477 39.433 49.9793 39.3993 49.811 39.3768C49.6538 39.3431 49.4966 39.3263 49.3395 39.3263C48.868 39.3263 48.4863 39.4161 48.1944 39.5957C47.9138 39.7641 47.6949 39.9606 47.5377 40.1851C47.3918 40.4096 47.2907 40.6341 47.2346 40.8586C47.1897 41.0832 47.1672 41.2516 47.1672 41.3638V45.6914H45.1466V37.6087ZM51.9032 37.6087H53.8228V38.8717H53.8565C54.0361 38.49 54.3224 38.1532 54.7153 37.8613C55.1194 37.5582 55.6583 37.4067 56.3318 37.4067C57.6003 37.4067 58.4423 37.9062 58.8576 38.9053C59.1495 38.3889 59.5144 38.0129 59.9522 37.7771C60.39 37.5302 60.912 37.4067 61.5182 37.4067C62.057 37.4067 62.5117 37.4965 62.8821 37.6761C63.2526 37.8557 63.5501 38.1027 63.7746 38.417C64.0103 38.7313 64.1787 39.1018 64.2798 39.5284C64.3808 39.9437 64.4313 40.3928 64.4313 40.8755V45.6914H62.4106V41.1112C62.4106 40.8643 62.3882 40.6285 62.3433 40.404C62.2984 40.1683 62.2198 39.9662 62.1075 39.7978C61.9953 39.6182 61.8437 39.4779 61.6529 39.3768C61.4621 39.2758 61.2151 39.2253 60.912 39.2253C60.5977 39.2253 60.3282 39.287 60.1037 39.4105C59.8904 39.5228 59.7108 39.6799 59.5649 39.882C59.4302 40.0728 59.3291 40.2973 59.2618 40.5555C59.2056 40.8025 59.1776 41.0551 59.1776 41.3133V45.6914H57.1569V40.8755C57.1569 40.3703 57.0503 39.9718 56.837 39.6799C56.6237 39.3768 56.2701 39.2253 55.7761 39.2253C55.4393 39.2253 55.1531 39.2814 54.9173 39.3937C54.6928 39.5059 54.502 39.6575 54.3448 39.8483C54.1989 40.0392 54.0922 40.2581 54.0249 40.505C53.9575 40.752 53.9238 41.0102 53.9238 41.2796V45.6914H51.9032V37.6087ZM70.9499 39.8483C70.557 39.2982 70.0294 39.0232 69.3671 39.0232C69.0977 39.0232 68.8338 39.0906 68.5757 39.2253C68.3175 39.36 68.1884 39.5789 68.1884 39.882C68.1884 40.129 68.295 40.3086 68.5083 40.4208C68.7216 40.5331 68.991 40.6285 69.3166 40.7071C69.6421 40.7857 69.9901 40.8699 70.3606 40.9597C70.7423 41.0383 71.0959 41.1674 71.4214 41.347C71.747 41.5154 72.0164 41.7511 72.2297 42.0542C72.443 42.3573 72.5496 42.7727 72.5496 43.3003C72.5496 43.783 72.443 44.1927 72.2297 44.5295C72.0276 44.8551 71.7582 45.1189 71.4214 45.321C71.0959 45.523 70.7254 45.669 70.3101 45.7588C69.8947 45.8486 69.4793 45.8935 69.064 45.8935C68.4353 45.8935 67.8572 45.8037 67.3296 45.6241C66.802 45.4444 66.3305 45.1189 65.9151 44.6474L67.2622 43.3845C67.5204 43.6764 67.7955 43.9177 68.0873 44.1086C68.3904 44.2882 68.7553 44.378 69.1819 44.378C69.3278 44.378 69.4793 44.3611 69.6365 44.3275C69.7937 44.2938 69.9396 44.2376 70.0743 44.1591C70.209 44.0805 70.3157 43.9851 70.3943 43.8728C70.4841 43.7493 70.529 43.609 70.529 43.4518C70.529 43.1712 70.4223 42.9635 70.209 42.8288C69.9957 42.6941 69.7263 42.5874 69.4008 42.5089C69.0752 42.419 68.7216 42.3405 68.3399 42.2731C67.9695 42.1945 67.6214 42.0767 67.2959 41.9195C66.9703 41.7511 66.7009 41.521 66.4876 41.2291C66.2743 40.9372 66.1677 40.5331 66.1677 40.0167C66.1677 39.5677 66.2575 39.1804 66.4371 38.8548C66.628 38.518 66.8749 38.243 67.178 38.0297C67.4811 37.8164 67.8291 37.6593 68.222 37.5582C68.6149 37.4572 69.0135 37.4067 69.4176 37.4067C69.9564 37.4067 70.4897 37.5021 71.0173 37.6929C71.5449 37.8725 71.9715 38.1869 72.297 38.6359L70.9499 39.8483Z" fill="black"/>
<path d="M331.672 32.5845C331.672 27.8741 335.49 24.0557 340.201 24.0557H354.415C359.126 24.0557 362.944 27.8741 362.944 32.5845V46.7991C362.944 51.5094 359.126 55.3279 354.415 55.3279H340.201C335.49 55.3279 331.672 51.5094 331.672 46.7991V32.5845Z" fill="#045257"/>
<path d="M340.691 35.2809C340.691 33.9566 341.766 32.8821 343.09 32.8821C344.414 32.8821 345.489 33.9566 345.489 35.2809V36.0804H348.687V35.2809C348.687 33.9566 349.762 32.8821 351.086 32.8821C352.41 32.8821 353.485 33.9566 353.485 35.2809C353.485 36.6052 352.41 37.6796 351.086 37.6796H350.286V40.8779H351.086C352.41 40.8779 353.485 41.9523 353.485 43.2766C353.485 44.6009 352.41 45.6753 351.086 45.6753C349.762 45.6753 348.687 44.6009 348.687 43.2766V42.477H345.489V43.2766C345.489 44.6009 344.414 45.6753 343.09 45.6753C341.766 45.6753 340.691 44.6009 340.691 43.2766C340.691 41.9523 341.766 40.8779 343.09 40.8779H343.89V37.6796H343.09C341.766 37.6796 340.691 36.6052 340.691 35.2809ZM343.89 36.0804V35.2809C343.89 34.8561 343.515 34.4813 343.09 34.4813C342.64 34.4813 342.291 34.8561 342.291 35.2809C342.291 35.7306 342.64 36.0804 343.09 36.0804H343.89ZM345.489 40.8779H348.687V37.6796H345.489V40.8779ZM343.89 42.477H343.09C342.64 42.477 342.291 42.8518 342.291 43.2766C342.291 43.7264 342.64 44.0762 343.09 44.0762C343.515 44.0762 343.89 43.7264 343.89 43.2766V42.477ZM350.286 42.477V43.2766C350.286 43.7264 350.636 44.0762 351.086 44.0762C351.511 44.0762 351.885 43.7264 351.885 43.2766C351.885 42.8518 351.511 42.477 351.086 42.477H350.286ZM350.286 36.0804H351.086C351.511 36.0804 351.885 35.7306 351.885 35.2809C351.885 34.8561 351.511 34.4813 351.086 34.4813C350.636 34.4813 350.286 34.8561 350.286 35.2809V36.0804Z" fill="white"/>
<path d="M131.769 95.365C132.097 95.661 132.097 96.1544 131.801 96.4832L129.433 99.1143C129.302 99.2459 129.105 99.3445 128.874 99.3445C128.677 99.3774 128.447 99.2788 128.315 99.1143L127 97.7988C126.671 97.5028 126.671 97.0095 127 96.6806C127.296 96.3846 127.789 96.3846 128.085 96.6806L128.842 97.437L130.65 95.3979C130.946 95.069 131.44 95.069 131.769 95.365ZM131.769 100.627C132.097 100.923 132.097 101.417 131.801 101.745L129.433 104.376C129.302 104.508 129.105 104.607 128.874 104.607C128.677 104.64 128.447 104.541 128.315 104.376L127 103.061C126.671 102.765 126.671 102.272 127 101.976C127.296 101.647 127.789 101.647 128.085 101.976L128.842 102.699L130.65 100.66C130.946 100.364 131.44 100.331 131.769 100.627ZM134.137 97.2397C134.137 96.6806 134.597 96.1872 135.189 96.1872H142.556C143.115 96.1872 143.608 96.6806 143.608 97.2397C143.608 97.8317 143.115 98.2921 142.556 98.2921H135.189C134.597 98.2921 134.137 97.8317 134.137 97.2397ZM134.137 102.502C134.137 101.943 134.597 101.449 135.189 101.449H142.556C143.115 101.449 143.608 101.943 143.608 102.502C143.608 103.094 143.115 103.554 142.556 103.554H135.189C134.597 103.554 134.137 103.094 134.137 102.502ZM132.032 107.764C132.032 107.205 132.492 106.712 133.084 106.712H142.556C143.115 106.712 143.608 107.205 143.608 107.764C143.608 108.356 143.115 108.816 142.556 108.816H133.084C132.492 108.816 132.032 108.356 132.032 107.764ZM128.348 106.185C128.907 106.185 129.401 106.514 129.697 106.975C129.993 107.468 129.993 108.093 129.697 108.553C129.401 109.047 128.907 109.343 128.348 109.343C127.756 109.343 127.263 109.047 126.967 108.553C126.671 108.093 126.671 107.468 126.967 106.975C127.263 106.514 127.756 106.185 128.348 106.185Z" fill="#D0D4E4"/>
<path d="M154.325 98.2207H155.84L160.531 105.221H160.555V98.2207H161.71V106.736H160.243L155.504 99.7362H155.48V106.736H154.325V98.2207ZM164.499 103.886C164.499 104.174 164.543 104.443 164.632 104.692C164.72 104.932 164.844 105.141 165.004 105.317C165.165 105.485 165.361 105.622 165.594 105.726C165.826 105.822 166.087 105.87 166.376 105.87C166.664 105.87 166.925 105.822 167.157 105.726C167.39 105.622 167.586 105.485 167.747 105.317C167.907 105.141 168.031 104.932 168.12 104.692C168.208 104.443 168.252 104.174 168.252 103.886C168.252 103.597 168.208 103.332 168.12 103.092C168.031 102.843 167.907 102.635 167.747 102.466C167.586 102.29 167.39 102.154 167.157 102.058C166.925 101.953 166.664 101.901 166.376 101.901C166.087 101.901 165.826 101.953 165.594 102.058C165.361 102.154 165.165 102.29 165.004 102.466C164.844 102.635 164.72 102.843 164.632 103.092C164.543 103.332 164.499 103.597 164.499 103.886ZM163.345 103.886C163.345 103.469 163.421 103.08 163.573 102.719C163.734 102.358 163.95 102.041 164.223 101.769C164.495 101.496 164.816 101.284 165.185 101.131C165.554 100.971 165.951 100.891 166.376 100.891C166.801 100.891 167.198 100.971 167.566 101.131C167.935 101.284 168.256 101.496 168.529 101.769C168.801 102.041 169.014 102.358 169.166 102.719C169.326 103.08 169.407 103.469 169.407 103.886C169.407 104.303 169.326 104.696 169.166 105.064C169.014 105.425 168.801 105.742 168.529 106.015C168.256 106.279 167.935 106.492 167.566 106.652C167.198 106.804 166.801 106.881 166.376 106.881C165.951 106.881 165.554 106.804 165.185 106.652C164.816 106.492 164.495 106.279 164.223 106.015C163.95 105.742 163.734 105.425 163.573 105.064C163.421 104.696 163.345 104.303 163.345 103.886ZM177.057 98.2207H178.104L181.748 106.736H180.401L179.547 104.631H175.494L174.652 106.736H173.304L177.057 98.2207ZM179.126 103.621L177.538 99.7121H177.514L175.902 103.621H179.126ZM181.682 101.035H182.933L184.641 105.401L186.277 101.035H187.431L185.194 106.736H184.003L181.682 101.035ZM188.406 101.733C188.71 101.452 189.063 101.244 189.464 101.107C189.865 100.963 190.266 100.891 190.667 100.891C191.084 100.891 191.441 100.943 191.737 101.047C192.042 101.151 192.291 101.292 192.483 101.468C192.675 101.645 192.816 101.849 192.904 102.082C193 102.306 193.048 102.543 193.048 102.791V105.702C193.048 105.902 193.052 106.087 193.06 106.255C193.068 106.424 193.08 106.584 193.096 106.736H192.134C192.11 106.448 192.098 106.159 192.098 105.87H192.074C191.834 106.239 191.549 106.5 191.22 106.652C190.891 106.804 190.51 106.881 190.077 106.881C189.813 106.881 189.56 106.845 189.32 106.772C189.079 106.7 188.867 106.592 188.682 106.448C188.506 106.303 188.366 106.127 188.261 105.918C188.157 105.702 188.105 105.453 188.105 105.173C188.105 104.804 188.185 104.495 188.345 104.247C188.514 103.998 188.738 103.798 189.019 103.645C189.308 103.485 189.64 103.373 190.017 103.308C190.402 103.236 190.811 103.2 191.244 103.2H192.038V102.96C192.038 102.815 192.01 102.671 191.954 102.527C191.898 102.382 191.813 102.254 191.701 102.142C191.589 102.021 191.449 101.929 191.28 101.865C191.112 101.793 190.911 101.757 190.679 101.757C190.47 101.757 190.286 101.777 190.126 101.817C189.973 101.857 189.833 101.909 189.705 101.973C189.576 102.029 189.46 102.098 189.356 102.178C189.252 102.258 189.151 102.334 189.055 102.406L188.406 101.733ZM191.461 103.994C191.204 103.994 190.939 104.01 190.667 104.042C190.402 104.066 190.158 104.118 189.933 104.198C189.717 104.279 189.536 104.391 189.392 104.535C189.256 104.68 189.187 104.864 189.187 105.089C189.187 105.417 189.296 105.654 189.512 105.798C189.737 105.942 190.037 106.015 190.414 106.015C190.711 106.015 190.964 105.967 191.172 105.87C191.38 105.766 191.549 105.634 191.677 105.473C191.805 105.313 191.898 105.137 191.954 104.944C192.01 104.744 192.038 104.547 192.038 104.355V103.994H191.461ZM194.703 101.035H195.785V106.736H194.703V101.035ZM194.45 98.9904C194.45 98.7739 194.526 98.5895 194.679 98.4372C194.839 98.2768 195.028 98.1966 195.244 98.1966C195.461 98.1966 195.645 98.2768 195.797 98.4372C195.958 98.5895 196.038 98.7739 196.038 98.9904C196.038 99.2069 195.958 99.3954 195.797 99.5557C195.645 99.7081 195.461 99.7843 195.244 99.7843C195.028 99.7843 194.839 99.7081 194.679 99.5557C194.526 99.3954 194.45 99.2069 194.45 98.9904ZM197.592 97.6433H198.675V106.736H197.592V97.6433ZM200.422 101.733C200.726 101.452 201.079 101.244 201.48 101.107C201.881 100.963 202.282 100.891 202.683 100.891C203.1 100.891 203.457 100.943 203.753 101.047C204.058 101.151 204.307 101.292 204.499 101.468C204.692 101.645 204.832 101.849 204.92 102.082C205.016 102.306 205.064 102.543 205.064 102.791V105.702C205.064 105.902 205.068 106.087 205.076 106.255C205.084 106.424 205.096 106.584 205.112 106.736H204.15C204.126 106.448 204.114 106.159 204.114 105.87H204.09C203.85 106.239 203.565 106.5 203.236 106.652C202.907 106.804 202.527 106.881 202.094 106.881C201.829 106.881 201.576 106.845 201.336 106.772C201.095 106.7 200.883 106.592 200.698 106.448C200.522 106.303 200.382 106.127 200.277 105.918C200.173 105.702 200.121 105.453 200.121 105.173C200.121 104.804 200.201 104.495 200.362 104.247C200.53 103.998 200.754 103.798 201.035 103.645C201.324 103.485 201.656 103.373 202.033 103.308C202.418 103.236 202.827 103.2 203.26 103.2H204.054V102.96C204.054 102.815 204.026 102.671 203.97 102.527C203.914 102.382 203.83 102.254 203.717 102.142C203.605 102.021 203.465 101.929 203.296 101.865C203.128 101.793 202.927 101.757 202.695 101.757C202.486 101.757 202.302 101.777 202.142 101.817C201.989 101.857 201.849 101.909 201.721 101.973C201.592 102.029 201.476 102.098 201.372 102.178C201.268 102.258 201.167 102.334 201.071 102.406L200.422 101.733ZM203.477 103.994C203.22 103.994 202.955 104.01 202.683 104.042C202.418 104.066 202.174 104.118 201.949 104.198C201.733 104.279 201.552 104.391 201.408 104.535C201.272 104.68 201.203 104.864 201.203 105.089C201.203 105.417 201.312 105.654 201.528 105.798C201.753 105.942 202.053 106.015 202.43 106.015C202.727 106.015 202.98 105.967 203.188 105.87C203.397 105.766 203.565 105.634 203.693 105.473C203.821 105.313 203.914 105.137 203.97 104.944C204.026 104.744 204.054 104.547 204.054 104.355V103.994H203.477ZM206.635 97.6433H207.717V101.853H207.741C207.934 101.556 208.21 101.324 208.571 101.155C208.932 100.979 209.317 100.891 209.726 100.891C210.167 100.891 210.564 100.967 210.917 101.119C211.277 101.272 211.582 101.484 211.831 101.757C212.087 102.021 212.284 102.338 212.42 102.707C212.556 103.068 212.624 103.461 212.624 103.886C212.624 104.311 212.556 104.704 212.42 105.064C212.284 105.425 212.087 105.742 211.831 106.015C211.582 106.287 211.277 106.5 210.917 106.652C210.564 106.804 210.167 106.881 209.726 106.881C209.341 106.881 208.964 106.796 208.595 106.628C208.234 106.46 207.95 106.223 207.741 105.918H207.717V106.736H206.635V97.6433ZM209.593 105.87C209.882 105.87 210.143 105.822 210.375 105.726C210.608 105.622 210.804 105.485 210.965 105.317C211.125 105.141 211.249 104.932 211.338 104.692C211.426 104.443 211.47 104.174 211.47 103.886C211.47 103.597 211.426 103.332 211.338 103.092C211.249 102.843 211.125 102.635 210.965 102.466C210.804 102.29 210.608 102.154 210.375 102.058C210.143 101.953 209.882 101.901 209.593 101.901C209.305 101.901 209.044 101.953 208.812 102.058C208.579 102.154 208.383 102.29 208.222 102.466C208.062 102.635 207.938 102.843 207.849 103.092C207.761 103.332 207.717 103.597 207.717 103.886C207.717 104.174 207.761 104.443 207.849 104.692C207.938 104.932 208.062 105.141 208.222 105.317C208.383 105.485 208.579 105.622 208.812 105.726C209.044 105.822 209.305 105.87 209.593 105.87ZM214.072 97.6433H215.154V106.736H214.072V97.6433ZM217.695 104.283C217.695 104.531 217.747 104.76 217.851 104.968C217.964 105.169 218.108 105.341 218.284 105.485C218.461 105.63 218.665 105.742 218.898 105.822C219.13 105.902 219.371 105.942 219.619 105.942C219.956 105.942 220.249 105.866 220.497 105.714C220.746 105.554 220.975 105.345 221.183 105.089L222.001 105.714C221.399 106.492 220.558 106.881 219.475 106.881C219.026 106.881 218.617 106.804 218.248 106.652C217.887 106.5 217.579 106.291 217.322 106.027C217.074 105.754 216.881 105.437 216.745 105.076C216.608 104.708 216.54 104.311 216.54 103.886C216.54 103.461 216.612 103.068 216.757 102.707C216.909 102.338 217.114 102.021 217.37 101.757C217.635 101.484 217.948 101.272 218.308 101.119C218.669 100.967 219.062 100.891 219.487 100.891C219.992 100.891 220.417 100.979 220.762 101.155C221.115 101.332 221.404 101.564 221.628 101.853C221.853 102.134 222.013 102.454 222.109 102.815C222.213 103.168 222.265 103.529 222.265 103.898V104.283H217.695ZM221.111 103.417C221.103 103.176 221.063 102.956 220.991 102.755C220.926 102.555 220.826 102.382 220.69 102.238C220.554 102.086 220.381 101.969 220.173 101.889C219.972 101.801 219.736 101.757 219.463 101.757C219.198 101.757 218.954 101.809 218.729 101.913C218.513 102.009 218.328 102.138 218.176 102.298C218.024 102.458 217.903 102.639 217.815 102.839C217.735 103.032 217.695 103.224 217.695 103.417H221.111ZM227.185 98.2207H232.537V99.3032H228.339V101.973H232.248V103.056H228.339V106.736H227.185V98.2207ZM234.693 103.886C234.693 104.174 234.737 104.443 234.825 104.692C234.913 104.932 235.037 105.141 235.198 105.317C235.358 105.485 235.555 105.622 235.787 105.726C236.02 105.822 236.28 105.87 236.569 105.87C236.858 105.87 237.118 105.822 237.351 105.726C237.583 105.622 237.78 105.485 237.94 105.317C238.101 105.141 238.225 104.932 238.313 104.692C238.401 104.443 238.445 104.174 238.445 103.886C238.445 103.597 238.401 103.332 238.313 103.092C238.225 102.843 238.101 102.635 237.94 102.466C237.78 102.29 237.583 102.154 237.351 102.058C237.118 101.953 236.858 101.901 236.569 101.901C236.28 101.901 236.02 101.953 235.787 102.058C235.555 102.154 235.358 102.29 235.198 102.466C235.037 102.635 234.913 102.843 234.825 103.092C234.737 103.332 234.693 103.597 234.693 103.886ZM233.538 103.886C233.538 103.469 233.614 103.08 233.766 102.719C233.927 102.358 234.143 102.041 234.416 101.769C234.689 101.496 235.009 101.284 235.378 101.131C235.747 100.971 236.144 100.891 236.569 100.891C236.994 100.891 237.391 100.971 237.76 101.131C238.129 101.284 238.449 101.496 238.722 101.769C238.995 102.041 239.207 102.358 239.359 102.719C239.52 103.08 239.6 103.469 239.6 103.886C239.6 104.303 239.52 104.696 239.359 105.064C239.207 105.425 238.995 105.742 238.722 106.015C238.449 106.279 238.129 106.492 237.76 106.652C237.391 106.804 236.994 106.881 236.569 106.881C236.144 106.881 235.747 106.804 235.378 106.652C235.009 106.492 234.689 106.279 234.416 106.015C234.143 105.742 233.927 105.425 233.766 105.064C233.614 104.696 233.538 104.303 233.538 103.886ZM240.956 101.035H242.039V101.913H242.063C242.135 101.761 242.231 101.625 242.351 101.504C242.472 101.376 242.604 101.268 242.748 101.179C242.901 101.091 243.065 101.023 243.241 100.975C243.418 100.919 243.594 100.891 243.771 100.891C243.947 100.891 244.107 100.915 244.252 100.963L244.204 102.13C244.115 102.106 244.027 102.086 243.939 102.07C243.851 102.054 243.763 102.045 243.674 102.045C243.145 102.045 242.74 102.194 242.46 102.491C242.179 102.787 242.039 103.248 242.039 103.874V106.736H240.956V101.035ZM245.408 101.035H246.418V101.925H246.442C246.466 101.845 246.526 101.745 246.623 101.625C246.727 101.504 246.855 101.392 247.007 101.288C247.168 101.175 247.352 101.083 247.561 101.011C247.777 100.931 248.014 100.891 248.27 100.891C248.695 100.891 249.052 100.979 249.341 101.155C249.63 101.332 249.866 101.596 250.051 101.949C250.235 101.596 250.496 101.332 250.832 101.155C251.169 100.979 251.51 100.891 251.855 100.891C252.296 100.891 252.657 100.963 252.937 101.107C253.218 101.252 253.438 101.444 253.599 101.685C253.759 101.917 253.867 102.186 253.923 102.491C253.988 102.787 254.02 103.096 254.02 103.417V106.736H252.937V103.561C252.937 103.344 252.921 103.136 252.889 102.936C252.865 102.735 252.809 102.559 252.721 102.406C252.632 102.254 252.508 102.134 252.348 102.045C252.187 101.949 251.975 101.901 251.71 101.901C251.189 101.901 250.816 102.062 250.592 102.382C250.367 102.703 250.255 103.116 250.255 103.621V106.736H249.172V103.753C249.172 103.481 249.156 103.232 249.124 103.008C249.1 102.783 249.044 102.591 248.956 102.43C248.876 102.262 248.756 102.134 248.595 102.045C248.443 101.949 248.234 101.901 247.97 101.901C247.777 101.901 247.589 101.941 247.404 102.021C247.228 102.094 247.072 102.206 246.935 102.358C246.799 102.511 246.691 102.707 246.611 102.948C246.53 103.18 246.49 103.457 246.49 103.777V106.736H245.408V101.035ZM258.681 102.466C258.553 102.306 258.393 102.174 258.2 102.07C258.016 101.957 257.787 101.901 257.514 101.901C257.258 101.901 257.033 101.957 256.841 102.07C256.657 102.174 256.564 102.33 256.564 102.539C256.564 102.707 256.616 102.843 256.721 102.948C256.833 103.052 256.961 103.136 257.106 103.2C257.258 103.264 257.418 103.312 257.587 103.344C257.755 103.377 257.899 103.405 258.02 103.429C258.252 103.485 258.469 103.553 258.669 103.633C258.878 103.713 259.054 103.818 259.198 103.946C259.351 104.074 259.467 104.231 259.547 104.415C259.635 104.599 259.679 104.824 259.679 105.089C259.679 105.409 259.611 105.686 259.475 105.918C259.339 106.143 259.162 106.327 258.946 106.472C258.729 106.616 258.481 106.72 258.2 106.784C257.927 106.849 257.651 106.881 257.37 106.881C256.897 106.881 256.48 106.808 256.119 106.664C255.766 106.52 255.45 106.255 255.169 105.87L255.987 105.197C256.163 105.373 256.36 105.53 256.576 105.666C256.793 105.802 257.057 105.87 257.37 105.87C257.506 105.87 257.643 105.858 257.779 105.834C257.923 105.802 258.048 105.758 258.152 105.702C258.264 105.638 258.352 105.562 258.417 105.473C258.489 105.377 258.525 105.269 258.525 105.149C258.525 104.988 258.473 104.856 258.368 104.752C258.272 104.648 258.152 104.567 258.008 104.511C257.871 104.447 257.723 104.399 257.563 104.367C257.41 104.327 257.274 104.295 257.154 104.271C256.921 104.215 256.701 104.15 256.492 104.078C256.284 104.006 256.099 103.91 255.939 103.79C255.778 103.669 255.65 103.517 255.554 103.332C255.458 103.148 255.41 102.92 255.41 102.647C255.41 102.35 255.47 102.094 255.59 101.877C255.718 101.653 255.883 101.468 256.083 101.324C256.292 101.179 256.524 101.071 256.781 100.999C257.045 100.927 257.31 100.891 257.575 100.891C257.96 100.891 258.328 100.963 258.681 101.107C259.034 101.252 259.315 101.492 259.523 101.829L258.681 102.466Z" fill="#D0D4E4"/>
<rect x="24.0547" y="152.752" width="32.475" height="31.2722" rx="15.6361" fill="#D0D4E4" fill-opacity="0.2"/>
<path d="M41.1931 164V168.059H45.2525C45.7317 168.059 46.1546 168.482 46.1546 168.962C46.1546 169.469 45.7317 169.864 45.2525 169.864H41.1931V173.923C41.1931 174.43 40.7703 174.825 40.2911 174.825C39.7836 174.825 39.389 174.43 39.389 173.923V169.864H35.3296C34.8222 169.864 34.4275 169.469 34.4275 168.962C34.4275 168.482 34.8222 168.059 35.3296 168.059H39.389V164C39.389 163.521 39.7836 163.098 40.2911 163.098C40.7703 163.098 41.1931 163.521 41.1931 164Z" fill="#777FA1"/>
<rect x="416" y="0.0400391" width="387" height="208" rx="24.0556" fill="white"/>
<path d="M441.385 33.8095H445.527C446.1 33.8095 446.65 33.8656 447.178 33.9779C447.716 34.0789 448.193 34.2585 448.609 34.5167C449.024 34.7749 449.355 35.1229 449.602 35.5608C449.849 35.9986 449.973 36.5543 449.973 37.2278C449.973 38.0922 449.731 38.8163 449.249 39.4C448.777 39.9838 448.098 40.3374 447.211 40.4609L450.377 45.7314H447.817L445.056 40.6798H443.507V45.7314H441.385V33.8095ZM445.157 38.8612C445.46 38.8612 445.763 38.85 446.066 38.8275C446.369 38.7938 446.644 38.7265 446.891 38.6254C447.149 38.5132 447.357 38.3504 447.514 38.1371C447.671 37.9126 447.75 37.6039 447.75 37.211C447.75 36.863 447.677 36.5823 447.531 36.369C447.385 36.1557 447.194 35.9986 446.959 35.8975C446.723 35.7853 446.459 35.7123 446.167 35.6786C445.887 35.645 445.612 35.6281 445.342 35.6281H443.507V38.8612H445.157ZM451.402 41.6901C451.402 41.0502 451.514 40.4721 451.739 39.9557C451.975 39.4281 452.289 38.9791 452.682 38.6086C453.075 38.2381 453.541 37.9519 454.08 37.7498C454.618 37.5477 455.191 37.4467 455.797 37.4467C456.403 37.4467 456.976 37.5477 457.515 37.7498C458.053 37.9519 458.519 38.2381 458.912 38.6086C459.305 38.9791 459.614 39.4281 459.838 39.9557C460.074 40.4721 460.192 41.0502 460.192 41.6901C460.192 42.33 460.074 42.9137 459.838 43.4414C459.614 43.9577 459.305 44.4012 458.912 44.7716C458.519 45.1421 458.053 45.4283 457.515 45.6304C456.976 45.8325 456.403 45.9335 455.797 45.9335C455.191 45.9335 454.618 45.8325 454.08 45.6304C453.541 45.4283 453.075 45.1421 452.682 44.7716C452.289 44.4012 451.975 43.9577 451.739 43.4414C451.514 42.9137 451.402 42.33 451.402 41.6901ZM453.423 41.6901C453.423 42.0044 453.473 42.3075 453.574 42.5994C453.687 42.8913 453.844 43.1495 454.046 43.374C454.259 43.5985 454.512 43.7781 454.804 43.9128C455.095 44.0476 455.427 44.1149 455.797 44.1149C456.168 44.1149 456.499 44.0476 456.791 43.9128C457.082 43.7781 457.329 43.5985 457.531 43.374C457.745 43.1495 457.902 42.8913 458.003 42.5994C458.115 42.3075 458.171 42.0044 458.171 41.6901C458.171 41.3758 458.115 41.0727 458.003 40.7808C457.902 40.4889 457.745 40.2307 457.531 40.0062C457.329 39.7817 457.082 39.6021 456.791 39.4674C456.499 39.3327 456.168 39.2653 455.797 39.2653C455.427 39.2653 455.095 39.3327 454.804 39.4674C454.512 39.6021 454.259 39.7817 454.046 40.0062C453.844 40.2307 453.687 40.4889 453.574 40.7808C453.473 41.0727 453.423 41.3758 453.423 41.6901ZM461.68 41.6901C461.68 41.0502 461.792 40.4721 462.017 39.9557C462.252 39.4281 462.567 38.9791 462.96 38.6086C463.352 38.2381 463.818 37.9519 464.357 37.7498C464.896 37.5477 465.469 37.4467 466.075 37.4467C466.681 37.4467 467.253 37.5477 467.792 37.7498C468.331 37.9519 468.797 38.2381 469.19 38.6086C469.583 38.9791 469.892 39.4281 470.116 39.9557C470.352 40.4721 470.47 41.0502 470.47 41.6901C470.47 42.33 470.352 42.9137 470.116 43.4414C469.892 43.9577 469.583 44.4012 469.19 44.7716C468.797 45.1421 468.331 45.4283 467.792 45.6304C467.253 45.8325 466.681 45.9335 466.075 45.9335C465.469 45.9335 464.896 45.8325 464.357 45.6304C463.818 45.4283 463.352 45.1421 462.96 44.7716C462.567 44.4012 462.252 43.9577 462.017 43.4414C461.792 42.9137 461.68 42.33 461.68 41.6901ZM463.7 41.6901C463.7 42.0044 463.751 42.3075 463.852 42.5994C463.964 42.8913 464.121 43.1495 464.323 43.374C464.537 43.5985 464.789 43.7781 465.081 43.9128C465.373 44.0476 465.704 44.1149 466.075 44.1149C466.445 44.1149 466.776 44.0476 467.068 43.9128C467.36 43.7781 467.607 43.5985 467.809 43.374C468.022 43.1495 468.18 42.8913 468.281 42.5994C468.393 42.3075 468.449 42.0044 468.449 41.6901C468.449 41.3758 468.393 41.0727 468.281 40.7808C468.18 40.4889 468.022 40.2307 467.809 40.0062C467.607 39.7817 467.36 39.6021 467.068 39.4674C466.776 39.3327 466.445 39.2653 466.075 39.2653C465.704 39.2653 465.373 39.3327 465.081 39.4674C464.789 39.6021 464.537 39.7817 464.323 40.0062C464.121 40.2307 463.964 40.4889 463.852 40.7808C463.751 41.0727 463.7 41.3758 463.7 41.6901ZM472.277 37.6488H474.197V38.9117H474.231C474.41 38.53 474.697 38.1932 475.089 37.9014C475.494 37.5983 476.032 37.4467 476.706 37.4467C477.975 37.4467 478.816 37.9463 479.232 38.9454C479.524 38.429 479.889 38.0529 480.326 37.8172C480.764 37.5702 481.286 37.4467 481.892 37.4467C482.431 37.4467 482.886 37.5365 483.256 37.7161C483.627 37.8957 483.924 38.1427 484.149 38.457C484.385 38.7714 484.553 39.1418 484.654 39.5684C484.755 39.9838 484.805 40.4328 484.805 40.9155V45.7314H482.785V41.1513C482.785 40.9043 482.762 40.6686 482.717 40.444C482.673 40.2083 482.594 40.0062 482.482 39.8378C482.369 39.6582 482.218 39.5179 482.027 39.4169C481.836 39.3158 481.589 39.2653 481.286 39.2653C480.972 39.2653 480.702 39.3271 480.478 39.4505C480.265 39.5628 480.085 39.72 479.939 39.922C479.804 40.1129 479.703 40.3374 479.636 40.5956C479.58 40.8426 479.552 41.0951 479.552 41.3533V45.7314H477.531V40.9155C477.531 40.4104 477.424 40.0118 477.211 39.72C476.998 39.4169 476.644 39.2653 476.15 39.2653C475.814 39.2653 475.527 39.3214 475.292 39.4337C475.067 39.546 474.876 39.6975 474.719 39.8884C474.573 40.0792 474.466 40.2981 474.399 40.5451C474.332 40.792 474.298 41.0502 474.298 41.3197V45.7314H472.277V37.6488ZM491.324 39.8884C490.931 39.3383 490.404 39.0632 489.741 39.0632C489.472 39.0632 489.208 39.1306 488.95 39.2653C488.692 39.4 488.563 39.6189 488.563 39.922C488.563 40.169 488.669 40.3486 488.882 40.4609C489.096 40.5731 489.365 40.6686 489.691 40.7471C490.016 40.8257 490.364 40.9099 490.735 40.9997C491.116 41.0783 491.47 41.2074 491.796 41.387C492.121 41.5554 492.391 41.7911 492.604 42.0942C492.817 42.3973 492.924 42.8127 492.924 43.3403C492.924 43.823 492.817 44.2328 492.604 44.5696C492.402 44.8951 492.132 45.1589 491.796 45.361C491.47 45.5631 491.1 45.709 490.684 45.7988C490.269 45.8886 489.854 45.9335 489.438 45.9335C488.809 45.9335 488.231 45.8437 487.704 45.6641C487.176 45.4845 486.705 45.1589 486.289 44.6874L487.636 43.4245C487.895 43.7164 488.17 43.9577 488.461 44.1486C488.765 44.3282 489.129 44.418 489.556 44.418C489.702 44.418 489.854 44.4012 490.011 44.3675C490.168 44.3338 490.314 44.2777 490.448 44.1991C490.583 44.1205 490.69 44.0251 490.768 43.9128C490.858 43.7894 490.903 43.649 490.903 43.4919C490.903 43.2112 490.796 43.0035 490.583 42.8688C490.37 42.7341 490.1 42.6275 489.775 42.5489C489.449 42.4591 489.096 42.3805 488.714 42.3132C488.344 42.2346 487.996 42.1167 487.67 41.9595C487.345 41.7911 487.075 41.561 486.862 41.2691C486.649 40.9773 486.542 40.5731 486.542 40.0567C486.542 39.6077 486.632 39.2204 486.811 38.8949C487.002 38.5581 487.249 38.283 487.552 38.0698C487.855 37.8565 488.203 37.6993 488.596 37.5983C488.989 37.4972 489.388 37.4467 489.792 37.4467C490.331 37.4467 490.864 37.5421 491.391 37.733C491.919 37.9126 492.346 38.2269 492.671 38.676L491.324 39.8884Z" fill="black"/>
<path d="M747.672 32.6245C747.672 27.9142 751.49 24.0957 756.201 24.0957H770.415C775.126 24.0957 778.944 27.9142 778.944 32.6245V46.8391C778.944 51.5495 775.126 55.3679 770.415 55.3679H756.201C751.49 55.3679 747.672 51.5495 747.672 46.8391V32.6245Z" fill="#353535"/>
<path d="M757.367 36.8471C757.367 35.6843 757.988 34.599 759.021 34.0046C760.029 33.4103 761.295 33.4103 762.329 34.0046C763.337 34.599 763.983 35.6843 763.983 36.8471C763.983 38.0358 763.337 39.1211 762.329 39.7155C761.295 40.3098 760.029 40.3098 759.021 39.7155C757.988 39.1211 757.367 38.0358 757.367 36.8471ZM754.887 46.0206C754.887 43.4624 756.928 41.3951 759.486 41.3951H761.838C764.396 41.3951 766.463 43.4624 766.463 46.0206C766.463 46.4341 766.102 46.77 765.688 46.77H755.636C755.223 46.77 754.887 46.4341 754.887 46.0206ZM770.624 46.77H767.058C767.187 46.5375 767.29 46.2532 767.29 45.9431V45.7364C767.29 44.1859 766.567 42.7647 765.481 41.8344C765.533 41.8344 765.585 41.8086 765.662 41.8086H767.239C769.539 41.8086 771.425 43.695 771.425 45.9948C771.425 46.4341 771.063 46.77 770.624 46.77ZM766.05 40.1548C765.249 40.1548 764.525 39.8447 763.983 39.3278C764.5 38.6301 764.81 37.7774 764.81 36.8471C764.81 36.1752 764.629 35.5034 764.319 34.9349C764.81 34.599 765.404 34.3664 766.05 34.3664C767.626 34.3664 768.944 35.6843 768.944 37.2606C768.944 38.8627 767.626 40.1548 766.05 40.1548Z" fill="white"/>
<rect x="440.055" y="69.8008" width="338.889" height="64.8944" rx="4.81111" fill="#D0D4E4" fill-opacity="0.2"/>
<path d="M455.288 81.6341H456.087H462.484H463.284C463.708 81.6341 464.083 82.0089 464.083 82.4337C464.083 82.8834 463.708 83.2332 463.284 83.2332V83.5081C463.284 84.5825 462.859 85.607 462.109 86.3566L460.41 88.0307L461.31 88.9302C461.035 89.5049 460.885 90.1546 460.885 90.8292C460.885 92.3284 461.609 93.6527 462.734 94.4273H462.484H456.087H455.288C454.838 94.4273 454.488 94.0775 454.488 93.6277C454.488 93.2029 454.838 92.8281 455.288 92.8281V92.5533C455.288 91.5038 455.688 90.4794 456.437 89.7298L458.136 88.0307L456.437 86.3566C455.688 85.607 455.288 84.5825 455.288 83.5081V83.2332C454.838 83.2332 454.488 82.8834 454.488 82.4337C454.488 82.0089 454.838 81.6341 455.288 81.6341ZM456.887 83.5081C456.887 83.9828 457.012 84.4576 457.287 84.8324H461.285C461.535 84.4576 461.684 83.9828 461.684 83.5081V83.2332H456.887V83.5081ZM468.881 90.8292C468.881 92.1285 468.181 93.3029 467.082 93.9525C465.957 94.6022 464.583 94.6022 463.483 93.9525C462.359 93.3029 461.684 92.1285 461.684 90.8292C461.684 89.5549 462.359 88.3805 463.483 87.7308C464.583 87.0812 465.957 87.0812 467.082 87.7308C468.181 88.3805 468.881 89.5549 468.881 90.8292ZM465.283 88.8303C465.058 88.8303 464.883 89.0301 464.883 89.23V90.8292C464.883 91.0541 465.058 91.229 465.283 91.229H466.482C466.682 91.229 466.882 91.0541 466.882 90.8292C466.882 90.6293 466.682 90.4294 466.482 90.4294H465.682V89.23C465.682 89.0301 465.482 88.8303 465.283 88.8303Z" fill="#D0D4E4"/>
<path d="M480.968 91.8281H479.929V81.6093H480.968V91.8281ZM484.297 85.0733C484.316 85.2561 484.326 85.439 484.326 85.6218C484.336 85.795 484.34 85.973 484.34 86.1558H484.369C484.475 85.973 484.61 85.8046 484.773 85.6507C484.937 85.4967 485.12 85.3668 485.322 85.261C485.524 85.1455 485.736 85.0589 485.957 85.0012C486.188 84.9338 486.414 84.9001 486.635 84.9001C487.501 84.9001 488.141 85.1311 488.555 85.5929C488.969 86.0452 489.176 86.6947 489.176 87.5414V91.8281H488.223V88.0899C488.223 87.3394 488.093 86.7668 487.833 86.3723C487.573 85.9682 487.092 85.7661 486.39 85.7661C486.342 85.7661 486.207 85.7854 485.986 85.8239C485.765 85.8623 485.529 85.9682 485.279 86.1414C485.038 86.3146 484.822 86.5744 484.629 86.9208C484.437 87.2672 484.34 87.7483 484.34 88.3641V91.8281H483.388V86.56C483.388 86.3771 483.378 86.1462 483.359 85.8672C483.349 85.5881 483.335 85.3235 483.316 85.0733H484.297ZM494.987 86.6754C494.843 86.3964 494.651 86.1751 494.41 86.0115C494.169 85.8479 493.876 85.7661 493.53 85.7661C493.366 85.7661 493.198 85.7854 493.024 85.8239C492.861 85.8623 492.712 85.9249 492.577 86.0115C492.442 86.0885 492.332 86.1895 492.245 86.3146C492.168 86.4397 492.13 86.5936 492.13 86.7765C492.13 87.094 492.24 87.3249 492.462 87.4693C492.683 87.6136 493.015 87.7387 493.457 87.8445L494.424 88.0755C494.896 88.1813 495.286 88.3978 495.594 88.725C495.911 89.0425 496.07 89.4418 496.07 89.9229C496.07 90.2886 495.993 90.6061 495.839 90.8755C495.695 91.1353 495.497 91.3518 495.247 91.525C495.007 91.6886 494.728 91.8089 494.41 91.8859C494.093 91.9628 493.77 92.0013 493.443 92.0013C492.923 92.0013 492.437 91.9051 491.985 91.7127C491.543 91.5106 491.163 91.169 490.845 90.6879L491.668 90.125C491.86 90.4329 492.101 90.6783 492.389 90.8611C492.688 91.0439 493.039 91.1353 493.443 91.1353C493.635 91.1353 493.828 91.1161 494.02 91.0776C494.213 91.0295 494.381 90.9621 494.526 90.8755C494.679 90.7793 494.8 90.659 494.886 90.5147C494.983 90.3704 495.031 90.202 495.031 90.0095C495.031 89.6727 494.906 89.4322 494.655 89.2879C494.405 89.1339 494.102 89.0136 493.746 88.927L492.822 88.7105C492.707 88.6817 492.548 88.6335 492.346 88.5662C492.154 88.4988 491.961 88.3978 491.769 88.2631C491.586 88.1284 491.427 87.9552 491.292 87.7435C491.158 87.5222 491.09 87.2528 491.09 86.9352C491.09 86.5888 491.158 86.2857 491.292 86.0259C491.437 85.7661 491.624 85.5544 491.855 85.3909C492.096 85.2273 492.365 85.107 492.664 85.03C492.962 84.9434 493.27 84.9001 493.587 84.9001C494.059 84.9001 494.497 84.9915 494.901 85.1744C495.305 85.3572 495.618 85.6699 495.839 86.1125L494.987 86.6754ZM503.716 88.4507C503.716 88.0755 503.654 87.7242 503.529 87.3971C503.413 87.0699 503.245 86.7861 503.024 86.5455C502.802 86.305 502.533 86.1173 502.215 85.9826C501.907 85.8383 501.556 85.7661 501.162 85.7661C500.767 85.7661 500.406 85.8383 500.079 85.9826C499.752 86.1173 499.468 86.305 499.228 86.5455C498.987 86.7861 498.799 87.0699 498.665 87.3971C498.53 87.7242 498.463 88.0755 498.463 88.4507C498.463 88.826 498.53 89.1772 498.665 89.5044C498.799 89.8315 498.987 90.1154 499.228 90.3559C499.468 90.5965 499.752 90.7889 500.079 90.9333C500.406 91.068 500.767 91.1353 501.162 91.1353C501.556 91.1353 501.907 91.068 502.215 90.9333C502.533 90.7889 502.802 90.5965 503.024 90.3559C503.245 90.1154 503.413 89.8315 503.529 89.5044C503.654 89.1772 503.716 88.826 503.716 88.4507ZM497.553 85.0733H498.506V86.1991H498.535C498.689 85.9682 498.872 85.7709 499.083 85.6074C499.295 85.4438 499.516 85.3091 499.747 85.2032C499.978 85.0974 500.214 85.0204 500.454 84.9723C500.705 84.9242 500.94 84.9001 501.162 84.9001C501.691 84.9001 502.172 84.9915 502.605 85.1744C503.048 85.3476 503.428 85.5929 503.745 85.9105C504.063 86.228 504.308 86.6033 504.481 87.0363C504.664 87.4693 504.756 87.9407 504.756 88.4507C504.756 88.9607 504.664 89.4322 504.481 89.8652C504.308 90.2982 504.063 90.6735 503.745 90.991C503.428 91.3085 503.048 91.5587 502.605 91.7415C502.172 91.9147 501.691 92.0013 501.162 92.0013C500.94 92.0013 500.705 91.9773 500.454 91.9292C500.214 91.881 499.978 91.8041 499.747 91.6982C499.516 91.5924 499.295 91.4577 499.083 91.2941C498.872 91.1305 498.689 90.9333 498.535 90.7023H498.506V95.9849H497.553V85.0733ZM507.762 82.4753C507.762 82.6774 507.69 82.8458 507.546 82.9805C507.402 83.1056 507.243 83.1681 507.07 83.1681C506.896 83.1681 506.738 83.1056 506.593 82.9805C506.449 82.8458 506.377 82.6774 506.377 82.4753C506.377 82.2733 506.449 82.1097 506.593 81.9846C506.738 81.8499 506.896 81.7825 507.07 81.7825C507.243 81.7825 507.402 81.8499 507.546 81.9846C507.69 82.1097 507.762 82.2733 507.762 82.4753ZM507.546 91.8281H506.593V85.0733H507.546V91.8281ZM509.945 87.1806C509.945 86.8823 509.936 86.5792 509.916 86.2713C509.907 85.9634 509.897 85.5641 509.888 85.0733H510.826V86.329H510.855C510.922 86.1462 511.018 85.973 511.143 85.8094C511.268 85.6362 511.417 85.4823 511.591 85.3476C511.773 85.2128 511.98 85.107 512.211 85.03C512.452 84.9434 512.721 84.9001 513.02 84.9001C513.289 84.9001 513.525 84.929 513.727 84.9867L513.539 85.9249C513.414 85.8768 513.231 85.8527 512.991 85.8527C512.625 85.8527 512.312 85.9249 512.053 86.0692C511.793 86.2039 511.576 86.3819 511.403 86.6033C511.23 86.8149 511.1 87.0459 511.013 87.2961C510.936 87.5462 510.898 87.7868 510.898 88.0177V91.8281H509.945V87.1806ZM518.476 88.4652C518.235 88.4652 517.932 88.4796 517.567 88.5085C517.211 88.5277 516.864 88.5854 516.527 88.6817C516.2 88.7683 515.916 88.9078 515.676 89.1002C515.445 89.2927 515.329 89.5573 515.329 89.8941C515.329 90.1154 515.373 90.3078 515.459 90.4714C515.555 90.6253 515.681 90.7552 515.835 90.8611C515.988 90.9573 516.157 91.0295 516.34 91.0776C516.532 91.1161 516.725 91.1353 516.917 91.1353C517.263 91.1353 517.562 91.0776 517.812 90.9621C518.072 90.8467 518.288 90.6927 518.461 90.5003C518.635 90.2982 518.76 90.0673 518.837 89.8075C518.923 89.538 518.967 89.2542 518.967 88.9559V88.4652H518.476ZM518.967 87.6858V87.5126C518.967 86.3483 518.389 85.7661 517.235 85.7661C516.446 85.7661 515.758 86.0307 515.171 86.56L514.593 85.8816C515.228 85.2273 516.181 84.9001 517.451 84.9001C517.778 84.9001 518.091 84.9482 518.389 85.0445C518.697 85.1407 518.962 85.2898 519.183 85.4919C519.404 85.6843 519.582 85.9297 519.717 86.228C519.852 86.5263 519.919 86.8823 519.919 87.2961V90.3126C519.919 90.5724 519.929 90.8467 519.948 91.1353C519.977 91.4144 520.006 91.6453 520.035 91.8281H519.111C519.082 91.6645 519.058 91.4865 519.039 91.2941C519.029 91.1016 519.024 90.914 519.024 90.7312H518.995C518.716 91.1834 518.384 91.5106 518 91.7127C517.624 91.9051 517.162 92.0013 516.614 92.0013C516.316 92.0013 516.027 91.958 515.748 91.8714C515.469 91.7944 515.219 91.6742 514.997 91.5106C514.786 91.3374 514.613 91.1305 514.478 90.89C514.353 90.6398 514.29 90.3511 514.29 90.024C514.29 89.4755 514.43 89.0473 514.709 88.7394C514.997 88.4219 515.353 88.1861 515.777 88.0322C516.21 87.8782 516.667 87.782 517.148 87.7435C517.639 87.705 518.086 87.6858 518.49 87.6858H518.967ZM525.614 85.9393H523.665V89.9229C523.665 90.1731 523.689 90.38 523.738 90.5436C523.786 90.6975 523.853 90.8178 523.94 90.9044C524.026 90.991 524.127 91.0535 524.243 91.092C524.368 91.1209 524.503 91.1353 524.647 91.1353C524.81 91.1353 524.979 91.1113 525.152 91.0632C525.325 91.015 525.484 90.9525 525.628 90.8755L525.672 91.756C525.316 91.9195 524.887 92.0013 524.387 92.0013C524.204 92.0013 524.012 91.9773 523.81 91.9292C523.617 91.881 523.439 91.7896 523.276 91.6549C523.112 91.5202 522.977 91.3374 522.872 91.1065C522.766 90.8755 522.713 90.5724 522.713 90.1972V85.9393H521.284V85.0733H522.713V83.1681H523.665V85.0733H525.614V85.9393ZM528.299 82.4753C528.299 82.6774 528.227 82.8458 528.082 82.9805C527.938 83.1056 527.779 83.1681 527.606 83.1681C527.433 83.1681 527.274 83.1056 527.13 82.9805C526.986 82.8458 526.913 82.6774 526.913 82.4753C526.913 82.2733 526.986 82.1097 527.13 81.9846C527.274 81.8499 527.433 81.7825 527.606 81.7825C527.779 81.7825 527.938 81.8499 528.082 81.9846C528.227 82.1097 528.299 82.2733 528.299 82.4753ZM528.082 91.8281H527.13V85.0733H528.082V91.8281ZM536.169 88.4507C536.169 88.0755 536.106 87.7242 535.981 87.3971C535.865 87.0699 535.697 86.7861 535.476 86.5455C535.254 86.305 534.985 86.1173 534.667 85.9826C534.36 85.8383 534.008 85.7661 533.614 85.7661C533.219 85.7661 532.863 85.8383 532.546 85.9826C532.238 86.1173 531.973 86.305 531.752 86.5455C531.54 86.7861 531.372 87.0699 531.247 87.3971C531.131 87.7242 531.074 88.0755 531.074 88.4507C531.074 88.826 531.131 89.1772 531.247 89.5044C531.372 89.8315 531.54 90.1154 531.752 90.3559C531.973 90.5965 532.238 90.7889 532.546 90.9333C532.863 91.068 533.219 91.1353 533.614 91.1353C534.008 91.1353 534.36 91.068 534.667 90.9333C534.985 90.7889 535.254 90.5965 535.476 90.3559C535.697 90.1154 535.865 89.8315 535.981 89.5044C536.106 89.1772 536.169 88.826 536.169 88.4507ZM537.208 88.4507C537.208 88.9607 537.116 89.4322 536.933 89.8652C536.76 90.2982 536.515 90.6735 536.197 90.991C535.88 91.3085 535.5 91.5587 535.057 91.7415C534.624 91.9147 534.143 92.0013 533.614 92.0013C533.094 92.0013 532.613 91.9147 532.17 91.7415C531.737 91.5587 531.362 91.3085 531.045 90.991C530.727 90.6735 530.477 90.2982 530.294 89.8652C530.121 89.4322 530.034 88.9607 530.034 88.4507C530.034 87.9407 530.121 87.4693 530.294 87.0363C530.477 86.6033 530.727 86.228 531.045 85.9105C531.362 85.5929 531.737 85.3476 532.17 85.1744C532.613 84.9915 533.094 84.9001 533.614 84.9001C534.143 84.9001 534.624 84.9915 535.057 85.1744C535.5 85.3476 535.88 85.5929 536.197 85.9105C536.515 86.228 536.76 86.6033 536.933 87.0363C537.116 87.4693 537.208 87.9407 537.208 88.4507ZM539.846 85.0733C539.865 85.2561 539.875 85.439 539.875 85.6218C539.884 85.795 539.889 85.973 539.889 86.1558H539.918C540.024 85.973 540.158 85.8046 540.322 85.6507C540.486 85.4967 540.668 85.3668 540.87 85.261C541.073 85.1455 541.284 85.0589 541.506 85.0012C541.736 84.9338 541.963 84.9001 542.184 84.9001C543.05 84.9001 543.69 85.1311 544.104 85.5929C544.517 86.0452 544.724 86.6947 544.724 87.5414V91.8281H543.772V88.0899C543.772 87.3394 543.642 86.7668 543.382 86.3723C543.122 85.9682 542.641 85.7661 541.939 85.7661C541.89 85.7661 541.756 85.7854 541.534 85.8239C541.313 85.8623 541.077 85.9682 540.827 86.1414C540.587 86.3146 540.37 86.5744 540.178 86.9208C539.985 87.2672 539.889 87.7483 539.889 88.3641V91.8281H538.936V86.56C538.936 86.3771 538.927 86.1462 538.908 85.8672C538.898 85.5881 538.884 85.3235 538.864 85.0733H539.846ZM552.359 86.127H554.207C554.669 86.127 555.058 86.0788 555.376 85.9826C555.703 85.8864 555.963 85.7613 556.155 85.6074C556.348 85.4438 556.487 85.2561 556.574 85.0445C556.66 84.8231 556.704 84.5874 556.704 84.3372C556.704 84.0967 556.66 83.8705 556.574 83.6589C556.487 83.4375 556.348 83.2451 556.155 83.0815C555.963 82.9179 555.703 82.7929 555.376 82.7063C555.058 82.61 554.669 82.5619 554.207 82.5619H552.359V86.127ZM552.359 91.8281H551.32V81.6093H554.466C555.506 81.6093 556.324 81.8354 556.92 82.2877C557.526 82.7399 557.829 83.4231 557.829 84.3372C557.829 85.0493 557.603 85.6507 557.151 86.1414C556.708 86.6225 556.064 86.9015 555.217 86.9785L558.161 91.8281H556.891L554.091 87.0796H552.359V91.8281ZM565.317 88.4507C565.317 88.0755 565.255 87.7242 565.129 87.3971C565.014 87.0699 564.846 86.7861 564.624 86.5455C564.403 86.305 564.134 86.1173 563.816 85.9826C563.508 85.8383 563.157 85.7661 562.762 85.7661C562.368 85.7661 562.012 85.8383 561.694 85.9826C561.386 86.1173 561.122 86.305 560.9 86.5455C560.689 86.7861 560.52 87.0699 560.395 87.3971C560.28 87.7242 560.222 88.0755 560.222 88.4507C560.222 88.826 560.28 89.1772 560.395 89.5044C560.52 89.8315 560.689 90.1154 560.9 90.3559C561.122 90.5965 561.386 90.7889 561.694 90.9333C562.012 91.068 562.368 91.1353 562.762 91.1353C563.157 91.1353 563.508 91.068 563.816 90.9333C564.134 90.7889 564.403 90.5965 564.624 90.3559C564.846 90.1154 565.014 89.8315 565.129 89.5044C565.255 89.1772 565.317 88.826 565.317 88.4507ZM566.356 88.4507C566.356 88.9607 566.265 89.4322 566.082 89.8652C565.909 90.2982 565.663 90.6735 565.346 90.991C565.028 91.3085 564.648 91.5587 564.206 91.7415C563.773 91.9147 563.292 92.0013 562.762 92.0013C562.243 92.0013 561.762 91.9147 561.319 91.7415C560.886 91.5587 560.511 91.3085 560.193 90.991C559.876 90.6735 559.626 90.2982 559.443 89.8652C559.269 89.4322 559.183 88.9607 559.183 88.4507C559.183 87.9407 559.269 87.4693 559.443 87.0363C559.626 86.6033 559.876 86.228 560.193 85.9105C560.511 85.5929 560.886 85.3476 561.319 85.1744C561.762 84.9915 562.243 84.9001 562.762 84.9001C563.292 84.9001 563.773 84.9915 564.206 85.1744C564.648 85.3476 565.028 85.5929 565.346 85.9105C565.663 86.228 565.909 86.6033 566.082 87.0363C566.265 87.4693 566.356 87.9407 566.356 88.4507ZM573.873 88.4507C573.873 88.0755 573.81 87.7242 573.685 87.3971C573.57 87.0699 573.401 86.7861 573.18 86.5455C572.959 86.305 572.689 86.1173 572.372 85.9826C572.064 85.8383 571.713 85.7661 571.318 85.7661C570.924 85.7661 570.568 85.8383 570.25 85.9826C569.942 86.1173 569.677 86.305 569.456 86.5455C569.244 86.7861 569.076 87.0699 568.951 87.3971C568.836 87.7242 568.778 88.0755 568.778 88.4507C568.778 88.826 568.836 89.1772 568.951 89.5044C569.076 89.8315 569.244 90.1154 569.456 90.3559C569.677 90.5965 569.942 90.7889 570.25 90.9333C570.568 91.068 570.924 91.1353 571.318 91.1353C571.713 91.1353 572.064 91.068 572.372 90.9333C572.689 90.7889 572.959 90.5965 573.18 90.3559C573.401 90.1154 573.57 89.8315 573.685 89.5044C573.81 89.1772 573.873 88.826 573.873 88.4507ZM574.912 88.4507C574.912 88.9607 574.821 89.4322 574.638 89.8652C574.465 90.2982 574.219 90.6735 573.902 90.991C573.584 91.3085 573.204 91.5587 572.761 91.7415C572.328 91.9147 571.847 92.0013 571.318 92.0013C570.798 92.0013 570.317 91.9147 569.875 91.7415C569.442 91.5587 569.066 91.3085 568.749 90.991C568.431 90.6735 568.181 90.2982 567.998 89.8652C567.825 89.4322 567.739 88.9607 567.739 88.4507C567.739 87.9407 567.825 87.4693 567.998 87.0363C568.181 86.6033 568.431 86.228 568.749 85.9105C569.066 85.5929 569.442 85.3476 569.875 85.1744C570.317 84.9915 570.798 84.9001 571.318 84.9001C571.847 84.9001 572.328 84.9915 572.761 85.1744C573.204 85.3476 573.584 85.5929 573.902 85.9105C574.219 86.228 574.465 86.6033 574.638 87.0363C574.821 87.4693 574.912 87.9407 574.912 88.4507ZM576.641 86.5744C576.641 86.3242 576.631 86.074 576.612 85.8239C576.602 85.5737 576.588 85.3235 576.569 85.0733H577.593V86.0981H577.622C577.853 85.7036 578.171 85.4053 578.575 85.2032C578.989 85.0012 579.397 84.9001 579.802 84.9001C579.984 84.9001 580.177 84.9194 580.379 84.9579C580.591 84.9963 580.793 85.0685 580.985 85.1744C581.178 85.2706 581.356 85.4101 581.519 85.5929C581.692 85.7757 581.837 86.0115 581.952 86.3002C582.145 85.8672 582.448 85.5256 582.861 85.2754C583.285 85.0252 583.723 84.9001 584.175 84.9001C585.041 84.9001 585.681 85.1311 586.095 85.5929C586.508 86.0452 586.715 86.6947 586.715 87.5414V91.8281H585.763V87.8878C585.763 87.2046 585.642 86.6802 585.402 86.3146C585.161 85.9489 584.714 85.7661 584.059 85.7661C583.703 85.7661 583.405 85.8383 583.165 85.9826C582.924 86.1173 582.727 86.3002 582.573 86.5311C582.428 86.762 582.323 87.0266 582.255 87.3249C582.188 87.6136 582.154 87.9167 582.154 88.2342V91.8281H581.202V87.8878C581.202 87.2046 581.081 86.6802 580.841 86.3146C580.6 85.9489 580.153 85.7661 579.498 85.7661C579.441 85.7661 579.306 85.7854 579.094 85.8239C578.892 85.8623 578.681 85.9682 578.459 86.1414C578.238 86.3146 578.036 86.5744 577.853 86.9208C577.68 87.2672 577.593 87.7483 577.593 88.3641V91.8281H576.641V86.5744Z" fill="black"/>
<path d="M478.952 106.192C478.952 105.88 478.968 105.555 479 105.218C479.032 104.881 479.088 104.553 479.168 104.232C479.257 103.903 479.369 103.59 479.505 103.294C479.65 102.997 479.83 102.74 480.046 102.524C480.271 102.299 480.532 102.123 480.828 101.995C481.133 101.858 481.486 101.79 481.887 101.79C482.288 101.79 482.636 101.858 482.933 101.995C483.238 102.123 483.498 102.299 483.715 102.524C483.939 102.74 484.12 102.997 484.256 103.294C484.4 103.59 484.513 103.903 484.593 104.232C484.681 104.553 484.741 104.881 484.773 105.218C484.805 105.555 484.821 105.88 484.821 106.192C484.821 106.641 484.781 107.123 484.701 107.636C484.621 108.149 484.473 108.626 484.256 109.067C484.04 109.508 483.739 109.873 483.354 110.162C482.977 110.45 482.488 110.595 481.887 110.595C481.285 110.595 480.792 110.45 480.407 110.162C480.03 109.873 479.734 109.508 479.517 109.067C479.301 108.626 479.152 108.149 479.072 107.636C478.992 107.123 478.952 106.641 478.952 106.192ZM480.107 106.192C480.107 106.473 480.123 106.806 480.155 107.191C480.195 107.576 480.275 107.948 480.395 108.309C480.516 108.662 480.692 108.963 480.924 109.211C481.165 109.46 481.486 109.584 481.887 109.584C482.288 109.584 482.604 109.46 482.837 109.211C483.077 108.963 483.258 108.662 483.378 108.309C483.498 107.948 483.575 107.576 483.607 107.191C483.647 106.806 483.667 106.473 483.667 106.192C483.667 106 483.659 105.783 483.643 105.543C483.635 105.294 483.607 105.046 483.559 104.797C483.518 104.541 483.458 104.296 483.378 104.063C483.298 103.823 483.19 103.61 483.053 103.426C482.925 103.234 482.765 103.081 482.572 102.969C482.38 102.857 482.151 102.801 481.887 102.801C481.622 102.801 481.394 102.857 481.201 102.969C481.009 103.081 480.844 103.234 480.708 103.426C480.58 103.61 480.475 103.823 480.395 104.063C480.315 104.296 480.251 104.541 480.203 104.797C480.163 105.046 480.135 105.294 480.119 105.543C480.111 105.783 480.107 106 480.107 106.192ZM489.268 107.155H489.22C488.955 107.283 488.642 107.347 488.281 107.347C487.977 107.347 487.668 107.295 487.355 107.191C487.043 107.086 486.758 106.926 486.501 106.71C486.253 106.485 486.048 106.204 485.888 105.868C485.728 105.523 485.647 105.118 485.647 104.653C485.647 104.188 485.724 103.779 485.876 103.426C486.036 103.065 486.249 102.764 486.513 102.524C486.778 102.283 487.087 102.103 487.439 101.983C487.792 101.854 488.169 101.79 488.57 101.79C488.971 101.79 489.348 101.854 489.701 101.983C490.054 102.111 490.362 102.295 490.627 102.536C490.891 102.776 491.1 103.065 491.252 103.402C491.413 103.739 491.493 104.116 491.493 104.533C491.493 104.797 491.473 105.038 491.433 105.254C491.393 105.471 491.332 105.679 491.252 105.88C491.18 106.072 491.092 106.265 490.988 106.457C490.883 106.649 490.767 106.846 490.639 107.046L488.486 110.45H487.127L489.268 107.155ZM490.338 104.569C490.338 104.312 490.294 104.075 490.206 103.859C490.126 103.642 490.005 103.458 489.845 103.306C489.693 103.145 489.508 103.021 489.292 102.933C489.075 102.845 488.835 102.801 488.57 102.801C488.305 102.801 488.065 102.845 487.848 102.933C487.632 103.021 487.443 103.145 487.283 103.306C487.131 103.458 487.01 103.642 486.922 103.859C486.842 104.075 486.802 104.312 486.802 104.569C486.802 104.825 486.842 105.062 486.922 105.278C487.01 105.495 487.131 105.683 487.283 105.844C487.443 105.996 487.632 106.116 487.848 106.204C488.065 106.293 488.305 106.337 488.57 106.337C488.835 106.337 489.075 106.293 489.292 106.204C489.508 106.116 489.693 105.996 489.845 105.844C490.005 105.683 490.126 105.495 490.206 105.278C490.294 105.062 490.338 104.825 490.338 104.569ZM493.582 106.265C493.365 106.265 493.177 106.188 493.016 106.036C492.864 105.876 492.788 105.687 492.788 105.471C492.788 105.254 492.864 105.07 493.016 104.917C493.177 104.757 493.365 104.677 493.582 104.677C493.798 104.677 493.983 104.757 494.135 104.917C494.295 105.07 494.375 105.254 494.375 105.471C494.375 105.687 494.295 105.876 494.135 106.036C493.983 106.188 493.798 106.265 493.582 106.265ZM492.788 109.729C492.788 109.512 492.864 109.328 493.016 109.175C493.177 109.015 493.365 108.935 493.582 108.935C493.798 108.935 493.983 109.015 494.135 109.175C494.295 109.328 494.375 109.512 494.375 109.729C494.375 109.945 494.295 110.133 494.135 110.294C493.983 110.446 493.798 110.522 493.582 110.522C493.365 110.522 493.177 110.446 493.016 110.294C492.864 110.133 492.788 109.945 492.788 109.729ZM497.025 108.369C497.162 108.778 497.342 109.083 497.567 109.284C497.799 109.484 498.14 109.584 498.589 109.584C498.814 109.584 499.022 109.548 499.214 109.476C499.415 109.396 499.591 109.292 499.744 109.163C499.896 109.027 500.016 108.867 500.105 108.682C500.193 108.49 500.237 108.277 500.237 108.045C500.237 107.692 500.161 107.411 500.008 107.203C499.864 106.986 499.676 106.826 499.443 106.722C499.21 106.609 498.954 106.537 498.673 106.505C498.393 106.473 498.116 106.457 497.843 106.457V105.447C498.284 105.447 498.645 105.419 498.926 105.362C499.206 105.298 499.427 105.21 499.587 105.098C499.748 104.986 499.86 104.845 499.924 104.677C499.988 104.508 500.02 104.32 500.02 104.112C500.02 103.655 499.884 103.31 499.611 103.077C499.339 102.845 498.998 102.728 498.589 102.728C498.276 102.728 497.992 102.821 497.735 103.005C497.486 103.181 497.298 103.418 497.17 103.715L495.991 103.318C496.216 102.772 496.556 102.372 497.013 102.115C497.478 101.85 497.996 101.718 498.565 101.718C498.91 101.718 499.239 101.766 499.551 101.862C499.872 101.951 500.153 102.091 500.393 102.283C500.634 102.476 500.822 102.72 500.959 103.017C501.103 103.306 501.175 103.646 501.175 104.039C501.175 104.488 501.039 104.889 500.766 105.242C500.501 105.595 500.153 105.836 499.72 105.964V105.988C499.984 106.036 500.221 106.124 500.429 106.253C500.638 106.381 500.814 106.541 500.959 106.734C501.103 106.926 501.211 107.143 501.283 107.383C501.355 107.616 501.392 107.864 501.392 108.129C501.392 108.538 501.311 108.899 501.151 109.211C500.999 109.516 500.79 109.773 500.526 109.981C500.269 110.182 499.968 110.334 499.623 110.438C499.287 110.542 498.93 110.595 498.553 110.595C497.903 110.595 497.33 110.446 496.833 110.15C496.344 109.853 496.003 109.384 495.811 108.742L497.025 108.369ZM502.35 106.192C502.35 105.88 502.366 105.555 502.398 105.218C502.43 104.881 502.486 104.553 502.566 104.232C502.654 103.903 502.767 103.59 502.903 103.294C503.047 102.997 503.228 102.74 503.444 102.524C503.669 102.299 503.929 102.123 504.226 101.995C504.531 101.858 504.884 101.79 505.284 101.79C505.685 101.79 506.034 101.858 506.331 101.995C506.636 102.123 506.896 102.299 507.113 102.524C507.337 102.74 507.518 102.997 507.654 103.294C507.798 103.59 507.911 103.903 507.991 104.232C508.079 104.553 508.139 104.881 508.171 105.218C508.203 105.555 508.219 105.88 508.219 106.192C508.219 106.641 508.179 107.123 508.099 107.636C508.019 108.149 507.87 108.626 507.654 109.067C507.437 109.508 507.137 109.873 506.752 110.162C506.375 110.45 505.886 110.595 505.284 110.595C504.683 110.595 504.19 110.45 503.805 110.162C503.428 109.873 503.132 109.508 502.915 109.067C502.699 108.626 502.55 108.149 502.47 107.636C502.39 107.123 502.35 106.641 502.35 106.192ZM503.504 106.192C503.504 106.473 503.52 106.806 503.552 107.191C503.593 107.576 503.673 107.948 503.793 108.309C503.913 108.662 504.09 108.963 504.322 109.211C504.563 109.46 504.884 109.584 505.284 109.584C505.685 109.584 506.002 109.46 506.235 109.211C506.475 108.963 506.656 108.662 506.776 108.309C506.896 107.948 506.972 107.576 507.004 107.191C507.045 106.806 507.065 106.473 507.065 106.192C507.065 106 507.057 105.783 507.041 105.543C507.033 105.294 507.004 105.046 506.956 104.797C506.916 104.541 506.856 104.296 506.776 104.063C506.696 103.823 506.587 103.61 506.451 103.426C506.323 103.234 506.163 103.081 505.97 102.969C505.778 102.857 505.549 102.801 505.284 102.801C505.02 102.801 504.791 102.857 504.599 102.969C504.406 103.081 504.242 103.234 504.106 103.426C503.977 103.61 503.873 103.823 503.793 104.063C503.713 104.296 503.649 104.541 503.601 104.797C503.56 105.046 503.532 105.294 503.516 105.543C503.508 105.783 503.504 106 503.504 106.192ZM518.828 106.649C518.587 107.058 518.334 107.339 518.07 107.491C517.813 107.636 517.553 107.708 517.288 107.708C517.055 107.708 516.823 107.664 516.59 107.576C516.358 107.487 516.125 107.387 515.893 107.275C515.66 107.163 515.436 107.062 515.219 106.974C515.011 106.886 514.81 106.842 514.618 106.842C514.49 106.842 514.373 106.87 514.269 106.926C514.165 106.974 514.073 107.042 513.992 107.131C513.912 107.211 513.84 107.303 513.776 107.407C513.712 107.503 513.656 107.604 513.608 107.708L513.126 106.962C513.311 106.649 513.527 106.397 513.776 106.204C514.024 106.004 514.341 105.904 514.726 105.904C514.967 105.904 515.199 105.948 515.424 106.036C515.656 106.124 515.877 106.224 516.085 106.337C516.294 106.449 516.498 106.553 516.699 106.649C516.899 106.738 517.092 106.782 517.276 106.782C517.468 106.782 517.653 106.722 517.829 106.601C518.006 106.473 518.178 106.24 518.346 105.904L518.828 106.649ZM526.577 103.258L525.014 104.701L524.34 103.895L526.71 101.935H527.732V110.45H526.577V103.258ZM530.422 106.192C530.422 105.88 530.438 105.555 530.47 105.218C530.503 104.881 530.559 104.553 530.639 104.232C530.727 103.903 530.839 103.59 530.976 103.294C531.12 102.997 531.3 102.74 531.517 102.524C531.741 102.299 532.002 102.123 532.299 101.995C532.603 101.858 532.956 101.79 533.357 101.79C533.758 101.79 534.107 101.858 534.404 101.995C534.708 102.123 534.969 102.299 535.185 102.524C535.41 102.74 535.59 102.997 535.727 103.294C535.871 103.59 535.983 103.903 536.063 104.232C536.152 104.553 536.212 104.881 536.244 105.218C536.276 105.555 536.292 105.88 536.292 106.192C536.292 106.641 536.252 107.123 536.172 107.636C536.091 108.149 535.943 108.626 535.727 109.067C535.51 109.508 535.209 109.873 534.825 110.162C534.448 110.45 533.959 110.595 533.357 110.595C532.756 110.595 532.263 110.45 531.878 110.162C531.501 109.873 531.204 109.508 530.988 109.067C530.771 108.626 530.623 108.149 530.543 107.636C530.462 107.123 530.422 106.641 530.422 106.192ZM531.577 106.192C531.577 106.473 531.593 106.806 531.625 107.191C531.665 107.576 531.745 107.948 531.866 108.309C531.986 108.662 532.162 108.963 532.395 109.211C532.635 109.46 532.956 109.584 533.357 109.584C533.758 109.584 534.075 109.46 534.307 109.211C534.548 108.963 534.728 108.662 534.849 108.309C534.969 107.948 535.045 107.576 535.077 107.191C535.117 106.806 535.137 106.473 535.137 106.192C535.137 106 535.129 105.783 535.113 105.543C535.105 105.294 535.077 105.046 535.029 104.797C534.989 104.541 534.929 104.296 534.849 104.063C534.768 103.823 534.66 103.61 534.524 103.426C534.396 103.234 534.235 103.081 534.043 102.969C533.85 102.857 533.622 102.801 533.357 102.801C533.093 102.801 532.864 102.857 532.672 102.969C532.479 103.081 532.315 103.234 532.178 103.426C532.05 103.61 531.946 103.823 531.866 104.063C531.785 104.296 531.721 104.541 531.673 104.797C531.633 105.046 531.605 105.294 531.589 105.543C531.581 105.783 531.577 106 531.577 106.192ZM538.369 106.265C538.152 106.265 537.964 106.188 537.803 106.036C537.651 105.876 537.575 105.687 537.575 105.471C537.575 105.254 537.651 105.07 537.803 104.917C537.964 104.757 538.152 104.677 538.369 104.677C538.585 104.677 538.77 104.757 538.922 104.917C539.082 105.07 539.162 105.254 539.162 105.471C539.162 105.687 539.082 105.876 538.922 106.036C538.77 106.188 538.585 106.265 538.369 106.265ZM537.575 109.729C537.575 109.512 537.651 109.328 537.803 109.175C537.964 109.015 538.152 108.935 538.369 108.935C538.585 108.935 538.77 109.015 538.922 109.175C539.082 109.328 539.162 109.512 539.162 109.729C539.162 109.945 539.082 110.133 538.922 110.294C538.77 110.446 538.585 110.522 538.369 110.522C538.152 110.522 537.964 110.446 537.803 110.294C537.651 110.133 537.575 109.945 537.575 109.729ZM541.812 108.369C541.949 108.778 542.129 109.083 542.354 109.284C542.586 109.484 542.927 109.584 543.376 109.584C543.601 109.584 543.809 109.548 544.002 109.476C544.202 109.396 544.378 109.292 544.531 109.163C544.683 109.027 544.803 108.867 544.892 108.682C544.98 108.49 545.024 108.277 545.024 108.045C545.024 107.692 544.948 107.411 544.795 107.203C544.651 106.986 544.463 106.826 544.23 106.722C543.998 106.609 543.741 106.537 543.46 106.505C543.18 106.473 542.903 106.457 542.63 106.457V105.447C543.071 105.447 543.432 105.419 543.713 105.362C543.994 105.298 544.214 105.21 544.374 105.098C544.535 104.986 544.647 104.845 544.711 104.677C544.775 104.508 544.807 104.32 544.807 104.112C544.807 103.655 544.671 103.31 544.398 103.077C544.126 102.845 543.785 102.728 543.376 102.728C543.063 102.728 542.779 102.821 542.522 103.005C542.274 103.181 542.085 103.418 541.957 103.715L540.778 103.318C541.003 102.772 541.343 102.372 541.8 102.115C542.266 101.85 542.783 101.718 543.352 101.718C543.697 101.718 544.026 101.766 544.338 101.862C544.659 101.951 544.94 102.091 545.18 102.283C545.421 102.476 545.609 102.72 545.746 103.017C545.89 103.306 545.962 103.646 545.962 104.039C545.962 104.488 545.826 104.889 545.553 105.242C545.288 105.595 544.94 105.836 544.507 105.964V105.988C544.771 106.036 545.008 106.124 545.216 106.253C545.425 106.381 545.601 106.541 545.746 106.734C545.89 106.926 545.998 107.143 546.07 107.383C546.142 107.616 546.179 107.864 546.179 108.129C546.179 108.538 546.098 108.899 545.938 109.211C545.786 109.516 545.577 109.773 545.313 109.981C545.056 110.182 544.755 110.334 544.41 110.438C544.074 110.542 543.717 110.595 543.34 110.595C542.69 110.595 542.117 110.446 541.62 110.15C541.131 109.853 540.79 109.384 540.598 108.742L541.812 108.369ZM547.137 106.192C547.137 105.88 547.153 105.555 547.185 105.218C547.217 104.881 547.273 104.553 547.353 104.232C547.441 103.903 547.554 103.59 547.69 103.294C547.834 102.997 548.015 102.74 548.231 102.524C548.456 102.299 548.716 102.123 549.013 101.995C549.318 101.858 549.671 101.79 550.072 101.79C550.472 101.79 550.821 101.858 551.118 101.995C551.423 102.123 551.683 102.299 551.9 102.524C552.124 102.74 552.305 102.997 552.441 103.294C552.585 103.59 552.698 103.903 552.778 104.232C552.866 104.553 552.926 104.881 552.958 105.218C552.99 105.555 553.006 105.88 553.006 106.192C553.006 106.641 552.966 107.123 552.886 107.636C552.806 108.149 552.657 108.626 552.441 109.067C552.224 109.508 551.924 109.873 551.539 110.162C551.162 110.45 550.673 110.595 550.072 110.595C549.47 110.595 548.977 110.45 548.592 110.162C548.215 109.873 547.919 109.508 547.702 109.067C547.486 108.626 547.337 108.149 547.257 107.636C547.177 107.123 547.137 106.641 547.137 106.192ZM548.291 106.192C548.291 106.473 548.307 106.806 548.34 107.191C548.38 107.576 548.46 107.948 548.58 108.309C548.7 108.662 548.877 108.963 549.109 109.211C549.35 109.46 549.671 109.584 550.072 109.584C550.472 109.584 550.789 109.46 551.022 109.211C551.262 108.963 551.443 108.662 551.563 108.309C551.683 107.948 551.759 107.576 551.791 107.191C551.832 106.806 551.852 106.473 551.852 106.192C551.852 106 551.844 105.783 551.828 105.543C551.82 105.294 551.791 105.046 551.743 104.797C551.703 104.541 551.643 104.296 551.563 104.063C551.483 103.823 551.375 103.61 551.238 103.426C551.11 103.234 550.95 103.081 550.757 102.969C550.565 102.857 550.336 102.801 550.072 102.801C549.807 102.801 549.578 102.857 549.386 102.969C549.193 103.081 549.029 103.234 548.893 103.426C548.764 103.61 548.66 103.823 548.58 104.063C548.5 104.296 548.436 104.541 548.388 104.797C548.348 105.046 548.319 105.294 548.303 105.543C548.295 105.783 548.291 106 548.291 106.192Z" fill="#777FA1"/>
<path d="M481.653 118.402C481.427 118.07 481.098 117.904 480.665 117.904C480.53 117.904 480.398 117.923 480.268 117.962C480.138 117.995 480.02 118.051 479.914 118.128C479.813 118.2 479.731 118.296 479.669 118.416C479.606 118.532 479.575 118.669 479.575 118.828C479.575 119.059 479.64 119.239 479.77 119.369C479.9 119.494 480.061 119.598 480.253 119.679C480.446 119.761 480.655 119.836 480.881 119.903C481.112 119.966 481.324 120.052 481.516 120.163C481.709 120.269 481.87 120.411 482 120.589C482.13 120.767 482.195 121.01 482.195 121.317C482.195 121.548 482.144 121.758 482.043 121.945C481.947 122.128 481.817 122.282 481.653 122.407C481.495 122.532 481.314 122.629 481.112 122.696C480.915 122.763 480.715 122.797 480.513 122.797C480.2 122.797 479.902 122.739 479.618 122.624C479.339 122.503 479.101 122.309 478.904 122.039L479.373 121.7C479.484 121.888 479.637 122.039 479.835 122.155C480.032 122.265 480.265 122.321 480.535 122.321C480.665 122.321 480.795 122.301 480.924 122.263C481.054 122.22 481.17 122.159 481.271 122.082C481.377 122.001 481.463 121.902 481.531 121.787C481.598 121.671 481.632 121.539 481.632 121.39C481.632 121.212 481.593 121.065 481.516 120.949C481.444 120.829 481.345 120.731 481.22 120.654C481.1 120.572 480.961 120.504 480.802 120.451C480.648 120.399 480.487 120.346 480.318 120.293C480.155 120.24 479.994 120.18 479.835 120.112C479.681 120.045 479.541 119.961 479.416 119.86C479.296 119.754 479.197 119.624 479.12 119.47C479.048 119.311 479.012 119.114 479.012 118.878C479.012 118.633 479.058 118.419 479.149 118.236C479.245 118.053 479.37 117.902 479.524 117.781C479.683 117.661 479.861 117.572 480.058 117.514C480.256 117.457 480.458 117.428 480.665 117.428C480.953 117.428 481.216 117.473 481.451 117.565C481.687 117.656 481.906 117.817 482.108 118.048L481.653 118.402ZM484.819 119.723H483.845V121.714C483.845 121.839 483.857 121.943 483.881 122.025C483.905 122.102 483.939 122.162 483.982 122.205C484.025 122.248 484.076 122.28 484.133 122.299C484.196 122.313 484.263 122.321 484.336 122.321C484.417 122.321 484.502 122.309 484.588 122.285C484.675 122.26 484.754 122.229 484.826 122.191L484.848 122.631C484.67 122.713 484.456 122.754 484.206 122.754C484.114 122.754 484.018 122.742 483.917 122.718C483.821 122.693 483.732 122.648 483.65 122.58C483.568 122.513 483.501 122.422 483.448 122.306C483.395 122.191 483.368 122.039 483.368 121.852V119.723H482.654V119.29H483.368V118.337H483.845V119.29H484.819V119.723ZM487.388 120.986C487.268 120.986 487.117 120.993 486.934 121.007C486.756 121.017 486.583 121.046 486.414 121.094C486.251 121.137 486.109 121.207 485.988 121.303C485.873 121.399 485.815 121.532 485.815 121.7C485.815 121.811 485.837 121.907 485.88 121.989C485.928 122.066 485.991 122.131 486.068 122.183C486.145 122.232 486.229 122.268 486.32 122.292C486.417 122.311 486.513 122.321 486.609 122.321C486.782 122.321 486.931 122.292 487.056 122.234C487.186 122.176 487.295 122.099 487.381 122.003C487.468 121.902 487.53 121.787 487.569 121.657C487.612 121.522 487.634 121.38 487.634 121.231V120.986H487.388ZM487.634 120.596V120.509C487.634 119.927 487.345 119.636 486.768 119.636C486.373 119.636 486.029 119.768 485.736 120.033L485.447 119.694C485.765 119.367 486.241 119.203 486.876 119.203C487.04 119.203 487.196 119.227 487.345 119.275C487.499 119.323 487.631 119.398 487.742 119.499C487.853 119.595 487.942 119.718 488.009 119.867C488.076 120.016 488.11 120.194 488.11 120.401V121.909C488.11 122.039 488.115 122.176 488.125 122.321C488.139 122.46 488.153 122.576 488.168 122.667H487.706C487.692 122.585 487.679 122.496 487.67 122.4C487.665 122.304 487.663 122.21 487.663 122.119H487.648C487.509 122.345 487.343 122.508 487.15 122.609C486.963 122.705 486.732 122.754 486.457 122.754C486.308 122.754 486.164 122.732 486.024 122.689C485.885 122.65 485.76 122.59 485.649 122.508C485.543 122.422 485.457 122.318 485.389 122.198C485.327 122.073 485.296 121.928 485.296 121.765C485.296 121.491 485.365 121.277 485.505 121.123C485.649 120.964 485.827 120.846 486.039 120.769C486.255 120.692 486.484 120.644 486.724 120.625C486.97 120.605 487.194 120.596 487.396 120.596H487.634ZM489.262 120.343C489.262 120.194 489.257 120.043 489.247 119.889C489.242 119.735 489.237 119.535 489.233 119.29H489.702V119.917H489.716C489.75 119.826 489.798 119.739 489.861 119.658C489.923 119.571 489.998 119.494 490.084 119.427C490.176 119.359 490.279 119.306 490.395 119.268C490.515 119.225 490.65 119.203 490.799 119.203C490.933 119.203 491.051 119.217 491.152 119.246L491.058 119.715C490.996 119.691 490.905 119.679 490.784 119.679C490.601 119.679 490.445 119.715 490.315 119.788C490.185 119.855 490.077 119.944 489.99 120.055C489.904 120.16 489.839 120.276 489.796 120.401C489.757 120.526 489.738 120.646 489.738 120.762V122.667H489.262V120.343ZM493.354 119.723H492.379V121.714C492.379 121.839 492.391 121.943 492.415 122.025C492.439 122.102 492.473 122.162 492.516 122.205C492.56 122.248 492.61 122.28 492.668 122.299C492.731 122.313 492.798 122.321 492.87 122.321C492.952 122.321 493.036 122.309 493.123 122.285C493.209 122.26 493.289 122.229 493.361 122.191L493.382 122.631C493.204 122.713 492.99 122.754 492.74 122.754C492.649 122.754 492.553 122.742 492.452 122.718C492.355 122.693 492.266 122.648 492.184 122.58C492.103 122.513 492.035 122.422 491.982 122.306C491.93 122.191 491.903 122.039 491.903 121.852V119.723H491.189V119.29H491.903V118.337H492.379V119.29H493.354V119.723ZM494.696 117.991C494.696 118.092 494.66 118.176 494.588 118.243C494.516 118.306 494.436 118.337 494.35 118.337C494.263 118.337 494.184 118.306 494.112 118.243C494.039 118.176 494.003 118.092 494.003 117.991C494.003 117.89 494.039 117.808 494.112 117.745C494.184 117.678 494.263 117.644 494.35 117.644C494.436 117.644 494.516 117.678 494.588 117.745C494.66 117.808 494.696 117.89 494.696 117.991ZM494.588 122.667H494.112V119.29H494.588V122.667ZM496.192 119.29C496.201 119.381 496.206 119.472 496.206 119.564C496.211 119.65 496.213 119.739 496.213 119.831H496.228C496.281 119.739 496.348 119.655 496.43 119.578C496.512 119.501 496.603 119.436 496.704 119.383C496.805 119.326 496.911 119.282 497.022 119.254C497.137 119.22 497.25 119.203 497.361 119.203C497.794 119.203 498.114 119.318 498.321 119.549C498.527 119.776 498.631 120.1 498.631 120.524V122.667H498.155V120.798C498.155 120.423 498.09 120.136 497.96 119.939C497.83 119.737 497.589 119.636 497.238 119.636C497.214 119.636 497.147 119.646 497.036 119.665C496.925 119.684 496.807 119.737 496.682 119.824C496.562 119.91 496.454 120.04 496.358 120.213C496.261 120.387 496.213 120.627 496.213 120.935V122.667H495.737V120.033C495.737 119.941 495.732 119.826 495.723 119.687C495.718 119.547 495.711 119.415 495.701 119.29H496.192ZM500.093 120.935C500.093 121.113 500.125 121.281 500.187 121.44C500.255 121.594 500.344 121.731 500.454 121.852C500.57 121.967 500.702 122.061 500.851 122.133C501.005 122.2 501.171 122.234 501.349 122.234C501.522 122.234 501.686 122.203 501.84 122.14C501.999 122.078 502.138 121.991 502.258 121.88C502.379 121.765 502.47 121.628 502.533 121.469C502.6 121.31 502.631 121.132 502.627 120.935C502.627 120.757 502.598 120.591 502.54 120.437C502.482 120.278 502.398 120.141 502.287 120.026C502.177 119.905 502.042 119.812 501.883 119.744C501.724 119.672 501.546 119.636 501.349 119.636C501.171 119.636 501.005 119.672 500.851 119.744C500.702 119.812 500.57 119.905 500.454 120.026C500.344 120.141 500.255 120.278 500.187 120.437C500.125 120.591 500.093 120.757 500.093 120.935ZM500.007 123.345C500.146 123.533 500.327 123.682 500.548 123.793C500.774 123.908 501.024 123.966 501.299 123.966C501.539 123.966 501.744 123.93 501.912 123.858C502.08 123.79 502.215 123.697 502.316 123.576C502.422 123.456 502.497 123.314 502.54 123.151C502.588 122.992 502.612 122.821 502.612 122.638V122.032H502.598C502.444 122.263 502.256 122.426 502.035 122.523C501.813 122.619 501.58 122.667 501.335 122.667C501.089 122.667 500.858 122.624 500.642 122.537C500.43 122.45 500.245 122.333 500.086 122.183C499.927 122.03 499.802 121.847 499.711 121.635C499.62 121.423 499.574 121.195 499.574 120.949C499.574 120.704 499.617 120.476 499.704 120.264C499.79 120.052 499.908 119.867 500.057 119.708C500.211 119.549 500.392 119.427 500.599 119.34C500.81 119.249 501.041 119.203 501.291 119.203C501.392 119.203 501.498 119.213 501.609 119.232C501.724 119.251 501.837 119.285 501.948 119.333C502.064 119.381 502.177 119.448 502.287 119.535C502.398 119.617 502.501 119.723 502.598 119.852H502.612V119.29H503.088V122.638C503.088 122.821 503.064 123.016 503.016 123.223C502.973 123.43 502.884 123.62 502.749 123.793C502.619 123.966 502.436 124.11 502.201 124.226C501.965 124.341 501.657 124.399 501.277 124.399C500.94 124.399 500.64 124.344 500.375 124.233C500.11 124.122 499.87 123.952 499.653 123.721L500.007 123.345ZM508.758 118.402C508.532 118.07 508.202 117.904 507.769 117.904C507.635 117.904 507.502 117.923 507.373 117.962C507.243 117.995 507.125 118.051 507.019 118.128C506.918 118.2 506.836 118.296 506.774 118.416C506.711 118.532 506.68 118.669 506.68 118.828C506.68 119.059 506.745 119.239 506.875 119.369C507.004 119.494 507.166 119.598 507.358 119.679C507.551 119.761 507.76 119.836 507.986 119.903C508.217 119.966 508.429 120.052 508.621 120.163C508.813 120.269 508.975 120.411 509.105 120.589C509.234 120.767 509.299 121.01 509.299 121.317C509.299 121.548 509.249 121.758 509.148 121.945C509.052 122.128 508.922 122.282 508.758 122.407C508.599 122.532 508.419 122.629 508.217 122.696C508.02 122.763 507.82 122.797 507.618 122.797C507.305 122.797 507.007 122.739 506.723 122.624C506.444 122.503 506.206 122.309 506.009 122.039L506.478 121.7C506.588 121.888 506.742 122.039 506.94 122.155C507.137 122.265 507.37 122.321 507.64 122.321C507.769 122.321 507.899 122.301 508.029 122.263C508.159 122.22 508.275 122.159 508.376 122.082C508.481 122.001 508.568 121.902 508.635 121.787C508.703 121.671 508.736 121.539 508.736 121.39C508.736 121.212 508.698 121.065 508.621 120.949C508.549 120.829 508.45 120.731 508.325 120.654C508.205 120.572 508.065 120.504 507.907 120.451C507.753 120.399 507.591 120.346 507.423 120.293C507.259 120.24 507.098 120.18 506.94 120.112C506.786 120.045 506.646 119.961 506.521 119.86C506.401 119.754 506.302 119.624 506.225 119.47C506.153 119.311 506.117 119.114 506.117 118.878C506.117 118.633 506.163 118.419 506.254 118.236C506.35 118.053 506.475 117.902 506.629 117.781C506.788 117.661 506.966 117.572 507.163 117.514C507.361 117.457 507.563 117.428 507.769 117.428C508.058 117.428 508.32 117.473 508.556 117.565C508.792 117.656 509.011 117.817 509.213 118.048L508.758 118.402ZM513.071 120.978C513.071 120.791 513.04 120.615 512.977 120.451C512.92 120.288 512.836 120.146 512.725 120.026C512.614 119.905 512.48 119.812 512.321 119.744C512.167 119.672 511.991 119.636 511.794 119.636C511.597 119.636 511.419 119.672 511.26 119.744C511.106 119.812 510.974 119.905 510.863 120.026C510.757 120.146 510.673 120.288 510.61 120.451C510.553 120.615 510.524 120.791 510.524 120.978C510.524 121.166 510.553 121.342 510.61 121.505C510.673 121.669 510.757 121.811 510.863 121.931C510.974 122.051 511.106 122.147 511.26 122.22C511.419 122.287 511.597 122.321 511.794 122.321C511.991 122.321 512.167 122.287 512.321 122.22C512.48 122.147 512.614 122.051 512.725 121.931C512.836 121.811 512.92 121.669 512.977 121.505C513.04 121.342 513.071 121.166 513.071 120.978ZM513.591 120.978C513.591 121.233 513.545 121.469 513.454 121.686C513.367 121.902 513.244 122.09 513.086 122.248C512.927 122.407 512.737 122.532 512.516 122.624C512.299 122.71 512.059 122.754 511.794 122.754C511.534 122.754 511.294 122.71 511.072 122.624C510.856 122.532 510.668 122.407 510.509 122.248C510.351 122.09 510.226 121.902 510.134 121.686C510.047 121.469 510.004 121.233 510.004 120.978C510.004 120.723 510.047 120.488 510.134 120.271C510.226 120.055 510.351 119.867 510.509 119.708C510.668 119.549 510.856 119.427 511.072 119.34C511.294 119.249 511.534 119.203 511.794 119.203C512.059 119.203 512.299 119.249 512.516 119.34C512.737 119.427 512.927 119.549 513.086 119.708C513.244 119.867 513.367 120.055 513.454 120.271C513.545 120.488 513.591 120.723 513.591 120.978ZM517.349 120.978C517.349 120.791 517.318 120.615 517.255 120.451C517.198 120.288 517.113 120.146 517.003 120.026C516.892 119.905 516.757 119.812 516.599 119.744C516.445 119.672 516.269 119.636 516.072 119.636C515.875 119.636 515.697 119.672 515.538 119.744C515.384 119.812 515.251 119.905 515.141 120.026C515.035 120.146 514.951 120.288 514.888 120.451C514.831 120.615 514.802 120.791 514.802 120.978C514.802 121.166 514.831 121.342 514.888 121.505C514.951 121.669 515.035 121.811 515.141 121.931C515.251 122.051 515.384 122.147 515.538 122.22C515.697 122.287 515.875 122.321 516.072 122.321C516.269 122.321 516.445 122.287 516.599 122.22C516.757 122.147 516.892 122.051 517.003 121.931C517.113 121.811 517.198 121.669 517.255 121.505C517.318 121.342 517.349 121.166 517.349 120.978ZM517.869 120.978C517.869 121.233 517.823 121.469 517.732 121.686C517.645 121.902 517.522 122.09 517.364 122.248C517.205 122.407 517.015 122.532 516.793 122.624C516.577 122.71 516.336 122.754 516.072 122.754C515.812 122.754 515.571 122.71 515.35 122.624C515.134 122.532 514.946 122.407 514.787 122.248C514.628 122.09 514.503 121.902 514.412 121.686C514.325 121.469 514.282 121.233 514.282 120.978C514.282 120.723 514.325 120.488 514.412 120.271C514.503 120.055 514.628 119.867 514.787 119.708C514.946 119.549 515.134 119.427 515.35 119.34C515.571 119.249 515.812 119.203 516.072 119.203C516.336 119.203 516.577 119.249 516.793 119.34C517.015 119.427 517.205 119.549 517.364 119.708C517.522 119.867 517.645 120.055 517.732 120.271C517.823 120.488 517.869 120.723 517.869 120.978ZM519.188 119.29C519.197 119.381 519.202 119.472 519.202 119.564C519.207 119.65 519.209 119.739 519.209 119.831H519.224C519.277 119.739 519.344 119.655 519.426 119.578C519.508 119.501 519.599 119.436 519.7 119.383C519.801 119.326 519.907 119.282 520.018 119.254C520.133 119.22 520.246 119.203 520.357 119.203C520.79 119.203 521.11 119.318 521.317 119.549C521.524 119.776 521.627 120.1 521.627 120.524V122.667H521.151V120.798C521.151 120.423 521.086 120.136 520.956 119.939C520.826 119.737 520.585 119.636 520.234 119.636C520.21 119.636 520.143 119.646 520.032 119.665C519.921 119.684 519.804 119.737 519.678 119.824C519.558 119.91 519.45 120.04 519.354 120.213C519.258 120.387 519.209 120.627 519.209 120.935V122.667H518.733V120.033C518.733 119.941 518.728 119.826 518.719 119.687C518.714 119.547 518.707 119.415 518.697 119.29H519.188Z" fill="#045257"/>
<rect x="440.055" y="152.712" width="32.475" height="31.2722" rx="15.6361" fill="#D0D4E4" fill-opacity="0.2"/>
<path d="M457.193 163.96V168.019H461.253C461.732 168.019 462.155 168.442 462.155 168.921C462.155 169.429 461.732 169.824 461.253 169.824H457.193V173.883C457.193 174.39 456.77 174.785 456.291 174.785C455.784 174.785 455.389 174.39 455.389 173.883V169.824H451.33C450.822 169.824 450.428 169.429 450.428 168.921C450.428 168.442 450.822 168.019 451.33 168.019H455.389V163.96C455.389 163.481 455.784 163.058 456.291 163.058C456.77 163.058 457.193 163.481 457.193 163.96Z" fill="#777FA1"/>
</svg>
