<svg width="14" height="15" viewBox="0 0 14 15" fill="none" xmlns="http://www.w3.org/2000/svg">
<path d="M9.8513 1.35489C10.5315 0.674671 11.6471 0.674671 12.3273 1.35489L13.3884 2.41604C14.0687 3.09626 14.0687 4.21182 13.3884 4.89204L12.0824 6.19806L8.54528 2.66091L9.8513 1.35489ZM7.91948 3.28672L11.4566 6.82386L5.11697 13.1635C4.84488 13.4356 4.49116 13.6533 4.11024 13.7621L0.817975 14.7416C0.600304 14.796 0.355425 14.7416 0.192172 14.5512C0.00171058 14.3879 -0.052707 14.143 0.0289194 13.9254L0.981228 10.6331C1.09006 10.2522 1.30773 9.89846 1.57982 9.62637L7.91948 3.28672Z" fill="white"/>
</svg>
