<svg width="32" height="32" viewBox="0 0 32 32" fill="none" xmlns="http://www.w3.org/2000/svg">
<path d="M0.671875 8.62449C0.671875 3.91417 4.49034 0.0957031 9.20066 0.0957031H23.4153C28.1256 0.0957031 31.9441 3.91417 31.9441 8.62449V22.8391C31.9441 27.5495 28.1256 31.3679 23.4153 31.3679H9.20066C4.49034 31.3679 0.671875 27.5495 0.671875 22.8391V8.62449Z" fill="#353535"/>
<path d="M10.3674 12.8471C10.3674 11.6843 10.9876 10.599 12.0213 10.0046C13.0291 9.41027 14.2953 9.41027 15.3289 10.0046C16.3367 10.599 16.9827 11.6843 16.9827 12.8471C16.9827 14.0358 16.3367 15.1211 15.3289 15.7155C14.2953 16.3098 13.0291 16.3098 12.0213 15.7155C10.9876 15.1211 10.3674 14.0358 10.3674 12.8471ZM7.88672 22.0206C7.88672 19.4624 9.92815 17.3951 12.4864 17.3951H14.8379C17.3962 17.3951 19.4635 19.4624 19.4635 22.0206C19.4635 22.4341 19.1017 22.77 18.6882 22.77H8.63611C8.22265 22.77 7.88672 22.4341 7.88672 22.0206ZM23.6238 22.77H20.0578C20.187 22.5375 20.2904 22.2532 20.2904 21.9431V21.7364C20.2904 20.1859 19.5668 18.7647 18.4815 17.8344C18.5332 17.8344 18.5849 17.8086 18.6624 17.8086H20.2387C22.5385 17.8086 24.4249 19.695 24.4249 21.9948C24.4249 22.4341 24.0631 22.77 23.6238 22.77ZM19.05 16.1548C18.2489 16.1548 17.5254 15.8447 16.9827 15.3278C17.4995 14.6301 17.8096 13.7774 17.8096 12.8471C17.8096 12.1752 17.6287 11.5034 17.3187 10.9349C17.8096 10.599 18.404 10.3664 19.05 10.3664C20.6263 10.3664 21.9442 11.6843 21.9442 13.2606C21.9442 14.8627 20.6263 16.1548 19.05 16.1548Z" fill="white"/>
</svg>
