<svg width="43" height="42" viewBox="0 0 43 42" fill="none" xmlns="http://www.w3.org/2000/svg">
<path d="M0.767578 9.24197C0.767578 4.13777 4.90535 0 10.0096 0H33.1145C38.2187 0 42.3565 4.13777 42.3565 9.24197V32.4033C42.3565 37.5075 38.2187 41.6453 33.1145 41.6453H10.0096C4.90535 41.6453 0.767578 37.5075 0.767578 32.4033V9.24197Z" fill="#6E38CE"/>
<path d="M16.9164 16.7325V17.7915C16.9164 18.3872 16.42 18.8505 15.8574 18.8505C15.2617 18.8505 14.7984 18.3872 14.7984 17.7915V16.7325C14.7984 14.9786 16.2214 13.5556 17.9753 13.5556C19.7293 13.5556 21.1523 14.9786 21.1523 16.7325V16.9972C21.1523 17.6922 21.0861 18.3872 21.0199 19.0821L25.0572 17.8577C25.4544 17.7253 25.8515 17.8577 26.1493 18.1224C26.414 18.4202 26.5133 18.8174 26.381 19.2145L25.7853 20.9684H28.5651C29.1277 20.9684 29.6241 21.4648 29.6241 22.0274C29.6241 22.6231 29.1277 23.0864 28.5651 23.0864H24.3292C23.9652 23.0864 23.6673 22.9209 23.4688 22.6562C23.2702 22.3914 23.204 22.0274 23.3033 21.6965L23.7335 20.472L20.5897 21.3986C20.1926 23.1525 19.5638 24.8403 18.6703 26.3957L18.207 27.1899C17.7768 27.951 16.9825 28.3812 16.1221 28.3812C14.7984 28.3812 13.7394 27.3223 13.7394 25.9985V23.6158C13.7394 22.2259 14.6329 20.9684 15.9898 20.5713L18.7696 19.744C18.935 18.8505 19.0343 17.9239 19.0343 16.9972V16.7325C19.0343 16.1699 18.5379 15.6735 17.9753 15.6735C17.3797 15.6735 16.9164 16.1699 16.9164 16.7325ZM16.5854 22.59C16.1552 22.7223 15.8243 23.1525 15.8243 23.6158V25.9985C15.8243 26.164 15.9567 26.2964 16.1221 26.2964C16.2214 26.2964 16.3207 26.2302 16.3538 26.1309L16.8171 25.3367C17.4128 24.3108 17.8761 23.2518 18.207 22.1267L16.5854 22.59ZM11.3567 24.6748H12.6805V25.9985C12.6805 26.0978 12.6805 26.1971 12.6805 26.2633H11.3567C10.8934 26.2633 10.5625 25.9324 10.5625 25.4691C10.5625 25.0388 10.8934 24.6748 11.3567 24.6748ZM30.9478 26.2633H19.9278C20.1926 25.7669 20.4573 25.2374 20.6559 24.6748H30.9478C31.378 24.6748 31.742 25.0388 31.742 25.4691C31.742 25.9324 31.378 26.2633 30.9478 26.2633Z" fill="white"/>
</svg>
