<svg width="55" height="57" viewBox="0 0 55 57" fill="none" xmlns="http://www.w3.org/2000/svg">
<circle cx="27.7648" cy="27.8448" r="27.1632" fill="#F1F2F6"/>
<path d="M33.0157 34.9355L27.7087 29.5883L22.3615 34.9355C22.1203 35.1767 21.7182 35.1767 21.4368 34.9355C21.1956 34.654 21.1956 34.252 21.4368 34.0108L26.784 28.6636L21.4368 23.3566C21.1956 23.1154 21.1956 22.7133 21.4368 22.4319C21.7182 22.1907 22.1203 22.1907 22.3615 22.4319L27.7087 27.7791L33.0157 22.4319C33.2569 22.1907 33.6589 22.1907 33.9404 22.4319C34.1816 22.7133 34.1816 23.1154 33.9404 23.3566L28.5932 28.6636L33.9404 34.0108C34.1816 34.252 34.1816 34.654 33.9404 34.9355C33.6589 35.1767 33.2569 35.1767 33.0157 34.9355Z" fill="#777FA1"/>
</svg>
