<svg width="17" height="16" viewBox="0 0 17 16" fill="none" xmlns="http://www.w3.org/2000/svg">
<path d="M10.6934 2.97701L12.4341 2.30514L13.0754 0.594944C13.106 0.442248 13.2587 0.35063 13.4114 0.35063C13.5335 0.35063 13.6862 0.442248 13.7168 0.594944L14.3886 2.30514L16.0988 2.97701C16.2515 3.00755 16.3431 3.16024 16.3431 3.2824C16.3431 3.4351 16.2515 3.58779 16.0988 3.61833L14.3886 4.25966L13.7168 6.0004C13.6862 6.12255 13.5335 6.21417 13.4114 6.21417C13.2587 6.21417 13.106 6.12255 13.0754 6.0004L12.4341 4.25966L10.6934 3.61833C10.5712 3.58779 10.4796 3.4351 10.4796 3.2824C10.4796 3.16024 10.5712 3.00755 10.6934 2.97701ZM6.96758 2.61054L8.55563 6.09201L12.0371 7.68006C12.2203 7.77167 12.3425 7.95491 12.3425 8.13815C12.3425 8.32138 12.2203 8.50462 12.0371 8.5657L8.55563 10.1843L6.96758 13.6658C6.87597 13.849 6.69273 13.9711 6.50949 13.9711C6.32626 13.9711 6.14302 13.849 6.08194 13.6658L4.46336 10.1843L0.981885 8.59624C0.798649 8.50462 0.707031 8.32138 0.707031 8.13815C0.707031 7.95491 0.798649 7.77167 0.981885 7.68006L4.46336 6.09201L6.08194 2.61054C6.14302 2.4273 6.32626 2.30514 6.50949 2.30514C6.69273 2.30514 6.87597 2.4273 6.96758 2.61054ZM12.4341 12.0777L13.0754 10.3675C13.106 10.2148 13.2587 10.1232 13.4114 10.1232C13.5335 10.1232 13.6862 10.2148 13.7168 10.3675L14.3886 12.0777L16.0988 12.7496C16.2515 12.7801 16.3431 12.9328 16.3431 13.055C16.3431 13.2077 16.2515 13.3604 16.0988 13.3909L14.3886 14.0322L13.7168 15.773C13.6862 15.8951 13.5335 15.9867 13.4114 15.9867C13.2587 15.9867 13.106 15.8951 13.0754 15.773L12.4341 14.0322L10.6934 13.3909C10.5712 13.3604 10.4796 13.2077 10.4796 13.055C10.4796 12.9328 10.5712 12.7801 10.6934 12.7496L12.4341 12.0777Z" fill="#42A4EE"/>
</svg>
