<svg width="33" height="32" viewBox="0 0 33 32" fill="none" xmlns="http://www.w3.org/2000/svg">
<path d="M0.878906 8.63426C0.878906 3.92394 4.69737 0.105469 9.40769 0.105469H23.6223C28.3327 0.105469 32.1511 3.92394 32.1511 8.63426V22.8489C32.1511 27.5592 28.3327 31.3777 23.6223 31.3777H9.40769C4.69738 31.3777 0.878906 27.5592 0.878906 22.8489V8.63426Z" fill="#CE3838"/>
<path d="M9.89844 11.3312C9.89844 10.4566 10.5981 9.73201 11.4976 9.73201H21.0925C21.967 9.73201 22.6916 10.4566 22.6916 11.3312V12.9303C22.6916 13.8298 21.967 14.5294 21.0925 14.5294H13.8963V16.9282C13.8963 17.3779 14.2461 17.7277 14.6959 17.7277H15.4955C15.4955 16.8532 16.1951 16.1286 17.0946 16.1286H21.0925C21.967 16.1286 22.6916 16.8532 22.6916 17.7277V19.3269C22.6916 20.2264 21.967 20.926 21.0925 20.926H17.0946C16.1951 20.926 15.4955 20.2264 15.4955 19.3269H14.6959C13.3716 19.3269 12.2972 18.2525 12.2972 16.9282V14.5294H11.4976C10.5981 14.5294 9.89844 13.8298 9.89844 12.9303V11.3312ZM21.0925 17.7277H17.0946V19.3269H21.0925V17.7277Z" fill="white"/>
</svg>
