<svg width="11" height="12" viewBox="0 0 11 12" fill="none" xmlns="http://www.w3.org/2000/svg">
<path d="M5.43066 6.03906C4.44238 6.03906 3.54004 5.52344 3.0459 4.66406C2.55176 3.82617 2.55176 2.77344 3.0459 1.91406C3.54004 1.07617 4.44238 0.539062 5.43066 0.539062C6.39746 0.539062 7.2998 1.07617 7.79395 1.91406C8.28809 2.77344 8.28809 3.82617 7.79395 4.66406C7.2998 5.52344 6.39746 6.03906 5.43066 6.03906ZM4.44238 7.07031H6.39746C8.52441 7.07031 10.2432 8.78906 10.2432 10.916C10.2432 11.2598 9.94238 11.5391 9.59863 11.5391H1.24121C0.897461 11.5391 0.618164 11.2598 0.618164 10.916C0.618164 8.78906 2.31543 7.07031 4.44238 7.07031Z" fill="#777FA1"/>
</svg>
