<svg width="10" height="13" viewBox="0 0 10 13" fill="none" xmlns="http://www.w3.org/2000/svg">
<path d="M1.52441 0.900391H8.27441C8.88379 0.900391 9.39941 1.41602 9.39941 2.02539V11.7754C9.39941 12.4082 8.88379 12.9004 8.27441 12.9004H6.02441V11.0254C6.02441 10.416 5.50879 9.90039 4.89941 9.90039C4.2666 9.90039 3.77441 10.416 3.77441 11.0254V12.9004H1.52441C0.891602 12.9004 0.399414 12.4082 0.399414 11.7754V2.02539C0.399414 1.41602 0.891602 0.900391 1.52441 0.900391ZM1.89941 6.52539V7.27539C1.89941 7.48633 2.06348 7.65039 2.27441 7.65039H3.02441C3.21191 7.65039 3.39941 7.48633 3.39941 7.27539V6.52539C3.39941 6.33789 3.21191 6.15039 3.02441 6.15039H2.27441C2.06348 6.15039 1.89941 6.33789 1.89941 6.52539ZM4.52441 6.15039C4.31348 6.15039 4.14941 6.33789 4.14941 6.52539V7.27539C4.14941 7.48633 4.31348 7.65039 4.52441 7.65039H5.27441C5.46191 7.65039 5.64941 7.48633 5.64941 7.27539V6.52539C5.64941 6.33789 5.46191 6.15039 5.27441 6.15039H4.52441ZM6.39941 6.52539V7.27539C6.39941 7.48633 6.56348 7.65039 6.77441 7.65039H7.52441C7.71191 7.65039 7.89941 7.48633 7.89941 7.27539V6.52539C7.89941 6.33789 7.71191 6.15039 7.52441 6.15039H6.77441C6.56348 6.15039 6.39941 6.33789 6.39941 6.52539ZM2.27441 3.15039C2.06348 3.15039 1.89941 3.33789 1.89941 3.52539V4.27539C1.89941 4.48633 2.06348 4.65039 2.27441 4.65039H3.02441C3.21191 4.65039 3.39941 4.48633 3.39941 4.27539V3.52539C3.39941 3.33789 3.21191 3.15039 3.02441 3.15039H2.27441ZM4.14941 3.52539V4.27539C4.14941 4.48633 4.31348 4.65039 4.52441 4.65039H5.27441C5.46191 4.65039 5.64941 4.48633 5.64941 4.27539V3.52539C5.64941 3.33789 5.46191 3.15039 5.27441 3.15039H4.52441C4.31348 3.15039 4.14941 3.33789 4.14941 3.52539ZM6.77441 3.15039C6.56348 3.15039 6.39941 3.33789 6.39941 3.52539V4.27539C6.39941 4.48633 6.56348 4.65039 6.77441 4.65039H7.52441C7.71191 4.65039 7.89941 4.48633 7.89941 4.27539V3.52539C7.89941 3.33789 7.71191 3.15039 7.52441 3.15039H6.77441Z" fill="#777FA1"/>
</svg>
