<svg width="11" height="12" viewBox="0 0 11 12" fill="none" xmlns="http://www.w3.org/2000/svg">
<path d="M3.3731 1.51179L4.19128 3.47543C4.33446 3.8027 4.25265 4.19133 3.96628 4.41633L2.96401 5.25497C3.63901 6.68679 4.80492 7.8527 6.23674 8.5277L7.07537 7.52543C7.30037 7.23906 7.68901 7.15724 8.01628 7.30043L9.97992 8.11861C10.3686 8.26179 10.5526 8.69134 10.4504 9.07997L9.95946 10.88C9.85719 11.2277 9.55037 11.4732 9.18219 11.4732C4.10946 11.4732 0.0185547 7.38224 0.0185547 2.30952C0.0185547 1.94133 0.264009 1.63452 0.611737 1.53224L2.41174 1.04133C2.80037 0.939062 3.22992 1.12315 3.3731 1.51179Z" fill="#777FA1"/>
</svg>
