<svg width="8" height="10" viewBox="0 0 8 10" fill="none" xmlns="http://www.w3.org/2000/svg">
<path d="M0.9375 0H6.5625C7.07031 0 7.5 0.429688 7.5 0.9375V9.0625C7.5 9.58984 7.07031 10 6.5625 10H4.6875V8.4375C4.6875 7.92969 4.25781 7.5 3.75 7.5C3.22266 7.5 2.8125 7.92969 2.8125 8.4375V10H0.9375C0.410156 10 0 9.58984 0 9.0625V0.9375C0 0.429688 0.410156 0 0.9375 0ZM1.25 4.6875V5.3125C1.25 5.48828 1.38672 5.625 1.5625 5.625H2.1875C2.34375 5.625 2.5 5.48828 2.5 5.3125V4.6875C2.5 4.53125 2.34375 4.375 2.1875 4.375H1.5625C1.38672 4.375 1.25 4.53125 1.25 4.6875ZM3.4375 4.375C3.26172 4.375 3.125 4.53125 3.125 4.6875V5.3125C3.125 5.48828 3.26172 5.625 3.4375 5.625H4.0625C4.21875 5.625 4.375 5.48828 4.375 5.3125V4.6875C4.375 4.53125 4.21875 4.375 4.0625 4.375H3.4375ZM5 4.6875V5.3125C5 5.48828 5.13672 5.625 5.3125 5.625H5.9375C6.09375 5.625 6.25 5.48828 6.25 5.3125V4.6875C6.25 4.53125 6.09375 4.375 5.9375 4.375H5.3125C5.13672 4.375 5 4.53125 5 4.6875ZM1.5625 1.875C1.38672 1.875 1.25 2.03125 1.25 2.1875V2.8125C1.25 2.98828 1.38672 3.125 1.5625 3.125H2.1875C2.34375 3.125 2.5 2.98828 2.5 2.8125V2.1875C2.5 2.03125 2.34375 1.875 2.1875 1.875H1.5625ZM3.125 2.1875V2.8125C3.125 2.98828 3.26172 3.125 3.4375 3.125H4.0625C4.21875 3.125 4.375 2.98828 4.375 2.8125V2.1875C4.375 2.03125 4.21875 1.875 4.0625 1.875H3.4375C3.26172 1.875 3.125 2.03125 3.125 2.1875ZM5.3125 1.875C5.13672 1.875 5 2.03125 5 2.1875V2.8125C5 2.98828 5.13672 3.125 5.3125 3.125H5.9375C6.09375 3.125 6.25 2.98828 6.25 2.8125V2.1875C6.25 2.03125 6.09375 1.875 5.9375 1.875H5.3125Z" fill="#777FA1"/>
</svg>
