<svg width="8" height="10" viewBox="0 0 8 10" fill="none" xmlns="http://www.w3.org/2000/svg">
<path d="M4.19922 9.76562C3.96484 10.0586 3.51562 10.0586 3.28125 9.76562C2.28516 8.49609 0 5.46875 0 3.75C0 1.67969 1.67969 0 3.75 0C5.82031 0 7.5 1.67969 7.5 3.75C7.5 5.46875 5.21484 8.49609 4.19922 9.76562ZM3.75 2.5C3.30078 2.5 2.89062 2.75391 2.65625 3.125C2.44141 3.51562 2.44141 4.00391 2.65625 4.375C2.89062 4.76562 3.30078 5 3.75 5C4.17969 5 4.58984 4.76562 4.82422 4.375C5.03906 4.00391 5.03906 3.51562 4.82422 3.125C4.58984 2.75391 4.17969 2.5 3.75 2.5Z" fill="#777FA1"/>
</svg>
