<svg width="48" height="48" viewBox="0 0 48 48" fill="none" xmlns="http://www.w3.org/2000/svg">
<circle cx="24.099" cy="23.9007" r="23.9007" fill="white"/>
<path d="M23.3561 35.3644L20.5205 39.2145L19.8574 38.6272L23.3081 33.9375L23.3517 34.403L23.1074 34.7119C23.1074 34.7119 20.4027 38.3792 20.25 38.5837C20.3242 38.6489 20.3853 38.6968 20.4682 38.7751C20.647 38.5402 23.2863 34.9598 23.2863 34.9598L23.3561 35.3644Z" fill="#2D2A26"/>
<path d="M8.734 22.1777L11.2991 25.1316C11.2991 25.1316 10.3656 25.5057 10.335 26.8065L10.1867 26.5629C10.1867 26.5629 8.88233 25.6232 8.27595 24.64C8.27595 24.64 7.36856 23.3958 8.734 22.1777Z" fill="white"/>
<path d="M13.0483 29.4643L10.3348 26.8105C10.3348 26.8105 10.4526 27.363 10.1603 27.7676C9.8724 28.1679 7.86568 29.8514 7.89186 31.5568L9.34891 33.8015C9.34891 33.8015 9.44488 31.8439 12.8912 29.9645" fill="white"/>
<path d="M17.1053 25.1919C17.1053 25.1919 15.8314 24.3566 14.0166 27.3932C11.9532 26.2229 9.49716 23.1429 9.34883 22.995C9.20051 22.8471 6.25586 18.4489 6.25586 18.4489C6.25586 18.4489 6.84915 15.4167 8.7599 13.9941C8.95621 13.9941 9.54514 14.886 9.54514 14.886C9.54514 14.886 9.25286 16.6913 11.6042 19.8671C13.9643 23.0515 15.6875 23.9303 16.1761 23.9825C16.669 24.026 17.1053 25.2006 17.1053 25.2006" fill="#CE0E2D"/>
<path d="M9.41403 33.8977L9.37041 34.0718L7.88281 31.7008L7.99187 31.666L9.41403 33.8977Z" fill="#2D2A26"/>
<path d="M39.2663 22.1777L36.7012 25.1316C36.7012 25.1316 37.6347 25.5057 37.6653 26.8065L37.8136 26.5629C37.8136 26.5629 39.118 25.6232 39.7244 24.64C39.7244 24.64 40.6317 23.3958 39.2663 22.1777Z" fill="white"/>
<path d="M34.9521 29.4643L37.6656 26.8105C37.6656 26.8105 37.5478 27.363 37.8401 27.7676C38.128 28.1679 40.1347 29.8514 40.1086 31.5568L38.6515 33.8015C38.6515 33.8015 38.5555 31.8439 35.1092 29.9645" fill="white"/>
<path d="M41.7445 18.4492C41.7445 18.4492 39.4804 21.8468 39.2928 22.1166C39.1663 22.2949 40.3441 22.9997 39.8774 24.3178C39.8206 24.4788 37.7223 26.6322 37.6743 26.6801C37.6263 26.7279 37.4257 27.3979 37.971 27.9852C38.5075 28.5725 39.9341 30.0385 39.9821 31.013C40.0344 31.9962 40.126 31.7003 40.126 31.7003C40.126 31.7003 41.269 29.6948 41.8012 29.3033C42.3421 28.9161 41.5525 28.2331 41.4042 28.0374C41.2646 27.8416 39.5371 25.8317 39.5894 25.4446C39.6374 25.0487 42.3814 21.9208 42.3421 21.725C42.2985 21.5336 42.4337 20.8419 41.7488 18.4492" fill="#00833E"/>
<path d="M30.8945 25.1919C30.8945 25.1919 32.1684 24.3566 33.9832 27.3932C36.0466 26.2229 38.5026 23.1429 38.651 22.995C38.7993 22.8471 41.7439 18.4489 41.7439 18.4489C41.7439 18.4489 41.1506 15.4167 39.2399 13.9941C39.0436 13.9941 38.4547 14.886 38.4547 14.886C38.4547 14.886 38.7469 16.6913 36.3956 19.8671C34.0355 23.0515 32.3123 23.9303 31.8237 23.9825C31.3308 24.026 30.8945 25.2006 30.8945 25.2006" fill="#CE0E2D"/>
<path d="M24.6787 35.3644L27.5143 39.2145L28.1774 38.6272L24.7267 33.9375L24.6831 34.403L24.9274 34.7119C24.9274 34.7119 27.6321 38.3792 27.7848 38.5837C27.7106 38.6489 27.6495 38.6968 27.5667 38.7751C27.3878 38.5402 24.7485 34.9598 24.7485 34.9598L24.6787 35.3644Z" fill="#2D2A26"/>
<path d="M9.16944 13.2764C9.17816 13.3939 9.15198 13.42 9.1389 13.4287C9.05601 13.4983 8.81608 13.4635 8.68085 13.42L8.24023 13.2764L22.9155 33.0313C22.9591 33.0965 23.0551 33.1052 23.1205 33.0617C23.1598 33.0313 23.1816 32.9878 23.1816 32.9443L23.1511 32.8573C23.1511 32.8573 9.38756 14.3248 8.96876 13.7636C9.09091 13.7636 9.22179 13.7375 9.32213 13.6592L9.38756 13.5983C9.73656 14.0725 22.8195 31.8219 22.8195 31.8219C22.8675 31.8871 22.9591 31.9002 23.0246 31.848C23.09 31.8045 23.1031 31.7088 23.0551 31.6435L9.1389 12.75L9.18252 13.2807L9.16944 13.2764Z" fill="#2D2A26"/>
<path d="M38.5856 13.1768L24.4426 32.3705C24.3946 32.4314 24.4033 32.5227 24.4687 32.5749C24.5342 32.6228 24.6345 32.6054 24.6781 32.5401C24.6781 32.5401 38.289 14.0642 38.6336 13.5901L38.6947 13.6553C38.7994 13.7336 38.9259 13.7597 39.0524 13.7597C38.6336 14.3209 24.5778 33.1927 24.5778 33.1927L24.5473 33.2753C24.5473 33.3188 24.5691 33.3623 24.6083 33.3971C24.6738 33.4406 24.7654 33.4319 24.8134 33.3623L39.7809 13.2681L39.336 13.416C39.2051 13.4552 38.9651 13.49 38.8823 13.4247C38.8692 13.416 38.8343 13.3899 38.843 13.2768L38.891 12.7461L38.5813 13.1768H38.5856Z" fill="#2D2A26"/>
<path d="M26.4147 20.0075C26.4147 20.0075 26.0526 18.7459 25.0361 19.3637L25.0536 19.6812C25.0536 19.6812 25.9479 19.2636 25.9479 19.9466L26.4147 20.0119V20.0075Z" fill="#954B2D"/>
<path d="M25.0139 19.3293L24.9834 19.3423L25.0052 19.7426L25.0619 19.7164C25.0619 19.7164 25.5418 19.4989 25.7686 19.6425C25.8559 19.7034 25.8995 19.7991 25.8995 19.9427V19.9818L26.471 20.0645L26.4448 19.9992C26.4448 19.9731 26.2703 19.3771 25.8079 19.1988C25.5723 19.1074 25.3019 19.1509 25.0096 19.3293M25.7817 19.2814C26.1176 19.4119 26.2878 19.8035 26.3488 19.9557C26.2485 19.9427 26.0304 19.9122 25.9868 19.9035C25.978 19.7513 25.9213 19.6381 25.8253 19.5685C25.6029 19.4293 25.2321 19.5555 25.0925 19.6164C25.0925 19.5424 25.0837 19.4293 25.0794 19.3945C25.3411 19.2466 25.5767 19.2031 25.7861 19.2814" fill="#2D2A26"/>
<path d="M26.1699 22.6263C26.0565 22.6263 25.9736 22.5219 25.9736 22.3043C25.9736 22.0868 26.0565 21.9824 26.1699 21.9824C26.2834 21.9824 26.375 22.0912 26.375 22.3043C26.375 22.5175 26.2877 22.6263 26.1699 22.6263Z" fill="#954B2D"/>
<path d="M25.9219 22.3049C25.9219 22.5746 26.0571 22.6703 26.1662 22.6703C26.2752 22.6703 26.4105 22.5746 26.4105 22.3049C26.4105 22.0352 26.2796 21.9395 26.1662 21.9395C26.0527 21.9395 25.9219 22.0352 25.9219 22.3049ZM26.0135 22.3049C26.0135 22.1396 26.0789 22.0265 26.1705 22.0265C26.2665 22.0265 26.3276 22.1396 26.3276 22.3049C26.3276 22.4702 26.2665 22.5833 26.1705 22.5833C26.0789 22.5833 26.0135 22.4745 26.0135 22.3049Z" fill="#2D2A26"/>
<path d="M26.5625 22.261C26.4535 22.261 26.3662 22.1523 26.3662 21.9348C26.3662 21.7172 26.4491 21.6172 26.5625 21.6172C26.6759 21.6172 26.7675 21.7216 26.7675 21.9348C26.7675 22.1479 26.6759 22.261 26.5625 22.261Z" fill="#954B2D"/>
<path d="M26.3184 21.9338C26.3184 22.2035 26.4492 22.3036 26.5627 22.3036C26.6761 22.3036 26.807 22.2035 26.807 21.9338C26.807 21.6641 26.6761 21.5684 26.5627 21.5684C26.4492 21.5684 26.3184 21.6641 26.3184 21.9338ZM26.41 21.9338C26.41 21.7728 26.4667 21.6597 26.5627 21.6597C26.6586 21.6597 26.7241 21.7728 26.7241 21.9338C26.7241 22.1078 26.663 22.2166 26.5627 22.2166C26.4623 22.2166 26.41 22.1078 26.41 21.9338Z" fill="#2D2A26"/>
<path d="M25.7382 22.225C25.6161 22.225 25.5332 22.1249 25.5332 21.9118C25.5332 21.6986 25.6161 21.5898 25.7382 21.5898C25.8517 21.5898 25.9345 21.6943 25.9345 21.9118C25.9345 22.1293 25.8517 22.225 25.7382 22.225Z" fill="#954B2D"/>
<path d="M25.4902 21.9123C25.4902 22.182 25.6167 22.2777 25.7389 22.2777C25.8523 22.2777 25.9788 22.182 25.9788 21.9123C25.9788 21.6426 25.8523 21.5469 25.7389 21.5469C25.6167 21.5469 25.4902 21.6382 25.4902 21.9123ZM25.5775 21.9123C25.5775 21.7426 25.6429 21.6339 25.7389 21.6339C25.8349 21.6339 25.8916 21.7426 25.8916 21.9123C25.8916 22.082 25.8349 22.1907 25.7389 22.1907C25.6429 22.1907 25.5775 22.0776 25.5775 21.9123Z" fill="#2D2A26"/>
<path d="M25.9483 22.3528C25.8348 22.3528 25.752 22.2441 25.752 22.0309C25.752 21.8177 25.8392 21.709 25.9483 21.709C26.066 21.709 26.1533 21.8177 26.1533 22.0309C26.1533 22.2441 26.066 22.3528 25.9483 22.3528Z" fill="#954B2D"/>
<path d="M25.7119 22.0251C25.7119 22.2992 25.8384 22.3906 25.9518 22.3906C26.0696 22.3906 26.2049 22.2992 26.2049 22.0251C26.2049 21.7511 26.0696 21.6641 25.9518 21.6641C25.8341 21.6641 25.7119 21.7554 25.7119 22.0251ZM25.7992 22.0251C25.7992 21.8555 25.8602 21.7467 25.9518 21.7467C26.0522 21.7467 26.1133 21.8511 26.1133 22.0251C26.1133 22.1992 26.0522 22.3079 25.9518 22.3079C25.8602 22.3079 25.7992 22.1992 25.7992 22.0251Z" fill="#2D2A26"/>
<path d="M26.288 22.3528C26.179 22.3528 26.083 22.2441 26.083 22.0309C26.083 21.8177 26.179 21.709 26.288 21.709C26.3971 21.709 26.4887 21.8177 26.4887 22.0309C26.4887 22.2441 26.4015 22.3528 26.288 22.3528Z" fill="#954B2D"/>
<path d="M26.0391 22.0251C26.0391 22.2992 26.1699 22.3906 26.2834 22.3906C26.3968 22.3906 26.5277 22.2992 26.5277 22.0251C26.5277 21.7511 26.3968 21.6641 26.2834 21.6641C26.1699 21.6641 26.0391 21.7554 26.0391 22.0251ZM26.1307 22.0251C26.1307 21.8555 26.183 21.7467 26.2834 21.7467C26.3793 21.7467 26.4404 21.8511 26.4404 22.0251C26.4404 22.1992 26.3793 22.3079 26.2834 22.3079C26.183 22.3079 26.1307 22.1992 26.1307 22.0251Z" fill="#2D2A26"/>
<path d="M26.5239 21.9032C26.4061 21.9032 26.3145 21.7944 26.3145 21.5856C26.3145 21.3768 26.4061 21.2637 26.5239 21.2637C26.6329 21.2637 26.7245 21.3681 26.7245 21.5856C26.7245 21.8031 26.6329 21.9032 26.5239 21.9032Z" fill="#954B2D"/>
<path d="M26.2793 21.5827C26.2793 21.848 26.4058 21.9481 26.528 21.9481C26.637 21.9481 26.7723 21.8524 26.7723 21.5827C26.7723 21.3129 26.6414 21.2129 26.528 21.2129C26.4102 21.2129 26.2793 21.3042 26.2793 21.5827ZM26.3709 21.5827C26.3709 21.413 26.4233 21.3042 26.528 21.3042C26.6152 21.3042 26.6763 21.413 26.6763 21.5827C26.6763 21.7523 26.6108 21.8567 26.528 21.8567C26.4276 21.8567 26.3709 21.748 26.3709 21.5827Z" fill="#2D2A26"/>
<path d="M26.1962 21.9427C26.0828 21.9427 25.9912 21.8339 25.9912 21.6251C25.9912 21.4163 26.0828 21.2988 26.1962 21.2988C26.3097 21.2988 26.3969 21.4076 26.3969 21.6251C26.3969 21.8426 26.3097 21.9427 26.1962 21.9427Z" fill="#954B2D"/>
<path d="M25.9482 21.6217C25.9482 21.8958 26.0835 21.9915 26.1969 21.9915C26.3103 21.9915 26.4412 21.9002 26.4412 21.6217C26.4412 21.3433 26.3103 21.252 26.1969 21.252C26.0835 21.252 25.9482 21.352 25.9482 21.6217ZM26.0399 21.6217C26.0399 21.4521 26.0966 21.339 26.1969 21.339C26.2972 21.339 26.354 21.4521 26.354 21.6217C26.354 21.7914 26.2929 21.8958 26.1969 21.8958C26.0966 21.8958 26.0399 21.7827 26.0399 21.6217Z" fill="#2D2A26"/>
<path d="M25.8256 21.9509C25.7078 21.9509 25.6162 21.8465 25.6162 21.6203C25.6162 21.4115 25.7078 21.3027 25.8256 21.3027C25.9347 21.3027 26.0219 21.4115 26.0219 21.6203C26.0219 21.8465 25.9347 21.9509 25.8256 21.9509Z" fill="#954B2D"/>
<path d="M25.5723 21.6247C25.5723 21.8988 25.7031 21.9945 25.8253 21.9945C25.9343 21.9945 26.0696 21.8988 26.0696 21.6247C26.0696 21.3507 25.9343 21.2637 25.8253 21.2637C25.7031 21.2637 25.5723 21.3637 25.5723 21.6247ZM25.6682 21.6247C25.6682 21.4551 25.7249 21.3507 25.8253 21.3507C25.9169 21.3507 25.9736 21.4551 25.9736 21.6247C25.9736 21.7944 25.9169 21.9032 25.8253 21.9032C25.7249 21.9032 25.6682 21.7944 25.6682 21.6247Z" fill="#2D2A26"/>
<path d="M25.5161 21.7508C25.4027 21.7508 25.3154 21.6464 25.3154 21.4289C25.3154 21.2114 25.4027 21.1113 25.5161 21.1113C25.6295 21.1113 25.7168 21.2157 25.7168 21.4289C25.7168 21.6421 25.6295 21.7508 25.5161 21.7508Z" fill="#954B2D"/>
<path d="M25.2715 21.426C25.2715 21.6957 25.4067 21.7958 25.5158 21.7958C25.6248 21.7958 25.7557 21.7 25.7557 21.426C25.7557 21.1519 25.6248 21.0605 25.5158 21.0605C25.4067 21.0605 25.2715 21.1563 25.2715 21.426ZM25.3587 21.426C25.3587 21.2563 25.4198 21.1476 25.5158 21.1476C25.6118 21.1476 25.6772 21.2563 25.6772 21.426C25.6772 21.5956 25.6118 21.7044 25.5158 21.7044C25.4198 21.7044 25.3587 21.5956 25.3587 21.426Z" fill="#2D2A26"/>
<path d="M25.7686 21.5002C25.6595 21.5002 25.5723 21.3914 25.5723 21.1783C25.5723 20.9651 25.6595 20.8477 25.7686 20.8477C25.8776 20.8477 25.9736 20.9608 25.9736 21.1783C25.9736 21.3958 25.8776 21.5002 25.7686 21.5002Z" fill="#954B2D"/>
<path d="M25.5156 21.1818C25.5156 21.4472 25.6552 21.5473 25.7686 21.5473C25.8821 21.5473 26.0129 21.4472 26.0129 21.1818C26.0129 20.9165 25.8821 20.8164 25.7686 20.8164C25.6552 20.8164 25.5156 20.9121 25.5156 21.1818ZM25.6072 21.1818C25.6072 21.0078 25.6727 20.9034 25.7643 20.9034C25.8603 20.9034 25.917 21.0122 25.917 21.1818C25.917 21.3515 25.8603 21.4559 25.7643 21.4559C25.6727 21.4559 25.6072 21.3515 25.6072 21.1818Z" fill="#2D2A26"/>
<path d="M26.1182 21.4685C26.0091 21.4685 25.9219 21.3598 25.9219 21.1422C25.9219 20.9247 26.0091 20.8203 26.1182 20.8203C26.2273 20.8203 26.3189 20.9334 26.3189 21.1422C26.3189 21.3511 26.2316 21.4685 26.1182 21.4685Z" fill="#954B2D"/>
<path d="M25.8779 21.1428C25.8779 21.4168 26.0088 21.5082 26.1222 21.5082C26.24 21.5082 26.3753 21.4168 26.3753 21.1428C26.3753 20.8687 26.2444 20.7773 26.1222 20.7773C26.0001 20.7773 25.8779 20.8731 25.8779 21.1428ZM25.9652 21.1428C25.9652 20.9731 26.0263 20.8644 26.1222 20.8644C26.2182 20.8644 26.2836 20.9731 26.2836 21.1428C26.2836 21.3124 26.2226 21.4212 26.1222 21.4212C26.0219 21.4212 25.9652 21.3124 25.9652 21.1428Z" fill="#2D2A26"/>
<path d="M26.4492 21.3685C26.3402 21.3685 26.2529 21.2641 26.2529 21.0422C26.2529 20.8203 26.3402 20.7246 26.4492 20.7246C26.567 20.7246 26.6499 20.8334 26.6499 21.0422C26.6499 21.2641 26.567 21.3685 26.4492 21.3685Z" fill="#954B2D"/>
<path d="M26.21 21.0432C26.21 21.3172 26.3408 21.4129 26.4543 21.4129C26.572 21.4129 26.7029 21.3216 26.7029 21.0432C26.7029 20.7647 26.572 20.6777 26.4543 20.6777C26.3452 20.6777 26.21 20.7778 26.21 21.0432ZM26.2972 21.0432C26.2972 20.8778 26.3583 20.7691 26.4499 20.7691C26.5502 20.7691 26.6113 20.8778 26.6113 21.0432C26.6113 21.2085 26.5502 21.3259 26.4499 21.3259C26.3583 21.3259 26.2972 21.2128 26.2972 21.0432Z" fill="#2D2A26"/>
<path d="M26.7763 21.1165C26.6585 21.1165 26.5713 21.0077 26.5713 20.7946C26.5713 20.5814 26.6585 20.4727 26.7763 20.4727C26.8854 20.4727 26.977 20.5814 26.977 20.7946C26.977 21.0077 26.8854 21.1165 26.7763 21.1165Z" fill="#954B2D"/>
<path d="M26.5283 20.7951C26.5283 21.0648 26.6592 21.1649 26.777 21.1649C26.8948 21.1649 27.0213 21.0648 27.0213 20.7951C27.0213 20.5254 26.8904 20.4297 26.777 20.4297C26.6635 20.4297 26.5283 20.5254 26.5283 20.7951ZM26.6112 20.7951C26.6112 20.6255 26.6766 20.5167 26.7726 20.5167C26.8642 20.5167 26.9253 20.6255 26.9253 20.7951C26.9253 20.9648 26.8642 21.0735 26.7726 21.0735C26.6723 21.0735 26.6112 20.9604 26.6112 20.7951Z" fill="#2D2A26"/>
<path d="M25.9873 21.0336C25.8738 21.0336 25.7822 20.9248 25.7822 20.7117C25.7822 20.4985 25.8738 20.3984 25.9873 20.3984C26.1007 20.3984 26.1836 20.5028 26.1836 20.7117C26.1836 20.9205 26.0963 21.0336 25.9873 21.0336Z" fill="#954B2D"/>
<path d="M25.7432 20.7068C25.7432 20.9765 25.874 21.0766 25.9918 21.0766C26.1009 21.0766 26.2318 20.9765 26.2318 20.7068C26.2318 20.4371 26.1009 20.3457 25.9918 20.3457C25.874 20.3457 25.7432 20.4458 25.7432 20.7068ZM25.8348 20.7068C25.8348 20.5415 25.8915 20.4327 25.9918 20.4327C26.0922 20.4327 26.1445 20.5415 26.1445 20.7068C26.1445 20.8808 26.0834 20.9896 25.9918 20.9896C25.8915 20.9896 25.8348 20.8808 25.8348 20.7068Z" fill="#2D2A26"/>
<path d="M25.5722 21.0638C25.4544 21.0638 25.3672 20.9594 25.3672 20.7418C25.3672 20.5243 25.4588 20.4199 25.5722 20.4199C25.6769 20.4199 25.7685 20.5287 25.7685 20.7418C25.7685 20.955 25.6769 21.0638 25.5722 21.0638Z" fill="#954B2D"/>
<path d="M25.3242 20.7424C25.3242 21.0121 25.4551 21.1078 25.5685 21.1078C25.6776 21.1078 25.8128 21.0078 25.8128 20.7424C25.8128 20.477 25.6776 20.377 25.5685 20.377C25.4507 20.377 25.3242 20.4683 25.3242 20.7424ZM25.4071 20.7424C25.4071 20.5771 25.4725 20.4683 25.5685 20.4683C25.6645 20.4683 25.7212 20.5727 25.7212 20.7424C25.7212 20.912 25.6645 21.0252 25.5685 21.0252C25.4725 21.0252 25.4071 20.912 25.4071 20.7424Z" fill="#2D2A26"/>
<path d="M25.752 20.6165C25.6386 20.6165 25.5557 20.5121 25.5557 20.2902C25.5557 20.0684 25.6386 19.9727 25.752 19.9727C25.8654 19.9727 25.9483 20.0814 25.9483 20.2902C25.9483 20.499 25.861 20.6165 25.752 20.6165Z" fill="#954B2D"/>
<path d="M25.5029 20.2951C25.5029 20.5692 25.6338 20.6649 25.7516 20.6649C25.8694 20.6649 26.0002 20.5735 26.0002 20.2951C26.0002 20.0167 25.8694 19.9297 25.7516 19.9297C25.6338 19.9297 25.5029 20.0254 25.5029 20.2951ZM25.5945 20.2951C25.5945 20.1342 25.6556 20.021 25.7516 20.021C25.8519 20.021 25.9086 20.1342 25.9086 20.2951C25.9086 20.4691 25.8476 20.5735 25.7516 20.5735C25.66 20.5735 25.5945 20.4691 25.5945 20.2951Z" fill="#2D2A26"/>
<path d="M26.0869 20.4954C25.9735 20.4954 25.8906 20.391 25.8906 20.1778C25.8906 19.9647 25.9779 19.8516 26.0869 19.8516C26.196 19.8516 26.292 19.9647 26.292 20.1778C26.292 20.391 26.2047 20.4954 26.0869 20.4954Z" fill="#954B2D"/>
<path d="M25.8389 20.1803C25.8389 20.45 25.9741 20.5458 26.0875 20.5458C26.201 20.5458 26.3275 20.4544 26.3275 20.1803C26.3275 19.9063 26.2053 19.8105 26.0875 19.8105C25.9697 19.8105 25.8389 19.9106 25.8389 20.1803ZM25.9348 20.1803C25.9348 20.0063 25.9959 19.9019 26.0919 19.9019C26.1879 19.9019 26.2489 20.0107 26.2489 20.1803C26.2489 20.35 26.1835 20.4587 26.0919 20.4587C26.0003 20.4587 25.9348 20.35 25.9348 20.1803Z" fill="#2D2A26"/>
<path d="M26.3403 20.8821C26.2269 20.8821 26.1396 20.7734 26.1396 20.5559C26.1396 20.3383 26.2313 20.2383 26.3403 20.2383C26.4494 20.2383 26.541 20.347 26.541 20.5559C26.541 20.7647 26.4494 20.8821 26.3403 20.8821Z" fill="#954B2D"/>
<path d="M26.0957 20.5544C26.0957 20.8285 26.2266 20.9242 26.34 20.9242C26.4534 20.9242 26.5843 20.8285 26.5843 20.5544C26.5843 20.2804 26.4491 20.1934 26.34 20.1934C26.2309 20.1934 26.0957 20.2891 26.0957 20.5544ZM26.1786 20.5544C26.1786 20.3891 26.244 20.2804 26.3356 20.2804C26.4273 20.2804 26.4883 20.3935 26.4883 20.5544C26.4883 20.7285 26.4316 20.8372 26.3356 20.8372C26.2397 20.8372 26.1786 20.7241 26.1786 20.5544Z" fill="#2D2A26"/>
<path d="M26.6108 20.5774C26.4931 20.5774 26.4102 20.473 26.4102 20.2555C26.4102 20.038 26.4931 19.9336 26.6108 19.9336C26.7286 19.9336 26.8159 20.0424 26.8159 20.2555C26.8159 20.4687 26.7243 20.5774 26.6108 20.5774Z" fill="#954B2D"/>
<path d="M26.3711 20.2545C26.3711 20.5243 26.4933 20.62 26.611 20.62C26.7288 20.62 26.8597 20.5243 26.8597 20.2545C26.8597 19.9848 26.7245 19.8848 26.611 19.8848C26.4976 19.8848 26.3711 19.9805 26.3711 20.2545ZM26.4496 20.2545C26.4496 20.0805 26.5194 19.9761 26.611 19.9761C26.7026 19.9761 26.7681 20.0849 26.7681 20.2545C26.7681 20.4242 26.707 20.5286 26.611 20.5286C26.5151 20.5286 26.4496 20.4199 26.4496 20.2545Z" fill="#2D2A26"/>
<path d="M26.3539 20.2508C26.2405 20.2508 26.1445 20.1464 26.1445 19.9289C26.1445 19.7114 26.2405 19.6113 26.3539 19.6113C26.4543 19.6113 26.5502 19.7201 26.5502 19.9289C26.5502 20.1377 26.4543 20.2508 26.3539 20.2508Z" fill="#954B2D"/>
<path d="M26.1045 19.924C26.1045 20.1981 26.2266 20.2895 26.3532 20.2895C26.4622 20.2895 26.5931 20.1937 26.5931 19.924C26.5931 19.6543 26.4622 19.5586 26.3532 19.5586C26.231 19.5586 26.1045 19.65 26.1045 19.924ZM26.1874 19.924C26.1874 19.7544 26.2528 19.65 26.3532 19.65C26.4404 19.65 26.4971 19.75 26.4971 19.924C26.4971 20.098 26.4404 20.2024 26.3532 20.2024C26.2528 20.2024 26.1874 20.0937 26.1874 19.924Z" fill="#2D2A26"/>
<path d="M25.9213 20.3377C25.8079 20.3377 25.7119 20.2289 25.7119 20.0114C25.7119 19.7939 25.8035 19.6895 25.9213 19.6895C26.0391 19.6895 26.1176 19.7982 26.1176 20.0114C26.1176 20.2245 26.0304 20.3377 25.9213 20.3377Z" fill="#954B2D"/>
<path d="M25.6777 20.0065C25.6777 20.2762 25.8086 20.3763 25.922 20.3763C26.0355 20.3763 26.162 20.2806 26.162 20.0065C26.162 19.7324 26.0311 19.6367 25.922 19.6367C25.813 19.6367 25.6777 19.7411 25.6777 20.0065ZM25.7606 20.0065C25.7606 19.8455 25.8261 19.7281 25.922 19.7281C26.0136 19.7281 26.0791 19.8412 26.0791 20.0065C26.0791 20.1762 26.0136 20.2849 25.922 20.2849C25.8261 20.2849 25.7606 20.1762 25.7606 20.0065Z" fill="#2D2A26"/>
<path d="M26.7421 21.6985C26.6244 21.6985 26.5371 21.5941 26.5371 21.381C26.5371 21.1678 26.6244 21.0547 26.7421 21.0547C26.8512 21.0547 26.9428 21.1634 26.9428 21.381C26.9428 21.5985 26.8512 21.6985 26.7421 21.6985Z" fill="#954B2D"/>
<path d="M26.4883 21.3771C26.4883 21.6469 26.6191 21.7426 26.7369 21.7426C26.8547 21.7426 26.9812 21.6469 26.9812 21.3771C26.9812 21.1074 26.8504 21.0117 26.7369 21.0117C26.6235 21.0117 26.4883 21.1074 26.4883 21.3771ZM26.5799 21.3771C26.5799 21.2075 26.641 21.1031 26.7369 21.1031C26.8285 21.1031 26.8896 21.2118 26.8896 21.3771C26.8896 21.5425 26.8285 21.6556 26.7369 21.6556C26.641 21.6556 26.5799 21.5468 26.5799 21.3771Z" fill="#2D2A26"/>
<path d="M21.0449 19.9115C21.0449 19.9115 21.407 18.6456 22.4235 19.2677L22.406 19.5809C22.406 19.5809 21.5073 19.1632 21.5073 19.8506L21.0449 19.9159V19.9115Z" fill="#954B2D"/>
<path d="M21.6378 19.0985C21.1841 19.2768 21.0096 19.8728 21.0008 19.8989L20.9834 19.9685L21.5505 19.8859V19.8511C21.5505 19.7075 21.5941 19.6031 21.677 19.5465C21.917 19.403 22.3837 19.6161 22.3837 19.6161L22.4448 19.6379L22.471 19.2377L22.4448 19.229C22.1525 19.0506 21.8821 19.0027 21.6421 19.0941M21.6727 19.1768C21.8821 19.0941 22.122 19.1376 22.375 19.2899C22.375 19.329 22.3663 19.4378 22.3663 19.5074C22.2223 19.4508 21.8603 19.3247 21.6334 19.4726C21.5287 19.5378 21.4807 19.6509 21.4764 19.8032C21.4327 19.8032 21.2059 19.8424 21.1099 19.8467C21.1666 19.6988 21.3411 19.3073 21.6727 19.1768Z" fill="#2D2A26"/>
<path d="M21.2842 22.5295C21.3976 22.5295 21.4892 22.4207 21.4892 22.2032C21.4892 21.9857 21.3976 21.877 21.2842 21.877C21.1708 21.877 21.0879 21.9901 21.0879 22.2032C21.0879 22.4164 21.1751 22.5295 21.2842 22.5295Z" fill="#954B2D"/>
<path d="M21.0449 22.2048C21.0449 22.4789 21.1758 22.5746 21.2849 22.5746C21.3939 22.5746 21.5292 22.4789 21.5292 22.2048C21.5292 21.9308 21.3939 21.8438 21.2849 21.8438C21.1758 21.8438 21.0449 21.9351 21.0449 22.2048ZM21.1322 22.2048C21.1322 22.0352 21.1932 21.9308 21.2849 21.9308C21.3765 21.9308 21.4463 22.0352 21.4463 22.2048C21.4463 22.3745 21.3852 22.4832 21.2849 22.4832C21.1845 22.4832 21.1322 22.3788 21.1322 22.2048Z" fill="#2D2A26"/>
<path d="M20.8921 22.1614C21.0099 22.1614 21.0928 22.057 21.0928 21.8439C21.0928 21.6307 21.0099 21.5176 20.8921 21.5176C20.7874 21.5176 20.6914 21.6263 20.6914 21.8439C20.6914 22.0614 20.783 22.1614 20.8921 22.1614Z" fill="#954B2D"/>
<path d="M20.6514 21.8381C20.6514 22.1078 20.7866 22.1992 20.8957 22.1992C21.0047 22.1992 21.1356 22.1078 21.1356 21.8381C21.1356 21.5684 21.0091 21.4727 20.8957 21.4727C20.7822 21.4727 20.6514 21.564 20.6514 21.8381ZM20.7342 21.8381C20.7342 21.6684 20.7953 21.5597 20.8957 21.5597C20.996 21.5597 21.0527 21.6684 21.0527 21.8381C21.0527 22.0077 20.996 22.1165 20.8957 22.1165C20.7953 22.1165 20.7342 22.0077 20.7342 21.8381Z" fill="#2D2A26"/>
<path d="M21.7207 22.1341C21.8341 22.1341 21.9257 22.0253 21.9257 21.8122C21.9257 21.599 21.8297 21.4902 21.7207 21.4902C21.6116 21.4902 21.5156 21.599 21.5156 21.8122C21.5156 22.0253 21.6116 22.1341 21.7207 22.1341Z" fill="#954B2D"/>
<path d="M21.4766 21.8131C21.4766 22.0785 21.6118 22.1829 21.7209 22.1829C21.8299 22.1829 21.9652 22.0829 21.9652 21.8131C21.9652 21.5434 21.8343 21.4434 21.7209 21.4434C21.6074 21.4434 21.4766 21.5434 21.4766 21.8131ZM21.5638 21.8131C21.5638 21.6435 21.6162 21.5347 21.7165 21.5347C21.8168 21.5347 21.8735 21.6435 21.8735 21.8131C21.8735 21.9828 21.8168 22.0872 21.7165 22.0872C21.6162 22.0872 21.5638 21.9872 21.5638 21.8131Z" fill="#2D2A26"/>
<path d="M21.5069 22.2513C21.6159 22.2513 21.7119 22.1425 21.7119 21.9337C21.7119 21.7249 21.6159 21.6074 21.5069 21.6074C21.3978 21.6074 21.3105 21.7162 21.3105 21.9337C21.3105 22.1512 21.3978 22.2513 21.5069 22.2513Z" fill="#954B2D"/>
<path d="M21.2627 21.9342C21.2627 22.204 21.3892 22.2953 21.507 22.2953C21.6248 22.2953 21.7513 22.204 21.7513 21.9342C21.7513 21.6645 21.6204 21.5645 21.507 21.5645C21.3936 21.5645 21.2627 21.6689 21.2627 21.9342ZM21.3499 21.9342C21.3499 21.7646 21.411 21.6558 21.507 21.6558C21.5986 21.6558 21.6597 21.7646 21.6597 21.9342C21.6597 22.1039 21.5942 22.2127 21.507 22.2127C21.4067 22.2127 21.3499 22.1039 21.3499 21.9342Z" fill="#2D2A26"/>
<path d="M21.1753 22.2513C21.2843 22.2513 21.3716 22.1425 21.3716 21.9337C21.3716 21.7249 21.2843 21.6074 21.1753 21.6074C21.0575 21.6074 20.9746 21.7162 20.9746 21.9337C20.9746 22.1512 21.0575 22.2513 21.1753 22.2513Z" fill="#954B2D"/>
<path d="M20.9219 21.9342C20.9219 22.204 21.0571 22.2953 21.1749 22.2953C21.284 22.2953 21.4148 22.204 21.4148 21.9342C21.4148 21.6645 21.284 21.5645 21.1749 21.5645C21.0571 21.5645 20.9219 21.6689 20.9219 21.9342ZM21.0135 21.9342C21.0135 21.7646 21.0746 21.6558 21.1749 21.6558C21.2752 21.6558 21.3276 21.7646 21.3276 21.9342C21.3276 22.1039 21.2709 22.2127 21.1749 22.2127C21.0789 22.2127 21.0135 22.1039 21.0135 21.9342Z" fill="#2D2A26"/>
<path d="M20.9351 21.8044C21.0441 21.8044 21.1357 21.7 21.1357 21.4825C21.1357 21.265 21.0441 21.1562 20.9351 21.1562C20.826 21.1562 20.7344 21.2694 20.7344 21.4825C20.7344 21.6957 20.8216 21.8044 20.9351 21.8044Z" fill="#954B2D"/>
<path d="M20.6914 21.4826C20.6914 21.748 20.8223 21.848 20.9357 21.848C21.0491 21.848 21.18 21.748 21.18 21.4826C21.18 21.2172 21.0535 21.1172 20.9357 21.1172C20.8179 21.1172 20.6914 21.2129 20.6914 21.4826ZM20.7787 21.4826C20.7787 21.313 20.8441 21.2042 20.9401 21.2042C21.036 21.2042 21.0971 21.313 21.0971 21.4826C21.0971 21.6523 21.036 21.761 20.9401 21.761C20.8441 21.761 20.7787 21.6479 20.7787 21.4826Z" fill="#2D2A26"/>
<path d="M21.2627 21.8474C21.3717 21.8474 21.472 21.7387 21.472 21.5211C21.472 21.3036 21.3717 21.1992 21.2627 21.1992C21.1536 21.1992 21.0576 21.3036 21.0576 21.5211C21.0576 21.7387 21.1492 21.8474 21.2627 21.8474Z" fill="#954B2D"/>
<path d="M21.0186 21.526C21.0186 21.7914 21.1494 21.8871 21.2629 21.8871C21.3763 21.8871 21.5071 21.7914 21.5071 21.526C21.5071 21.2607 21.3806 21.1562 21.2629 21.1562C21.1451 21.1562 21.0186 21.252 21.0186 21.526ZM21.1058 21.526C21.1058 21.3564 21.1669 21.2476 21.2629 21.2476C21.3588 21.2476 21.4243 21.3564 21.4243 21.526C21.4243 21.6957 21.3632 21.8044 21.2629 21.8044C21.1625 21.8044 21.1058 21.6957 21.1058 21.526Z" fill="#2D2A26"/>
<path d="M21.6377 21.8567C21.7511 21.8567 21.8383 21.7436 21.8383 21.5348C21.8383 21.326 21.7511 21.2129 21.6377 21.2129C21.5242 21.2129 21.4326 21.3173 21.4326 21.5348C21.4326 21.7523 21.5242 21.8567 21.6377 21.8567Z" fill="#954B2D"/>
<path d="M21.3936 21.5299C21.3936 21.7997 21.5201 21.8954 21.6379 21.8954C21.7556 21.8954 21.8865 21.804 21.8865 21.5299C21.8865 21.2559 21.7513 21.1602 21.6379 21.1602C21.5244 21.1602 21.3936 21.2602 21.3936 21.5299ZM21.4764 21.5299C21.4764 21.3603 21.5419 21.2515 21.6379 21.2515C21.7338 21.2515 21.7993 21.3603 21.7993 21.5299C21.7993 21.6996 21.7251 21.8084 21.6379 21.8084C21.5506 21.8084 21.4764 21.6952 21.4764 21.5299Z" fill="#2D2A26"/>
<path d="M21.939 21.656C22.048 21.656 22.1396 21.5473 22.1396 21.3341C22.1396 21.1209 22.0524 21.0078 21.939 21.0078C21.8255 21.0078 21.7383 21.1166 21.7383 21.3341C21.7383 21.5516 21.8255 21.656 21.939 21.656Z" fill="#954B2D"/>
<path d="M21.6943 21.3346C21.6943 21.6043 21.8208 21.7001 21.9386 21.7001C22.0564 21.7001 22.1829 21.6043 22.1829 21.3346C22.1829 21.0649 22.0477 20.9648 21.9386 20.9648C21.8296 20.9648 21.6943 21.0606 21.6943 21.3346ZM21.7772 21.3346C21.7772 21.165 21.847 21.0562 21.9343 21.0562C22.0302 21.0562 22.0913 21.165 22.0913 21.3346C22.0913 21.5043 22.0302 21.613 21.9343 21.613C21.847 21.613 21.7772 21.5043 21.7772 21.3346Z" fill="#2D2A26"/>
<path d="M21.686 21.4036C21.7995 21.4036 21.8911 21.2992 21.8911 21.0817C21.8911 20.8642 21.7995 20.7598 21.686 20.7598C21.5726 20.7598 21.4854 20.8685 21.4854 21.0817C21.4854 21.2949 21.5726 21.4036 21.686 21.4036Z" fill="#954B2D"/>
<path d="M21.4453 21.0822C21.4453 21.3563 21.5762 21.4477 21.6896 21.4477C21.803 21.4477 21.9339 21.3519 21.9339 21.0822C21.9339 20.8125 21.803 20.7168 21.6896 20.7168C21.5762 20.7168 21.4453 20.8169 21.4453 21.0822ZM21.5326 21.0822C21.5326 20.9169 21.598 20.8038 21.6896 20.8038C21.7899 20.8038 21.8467 20.9169 21.8467 21.0822C21.8467 21.2475 21.7856 21.3606 21.6896 21.3606C21.598 21.3606 21.5326 21.2519 21.5326 21.0822Z" fill="#2D2A26"/>
<path d="M21.3364 21.368C21.4455 21.368 21.5371 21.2636 21.5371 21.0417C21.5371 20.8329 21.4455 20.7285 21.3364 20.7285C21.2274 20.7285 21.1357 20.8329 21.1357 21.0417C21.1357 21.2636 21.223 21.368 21.3364 21.368Z" fill="#954B2D"/>
<path d="M21.0928 21.0427C21.0928 21.3211 21.2193 21.4168 21.3371 21.4168C21.4461 21.4168 21.5857 21.3211 21.5857 21.0427C21.5857 20.7643 21.4505 20.6816 21.3371 20.6816C21.2149 20.6816 21.0928 20.7773 21.0928 21.0427ZM21.18 21.0427C21.18 20.8818 21.2455 20.7686 21.3371 20.7686C21.4287 20.7686 21.4941 20.8818 21.4941 21.0427C21.4941 21.2211 21.433 21.3298 21.3371 21.3298C21.2411 21.3298 21.18 21.2211 21.18 21.0427Z" fill="#2D2A26"/>
<path d="M21.0009 21.2736C21.1187 21.2736 21.2016 21.1649 21.2016 20.9517C21.2016 20.7386 21.1144 20.6211 21.0009 20.6211C20.8919 20.6211 20.7959 20.7299 20.7959 20.9517C20.7959 21.1736 20.8919 21.2736 21.0009 21.2736Z" fill="#954B2D"/>
<path d="M20.7568 20.9518C20.7568 21.2215 20.8877 21.3129 21.0011 21.3129C21.1189 21.3129 21.2411 21.2215 21.2411 20.9518C21.2411 20.6821 21.1189 20.582 21.0011 20.582C20.8921 20.582 20.7568 20.6734 20.7568 20.9518ZM20.8441 20.9518C20.8441 20.7778 20.9095 20.6734 21.0011 20.6734C21.0927 20.6734 21.1625 20.7778 21.1625 20.9518C21.1625 21.1258 21.0971 21.2259 21.0011 21.2259C20.9052 21.2259 20.8441 21.1215 20.8441 20.9518Z" fill="#2D2A26"/>
<path d="M20.6865 21.0208C20.7956 21.0208 20.8872 20.912 20.8872 20.6989C20.8872 20.4857 20.7956 20.377 20.6865 20.377C20.5688 20.377 20.4902 20.4814 20.4902 20.6989C20.4902 20.9164 20.5688 21.0208 20.6865 21.0208Z" fill="#954B2D"/>
<path d="M20.4385 20.6951C20.4385 20.9691 20.5693 21.0648 20.6871 21.0648C20.8049 21.0648 20.9314 20.9691 20.9314 20.6951C20.9314 20.421 20.8006 20.334 20.6871 20.334C20.5737 20.334 20.4385 20.4297 20.4385 20.6951ZM20.5257 20.6951C20.5257 20.5297 20.5868 20.4166 20.6871 20.4166C20.7875 20.4166 20.8442 20.5297 20.8442 20.6951C20.8442 20.8691 20.7875 20.9735 20.6871 20.9735C20.5868 20.9735 20.5257 20.8691 20.5257 20.6951Z" fill="#2D2A26"/>
<path d="M21.4716 20.9329C21.5807 20.9329 21.6679 20.8285 21.6679 20.6153C21.6679 20.4022 21.5807 20.2891 21.4716 20.2891C21.3626 20.2891 21.2666 20.3978 21.2666 20.6153C21.2666 20.8329 21.3626 20.9329 21.4716 20.9329Z" fill="#954B2D"/>
<path d="M21.2324 20.6159C21.2324 20.8812 21.3633 20.977 21.4724 20.977C21.5814 20.977 21.7167 20.8856 21.7167 20.6159C21.7167 20.3462 21.5858 20.2461 21.4724 20.2461C21.3589 20.2461 21.2324 20.3375 21.2324 20.6159ZM21.3153 20.6159C21.3153 20.4462 21.3808 20.3375 21.4767 20.3375C21.5727 20.3375 21.625 20.4462 21.625 20.6159C21.625 20.7855 21.5727 20.8899 21.4767 20.8899C21.3808 20.8899 21.3153 20.7855 21.3153 20.6159Z" fill="#2D2A26"/>
<path d="M21.8911 20.9696C22.0002 20.9696 22.0874 20.8608 22.0874 20.652C22.0874 20.4432 22.0002 20.3301 21.8911 20.3301C21.782 20.3301 21.6904 20.4345 21.6904 20.652C21.6904 20.8695 21.7777 20.9696 21.8911 20.9696Z" fill="#954B2D"/>
<path d="M21.6426 20.651C21.6426 20.9164 21.7778 21.0121 21.8912 21.0121C22.0047 21.0121 22.1355 20.9164 22.1355 20.651C22.1355 20.3857 22.0047 20.2812 21.8912 20.2812C21.7778 20.2812 21.6426 20.3813 21.6426 20.651ZM21.7298 20.651C21.7298 20.4814 21.7953 20.3726 21.8912 20.3726C21.9872 20.3726 22.0483 20.4814 22.0483 20.651C22.0483 20.8207 21.9916 20.9251 21.8912 20.9251C21.7909 20.9251 21.7298 20.8207 21.7298 20.651Z" fill="#2D2A26"/>
<path d="M21.7119 20.5169C21.8209 20.5169 21.9038 20.4168 21.9038 20.1993C21.9038 19.9818 21.8209 19.873 21.7119 19.873C21.5941 19.873 21.5068 19.9818 21.5068 20.1993C21.5068 20.4168 21.5941 20.5169 21.7119 20.5169Z" fill="#954B2D"/>
<path d="M21.459 20.1994C21.459 20.4735 21.5899 20.5692 21.7076 20.5692C21.8167 20.5692 21.9432 20.4691 21.9432 20.1994C21.9432 19.9297 21.8167 19.834 21.7076 19.834C21.5899 19.834 21.459 19.9253 21.459 20.1994ZM21.5506 20.1994C21.5506 20.0297 21.6117 19.921 21.7076 19.921C21.7993 19.921 21.8603 20.0254 21.8603 20.1994C21.8603 20.3734 21.7993 20.4778 21.7076 20.4778C21.6073 20.4778 21.5506 20.3647 21.5506 20.1994Z" fill="#2D2A26"/>
<path d="M21.3721 20.4065C21.4812 20.4065 21.5684 20.2933 21.5684 20.0802C21.5684 19.867 21.4768 19.7539 21.3721 19.7539C21.2674 19.7539 21.1758 19.8627 21.1758 20.0802C21.1758 20.2977 21.263 20.4065 21.3721 20.4065Z" fill="#954B2D"/>
<path d="M21.127 20.0803C21.127 20.35 21.2622 20.45 21.3712 20.45C21.4803 20.45 21.6112 20.3456 21.6112 20.0803C21.6112 19.8149 21.4759 19.7148 21.3712 19.7148C21.2666 19.7148 21.127 19.8106 21.127 20.0803ZM21.2098 20.0803C21.2098 19.9106 21.2753 19.8019 21.3712 19.8019C21.4672 19.8019 21.5239 19.9106 21.5239 20.0803C21.5239 20.2499 21.4672 20.3587 21.3712 20.3587C21.2753 20.3587 21.2098 20.2499 21.2098 20.0803Z" fill="#2D2A26"/>
<path d="M21.1182 20.7903C21.2316 20.7903 21.3232 20.6816 21.3232 20.4684C21.3232 20.2552 21.2316 20.1465 21.1182 20.1465C21.0135 20.1465 20.9219 20.2509 20.9219 20.4684C20.9219 20.6859 21.0135 20.7903 21.1182 20.7903Z" fill="#954B2D"/>
<path d="M20.874 20.4674C20.874 20.7372 21.0049 20.8329 21.1183 20.8329C21.2317 20.8329 21.3626 20.7372 21.3626 20.4674C21.3626 20.1977 21.2361 20.0977 21.1183 20.0977C21.0005 20.0977 20.874 20.1934 20.874 20.4674ZM20.9613 20.4674C20.9613 20.2934 21.0223 20.189 21.1183 20.189C21.2187 20.189 21.2797 20.2934 21.2797 20.4674C21.2797 20.6414 21.2187 20.7415 21.1183 20.7415C21.0267 20.7415 20.9613 20.6327 20.9613 20.4674Z" fill="#2D2A26"/>
<path d="M20.8399 20.4774C20.9576 20.4774 21.0449 20.3686 21.0449 20.1555C21.0449 19.9423 20.9576 19.8379 20.8399 19.8379C20.7308 19.8379 20.6436 19.9423 20.6436 20.1555C20.6436 20.3686 20.7352 20.4774 20.8399 20.4774Z" fill="#954B2D"/>
<path d="M20.6035 20.1545C20.6035 20.4286 20.7344 20.5243 20.8434 20.5243C20.9612 20.5243 21.0965 20.4286 21.0965 20.1545C21.0965 19.8804 20.9612 19.7891 20.8434 19.7891C20.7344 19.7891 20.6035 19.8848 20.6035 20.1545ZM20.6864 20.1545C20.6864 19.9848 20.7518 19.8761 20.8434 19.8761C20.9438 19.8761 21.0049 19.9892 21.0049 20.1545C21.0049 20.3198 20.9438 20.4329 20.8434 20.4329C20.7562 20.4329 20.6864 20.3242 20.6864 20.1545Z" fill="#2D2A26"/>
<path d="M21.1094 20.1556C21.2185 20.1556 21.3144 20.0468 21.3144 19.8336C21.3144 19.6205 21.2185 19.5117 21.1094 19.5117C21.0003 19.5117 20.9131 19.6205 20.9131 19.8336C20.9131 20.0468 21.0047 20.1556 21.1094 20.1556Z" fill="#954B2D"/>
<path d="M20.8652 19.8327C20.8652 20.1067 21.0005 20.1981 21.1052 20.1981C21.2099 20.1981 21.3538 20.1067 21.3538 19.8327C21.3538 19.5586 21.2186 19.4629 21.1052 19.4629C20.9917 19.4629 20.8652 19.5629 20.8652 19.8327ZM20.9568 19.8327C20.9568 19.663 21.0179 19.5542 21.1095 19.5542C21.2142 19.5542 21.2709 19.663 21.2709 19.8327C21.2709 20.0023 21.2142 20.1111 21.1095 20.1111C21.0179 20.1111 20.9568 20.0023 20.9568 19.8327Z" fill="#2D2A26"/>
<path d="M21.5415 20.2376C21.6506 20.2376 21.7378 20.1288 21.7378 19.9113C21.7378 19.6938 21.6462 19.5938 21.5415 19.5938C21.4368 19.5938 21.3408 19.6982 21.3408 19.9113C21.3408 20.1245 21.4324 20.2376 21.5415 20.2376Z" fill="#954B2D"/>
<path d="M21.2891 19.9123C21.2891 20.182 21.4243 20.2821 21.5421 20.2821C21.6511 20.2821 21.782 20.182 21.782 19.9123C21.782 19.6426 21.6511 19.5469 21.5421 19.5469C21.4243 19.5469 21.2891 19.6382 21.2891 19.9123ZM21.3807 19.9123C21.3807 19.747 21.4417 19.6382 21.5421 19.6382C21.6424 19.6382 21.6948 19.747 21.6948 19.9123C21.6948 20.0776 21.6381 20.1907 21.5421 20.1907C21.4461 20.1907 21.3807 20.0776 21.3807 19.9123Z" fill="#2D2A26"/>
<path d="M20.7168 21.5985C20.8302 21.5985 20.9219 21.4941 20.9219 21.2809C20.9219 21.0677 20.8302 20.959 20.7168 20.959C20.6034 20.959 20.5205 21.0634 20.5205 21.2809C20.5205 21.4984 20.6078 21.5985 20.7168 21.5985Z" fill="#954B2D"/>
<path d="M20.4727 21.2819C20.4727 21.5473 20.6035 21.6473 20.717 21.6473C20.8304 21.6473 20.9656 21.5473 20.9656 21.2819C20.9656 21.0165 20.8347 20.9121 20.717 20.9121C20.5992 20.9121 20.4727 21.0078 20.4727 21.2819ZM20.5599 21.2819C20.5599 21.1166 20.6253 21.0035 20.717 21.0035C20.8129 21.0035 20.8784 21.1122 20.8784 21.2819C20.8784 21.4516 20.8129 21.556 20.717 21.556C20.6253 21.556 20.5599 21.4516 20.5599 21.2819Z" fill="#2D2A26"/>
<path d="M33.8966 14.1508C33.1375 13.9768 31.7153 14.0856 31.7153 14.0856C32.0687 14.1334 32.4962 14.5554 32.4962 14.5554C31.6673 14.3336 29.9922 14.5554 29.9922 14.5554C30.7949 14.8034 31.0828 15.3994 31.0828 15.3994C29.5603 15.0079 28.5613 15.2906 28.5613 15.2906C29.0063 15.3776 29.7871 15.891 29.7871 15.891C29.0063 15.717 27.4009 16.0041 27.4009 16.0041C27.9811 16.0693 28.6747 16.5392 28.6747 16.5392C27.4925 16.2738 26.5109 16.6914 26.5109 16.6914C27.4707 16.674 27.7019 16.9307 27.7019 16.9307C25.4334 17.0264 24.718 18.6186 24.5347 19.3582C25.0757 17.9617 26.3103 17.0525 27.9636 17.0264C29.9922 17.0003 30.7512 18.7361 30.7512 18.7361C30.3499 18.2706 29.412 17.7834 29.412 17.7834C29.6781 18.1619 29.412 18.3837 29.412 18.3837C28.6354 17.6485 27.8764 17.7181 27.8764 17.7181C28.413 17.94 28.4958 18.7013 28.4958 18.7013C27.8022 18.101 26.9995 18.1923 26.9995 18.1923C27.4489 18.4577 27.4489 18.9884 27.4489 18.9884C26.5109 18.4316 25.6646 18.5664 25.6646 18.5664C25.9962 18.7013 26.3103 19.0319 26.3103 19.0319C25.9569 18.9188 25.0844 19.2538 25.0844 19.2538C25.4858 19.2755 25.5119 19.6758 25.5119 19.6758C24.8619 19.7932 24.4649 20.746 24.3079 21.1984L24.2381 21.4377H23.322C23.322 21.4377 22.8945 19.8411 22.0482 19.6801C22.0482 19.6801 22.07 19.2799 22.48 19.2581C22.48 19.2581 21.5988 18.9232 21.2455 19.0363C21.2455 19.0363 21.5596 18.7056 21.8955 18.5708C21.8955 18.5708 21.0448 18.4403 20.1112 18.9928C20.1112 18.9928 20.1112 18.462 20.5562 18.1967C20.5562 18.1967 19.7491 18.1053 19.0686 18.7056C19.0686 18.7056 19.1559 17.9487 19.6924 17.7225C19.6924 17.7225 18.929 17.6572 18.1481 18.3881C18.1481 18.3881 17.8777 18.1662 18.1481 17.7877C18.1481 17.7877 17.2102 18.275 16.8089 18.7405C16.8089 18.7405 17.5679 16.9873 19.5965 17.0308C21.3283 17.0699 22.9294 18.4142 23.2653 20.3718C23.2391 20.1413 23.2129 19.902 23.1649 19.6714C23.1649 19.6714 22.6545 17.0308 19.9542 16.8959C19.9542 16.8959 20.1549 16.6088 21.1102 16.6305C21.1102 16.6305 20.133 16.2129 18.9508 16.4739C18.9508 16.4739 19.6444 16.0084 20.2203 15.9432C20.2203 15.9432 18.6149 15.6604 17.8384 15.8344C17.8384 15.8344 18.6149 15.3211 19.0642 15.2297C19.0642 15.2297 18.0522 14.9426 16.534 15.3428C16.534 15.3428 16.8307 14.7468 17.6334 14.4989C17.6334 14.4989 15.9625 14.277 15.1293 14.4989C15.1293 14.4989 15.5568 14.0769 15.9146 14.0334C15.9146 14.0334 14.488 13.9246 13.7246 14.0943C13.7246 14.0943 15.4434 12.898 18.1481 14.0769C20.8398 15.2558 22.5586 17.3831 23.0515 18.2358C23.117 18.3446 23.178 18.4751 23.2304 18.6099C23.1388 18.2054 23.0428 17.8486 22.9425 17.6529C22.6066 16.9873 21.8475 16.0998 21.0928 15.7474C21.0928 15.7474 21.4243 15.6343 21.8955 15.7474C21.8955 15.7474 20.6914 15.0383 20.2814 14.9861C20.2814 14.9861 20.626 14.7468 21.1582 14.8556C21.1582 14.8556 20.5126 14.3249 19.0991 13.9899C19.0991 13.9899 19.9716 13.855 20.3992 13.9681C20.3992 13.9681 19.7317 13.3852 18.0783 13.0589C18.0783 13.0589 19.2824 12.898 19.5267 13.0111C19.5267 13.0111 18.5015 12.3672 17.2975 12.2149C17.2975 12.2149 17.6116 11.9235 18.0478 11.967C18.0478 11.967 17.581 11.5232 15.7531 11.2579C15.7531 11.2579 15.8884 11.0317 16.1065 10.9664C16.3377 10.9011 16.0411 10.9229 16.0411 10.9229C16.0411 10.9229 14.6843 10.527 14.1478 10.4574C14.1478 10.4574 16.9179 10.0876 20.1025 13.0633C21.9958 14.8251 22.8857 16.4348 23.322 17.6877C23.4398 18.362 23.2304 15.8214 21.7253 14.6598C21.7253 14.6598 22.2401 14.8121 22.4931 15.0427C22.2096 14.699 21.4112 13.7506 21.1931 13.5723C21.1931 13.5723 21.9958 14.0116 22.2881 14.2596C22.2881 14.2596 21.3676 12.9023 20.6827 12.5456C20.6827 12.5456 21.4418 12.7413 21.7515 12.898C21.7515 12.898 21.1059 12.0496 20.0981 11.9931C20.0981 11.9931 20.6609 11.8365 21.1277 11.9452C21.1277 11.9452 20.6129 11.0099 19.4132 10.5227C19.4132 10.5227 20.1025 10.5009 20.5431 10.7228C20.5431 10.7228 19.5005 9.54384 18.5189 9.23062C18.5189 9.23062 19.0119 9.0566 19.4307 9.18711C19.4307 9.18711 18.4709 8.25179 17.581 7.94727C17.581 7.94727 17.581 7.79066 17.7817 7.7689C17.7817 7.7689 17.136 7.0598 16.7347 6.94669C16.7347 6.94669 19.1428 7.34692 21.6904 11.4971C22.8465 13.3982 23.4049 15.0383 23.6535 16.4478C23.5008 15.0383 23.2915 13.1764 23.2173 10.7315C23.0821 6.19408 25.621 3.91016 25.621 3.91016C25.621 3.91016 25.3287 4.4235 25.0539 4.90638C24.7921 5.39362 24.5217 6.17233 24.5217 6.17233C24.6045 6.08967 24.9884 5.88956 24.9884 5.88956C24.9056 5.97222 24.7354 6.25499 24.7354 6.25499C24.9623 6.05487 25.4247 5.7895 25.4247 5.7895C25.0233 6.17233 24.2774 8.23874 24.2774 8.23874C24.4737 8.00817 24.8707 7.87331 24.8707 7.87331C24.622 8.13868 24.2774 9.10881 24.2774 9.10881C24.5566 8.75643 25.3418 8.17349 25.3418 8.17349C24.478 9.47424 24.369 10.9229 24.369 10.9229C24.5566 10.7097 25.0539 10.2877 25.0539 10.2877C24.7354 10.7097 24.0505 12.7196 24.0505 12.7196C24.2948 12.4194 24.827 12.0018 24.827 12.0018C24.4388 12.4194 23.9545 15.0862 24.0898 14.8687C24.2207 14.6511 24.6046 14.4684 24.6046 14.4684C24.2381 15.1123 24.1552 17.2918 24.1421 18.201C24.4388 16.7871 25.2371 15.2341 27.5885 13.0502C30.7774 10.0746 33.5388 10.4444 33.5388 10.4444C33.0066 10.514 31.6455 10.9098 31.6455 10.9098C31.6455 10.9098 31.3532 10.8881 31.5757 10.9534C31.8026 11.0186 31.9335 11.2448 31.9335 11.2448C30.1056 11.5102 29.6388 11.9539 29.6388 11.9539C30.0838 11.9104 30.3935 12.2019 30.3935 12.2019C29.1938 12.3542 28.1599 12.998 28.1599 12.998C28.413 12.8849 29.617 13.0459 29.617 13.0459C27.9636 13.3721 27.2918 13.9551 27.2918 13.9551C27.715 13.842 28.5831 13.9768 28.5831 13.9768C27.1871 14.3118 26.5327 14.8426 26.5327 14.8426C27.0693 14.7338 27.4052 14.9731 27.4052 14.9731C27.0039 15.0209 25.7999 15.7344 25.7999 15.7344C26.2666 15.6213 26.5982 15.7344 26.5982 15.7344C25.8391 16.0867 25.0146 16.9742 24.6831 17.6398C24.6176 17.7703 24.5478 17.9835 24.4911 18.2228C25.1542 17.0264 26.825 15.2863 29.4818 14.1291C32.1778 12.9502 33.8922 14.1465 33.8922 14.1465" fill="#00833E"/>
<path d="M24.7217 14.3339C24.3378 14.9603 24.2069 17.005 24.1895 17.9838C24.364 16.7396 24.8133 15.378 25.8385 14.5775C25.8385 14.5775 25.3368 14.7254 25.0794 14.9647C25.363 14.6253 26.1656 13.6683 26.375 13.4856C26.375 13.4856 25.5767 13.9336 25.2844 14.1773C25.2844 14.1773 26.2049 12.8243 26.8898 12.4676C26.8898 12.4676 26.1351 12.672 25.8254 12.8243C25.8254 12.8243 26.4666 11.9847 27.4744 11.9151C27.4744 11.9151 26.9116 11.7585 26.4448 11.8716C26.4448 11.8716 26.9596 10.9363 28.1593 10.449C28.1593 10.449 27.4744 10.4273 27.025 10.6491C27.025 10.6491 28.072 9.4702 29.0536 9.16132C29.0536 9.16132 28.5606 8.98731 28.1331 9.12217C28.1331 9.12217 29.0972 8.18685 29.9915 7.87362C29.9915 7.87362 29.9915 7.72136 29.7865 7.69961C29.7865 7.69961 30.4365 6.99051 30.8335 6.87305C30.8335 6.87305 28.4254 7.28198 25.8865 11.4322C25.1841 12.5676 24.7566 13.5204 24.425 14.4731C24.5646 14.3774 24.7173 14.3426 24.7173 14.3426" fill="#00833E"/>
<path d="M23.8101 20.1113C23.9846 20.2897 24.1766 20.8552 24.1766 20.8552C24.3729 20.2766 24.8659 20.3332 24.8659 20.3332C24.7306 20.4637 24.6695 21.1728 24.6041 21.8819C24.5299 22.5171 23.8101 22.7259 23.8101 22.7259C23.8101 22.7259 23.0991 22.5171 23.0205 21.8819C22.9507 21.1772 22.894 20.4681 22.7588 20.3332C22.7588 20.3332 23.2474 20.2723 23.4524 20.8552C23.4524 20.8552 23.6444 20.2897 23.8101 20.1113Z" fill="#954B2D"/>
<path d="M23.7799 20.0856C23.6534 20.2248 23.5138 20.5685 23.444 20.7425C23.2128 20.2509 22.7591 20.2901 22.7547 20.2944L22.6631 20.3031L22.7242 20.3684C22.8376 20.4771 22.8899 21.0818 22.9554 21.6691L22.9772 21.8953C23.0513 22.5479 23.7668 22.7697 23.793 22.7784H23.8235C23.854 22.7697 24.5651 22.5479 24.6393 21.8953L24.6611 21.6691C24.7178 21.0818 24.7876 20.4771 24.8923 20.3684L24.9577 20.3031L24.8705 20.2944C24.8705 20.2944 24.4037 20.2509 24.1725 20.7425C24.1114 20.5685 23.9762 20.2248 23.841 20.0856L23.8061 20.0508L23.7755 20.0856H23.7799ZM23.492 20.873C23.492 20.873 23.6621 20.3901 23.8104 20.1856C23.9631 20.3901 24.1289 20.8686 24.1289 20.8686L24.1725 20.9948L24.2205 20.873C24.3601 20.4641 24.6524 20.3945 24.792 20.3814C24.6873 20.5902 24.6436 21.0905 24.5826 21.6604L24.5608 21.8823C24.4997 22.4478 23.8846 22.661 23.8148 22.6827C23.7493 22.661 23.1342 22.4478 23.0775 21.8823L23.0557 21.6604C22.9946 21.0862 22.9423 20.5859 22.8463 20.3814C22.9859 20.3945 23.2738 20.4641 23.4134 20.873L23.4571 20.9948L23.4963 20.873H23.492Z" fill="#2D2A26"/>
<path d="M23.8105 21.6992C23.985 21.8776 24.1813 22.4562 24.1813 22.4562C24.3864 21.8689 24.8837 21.9167 24.8837 21.9167C24.7354 22.069 24.6874 22.752 24.6132 23.4742C24.5478 24.118 23.8149 24.3312 23.8149 24.3312C23.8149 24.3312 23.0864 24.118 23.0209 23.4742C22.9468 22.7563 22.8944 22.069 22.7461 21.9167C22.7461 21.9167 23.2434 21.8689 23.4484 22.4562C23.4484 22.4562 23.6448 21.8776 23.8149 21.6992" fill="#954B2D"/>
<path d="M23.7797 21.6652C23.6489 21.8044 23.5006 22.1612 23.4395 22.3395C23.2126 21.8392 22.7415 21.8697 22.7371 21.8697L22.6455 21.8784L22.7109 21.9523C22.8244 22.0741 22.8898 22.6266 22.9422 23.2183L22.9727 23.4793C23.0425 24.1449 23.7928 24.3711 23.7972 24.3755H23.8277C23.8277 24.3755 24.5868 24.1449 24.661 23.4793L24.6828 23.2183C24.7438 22.6266 24.8006 22.0785 24.914 21.9523L24.9751 21.8784L24.8834 21.8697C24.8834 21.8697 24.4123 21.8392 24.1811 22.3395C24.1157 22.1568 23.9761 21.8001 23.8408 21.6652L23.8059 21.6348L23.7754 21.6652H23.7797ZM23.4875 22.47C23.4875 22.47 23.662 21.9741 23.8059 21.7696C23.9673 21.9741 24.1331 22.4657 24.1331 22.47L24.1724 22.5875L24.2204 22.47C24.3687 22.0393 24.674 21.9741 24.8136 21.961C24.7089 22.1568 24.6479 22.6223 24.5912 23.2052L24.5693 23.4619C24.5083 24.0449 23.8844 24.2624 23.8103 24.2798C23.7492 24.2624 23.1254 24.0449 23.0599 23.4619L23.0338 23.2052C22.9771 22.6223 22.9203 22.1568 22.8156 21.961C22.9552 21.9741 23.2606 22.0393 23.4089 22.47L23.4482 22.5875L23.4918 22.47H23.4875Z" fill="#2D2A26"/>
<path d="M23.8099 23.2793C23.9887 23.462 24.1894 24.0537 24.1894 24.0537C24.3944 23.4577 24.9049 23.5012 24.9049 23.5012C24.7434 23.6708 24.7042 24.3277 24.6257 25.0629C24.5515 25.7155 23.8099 25.933 23.8099 25.933C23.8099 25.933 23.0726 25.7155 22.9985 25.0629C22.9243 24.3321 22.8807 23.6708 22.7236 23.5012C22.7236 23.5012 23.2253 23.4577 23.4391 24.0537C23.4391 24.0537 23.6354 23.4664 23.8099 23.2793Z" fill="#954B2D"/>
<path d="M23.7797 23.2481C23.6488 23.3873 23.5005 23.7441 23.435 23.9355C23.1995 23.4265 22.7283 23.4526 22.7283 23.4526L22.6367 23.4657L22.6934 23.5309C22.8156 23.6658 22.8723 24.2009 22.929 24.7664L22.9595 25.0622C23.0337 25.7365 23.7928 25.9671 23.7971 25.9714H23.8102H23.8277C23.8364 25.9671 24.5955 25.7365 24.6653 25.0622L24.6914 24.7664C24.7481 24.2009 24.8049 23.6658 24.927 23.5309L24.9924 23.4657L24.9008 23.4526C24.9008 23.4526 24.4253 23.4265 24.1854 23.9355C24.12 23.7484 23.976 23.3873 23.8408 23.2481L23.8059 23.209L23.7753 23.2481H23.7797ZM23.483 24.066C23.483 24.066 23.6532 23.5527 23.8059 23.3482C23.9673 23.5527 24.1374 24.0573 24.1374 24.066L24.1854 24.1878L24.2203 24.066C24.3773 23.631 24.6871 23.5527 24.8223 23.5353C24.7132 23.7441 24.6653 24.1878 24.6086 24.7577L24.578 25.0448C24.5213 25.6321 23.8844 25.8583 23.8102 25.8801C23.7491 25.8583 23.1079 25.6321 23.0512 25.0448L23.0206 24.7577C22.9595 24.1878 22.9116 23.7397 22.7981 23.5353C22.9377 23.5527 23.2518 23.6266 23.4045 24.066L23.4438 24.1878L23.4874 24.066H23.483Z" fill="#2D2A26"/>
<path d="M23.8103 24.8535C23.9891 25.0406 24.1898 25.6409 24.1898 25.6409C24.4036 25.0319 24.914 25.0754 24.914 25.0754C24.7482 25.2537 24.7089 25.8889 24.6348 26.6328C24.5606 27.2984 23.8103 27.5246 23.8103 27.5246C23.8103 27.5246 23.0599 27.2984 22.9901 26.6328C22.9116 25.8889 22.8723 25.2537 22.7109 25.0754C22.7109 25.0754 23.2257 25.0319 23.4351 25.6409C23.4351 25.6409 23.6401 25.0362 23.8103 24.8535Z" fill="#954B2D"/>
<path d="M23.7796 24.8239C23.6443 24.9674 23.5004 25.3416 23.4306 25.5199C23.1863 25.0022 22.7107 25.0283 22.7107 25.0283H22.6191L22.6759 25.0979C22.8067 25.2458 22.8634 25.7461 22.9114 26.3204L22.9507 26.638C23.0205 27.321 23.7926 27.5602 23.797 27.5646H23.8101H23.8275C23.8406 27.5646 24.6084 27.321 24.6782 26.638L24.7087 26.3204C24.7655 25.7461 24.8135 25.2458 24.9487 25.0979L25.001 25.0327H24.9182C24.9182 25.0327 24.4339 25.0022 24.1896 25.5199C24.1242 25.3372 23.9759 24.9674 23.845 24.8239L23.8057 24.7891L23.7752 24.8239H23.7796ZM23.4742 25.6591C23.4742 25.6591 23.653 25.1327 23.8057 24.9283C23.9759 25.1371 24.1416 25.6548 24.146 25.6591L24.1853 25.7766L24.2332 25.6591C24.3816 25.2154 24.7 25.1327 24.8353 25.1197C24.7175 25.3285 24.6739 25.7635 24.6215 26.316L24.5866 26.6336C24.5212 27.2253 23.8842 27.4558 23.8101 27.4776C23.749 27.4558 23.099 27.2253 23.0379 26.6336L23.003 26.316C22.9551 25.7635 22.8983 25.3329 22.7893 25.1197C22.9332 25.1327 23.2473 25.2154 23.3957 25.6591L23.4393 25.7766L23.4829 25.6591H23.4742Z" fill="#2D2A26"/>
<path d="M23.8107 26.4277C23.9895 26.6148 24.2033 27.2325 24.2033 27.2325C24.4083 26.6148 24.9318 26.6453 24.9318 26.6453C24.7573 26.8454 24.7224 27.4544 24.6439 28.2157C24.5785 28.8857 23.8107 29.1119 23.8107 29.1119C23.8107 29.1119 23.056 28.8857 22.9818 28.2157C22.9033 27.4544 22.8684 26.8454 22.6982 26.6453C22.6982 26.6453 23.2174 26.6148 23.4355 27.2325C23.4355 27.2325 23.6405 26.6148 23.815 26.4277" fill="#954B2D"/>
<path d="M23.7843 26.3976C23.6403 26.5456 23.492 26.9284 23.4309 27.1154C23.1867 26.5891 22.6981 26.6021 22.6981 26.6021H22.6064L22.6675 26.6761C22.7984 26.837 22.8464 27.2982 22.9031 27.8768L22.9336 28.2204C23.0078 28.9165 23.7887 29.1601 23.7887 29.1601L23.8061 29.1688L23.8236 29.1601C23.8236 29.1601 24.6175 28.9165 24.6873 28.2204L24.7179 27.8768C24.7702 27.2982 24.8226 26.8414 24.9578 26.6761L25.0189 26.6065H24.9316C24.9316 26.6065 24.443 26.5847 24.1987 27.1154C24.1333 26.9284 23.985 26.5456 23.8497 26.3976L23.8061 26.3672L23.7799 26.3976H23.7843ZM23.4702 27.246C23.4702 27.246 23.6534 26.7152 23.8061 26.5064C23.9763 26.7196 24.1507 27.246 24.1507 27.246L24.1944 27.3765L24.238 27.246C24.395 26.8022 24.7135 26.7152 24.8575 26.6978C24.7353 26.9066 24.6873 27.3112 24.6393 27.8724L24.6001 28.2161C24.539 28.8208 23.8803 29.0513 23.8061 29.0731C23.745 29.0513 23.082 28.8208 23.0209 28.2161L22.986 27.8724C22.9293 27.3156 22.8856 26.911 22.7679 26.6978C22.9031 26.7152 23.2259 26.8022 23.3873 27.246L23.4309 27.3765L23.4658 27.246H23.4702Z" fill="#2D2A26"/>
<path d="M23.8193 28.0117C23.9981 28.2031 24.2032 28.8252 24.2032 28.8252C24.4169 28.2031 24.9535 28.2249 24.9535 28.2249C24.7659 28.4468 24.7397 29.0297 24.6612 29.7997C24.5871 30.4784 23.8193 30.7176 23.8193 30.7176C23.8193 30.7176 23.0471 30.4784 22.9686 29.7997C22.8901 29.0297 22.8639 28.4468 22.6807 28.2249C22.6807 28.2249 23.2129 28.2031 23.431 28.8252C23.431 28.8252 23.636 28.2031 23.8193 28.0117Z" fill="#954B2D"/>
<path d="M23.7837 27.9903C23.6398 28.1339 23.4871 28.5254 23.426 28.7125C23.173 28.1774 22.6844 28.1861 22.6844 28.1861H22.5928L22.6495 28.2513C22.7934 28.4297 22.8371 28.8734 22.8938 29.4346L22.933 29.8088C23.0028 30.5048 23.7968 30.7615 23.7968 30.7615H23.823H23.8317C23.8448 30.7615 24.6344 30.5048 24.7086 29.8088L24.7391 29.439C24.8045 28.8734 24.8438 28.4297 24.9878 28.2513L25.0445 28.1904H24.9572C24.9572 28.1904 24.4599 28.1774 24.2156 28.7125C24.1502 28.5254 23.9975 28.1339 23.8579 27.9903L23.8273 27.9512L23.7924 27.9903H23.7837ZM23.4696 28.843C23.4696 28.843 23.6528 28.2992 23.8186 28.086C23.98 28.3035 24.1545 28.8386 24.1632 28.843L24.2025 28.9691L24.2461 28.843C24.4032 28.3862 24.7216 28.2948 24.87 28.2774C24.7478 28.495 24.7086 28.8908 24.6475 29.4303L24.6169 29.7957C24.5471 30.4091 23.8797 30.644 23.8143 30.6658C23.7401 30.644 23.0683 30.4091 23.0072 29.7957L22.9679 29.4303C22.92 28.8908 22.872 28.495 22.7498 28.2774C22.8851 28.2948 23.2166 28.3862 23.378 28.843L23.426 28.9691L23.4653 28.843H23.4696Z" fill="#2D2A26"/>
<path d="M23.8187 29.5918C23.9975 29.7832 24.2069 30.4271 24.2069 30.4271C24.4294 29.7919 24.9616 29.8093 24.9616 29.8093C24.7741 30.0399 24.7479 30.6054 24.6694 31.3841C24.5952 32.0758 23.8187 32.3195 23.8187 32.3195C23.8187 32.3195 23.0334 32.0802 22.9593 31.3841C22.8764 30.6054 22.8589 30.0399 22.667 29.8093C22.667 29.8093 23.2079 29.7919 23.4261 30.4271C23.4261 30.4271 23.6311 29.7832 23.8187 29.5918Z" fill="#954B2D"/>
<path d="M23.784 29.5558C23.6357 29.7168 23.4874 30.1127 23.4176 30.3041C23.1646 29.7603 22.6673 29.7603 22.6673 29.7603H22.5713L22.6236 29.8299C22.7763 30.017 22.8156 30.4303 22.8723 30.9958L22.9116 31.3917C22.9901 32.1051 23.7928 32.3531 23.7971 32.3531H23.8189H23.8277C23.8408 32.3531 24.6435 32.1051 24.7176 31.3917L24.7525 30.9958C24.8136 30.4346 24.8485 30.0213 24.9968 29.8299L25.0535 29.7603H24.9619C24.9619 29.7603 24.4602 29.7603 24.2159 30.3041C24.1418 30.1127 23.9891 29.7168 23.8495 29.5558L23.8146 29.5254L23.7797 29.5558H23.784ZM23.4612 30.4346C23.4612 30.4346 23.6532 29.8821 23.8189 29.6646C23.9804 29.8821 24.1592 30.4303 24.1679 30.4346L24.2072 30.5564L24.2508 30.4346C24.4079 29.9691 24.7438 29.8778 24.8877 29.856C24.7525 30.0779 24.7133 30.4607 24.6609 30.9915L24.6216 31.3743C24.5562 31.9964 23.88 32.2356 23.8146 32.2574C23.7404 32.2356 23.0599 31.9964 22.9988 31.3743L22.9595 30.9915C22.9072 30.4607 22.8636 30.0779 22.7371 29.856C22.8854 29.8734 23.2169 29.9648 23.374 30.4346L23.422 30.5564L23.4569 30.4346H23.4612Z" fill="#2D2A26"/>
<path d="M23.819 31.1738C24.0022 31.3652 24.2204 32.0134 24.2204 32.0134C24.4385 31.3783 24.9881 31.3826 24.9881 31.3826C24.7787 31.6393 24.77 32.1788 24.6871 32.9662C24.613 33.6666 23.819 33.9102 23.819 33.9102C23.819 33.9102 23.0207 33.6666 22.9422 32.9662C22.8636 32.1788 22.8549 31.6393 22.6455 31.3826C22.6455 31.3826 23.1995 31.3826 23.4177 32.0134C23.4177 32.0134 23.6227 31.3652 23.8146 31.1738" fill="#954B2D"/>
<path d="M23.7844 31.1359C23.6361 31.2925 23.479 31.6971 23.4092 31.8929C23.1562 31.3447 22.6501 31.336 22.6501 31.336H22.5498L22.6065 31.41C22.7679 31.6058 22.8028 32.006 22.8595 32.5672L22.8988 32.9674C22.9773 33.6896 23.7887 33.9419 23.7931 33.9506H23.8149H23.8236C23.8367 33.9419 24.6481 33.6896 24.7179 32.9674L24.7616 32.5672C24.8095 32.006 24.8532 31.6101 25.0102 31.41L25.0626 31.336H24.9753C24.9753 31.336 24.4649 31.3447 24.2119 31.8929C24.1421 31.6971 23.9894 31.2882 23.8411 31.1359L23.8106 31.1055L23.7757 31.1359H23.7844ZM23.4572 32.0277C23.4572 32.0277 23.6448 31.4665 23.8193 31.2403C23.9894 31.4622 24.1726 32.019 24.1726 32.0277L24.2163 32.1495L24.2599 32.0277C24.4213 31.5579 24.7528 31.4535 24.9055 31.4274C24.7747 31.6623 24.7223 32.0364 24.6787 32.5585L24.6438 32.9587C24.5696 33.5939 23.8847 33.8331 23.8193 33.8636C23.7451 33.8331 23.0558 33.5939 22.9904 32.9587L22.9555 32.5585C22.8944 32.0408 22.8595 31.6667 22.7287 31.4274C22.877 31.4535 23.2129 31.5579 23.3787 32.0277L23.4223 32.1495L23.4616 32.0277H23.4572Z" fill="#2D2A26"/>
<path d="M23.8189 32.7441C24.0065 32.9486 24.2202 33.6055 24.2202 33.6055C24.4427 32.9573 24.9924 32.9617 24.9924 32.9617C24.783 33.2314 24.7742 33.7534 24.6914 34.5452C24.6172 35.263 23.8145 35.5023 23.8145 35.5023C23.8145 35.5023 23.0075 35.263 22.9289 34.5452C22.8417 33.7491 22.8417 33.2314 22.6279 32.9617C22.6279 32.9617 23.182 32.9617 23.4044 33.6055C23.4044 33.6055 23.6182 32.9486 23.8101 32.7441" fill="#954B2D"/>
<path d="M23.7839 32.7145C23.6355 32.8711 23.4698 33.2887 23.4 33.4845C23.1469 32.9233 22.6365 32.9103 22.6365 32.9103H22.5449L22.6016 32.9842C22.7587 33.193 22.7979 33.5672 22.8459 34.1283L22.8896 34.546C22.9637 35.2812 23.7926 35.5422 23.7926 35.5422H23.8188H23.8275C23.8275 35.5422 24.6607 35.2812 24.7349 34.546L24.7785 34.1283C24.8352 33.5672 24.8701 33.193 25.0402 32.9842L25.0882 32.9103H24.9966C24.9966 32.9103 24.4775 32.919 24.2245 33.4845C24.1547 33.2887 23.9976 32.8755 23.8537 32.7145L23.8231 32.6797L23.7882 32.7145H23.7839ZM23.4523 33.615C23.4523 33.615 23.6399 33.0451 23.8188 32.8189C23.9889 33.0408 24.1765 33.6107 24.1765 33.6107L24.2201 33.7455L24.2594 33.6194C24.4295 33.1408 24.761 33.0364 24.9224 33.0103C24.7785 33.2452 24.7436 33.5976 24.6912 34.1196L24.652 34.5416C24.5865 35.1855 23.8842 35.4291 23.8188 35.4552C23.7446 35.4291 23.051 35.1811 22.9812 34.5416L22.9375 34.1196C22.8939 33.5976 22.8503 33.2409 22.7151 33.0103C22.8677 33.0364 23.2124 33.1408 23.3782 33.6194L23.4261 33.7455L23.461 33.615H23.4523Z" fill="#2D2A26"/>
<path d="M23.8193 34.3242C24.0069 34.5287 24.225 35.1986 24.225 35.1986C24.4562 34.5417 25.0146 34.5374 25.0146 34.5374C24.7922 34.8202 24.7922 35.3204 24.7136 36.1253C24.6351 36.8474 23.8237 37.0997 23.8237 37.0997C23.8237 37.0997 22.9992 36.8474 22.9338 36.1253C22.8465 35.3204 22.8465 34.8202 22.624 34.5374C22.624 34.5374 23.1781 34.5417 23.4093 35.1986C23.4093 35.1986 23.6317 34.5287 23.8237 34.3242" fill="#954B2D"/>
<path d="M23.7842 34.2941C23.6316 34.4551 23.4701 34.8814 23.4003 35.0859C23.143 34.516 22.6282 34.4942 22.6238 34.4942H22.5322L22.5889 34.5595C22.7634 34.7814 22.7896 35.1468 22.8507 35.6949L22.8812 36.13C22.9597 36.8782 23.7973 37.1436 23.7973 37.1436L23.8235 37.1523L23.8322 37.1436C23.8322 37.1436 24.6785 36.8782 24.7527 36.13L24.7963 35.6949C24.8487 35.1468 24.8836 34.7857 25.0494 34.5595L25.1061 34.4942H25.0145C25.0145 34.4942 24.491 34.516 24.2336 35.0859C24.1638 34.8858 24.0024 34.4551 23.854 34.2941L23.8191 34.2637L23.7842 34.2941ZM23.444 35.212C23.444 35.212 23.6446 34.6291 23.8191 34.3985C23.9893 34.6291 24.1812 35.2077 24.1856 35.212L24.2205 35.3382L24.2685 35.2164C24.4299 34.7292 24.7745 34.616 24.9316 34.5899C24.7876 34.8336 24.7483 35.1816 24.7091 35.6906L24.6655 36.13C24.5957 36.7782 23.8846 37.0348 23.8191 37.0609C23.7493 37.0348 23.0383 36.7782 22.9641 36.13L22.9292 35.6906C22.8769 35.1816 22.842 34.8336 22.698 34.5899C22.8594 34.616 23.1997 34.7335 23.3654 35.2164L23.4091 35.3382L23.4483 35.212H23.444Z" fill="#2D2A26"/>
<path d="M23.8187 35.9023C24.0106 36.1112 24.2288 36.7942 24.2288 36.7942C24.46 36.1242 25.0271 36.1112 25.0271 36.1112C24.8002 36.4244 24.809 36.8942 24.7174 37.7121C24.6432 38.4386 23.8187 38.6953 23.8187 38.6953C23.8187 38.6953 22.9855 38.4429 22.9069 37.7121C22.8241 36.8942 22.8328 36.4244 22.6016 36.1112C22.6016 36.1112 23.1687 36.1242 23.4043 36.7942C23.4043 36.7942 23.6267 36.1112 23.8187 35.9023Z" fill="#954B2D"/>
<path d="M23.7836 35.8727C23.6309 36.0337 23.4608 36.473 23.391 36.6688C23.1292 36.0946 22.6057 36.0728 22.597 36.0728L22.5098 36.0598L22.5665 36.1381C22.7366 36.3686 22.7715 36.7254 22.8195 37.2605L22.8588 37.7085C22.9373 38.4611 23.788 38.7309 23.7967 38.7309H23.8098H23.8185C23.8316 38.7309 24.6779 38.4568 24.7521 37.7085L24.8 37.2605C24.848 36.7254 24.8829 36.3686 25.0574 36.1381L25.1098 36.0598L25.0182 36.0728C25.0182 36.0728 24.4903 36.0946 24.2286 36.6688C24.1631 36.4774 23.993 36.0337 23.8447 35.8727L23.8141 35.8379L23.7792 35.8727H23.7836ZM23.439 36.8037C23.439 36.8037 23.6353 36.212 23.8141 35.9771C23.9843 36.212 24.1849 36.7993 24.1849 36.8037L24.2242 36.9298L24.2722 36.8037C24.4423 36.3164 24.787 36.199 24.9484 36.1642C24.8001 36.4121 24.7608 36.7515 24.7128 37.2517L24.6692 37.6998C24.6037 38.3611 23.8839 38.6178 23.8141 38.6482C23.74 38.6178 23.0158 38.3611 22.9547 37.6998L22.9024 37.2517C22.8588 36.7515 22.8195 36.4121 22.6755 36.1642C22.837 36.1946 23.1816 36.3164 23.3561 36.8037L23.3953 36.9298L23.4346 36.8037H23.439Z" fill="#2D2A26"/>
<path d="M23.819 40.2923C23.819 40.2923 24.661 40.0313 24.7351 39.2917C24.818 38.4608 24.8093 38.0127 25.0449 37.6908C25.0449 37.6908 24.4734 37.7125 24.2378 38.3868C24.2378 38.3868 24.0153 37.6908 23.819 37.4863C23.6183 37.6908 23.3915 38.3868 23.3915 38.3868C23.1603 37.7169 22.5801 37.6908 22.5801 37.6908C22.8244 38.0127 22.8069 38.4608 22.8942 39.2917C22.9814 40.0313 23.819 40.2923 23.819 40.2923Z" fill="#954B2D"/>
<path d="M23.7845 37.4469C23.6274 37.6166 23.4616 38.0603 23.3918 38.2648C23.1257 37.6818 22.5891 37.6427 22.5891 37.6427H22.4932L22.5499 37.7123C22.7287 37.9603 22.7593 38.2865 22.8116 38.8303L22.8596 39.2958C22.9381 40.0528 23.7801 40.2616 23.7801 40.2616L23.8019 40.2703L23.815 40.2616C23.815 40.2616 24.6962 40.0484 24.7791 39.2958L24.8183 38.8303C24.8707 38.2865 24.8969 37.9603 25.0845 37.7123L25.1368 37.6427H25.0452C25.0452 37.6427 24.5086 37.6818 24.2425 38.2648C24.1727 38.0603 24.0069 37.6166 23.8543 37.4469L23.8194 37.4121L23.7845 37.4469ZM23.4355 38.3953C23.4355 38.3953 23.6361 37.7862 23.8194 37.5513C23.9982 37.7862 24.1902 38.3866 24.1945 38.3953L24.2381 38.5171L24.2774 38.3953C24.4563 37.8993 24.8096 37.7732 24.9623 37.7427C24.814 37.9951 24.7747 38.317 24.7355 38.8173L24.6875 39.2828C24.622 39.9527 23.8892 40.2137 23.8194 40.2442C23.7452 40.2094 23.0123 39.9527 22.9425 39.2828L22.8945 38.8173C22.8553 38.317 22.816 37.9951 22.672 37.7427C22.8247 37.7732 23.1781 37.8993 23.3526 38.3953L23.3918 38.5171L23.4355 38.3953Z" fill="#2D2A26"/>
<path d="M6.82299 10.9064L7.44246 13.0512L8.89952 13.2382L8.77737 11.8113L6.72266 10.541L6.82736 10.9021L6.82299 10.9064ZM7.21125 11.1892C7.61259 11.4372 8.39783 11.9201 8.49381 11.9766C8.50253 12.0897 8.55052 12.664 8.56797 12.8989C8.33676 12.8728 7.80018 12.8032 7.66495 12.7901C7.63005 12.6553 7.34648 11.6591 7.21125 11.1936" fill="#2D2A26"/>
<path d="M8.87722 12.7255C8.87722 12.7255 8.53259 13.0692 8.34064 13.117C8.13997 13.1649 8.34064 13.5608 8.63728 13.5608C8.93393 13.5608 9.02554 13.7565 9.17386 13.5042C9.32655 13.2649 9.37017 12.8734 9.23057 12.8256C9.07789 12.7733 9.13024 12.6298 8.88158 12.7255" fill="#2D2A26"/>
<path d="M8.85154 12.6555L8.83845 12.6642L8.82972 12.6729C8.73375 12.7643 8.472 13.0123 8.32368 13.0471C8.23207 13.0688 8.17972 13.1515 8.18844 13.2559C8.21462 13.4082 8.38911 13.63 8.64213 13.63C8.73375 13.63 8.80355 13.6474 8.87335 13.6692C8.99114 13.7127 9.11764 13.7518 9.24415 13.543C9.37503 13.3342 9.43174 13.034 9.37067 12.8774C9.34449 12.7904 9.2965 12.7687 9.25724 12.7513C9.21798 12.7426 9.20489 12.7208 9.17872 12.6991C9.11765 12.6294 9.04784 12.5772 8.8559 12.6512M9.07402 12.7948C9.10019 12.8296 9.13509 12.8644 9.20489 12.8905L9.23543 12.9253C9.27033 13.0297 9.23543 13.282 9.11765 13.4734C9.05657 13.5778 9.03039 13.5691 8.91697 13.53C8.84281 13.5126 8.75556 13.4778 8.6465 13.4778C8.48073 13.4778 8.35858 13.3342 8.34549 13.2298V13.2167L8.3673 13.1863C8.56798 13.1341 8.86462 12.8557 8.93006 12.7861C9.03039 12.7513 9.04785 12.7643 9.08275 12.7948" fill="#2D2A26"/>
<path d="M7.86523 31.6049L9.31357 33.9846L9.46189 33.9063L7.9743 31.457L7.86523 31.6049Z" fill="#2D2A26"/>
<path d="M40.9805 10.7407L39.2443 11.8109L39.1309 13.2378L40.5836 13.0507L41.3034 10.5449L40.9849 10.7407H40.9805ZM40.8104 11.1888C40.6795 11.6543 40.396 12.6505 40.3611 12.7853C40.2215 12.7984 39.6849 12.868 39.445 12.8941C39.4755 12.6592 39.5191 12.0893 39.5235 11.9718C39.6238 11.9153 40.4091 11.4324 40.8104 11.1844" fill="#2D2A26"/>
<path d="M39.1442 12.7255C39.1442 12.7255 39.4845 13.0692 39.6808 13.117C39.8771 13.1649 39.6808 13.5608 39.3929 13.5608C39.105 13.5608 38.9959 13.7565 38.852 13.5042C38.7036 13.2649 38.6557 12.8734 38.804 12.8256C38.9523 12.7733 38.9 12.6298 39.1486 12.7255" fill="#2D2A26"/>
<path d="M38.8478 12.6986L38.7736 12.7508C38.7387 12.7639 38.6907 12.79 38.6558 12.877C38.6035 13.0292 38.6558 13.3338 38.7867 13.5426C38.9088 13.7514 39.0353 13.7122 39.1531 13.6687C39.2186 13.647 39.2927 13.6296 39.3887 13.6296C39.633 13.6296 39.8162 13.4077 39.8293 13.2554C39.8424 13.151 39.7944 13.0684 39.6984 13.0466C39.5501 13.0118 39.2796 12.7682 39.1924 12.6725L39.1793 12.6638L39.1618 12.6551C38.9699 12.5811 38.9045 12.6334 38.8434 12.703M38.9045 13.4773C38.7954 13.2859 38.7518 13.0336 38.7954 12.9292L38.8172 12.8987C38.8957 12.8683 38.9263 12.8335 38.9524 12.803C38.983 12.7682 39.0092 12.7552 39.1008 12.79C39.1749 12.8596 39.4629 13.138 39.6679 13.1902L39.6853 13.2206V13.2337C39.6766 13.3381 39.5501 13.4817 39.3887 13.4817C39.2709 13.4817 39.1793 13.5121 39.1051 13.5339C38.9961 13.573 38.9699 13.5817 38.9088 13.4773" fill="#2D2A26"/>
<path d="M33.4379 27.207L31.7715 28.7209C31.7715 28.7209 33.4379 30.3828 34.1795 30.1392C34.9168 29.8955 33.4379 27.207 33.4379 27.207Z" fill="#2D2A26"/>
<path d="M14.6097 27.207L16.2762 28.7209C16.2762 28.7209 14.6097 30.3828 13.8681 30.1392C13.1308 29.8955 14.6097 27.207 14.6097 27.207Z" fill="#2D2A26"/>
<path d="M38.5898 33.8976L38.6291 34.0717L40.1123 31.7138L40.0294 31.6094L38.5898 33.8976Z" fill="#2D2A26"/>
<path d="M8.7553 22.1777C8.7553 22.1777 6.37341 23.87 10.1469 26.5803L10.3214 26.9109C10.3214 26.9109 10.6311 25.3056 11.303 25.149L8.7553 22.1777Z" fill="white"/>
<path d="M36.7057 25.1314C36.7057 25.1314 37.7091 24.7616 37.6567 26.7149C36.7712 27.6938 34.9564 29.4643 34.9564 29.4643C34.9564 29.4643 37.8662 31.4611 38.5074 33.3187L38.695 33.9713C38.695 33.9713 36.9326 36.7381 36.0514 36.6902C35.5541 36.3944 36.1473 34.8805 34.4285 33.6102C32.7097 32.3399 30.9386 31.5525 31.1305 30.0908C31.3312 28.6204 33.0064 30.1473 33.2943 30.3344C33.8352 30.6781 34.4155 30.6998 34.7165 30.5302C35.1571 30.2866 34.0795 27.6459 33.9836 27.3979C33.8832 27.1543 35.2792 26.6018 36.7014 25.1314" fill="#2D2A26"/>
<path d="M6.26018 18.4492C6.26018 18.4492 8.52429 21.8468 8.71187 22.1166C8.83838 22.2949 7.66052 22.9997 8.12731 24.3178C8.18402 24.4788 10.2824 26.6322 10.3303 26.6801C10.3783 26.7279 10.579 27.3979 10.0337 27.9852C9.49711 28.5725 8.07059 30.0385 8.0226 31.013C7.97026 31.9962 7.87864 31.7003 7.87864 31.7003C7.87864 31.7003 6.73568 29.6948 6.20347 29.3033C5.66252 28.9161 6.45213 28.2331 6.60045 28.0374C6.74005 27.8416 8.46758 25.8317 8.41523 25.4446C8.36724 25.0487 5.62326 21.9208 5.66253 21.725C5.70615 21.5336 5.57092 20.8419 6.25582 18.4492" fill="#00833E"/>
<path d="M11.2983 25.1324C11.2983 25.1324 10.2819 24.7278 10.3342 26.6811C11.2198 27.6599 13.0477 29.4653 13.0477 29.4653C13.0477 29.4653 10.1379 31.4621 9.49664 33.3197L9.30469 33.9549C9.30469 33.9549 11.0671 36.7434 11.9527 36.6956C12.45 36.3997 11.8567 34.8858 13.5755 33.6155C15.2943 32.3452 17.0655 31.5578 16.8735 30.0961C16.6729 28.6257 14.9977 30.1527 14.7098 30.3397C14.1688 30.6834 13.5886 30.7051 13.2876 30.5355C12.847 30.2919 13.9245 27.6512 14.0205 27.4032C14.1208 27.1596 12.7248 26.6071 11.3027 25.1367" fill="#2D2A26"/>
<path d="M24.753 40.293C24.8053 39.697 24.8315 39.336 25.0322 39.0619C25.0322 39.0619 24.4607 39.0836 24.2251 39.7579C24.2251 39.7579 24.0026 39.0619 23.8063 38.8574C23.6056 39.0619 23.3788 39.7579 23.3788 39.7579C23.1476 39.088 22.5674 39.0619 22.5674 39.0619C22.7681 39.3316 22.7942 39.6927 22.8466 40.2887C23.4835 40.2713 24.116 40.293 24.753 40.293Z" fill="#954B2D"/>
<path d="M22.7936 40.2053L22.8023 40.2923C22.8023 40.2923 22.8154 40.2923 22.8241 40.2923C22.8459 40.2923 22.8678 40.2923 22.8896 40.2923L22.8808 40.201C22.8416 39.7007 22.8023 39.3788 22.6584 39.1264C22.811 39.1569 23.1644 39.283 23.3389 39.779L23.3782 39.9008L23.4218 39.779C23.4218 39.779 23.6225 39.1699 23.8057 38.935C23.9845 39.1699 24.1765 39.7703 24.1809 39.779L24.2245 39.9008L24.2637 39.779C24.4426 39.283 24.796 39.1569 24.9486 39.1264C24.8003 39.3788 24.7611 39.7007 24.7218 40.201L24.7131 40.2967C24.7131 40.2967 24.7523 40.2967 24.7741 40.2967C24.7829 40.2967 24.7916 40.2967 24.796 40.2967L24.8047 40.2053C24.857 39.6615 24.8876 39.3352 25.0708 39.0873L25.1231 39.0177H25.0315C25.0315 39.0177 24.4949 39.0568 24.2288 39.6398C24.159 39.4353 23.9933 38.9916 23.8406 38.8219L23.8057 38.7871L23.7708 38.8219C23.6137 38.9916 23.448 39.4353 23.3782 39.6398C23.1077 39.0568 22.5755 39.0177 22.5755 39.0177H22.4795L22.5362 39.0873C22.7151 39.3352 22.7456 39.6615 22.798 40.2053" fill="#2D2A26"/>
<path d="M32.2867 41.6322C32.2867 41.6322 32.1166 40.2836 32.1864 40.0618C32.2606 39.8486 32.8146 40.7926 32.7535 41.6322C32.6357 43.2158 30.9082 43.0853 30.9082 43.0853C30.9082 43.0853 32.3042 42.772 32.675 41.6714C32.675 41.1059 32.4263 40.5534 32.3522 40.5664L32.2911 41.6279L32.2867 41.6322Z" fill="#2D2A26"/>
<path d="M31.4964 40.8932C31.4964 40.8932 31.4877 40.0449 31.6055 40.0449C31.7145 40.0449 31.9894 41.1238 31.9021 41.5066C31.8149 41.8938 31.5357 42.2766 31.4223 42.294C31.3917 42.2984 31.3743 42.294 31.3612 42.294C31.3175 42.2723 31.3132 42.2288 31.287 42.2244C31.2696 42.2244 31.2303 42.2505 31.1998 42.3071C31.178 42.3288 31.1038 42.3288 31.0514 42.3071C30.986 42.281 30.986 42.2201 30.9467 42.2201C30.8857 42.2201 30.7548 42.5681 30.5061 42.5855C30.2095 42.6029 30.3186 42.1722 30.2357 42.1983C29.9696 42.281 29.6555 42.7726 28.3511 42.8726C27.6662 42.9248 27.6749 41.6893 27.6618 41.6458C27.6575 41.6284 27.5702 40.8149 27.5135 40.8541L27.4611 41.3326C27.4611 41.3326 27.3826 40.6148 27.5179 40.6018C27.7665 40.5757 27.6924 41.8721 27.9803 42.2723C28.085 42.4159 28.0588 42.5464 28.7219 42.4985C29.843 42.3332 29.9521 42.1722 30.3142 41.8808C30.4014 41.8112 30.3142 42.0896 30.4451 42.107C30.5759 42.1244 30.7941 42.0287 30.8682 41.8808C30.9467 41.7372 30.9642 41.9895 31.0645 41.9373C31.1823 41.8808 31.2172 41.7764 31.287 41.6806C31.3568 41.5849 31.3525 41.9678 31.4746 41.9156C31.6055 41.859 31.8629 41.598 31.7145 40.8236C31.7145 40.8236 31.6186 40.3581 31.5967 40.3842C31.5749 40.4147 31.4964 40.9019 31.4964 40.9019" fill="#2D2A26"/>
<path d="M30.5547 41.1802C30.5547 41.1802 30.655 40.4189 30.8121 40.4102C30.9429 40.4015 31.1131 41.1411 31.1131 41.1411C31.1131 41.1411 30.9691 40.7713 30.8252 40.8061C30.6768 40.8453 30.5591 41.1802 30.5591 41.1802" fill="#2D2A26"/>
<path d="M27.2611 41.6554C27.2611 41.6554 26.8423 41.5075 26.7507 42.5776C26.7463 42.6386 26.7332 42.7038 26.707 42.756C26.3319 43.5695 25.4463 43.526 25.4463 43.526C25.4463 43.526 26.7856 44.0263 26.8597 42.6995C26.9862 41.9294 27.2393 41.973 27.2393 41.973L27.2654 41.6554H27.2611Z" fill="#2D2A26"/>
<path d="M26.3315 42.0364C26.2355 42.1234 25.9956 42.3192 25.9258 42.1104C25.8734 41.9538 25.8778 41.7623 25.904 41.6014C25.9258 41.4535 25.9738 41.236 26.1352 41.1794C26.3184 41.1141 26.4362 41.3012 26.4929 41.4448C26.6674 41.8754 26.4842 42.3235 26.2573 42.6977C26.157 42.8673 26.0087 43.0761 25.8037 43.1153C25.7862 43.1153 25.7644 43.1196 25.7469 43.1196C25.2845 43.1196 25.2671 42.5933 25.1493 42.5933C25.1144 42.5933 25.0882 42.6716 25.0795 42.6977C25.0446 42.7847 25.014 42.876 24.9835 42.963C24.9399 43.0892 24.8963 43.2154 24.8352 43.3328C24.761 43.472 24.6476 43.6721 24.4557 43.5895C24.3117 43.5286 24.2375 43.372 24.207 43.2284C24.1503 42.9891 24.1765 42.7238 24.3073 42.5106C24.3553 42.4279 24.4208 42.354 24.4818 42.2844C24.7174 42.0103 24.9573 41.7406 25.2104 41.4839C25.2322 41.4622 25.2583 41.4404 25.2845 41.4448C25.302 41.4448 25.3194 41.4622 25.3281 41.4752C25.35 41.51 25.3456 41.5579 25.3238 41.597C25.302 41.6362 25.2671 41.6623 25.2365 41.6884C25.0315 41.8581 24.8352 42.0364 24.652 42.2235C24.5516 42.3235 24.4513 42.4323 24.3859 42.5585C24.3073 42.7151 24.2812 42.9674 24.4077 43.1109C24.5865 43.3198 24.8047 42.963 24.8657 42.8238C24.9312 42.6759 25.0184 42.3061 25.2278 42.3061C25.3936 42.3061 25.4328 42.5672 25.4896 42.6281C25.5201 42.7151 26.1614 43.0065 26.3926 41.9929L26.3315 42.0495V42.0364Z" fill="#2D2A26"/>
<path d="M29.7605 41.1547C29.7605 41.1547 29.7998 41.4158 29.6907 41.4897C29.5817 41.5637 29.5206 41.3244 29.5206 41.3244C29.5206 41.3244 29.4683 41.5811 29.3723 41.6028C29.2807 41.6202 29.2021 41.2722 29.2021 41.2722C29.2021 41.2722 29.3112 41.4201 29.381 41.3592C29.4595 41.3027 29.4901 41.1895 29.4901 41.1895C29.4901 41.1895 29.6297 41.3418 29.7082 41.2679C29.778 41.1982 29.7605 41.1504 29.7605 41.1504" fill="#2D2A26"/>
<path d="M29.778 40.6113L29.7649 40.781L29.0059 41.216L29.0189 41.042L29.778 40.6113Z" fill="#2D2A26"/>
<path d="M15.8099 41.2637L15.6005 41.0636C15.4827 40.9592 15.4348 40.8548 15.4478 40.759C15.4566 40.6981 15.4915 40.6503 15.5569 40.6111C15.6136 40.572 15.6747 40.5633 15.7532 40.5807C15.9321 40.6068 16.028 40.7025 16.0542 40.8852V40.9505L16.2374 40.9853L16.2636 40.572L16.2331 40.5546C16.0978 40.485 15.9626 40.4371 15.823 40.411C15.6485 40.3806 15.4871 40.398 15.3606 40.4632C15.2254 40.5328 15.1468 40.6372 15.125 40.7808C15.1076 40.8852 15.125 40.9766 15.1686 41.0462C15.2079 41.1201 15.2995 41.2202 15.4522 41.3637L15.5918 41.4986C15.7314 41.6335 15.7925 41.7466 15.7794 41.8423C15.7663 41.9162 15.727 41.9728 15.6572 42.0163C15.5962 42.0641 15.5264 42.0772 15.4435 42.0641C15.3606 42.0511 15.2908 42.0119 15.2341 41.9423C15.1817 41.8901 15.1599 41.8162 15.1599 41.7074V41.6465L14.9767 41.6161L14.9287 42.0772L14.9593 42.0946C15.077 42.1555 15.2166 42.2034 15.3868 42.2382C15.4435 42.2469 15.4958 42.2512 15.5482 42.2512C15.6703 42.2512 15.7794 42.2251 15.8623 42.1773C16.0019 42.112 16.0891 41.9945 16.1109 41.8379C16.1327 41.7422 16.1197 41.6465 16.076 41.5682C16.0368 41.4899 15.9495 41.3942 15.8187 41.2593" fill="#2D2A26"/>
<path d="M17.5938 42.3645C17.5327 42.3602 17.5022 42.3428 17.4891 42.321C17.4891 42.321 17.4716 42.2949 17.4891 42.1905L17.572 41.7163C17.6025 41.5119 17.585 41.377 17.524 41.2943C17.4629 41.203 17.3713 41.1464 17.2666 41.1334C17.1924 41.116 17.1095 41.1247 17.0048 41.1595C16.9481 41.1856 16.8871 41.216 16.8303 41.2465L16.9481 40.5156L16.4072 40.6244V40.7157L16.4901 40.7679C16.5468 40.8027 16.5599 40.8289 16.5686 40.8463C16.5686 40.8506 16.573 40.8811 16.5511 41.0116L16.3941 42.0121C16.3723 42.1253 16.3505 42.147 16.3461 42.147C16.3461 42.147 16.3199 42.1644 16.2283 42.147H16.1629L16.1367 42.308L16.8478 42.4211L16.8565 42.2993V42.2601L16.8173 42.2427H16.8042C16.7387 42.2253 16.7038 42.2123 16.6951 42.2036C16.682 42.1731 16.6777 42.1252 16.6908 42.0556L16.7867 41.4553C16.8391 41.4335 16.9089 41.4031 16.9612 41.39C17.0223 41.377 17.079 41.377 17.1314 41.3857C17.2142 41.3987 17.2404 41.4248 17.2491 41.4509C17.271 41.4988 17.2753 41.5684 17.2579 41.6554L17.1793 42.134C17.1663 42.2297 17.1488 42.2601 17.1314 42.2688C17.1139 42.2819 17.0528 42.2775 17.031 42.2775L16.9569 42.2558L16.9263 42.4298L17.6374 42.5472L17.6548 42.3819L17.6156 42.3689L17.585 42.3602L17.5938 42.3645Z" fill="#2D2A26"/>
<path d="M18.7718 42.49C18.7718 42.49 18.7543 42.4117 18.7805 42.2551L18.8547 41.7505C18.8678 41.6199 18.8503 41.5242 18.798 41.4633C18.75 41.3937 18.6496 41.3459 18.5144 41.3285C18.3617 41.3067 18.2221 41.3285 18.0956 41.3937C17.9735 41.4677 17.908 41.5503 17.8906 41.6634V41.7592L18.2308 41.7026L18.2439 41.6112C18.2483 41.5721 18.2657 41.546 18.2876 41.5286C18.305 41.5199 18.3443 41.5068 18.401 41.5155C18.449 41.5242 18.4882 41.5416 18.5231 41.5677L18.5537 41.6286C18.5537 41.6547 18.5537 41.7026 18.5493 41.7635L18.5319 41.8897L18.4141 41.9071C18.2047 41.9375 18.0607 41.9767 17.9604 42.0289C17.8557 42.0898 17.7946 42.1724 17.7771 42.2768C17.7641 42.3769 17.7859 42.4596 17.8382 42.5292C17.8862 42.6031 17.9691 42.651 18.0607 42.6597C18.1436 42.6727 18.2308 42.6597 18.3225 42.6249C18.3792 42.5988 18.4315 42.5683 18.4839 42.5335C18.4926 42.577 18.5057 42.6162 18.5319 42.6466C18.5711 42.7075 18.6322 42.7423 18.702 42.7467C18.7238 42.7467 18.7412 42.7467 18.7587 42.7467C18.8198 42.7467 18.8765 42.7336 18.9376 42.7119L18.9637 42.7032L18.9899 42.5553L18.8678 42.5466C18.7936 42.5335 18.7849 42.5031 18.7805 42.4987M18.1043 42.2899C18.1131 42.229 18.1392 42.1898 18.1829 42.1594C18.2178 42.142 18.305 42.1072 18.5057 42.0767L18.4795 42.2159C18.4751 42.2855 18.449 42.3377 18.401 42.3682H18.3923C18.3399 42.4291 18.2745 42.4552 18.209 42.4465C18.1654 42.4335 18.1436 42.4204 18.1305 42.3987C18.1087 42.3595 18.1 42.329 18.1 42.2899" fill="#2D2A26"/>
<path d="M20.246 41.6769V41.69L20.2372 41.6769C20.1718 41.5638 20.0889 41.5029 19.9799 41.4986C19.9013 41.4986 19.8359 41.516 19.7748 41.5508C19.7356 41.5725 19.6963 41.5986 19.6439 41.6378L19.657 41.4551L19.1597 41.5899L19.1248 41.6117L19.1074 41.6856L19.2121 41.7379C19.2775 41.7683 19.2993 41.7944 19.2993 41.7988C19.308 41.8205 19.3037 41.9336 19.3037 41.9815L19.2644 42.4557C19.2644 42.5557 19.2382 42.5862 19.2339 42.5905C19.2339 42.5905 19.2121 42.6079 19.1205 42.6079L19.0463 42.5862L19.0332 42.7776L19.7835 42.8254L19.7966 42.6645L19.753 42.6514L19.7225 42.6427C19.6221 42.6427 19.596 42.621 19.5916 42.6123C19.5829 42.5992 19.5654 42.5644 19.5741 42.4774L19.6134 41.8901L19.6221 41.8814C19.7399 41.7857 19.7966 41.7683 19.8315 41.7683C19.8708 41.7683 19.9057 41.7944 19.9537 41.8945L19.9842 41.9597L20.2285 41.7291V41.7553L20.3245 41.8031C20.3943 41.8336 20.4161 41.8597 20.4161 41.8597C20.4205 41.8771 20.4292 41.9293 20.4248 42.038L20.403 42.6688C20.3986 42.8733 20.3637 42.9603 20.3332 42.9994C20.2939 43.0603 20.2154 43.1126 20.0976 43.1561L20.0627 43.1691V43.3518L20.1238 43.3388C20.2547 43.3127 20.3725 43.2648 20.4815 43.1952C20.5644 43.1474 20.6211 43.0821 20.656 43.0038C20.6866 42.9255 20.7084 42.8254 20.7084 42.6819L20.7564 41.4986L20.259 41.6595L20.2241 41.6769H20.246Z" fill="#2D2A26"/>
<path d="M20.643 41.0809C20.5863 41.0765 20.5427 41.0896 20.499 41.1287C20.4598 41.1592 20.4336 41.2114 20.4336 41.2723C20.4336 41.3201 20.4423 41.3724 20.4859 41.4115C20.5208 41.4507 20.5732 41.4724 20.6255 41.4724C20.6779 41.4724 20.7259 41.455 20.7564 41.4246C20.8 41.3898 20.8262 41.3375 20.8262 41.281C20.8262 41.2331 20.8088 41.1809 20.7695 41.1374C20.7302 41.107 20.691 41.0852 20.643 41.0852" fill="#2D2A26"/>
<path d="M21.9959 42.6721C21.9828 42.6373 21.9698 42.5546 21.9785 42.4372L21.9916 41.9238C21.9959 41.802 21.9654 41.7063 21.9043 41.6411C21.8389 41.5758 21.7429 41.5454 21.6077 41.541C21.4375 41.541 21.311 41.5715 21.202 41.6541C21.058 41.7542 21.0275 41.8629 21.0318 41.9238L21.0013 42.0413L21.3677 41.9369V41.8455C21.3677 41.802 21.3808 41.7759 21.4026 41.7629C21.4245 41.7455 21.4681 41.7368 21.5117 41.7368C21.5684 41.7411 21.6077 41.7542 21.6382 41.7759L21.6775 41.8325C21.6775 41.8586 21.6862 41.9064 21.6775 41.9674V42.0979L21.5728 42.124C21.3503 42.1805 21.2107 42.2327 21.1365 42.298C21.0362 42.3719 20.9795 42.4633 20.9795 42.5633C20.9795 42.6547 21.0057 42.7374 21.0711 42.8026C21.1365 42.8722 21.2151 42.9114 21.3023 42.9114C21.4026 42.9114 21.4855 42.8809 21.5641 42.8505C21.612 42.82 21.66 42.7809 21.708 42.7374C21.7211 42.7809 21.7386 42.8157 21.7647 42.8461C21.8084 42.894 21.8651 42.9244 21.9436 42.9331C22.0265 42.9331 22.0963 42.9157 22.1792 42.8722L22.2053 42.8592L22.2271 42.7069H22.0876C22.0265 42.7069 22.009 42.6895 22.0003 42.6721M21.3459 42.6417C21.3154 42.6025 21.3023 42.5764 21.3023 42.5459C21.311 42.472 21.3329 42.4285 21.3677 42.398C21.4026 42.3719 21.4855 42.3328 21.6731 42.2806V42.4241C21.6688 42.4981 21.6513 42.5503 21.6164 42.5938C21.5597 42.6547 21.4943 42.6852 21.4288 42.6852C21.3983 42.6852 21.3677 42.6678 21.3459 42.646" fill="#2D2A26"/>
<path d="M23.6706 42.7688C23.6139 42.7688 23.579 42.7601 23.5615 42.7384C23.5528 42.734 23.5397 42.6949 23.5441 42.6078L23.5615 42.1206C23.5659 41.9292 23.531 41.7943 23.4568 41.7073C23.3783 41.6247 23.2867 41.5855 23.182 41.5855C23.1035 41.5855 23.0206 41.6073 22.9377 41.6508C22.881 41.6812 22.8243 41.716 22.7719 41.7552L22.785 41.0156L22.2703 41.1896V41.281L22.3706 41.3245C22.4229 41.3463 22.4535 41.3724 22.4622 41.3854C22.4753 41.4072 22.4753 41.4811 22.4753 41.5551L22.4447 42.5687C22.4447 42.6557 22.4273 42.6949 22.4142 42.7079C22.4055 42.7166 22.3837 42.7297 22.3095 42.7297H22.2354V42.895L22.9377 42.9211L22.9464 42.7471H22.8766C22.7894 42.7427 22.7719 42.7253 22.7632 42.7166C22.7501 42.7036 22.7458 42.6557 22.7501 42.5774L22.7719 41.9683C22.8243 41.9292 22.8854 41.8987 22.9333 41.8857C22.9988 41.8596 23.0468 41.8509 23.0948 41.8596C23.1384 41.8596 23.1951 41.8726 23.2256 41.9031C23.2518 41.9466 23.2649 42.0162 23.2605 42.1076L23.2474 42.5861C23.2431 42.6296 23.2344 42.7123 23.2169 42.7297C23.2169 42.7297 23.1995 42.7514 23.1078 42.7471H23.038V42.9167L23.7448 42.9385V42.7601H23.675L23.6706 42.7688Z" fill="#2D2A26"/>
<path d="M38.1455 39.0746C37.3602 39.0746 36.8018 38.918 36.4965 38.8049C37.0767 38.4307 37.9579 37.7434 38.0407 36.9864L38.0975 36.6689L37.8095 36.7733C37.8095 36.7733 37.7964 36.7733 37.779 36.782C37.4431 36.8864 36.2521 37.2301 34.9914 37.1691C34.3021 37.1343 33.6434 37.0517 33.1461 36.9864L33.0021 36.969C32.4219 36.8994 32.0031 36.8516 31.7588 36.9168C31.484 36.9951 30.9474 37.2475 30.8733 37.6259C30.8645 37.6738 30.8514 37.7347 30.8733 37.7999C30.8733 37.813 30.8776 37.8217 30.8863 37.8434L30.8951 37.8696C30.9038 37.9 30.9082 37.9348 30.9169 37.9696L31.1655 39.4574C28.4085 40.0491 25.0625 40.0186 24.0984 39.9925H24.0722C24.0722 39.9925 24.0678 39.9925 24.0635 39.9925C24.0068 39.9925 23.937 39.9925 23.8715 39.9925C23.8323 39.9925 23.7886 39.9925 23.7494 39.9925C23.5007 39.9925 23.2346 39.9969 22.9641 39.9969C22.5846 39.9969 22.1963 39.9882 21.8124 39.9751C21.3326 39.9621 20.8614 39.936 20.4077 39.9099C19.8624 39.8751 19.3564 39.8272 18.8634 39.7706C18.3007 39.7054 17.7859 39.6314 17.2973 39.5401C17.1577 39.514 17.0138 39.4835 16.8742 39.4531L17.1403 37.8434C17.1664 37.7608 17.1752 37.6781 17.1534 37.5998C17.1403 37.552 17.1228 37.5041 17.0966 37.4606C17.0748 37.4215 17.0443 37.378 17.0094 37.3388C16.9789 37.304 16.944 37.2692 16.9003 37.2301C16.8611 37.1996 16.8218 37.1691 16.7738 37.1387C16.7302 37.1082 16.6866 37.0821 16.6386 37.0604C16.595 37.0386 16.547 37.0125 16.5034 36.9951C16.4597 36.9777 16.4161 36.9603 16.3725 36.9429C16.3332 36.9299 16.2983 36.9168 16.2591 36.9081C16.0191 36.8385 15.5916 36.8907 14.9983 36.9603L14.8718 36.9734C14.309 37.0473 13.6939 37.1213 13.0352 37.1561C11.6959 37.2214 10.4657 36.8429 10.2345 36.7646L9.9466 36.6602L9.97714 36.969C10.0644 37.7216 10.9456 38.4133 11.5214 38.7918C11.2204 38.9049 10.6708 39.0615 9.87243 39.0615H9.52344L9.70666 39.3574C10.5399 40.7277 13.0178 40.8234 14.0909 40.6538C14.0909 40.7843 14.0866 40.893 14.0691 40.9887C14.0386 41.1932 13.9731 41.3846 13.9077 41.5847L13.8903 41.6369C13.7419 42.072 13.5892 42.5244 13.9906 42.855C14.4792 43.2553 18.846 44.5125 23.7581 44.5125H23.9806H24.1987C29.1675 44.5125 33.5867 43.2074 34.0186 42.8507C34.4112 42.5201 34.2629 42.0676 34.1189 41.6282C34.0491 41.4412 33.975 41.2237 33.9444 40.9887C33.927 40.893 33.9226 40.7886 33.9226 40.6538C34.4156 40.7321 35.2619 40.7669 36.1256 40.6059C36.8716 40.4667 37.8575 40.1404 38.3374 39.3617L38.525 39.0615H38.1716L38.1455 39.0746ZM14.248 41.7718L14.2829 41.663C14.3439 41.476 14.4094 41.2802 14.4399 41.0583C14.4617 40.9104 14.4704 40.7799 14.4704 40.6625C14.4704 40.5624 14.453 40.4624 14.4399 40.3623C14.4312 40.3231 14.4268 40.284 14.4225 40.2405C14.4137 40.1622 14.4007 40.0839 14.3876 40.0056L14.3788 39.9447C14.3352 39.6401 14.2872 39.3226 14.3003 39.0137C17.4762 40.6146 24.0068 40.3797 24.0678 40.3797C24.2685 40.3927 24.4735 40.3927 24.6699 40.3927H24.7745C25.2893 40.3927 25.8215 40.384 26.3538 40.3666C27.0823 40.3405 27.7934 40.297 28.4652 40.2318C29.3071 40.1535 30.0575 40.0491 30.7642 39.9186C31.6018 39.7619 32.2823 39.5836 32.9062 39.353C33.0327 39.3052 33.1984 39.2443 33.3642 39.1747C33.4296 39.1486 33.4907 39.1137 33.5474 39.0833L33.6652 39.0224C33.6478 39.2312 33.6216 39.4487 33.5954 39.6575L33.6478 39.6662L33.5911 39.6749C33.53 40.1317 33.4689 40.6059 33.53 41.0583C33.5736 41.315 33.6521 41.5499 33.7263 41.7631L33.7481 41.8327C33.8135 42.0328 33.8615 42.1938 33.8615 42.3199C33.8615 42.4287 33.8266 42.4983 33.7437 42.5636C33.338 42.8985 29.0672 44.134 24.19 44.134C24.1158 44.134 24.0373 44.134 23.9588 44.134H23.7755C18.9071 44.134 14.6275 42.9029 14.2174 42.5679C14.1389 42.5027 14.0996 42.4287 14.0996 42.3243C14.0996 42.1894 14.1564 42.0154 14.2392 41.7675M32.387 38.2263H32.435C32.8189 38.1915 33.3947 38.1436 33.4994 38.2611C33.5474 38.3176 33.5998 38.4351 33.6434 38.5917C33.1112 38.8962 32.4001 39.1573 31.532 39.3704L31.34 38.2263C31.6149 38.2872 31.99 38.2567 32.387 38.2263ZM33.9619 39.7402C33.9968 39.4531 34.0273 39.1616 34.0273 38.9702C34.0273 38.409 34.0055 38.2393 33.7874 38.0044C33.5605 37.7477 33.0108 37.7912 32.4219 37.8347H32.3521C31.9639 37.8696 31.4316 37.9087 31.2964 37.7956C31.2353 37.7434 31.2353 37.7129 31.2353 37.7042C31.2659 37.5737 31.5669 37.3693 31.8461 37.291C32.0293 37.2431 32.5092 37.304 33.0632 37.3693H33.0806C33.6565 37.4432 34.276 37.5172 34.9565 37.552C36.034 37.5998 37.0025 37.3954 37.5434 37.2475C37.1814 37.9783 35.9904 38.6396 35.9773 38.6483L35.685 38.8136L35.9686 38.9876C35.9686 38.9876 36.5706 39.3617 37.731 39.44C36.8542 40.3231 34.8605 40.4232 33.9052 40.2796C33.9139 40.1274 33.94 39.9273 33.9619 39.7358M12.01 38.9919L12.2892 38.8136L12.0057 38.6439C12.0057 38.6439 10.806 37.974 10.4396 37.2431C10.9805 37.391 11.9446 37.5955 13.0265 37.5476C13.6939 37.5128 14.3178 37.4389 14.898 37.3649H14.9198C15.4738 37.2953 15.9493 37.2344 16.1282 37.2823C16.4161 37.3606 16.7084 37.5607 16.7389 37.7042C16.7477 37.726 16.7127 37.7608 16.6866 37.7825C16.5513 37.8957 16.0322 37.8565 15.6178 37.826H15.5611C14.9765 37.7738 14.4225 37.7347 14.2 37.987C13.9644 38.235 13.8423 38.8049 13.9077 39.3487C13.9339 39.5618 13.96 39.8098 14.0037 40.2753C12.9436 40.4362 11.0896 40.2796 10.252 39.4357C11.3077 39.3661 11.901 39.0528 12.01 38.9876M14.4704 38.2698C14.549 38.1784 14.7235 38.1784 14.8631 38.1784H14.9111C15.0986 38.1784 15.2906 38.1915 15.4782 38.2089L15.5785 38.2176C15.9842 38.248 16.3725 38.2785 16.6517 38.2176L16.4597 39.3704C16.2198 39.3139 16.006 39.2573 15.801 39.1964H15.7923C15.308 39.0528 14.898 38.8962 14.5403 38.7179C14.5315 38.7135 14.5141 38.7048 14.4835 38.6918C14.3919 38.6526 14.3483 38.6309 14.3265 38.6178C14.3527 38.5265 14.3745 38.4568 14.4007 38.3959C14.4181 38.3568 14.4356 38.3133 14.4661 38.2785" fill="#2D2A26"/>
<path d="M0 23.9051C0 37.0779 10.7709 47.8015 24.0022 47.8015C37.2335 47.8015 48 37.0823 48 23.9051C48 10.7279 37.2378 0 24.0022 0C10.7665 0 0 10.7236 0 23.9051ZM0.479872 23.9051C0.479872 10.9889 11.037 0.482887 24.0022 0.482887C36.9674 0.482887 47.5201 10.9889 47.5201 23.9051C47.5201 36.8212 36.9717 47.3186 24.0022 47.3186C11.0326 47.3186 0.479872 36.8082 0.479872 23.9051Z" fill="#2D2A26"/>
<path d="M24.9273 40.9707C24.9098 41.0751 24.888 41.1926 24.8531 41.3274C24.8357 41.3622 24.7964 41.4057 24.731 41.4536C24.6655 41.5014 24.6132 41.5319 24.5739 41.5406C24.5608 41.5406 24.5347 41.5449 24.5041 41.5449C24.4736 41.5449 24.4474 41.5449 24.4343 41.5536C24.4038 41.5623 24.3689 41.5928 24.334 41.6407C24.3383 41.5667 24.3776 41.4101 24.4518 41.1795H24.4736C24.5783 41.1491 24.731 41.0795 24.9273 40.9707Z" fill="#2D2A26"/>
<path d="M26.1917 40.5488C26.1481 40.7272 26.1045 40.849 26.0522 40.9056C26.0173 40.9447 25.9126 41.0187 25.7337 41.1231C25.629 41.184 25.533 41.2362 25.4414 41.2797C25.4414 41.2144 25.4981 41.0752 25.6072 40.8621C25.7642 40.7968 25.9605 40.6924 26.1917 40.5488Z" fill="#2D2A26"/>
</svg>
