<svg width="54" height="54" viewBox="0 0 54 54" fill="none" xmlns="http://www.w3.org/2000/svg">
<path d="M0 12C0 5.37258 5.37258 0 12 0H42C48.6274 0 54 5.37258 54 12V42C54 48.6274 48.6274 54 42 54H12C5.37258 54 0 48.6274 0 42V12Z" fill="#6E38CE"/>
<path d="M21.25 21.25V22.625C21.25 23.3984 20.6055 24 19.875 24C19.1016 24 18.5 23.3984 18.5 22.625V21.25C18.5 18.9727 20.3477 17.125 22.625 17.125C24.9023 17.125 26.75 18.9727 26.75 21.25V21.5938C26.75 22.4961 26.6641 23.3984 26.5781 24.3008L31.8203 22.7109C32.3359 22.5391 32.8516 22.7109 33.2383 23.0547C33.582 23.4414 33.7109 23.957 33.5391 24.4727L32.7656 26.75H36.375C37.1055 26.75 37.75 27.3945 37.75 28.125C37.75 28.8984 37.1055 29.5 36.375 29.5H30.875C30.4023 29.5 30.0156 29.2852 29.7578 28.9414C29.5 28.5977 29.4141 28.125 29.543 27.6953L30.1016 26.1055L26.0195 27.3086C25.5039 29.5859 24.6875 31.7773 23.5273 33.7969L22.9258 34.8281C22.3672 35.8164 21.3359 36.375 20.2188 36.375C18.5 36.375 17.125 35 17.125 33.2812V30.1875C17.125 28.3828 18.2852 26.75 20.0469 26.2344L23.6562 25.1602C23.8711 24 24 22.7969 24 21.5938V21.25C24 20.5195 23.3555 19.875 22.625 19.875C21.8516 19.875 21.25 20.5195 21.25 21.25ZM20.8203 28.8555C20.2617 29.0273 19.832 29.5859 19.832 30.1875V33.2812C19.832 33.4961 20.0039 33.668 20.2188 33.668C20.3477 33.668 20.4766 33.582 20.5195 33.4531L21.1211 32.4219C21.8945 31.0898 22.4961 29.7148 22.9258 28.2539L20.8203 28.8555ZM14.0312 31.5625H15.75V33.2812C15.75 33.4102 15.75 33.5391 15.75 33.625H14.0312C13.4297 33.625 13 33.1953 13 32.5938C13 32.0352 13.4297 31.5625 14.0312 31.5625ZM39.4688 33.625H25.1602C25.5039 32.9805 25.8477 32.293 26.1055 31.5625H39.4688C40.0273 31.5625 40.5 32.0352 40.5 32.5938C40.5 33.1953 40.0273 33.625 39.4688 33.625Z" fill="white"/>
</svg>
