<svg width="33" height="32" viewBox="0 0 33 32" fill="none" xmlns="http://www.w3.org/2000/svg">
<path d="M0.984375 8.99827C0.984375 4.28795 4.80284 0.469482 9.51316 0.469482H23.7278C28.4381 0.469482 32.2566 4.28795 32.2566 8.99827V23.2129C32.2566 27.9232 28.4381 31.7417 23.7278 31.7417H9.51316C4.80284 31.7417 0.984375 27.9232 0.984375 23.2129V8.99827Z" fill="#42A4EE"/>
<path d="M22.9701 16.4924H22.1705L22.1955 20.4902C22.1955 21.3898 21.4709 22.0894 20.5964 22.0894H12.6006C11.7011 22.0894 11.0015 21.3898 11.0015 20.4902V16.4924H10.2019C9.75216 16.4924 9.40234 16.1426 9.40234 15.6928C9.40234 15.4679 9.4773 15.268 9.65221 15.0931L16.0488 9.49609C16.2237 9.32119 16.4236 9.2962 16.5985 9.2962C16.7734 9.2962 16.9733 9.34617 17.1232 9.47111L23.4948 15.0931C23.6947 15.268 23.7947 15.4679 23.7697 15.6928C23.7697 16.1426 23.3949 16.4924 22.9701 16.4924ZM15.7989 14.4934V15.6928H14.5996C14.3747 15.6928 14.1998 15.8927 14.1998 16.0926V16.8922C14.1998 17.117 14.3747 17.2919 14.5996 17.2919H15.7989V18.4913C15.7989 18.7162 15.9738 18.8911 16.1987 18.8911H16.9983C17.1982 18.8911 17.3981 18.7162 17.3981 18.4913V17.2919H18.5974C18.7973 17.2919 18.9972 17.117 18.9972 16.8922V16.0926C18.9972 15.8927 18.7973 15.6928 18.5974 15.6928H17.3981V14.4934C17.3981 14.2935 17.1982 14.0936 16.9983 14.0936H16.1987C15.9738 14.0936 15.7989 14.2935 15.7989 14.4934Z" fill="white"/>
</svg>
