<svg width="32" height="32" viewBox="0 0 32 32" fill="none" xmlns="http://www.w3.org/2000/svg">
<path d="M0.574219 8.99827C0.574219 4.28795 4.39269 0.469482 9.10301 0.469482H23.3177C28.028 0.469482 31.8464 4.28795 31.8464 8.99827V23.2129C31.8464 27.9232 28.028 31.7417 23.3177 31.7417H9.10301C4.39269 31.7417 0.574219 27.9232 0.574219 23.2129V8.99827Z" fill="#5DC988"/>
<path d="M22.56 16.4924H21.7604L21.7854 20.4902C21.7854 21.3898 21.0608 22.0894 20.1862 22.0894H12.1905C11.291 22.0894 10.5913 21.3898 10.5913 20.4902V16.4924H9.79176C9.342 16.4924 8.99219 16.1426 8.99219 15.6928C8.99219 15.4679 9.06715 15.268 9.24205 15.0931L15.6386 9.49609C15.8136 9.32119 16.0134 9.2962 16.1884 9.2962C16.3633 9.2962 16.5632 9.34617 16.7131 9.47111L23.0847 15.0931C23.2846 15.268 23.3845 15.4679 23.3595 15.6928C23.3595 16.1426 22.9847 16.4924 22.56 16.4924ZM15.3888 14.4934V15.6928H14.1894C13.9645 15.6928 13.7896 15.8927 13.7896 16.0926V16.8922C13.7896 17.117 13.9645 17.2919 14.1894 17.2919H15.3888V18.4913C15.3888 18.7162 15.5637 18.8911 15.7886 18.8911H16.5881C16.788 18.8911 16.9879 18.7162 16.9879 18.4913V17.2919H18.1873C18.3872 17.2919 18.5871 17.117 18.5871 16.8922V16.0926C18.5871 15.8927 18.3872 15.6928 18.1873 15.6928H16.9879V14.4934C16.9879 14.2935 16.788 14.0936 16.5881 14.0936H15.7886C15.5637 14.0936 15.3888 14.2935 15.3888 14.4934Z" fill="white"/>
</svg>
