<svg width="32" height="32" viewBox="0 0 32 32" fill="none" xmlns="http://www.w3.org/2000/svg">
<path d="M0.160156 8.99827C0.160156 4.28795 3.97863 0.469482 8.68894 0.469482H22.9036C27.6139 0.469482 31.4324 4.28795 31.4324 8.99827V23.2129C31.4324 27.9232 27.6139 31.7417 22.9036 31.7417H8.68895C3.97863 31.7417 0.160156 27.9232 0.160156 23.2129V8.99827Z" fill="#FF0000"/>
<path d="M22.1459 16.4924H21.3463L21.3713 20.4902C21.3713 21.3898 20.6467 22.0894 19.7722 22.0894H11.7764C10.8769 22.0894 10.1773 21.3898 10.1773 20.4902V16.4924H9.3777C8.92794 16.4924 8.57812 16.1426 8.57812 15.6928C8.57812 15.4679 8.65309 15.268 8.82799 15.0931L15.2246 9.49609C15.3995 9.32119 15.5994 9.2962 15.7743 9.2962C15.9492 9.2962 16.1491 9.34617 16.299 9.47111L22.6706 15.0931C22.8705 15.268 22.9705 15.4679 22.9455 15.6928C22.9455 16.1426 22.5707 16.4924 22.1459 16.4924ZM14.9747 14.4934V15.6928H13.7754C13.5505 15.6928 13.3756 15.8927 13.3756 16.0926V16.8922C13.3756 17.117 13.5505 17.2919 13.7754 17.2919H14.9747V18.4913C14.9747 18.7162 15.1496 18.8911 15.3745 18.8911H16.1741C16.374 18.8911 16.5739 18.7162 16.5739 18.4913V17.2919H17.7732C17.9731 17.2919 18.173 17.117 18.173 16.8922V16.0926C18.173 15.8927 17.9731 15.6928 17.7732 15.6928H16.5739V14.4934C16.5739 14.2935 16.374 14.0936 16.1741 14.0936H15.3745C15.1496 14.0936 14.9747 14.2935 14.9747 14.4934Z" fill="white"/>
</svg>
