<svg width="33" height="32" viewBox="0 0 33 32" fill="none" xmlns="http://www.w3.org/2000/svg">
<path d="M0.75 8.99827C0.75 4.28795 4.56847 0.469482 9.27879 0.469482H23.4934C28.2038 0.469482 32.0222 4.28795 32.0222 8.99827V23.2129C32.0222 27.9232 28.2038 31.7417 23.4934 31.7417H9.27879C4.56847 31.7417 0.75 27.9232 0.75 23.2129V8.99827Z" fill="#0764E6"/>
<path d="M22.7357 16.4924H21.9362L21.9611 20.4902C21.9611 21.3898 21.2365 22.0894 20.362 22.0894H12.3663C11.4667 22.0894 10.7671 21.3898 10.7671 20.4902V16.4924H9.96754C9.51778 16.4924 9.16797 16.1426 9.16797 15.6928C9.16797 15.4679 9.24293 15.268 9.41784 15.0931L15.8144 9.49609C15.9893 9.32119 16.1892 9.2962 16.3641 9.2962C16.539 9.2962 16.7389 9.34617 16.8889 9.47111L23.2605 15.0931C23.4604 15.268 23.5603 15.4679 23.5353 15.6928C23.5353 16.1426 23.1605 16.4924 22.7357 16.4924ZM15.5646 14.4934V15.6928H14.3652C14.1403 15.6928 13.9654 15.8927 13.9654 16.0926V16.8922C13.9654 17.117 14.1403 17.2919 14.3652 17.2919H15.5646V18.4913C15.5646 18.7162 15.7395 18.8911 15.9643 18.8911H16.7639C16.9638 18.8911 17.1637 18.7162 17.1637 18.4913V17.2919H18.3631C18.563 17.2919 18.7629 17.117 18.7629 16.8922V16.0926C18.7629 15.8927 18.563 15.6928 18.3631 15.6928H17.1637V14.4934C17.1637 14.2935 16.9638 14.0936 16.7639 14.0936H15.9643C15.7395 14.0936 15.5646 14.2935 15.5646 14.4934Z" fill="white"/>
</svg>
