<svg width="33" height="32" viewBox="0 0 33 32" fill="none" xmlns="http://www.w3.org/2000/svg">
<path d="M0.984375 8.98167C0.984375 4.27135 4.80284 0.452881 9.51316 0.452881H23.7278C28.4381 0.452881 32.2566 4.27135 32.2566 8.98167V23.1963C32.2566 27.9066 28.4381 31.7251 23.7278 31.7251H9.51316C4.80284 31.7251 0.984375 27.9066 0.984375 23.1963V8.98167Z" fill="#6E38CE"/>
<path d="M22.9701 16.4759H22.1705L22.1955 20.4738C22.1955 21.3733 21.4709 22.0729 20.5964 22.0729H12.6006C11.7011 22.0729 11.0015 21.3733 11.0015 20.4738V16.4759H10.2019C9.75216 16.4759 9.40234 16.1261 9.40234 15.6763C9.40234 15.4514 9.4773 15.2515 9.65221 15.0766L16.0488 9.47962C16.2237 9.30471 16.4236 9.27972 16.5985 9.27972C16.7734 9.27972 16.9733 9.3297 17.1232 9.45463L23.4948 15.0766C23.6947 15.2515 23.7947 15.4514 23.7697 15.6763C23.7697 16.1261 23.3949 16.4759 22.9701 16.4759ZM15.7989 14.477V15.6763H14.5996C14.3747 15.6763 14.1998 15.8762 14.1998 16.0761V16.8757C14.1998 17.1006 14.3747 17.2755 14.5996 17.2755H15.7989V18.4748C15.7989 18.6997 15.9738 18.8746 16.1987 18.8746H16.9983C17.1982 18.8746 17.3981 18.6997 17.3981 18.4748V17.2755H18.5974C18.7973 17.2755 18.9972 17.1006 18.9972 16.8757V16.0761C18.9972 15.8762 18.7973 15.6763 18.5974 15.6763H17.3981V14.477C17.3981 14.2771 17.1982 14.0772 16.9983 14.0772H16.1987C15.9738 14.0772 15.7989 14.2771 15.7989 14.477Z" fill="white"/>
</svg>
