<svg width="32" height="32" viewBox="0 0 32 32" fill="none" xmlns="http://www.w3.org/2000/svg">
<path d="M0.574219 8.98167C0.574219 4.27135 4.39269 0.452881 9.10301 0.452881H23.3177C28.028 0.452881 31.8464 4.27135 31.8464 8.98167V23.1963C31.8464 27.9066 28.028 31.7251 23.3177 31.7251H9.10301C4.39269 31.7251 0.574219 27.9066 0.574219 23.1963V8.98167Z" fill="#EF733D"/>
<path d="M22.56 16.4759H21.7604L21.7854 20.4738C21.7854 21.3733 21.0608 22.0729 20.1862 22.0729H12.1905C11.291 22.0729 10.5913 21.3733 10.5913 20.4738V16.4759H9.79176C9.342 16.4759 8.99219 16.1261 8.99219 15.6763C8.99219 15.4514 9.06715 15.2515 9.24205 15.0766L15.6386 9.47962C15.8136 9.30471 16.0134 9.27972 16.1884 9.27972C16.3633 9.27972 16.5632 9.3297 16.7131 9.45463L23.0847 15.0766C23.2846 15.2515 23.3845 15.4514 23.3595 15.6763C23.3595 16.1261 22.9847 16.4759 22.56 16.4759ZM15.3888 14.477V15.6763H14.1894C13.9645 15.6763 13.7896 15.8762 13.7896 16.0761V16.8757C13.7896 17.1006 13.9645 17.2755 14.1894 17.2755H15.3888V18.4748C15.3888 18.6997 15.5637 18.8746 15.7886 18.8746H16.5881C16.788 18.8746 16.9879 18.6997 16.9879 18.4748V17.2755H18.1873C18.3872 17.2755 18.5871 17.1006 18.5871 16.8757V16.0761C18.5871 15.8762 18.3872 15.6763 18.1873 15.6763H16.9879V14.477C16.9879 14.2771 16.788 14.0772 16.5881 14.0772H15.7886C15.5637 14.0772 15.3888 14.2771 15.3888 14.477Z" fill="white"/>
</svg>
