<svg width="32" height="32" viewBox="0 0 32 32" fill="none" xmlns="http://www.w3.org/2000/svg">
<path d="M0.160156 8.98167C0.160156 4.27135 3.97863 0.452881 8.68894 0.452881H22.9036C27.6139 0.452881 31.4324 4.27135 31.4324 8.98167V23.1963C31.4324 27.9066 27.6139 31.7251 22.9036 31.7251H8.68895C3.97863 31.7251 0.160156 27.9066 0.160156 23.1963V8.98167Z" fill="#42A4EE"/>
<path d="M22.1459 16.4759H21.3463L21.3713 20.4738C21.3713 21.3733 20.6467 22.0729 19.7722 22.0729H11.7764C10.8769 22.0729 10.1773 21.3733 10.1773 20.4738V16.4759H9.3777C8.92794 16.4759 8.57812 16.1261 8.57812 15.6763C8.57812 15.4514 8.65309 15.2515 8.82799 15.0766L15.2246 9.47962C15.3995 9.30471 15.5994 9.27972 15.7743 9.27972C15.9492 9.27972 16.1491 9.3297 16.299 9.45463L22.6706 15.0766C22.8705 15.2515 22.9705 15.4514 22.9455 15.6763C22.9455 16.1261 22.5707 16.4759 22.1459 16.4759ZM14.9747 14.477V15.6763H13.7754C13.5505 15.6763 13.3756 15.8762 13.3756 16.0761V16.8757C13.3756 17.1006 13.5505 17.2755 13.7754 17.2755H14.9747V18.4748C14.9747 18.6997 15.1496 18.8746 15.3745 18.8746H16.1741C16.374 18.8746 16.5739 18.6997 16.5739 18.4748V17.2755H17.7732C17.9731 17.2755 18.173 17.1006 18.173 16.8757V16.0761C18.173 15.8762 17.9731 15.6763 17.7732 15.6763H16.5739V14.477C16.5739 14.2771 16.374 14.0772 16.1741 14.0772H15.3745C15.1496 14.0772 14.9747 14.2771 14.9747 14.477Z" fill="white"/>
</svg>
