<svg width="33" height="32" viewBox="0 0 33 32" fill="none" xmlns="http://www.w3.org/2000/svg">
<path d="M0.75 8.98167C0.75 4.27135 4.56847 0.452881 9.27879 0.452881H23.4934C28.2038 0.452881 32.0222 4.27135 32.0222 8.98167V23.1963C32.0222 27.9066 28.2038 31.7251 23.4934 31.7251H9.27879C4.56847 31.7251 0.75 27.9066 0.75 23.1963V8.98167Z" fill="#FA8989"/>
<path d="M22.7357 16.4759H21.9362L21.9611 20.4738C21.9611 21.3733 21.2365 22.0729 20.362 22.0729H12.3663C11.4667 22.0729 10.7671 21.3733 10.7671 20.4738V16.4759H9.96754C9.51778 16.4759 9.16797 16.1261 9.16797 15.6763C9.16797 15.4514 9.24293 15.2515 9.41784 15.0766L15.8144 9.47962C15.9893 9.30471 16.1892 9.27972 16.3641 9.27972C16.539 9.27972 16.7389 9.3297 16.8889 9.45463L23.2605 15.0766C23.4604 15.2515 23.5603 15.4514 23.5353 15.6763C23.5353 16.1261 23.1605 16.4759 22.7357 16.4759ZM15.5646 14.477V15.6763H14.3652C14.1403 15.6763 13.9654 15.8762 13.9654 16.0761V16.8757C13.9654 17.1006 14.1403 17.2755 14.3652 17.2755H15.5646V18.4748C15.5646 18.6997 15.7395 18.8746 15.9643 18.8746H16.7639C16.9638 18.8746 17.1637 18.6997 17.1637 18.4748V17.2755H18.3631C18.563 17.2755 18.7629 17.1006 18.7629 16.8757V16.0761C18.7629 15.8762 18.563 15.6763 18.3631 15.6763H17.1637V14.477C17.1637 14.2771 16.9638 14.0772 16.7639 14.0772H15.9643C15.7395 14.0772 15.5646 14.2771 15.5646 14.477Z" fill="white"/>
</svg>
