<svg width="17" height="18" viewBox="0 0 17 18" fill="none" xmlns="http://www.w3.org/2000/svg">
<path d="M12.6292 7.10667C12.6292 5.06758 11.511 3.16005 9.73498 2.10762C7.92612 1.08808 5.72259 1.08808 3.94661 2.10762C2.13775 3.16005 1.05243 5.06758 1.05243 7.10667C1.05243 9.17864 2.13775 11.0862 3.94661 12.1386C5.72259 13.1581 7.92612 13.1581 9.73498 12.1386C11.511 11.0862 12.6292 9.17864 12.6292 7.10667ZM11.2807 12.303C10.0968 13.3555 8.51811 13.9475 6.8408 13.9475C3.05863 13.9475 0 10.8888 0 7.10667C0 3.35738 3.05863 0.265869 6.8408 0.265869C10.5901 0.265869 13.6816 3.35738 13.6816 7.10667C13.6816 8.81687 13.0567 10.3626 12.0372 11.5795L16.6744 16.2168C16.8718 16.4141 16.8718 16.7759 16.6744 16.9732C16.4771 17.1705 16.1153 17.1705 15.918 16.9732L11.2807 12.303Z" fill="#777FA1"/>
</svg>
