<svg width="12" height="4" viewBox="0 0 12 4" fill="none" xmlns="http://www.w3.org/2000/svg">
<path d="M11.9555 1.72678C11.9555 2.2342 11.6736 2.65706 11.2789 2.91077C10.8561 3.16448 10.3204 3.16448 9.92578 2.91077C9.50293 2.65706 9.24922 2.2342 9.24922 1.72678C9.24922 1.24755 9.50293 0.824699 9.92578 0.570988C10.3204 0.317277 10.8561 0.317277 11.2789 0.570988C11.6736 0.824699 11.9555 1.24755 11.9555 1.72678ZM7.44505 1.72678C7.44505 2.2342 7.16315 2.65706 6.76849 2.91077C6.34564 3.16448 5.81003 3.16448 5.41536 2.91077C4.99251 2.65706 4.7388 2.2342 4.7388 1.72678C4.7388 1.24755 4.99251 0.824699 5.41536 0.570988C5.81003 0.317277 6.34564 0.317277 6.76849 0.570988C7.16315 0.824699 7.44505 1.24755 7.44505 1.72678ZM1.58151 3.07991C1.07409 3.07991 0.651237 2.8262 0.397526 2.40335C0.143815 2.00868 0.143815 1.47307 0.397526 1.05022C0.651237 0.655559 1.07409 0.373658 1.58151 0.373658C2.06074 0.373658 2.48359 0.655559 2.7373 1.05022C2.99102 1.47307 2.99102 2.00868 2.7373 2.40335C2.48359 2.8262 2.06074 3.07991 1.58151 3.07991Z" fill="#6E6E6E"/>
</svg>
