<svg width="17" height="22" viewBox="0 0 17 22" fill="none" xmlns="http://www.w3.org/2000/svg">
<path d="M6.5 6.5C6.5 6.25 6.71875 6 7 6C7.25 6 7.5 6.25 7.5 6.5V7.03125C10 7.28125 12 9.40625 12 12V12.9375C12 14.2812 12.5312 15.5938 13.5 16.5625L13.5938 16.6562C13.8438 16.9062 14 17.2812 14 17.625C14 18.4062 13.375 19.0312 12.5938 19.0312H1.375C0.59375 19 0 18.4062 0 17.625C0 17.25 0.125 16.9062 0.40625 16.6562L0.46875 16.5625C1.4375 15.5938 2 14.2812 2 12.9375V12C2 9.40625 3.96875 7.28125 6.5 7.03125V6.5ZM7 8C4.78125 8 3 9.8125 3 12V12.9375C3 14.5625 2.34375 16.125 1.1875 17.2812L1.09375 17.3438C1.03125 17.4375 1 17.5312 1 17.625C1 17.8438 1.15625 18 1.375 18H12.5938C12.8125 18 13 17.8438 13 17.625C13 17.5312 12.9375 17.4375 12.875 17.3438L12.7812 17.2812C11.625 16.125 10.9688 14.5625 10.9688 12.9062V12C10.9688 9.8125 9.1875 8 6.96875 8H7ZM6.03125 20.3438C6.1875 20.75 6.5625 21 7 21C7.40625 21 7.78125 20.75 7.9375 20.3438C8.03125 20.0938 8.3125 19.9375 8.5625 20.0312C8.8125 20.125 8.96875 20.4062 8.875 20.6875C8.59375 21.4688 7.84375 22 7 22C6.125 22 5.375 21.4688 5.09375 20.6875C5 20.4062 5.15625 20.125 5.40625 20.0312C5.65625 19.9375 5.9375 20.0938 6.03125 20.3438Z" fill="#777FA1"/>
<path d="M13 8C15.2091 8 17 6.20914 17 4C17 1.79086 15.2091 0 13 0C10.7909 0 9 1.79086 9 4C9 6.20914 10.7909 8 13 8Z" fill="#CB6A5E"/>
</svg>
