<svg width="18" height="22" viewBox="0 0 18 22" fill="none" xmlns="http://www.w3.org/2000/svg">
<path d="M8 6C8.53125 6 9 6.46875 9 7V7.625C11.2812 8.0625 13 10.0938 13 12.5V13.0938C13 14.5625 13.5312 16 14.5 17.0938L14.7188 17.3438C15 17.6562 15.0625 18.0625 14.9062 18.4375C14.75 18.7812 14.375 19 14 19H2C1.59375 19 1.21875 18.7812 1.0625 18.4375C0.90625 18.0625 0.96875 17.6562 1.25 17.3438L1.46875 17.0938C2.4375 16 3 14.5625 3 13.0938V12.5C3 10.0938 4.71875 8.0625 7 7.625V7C7 6.46875 7.4375 6 8 6ZM9.40625 21.4375C9.03125 21.8125 8.53125 22 8 22C7.46875 22 6.9375 21.8125 6.5625 21.4375C6.1875 21.0625 6 20.5312 6 20H8H10C10 20.5312 9.78125 21.0625 9.40625 21.4375Z" fill="#777FA1"/>
<path d="M14 8C16.2091 8 18 6.20914 18 4C18 1.79086 16.2091 0 14 0C11.7909 0 10 1.79086 10 4C10 6.20914 11.7909 8 14 8Z" fill="#CB6A5E"/>
</svg>
