<svg width="18" height="14" viewBox="0 0 18 14" fill="none" xmlns="http://www.w3.org/2000/svg">
<path d="M0 0.625C0 0.3125 0.273438 0 0.625 0H16.875C17.1875 0 17.5 0.3125 17.5 0.625C17.5 0.976562 17.1875 1.25 16.875 1.25H0.625C0.273438 1.25 0 0.976562 0 0.625ZM0 6.875C0 6.5625 0.273438 6.25 0.625 6.25H16.875C17.1875 6.25 17.5 6.5625 17.5 6.875C17.5 7.22656 17.1875 7.5 16.875 7.5H0.625C0.273438 7.5 0 7.22656 0 6.875ZM17.5 13.125C17.5 13.4766 17.1875 13.75 16.875 13.75H0.625C0.273438 13.75 0 13.4766 0 13.125C0 12.8125 0.273438 12.5 0.625 12.5H16.875C17.1875 12.5 17.5 12.8125 17.5 13.125Z" fill="#777FA1"/>
</svg>
