<svg width="16" height="16" viewBox="0 0 16 16" fill="none" xmlns="http://www.w3.org/2000/svg">
<path d="M8.375 1.1875C8.125 1.0625 7.84375 1.0625 7.59375 1.1875L2.0625 3.53125C1.71875 3.65625 1.46875 4 1.5 4.375C1.5 7.3125 2.71875 12.5 7.59375 14.8438C7.84375 14.9688 8.125 14.9688 8.375 14.8438C13.25 12.5 14.4688 7.3125 14.5 4.375C14.5 4 14.25 3.65625 13.9062 3.53125L8.375 1.1875ZM7.21875 0.25C7.71875 0.03125 8.28125 0.03125 8.78125 0.25L14.2812 2.59375C14.9688 2.90625 15.5 3.5625 15.5 4.375C15.4688 7.5 14.1875 13.1562 8.8125 15.75C8.28125 16 7.6875 16 7.15625 15.75C1.78125 13.1562 0.5 7.5 0.5 4.375C0.46875 3.5625 1 2.90625 1.6875 2.59375L7.21875 0.25Z" fill="#777FA1"/>
</svg>
