<svg width="32" height="32" viewBox="0 0 32 32" fill="none" xmlns="http://www.w3.org/2000/svg">
<path d="M0.0390625 8.80418C0.0390625 4.09386 3.85753 0.275391 8.56785 0.275391H22.7825C27.4928 0.275391 31.3113 4.09386 31.3113 8.80418V23.0188C31.3113 27.7291 27.4928 31.5476 22.7825 31.5476H8.56785C3.85753 31.5476 0.0390625 27.7291 0.0390625 23.0188V8.80418Z" fill="#52B7CA"/>
<path d="M21.086 19.6421H11.99C11.0597 19.6421 10.3362 18.9185 10.3362 17.9883V12.1999C10.3362 11.2955 11.0597 10.5461 11.99 10.5461H15.0134C15.4527 10.5461 15.8662 10.727 16.1762 11.037L16.874 11.7348C17.184 12.0448 17.5975 12.1999 18.0368 12.1999H21.086C21.9905 12.1999 22.7398 12.9493 22.7398 13.8537V17.9883C22.7398 18.9185 21.9905 19.6421 21.086 19.6421ZM9.09583 12.8201V18.6084C9.09583 19.8746 10.1036 20.8824 11.3698 20.8824H19.6389C19.9749 20.8824 20.2591 21.1667 20.2591 21.5026C20.2591 21.8644 19.9749 22.1228 19.6389 22.1228H11.3698C9.40592 22.1228 7.85547 20.5724 7.85547 18.6084V12.8201C7.85547 12.4841 8.11388 12.1999 8.47565 12.1999C8.81158 12.1999 9.09583 12.4841 9.09583 12.8201Z" fill="white"/>
</svg>
