<svg width="33" height="32" viewBox="0 0 33 32" fill="none" xmlns="http://www.w3.org/2000/svg">
<path d="M0.878906 8.80418C0.878906 4.09386 4.69737 0.275391 9.40769 0.275391H23.6223C28.3327 0.275391 32.1511 4.09386 32.1511 8.80418V23.0188C32.1511 27.7291 28.3327 31.5476 23.6223 31.5476H9.40769C4.69738 31.5476 0.878906 27.7291 0.878906 23.0188V8.80418Z" fill="#6E38CE"/>
<path d="M12.8912 12.3002V13.0997C12.8912 13.5495 12.5164 13.8993 12.0916 13.8993C11.6419 13.8993 11.292 13.5495 11.292 13.0997V12.3002C11.292 10.9759 12.3665 9.90144 13.6908 9.90144C15.0151 9.90144 16.0895 10.9759 16.0895 12.3002V12.5001C16.0895 13.0248 16.0395 13.5495 15.9895 14.0742L19.0379 13.1497C19.3378 13.0498 19.6376 13.1497 19.8625 13.3496C20.0624 13.5745 20.1373 13.8743 20.0374 14.1742L19.5876 15.4985H21.6865C22.1113 15.4985 22.4861 15.8733 22.4861 16.298C22.4861 16.7478 22.1113 17.0976 21.6865 17.0976H18.4882C18.2134 17.0976 17.9885 16.9727 17.8386 16.7728C17.6886 16.5729 17.6387 16.298 17.7136 16.0482L18.0384 15.1237L15.6647 15.8233C15.3649 17.1476 14.8901 18.4219 14.2155 19.5963L13.8657 20.196C13.5408 20.7706 12.9412 21.0955 12.2915 21.0955C11.292 21.0955 10.4925 20.2959 10.4925 19.2964V17.4974C10.4925 16.4479 11.1671 15.4985 12.1916 15.1986L14.2904 14.5739C14.4154 13.8993 14.4903 13.1997 14.4903 12.5001V12.3002C14.4903 11.8754 14.1155 11.5006 13.6908 11.5006C13.241 11.5006 12.8912 11.8754 12.8912 12.3002ZM12.6413 16.7228C12.3165 16.8227 12.0666 17.1476 12.0666 17.4974V19.2964C12.0666 19.4214 12.1666 19.5213 12.2915 19.5213C12.3665 19.5213 12.4414 19.4713 12.4664 19.3964L12.8162 18.7967C13.266 18.0221 13.6158 17.2225 13.8657 16.373L12.6413 16.7228ZM8.69343 18.297H9.6929V19.2964C9.6929 19.3714 9.6929 19.4464 9.6929 19.4963H8.69343C8.34362 19.4963 8.09375 19.2465 8.09375 18.8966C8.09375 18.5718 8.34362 18.297 8.69343 18.297ZM23.4855 19.4963H15.165C15.3649 19.1215 15.5648 18.7217 15.7147 18.297H23.4855C23.8104 18.297 24.0852 18.5718 24.0852 18.8966C24.0852 19.2465 23.8104 19.4963 23.4855 19.4963Z" fill="white"/>
</svg>
